<svg xmlns="http://www.w3.org/2000/svg" width="292" height="164" viewBox="0 0 292 164">
  <g id="img10" transform="translate(-185.711 -2351)">
    <path id="Rectangle_456505" data-name="Rectangle 456505" d="M10,0H282a10,10,0,0,1,10,10V164a0,0,0,0,1,0,0H0a0,0,0,0,1,0,0V10A10,10,0,0,1,10,0Z" transform="translate(185.711 2351)" fill="#ff9e74"/>
    <g id="AdobeStock_566918260" transform="translate(-29.909 2121.989)">
      <path id="Path_1021329" data-name="Path 1021329" d="M434.916,293.776a67.551,67.551,0,0,0-18.36,2.529,82.054,82.054,0,0,0-144.877,32.216,16.173,16.173,0,0,0-19.167,19.053,41.194,41.194,0,0,0-25.082,60.979H482.908a67.423,67.423,0,0,0-47.993-114.777Z" transform="translate(0 -15.543)" fill="#e6e6e6"/>
      <path id="Path_1021330" data-name="Path 1021330" d="M2360.7,842.722s-5.709-29.5-25.1-29.348C2335.6,813.375,2355.425,827.163,2360.7,842.722Z" transform="translate(-1925.992 -515.57)" fill="#adb1cc"/>
      <path id="Path_1021331" data-name="Path 1021331" d="M2379.189,699.5s.163-38.9-24.5-43.574C2354.69,655.929,2376.4,678.42,2379.189,699.5Z" transform="translate(-1943.384 -372.128)" fill="#adb1cc"/>
      <g id="Group_1180569" data-name="Group 1180569" transform="translate(292.973 336.758)">
        <path id="Path_1021332" data-name="Path 1021332" d="M1051.34,1350.69a28.431,28.431,0,0,0-27.33,20.6h54.659A28.431,28.431,0,0,0,1051.34,1350.69Z" transform="translate(-1024.01 -1341.863)" fill="#ccc"/>
        <path id="Path_1021333" data-name="Path 1021333" d="M1889.77,1350.69a28.431,28.431,0,0,0-27.33,20.6H1917.1A28.43,28.43,0,0,0,1889.77,1350.69Z" transform="translate(-1787.881 -1341.863)" fill="#ccc"/>
        <path id="Path_1021334" data-name="Path 1021334" d="M1370.368,1251.43a40.609,40.609,0,0,0-39.038,29.429H1409.4A40.609,40.609,0,0,0,1370.368,1251.43Z" transform="translate(-1304.001 -1251.43)" fill="#ccc"/>
      </g>
      <g id="Group_1180570" data-name="Group 1180570" transform="translate(338.143 358.636)">
        <path id="Path_1021335" data-name="Path 1021335" d="M1539.5,1524.87a7.85,7.85,0,0,0-7.546,5.689h15.092A7.848,7.848,0,0,0,1539.5,1524.87Z" transform="translate(-1531.95 -1522.432)" fill="#b8b8b8"/>
        <path id="Path_1021336" data-name="Path 1021336" d="M1771,1524.87a7.85,7.85,0,0,0-7.546,5.689h15.092A7.848,7.848,0,0,0,1771,1524.87Z" transform="translate(-1742.863 -1522.432)" fill="#b8b8b8"/>
        <path id="Path_1021337" data-name="Path 1021337" d="M1627.589,1497.46a11.213,11.213,0,0,0-10.779,8.126h21.558A11.213,11.213,0,0,0,1627.589,1497.46Z" transform="translate(-1609.264 -1497.46)" fill="#b8b8b8"/>
      </g>
      <g id="Group_1180581" data-name="Group 1180581" transform="translate(449.089 305.846)">
        <g id="Group_1180571" data-name="Group 1180571" transform="translate(16.863 0)">
          <path id="Path_1021338" data-name="Path 1021338" d="M2969.461,913.569a8.183,8.183,0,0,0,.027-5.842c-1.178-3.262,1.455-4.631,2.753-3.542S2974.1,908.89,2969.461,913.569Z" transform="translate(-2969.191 -903.817)" fill="#f2bf80"/>
        </g>
        <g id="Group_1180572" data-name="Group 1180572" transform="translate(9.018 2.629)">
          <path id="Path_1021339" data-name="Path 1021339" d="M2886.527,942.381a8.185,8.185,0,0,0-3.706-4.517c-2.988-1.761-1.833-4.494-.139-4.485S2887.114,935.821,2886.527,942.381Z" transform="translate(-2880.976 -933.38)" fill="#f2bf80"/>
        </g>
        <g id="Group_1180573" data-name="Group 1180573" transform="translate(14.855 10.979)">
          <path id="Path_1021340" data-name="Path 1021340" d="M2946.61,1028.225a8.185,8.185,0,0,1,5.289,2.48c2.442,2.462,4.807.671,4.381-.969S2952.824,1026.042,2946.61,1028.225Z" transform="translate(-2946.61 -1027.277)" fill="#f2bf80"/>
        </g>
        <g id="Group_1180574" data-name="Group 1180574" transform="translate(10.945 15.544)">
          <path id="Path_1021341" data-name="Path 1021341" d="M2902.65,1079.563a8.186,8.186,0,0,1,5.289,2.48c2.442,2.462,4.807.67,4.38-.969S2908.864,1077.38,2902.65,1079.563Z" transform="translate(-2902.65 -1078.615)" fill="#f2bf80"/>
        </g>
        <g id="Group_1180575" data-name="Group 1180575" transform="translate(8.503 20.541)">
          <path id="Path_1021342" data-name="Path 1021342" d="M2875.18,1135.753a8.186,8.186,0,0,1,5.29,2.48c2.442,2.462,4.807.671,4.38-.969S2881.394,1133.57,2875.18,1135.753Z" transform="translate(-2875.18 -1134.806)" fill="#f2bf80"/>
        </g>
        <g id="Group_1180576" data-name="Group 1180576" transform="translate(5.745 26.856)">
          <path id="Path_1021343" data-name="Path 1021343" d="M2844.17,1206.763a8.185,8.185,0,0,1,5.289,2.48c2.442,2.462,4.808.671,4.381-.969S2850.384,1204.58,2844.17,1206.763Z" transform="translate(-2844.17 -1205.815)" fill="#f2bf80"/>
        </g>
        <g id="Group_1180577" data-name="Group 1180577" transform="translate(5.436 7.457)">
          <path id="Path_1021344" data-name="Path 1021344" d="M2846.248,996.671a8.185,8.185,0,0,0-3.706-4.516c-2.988-1.761-1.834-4.494-.139-4.485S2846.834,990.11,2846.248,996.671Z" transform="translate(-2840.696 -987.669)" fill="#f2bf80"/>
        </g>
        <g id="Group_1180578" data-name="Group 1180578" transform="translate(2.472 12.934)">
          <path id="Path_1021345" data-name="Path 1021345" d="M2812.917,1058.261a8.183,8.183,0,0,0-3.706-4.516c-2.988-1.761-1.834-4.494-.139-4.485S2813.5,1051.7,2812.917,1058.261Z" transform="translate(-2807.366 -1049.26)" fill="#f2bf80"/>
        </g>
        <g id="Group_1180579" data-name="Group 1180579" transform="translate(0 18.674)">
          <path id="Path_1021346" data-name="Path 1021346" d="M2785.117,1122.811a8.182,8.182,0,0,0-3.705-4.517c-2.988-1.761-1.834-4.494-.139-4.484S2785.7,1116.25,2785.117,1122.811Z" transform="translate(-2779.566 -1113.81)" fill="#f2bf80"/>
        </g>
        <g id="Group_1180580" data-name="Group 1180580" transform="translate(0.167 8.286)">
          <path id="Path_1021347" data-name="Path 1021347" d="M2781.753,1042.715a.3.3,0,0,0,.274-.289,84.922,84.922,0,0,1,2.316-16.509c2.013-8.425,6.235-20.193,14.91-28.412a.294.294,0,1,0-.4-.428c-8.784,8.323-13.049,20.209-15.081,28.716a85.515,85.515,0,0,0-2.328,16.624.294.294,0,0,0,.29.3Z" transform="translate(-2781.439 -996.996)" fill="#f2bf80"/>
        </g>
      </g>
      <g id="Group_1180592" data-name="Group 1180592" transform="translate(459.65 324.923)">
        <g id="Group_1180582" data-name="Group 1180582" transform="translate(22.927 0)">
          <path id="Path_1021348" data-name="Path 1021348" d="M3156.16,1125.873a6.8,6.8,0,0,0,1.254-4.692c-.26-2.871,2.147-3.417,2.961-2.268S3160.875,1123.089,3156.16,1125.873Z" transform="translate(-3156.16 -1118.352)" fill="#f2bf80"/>
        </g>
        <g id="Group_1180583" data-name="Group 1180583" transform="translate(17.452 0.398)">
          <path id="Path_1021349" data-name="Path 1021349" d="M3097.613,1130.924a6.8,6.8,0,0,0-2.027-4.413c-2.031-2.046-.527-4,.835-3.635S3099.469,1125.772,3097.613,1130.924Z" transform="translate(-3094.596 -1122.831)" fill="#f2bf80"/>
        </g>
        <g id="Group_1180584" data-name="Group 1180584" transform="translate(20.637 8.733)">
          <path id="Path_1021350" data-name="Path 1021350" d="M3130.41,1216.615a6.8,6.8,0,0,1,3.73,3.111c1.444,2.5,3.724,1.554,3.727.145S3135.867,1216.171,3130.41,1216.615Z" transform="translate(-3130.41 -1216.559)" fill="#f2bf80"/>
        </g>
        <g id="Group_1180585" data-name="Group 1180585" transform="translate(16.531 11.579)">
          <path id="Path_1021351" data-name="Path 1021351" d="M3084.23,1248.623a6.8,6.8,0,0,1,3.73,3.111c1.444,2.5,3.724,1.554,3.727.145S3089.687,1248.178,3084.23,1248.623Z" transform="translate(-3084.23 -1248.566)" fill="#f2bf80"/>
        </g>
        <g id="Group_1180586" data-name="Group 1180586" transform="translate(13.511 15.082)">
          <path id="Path_1021352" data-name="Path 1021352" d="M3050.27,1288.005a6.8,6.8,0,0,1,3.73,3.111c1.444,2.5,3.724,1.554,3.727.145S3055.728,1287.561,3050.27,1288.005Z" transform="translate(-3050.27 -1287.949)" fill="#f2bf80"/>
        </g>
        <g id="Group_1180587" data-name="Group 1180587" transform="translate(9.962 19.578)">
          <path id="Path_1021353" data-name="Path 1021353" d="M3010.36,1338.565a6.8,6.8,0,0,1,3.731,3.111c1.444,2.5,3.724,1.553,3.727.145S3015.818,1338.121,3010.36,1338.565Z" transform="translate(-3010.36 -1338.509)" fill="#f2bf80"/>
        </g>
        <g id="Group_1180588" data-name="Group 1180588" transform="translate(13.553 3.524)">
          <path id="Path_1021354" data-name="Path 1021354" d="M3053.763,1166.074a6.8,6.8,0,0,0-2.027-4.413c-2.031-2.046-.526-4,.835-3.635S3055.619,1160.923,3053.763,1166.074Z" transform="translate(-3050.746 -1157.981)" fill="#f2bf80"/>
        </g>
        <g id="Group_1180589" data-name="Group 1180589" transform="translate(10.014 7.303)">
          <path id="Path_1021355" data-name="Path 1021355" d="M3013.963,1208.574a6.8,6.8,0,0,0-2.027-4.413c-2.031-2.046-.527-4,.835-3.635S3015.819,1203.423,3013.963,1208.574Z" transform="translate(-3010.946 -1200.481)" fill="#f2bf80"/>
        </g>
        <g id="Group_1180590" data-name="Group 1180590" transform="translate(6.815 11.397)">
          <path id="Path_1021356" data-name="Path 1021356" d="M2977.993,1254.6a6.8,6.8,0,0,0-2.026-4.413c-2.031-2.046-.526-4,.835-3.635S2979.849,1249.453,2977.993,1254.6Z" transform="translate(-2974.976 -1246.511)" fill="#f2bf80"/>
        </g>
        <g id="Group_1180591" data-name="Group 1180591" transform="translate(0 6.47)">
          <path id="Path_1021357" data-name="Path 1021357" d="M2898.538,1224.234a.245.245,0,0,0,.281-.175,70.475,70.475,0,0,1,5.345-12.787c3.4-6.349,9.273-14.922,17.984-19.7a.245.245,0,0,0-.236-.43c-8.819,4.839-14.757,13.5-18.186,19.91a71.042,71.042,0,0,0-5.38,12.877.246.246,0,0,0,.17.3Z" transform="translate(-2898.337 -1191.111)" fill="#f2bf80"/>
        </g>
      </g>
      <g id="Group_1180593" data-name="Group 1180593" transform="translate(398.779 350.51)">
        <path id="Path_1021358" data-name="Path 1021358" d="M2228.912,1460.89a15.7,15.7,0,0,0-15.092,11.377H2244A15.7,15.7,0,0,0,2228.912,1460.89Z" transform="translate(-2213.82 -1456.016)" fill="#f6d2a6"/>
        <path id="Path_1021359" data-name="Path 1021359" d="M2691.922,1460.89a15.7,15.7,0,0,0-15.092,11.377h30.184A15.7,15.7,0,0,0,2691.922,1460.89Z" transform="translate(-2635.656 -1456.016)" fill="#f6d2a6"/>
        <path id="Path_1021360" data-name="Path 1021360" d="M2405.088,1406.08a22.427,22.427,0,0,0-21.558,16.251h43.114A22.424,22.424,0,0,0,2405.088,1406.08Z" transform="translate(-2368.438 -1406.08)" fill="#f6d2a6"/>
      </g>
      <g id="Group_1180594" data-name="Group 1180594" transform="translate(282.462 366.286)">
        <path id="Path_1021361" data-name="Path 1021361" d="M1059.855,1593.466H910.8a4.988,4.988,0,1,1,0-9.976h149.057a4.988,4.988,0,0,1,0,9.976Z" transform="translate(-905.81 -1583.49)" fill="#8987a8"/>
      </g>
      <g id="Group_1180595" data-name="Group 1180595" transform="translate(427.942 269.499)">
        <path id="Path_1021362" data-name="Path 1021362" d="M2556.431,548.34a15.252,15.252,0,0,0-14.661,11.053h29.322A15.252,15.252,0,0,0,2556.431,548.34Z" transform="translate(-2541.77 -543.605)" fill="#fff"/>
        <path id="Path_1021363" data-name="Path 1021363" d="M3006.221,548.34a15.252,15.252,0,0,0-14.661,11.053h29.322A15.252,15.252,0,0,0,3006.221,548.34Z" transform="translate(-2951.562 -543.605)" fill="#fff"/>
        <path id="Path_1021364" data-name="Path 1021364" d="M2727.582,495.09a21.784,21.784,0,0,0-20.942,15.788h41.884A21.785,21.785,0,0,0,2727.582,495.09Z" transform="translate(-2691.979 -495.09)" fill="#fff"/>
      </g>
      <g id="Group_1180596" data-name="Group 1180596" transform="translate(362.995 371.867)">
        <path id="Path_1021365" data-name="Path 1021365" d="M1818.914,1673.46a7.8,7.8,0,0,0-7.494,5.65h14.989A7.8,7.8,0,0,0,1818.914,1673.46Z" transform="translate(-1811.42 -1671.039)" fill="#adb1cc"/>
        <path id="Path_1021366" data-name="Path 1021366" d="M2048.824,1673.46a7.8,7.8,0,0,0-7.494,5.65h14.989A7.8,7.8,0,0,0,2048.824,1673.46Z" transform="translate(-2020.885 -1671.039)" fill="#adb1cc"/>
        <path id="Path_1021367" data-name="Path 1021367" d="M1906.385,1646.24a11.137,11.137,0,0,0-10.7,8.07h21.409A11.134,11.134,0,0,0,1906.385,1646.24Z" transform="translate(-1888.187 -1646.24)" fill="#adb1cc"/>
      </g>
      <g id="Group_1180597" data-name="Group 1180597" transform="translate(236.775 267.026)">
        <path id="Path_1021368" data-name="Path 1021368" d="M408.635,527.55a17.264,17.264,0,0,0-16.6,12.511h33.192A17.265,17.265,0,0,0,408.635,527.55Z" transform="translate(-392.04 -522.19)" fill="#f6d2a6"/>
        <path id="Path_1021369" data-name="Path 1021369" d="M917.775,527.55a17.264,17.264,0,0,0-16.6,12.511h33.192A17.266,17.266,0,0,0,917.775,527.55Z" transform="translate(-855.904 -522.19)" fill="#f6d2a6"/>
        <path id="Path_1021370" data-name="Path 1021370" d="M602.365,467.28a24.66,24.66,0,0,0-23.705,17.871h47.41A24.66,24.66,0,0,0,602.365,467.28Z" transform="translate(-562.064 -467.28)" fill="#f6d2a6"/>
      </g>
      <g id="Group_1180598" data-name="Group 1180598" transform="translate(245.865 277.549)">
        <path id="Path_1021371" data-name="Path 1021371" d="M504.01,621.02a10.143,10.143,0,0,0-9.75,7.35h19.5A10.14,10.14,0,0,0,504.01,621.02Z" transform="translate(-494.26 -617.871)" fill="#6f728a"/>
        <path id="Path_1021372" data-name="Path 1021372" d="M803.11,621.02a10.143,10.143,0,0,0-9.75,7.35h19.5A10.14,10.14,0,0,0,803.11,621.02Z" transform="translate(-766.762 -617.871)" fill="#6f728a"/>
        <path id="Path_1021373" data-name="Path 1021373" d="M617.826,585.61a14.487,14.487,0,0,0-13.926,10.5h27.852A14.487,14.487,0,0,0,617.826,585.61Z" transform="translate(-594.15 -585.61)" fill="#6f728a"/>
      </g>
      <g id="Group_1180599" data-name="Group 1180599" transform="translate(435.182 283.404)">
        <path id="Path_1021374" data-name="Path 1021374" d="M2781.457,669.6a5.2,5.2,0,0,1,5,3.767h-9.993A5.2,5.2,0,0,1,2781.457,669.6Z" transform="translate(-2762.829 -667.986)" fill="#454a5f"/>
        <path id="Path_1021375" data-name="Path 1021375" d="M2628.177,669.6a5.2,5.2,0,0,1,5,3.767h-9.993A5.2,5.2,0,0,1,2628.177,669.6Z" transform="translate(-2623.18 -667.986)" fill="#454a5f"/>
        <path id="Path_1021376" data-name="Path 1021376" d="M2679.277,651.45a7.424,7.424,0,0,1,7.136,5.38H2672.14A7.426,7.426,0,0,1,2679.277,651.45Z" transform="translate(-2667.786 -651.45)" fill="#454a5f"/>
      </g>
      <g id="Group_1180600" data-name="Group 1180600" transform="translate(293.347 298.851)">
        <path id="Path_1021377" data-name="Path 1021377" d="M1153.01,839.47a4.1,4.1,0,0,1,3.939,2.97h-7.879A4.1,4.1,0,0,1,1153.01,839.47Z" transform="translate(-1138.322 -838.197)" fill="#454a5f"/>
        <path id="Path_1021378" data-name="Path 1021378" d="M1032.15,839.47a4.1,4.1,0,0,1,3.939,2.97h-7.879A4.1,4.1,0,0,1,1032.15,839.47Z" transform="translate(-1028.21 -838.197)" fill="#454a5f"/>
        <path id="Path_1021379" data-name="Path 1021379" d="M1072.437,825.16a5.853,5.853,0,0,1,5.627,4.243H1066.81A5.853,5.853,0,0,1,1072.437,825.16Z" transform="translate(-1063.377 -825.16)" fill="#454a5f"/>
      </g>
      <path id="Path_1021380" data-name="Path 1021380" d="M697.789,994.5a17.921,17.921,0,0,0-5.272,2.684l-.055-.221c-.474-1.891-1.061-4.011-1.78-6.285a17.945,17.945,0,0,0,5.643-2.178,17.709,17.709,0,0,0,4.821-4.421,17.7,17.7,0,0,0-6.137,2.264,17.957,17.957,0,0,0-4.453,3.94c-.6-1.882-1.3-3.865-2.091-5.906a17.964,17.964,0,0,0,4.862-3.53,17.684,17.684,0,0,0,3.53-5.506A17.69,17.69,0,0,0,691.5,979.1a17.928,17.928,0,0,0-3.227,4.793c-.8-2.034-1.71-4.12-2.726-6.219a17.965,17.965,0,0,0,4.271-4.234,17.69,17.69,0,0,0,2.649-5.98,17.694,17.694,0,0,0-4.718,4.531,17.947,17.947,0,0,0-2.446,5.185c-.694-1.41-1.438-2.825-2.237-4.231a17.953,17.953,0,0,0,2.346-5.521,17.7,17.7,0,0,0,.192-6.538,16.873,16.873,0,0,0-3,11.254q-.858-1.467-1.795-2.915a16.875,16.875,0,0,0-6.573-9.625,16.874,16.874,0,0,0,5.818,10.058q.972,1.494,1.854,3.015a17.939,17.939,0,0,0-5.57-1.276,17.694,17.694,0,0,0-6.477.907,17.7,17.7,0,0,0,6.338,1.616,17.952,17.952,0,0,0,6-.749c.807,1.409,1.556,2.829,2.256,4.244a17.965,17.965,0,0,0-5.94.363,17.7,17.7,0,0,0-5.939,2.739,17.71,17.71,0,0,0,6.534-.284,17.946,17.946,0,0,0,5.528-2.45c1.051,2.152,1.983,4.293,2.81,6.379a17.95,17.95,0,0,0-5.918-.156,17.693,17.693,0,0,0-6.158,2.2,17.7,17.7,0,0,0,6.534.294,17.949,17.949,0,0,0,5.7-1.94c.806,2.06,1.507,4.062,2.116,5.961a17.957,17.957,0,0,0-5.877-.363,17.709,17.709,0,0,0-6.234,1.98,17.706,17.706,0,0,0,6.519.53,17.935,17.935,0,0,0,5.729-1.715c.709,2.243,1.289,4.336,1.756,6.2l.069.279a17.875,17.875,0,0,0-6.355.312,17.7,17.7,0,0,0-5.939,2.739,16.943,16.943,0,0,0,12.327-2.916,94.217,94.217,0,0,1,2.365,13.182l.865-.072a94.793,94.793,0,0,0-2.324-13.059,17.932,17.932,0,0,0,5.9-.7,17.7,17.7,0,0,0,5.773-3.075A17.666,17.666,0,0,0,697.789,994.5Z" transform="translate(-408.38 -648.794)" fill="#999"/>
      <path id="Path_1021381" data-name="Path 1021381" d="M524.136,1209.224a11.513,11.513,0,0,0-2.742,2.617l-.075-.125c-.638-1.073-1.39-2.267-2.249-3.53a11.509,11.509,0,0,0,3.063-2.375,11.354,11.354,0,0,0,2.146-3.6,11.33,11.33,0,0,0-3.35,2.519,11.493,11.493,0,0,0-2.008,3.238c-.717-1.045-1.507-2.134-2.371-3.24a11.5,11.5,0,0,0,2.334-3.062,11.335,11.335,0,0,0,1.153-4.029,11.337,11.337,0,0,0-2.595,3.292,11.494,11.494,0,0,0-1.1,3.536c-.868-1.1-1.808-2.214-2.817-3.316a11.511,11.511,0,0,0,1.843-3.385,11.352,11.352,0,0,0,.526-4.158,10.834,10.834,0,0,0-2.609,7.281q-1.028-1.107-2.151-2.186a11.517,11.517,0,0,0,.424-3.821,11.343,11.343,0,0,0-1.086-4.048,10.808,10.808,0,0,0,.229,7.46q-.8-.743-1.638-1.459a10.811,10.811,0,0,0-5.806-4.7,10.808,10.808,0,0,0,5.422,5.1c.581.492,1.144,1,1.693,1.51a11.5,11.5,0,0,0-3.654.242,11.329,11.329,0,0,0-3.809,1.749,11.331,11.331,0,0,0,4.188-.175,11.5,11.5,0,0,0,3.544-1.563c.754.717,1.475,1.449,2.166,2.19a11.489,11.489,0,0,0-3.579,1.316,11.341,11.341,0,0,0-3.142,2.774,11.335,11.335,0,0,0,3.959-1.376,11.487,11.487,0,0,0,2.942-2.521c1.041,1.128,2.008,2.27,2.9,3.4a11.486,11.486,0,0,0-3.661.993,11.339,11.339,0,0,0-3.375,2.486,11.34,11.34,0,0,0,4.065-1.022,11.49,11.49,0,0,0,3.142-2.24c.873,1.116,1.673,2.216,2.4,3.27a11.514,11.514,0,0,0-3.674.859,11.333,11.333,0,0,0-3.462,2.363,11.334,11.334,0,0,0,4.1-.874,11.505,11.505,0,0,0,3.2-2.107c.847,1.246,1.588,2.424,2.22,3.483.031.053.063.106.094.158a11.462,11.462,0,0,0-3.843,1.361,11.335,11.335,0,0,0-3.142,2.775,11.343,11.343,0,0,0,3.959-1.377,11.465,11.465,0,0,0,3.072-2.682,60.553,60.553,0,0,1,3.877,7.656l.518-.2a60.789,60.789,0,0,0-3.829-7.588,11.5,11.5,0,0,0,3.492-1.517,11.339,11.339,0,0,0,2.977-2.95A11.342,11.342,0,0,0,524.136,1209.224Z" transform="translate(-256.276 -859.461)" fill="#999"/>
      <g id="Group_1180601" data-name="Group 1180601" transform="translate(257.546 354.484)">
        <path id="Path_1021382" data-name="Path 1021382" d="M636.819,1491.44a11.651,11.651,0,0,0-11.2,8.443h22.4A11.649,11.649,0,0,0,636.819,1491.44Z" transform="translate(-625.62 -1487.823)" fill="#6f728a"/>
        <path id="Path_1021383" data-name="Path 1021383" d="M980.389,1491.44a11.651,11.651,0,0,0-11.2,8.443h22.4A11.649,11.649,0,0,0,980.389,1491.44Z" transform="translate(-938.638 -1487.823)" fill="#6f728a"/>
        <path id="Path_1021384" data-name="Path 1021384" d="M767.556,1450.77a16.639,16.639,0,0,0-16,12.059h31.993A16.641,16.641,0,0,0,767.556,1450.77Z" transform="translate(-740.361 -1450.77)" fill="#6f728a"/>
      </g>
      <g id="Group_1180602" data-name="Group 1180602" transform="translate(247.261 362.988)">
        <path id="Path_1021385" data-name="Path 1021385" d="M515.1,1565.08a5.349,5.349,0,0,0-5.143,3.877h10.285A5.349,5.349,0,0,0,515.1,1565.08Z" transform="translate(-509.96 -1563.419)" fill="#9a98b5"/>
        <path id="Path_1021386" data-name="Path 1021386" d="M672.872,1565.08a5.349,5.349,0,0,0-5.143,3.877h10.285A5.349,5.349,0,0,0,672.872,1565.08Z" transform="translate(-653.7 -1563.419)" fill="#9a98b5"/>
        <path id="Path_1021387" data-name="Path 1021387" d="M575.145,1546.4a7.641,7.641,0,0,0-7.345,5.537h14.691A7.641,7.641,0,0,0,575.145,1546.4Z" transform="translate(-562.657 -1546.4)" fill="#9a98b5"/>
      </g>
      <path id="Path_1021388" data-name="Path 1021388" d="M1309.27,673.905a1.485,1.485,0,0,1,2.97,0,1.485,1.485,0,0,1-2.97,0Z" transform="translate(-990.929 -387.152)" fill="#fff"/>
      <path id="Path_1021389" data-name="Path 1021389" d="M2333.24,918.165a1.485,1.485,0,1,1,2.97,0,1.485,1.485,0,1,1-2.97,0Z" transform="translate(-1923.842 -609.69)" fill="#fff"/>
      <path id="Path_1021390" data-name="Path 1021390" d="M1120.5,995.845a1.485,1.485,0,1,1,2.97,0,1.485,1.485,0,0,1-2.97,0Z" transform="translate(-818.946 -680.463)" fill="#fff"/>
      <path id="Path_1021391" data-name="Path 1021391" d="M1599.59,845.4a2.662,2.662,0,0,1,5.323,0,2.662,2.662,0,1,1-5.323,0Z" transform="translate(-1255.432 -542.326)" fill="#fff"/>
      <path id="Path_1021392" data-name="Path 1021392" d="M1762.43,1329.231a2.662,2.662,0,0,1,5.323,0,2.662,2.662,0,1,1-5.323,0Z" transform="translate(-1403.792 -983.13)" fill="#fff"/>
      <g id="Group_1180603" data-name="Group 1180603" transform="translate(354.531 247.48)">
        <path id="Path_1021393" data-name="Path 1021393" d="M1716.24,247.48v70.636h47.913V247.48Z" transform="translate(-1716.24 -247.48)" fill="#fff"/>
        <rect id="Rectangle_456697" data-name="Rectangle 456697" width="34.375" height="0.938" transform="translate(6.769 28.275)" fill="#999"/>
        <rect id="Rectangle_456698" data-name="Rectangle 456698" width="34.375" height="5.764" transform="translate(6.769 11.974)" fill="#f6d2a6"/>
        <rect id="Rectangle_456699" data-name="Rectangle 456699" width="12.731" height="2.882" transform="translate(6.769 5.725)" fill="#ccc"/>
        <rect id="Rectangle_456700" data-name="Rectangle 456700" width="34.375" height="0.938" transform="translate(6.769 32.196)" fill="#999"/>
        <rect id="Rectangle_456701" data-name="Rectangle 456701" width="34.375" height="0.938" transform="translate(6.769 36.117)" fill="#999"/>
        <rect id="Rectangle_456702" data-name="Rectangle 456702" width="34.375" height="0.938" transform="translate(6.769 40.036)" fill="#999"/>
        <rect id="Rectangle_456703" data-name="Rectangle 456703" width="34.375" height="0.938" transform="translate(6.769 43.957)" fill="#999"/>
        <rect id="Rectangle_456704" data-name="Rectangle 456704" width="28.171" height="0.938" transform="translate(6.769 47.878)" fill="#999"/>
        <circle id="Ellipse_13705" data-name="Ellipse 13705" cx="5.151" cy="5.151" r="5.151" transform="translate(30.841 53.84)" fill="#ccc"/>
        <circle id="Ellipse_13706" data-name="Ellipse 13706" cx="2.445" cy="2.445" r="2.445" transform="translate(33.548 56.547)" fill="#fff"/>
        <path id="Path_1021394" data-name="Path 1021394" d="M1941,914.871a15.1,15.1,0,0,1,4.361-4.337,1.782,1.782,0,0,1,1.752-.351,1.7,1.7,0,0,1,.682,1.257,8.651,8.651,0,0,1,.1,2.2,1.518,1.518,0,0,1-.309.929.592.592,0,0,1-.872.036.805.805,0,0,1-.119-.427,5.1,5.1,0,0,1,.285-2.068,2.368,2.368,0,0,1,.712-1.1,1.168,1.168,0,0,1,1.242-.166c.593.325.635,1.141.651,1.817s.217,1.515.88,1.654a1.422,1.422,0,0,0,1.208-.525,6.276,6.276,0,0,1,1.264-1.159,1.218,1.218,0,0,1,1.558.194" transform="translate(-1921.013 -851.139)" fill="none" stroke="#6f728a" stroke-linecap="round" stroke-linejoin="round" stroke-miterlimit="10" stroke-width="3.34"/>
      </g>
      <g id="Group_1180604" data-name="Group 1180604" transform="translate(391.571 255.065)">
        <path id="Path_1021395" data-name="Path 1021395" d="M2140.788,361.9a8.341,8.341,0,0,0-8.018,6.044H2148.8A8.338,8.338,0,0,0,2140.788,361.9Z" transform="translate(-2132.77 -359.31)" fill="#adb1cc"/>
        <path id="Path_1021396" data-name="Path 1021396" d="M2386.747,361.9a8.34,8.34,0,0,0-8.017,6.044h16.034A8.34,8.34,0,0,0,2386.747,361.9Z" transform="translate(-2356.858 -359.31)" fill="#adb1cc"/>
        <path id="Path_1021397" data-name="Path 1021397" d="M2234.382,332.78a11.913,11.913,0,0,0-11.452,8.633h22.9A11.912,11.912,0,0,0,2234.382,332.78Z" transform="translate(-2214.912 -332.78)" fill="#adb1cc"/>
      </g>
      <g id="Group_1180605" data-name="Group 1180605" transform="translate(412.629 260.872)">
        <path id="Path_1021398" data-name="Path 1021398" d="M2374.959,417.65a5.605,5.605,0,0,0-5.389,4.063h10.779A5.606,5.606,0,0,0,2374.959,417.65Z" transform="translate(-2369.57 -415.91)" fill="#f6d2a6"/>
        <path id="Path_1021399" data-name="Path 1021399" d="M2540.3,417.65a5.605,5.605,0,0,0-5.389,4.063h10.779A5.608,5.608,0,0,0,2540.3,417.65Z" transform="translate(-2520.207 -415.91)" fill="#f6d2a6"/>
        <path id="Path_1021400" data-name="Path 1021400" d="M2437.868,398.08a8.008,8.008,0,0,0-7.7,5.8h15.4A8.006,8.006,0,0,0,2437.868,398.08Z" transform="translate(-2424.781 -398.08)" fill="#f6d2a6"/>
      </g>
      <g id="Group_1180612" data-name="Group 1180612" transform="translate(374.842 315.217)">
        <g id="Group_1180611" data-name="Group 1180611" transform="translate(0 0)">
          <path id="Path_1021401" data-name="Path 1021401" d="M2061.731,1148.65s-3.029,19.173-4.861,21.679c0,0,2.217,2.043,4.275,1.467,3.4-.952,2.722-13.756,1.82-19.995A6.3,6.3,0,0,0,2061.731,1148.65Z" transform="translate(-2046.89 -1136.249)" fill="#454a5f"/>
          <path id="Path_1021402" data-name="Path 1021402" d="M1947.579,1167.29s-2.209-1.352-2.823-1.131,1.344,1.747,2.91,1.762Z" transform="translate(-1944.641 -1152.179)" fill="#af7d61"/>
          <g id="Group_1180606" data-name="Group 1180606" transform="translate(2.526 9.017)">
            <path id="Path_1021403" data-name="Path 1021403" d="M1973.42,1116.493c-.132.42-.26.823-.37,1.237,7.37,2.1,10.924.235,15.3-5.521.669-.88.436-1.168-.45-1.444.038-.208.039-.207,0,0-.886-.277-.958-.047-1.558.744C1982.425,1116.682,1980.079,1117.77,1973.42,1116.493Z" transform="translate(-1973.05 -1110.609)" fill="#454a5f"/>
          </g>
          <g id="Group_1180607" data-name="Group 1180607" transform="translate(17.97 9.192)">
            <path id="Path_1021404" data-name="Path 1021404" d="M2151.857,1128.523c.449.242.818.438,1.232.628,2.175-8.708,2.283-11.087-5.2-16.4-1.145-.813-1.881,1.259-.1,2.128C2154.055,1117.929,2153.167,1122.577,2151.857,1128.523Z" transform="translate(-2146.722 -1112.566)" fill="#454a5f"/>
          </g>
          <g id="Group_1180608" data-name="Group 1180608" transform="translate(14.489 21.55)">
            <path id="Path_1021405" data-name="Path 1021405" d="M2107.57,1281.248c.5.227.534.64,1.063.8,1.587-9.31,1.566-21.223,3.729-29.638-1.4-.3-2.8-.588-4.2-.874C2106.483,1261.357,2109.67,1270.137,2107.57,1281.248Z" transform="translate(-2107.57 -1251.54)" fill="#af7d61"/>
          </g>
          <path id="Path_1021406" data-name="Path 1021406" d="M2109,1251.54c1.4.286,2.8.573,4.2.874-2.007,7.811-1.991,18.612-3.267,27.571l-1.331.158C2110.3,1269.549,2107.378,1261.029,2109,1251.54Z" transform="translate(-2093.92 -1229.99)" fill="#2d334a"/>
          <g id="Group_1180609" data-name="Group 1180609" transform="translate(16.8 21.696)">
            <path id="Path_1021407" data-name="Path 1021407" d="M2135.079,1282.863c.519.194.575.6,1.113.734.981-9.392.189-21.28,1.8-29.817-1.415-.211-2.831-.406-4.247-.6C2132.707,1263.084,2136.456,1271.639,2135.079,1282.863Z" transform="translate(-2133.562 -1253.18)" fill="#af7d61"/>
          </g>
          <path id="Path_1021408" data-name="Path 1021408" d="M2133.747,1253.18c1.417.2,2.833.39,4.247.6-1.5,7.924-.781,18.7-1.476,27.724l-1.318.244C2136.21,1271.067,2132.742,1262.754,2133.747,1253.18Z" transform="translate(-2116.762 -1231.484)" fill="#2d334a"/>
          <path id="Path_1021409" data-name="Path 1021409" d="M2086.131,1134.779q-.187-.6-.367-1.224a150.616,150.616,0,0,1-3.338-15.27c-.816-4.8-.572-6.915-1.349-9.248-.326-.978-.384-1.556-1.173-2.042a3.184,3.184,0,0,0-.3-.164,2.009,2.009,0,0,0-.453-.159c-1.552-.329-2.482,1.74-2.738,3.147-.05.275-.1.485-.146.66v0c-.21.806-.3.852.4,2.854.3.866-.375,5.925-.678,7.632-.1.553-.164,1.532-.382,2.541-1.3,6.035-2.143,12.48-2.838,18.7-.024.218-.049.435-.073.652a6.356,6.356,0,0,0,1.888-.253c1.46-.415,2.8-1.116,4.3-1.414a7.738,7.738,0,0,1,2.989.052,14.8,14.8,0,0,0,1.81.427,3.978,3.978,0,0,0,2.583-.556c.55-.354,1.374-.4,1.873-1.126A33.6,33.6,0,0,1,2086.131,1134.779Z" transform="translate(-2061.312 -1097.973)" fill="#6f728a"/>
          <path id="Path_1021410" data-name="Path 1021410" d="M2149.312,1138.121a8.282,8.282,0,0,0,3.692-.9,150.721,150.721,0,0,1-3.338-15.27c-.815-4.8-.572-6.915-1.349-9.248-.326-.978-.384-1.556-1.173-2.042.036,1.539-.5,4.881-.636,11.088C2146.339,1129.555,2149.312,1138.121,2149.312,1138.121Z" transform="translate(-2128.551 -1101.638)" fill="#454a5f"/>
          <g id="Group_1180610" data-name="Group 1180610" transform="translate(14.612 24.891)">
            <rect id="Rectangle_456705" data-name="Rectangle 456705" width="8.561" height="12.822" transform="translate(0 8.177) rotate(-72.765)" fill="#f6d2a6"/>
            <rect id="Rectangle_456706" data-name="Rectangle 456706" width="3.985" height="2.374" transform="translate(2.766 5.545) rotate(-72.765)" fill="#f0b56c"/>
          </g>
          <path id="Path_1021411" data-name="Path 1021411" d="M2080.08,1579.766a3.908,3.908,0,0,1-2,2.539s-.745.49.333.334a4.862,4.862,0,0,0,2.965-1.642s.609,1.023.621.66.051-2.016.051-2.016Z" transform="translate(-2065.984 -1528.913)" fill="#f2bf80"/>
          <path id="Path_1021412" data-name="Path 1021412" d="M2124.189,1579.766a3.907,3.907,0,0,1-2,2.539s-.745.49.333.334a4.863,4.863,0,0,0,2.965-1.642s.609,1.023.621.66.052-2.016.052-2.016Z" transform="translate(-2106.171 -1528.913)" fill="#f2bf80"/>
          <path id="Path_1021413" data-name="Path 1021413" d="M2112.81,1110.48v0s1.466-2.96,2.406-3.487a3.045,3.045,0,0,0,.479-.323c-1.552-.329-2.482,1.74-2.738,3.147C2112.907,1110.1,2112.855,1110.305,2112.81,1110.48Z" transform="translate(-2097.855 -1097.973)" fill="#454a5f"/>
          <path id="Path_1021414" data-name="Path 1021414" d="M2130.866,1032.57c.019-.2.169-.365.217-.55a3.99,3.99,0,0,1,.08-.586c.078-.179.273-.294.377-.456s.13-.389.258-.533.351-.195.5-.317.242-.329.409-.427a3.972,3.972,0,0,1,.573-.148c.179-.07.331-.238.521-.28a4.052,4.052,0,0,1,.591.037,3.829,3.829,0,0,1,.582-.1c.2.02.365.169.551.217a3.982,3.982,0,0,1,.586.08c.179.078.294.273.456.377s.389.13.533.258.195.35.316.5.329.242.427.409a4.018,4.018,0,0,1,.148.573c.07.179.238.331.28.521a4.1,4.1,0,0,1-.037.59,3.827,3.827,0,0,1,.1.582c-.02.2-.169.365-.217.55a3.927,3.927,0,0,1-.08.586c-.078.179-.273.294-.377.456s-.13.389-.258.533-.35.195-.5.317-.242.329-.409.427a4,4,0,0,1-.573.148c-.179.07-.331.238-.521.28a4.031,4.031,0,0,1-.591-.037,3.787,3.787,0,0,1-.583.1c-.2-.02-.365-.169-.551-.217a3.978,3.978,0,0,1-.586-.08c-.179-.078-.294-.273-.456-.377s-.388-.13-.533-.258-.195-.35-.317-.5-.329-.242-.427-.409a3.955,3.955,0,0,1-.147-.573c-.07-.179-.239-.331-.281-.521a4.066,4.066,0,0,1,.038-.59A3.8,3.8,0,0,1,2130.866,1032.57Z" transform="translate(-2114.304 -1027.426)" fill="#2d334a"/>
          <path id="Path_1021415" data-name="Path 1021415" d="M2113.126,1027.525c-.073.167-.255.275-.352.426s-.121.362-.241.5-.326.182-.466.3-.226.307-.383.4a3.725,3.725,0,0,1-.534.139c-.022.009-.044.02-.067.031a1.844,1.844,0,0,1-.421.229,3.777,3.777,0,0,1-.551-.036,3.535,3.535,0,0,1-.543.1,3.573,3.573,0,0,1-.514-.2,3.754,3.754,0,0,1-.548-.075c-.166-.073-.274-.254-.425-.352s-.363-.121-.5-.241-.181-.326-.3-.466-.307-.226-.4-.382a3.753,3.753,0,0,1-.138-.535c-.066-.167-.222-.309-.26-.486a3.72,3.72,0,0,1,.034-.55,3.673,3.673,0,0,1-.1-.543,3.566,3.566,0,0,1,.2-.514,3.832,3.832,0,0,1,.075-.548,1.464,1.464,0,0,1,.288-.343.7.7,0,0,0,.064-.083c.1-.152.121-.363.241-.5s.327-.181.467-.3.226-.307.382-.4a3.71,3.71,0,0,1,.534-.138c.168-.065.309-.222.486-.26a2.286,2.286,0,0,1,.505.035h.046a1.012,1.012,0,0,1,1.057.106,3.879,3.879,0,0,1,.548.075c.167.073.274.254.425.352s.362.121.5.241.18.327.3.467.308.226.4.382a3.732,3.732,0,0,1,.138.535c.065.166.219.308.26.484,0,0,0,0,0,0a3.76,3.76,0,0,1-.035.551,3.525,3.525,0,0,1,.1.543,3.593,3.593,0,0,1-.2.514A3.746,3.746,0,0,1,2113.126,1027.525Z" transform="translate(-2092.04 -1021.434)" fill="#2d334a"/>
          <path id="Path_1021416" data-name="Path 1021416" d="M2127.932,1014.454c-.079.178-.273.293-.378.455s-.13.389-.258.532-.351.195-.5.317-.242.33-.409.428a3.952,3.952,0,0,1-.574.148c-.179.07-.331.238-.521.279a3.917,3.917,0,0,1-.59-.037,3.832,3.832,0,0,1-.583.1,1.077,1.077,0,0,1-.362-.14,1.08,1.08,0,0,0-.188-.077,4.117,4.117,0,0,1-.586-.08c-.179-.078-.294-.274-.456-.377s-.388-.13-.532-.259-.195-.35-.317-.5-.329-.242-.427-.41a3.89,3.89,0,0,1-.148-.573c-.07-.179-.238-.331-.28-.521a1.568,1.568,0,0,1,.034-.47.8.8,0,0,0,0-.121,3.8,3.8,0,0,1-.1-.582c.02-.2.17-.365.218-.55a4.053,4.053,0,0,1,.08-.587c.079-.178.273-.293.378-.455s.13-.389.258-.532.351-.195.5-.317a1.082,1.082,0,0,0,.16-.173.961.961,0,0,1,.25-.254,3.941,3.941,0,0,1,.574-.148c.179-.07.33-.238.521-.279a3.937,3.937,0,0,1,.59.037,3.837,3.837,0,0,1,.583-.1c.2.02.366.169.551.217a4.1,4.1,0,0,1,.586.08c.178.078.294.273.456.377a1.347,1.347,0,0,0,.261.116.834.834,0,0,1,.271.142c.144.129.194.35.317.5s.33.242.427.41a3.86,3.86,0,0,1,.148.573c.07.179.238.331.28.521a4.082,4.082,0,0,1-.038.591,3.832,3.832,0,0,1,.1.582c-.02.2-.17.365-.218.55A4.3,4.3,0,0,1,2127.932,1014.454Z" transform="translate(-2105.094 -1009.205)" fill="#2d334a"/>
          <path id="Path_1021417" data-name="Path 1021417" d="M2120.542,1051.507c-.777,1.306-2.317,1.823-3.116,1.348s-.552-1.763.226-3.069,1.82-1.585,2.619-1.11S2121.319,1050.2,2120.542,1051.507Z" transform="translate(-2101.613 -1044.969)" fill="#af7d61"/>
          <path id="Path_1021418" data-name="Path 1021418" d="M2136.385,1079.736l-1.576-.256a25.187,25.187,0,0,0-.3,3.056c.042.244.431.379.867.3.392-.068.687-.285.711-.506h0A21.517,21.517,0,0,1,2136.385,1079.736Z" transform="translate(-2117.621 -1073.231)" fill="#af7d61"/>
          <path id="Path_1021419" data-name="Path 1021419" d="M2118.95,1046.4s1.141,1.267,3.582.082A2.43,2.43,0,0,0,2118.95,1046.4Z" transform="translate(-2103.449 -1042.39)" fill="#2d334a"/>
          <path id="Path_1021420" data-name="Path 1021420" d="M2143.05,1048.994a7.291,7.291,0,0,1,1.2,3.076c.1,1.062,1.916-2.008,1.916-2.008S2144.352,1047.64,2143.05,1048.994Z" transform="translate(-2125.406 -1045.081)" fill="#2d334a"/>
          <path id="Path_1021421" data-name="Path 1021421" d="M2150.2,1084.278c-.181.3-.714.513-.935.382s-.128-.41.053-.714.529-.482.749-.351A.455.455,0,0,1,2150.2,1084.278Z" transform="translate(-2130.955 -1076.94)" fill="#af7d61"/>
          <path id="Path_1021422" data-name="Path 1021422" d="M2193.468,1293.59c-.467.6-1.46,1.96-1.352,2.475.123.579,1.537-.7,2.075-2.1C2193.952,1293.845,2193.719,1293.724,2193.468,1293.59Z" transform="translate(-2170.101 -1268.301)" fill="#af7d61"/>
        </g>
      </g>
      <g id="Group_1180621" data-name="Group 1180621" transform="translate(403.474 315.677)">
        <path id="Path_1021423" data-name="Path 1021423" d="M2305.955,1032.925s2.3-1.452,2.379-2.133-2.271.453-3.014,1.921Z" transform="translate(-2301.878 -1029.146)" fill="#fff"/>
        <g id="Group_1180613" data-name="Group 1180613" transform="translate(0 2.903)">
          <path id="Path_1021424" data-name="Path 1021424" d="M2270.927,1048.03c-.321-.333-.645-.665-.953-1.02-8.075,8.439.136,12.009,6.435,5.175.963-1.045.638-1.06-.206-1.622.061-.187.063-.187,0,0-.844-.562-1.167-.265-1.74.479C2270.715,1055.907,2264.468,1055.074,2270.927,1048.03Z" transform="translate(-2266.613 -1047.01)" fill="#6f728a"/>
        </g>
        <g id="Group_1180614" data-name="Group 1180614" transform="translate(5.319 47.746)">
          <path id="Path_1021425" data-name="Path 1021425" d="M2327.712,1556.063a.548.548,0,0,0,.106-.011.527.527,0,0,0,.412-.622l-.758-3.72a.528.528,0,1,0-1.034.211l.758,3.72A.529.529,0,0,0,2327.712,1556.063Z" transform="translate(-2326.427 -1551.288)" fill="#fff"/>
        </g>
        <g id="Group_1180615" data-name="Group 1180615" transform="translate(3.037 18.941)">
          <path id="Path_1021426" data-name="Path 1021426" d="M2303.172,1258.787a13.785,13.785,0,0,0,1.681-.155c-1.673-8.942-2.939-20.944,1.535-29.3q-2.037-1-4.093-1.962C2299.026,1234.651,2301.81,1251.095,2303.172,1258.787Z" transform="translate(-2300.766 -1227.37)" fill="#454a5f"/>
        </g>
        <path id="Path_1021427" data-name="Path 1021427" d="M2296.47,1596.359s.326,1.357,0,1.4-5.03.181-5.058-.037c-.094-.745,3.752-1.432,4.128-1.357S2296.428,1596.161,2296.47,1596.359Z" transform="translate(-2289.206 -1544.538)" fill="#f0b267"/>
        <g id="Group_1180616" data-name="Group 1180616" transform="translate(12.179 47.746)">
          <path id="Path_1021428" data-name="Path 1021428" d="M2404.853,1556.063a.545.545,0,0,0,.106-.011.527.527,0,0,0,.412-.622l-.758-3.72a.528.528,0,1,0-1.034.211l.757,3.72A.529.529,0,0,0,2404.853,1556.063Z" transform="translate(-2403.567 -1551.288)" fill="#fff"/>
        </g>
        <g id="Group_1180617" data-name="Group 1180617" transform="translate(5.535 20.366)">
          <path id="Path_1021429" data-name="Path 1021429" d="M2335.555,1273.187c.573.107,1.147.18,1.728.229-.615-9.635-4.1-21.327-3.956-30.027-1.49.056-2.978.126-4.467.2C2329.117,1253.017,2335.621,1261.239,2335.555,1273.187Z" transform="translate(-2328.86 -1243.39)" fill="#454a5f"/>
        </g>
        <path id="Path_1021430" data-name="Path 1021430" d="M2373.6,1596.359s.326,1.357,0,1.4-5.031.181-5.058-.037c-.094-.745,3.752-1.432,4.129-1.357S2373.558,1596.161,2373.6,1596.359Z" transform="translate(-2359.477 -1544.538)" fill="#f0b267"/>
        <g id="Group_1180618" data-name="Group 1180618" transform="translate(3.441 5.717)">
          <path id="Path_1021431" data-name="Path 1021431" d="M2305.31,1094.17a17.46,17.46,0,0,1,2.991-.094,10.811,10.811,0,0,1,3.617.646q.365-.9.662-1.758c.072-.205.14-.41.205-.612q.161-.492.3-.971.09-.315.173-.624c.125-.466.234-.921.33-1.371.045-.213.086-.426.126-.636.1-.521.178-1.031.242-1.532.027-.216.052-.429.074-.643a25.993,25.993,0,0,0,.094-4,14.42,14.42,0,0,0-.237-1.995,2.383,2.383,0,0,0-3.791-1.429l-.3.232a2.67,2.67,0,0,0-1,2.526,12.5,12.5,0,0,1-.711,5.294c-.064.208-.132.421-.2.643-.1.31-.211.633-.33.968-.072.2-.147.407-.226.618-.14.373-.288.761-.452,1.165q-.12.3-.25.612c-.088.216-.182.439-.28.665-.085.2-.171.4-.261.6Q2305.721,1093.287,2305.31,1094.17Z" transform="translate(-2305.31 -1078.657)" fill="#6f728a"/>
        </g>
        <g id="Group_1180619" data-name="Group 1180619" transform="translate(3.079 13.473)">
          <rect id="Rectangle_456707" data-name="Rectangle 456707" width="8.561" height="12.822" transform="matrix(0.845, -0.534, 0.534, 0.845, 0, 4.572)" fill="#adb1cc"/>
          <rect id="Rectangle_456708" data-name="Rectangle 456708" width="3.985" height="2.374" transform="matrix(0.845, -0.534, 0.534, 0.845, 3.812, 4.366)" fill="#8987a8"/>
        </g>
        <path id="Path_1021432" data-name="Path 1021432" d="M2344.251,1021.277c-1,1.245-2.678,1.557-3.438.945s-.316-1.915.685-3.16,2.126-1.383,2.887-.771S2345.251,1020.032,2344.251,1021.277Z" transform="translate(-2333.865 -1017.621)" fill="#fff"/>
        <path id="Path_1021433" data-name="Path 1021433" d="M2364.888,1049.773l-1.669-.163a26.681,26.681,0,0,0-.113,3.225c.061.253.477.368.929.259.406-.1.7-.346.712-.578h0A22.454,22.454,0,0,1,2364.888,1049.773Z" transform="translate(-2354.504 -1046.476)" fill="#fff"/>
        <path id="Path_1021434" data-name="Path 1021434" d="M2361,1017.691a2.576,2.576,0,0,0-.014-1.8,1.868,1.868,0,0,0-2.781-.811,1,1,0,0,0,.177,1.55c.934.84,1.125.174,1.276,1.025s.861.787.874.968Z" transform="translate(-2349.796 -1014.683)" fill="#3b3e54"/>
        <path id="Path_1021435" data-name="Path 1021435" d="M2367.434,1247.2s-2.049,1.792-2.018,2.477,2.174-.8,2.679-2.365Z" transform="translate(-2356.63 -1226.495)" fill="#fff"/>
        <g id="Group_1180620" data-name="Group 1180620" transform="translate(10.395 6.869)">
          <path id="Path_1021436" data-name="Path 1021436" d="M2383.6,1105.463c.253.361.54.733.736,1.065,6.333-4.538,7.031-9.347,1.209-14.457-1.078-.946-1.629-.131-1.651-.1-.614.938-.51,1.236.343,1.93C2389.969,1098.57,2388.024,1100.912,2383.6,1105.463Z" transform="translate(-2383.502 -1091.615)" fill="#6f728a"/>
        </g>
        <path id="Path_1021437" data-name="Path 1021437" d="M2371.78,1014.4a22.842,22.842,0,0,0,1.439,3.8s.422-.106.833-1.235c0,0,.83-.154.92-.695S2373.248,1014.123,2371.78,1014.4Z" transform="translate(-2362.428 -1014.369)" fill="#f0b267"/>
        <path id="Path_1021438" data-name="Path 1021438" d="M2376.633,1053.23a.93.93,0,0,1-1.028.261c-.21-.169-.074-.446.159-.735s.621-.424.831-.255A.48.48,0,0,1,2376.633,1053.23Z" transform="translate(-2365.818 -1049.042)" fill="#fff"/>
        <path id="Path_1021439" data-name="Path 1021439" d="M2339.294,1042.691s-.253-.258-.678.052a1.3,1.3,0,0,1-1.337.3c-.452-.216-.511-.353-.874-.529s-.109-1.246-.022-1.432c.211-.455-.122-.157-.315.117s-.821,1.052-.223,1.782.863.883,1.479.816A2.043,2.043,0,0,0,2339.294,1042.691Z" transform="translate(-2329.459 -1038.491)" fill="#3b3e54"/>
      </g>
      <g id="Group_1180632" data-name="Group 1180632" transform="translate(304.345 314.264)">
        <g id="Group_1180631" data-name="Group 1180631" transform="translate(0)">
          <g id="Group_1180630" data-name="Group 1180630">
            <path id="Path_1021440" data-name="Path 1021440" d="M1244.287,1013.861a4.1,4.1,0,0,1-2.218-2.6,2.484,2.484,0,0,1,2.9-2.863c1.552.209,1.681,1.465,1.564,1.752S1244.287,1013.861,1244.287,1013.861Z" transform="translate(-1233.993 -1007.493)" fill="#2d334a"/>
            <path id="Path_1021441" data-name="Path 1021441" d="M1279.923,1014.506s1.242.38,1.008,1.167-1.433-.453-1.433-.453S1279.362,1014.238,1279.923,1014.506Z" transform="translate(-1268.138 -1013.039)" fill="#2d334a"/>
            <g id="Group_1180622" data-name="Group 1180622" transform="translate(18.199 48.958)">
              <path id="Path_1021442" data-name="Path 1021442" d="M1358.225,1553.719a.537.537,0,0,1-.1.036.529.529,0,0,1-.641-.383l-.927-3.685a.528.528,0,0,1,1.024-.258l.927,3.685A.529.529,0,0,1,1358.225,1553.719Z" transform="translate(-1356.54 -1549.029)" fill="#d1a58c"/>
            </g>
            <g id="Group_1180623" data-name="Group 1180623" transform="translate(10.359 20.365)">
              <path id="Path_1021443" data-name="Path 1021443" d="M1278.229,1258.277a16.724,16.724,0,0,1-1.514.8c-3.361-10.012-5.03-20.773-8.336-30.259q2.149-.7,4.322-1.324C1275.509,1237.658,1274.121,1246.722,1278.229,1258.277Z" transform="translate(-1268.38 -1227.49)" fill="#383e56"/>
            </g>
            <path id="Path_1021444" data-name="Path 1021444" d="M1362.89,1596.34s-.327,1.359,0,1.4,5.036.181,5.064-.037c.094-.746-3.755-1.434-4.132-1.359S1362.932,1596.143,1362.89,1596.34Z" transform="translate(-1343.994 -1543.109)" fill="#383e56"/>
            <g id="Group_1180624" data-name="Group 1180624" transform="translate(3.779 48.958)">
              <path id="Path_1021445" data-name="Path 1021445" d="M1194.685,1553.719a.535.535,0,0,0,.1.036.529.529,0,0,0,.641-.383l.927-3.685a.528.528,0,0,0-1.024-.258l-.927,3.685A.528.528,0,0,0,1194.685,1553.719Z" transform="translate(-1194.386 -1549.029)" fill="#d1a58c"/>
            </g>
            <g id="Group_1180625" data-name="Group 1180625" transform="translate(3.753 20.365)">
              <path id="Path_1021446" data-name="Path 1021446" d="M1194.1,1258.277a16.708,16.708,0,0,0,1.514.8c3.361-10.012,5.03-20.773,8.336-30.259q-2.149-.7-4.322-1.324C1196.82,1237.658,1198.208,1246.722,1194.1,1258.277Z" transform="translate(-1194.1 -1227.49)" fill="#383e56"/>
            </g>
            <path id="Path_1021447" data-name="Path 1021447" d="M1156.956,1596.34s.327,1.359,0,1.4-5.036.181-5.063-.037c-.094-.746,3.755-1.434,4.132-1.359S1156.913,1596.143,1156.956,1596.34Z" transform="translate(-1151.891 -1543.109)" fill="#383e56"/>
            <g id="Group_1180626" data-name="Group 1180626" transform="translate(8.076 6.831)">
              <path id="Path_1021448" data-name="Path 1021448" d="M1248.094,1093.435a8.31,8.31,0,0,0,2.349-.141c-.709-3.909-1.932-10.9-2.131-14.665a3.444,3.444,0,0,0-1.106-2.716,2.125,2.125,0,0,0-.391-.235,2.635,2.635,0,0,0-2.493-.109,2.578,2.578,0,0,0-1.218,1.732,5.681,5.681,0,0,0-.051,1.959,88.224,88.224,0,0,1-.342,14.648c1.291-.078,3.385-.824,4.693-.558.1.022.21.039.327.053" transform="translate(-1242.71 -1075.305)" fill="#828392"/>
            </g>
            <path id="Path_1021449" data-name="Path 1021449" d="M1257.267,1017.393c.872,1.34,2.511,1.819,3.33,1.287s.507-1.875-.366-3.215-1.979-1.59-2.8-1.057S1256.4,1016.053,1257.267,1017.393Z" transform="translate(-1247.388 -1012.753)" fill="#d1a58c"/>
            <path id="Path_1021450" data-name="Path 1021450" d="M1265.17,1046.493l1.671-.163a26.776,26.776,0,0,1,.113,3.228c-.061.253-.478.369-.93.259-.407-.1-.7-.346-.713-.579h0A22.127,22.127,0,0,0,1265.17,1046.493Z" transform="translate(-1255.097 -1042.075)" fill="#d1a58c"/>
            <path id="Path_1021451" data-name="Path 1021451" d="M1271.229,1044.351c.246-.267.479-.027,1.071.307s1.652.247,1.726-1.14c.031-.587.261-.147.413.215a3.858,3.858,0,0,1,.572,1.539.975.975,0,0,1-.565,1.056,2.638,2.638,0,0,1-2.567-.537,1.562,1.562,0,0,1-.741-1.174A.427.427,0,0,1,1271.229,1044.351Z" transform="translate(-1260.533 -1039.252)" fill="#2d334a"/>
            <path id="Path_1021452" data-name="Path 1021452" d="M1285.436,1045.855l-.057.03c-.292.158-1.616.9-1.75,1.449-.151.616.712-.238.973-.633s.577-.342.861-.425S1285.877,1045.839,1285.436,1045.855Z" transform="translate(-1271.898 -1041.642)" fill="#2d334a"/>
            <path id="Path_1021453" data-name="Path 1021453" d="M1253.741,1013.852a2.581,2.581,0,0,1,.195-1.789,1.871,1.871,0,0,1,2.851-.529,1,1,0,0,1-.332,1.526c-1.015.743-1.138.061-1.374.894s-.936.7-.968.877Z" transform="translate(-1244.611 -1009.94)" fill="#2d334a"/>
            <path id="Path_1021454" data-name="Path 1021454" d="M1257.336,1051.251c.2.312.772.51,1,.363s.118-.437-.085-.749-.575-.485-.8-.338A.48.48,0,0,0,1257.336,1051.251Z" transform="translate(-1247.856 -1045.851)" fill="#d1a58c"/>
            <path id="Path_1021455" data-name="Path 1021455" d="M1322.722,1243.813s-1.479,2.449-2.193,2.543.43-2.4,1.957-3.207Z" transform="translate(-1305.334 -1221.393)" fill="#d1a58c"/>
            <g id="Group_1180627" data-name="Group 1180627" transform="translate(10.713 7.791)">
              <path id="Path_1021456" data-name="Path 1021456" d="M1279.273,1101.107c-.4-.252-.83-.495-1.257-.756,4.161-6.01,4.832-11.231-4.346-11.971-1.4-.113-1.52-.433-1.072-1.469-.2-.136-.206-.132,0,0,.448-1.037.821-.916,2.162-.556C1283.523,1088.709,1284.705,1094.205,1279.273,1101.107Z" transform="translate(-1272.365 -1086.096)" fill="#828392"/>
            </g>
            <path id="Path_1021457" data-name="Path 1021457" d="M1240.52,1000.5s-.559,0-.463-.886.6-1.186.982-1.118a.935.935,0,0,1,.846,1.179C1241.719,1000.526,1240.52,1000.5,1240.52,1000.5Z" transform="translate(-1232.206 -998.484)" fill="#2d334a"/>
            <g id="Group_1180628" data-name="Group 1180628" transform="translate(1.81 21.773)">
              <rect id="Rectangle_456709" data-name="Rectangle 456709" width="8.561" height="12.821" transform="translate(10.792 12.598) rotate(169.304)" fill="#adb1cc"/>
              <rect id="Rectangle_456710" data-name="Rectangle 456710" width="3.985" height="2.374" transform="translate(7.171 11.387) rotate(169.304)" fill="#8987a8"/>
            </g>
            <path id="Path_1021458" data-name="Path 1021458" d="M1214.72,1252.118s1.771,2.247,2.491,2.252-.723-2.325-2.339-2.94Z" transform="translate(-1209.133 -1228.936)" fill="#d1a58c"/>
            <g id="Group_1180629" data-name="Group 1180629" transform="translate(1.171 7.972)">
              <path id="Path_1021459" data-name="Path 1021459" d="M1169.288,1103.751c.366-.3.762-.593,1.154-.905-4.873-5.448-6.186-10.547,2.831-12.417,1.379-.286,1.455-.617.881-1.591.185-.16.188-.157,0,0-.573-.973-.928-.807-2.213-.284C1163.536,1091.975,1163.043,1097.575,1169.288,1103.751Z" transform="translate(-1165.057 -1088.134)" fill="#828392"/>
            </g>
          </g>
        </g>
      </g>
      <g id="Group_1180644" data-name="Group 1180644" transform="translate(321.985 307.385)">
        <path id="Path_1021460" data-name="Path 1021460" d="M1569.433,924.7a1.032,1.032,0,0,1-.34-.854c.067-.826.245-2.38.659-2.68.568-.414.749,2.252-.181,3.657Z" transform="translate(-1549.63 -921.126)" fill="#af7d61"/>
        <g id="Group_1180633" data-name="Group 1180633" transform="translate(8.717 2.979)">
          <path id="Path_1021461" data-name="Path 1021461" d="M1458.638,954.63c.485.141.923.253,1.444.423-1.378,5.859-4.779,11.7-10.886,13.764-1.378.467-1.15-1.647.331-2.292C1454.6,964.317,1457.224,959.873,1458.638,954.63Z" transform="translate(-1448.279 -954.63)" fill="#fff"/>
        </g>
        <g id="Group_1180634" data-name="Group 1180634" transform="translate(8.309 55.934)">
          <path id="Path_1021462" data-name="Path 1021462" d="M1444.265,1555.051a.562.562,0,0,1-.109,0,.54.54,0,0,1-.461-.61l.539-3.851a.541.541,0,0,1,1.071.149l-.539,3.851A.541.541,0,0,1,1444.265,1555.051Z" transform="translate(-1443.689 -1550.119)" fill="#af7d61"/>
        </g>
        <path id="Path_1021463" data-name="Path 1021463" d="M1439.705,1597.47a1.285,1.285,0,0,1-.783.231,1.416,1.416,0,0,1-.712-.157.1.1,0,0,0-.151.068c-.072.373-.207,1.232.054,1.258.335.034,5.156.115,5.181-.109C1443.363,1598.16,1440.933,1597.629,1439.705,1597.47Z" transform="translate(-1430.16 -1537.325)" fill="#515770"/>
        <g id="Group_1180636" data-name="Group 1180636" transform="translate(7.265 27.873)">
          <g id="Group_1180635" data-name="Group 1180635">
            <path id="Path_1021464" data-name="Path 1021464" d="M1435.312,1234.57l2.371,15.344.15.944.008.05c.005.033.01.066.013.1a1.279,1.279,0,0,1,.011.153l0,.065v.052l0,.1-.012.167-.016.15c-.022.193-.05.366-.079.539-.116.682-.256,1.32-.4,1.962-.286,1.279-.594,2.54-.9,3.8l-.935,3.77q-.232.94-.455,1.878c-.074.312-.146.624-.213.932-.034.154-.067.308-.1.456l-.04.216-.024.156-1.624-.049,0-.1.006-.081c0-.054.009-.1.014-.147.01-.091.021-.178.033-.264.023-.171.049-.335.075-.5.052-.327.108-.65.164-.972.113-.643.231-1.281.349-1.919l.714-3.816c.235-1.269.468-2.539.674-3.8.1-.628.2-1.262.267-1.861.016-.148.03-.3.037-.425l0-.092v-.075l0-.022s0-.01,0-.009a.008.008,0,0,0,0,0,.139.139,0,0,0,0,.032c0,.013,0,.026.005.039l0,.01v0l0-.015-.21-.962-3.24-15.194Z" transform="translate(-1431.96 -1234.57)" fill="#383e56"/>
          </g>
        </g>
        <g id="Group_1180637" data-name="Group 1180637" transform="translate(14.52 55.934)">
          <path id="Path_1021465" data-name="Path 1021465" d="M1514.115,1555.051a.562.562,0,0,1-.109,0,.54.54,0,0,1-.461-.61l.539-3.851a.541.541,0,0,1,1.071.149l-.539,3.851A.539.539,0,0,1,1514.115,1555.051Z" transform="translate(-1513.539 -1550.119)" fill="#af7d61"/>
        </g>
        <path id="Path_1021466" data-name="Path 1021466" d="M1509.565,1597.47a1.285,1.285,0,0,1-.783.231,1.416,1.416,0,0,1-.712-.157.1.1,0,0,0-.151.068c-.072.373-.207,1.232.054,1.258.335.034,5.156.115,5.181-.109C1513.222,1598.16,1510.792,1597.629,1509.565,1597.47Z" transform="translate(-1493.807 -1537.325)" fill="#515770"/>
        <g id="Group_1180639" data-name="Group 1180639" transform="translate(9.967 27.182)">
          <g id="Group_1180638" data-name="Group 1180638">
            <path id="Path_1021467" data-name="Path 1021467" d="M1465.515,1226.8q1.354,3.8,2.689,7.6l1.327,3.808c.438,1.272.875,2.543,1.3,3.835l.157.49.078.248.077.256.039.135.039.141.01.036.012.049.025.1.023.1c.011.062.021.133.025.19l.006.128c0,.041,0,.068,0,.1,0,.07,0,.119-.007.178l-.012.156-.014.146c-.041.377-.094.719-.15,1.063s-.116.678-.178,1.013c-.248,1.337-.52,2.655-.8,3.973l-.833,3.941-.409,1.964c-.067.326-.132.653-.193.976-.03.161-.061.323-.087.48l-.037.23-.014.1-.009.076-1.624-.049,0-.1.005-.08.012-.146.027-.269c.02-.175.041-.345.063-.515.044-.339.092-.674.14-1.008l.3-2,.6-3.979c.2-1.323.392-2.648.558-3.961.041-.328.08-.654.115-.977s.064-.645.079-.936l0-.1v-.1c0-.025,0-.06,0-.074s0-.021,0-.023l0,0a.311.311,0,0,0,.008.065.133.133,0,0,1-.008-.018l-.007-.019-.012-.037-.035-.1-.036-.1-.08-.222-.085-.228-.175-.46c-.478-1.234-.982-2.478-1.484-3.716l-1.523-3.719q-1.533-3.716-3.085-7.427Z" transform="translate(-1462.34 -1226.8)" fill="#383e56"/>
          </g>
        </g>
        <g id="Group_1180640" data-name="Group 1180640" transform="translate(5.785 13.173)">
          <path id="Path_1021468" data-name="Path 1021468" d="M1416.346,1084.443c-.1-.341-.195-.684-.282-1.019-.058-.222-.109-.444-.154-.657-.1-.486-.189-.973-.274-1.451-.04-.227-.067-.446-.1-.66-.072-.53-.13-1.055-.176-1.578-.02-.226-.047-.439-.05-.659a41.216,41.216,0,0,1,.124-4.346,15.4,15.4,0,0,1,.25-2.364c.575-2.205,1.487-2.968,3.7-2.092a.785.785,0,0,1,.328.247,4.357,4.357,0,0,1,1.15,3.36,23.857,23.857,0,0,0,.31,5.588c.024.109.065.29.105.428.057.2.113.4.179.624.093.309.195.637.309.962.068.2.143.41.225.624.146.378.327.779.515,1.148.052.1.122.228.177.323s.1.175.156.262c.127.206.27.417.4.616s.246.373.372.567c.054.085.109.168.161.255a5.056,5.056,0,0,1-1.125.4c-1.042.2-2.169.192-3.194.43a16.644,16.644,0,0,0-2.493,1c-.133-.452-.281-.917-.417-1.368C1416.474,1084.867,1416.407,1084.653,1416.346,1084.443Z" transform="translate(-1415.307 -1069.263)" fill="#fff"/>
        </g>
        <path id="Path_1021469" data-name="Path 1021469" d="M1447.66,1011.148s1.278.073,1.239.88-1.477-.1-1.477-.1S1447.06,1011.023,1447.66,1011.148Z" transform="translate(-1438.683 -1003.132)" fill="#2d334a"/>
        <path id="Path_1021470" data-name="Path 1021470" d="M1429.165,1015.682c1.149,1.078,2.83,1.151,3.489.45s.044-1.914-1.1-2.991-2.268-1.057-2.926-.356S1428.017,1014.6,1429.165,1015.682Z" transform="translate(-1421.268 -1004.182)" fill="#af7d61"/>
        <path id="Path_1021471" data-name="Path 1021471" d="M1437.79,1042.154l1.638-.234a26.212,26.212,0,0,1,.252,3.174c-.049.252-.454.384-.9.3-.4-.079-.706-.31-.728-.539h0A21.952,21.952,0,0,0,1437.79,1042.154Z" transform="translate(-1430.006 -1031.178)" fill="#af7d61"/>
        <path id="Path_1021472" data-name="Path 1021472" d="M1448.7,1035.266c.173-.313.452-.138,1.1.042s1.64-.151,1.385-1.5c-.108-.569.215-.2.446.109a1.784,1.784,0,0,1,.343.767,1.2,1.2,0,0,1-.344,1.086,2.376,2.376,0,0,1-2.04.574,1.04,1.04,0,0,1-.91-.807A.415.415,0,0,1,1448.7,1035.266Z" transform="translate(-1439.914 -1023.519)" fill="#2d334a"/>
        <path id="Path_1021473" data-name="Path 1021473" d="M1425.853,1012.118a2.545,2.545,0,0,1-.234-1.758,1.844,1.844,0,0,1,2.6-1.176.983.983,0,0,1,.04,1.538c-.8.949-1.075.326-1.106,1.177s-.733.887-.72,1.066Z" transform="translate(-1418.844 -1001.139)" fill="#2d334a"/>
        <path id="Path_1021474" data-name="Path 1021474" d="M1433.484,1049.6a.918.918,0,0,0,1.04.113c.181-.194.01-.446-.257-.7s-.665-.329-.847-.135A.472.472,0,0,0,1433.484,1049.6Z" transform="translate(-1425.9 -1037.418)" fill="#af7d61"/>
        <g id="Group_1180641" data-name="Group 1180641" transform="translate(8.769 14.671)">
          <path id="Path_1021475" data-name="Path 1021475" d="M1449.308,1086.165c.456,3.4-1.355,6.514.222,9.658.556.271,1.113.541,1.667.813.193-.6.374-1.2.552-1.808-2.046-2.781-.94-5.58-1.727-8.728C1449.784,1086.118,1449.547,1086.142,1449.308,1086.165Z" transform="translate(-1448.872 -1086.1)" fill="#383e56"/>
        </g>
        <g id="Group_1180642" data-name="Group 1180642" transform="translate(0 28.089)">
          <rect id="Rectangle_456711" data-name="Rectangle 456711" width="8.561" height="12.821" transform="matrix(0.893, 0.449, -0.449, 0.893, 5.761, 0)" fill="#f6d2a6"/>
          <rect id="Rectangle_456712" data-name="Rectangle 456712" width="3.985" height="2.374" transform="matrix(0.893, 0.449, -0.449, 0.893, 7.901, 3.161)" fill="#f0b56c"/>
        </g>
        <path id="Path_1021476" data-name="Path 1021476" d="M1388.836,1246.662a1.032,1.032,0,0,1,.672.626c.293.776.8,2.257.551,2.7-.336.616-1.64-1.714-1.4-3.383Z" transform="translate(-1385.218 -1217.666)" fill="#af7d61"/>
        <g id="Group_1180643" data-name="Group 1180643" transform="translate(0.7 13.957)">
          <path id="Path_1021477" data-name="Path 1021477" d="M1361.822,1093.448c-.494.161-.89.419-1.387.618-2.872-6.484-4.452-13,3.837-15.875,1.871-.649,1.551,1.613-.327,2.162C1357.507,1082.232,1360.146,1088.781,1361.822,1093.448Z" transform="translate(-1358.124 -1078.075)" fill="#fff"/>
        </g>
      </g>
      <g id="Group_1180651" data-name="Group 1180651" transform="translate(289.467 318.202)">
        <g id="Group_1180650" data-name="Group 1180650" transform="translate(0 0)">
          <path id="Path_1021478" data-name="Path 1021478" d="M1114.956,1167.27s2.908,18.405,4.666,20.81c0,0-2.129,1.962-4.1,1.409-3.259-.913-2.613-13.206-1.747-19.195A6.039,6.039,0,0,1,1114.956,1167.27Z" transform="translate(-1101.643 -1156.199)" fill="#454a5f"/>
          <path id="Path_1021479" data-name="Path 1021479" d="M1245.27,1152.108s1.747-1.77,2.369-1.706-.848,1.939-2.3,2.314Z" transform="translate(-1222.088 -1140.829)" fill="#fff"/>
          <g id="Group_1180645" data-name="Group 1180645" transform="translate(10.306 8.146)">
            <path id="Path_1021480" data-name="Path 1021480" d="M1113.514,1137.138c.268.325.531.635.783.955-6.1,4.365-8.789,3.351-13.39-2.191-.7-.848-.5-1.072.346-1.385-.043-.2-.043-.2,0,0,.847-.314.973-.073,1.553.659C1106.6,1139.961,1108.261,1140.241,1113.514,1137.138Z" transform="translate(-1100.48 -1134.369)" fill="#454a5f"/>
          </g>
          <g id="Group_1180646" data-name="Group 1180646" transform="translate(2.96 7.991)">
            <path id="Path_1021481" data-name="Path 1021481" d="M1020.287,1147.949c-.431.232-.785.421-1.183.6-2.088-8.36-2.191-10.644,4.99-15.743,1.1-.78,1.806,1.209.093,2.042C1018.178,1137.779,1019.031,1142.242,1020.287,1147.949Z" transform="translate(-1017.869 -1132.631)" fill="#454a5f"/>
          </g>
          <g id="Group_1180647" data-name="Group 1180647" transform="translate(9.051 19.854)">
            <path id="Path_1021482" data-name="Path 1021482" d="M1090.969,1294.55c-.484.218-.513.615-1.02.772-1.523-8.937-1.5-20.374-3.579-28.452,1.342-.29,2.686-.564,4.032-.839C1092.011,1275.455,1088.953,1283.883,1090.969,1294.55Z" transform="translate(-1086.37 -1266.03)" fill="#fff"/>
          </g>
          <path id="Path_1021483" data-name="Path 1021483" d="M1090.392,1266.04c-1.344.275-2.69.55-4.032.839,1.927,7.5,1.911,17.866,3.136,26.467l1.278.151C1089.143,1283.328,1091.949,1275.15,1090.392,1266.04Z" transform="translate(-1077.309 -1246.186)" fill="#2d334a"/>
          <g id="Group_1180648" data-name="Group 1180648" transform="translate(7.177 19.994)">
            <path id="Path_1021484" data-name="Path 1021484" d="M1068.089,1296.106c-.5.186-.552.58-1.068.7-.942-9.017-.181-20.428-1.73-28.624,1.358-.2,2.718-.389,4.077-.576C1070.365,1277.118,1066.767,1285.331,1068.089,1296.106Z" transform="translate(-1065.29 -1267.61)" fill="#fff"/>
          </g>
          <path id="Path_1021485" data-name="Path 1021485" d="M1069.377,1267.61c-1.36.188-2.719.374-4.077.576,1.438,7.607.751,17.952,1.417,26.614l1.266.234C1067.012,1284.781,1070.341,1276.8,1069.377,1267.61Z" transform="translate(-1058.122 -1247.616)" fill="#2d334a"/>
          <path id="Path_1021486" data-name="Path 1021486" d="M1006.836,1153.949q.179-.578.351-1.176a144.608,144.608,0,0,0,3.2-14.659c.782-4.609.549-6.637,1.295-8.878.313-.939.368-1.494,1.127-1.961a2.924,2.924,0,0,1,.288-.156,1.918,1.918,0,0,1,.435-.153c1.49-.316,2.382,1.67,2.629,3.022.048.264.1.466.141.634v0c.2.773.286.817-.388,2.739-.292.831.36,5.689.652,7.326.094.531.156,1.471.366,2.438a181.587,181.587,0,0,1,2.725,17.953c.023.209.047.418.07.626a6.141,6.141,0,0,1-1.812-.242c-1.4-.4-2.688-1.072-4.125-1.357a7.42,7.42,0,0,0-2.869.051,13.992,13.992,0,0,1-1.738.409,3.82,3.82,0,0,1-2.479-.534c-.527-.34-1.319-.386-1.8-1.08A32.618,32.618,0,0,0,1006.836,1153.949Z" transform="translate(-1003.103 -1119.449)" fill="#f4c68e"/>
          <path id="Path_1021487" data-name="Path 1021487" d="M1034.074,1157.152a7.946,7.946,0,0,1-3.544-.865,144.6,144.6,0,0,0,3.2-14.659c.783-4.609.549-6.637,1.295-8.878.313-.939.368-1.494,1.127-1.961-.036,1.478.482,4.685.611,10.643C1036.927,1148.929,1034.074,1157.152,1034.074,1157.152Z" transform="translate(-1026.444 -1122.963)" fill="#454a5f"/>
          <g id="Group_1180649" data-name="Group 1180649" transform="translate(0 22.74)">
            <rect id="Rectangle_456713" data-name="Rectangle 456713" width="11.037" height="16.53" transform="translate(0 4.436) rotate(-23.697)" fill="#fff"/>
            <rect id="Rectangle_456714" data-name="Rectangle 456714" width="7.747" height="0.415" transform="translate(2.509 5.957) rotate(-23.697)" fill="#999"/>
            <rect id="Rectangle_456715" data-name="Rectangle 456715" width="7.747" height="0.415" transform="translate(3.141 7.397) rotate(-23.697)" fill="#999"/>
            <rect id="Rectangle_456716" data-name="Rectangle 456716" width="7.747" height="0.415" transform="translate(3.773 8.836) rotate(-23.697)" fill="#999"/>
            <rect id="Rectangle_456717" data-name="Rectangle 456717" width="7.747" height="0.415" transform="translate(4.405 10.277) rotate(-23.697)" fill="#999"/>
            <rect id="Rectangle_456718" data-name="Rectangle 456718" width="7.747" height="0.415" transform="translate(5.037 11.717) rotate(-23.697)" fill="#999"/>
            <rect id="Rectangle_456719" data-name="Rectangle 456719" width="7.747" height="0.415" transform="translate(5.669 13.157) rotate(-23.697)" fill="#999"/>
            <rect id="Rectangle_456720" data-name="Rectangle 456720" width="7.747" height="0.415" transform="translate(6.302 14.597) rotate(-23.697)" fill="#999"/>
          </g>
          <path id="Path_1021488" data-name="Path 1021488" d="M1122.96,1581.121a3.752,3.752,0,0,0,1.92,2.437s.715.47-.319.321a4.668,4.668,0,0,1-2.846-1.577s-.585.982-.6.633-.049-1.936-.049-1.936Z" transform="translate(-1108.933 -1533.137)" fill="#383e56"/>
          <path id="Path_1021489" data-name="Path 1021489" d="M1080.62,1581.121a3.752,3.752,0,0,0,1.92,2.437s.715.47-.319.321a4.669,4.669,0,0,1-2.847-1.577s-.585.982-.6.633-.049-1.936-.049-1.936Z" transform="translate(-1070.358 -1533.137)" fill="#383e56"/>
          <path id="Path_1021490" data-name="Path 1021490" d="M1104.689,1130.632v0s-1.408-2.841-2.309-3.347a2.906,2.906,0,0,1-.46-.309c1.49-.316,2.382,1.67,2.629,3.022C1104.6,1130.262,1104.645,1130.464,1104.689,1130.632Z" transform="translate(-1091.486 -1119.458)" fill="#454a5f"/>
          <path id="Path_1021491" data-name="Path 1021491" d="M1035.134,1306.4c.448.579,1.4,1.882,1.3,2.376-.117.556-1.474-.67-1.992-2.02C1034.669,1306.645,1034.893,1306.529,1035.134,1306.4Z" transform="translate(-1030.006 -1282.956)" fill="#fff"/>
          <path id="Path_1021492" data-name="Path 1021492" d="M1062.569,1067.012a1.826,1.826,0,0,1-2.467,1.162,2.918,2.918,0,0,1-1.994-3.6,2.559,2.559,0,0,1,3.8-1.372C1063.851,1064.389,1062.569,1067.012,1062.569,1067.012Z" transform="translate(-1051.488 -1061.003)" fill="#2d334a"/>
          <path id="Path_1021493" data-name="Path 1021493" d="M1083.237,1074.39c.924,1.177,2.494,1.488,3.213.923s.317-1.791-.607-2.968-1.978-1.319-2.7-.754S1082.313,1073.212,1083.237,1074.39Z" transform="translate(-1073.861 -1068.736)" fill="#fff"/>
          <path id="Path_1021494" data-name="Path 1021494" d="M1092.43,1099.892l1.552-.252a25,25,0,0,1,.3,3.009c-.042.24-.424.373-.854.3-.386-.068-.676-.281-.7-.5h0A20.724,20.724,0,0,0,1092.43,1099.892Z" transform="translate(-1082.84 -1094.583)" fill="#fff"/>
          <path id="Path_1021495" data-name="Path 1021495" d="M1030.615,1053.005a1.834,1.834,0,0,0-1.364-1.98c-1.587-.517-3.408.068-3.211,1.731s1.82,3.631,3.69,3.016S1030.615,1053.005,1030.615,1053.005Z" transform="translate(-1022.34 -1050.125)" fill="#2d334a"/>
          <path id="Path_1021496" data-name="Path 1021496" d="M1004.431,1044.407a1.39,1.39,0,0,0-1.033-1.5c-1.2-.391-2.582.052-2.432,1.312s1.378,2.75,2.795,2.285S1004.431,1044.407,1004.431,1044.407Z" transform="translate(-999.499 -1042.77)" fill="#2d334a"/>
          <path id="Path_1021497" data-name="Path 1021497" d="M1071.269,1070.432a2.776,2.776,0,0,0-1.055,3.3c.349,1.032-2.614-1.738-2.614-1.738S1069.494,1069.262,1071.269,1070.432Z" transform="translate(-1060.218 -1067.707)" fill="#2d334a"/>
          <path id="Path_1021498" data-name="Path 1021498" d="M1086.25,1107.9a.873.873,0,0,0,.96.255c.2-.156.074-.417-.141-.691s-.577-.4-.775-.248A.449.449,0,0,0,1086.25,1107.9Z" transform="translate(-1077.085 -1101.423)" fill="#fff"/>
        </g>
      </g>
      <g id="Group_1180660" data-name="Group 1180660" transform="translate(338.534 314.171)">
        <path id="Path_1021499" data-name="Path 1021499" d="M1642.86,1044.236s.334,1.3.855,1.206.376-1.065.122-1.206A2.193,2.193,0,0,0,1642.86,1044.236Z" transform="translate(-1633.388 -1040.017)" fill="#2d334a"/>
        <g id="Group_1180652" data-name="Group 1180652" transform="translate(16.9 48.995)">
          <path id="Path_1021500" data-name="Path 1021500" d="M1728.266,1553.3a.586.586,0,0,1-.1.041.556.556,0,0,1-.684-.387l-1.066-3.849a.556.556,0,0,1,1.071-.3l1.066,3.849A.557.557,0,0,1,1728.266,1553.3Z" transform="translate(-1726.392 -1548.402)" fill="#fff"/>
        </g>
        <g id="Group_1180653" data-name="Group 1180653" transform="translate(9.273 18.836)">
          <path id="Path_1021501" data-name="Path 1021501" d="M1650.187,1241.882a16.992,16.992,0,0,1-1.605.83c-2.7-9.241-4.362-23.917-7.952-31.841,1.476-.557,2.961-1.089,4.446-1.621C1648.3,1218.3,1646.688,1230.744,1650.187,1241.882Z" transform="translate(-1640.63 -1209.25)" fill="#383e56"/>
        </g>
        <path id="Path_1021502" data-name="Path 1021502" d="M1732.893,1595.452s-.344,1.428,0,1.467,5.293.189,5.322-.04c.1-.783-3.947-1.507-4.343-1.428S1732.937,1595.245,1732.893,1595.452Z" transform="translate(-1715.276 -1542.203)" fill="#515770"/>
        <g id="Group_1180654" data-name="Group 1180654" transform="translate(3.864 48.995)">
          <path id="Path_1021503" data-name="Path 1021503" d="M1580.1,1553.3a.589.589,0,0,0,.1.041.556.556,0,0,0,.684-.387l1.066-3.849a.556.556,0,0,0-1.071-.3l-1.066,3.849A.556.556,0,0,0,1580.1,1553.3Z" transform="translate(-1579.801 -1548.402)" fill="#fff"/>
        </g>
        <g id="Group_1180655" data-name="Group 1180655" transform="translate(4.111 18.836)">
          <path id="Path_1021504" data-name="Path 1021504" d="M1582.58,1241.882a17.02,17.02,0,0,0,1.605.83c2.7-9.241,4.362-23.917,7.952-31.841-1.476-.557-2.961-1.089-4.446-1.621C1584.467,1218.3,1586.079,1230.744,1582.58,1241.882Z" transform="translate(-1582.58 -1209.25)" fill="#383e56"/>
        </g>
        <path id="Path_1021505" data-name="Path 1021505" d="M1541.674,1595.452s.344,1.428,0,1.467-5.293.189-5.322-.04c-.1-.783,3.947-1.507,4.343-1.428S1541.629,1595.245,1541.674,1595.452Z" transform="translate(-1536.349 -1542.203)" fill="#515770"/>
        <g id="Group_1180656" data-name="Group 1180656" transform="translate(7.66 5.785)">
          <path id="Path_1021506" data-name="Path 1021506" d="M1622.582,1070.42c-.013.2-.016.441-.029.663-.027.516-.04,1.051-.045,1.579,0,.214,0,.436,0,.661.005.475.016.951.037,1.434.009.213.021.434.036.66.022.342.052.692.093,1.044.025.217.052.438.083.667.086.639-.363,1.7-.251,2.336a17.312,17.312,0,0,1,1.842-.517,17.122,17.122,0,0,1,2.594.216l.15.025a20.883,20.883,0,0,1,2.92.705c-.155-.627-.305-1.276-.445-1.9-.053-.237-.1-.454-.144-.68-.052-.258-.1-.5-.145-.753-.02-.106-.037-.207-.055-.307-.023-.13-.046-.269-.067-.391-.072-.441-.142-.9-.2-1.329-.035-.244-.066-.483-.1-.707-.048-.371-.093-.749-.132-1.1-.028-.25-.053-.507-.076-.721-.017-.151-.031-.386-.042-.488a27.316,27.316,0,0,1-.213-5.317,3.146,3.146,0,0,0-1.008-2.861,1.911,1.911,0,0,0-.314-.256,2.434,2.434,0,0,0-4,1.287,10.775,10.775,0,0,0-.237,2.014C1622.743,1067.666,1622.67,1069.1,1622.582,1070.42Z" transform="translate(-1622.487 -1062.489)" fill="#f6d2a6"/>
        </g>
        <path id="Path_1021507" data-name="Path 1021507" d="M1607.468,1228.36s2.1,1.944,2.052,2.662-2.263-.9-2.75-2.566Z" transform="translate(-1600.508 -1207.825)" fill="#fff"/>
        <g id="Group_1180657" data-name="Group 1180657" transform="translate(1.682 6.18)">
          <path id="Path_1021508" data-name="Path 1021508" d="M1560.8,1081.245a7.036,7.036,0,0,0-1,1.015c-6.241-6.939-6.719-11.85,2.825-15.181,2.154-.752,2.713,1.7.115,2.357C1553.842,1071.669,1557.184,1075.848,1560.8,1081.245Z" transform="translate(-1555.268 -1066.937)" fill="#f6d2a6"/>
        </g>
        <path id="Path_1021509" data-name="Path 1021509" d="M1817.98,1132.746s2.159-1.882,2.869-1.752-1.143,2.152-2.847,2.457Z" transform="translate(-1792.936 -1119.112)" fill="#fff"/>
        <g id="Group_1180658" data-name="Group 1180658" transform="translate(11.421 7.25)">
          <path id="Path_1021510" data-name="Path 1021510" d="M1678.493,1085.15a9.044,9.044,0,0,0,.836,1.165c-8.109,5.129-12.721,4.575-14.5-5.67-.4-2.312,2.077-2.292,2.319.377C1667.98,1090.172,1672.14,1088.135,1678.493,1085.15Z" transform="translate(-1664.787 -1078.963)" fill="#f6d2a6"/>
        </g>
        <path id="Path_1021511" data-name="Path 1021511" d="M1661.367,1000.939s1.257.385,1.02,1.181-1.45-.459-1.45-.459S1660.8,1000.668,1661.367,1000.939Z" transform="translate(-1649.844 -1000.585)" fill="#2d334a"/>
        <path id="Path_1021512" data-name="Path 1021512" d="M1638.439,1003.851c.882,1.356,2.542,1.841,3.371,1.3s.513-1.9-.369-3.255-2-1.61-2.831-1.071S1637.557,1002.5,1638.439,1003.851Z" transform="translate(-1628.845 -1000.286)" fill="#fff"/>
        <path id="Path_1021513" data-name="Path 1021513" d="M1646.43,1033.305l1.691-.165a26.877,26.877,0,0,1,.114,3.267c-.062.256-.484.374-.942.262-.412-.1-.71-.35-.721-.586h0A22.506,22.506,0,0,0,1646.43,1033.305Z" transform="translate(-1636.641 -1029.965)" fill="#fff"/>
        <path id="Path_1021514" data-name="Path 1021514" d="M1652.575,1031.136c.249-.269.484-.027,1.084.31s1.673.25,1.747-1.154c.031-.594.264-.148.418.218a1.843,1.843,0,0,1,.155.85,1.235,1.235,0,0,1-.609,1,2.439,2.439,0,0,1-2.175.073,1.067,1.067,0,0,1-.71-1.027A.42.42,0,0,1,1652.575,1031.136Z" transform="translate(-1642.156 -1027.107)" fill="#2d334a"/>
        <path id="Path_1021515" data-name="Path 1021515" d="M1634.86,1000.268a2.615,2.615,0,0,1,.2-1.811,1.894,1.894,0,0,1,2.886-.536,1.01,1.01,0,0,1-.336,1.545c-1.026.751-1.152.061-1.39.9s-.948.706-.98.887Z" transform="translate(-1626.026 -997.439)" fill="#2d334a"/>
        <path id="Path_1021516" data-name="Path 1021516" d="M1638.51,1038.138c.206.316.782.516,1.01.367s.119-.442-.086-.758-.583-.491-.811-.342A.484.484,0,0,0,1638.51,1038.138Z" transform="translate(-1629.32 -1033.802)" fill="#fff"/>
        <g id="Group_1180659" data-name="Group 1180659" transform="translate(9.782 7.425)">
          <path id="Path_1021517" data-name="Path 1021517" d="M1647.453,1081.088c1.274,4.759-1.827,5.444-.939,9.393l1.4,1.241,1.029-1.606c-1.517-3.71.951-4.928-.784-9.176C1647.923,1080.984,1647.688,1081.038,1647.453,1081.088Z" transform="translate(-1646.352 -1080.94)" fill="#383e56"/>
        </g>
        <path id="Path_1021518" data-name="Path 1021518" d="M1671.8,1033.466a4.357,4.357,0,0,1,.44-1.081c.207-.242.7-.07.794-.113s-.312-.4-.582-.369a1.168,1.168,0,0,0-.72.751C1671.632,1033.056,1671.5,1033.654,1671.8,1033.466Z" transform="translate(-1659.586 -1028.837)" fill="#2d334a"/>
      </g>
      <g id="Group_1180661" data-name="Group 1180661" transform="translate(365.934 324.069)">
        <rect id="Rectangle_456721" data-name="Rectangle 456721" width="9.464" height="9.464" transform="translate(0 0.704)" fill="#454a5f"/>
        <path id="Path_1021519" data-name="Path 1021519" d="M1860.78,1112.968l3.127,3.127,7.354-7.354" transform="translate(-1859.33 -1108.74)" fill="none" stroke="#fff" stroke-linecap="round" stroke-linejoin="round" stroke-miterlimit="10" stroke-width="7.976"/>
      </g>
      <g id="Group_1180662" data-name="Group 1180662" transform="translate(316.229 293.859)">
        <path id="Path_1021520" data-name="Path 1021520" d="M1305.864,775.635c-1.392,3.293-3.041,6.444-4.415,9.73-6.2-2.912-9.893-2.767-15.928-7.376,2.082-3.024,4.263-5.98,6.394-8.969C1297.032,772.949,1300.2,773.165,1305.864,775.635Z" transform="translate(-1285.52 -769.02)" fill="#fff"/>
        <path id="Path_1021521" data-name="Path 1021521" d="M1323.116,800.212c-1.4,2.148-2.888,4.235-4.283,6.387-.117-.1-.236-.193-.352-.291,1.4-2.156,2.951-4.206,4.356-6.358Z" transform="translate(-1315.549 -797.199)" fill="#999"/>
        <path id="Path_1021522" data-name="Path 1021522" d="M1337.876,811.076c-1.339,2.181-2.732,4.317-4.014,6.533-.125-.092-.248-.188-.372-.282,1.327-2.19,2.726-4.321,4.094-6.486C1337.681,810.92,1337.775,811,1337.876,811.076Z" transform="translate(-1329.224 -807.121)" fill="#999"/>
        <path id="Path_1021523" data-name="Path 1021523" d="M1354.062,820.277c-1.232,2.24-2.487,4.463-3.652,6.74l-.4-.254c1.164-2.276,2.514-4.444,3.744-6.683Z" transform="translate(-1344.275 -815.539)" fill="#999"/>
        <path id="Path_1021524" data-name="Path 1021524" d="M1371.233,827.821c-1.136,2.3-2.243,4.609-3.328,6.938a4.476,4.476,0,0,1-.435-.181c1.154-2.285,2.194-4.619,3.4-6.878C1370.993,827.739,1371.114,827.778,1371.233,827.821Z" transform="translate(-1360.182 -822.482)" fill="#999"/>
        <path id="Path_1021525" data-name="Path 1021525" d="M1389.734,833.109c-1.091,2.285-1.985,4.626-2.983,6.947l-.452-.108c1-2.333,1.943-4.666,3.069-6.949A2.274,2.274,0,0,0,1389.734,833.109Z" transform="translate(-1377.338 -827.31)" fill="#999"/>
        <path id="Path_1021526" data-name="Path 1021526" d="M1408.933,836.257c-1.04,2.26-1.858,4.614-2.807,6.912a4.306,4.306,0,0,1-.466-.02c.983-2.309,1.813-4.672,2.852-6.958C1408.653,836.207,1408.793,836.232,1408.933,836.257Z" transform="translate(-1394.976 -830.217)" fill="#999"/>
        <path id="Path_1021527" data-name="Path 1021527" d="M1428.051,839.423c-.985,2.222-1.805,4.518-2.736,6.766l-.435-.045c.937-2.262,1.759-4.573,2.743-6.814C1427.766,839.362,1427.909,839.393,1428.051,839.423Z" transform="translate(-1412.487 -833.077)" fill="#999"/>
      </g>
      <g id="Group_1180663" data-name="Group 1180663" transform="translate(327.898 282.103)">
        <path id="Path_1021528" data-name="Path 1021528" d="M1423.048,655.7c-2.182-2.832-4.114-5.819-6.3-8.632,5.588-3.968,7.277-7.25,14.259-10.236,1.607,3.3,3.109,6.654,4.661,9.98C1429.732,649.332,1427.986,651.984,1423.048,655.7Z" transform="translate(-1416.75 -636.83)" fill="#fff"/>
        <path id="Path_1021529" data-name="Path 1021529" d="M1558.172,671.786c-1.18-2.277-2.265-4.6-3.452-6.872.142-.055.284-.11.426-.164,1.187,2.28,2.21,4.638,3.392,6.92Z" transform="translate(-1542.451 -662.267)" fill="#999"/>
        <path id="Path_1021530" data-name="Path 1021530" d="M1540.292,678.644c-1.24-2.239-2.414-4.5-3.712-6.709.141-.064.285-.124.428-.185,1.254,2.233,2.42,4.5,3.632,6.756C1540.523,678.551,1540.4,678.592,1540.292,678.644Z" transform="translate(-1525.924 -668.645)" fill="#999"/>
        <path id="Path_1021531" data-name="Path 1021531" d="M1522.67,687.219c-1.344-2.174-2.661-4.362-4.07-6.5l.418-.223c1.408,2.133,2.631,4.375,3.975,6.548Z" transform="translate(-1509.542 -676.617)" fill="#999"/>
        <path id="Path_1021532" data-name="Path 1021532" d="M1506.382,697.471c-1.448-2.124-2.909-4.22-4.4-6.312a4.352,4.352,0,0,1,.372-.289c1.422,2.129,2.941,4.182,4.314,6.347C1506.572,697.3,1506.478,697.388,1506.382,697.471Z" transform="translate(-1494.401 -686.064)" fill="#999"/>
        <path id="Path_1021533" data-name="Path 1021533" d="M1492.62,710.615c-1.452-2.074-3.05-4-4.58-6.015l.316-.341c1.538,2.021,3.105,3.987,4.54,6.091A2.28,2.28,0,0,0,1492.62,710.615Z" transform="translate(-1481.701 -698.264)" fill="#999"/>
        <path id="Path_1021534" data-name="Path 1021534" d="M1481.047,725.731c-1.455-2.019-3.1-3.888-4.637-5.845a4.194,4.194,0,0,1,.247-.4c1.527,1.992,3.176,3.877,4.654,5.907C1481.228,725.512,1481.137,725.621,1481.047,725.731Z" transform="translate(-1471.105 -712.139)" fill="#999"/>
        <path id="Path_1021535" data-name="Path 1021535" d="M1470.113,741.547c-1.449-1.951-3.045-3.794-4.543-5.712l.254-.356c1.508,1.929,3.115,3.781,4.581,5.741C1470.307,741.33,1470.21,741.438,1470.113,741.547Z" transform="translate(-1461.229 -726.707)" fill="#999"/>
      </g>
      <g id="Group_1180664" data-name="Group 1180664" transform="translate(319.472 257.523)">
        <path id="Path_1021536" data-name="Path 1021536" d="M1332.235,380.247c-3.453-.926-6.8-2.126-10.245-3.036,2.031-6.546,1.381-10.179,5.117-16.791,3.281,1.647,6.509,3.4,9.763,5.1C1333.683,371.13,1333.9,374.3,1332.235,380.247Z" transform="translate(-1321.99 -360.42)" fill="#fff"/>
        <path id="Path_1021537" data-name="Path 1021537" d="M1386.735,397.034c-2.32-1.093-4.591-2.279-6.915-3.365.079-.13.158-.26.239-.39,2.327,1.091,4.572,2.344,6.9,3.44Z" transform="translate(-1374.677 -390.358)" fill="#999"/>
        <path id="Path_1021538" data-name="Path 1021538" d="M1376.813,413.344c-2.345-1.026-4.652-2.112-7.022-3.078.073-.137.152-.271.228-.406,2.352,1.013,4.655,2.107,6.988,3.164C1376.94,413.13,1376.871,413.234,1376.813,413.344Z" transform="translate(-1365.539 -405.463)" fill="#999"/>
        <path id="Path_1021539" data-name="Path 1021539" d="M1368.267,430.912c-2.389-.911-4.763-1.85-7.177-2.691.066-.144.131-.288.2-.431,2.413.84,4.748,1.879,7.134,2.79C1368.369,430.69,1368.318,430.8,1368.267,430.912Z" transform="translate(-1357.613 -421.799)" fill="#999"/>
        <path id="Path_1021540" data-name="Path 1021540" d="M1361.95,449.228c-2.439-.808-4.874-1.587-7.33-2.343a4.486,4.486,0,0,1,.119-.455c2.422.829,4.876,1.538,7.281,2.425C1362,448.979,1361.976,449.1,1361.95,449.228Z" transform="translate(-1351.718 -438.781)" fill="#999"/>
        <path id="Path_1021541" data-name="Path 1021541" d="M1359.311,468.372c-2.412-.767-4.854-1.33-7.291-2,.015-.154.029-.308.044-.462,2.449.673,4.888,1.283,7.3,2.084A2.281,2.281,0,0,0,1359.311,468.372Z" transform="translate(-1349.35 -456.529)" fill="#999"/>
        <path id="Path_1021542" data-name="Path 1021542" d="M1359.178,487.844c-2.382-.72-4.825-1.206-7.233-1.83a4.569,4.569,0,0,1-.045-.464c2.422.655,4.877,1.153,7.285,1.868C1359.188,487.561,1359.183,487.7,1359.178,487.844Z" transform="translate(-1349.24 -474.423)" fill="#999"/>
        <path id="Path_1021543" data-name="Path 1021543" d="M1360.152,507.017c-2.336-.671-4.724-1.167-7.078-1.78,0-.146-.01-.292-.014-.437,2.369.617,4.771,1.113,7.126,1.78C1360.174,506.725,1360.163,506.871,1360.152,507.017Z" transform="translate(-1350.297 -491.961)" fill="#999"/>
      </g>
      <g id="Group_1180665" data-name="Group 1180665" transform="translate(421.762 323.692)">
        <path id="Path_1021544" data-name="Path 1021544" d="M2559.545,1148.9h-12l3.932-44.4h4.14Z" transform="translate(-2540.847 -1104.5)" fill="#454a5f"/>
        <path id="Path_1021545" data-name="Path 1021545" d="M2472.27,1311.57c0-3.039,5.684-6.66,12.7-6.66s12.7,3.621,12.7,6.66-5.684,4.343-12.7,4.343S2472.27,1314.608,2472.27,1311.57Z" transform="translate(-2472.27 -1287.088)" fill="#454a5f"/>
        <path id="Path_1021546" data-name="Path 1021546" d="M2472.27,1402.957c0-4.739,5.684-10.387,12.7-10.387s12.7,5.648,12.7,10.387-5.684,6.773-12.7,6.773S2472.27,1407.7,2472.27,1402.957Z" transform="translate(-2472.27 -1366.953)" fill="#454a5f"/>
      </g>
      <g id="Group_1180666" data-name="Group 1180666" transform="translate(431.319 363.847)">
        <path id="Path_1021547" data-name="Path 1021547" d="M2585.154,1575.72a5.633,5.633,0,0,0-5.414,4.081h10.827A5.63,5.63,0,0,0,2585.154,1575.72Z" transform="translate(-2579.74 -1573.972)" fill="#f2bf80"/>
        <path id="Path_1021548" data-name="Path 1021548" d="M2751.234,1575.72a5.633,5.633,0,0,0-5.414,4.081h10.827A5.63,5.63,0,0,0,2751.234,1575.72Z" transform="translate(-2731.051 -1573.972)" fill="#f2bf80"/>
        <path id="Path_1021549" data-name="Path 1021549" d="M2648.353,1556.06a8.045,8.045,0,0,0-7.733,5.829h15.465A8.044,8.044,0,0,0,2648.353,1556.06Z" transform="translate(-2635.206 -1556.06)" fill="#f2bf80"/>
      </g>
    </g>
  </g>
</svg>
