<svg xmlns="http://www.w3.org/2000/svg" xmlns:xlink="http://www.w3.org/1999/xlink" width="60" height="60" viewBox="0 0 60 60">
  <defs>
    <clipPath id="clip-path">
      <rect id="Rectangle_458783" data-name="Rectangle 458783" width="44.525" height="35.498" fill="#2d6250"/>
    </clipPath>
  </defs>
  <g id="img18" transform="translate(-829.711 -3973)">
    <rect id="Rectangle_456511" data-name="Rectangle 456511" width="60" height="60" rx="5" transform="translate(829.711 3973)" fill="#ff9e74"/>
    <g id="Group_1183682" data-name="Group 1183682" transform="translate(837.448 3985.251)">
      <g id="Group_1183681" data-name="Group 1183681" clip-path="url(#clip-path)">
        <path id="Path_1029751" data-name="Path 1029751" d="M70.281,87.652h6.675l-.859.859a.623.623,0,1,0,.881.881L78.9,87.47a.638.638,0,0,0,.078-.095c0-.007.008-.015.012-.022a.611.611,0,0,0,.045-.085c0-.011.007-.023.011-.035a.6.6,0,0,0,.025-.081.568.568,0,0,0-.025-.328c0-.011-.006-.023-.011-.035a.612.612,0,0,0-.046-.085c0-.007-.007-.015-.012-.022a.628.628,0,0,0-.078-.095l-1.922-1.921a.623.623,0,0,0-.881.881l.859.858H70.281a.623.623,0,1,0,0,1.246" transform="translate(-52.108 -63.198)" fill="#2d6250"/>
        <path id="Path_1029752" data-name="Path 1029752" d="M76.4,56.373a.623.623,0,0,0,.881,0L79.2,54.451a.628.628,0,0,0,.078-.095c0-.007.007-.015.012-.022a.63.63,0,0,0,.046-.085c0-.011.007-.023.011-.035a.678.678,0,0,0,.025-.082.621.621,0,0,0,0-.246.585.585,0,0,0-.025-.081c0-.012-.006-.024-.011-.036a.6.6,0,0,0-.045-.084c0-.007-.007-.015-.012-.022a.63.63,0,0,0-.078-.095l-1.922-1.921a.623.623,0,0,0-.881.881l.858.858H70.892a.623.623,0,0,0,0,1.246h6.367l-.859.859a.623.623,0,0,0,0,.881" transform="translate(-52.565 -38.499)" fill="#2d6250"/>
        <path id="Path_1029753" data-name="Path 1029753" d="M0,36.384v6.331a2.581,2.581,0,0,0,2.578,2.578H3.64V57.083A2.44,2.44,0,0,0,7.9,58.707a2.44,2.44,0,0,0,4.263-1.624V45.294h1.062a2.581,2.581,0,0,0,2.578-2.578V36.384a4.268,4.268,0,0,0-4.263-4.263H4.263A4.268,4.268,0,0,0,0,36.384m4.263-3.017h7.28a3.02,3.02,0,0,1,3.017,3.017v6.331a1.334,1.334,0,0,1-1.332,1.332H12.167V37.2a.623.623,0,1,0-1.246,0V57.083a1.2,1.2,0,0,1-2.394,0V47.2a.623.623,0,1,0-1.246,0v9.888a1.2,1.2,0,0,1-2.394,0V37.2a.623.623,0,1,0-1.246,0v6.847H2.578a1.334,1.334,0,0,1-1.332-1.332V36.384a3.02,3.02,0,0,1,3.017-3.017" transform="translate(0 -24.028)" fill="#2d6250"/>
        <path id="Path_1029754" data-name="Path 1029754" d="M16.728,3.689A3.689,3.689,0,1,0,20.417,0a3.693,3.693,0,0,0-3.689,3.689m6.132,0a2.443,2.443,0,1,1-2.443-2.443A2.446,2.446,0,0,1,22.86,3.689" transform="translate(-12.513)" fill="#2d6250"/>
        <path id="Path_1029755" data-name="Path 1029755" d="M129.792,42.716V36.384a4.268,4.268,0,0,0-4.263-4.263h-7.28a4.268,4.268,0,0,0-4.263,4.263v6.332a2.581,2.581,0,0,0,2.578,2.578h1.062V57.083a2.44,2.44,0,0,0,4.263,1.624,2.44,2.44,0,0,0,4.263-1.624V45.294h1.062a2.581,2.581,0,0,0,2.578-2.578m-1.246,0a1.334,1.334,0,0,1-1.332,1.332h-1.062V37.2a.623.623,0,0,0-1.246,0V57.083a1.2,1.2,0,0,1-2.394,0V47.2a.623.623,0,0,0-1.246,0v9.888a1.2,1.2,0,0,1-2.394,0V37.2a.623.623,0,1,0-1.246,0v6.847h-1.062a1.334,1.334,0,0,1-1.332-1.332V36.384a3.02,3.02,0,0,1,3.017-3.017h7.28a3.02,3.02,0,0,1,3.017,3.017Z" transform="translate(-85.267 -24.028)" fill="#2d6250"/>
        <path id="Path_1029756" data-name="Path 1029756" d="M134.4,0a3.689,3.689,0,1,0,3.689,3.689A3.693,3.693,0,0,0,134.4,0m0,6.132a2.443,2.443,0,1,1,2.443-2.443A2.446,2.446,0,0,1,134.4,6.132" transform="translate(-97.78)" fill="#2d6250"/>
      </g>
    </g>
  </g>
</svg>
