<svg xmlns="http://www.w3.org/2000/svg" xmlns:xlink="http://www.w3.org/1999/xlink" width="60" height="60" viewBox="0 0 60 60">
  <defs>
    <clipPath id="clip-path">
      <rect id="Rectangle_458782" data-name="Rectangle 458782" width="45.497" height="40.412" fill="#2d6250"/>
    </clipPath>
  </defs>
  <g id="img17" transform="translate(-517.711 -3973)">
    <rect id="Rectangle_456510" data-name="Rectangle 456510" width="60" height="60" rx="5" transform="translate(517.711 3973)" fill="#ff9e74"/>
    <g id="Group_1183679" data-name="Group 1183679" transform="translate(524.963 3982.794)">
      <g id="Group_1183678" data-name="Group 1183678" clip-path="url(#clip-path)">
        <path id="Path_1029744" data-name="Path 1029744" d="M87.246,44.7a.712.712,0,0,0-.63.785l.312,2.844a.711.711,0,0,0,.706.634.651.651,0,0,0,.078,0,.712.712,0,0,0,.63-.785l-.312-2.844a.707.707,0,0,0-.785-.63" transform="translate(-61.482 -31.727)" fill="#2d6250"/>
        <path id="Path_1029745" data-name="Path 1029745" d="M65.138,30.824l.556,5.145a.711.711,0,1,0,1.414-.153l-.556-5.145a3.783,3.783,0,0,0-3.767-3.382H55.83a3.783,3.783,0,0,0-3.767,3.382l-.557,5.145a.712.712,0,0,0,.631.784c.026,0,.052,0,.077,0a.712.712,0,0,0,.707-.635l.557-5.145a2.362,2.362,0,0,1,2.352-2.112h6.955a2.362,2.362,0,0,1,2.352,2.112" transform="translate(-36.559 -19.371)" fill="#2d6250"/>
        <path id="Path_1029746" data-name="Path 1029746" d="M64.532,45.329l-.312,2.855a.712.712,0,0,0,.63.785.643.643,0,0,0,.078,0,.712.712,0,0,0,.707-.634l.312-2.855a.711.711,0,0,0-1.414-.155" transform="translate(-45.584 -31.727)" fill="#2d6250"/>
        <path id="Path_1029747" data-name="Path 1029747" d="M69.7,7.115a3.557,3.557,0,1,0-3.557-3.557A3.561,3.561,0,0,0,69.7,7.115m0-5.691a2.134,2.134,0,1,1-2.134,2.134A2.137,2.137,0,0,1,69.7,1.424" transform="translate(-46.953 -0.001)" fill="#2d6250"/>
        <path id="Path_1029748" data-name="Path 1029748" d="M10.13,14.781a3.56,3.56,0,1,0,3.56-3.56,3.564,3.564,0,0,0-3.56,3.56m5.7,0a2.137,2.137,0,1,1-2.137-2.137,2.139,2.139,0,0,1,2.137,2.137" transform="translate(-7.191 -7.965)" fill="#2d6250"/>
        <path id="Path_1029749" data-name="Path 1029749" d="M122.138,14.781a3.56,3.56,0,1,0,3.56-3.56,3.564,3.564,0,0,0-3.56,3.56m3.56-2.137a2.137,2.137,0,1,1-2.137,2.137,2.14,2.14,0,0,1,2.137-2.137" transform="translate(-86.7 -7.965)" fill="#2d6250"/>
        <path id="Path_1029750" data-name="Path 1029750" d="M45.5,39.481a.712.712,0,0,0-.676-.745.72.72,0,0,0-.745.676l-.82,16.847H41.476a2.561,2.561,0,0,0,.267-1.01l.7-13.575a2.795,2.795,0,0,0-2.792-2.939H37.8a3.139,3.139,0,0,0-2.851,1.835l-2.409,5.293H27.407a.711.711,0,0,0-.711.711v1.36A2.631,2.631,0,0,0,27,49.16H18.5a2.631,2.631,0,0,0,.3-1.226v-1.36a.711.711,0,0,0-.711-.711H12.954L10.545,40.57a3.139,3.139,0,0,0-2.851-1.835H5.845a2.795,2.795,0,0,0-2.792,2.939l.7,13.575a2.553,2.553,0,0,0,.267,1.01H2.242l-.82-16.847a.719.719,0,0,0-.745-.676A.712.712,0,0,0,0,39.481L.853,57.005c0,.011,0,.021,0,.032L.074,66.7a.711.711,0,0,0,.652.767l.058,0a.711.711,0,0,0,.708-.654l.741-9.138h9.622l1.094,7.832a2.779,2.779,0,1,0,5.5-.783L16.927,54.195A2.586,2.586,0,0,0,14.38,51.99H9.988a.711.711,0,1,0,0,1.423H14.38a1.156,1.156,0,0,1,1.139.986l1.525,10.537a1.356,1.356,0,1,1-2.685.382l-1.179-8.445a.712.712,0,0,0-.7-.613H6.316a1.142,1.142,0,0,1-1.141-1.083L4.475,41.6a1.372,1.372,0,0,1,1.371-1.443H7.694a1.713,1.713,0,0,1,1.555,1l2.6,5.709a.711.711,0,0,0,.648.417h4.882v.649a1.227,1.227,0,0,1-1.226,1.226H10.259L8.6,45.61a.711.711,0,1,0-1.289.6l1.853,3.96a.711.711,0,0,0,.644.41H35.691a.711.711,0,0,0,.644-.41l1.853-3.96a.711.711,0,1,0-1.289-.6l-1.662,3.55H29.344a1.227,1.227,0,0,1-1.226-1.226v-.649H33a.711.711,0,0,0,.648-.417l2.6-5.709a1.713,1.713,0,0,1,1.555-1h1.849A1.372,1.372,0,0,1,41.022,41.6l-.7,13.574a1.143,1.143,0,0,1-1.141,1.084H33.023a.711.711,0,0,0-.7.613l-1.179,8.445a1.356,1.356,0,1,1-2.685-.382L29.978,54.4a1.156,1.156,0,0,1,1.139-.986h4.393a.711.711,0,0,0,0-1.423H31.117a2.586,2.586,0,0,0-2.547,2.2L27.045,64.731a2.779,2.779,0,1,0,5.5.783l1.094-7.832h9.622L44,66.82a.711.711,0,0,0,.708.654l.058,0a.711.711,0,0,0,.652-.767l-.784-9.667c0-.011,0-.021,0-.032Z" transform="translate(0 -27.496)" fill="#2d6250"/>
      </g>
    </g>
  </g>
</svg>
