<svg xmlns="http://www.w3.org/2000/svg" xmlns:xlink="http://www.w3.org/1999/xlink" width="127.921" height="128" viewBox="0 0 127.921 128">
  <defs>
    <clipPath id="clip-path">
      <rect id="Rectangle_458702" data-name="Rectangle 458702" width="56.549" height="50.223" fill="none"/>
    </clipPath>
  </defs>
  <g id="img14" transform="translate(-705.979 -1710.002)">
    <g id="Group_1180300" data-name="Group 1180300" transform="translate(705.936 1710.002)">
      <g id="Grupo_155253" data-name="Grupo 155253" transform="matrix(0.999, 0.035, -0.035, 0.999, 4.319, 0)">
        <path id="Trazado_196478" data-name="Trazado 196478" d="M17.389,19.468q-.386.412-.764.831A64.6,64.6,0,0,0,.044,66.072L25.8,65.147C25.1,44.584,40.69,27.331,60.618,26.613S97.267,41.982,97.965,62.546l25.755-.925c-.869-25.6-16.481-48.187-39.655-57.372A60.525,60.525,0,0,0,17.389,19.475" transform="translate(0 0)" fill="#f9ce5d"/>
        <path id="Trazado_196479" data-name="Trazado 196479" d="M0,4.454C1.195,39.7,29.849,67.266,64,66.036S124.871,35.241,123.676,0L97.92.925c.7,20.563-14.891,37.815-34.819,38.533S26.453,24.089,25.755,3.526Z" transform="translate(0.042 57.68)" fill="#70f5c8"/>
      </g>
      <ellipse id="Ellipse_13685" data-name="Ellipse 13685" cx="49.806" cy="49.887" rx="49.806" ry="49.887" transform="translate(14.269 14.359)" fill="#fff"/>
    </g>
    <g id="Group_1183512" data-name="Group 1183512" transform="translate(741.662 1748.891)">
      <g id="Group_1183511" data-name="Group 1183511" transform="translate(0 0)" clip-path="url(#clip-path)">
        <path id="Path_1029291" data-name="Path 1029291" d="M51.287,71.785a8.542,8.542,0,1,0,8.541,8.542,8.541,8.541,0,0,0-8.541-8.542M52.2,85.1v1.16a.272.272,0,0,1-.272.272H50.645a.272.272,0,0,1-.272-.272V85.1a2.851,2.851,0,0,1-2.605-2.519.276.276,0,0,1,.27-.312h1.3a.264.264,0,0,1,.262.208,1.03,1.03,0,0,0,1.006.819h1.363A1.028,1.028,0,0,0,52.99,82.16a1.069,1.069,0,0,0-1.083-.921H50.719a2.932,2.932,0,0,1-2.947-2.5,2.846,2.846,0,0,1,2.6-3.185V74.4a.272.272,0,0,1,.272-.272h1.283a.272.272,0,0,1,.272.272v1.159a2.851,2.851,0,0,1,2.605,2.519.276.276,0,0,1-.271.312h-1.3a.265.265,0,0,1-.262-.208,1.03,1.03,0,0,0-1.006-.819h-1.3a1.07,1.07,0,0,0-1.083.92A1.029,1.029,0,0,0,50.6,79.413h1.249a2.932,2.932,0,0,1,2.947,2.5A2.847,2.847,0,0,1,52.2,85.1" transform="translate(-23.012 -38.646)" fill="#14a0de"/>
        <path id="Path_1029292" data-name="Path 1029292" d="M55.321,0H1.227A1.228,1.228,0,0,0,0,1.227V3.066A1.228,1.228,0,0,0,1.227,4.293H55.321a1.228,1.228,0,0,0,1.227-1.227V1.227A1.228,1.228,0,0,0,55.321,0" transform="translate(0 0)" fill="#14a0de"/>
        <path id="Path_1029293" data-name="Path 1029293" d="M9.013,50.806a3,3,0,0,0,3,3H22.747a10.584,10.584,0,0,1-.785-4.061,11.16,11.16,0,0,1,22.32,0A10.575,10.575,0,0,1,43.5,53.8H54.235a3.008,3.008,0,0,0,3.016-3V14.974H9.013ZM46.159,20.445A1.543,1.543,0,0,1,47.7,18.9h3.17a1.543,1.543,0,0,1,1.543,1.543v3.17a1.543,1.543,0,0,1-1.543,1.543H47.7a1.543,1.543,0,0,1-1.543-1.543Zm0,10.426A1.543,1.543,0,0,1,47.7,29.328h3.17a1.543,1.543,0,0,1,1.543,1.543v3.17a1.543,1.543,0,0,1-1.543,1.543H47.7a1.543,1.543,0,0,1-1.543-1.543Zm0,10.426A1.543,1.543,0,0,1,47.7,39.754h3.17A1.543,1.543,0,0,1,52.415,41.3v3.169a1.543,1.543,0,0,1-1.543,1.543H47.7a1.543,1.543,0,0,1-1.543-1.543ZM35.385,20.445A1.543,1.543,0,0,1,36.929,18.9H40.1a1.543,1.543,0,0,1,1.543,1.543v3.17A1.543,1.543,0,0,1,40.1,25.158H36.929a1.544,1.544,0,0,1-1.544-1.543Zm0,10.426a1.543,1.543,0,0,1,1.544-1.543H40.1a1.543,1.543,0,0,1,1.543,1.543v3.17A1.543,1.543,0,0,1,40.1,35.583H36.929a1.543,1.543,0,0,1-1.544-1.543ZM24.612,20.445A1.543,1.543,0,0,1,26.155,18.9h3.169a1.543,1.543,0,0,1,1.543,1.543v3.17a1.543,1.543,0,0,1-1.543,1.543H26.155a1.543,1.543,0,0,1-1.543-1.543Zm0,10.426a1.543,1.543,0,0,1,1.543-1.543h3.169a1.543,1.543,0,0,1,1.543,1.543v3.17a1.543,1.543,0,0,1-1.543,1.543H26.155a1.543,1.543,0,0,1-1.543-1.543ZM13.839,20.445A1.543,1.543,0,0,1,15.382,18.9h3.17a1.543,1.543,0,0,1,1.543,1.543v3.17a1.543,1.543,0,0,1-1.543,1.543h-3.17a1.543,1.543,0,0,1-1.543-1.543Zm0,10.426a1.543,1.543,0,0,1,1.543-1.543h3.17a1.543,1.543,0,0,1,1.543,1.543v3.17a1.543,1.543,0,0,1-1.543,1.543h-3.17a1.543,1.543,0,0,1-1.543-1.543Zm0,10.426a1.543,1.543,0,0,1,1.543-1.543h3.17A1.543,1.543,0,0,1,20.094,41.3v3.169a1.543,1.543,0,0,1-1.543,1.543h-3.17a1.543,1.543,0,0,1-1.543-1.543Z" transform="translate(-4.852 -8.061)" fill="#203a72"/>
      </g>
    </g>
  </g>
</svg>
