<svg xmlns="http://www.w3.org/2000/svg" xmlns:xlink="http://www.w3.org/1999/xlink" width="159.902" height="160" viewBox="0 0 159.902 160">
  <defs>
    <clipPath id="clip-path">
      <rect id="Rectangle_458704" data-name="Rectangle 458704" width="75.997" height="75.317" fill="none"/>
    </clipPath>
  </defs>
  <g id="img22" transform="translate(-705.988 -1710.001)">
    <g id="Group_1180300" data-name="Group 1180300" transform="translate(705.936 1710.002)">
      <g id="Grupo_155253" data-name="Grupo 155253" transform="matrix(0.999, 0.035, -0.035, 0.999, 5.399, 0)">
        <path id="Trazado_196478" data-name="Trazado 196478" d="M21.736,24.335q-.482.515-.955,1.039A80.745,80.745,0,0,0,.055,82.589l32.194-1.156c-.873-25.7,18.614-47.269,43.524-48.167s45.811,19.211,46.683,44.915l32.194-1.156c-1.086-32-20.6-60.234-49.569-71.716S43.3,1.322,21.736,24.344" transform="translate(0 0)" fill="#f9ce5d"/>
        <path id="Trazado_196479" data-name="Trazado 196479" d="M0,5.568C1.493,49.619,37.312,84.083,80,82.545S156.089,44.051,154.595,0L122.4,1.156c.872,25.7-18.614,47.269-43.524,48.166S33.066,30.111,32.194,4.408Z" transform="translate(0.052 72.101)" fill="#ff9e74"/>
      </g>
      <ellipse id="Ellipse_13685" data-name="Ellipse 13685" cx="62.257" cy="62.359" rx="62.257" ry="62.359" transform="translate(17.837 17.949)" fill="#fff"/>
    </g>
    <g id="Group_1183516" data-name="Group 1183516" transform="translate(747.938 1752.343)">
      <g id="Group_1183515" data-name="Group 1183515" transform="translate(0 0)" clip-path="url(#clip-path)">
        <path id="Path_1029303" data-name="Path 1029303" d="M21.808,55.833A12.811,12.811,0,0,1,25.265,48.5a9.389,9.389,0,0,0-6.044-4.533l-3.752,9.4-.816-6.79h.538a.586.586,0,0,0,.59-.591V44.161a.6.6,0,0,0-.59-.607H12.2a.611.611,0,0,0-.59.607v1.824a.6.6,0,0,0,.59.591h.556l-.816,6.79-3.769-9.4A9.467,9.467,0,0,0,.948,52.047L.011,59.776A1.97,1.97,0,0,0,1.539,61.93c1.407.313,2.849.538,4.307.73L6.906,80.74A2.676,2.676,0,0,0,9.6,83.276h8.215a2.7,2.7,0,0,0,2.692-2.536L21.322,66.5a5.4,5.4,0,0,1-.452-2.935Z" transform="translate(0 -12.168)" fill="#203a72"/>
        <path id="Path_1029304" data-name="Path 1029304" d="M15.752,34.627A8.412,8.412,0,1,0,7.34,26.215a8.412,8.412,0,0,0,8.412,8.412" transform="translate(-2.051 -4.974)" fill="#203a72"/>
        <path id="Path_1029305" data-name="Path 1029305" d="M94.712,52.047a9.445,9.445,0,0,0-7.226-8.077l-3.752,9.4-.816-6.791h.538a.586.586,0,0,0,.591-.591V44.161a.6.6,0,0,0-.591-.607h-2.97a.615.615,0,0,0-.608.607v1.824a.6.6,0,0,0,.608.591h.538l-.816,6.791-3.769-9.4A9.468,9.468,0,0,0,70.4,48.487a12.877,12.877,0,0,1,3.473,7.347l.938,7.73a5.426,5.426,0,0,1-.469,2.952l.834,14.225a2.677,2.677,0,0,0,2.692,2.536H86.08a2.7,2.7,0,0,0,2.692-2.536L89.814,62.66c1.459-.191,2.918-.417,4.325-.73a1.941,1.941,0,0,0,1.511-2.153Z" transform="translate(-19.668 -12.168)" fill="#203a72"/>
        <path id="Path_1029306" data-name="Path 1029306" d="M74.781,26.214A8.412,8.412,0,1,0,83.193,17.8a8.412,8.412,0,0,0-8.412,8.411" transform="translate(-20.893 -4.974)" fill="#203a72"/>
        <path id="Path_1029307" data-name="Path 1029307" d="M52.948,49.8,49.184,59.21l-.816-6.8h.543a.594.594,0,0,0,.594-.594V49.992a.594.594,0,0,0-.594-.594H45.935a.594.594,0,0,0-.593.594v1.827a.593.593,0,0,0,.593.594h.543l-.816,6.8L41.9,49.8a9.479,9.479,0,0,0-7.224,8.079l-.934,7.733a1.961,1.961,0,0,0,1.516,2.163c1.4.3,2.851.53,4.318.726l1.047,18.074a2.7,2.7,0,0,0,2.691,2.543h8.219a2.7,2.7,0,0,0,2.693-2.543L55.27,68.5c1.466-.2,2.916-.426,4.319-.726a1.964,1.964,0,0,0,1.516-2.163l-.932-7.733A9.468,9.468,0,0,0,52.948,49.8" transform="translate(-9.423 -13.801)" fill="#203a72"/>
        <path id="Path_1029308" data-name="Path 1029308" d="M49.473,23.639a8.412,8.412,0,1,0,8.412,8.41,8.411,8.411,0,0,0-8.412-8.41" transform="translate(-11.472 -6.604)" fill="#203a72"/>
        <path id="Path_1029309" data-name="Path 1029309" d="M52.005,9.275a1.939,1.939,0,0,0,1.938-1.938v-5.4a1.938,1.938,0,1,0-3.877,0v5.4a1.939,1.939,0,0,0,1.938,1.938" transform="translate(-13.988 0)" fill="#14a0de"/>
        <path id="Path_1029310" data-name="Path 1029310" d="M62.231,11.513a1.936,1.936,0,0,0,2.542-1.027l2.109-4.969A1.938,1.938,0,1,0,63.312,4L61.2,8.971a1.939,1.939,0,0,0,1.028,2.542" transform="translate(-17.056 -0.788)" fill="#14a0de"/>
        <path id="Path_1029311" data-name="Path 1029311" d="M38.37,10.486a1.938,1.938,0,0,0,3.568-1.515L39.828,4a1.938,1.938,0,0,0-3.568,1.515Z" transform="translate(-10.087 -0.788)" fill="#14a0de"/>
      </g>
    </g>
  </g>
</svg>
