<svg xmlns="http://www.w3.org/2000/svg" xmlns:xlink="http://www.w3.org/1999/xlink" width="149.908" height="150" viewBox="0 0 149.908 150">
  <defs>
    <clipPath id="clip-path">
      <rect id="Rectangle_458708" data-name="Rectangle 458708" width="56.224" height="70.637" fill="none"/>
    </clipPath>
  </defs>
  <g id="img27" transform="translate(-705.985 -1710.001)">
    <g id="Group_1180300" data-name="Group 1180300" transform="translate(705.936 1710.002)">
      <g id="Grupo_155253" data-name="Grupo 155253" transform="matrix(0.999, 0.035, -0.035, 0.999, 5.061, 0)">
        <path id="Trazado_196478" data-name="Trazado 196478" d="M20.378,22.814q-.452.483-.9.974A75.7,75.7,0,0,0,.051,77.428l30.182-1.084c-.818-24.1,17.45-44.315,40.8-45.157S113.984,49.2,114.8,73.3l30.181-1.084c-1.018-30-19.313-56.469-46.471-67.233A70.928,70.928,0,0,0,20.378,22.822" transform="translate(0 0)" fill="#f9ce5d"/>
        <path id="Trazado_196479" data-name="Trazado 196479" d="M0,5.22c1.4,41.3,34.98,73.608,75,72.166S146.333,41.3,144.933,0L114.75,1.084c.818,24.1-17.451,44.314-40.8,45.156S31,28.229,30.182,4.132Z" transform="translate(0.049 67.594)" fill="#70f5c8"/>
      </g>
      <ellipse id="Ellipse_13685" data-name="Ellipse 13685" cx="58.366" cy="58.462" rx="58.366" ry="58.462" transform="translate(16.722 16.827)" fill="#fff"/>
    </g>
    <g id="Group_1183524" data-name="Group 1183524" transform="translate(752.824 1749.683)">
      <g id="Group_1183523" data-name="Group 1183523" clip-path="url(#clip-path)">
        <path id="Path_1029328" data-name="Path 1029328" d="M44.163,42.362a16.6,16.6,0,0,1,2.768.238V16.423H32.606a2.093,2.093,0,0,1-2.1-2.1V0H2.1A2.093,2.093,0,0,0,0,2.1V58.21a2.094,2.094,0,0,0,2.1,2.1h25.94a13.755,13.755,0,0,1-.1-1.719A16.248,16.248,0,0,1,44.163,42.362M11.642,12.23H21.859a2.1,2.1,0,0,1,0,4.193H11.642a2.1,2.1,0,0,1,0-4.193m0,11.167H35.289a2.1,2.1,0,0,1,0,4.192H11.642a2.1,2.1,0,1,1,0-4.192m0,11.167H35.289a2.1,2.1,0,0,1,0,4.192H11.642a2.1,2.1,0,1,1,0-4.192m11.1,15.345h-11.1a2.1,2.1,0,1,1,0-4.192h11.1a2.1,2.1,0,1,1,0,4.192" transform="translate(0 0)" fill="#203a72"/>
        <path id="Path_1029329" data-name="Path 1029329" d="M64.318,11.948,53.138.768A2.108,2.108,0,0,0,52.7.443v11.94h11.94a2.1,2.1,0,0,0-.324-.435" transform="translate(-18.005 -0.151)" fill="#203a72"/>
        <path id="Path_1029330" data-name="Path 1029330" d="M60.851,70.72A12.04,12.04,0,1,0,72.9,82.766,12.047,12.047,0,0,0,60.851,70.72M56.3,85.885a.329.329,0,0,1,.332-.348h1.814a.313.313,0,0,1,.318.248,1.544,1.544,0,0,0,1.521,1.291h1.04A1.6,1.6,0,0,0,62.934,85.8,1.54,1.54,0,0,0,61.415,84h-.949a4.124,4.124,0,0,1-4.16-3.6,4,4,0,0,1,3.315-4.34V74.484a.329.329,0,0,1,.328-.329h1.8a.329.329,0,0,1,.329.329v1.575a4,4,0,0,1,3.32,3.589.332.332,0,0,1-.333.35H63.254a.317.317,0,0,1-.319-.25,1.543,1.543,0,0,0-1.52-1.292h-1.04a1.6,1.6,0,0,0-1.607,1.279,1.543,1.543,0,0,0,1.52,1.8h1.128a4,4,0,0,1,3.981,4.4,4.062,4.062,0,0,1-3.316,3.511v1.6a.327.327,0,0,1-.329.327h-1.8a.327.327,0,0,1-.328-.327V89.474A4,4,0,0,1,56.3,85.885" transform="translate(-16.673 -24.16)" fill="#14a0de"/>
      </g>
    </g>
  </g>
</svg>
