<svg xmlns="http://www.w3.org/2000/svg" xmlns:xlink="http://www.w3.org/1999/xlink" width="188" height="242.645" viewBox="0 0 188 242.645">
  <defs>
    <clipPath id="clip-path">
      <rect id="Rectangle_456756" data-name="Rectangle 456756" width="188" height="151.267" fill="none"/>
    </clipPath>
  </defs>
  <g id="img33" transform="translate(-185.711 -9302)">
    <rect id="Rectangle_456536" data-name="Rectangle 456536" width="188" height="242.644" rx="10" transform="translate(185.711 9302)" fill="#ff9e74"/>
    <g id="Group_1180757" data-name="Group 1180757" transform="translate(185.711 9348)">
      <rect id="Rectangle_456753" data-name="Rectangle 456753" width="16.307" height="30.979" transform="translate(23.016 42.126)" fill="#94b2cc"/>
      <g id="Group_1180756" data-name="Group 1180756">
        <g id="Group_1180755" data-name="Group 1180755" clip-path="url(#clip-path)">
          <path id="Path_1021979" data-name="Path 1021979" d="M745.224,481.775H764.74V419.31H745.224Z" transform="translate(-699.477 -393.57)" fill="#94b2cc"/>
          <rect id="Rectangle_456754" data-name="Rectangle 456754" width="11.677" height="8.028" transform="translate(49.178 17.889)" fill="#94b2cc"/>
          <path id="Path_1021980" data-name="Path 1021980" d="M1148.653,881.392l.354-2.676.489-34.858,12.066-.268,3.975,4.081-.144,30.4-8.117,1.905Z" transform="translate(-1078.14 -791.805)" fill="#85a9c8"/>
          <rect id="Rectangle_456755" data-name="Rectangle 456755" width="15.738" height="19.664" transform="translate(87.104 67.123)" fill="#a2bdd3"/>
          <path id="Path_1021981" data-name="Path 1021981" d="M1673.109,771.652l-.061-1.871.377-33.742,9.556-.424.213-5.84,6.53.319-.027,43.432Z" transform="translate(-1570.344 -684.976)" fill="#6fa6cd"/>
          <path id="Path_1021982" data-name="Path 1021982" d="M2002.81,433.61h22.247V364.919H2002.81Z" transform="translate(-1879.863 -342.517)" fill="#659cc7"/>
          <path id="Path_1021983" data-name="Path 1021983" d="M2458.032,580.657l-.007-16.548-.008-16.548,16.309-10.033q.126,18.792.252,37.585Z" transform="translate(-2307.125 -504.53)" fill="#97b1c8"/>
          <path id="Path_1021984" data-name="Path 1021984" d="M1215.744,32.948l-1.129-1.416a19.876,19.876,0,0,1-3.718-10.068q-.278-.915.306-5.408a19.87,19.87,0,0,1,7.5-12.023q.621-.727,4.723-2.652a19.87,19.87,0,0,1,25.362,26.72q-.2.937-2.9,4.587a19.871,19.871,0,0,1-26.272,3.67Z" transform="translate(-1136.479 0)" fill="#e0c3a5"/>
          <path id="Path_1021985" data-name="Path 1021985" d="M1309.852,130.417l-.785-1.75a14.109,14.109,0,0,1,22.134-15.819l1.351,1.253a14.1,14.1,0,1,1-22.7,16.316" transform="translate(-1227.894 -102.96)" fill="#f3b97c"/>
          <path id="Path_1021986" data-name="Path 1021986" d="M349.587,683.919h17.756a.862.862,0,0,1,.862.862v34.341a.862.862,0,0,1-.862.862H349.587a.862.862,0,0,1-.862-.862V684.781a.862.862,0,0,1,.862-.862m0,1.725.862-.862v34.341l-.862-.862h17.756l-.862.862V684.781l.862.862Z" transform="translate(-327.318 -641.935)"/>
          <path id="Path_1021987" data-name="Path 1021987" d="M737.914,410.275h18.708a.862.862,0,0,1,.862.862v62.029a.862.862,0,0,1-.862.862H737.914a.862.862,0,0,1-.862-.862V411.137a.862.862,0,0,1,.862-.862m0,1.725.862-.862v62.029l-.862-.862h18.708l-.862.862V411.137l.862.862Z" transform="translate(-691.806 -385.089)"/>
          <path id="Path_1021988" data-name="Path 1021988" d="M784.047,298.022H796.5l-.862.862v-7.3l.862.862H784.047l.862-.862v7.3Zm0,1.725a.862.862,0,0,1-.862-.862v-7.3a.862.862,0,0,1,.862-.862H796.5a.863.863,0,0,1,.862.862v7.3a.862.862,0,0,1-.862.862Z" transform="translate(-735.107 -272.873)"/>
          <path id="Path_1021989" data-name="Path 1021989" d="M1997.3,417.289h22.148l-.862.862V349.1l.862.862H1997.3l.862-.862v69.05Zm0,1.725a.862.862,0,0,1-.862-.862V349.1a.862.862,0,0,1,.862-.862h22.148a.862.862,0,0,1,.863.862v69.05a.862.862,0,0,1-.863.862Z" transform="translate(-1873.879 -326.861)"/>
          <path id="Path_1021990" data-name="Path 1021990" d="M1141.408,860.179V822.824a.862.862,0,0,1,1.725,0v37.355a.862.862,0,0,1-1.725,0" transform="translate(-1071.34 -771.504)"/>
          <path id="Path_1021991" data-name="Path 1021991" d="M1411.226,907.781V937.23a.862.862,0,0,1-1.725,0V907.781a.862.862,0,0,1,1.725,0" transform="translate(-1322.975 -851.245)"/>
          <path id="Path_1021992" data-name="Path 1021992" d="M1417.966,1082.466h15.1a.862.862,0,0,1,0,1.725h-15.1a.862.862,0,0,1,0-1.725" transform="translate(-1330.111 -1016.016)"/>
          <path id="Path_1021993" data-name="Path 1021993" d="M1664.86,806.887v34.966a.862.862,0,0,1-1.725,0V806.887a.862.862,0,0,1,1.725,0" transform="translate(-1561.039 -756.545)"/>
          <path id="Path_1021994" data-name="Path 1021994" d="M1930.933,713.14v44.676a.862.862,0,0,1-1.725,0V713.14a.862.862,0,0,1,1.725,0" transform="translate(-1810.778 -668.553)"/>
          <path id="Path_1021995" data-name="Path 1021995" d="M2445.687,690.519v33.307a.862.862,0,0,1-1.725,0V690.519a.862.862,0,0,1,1.725,0" transform="translate(-2293.934 -647.321)"/>
          <path id="Path_1021996" data-name="Path 1021996" d="M2712.672,511.328v38.438a.862.862,0,0,1-1.725,0V511.328a.862.862,0,1,1,1.725,0" transform="translate(-2544.529 -479.13)"/>
          <path id="Path_1021997" data-name="Path 1021997" d="M2446.975,518.11l16.152-11.05a.862.862,0,0,1,.974,1.423l-16.152,11.05a.862.862,0,1,1-.974-1.423" transform="translate(-2296.408 -475.792)"/>
          <path id="Path_1021998" data-name="Path 1021998" d="M1664.642,806.434l9.75.112a.862.862,0,1,1-.02,1.724l-9.75-.112a.862.862,0,0,1,.02-1.724" transform="translate(-1561.635 -756.929)"/>
          <path id="Path_1021999" data-name="Path 1021999" d="M1829.378,711.583l6.093-.008a.862.862,0,1,1,0,1.725l-6.094.008a.862.862,0,0,1,0-1.725" transform="translate(-1716.269 -667.893)"/>
          <path id="Path_1022000" data-name="Path 1022000" d="M1824.815,713.076l-.016,5.866a.862.862,0,0,1-1.725,0l.015-5.866a.862.862,0,0,1,1.725,0" transform="translate(-1711.161 -668.491)"/>
          <path id="Path_1022001" data-name="Path 1022001" d="M884.5,98.81V86.629a.862.862,0,0,1,1.725,0V98.81a.862.862,0,0,1-1.725,0" transform="translate(-830.205 -80.502)"/>
          <path id="Path_1022002" data-name="Path 1022002" d="M1147.582,820.685h12.246a.862.862,0,1,1,0,1.725h-12.246a.862.862,0,1,1,0-1.725" transform="translate(-1076.326 -770.305)"/>
          <path id="Path_1022003" data-name="Path 1022003" d="M1348.8,821.691l3.767,4.906a.862.862,0,1,1-1.368,1.05l-3.767-4.906a.862.862,0,1,1,1.368-1.05" transform="translate(-1264.553 -770.933)"/>
          <path id="Path_1022004" data-name="Path 1022004" d="M423.458,765.189h2.462a.862.862,0,1,1,0,1.724h-2.462a.862.862,0,1,1,0-1.724" transform="translate(-396.654 -718.216)"/>
          <path id="Path_1022005" data-name="Path 1022005" d="M423.458,871.45h2.462a.862.862,0,1,1,0,1.724h-2.462a.862.862,0,0,1,0-1.725" transform="translate(-396.654 -817.954)"/>
          <path id="Path_1022006" data-name="Path 1022006" d="M423.458,965.837h2.462a.862.862,0,0,1,0,1.725h-2.462a.862.862,0,0,1,0-1.725" transform="translate(-396.654 -906.546)"/>
          <path id="Path_1022007" data-name="Path 1022007" d="M537.2,764.864h1.647a.862.862,0,0,1,0,1.725H537.2a.862.862,0,0,1,0-1.725" transform="translate(-503.416 -717.911)"/>
          <path id="Path_1022008" data-name="Path 1022008" d="M537.2,873.646h1.647a.862.862,0,1,1,0,1.725H537.2a.862.862,0,1,1,0-1.724" transform="translate(-503.416 -820.015)"/>
          <path id="Path_1022009" data-name="Path 1022009" d="M537.2,965.915h1.647a.862.862,0,1,1,0,1.724H537.2a.862.862,0,1,1,0-1.724" transform="translate(-503.416 -906.62)"/>
          <path id="Path_1022010" data-name="Path 1022010" d="M537.2,1044.65h1.647a.862.862,0,1,1,0,1.725H537.2a.862.862,0,1,1,0-1.725" transform="translate(-503.416 -980.521)"/>
          <path id="Path_1022011" data-name="Path 1022011" d="M793.3,519.325h11.2a.862.862,0,1,1,0,1.724H793.3a.862.862,0,0,1,0-1.725" transform="translate(-743.793 -487.445)"/>
          <path id="Path_1022012" data-name="Path 1022012" d="M793.3,632.212h11.2a.862.862,0,0,1,0,1.725H793.3a.862.862,0,0,1,0-1.725" transform="translate(-743.793 -593.402)"/>
          <path id="Path_1022013" data-name="Path 1022013" d="M793.3,746.056h11.2a.862.862,0,0,1,0,1.725H793.3a.862.862,0,1,1,0-1.724" transform="translate(-743.793 -700.257)"/>
          <path id="Path_1022014" data-name="Path 1022014" d="M793.3,848.775h11.2a.862.862,0,0,1,0,1.725H793.3a.862.862,0,0,1,0-1.725" transform="translate(-743.793 -796.671)"/>
          <path id="Path_1022015" data-name="Path 1022015" d="M793.3,969.79h11.2a.862.862,0,1,1,0,1.724H793.3a.862.862,0,0,1,0-1.725" transform="translate(-743.793 -910.257)"/>
          <path id="Path_1022016" data-name="Path 1022016" d="M793.3,1077.415h11.2a.862.862,0,0,1,0,1.725H793.3a.862.862,0,0,1,0-1.725" transform="translate(-743.793 -1011.275)"/>
          <path id="Path_1022017" data-name="Path 1022017" d="M1220.476,953.93a.862.862,0,1,1-.862-.862.862.862,0,0,1,.862.862" transform="translate(-1143.935 -894.562)"/>
          <path id="Path_1022018" data-name="Path 1022018" d="M1220.476,1037.285h0a.862.862,0,0,1-1.725,0h0a.862.862,0,0,1,1.725,0" transform="translate(-1143.935 -972.799)"/>
          <path id="Path_1022019" data-name="Path 1022019" d="M1220.476,1134.426h0a.862.862,0,0,1-1.725,0h0a.862.862,0,0,1,1.725,0" transform="translate(-1143.935 -1063.977)"/>
          <path id="Path_1022020" data-name="Path 1022020" d="M1220.476,1230.445a.862.862,0,1,1-.862-.862.862.862,0,0,1,.862.862" transform="translate(-1143.935 -1154.102)"/>
          <path id="Path_1022021" data-name="Path 1022021" d="M1280.5,953.93a.862.862,0,1,1-.862-.862.862.862,0,0,1,.862.862" transform="translate(-1200.271 -894.562)"/>
          <path id="Path_1022022" data-name="Path 1022022" d="M1280.5,1037.285h0a.862.862,0,0,1-1.725,0h0a.862.862,0,0,1,1.725,0" transform="translate(-1200.271 -972.799)"/>
          <path id="Path_1022023" data-name="Path 1022023" d="M1280.5,1134.426h0a.862.862,0,0,1-1.725,0h0a.862.862,0,0,1,1.725,0" transform="translate(-1200.271 -1063.977)"/>
          <path id="Path_1022024" data-name="Path 1022024" d="M1280.5,1230.445a.862.862,0,1,1-.862-.862.862.862,0,0,1,.862.862" transform="translate(-1200.271 -1154.102)"/>
          <path id="Path_1022025" data-name="Path 1022025" d="M1337.64,953.93a.862.862,0,1,1-.862-.862.862.862,0,0,1,.862.862" transform="translate(-1253.906 -894.562)"/>
          <path id="Path_1022026" data-name="Path 1022026" d="M1337.64,1037.285h0a.862.862,0,0,1-1.725,0h0a.862.862,0,0,1,1.725,0" transform="translate(-1253.906 -972.799)"/>
          <path id="Path_1022027" data-name="Path 1022027" d="M1337.64,1134.426h0a.862.862,0,0,1-1.725,0h0a.862.862,0,0,1,1.725,0" transform="translate(-1253.906 -1063.977)"/>
          <path id="Path_1022028" data-name="Path 1022028" d="M1337.64,1230.445a.862.862,0,1,1-.862-.862.862.862,0,0,1,.862.862" transform="translate(-1253.906 -1154.102)"/>
          <path id="Path_1022029" data-name="Path 1022029" d="M2090.531,489.5h10.25a.862.862,0,1,1,0,1.724h-10.25a.862.862,0,0,1,0-1.725" transform="translate(-1961.389 -459.455)"/>
          <path id="Path_1022030" data-name="Path 1022030" d="M2090.531,607.38h10.25a.862.862,0,1,1,0,1.725h-10.25a.862.862,0,1,1,0-1.725" transform="translate(-1961.389 -570.094)"/>
          <path id="Path_1022031" data-name="Path 1022031" d="M2090.531,724.446h10.25a.862.862,0,1,1,0,1.724h-10.25a.862.862,0,0,1,0-1.725" transform="translate(-1961.389 -679.974)"/>
          <path id="Path_1022032" data-name="Path 1022032" d="M2090.531,836.536h10.25a.862.862,0,0,1,0,1.725h-10.25a.862.862,0,0,1,0-1.725" transform="translate(-1961.389 -785.183)"/>
          <path id="Path_1022033" data-name="Path 1022033" d="M2090.531,943.482h10.25a.862.862,0,0,1,0,1.725h-10.25a.862.862,0,0,1,0-1.725" transform="translate(-1961.389 -885.564)"/>
          <path id="Path_1022034" data-name="Path 1022034" d="M2090.531,1055.407h10.25a.862.862,0,1,1,0,1.724h-10.25a.862.862,0,1,1,0-1.724" transform="translate(-1961.389 -990.618)"/>
          <path id="Path_1022035" data-name="Path 1022035" d="M2090.531,1163.962h10.25a.862.862,0,0,1,0,1.725h-10.25a.862.862,0,1,1,0-1.724" transform="translate(-1961.389 -1092.509)"/>
          <path id="Path_1022036" data-name="Path 1022036" d="M2498.067,794.556h3.3a.862.862,0,0,1,0,1.725h-3.3a.862.862,0,0,1,0-1.725" transform="translate(-2343.907 -745.78)"/>
          <path id="Path_1022037" data-name="Path 1022037" d="M2498.067,895.368h3.3a.862.862,0,0,1,0,1.725h-3.3a.862.862,0,0,1,0-1.725" transform="translate(-2343.907 -840.403)"/>
          <path id="Path_1022038" data-name="Path 1022038" d="M2498.067,989.06h3.3a.862.862,0,0,1,0,1.725h-3.3a.862.862,0,0,1,0-1.725" transform="translate(-2343.907 -928.344)"/>
          <path id="Path_1022039" data-name="Path 1022039" d="M1242.714,21.438A20.718,20.718,0,1,1,1222,.72a20.718,20.718,0,0,1,20.718,20.718m-1.725,0A18.994,18.994,0,1,0,1222,40.432a18.994,18.994,0,0,0,18.994-18.993" transform="translate(-1127.534 -0.676)"/>
          <path id="Path_1022040" data-name="Path 1022040" d="M1322.156,106.437A15.159,15.159,0,1,1,1307,91.278a15.159,15.159,0,0,1,15.159,15.159m-1.725,0A13.434,13.434,0,1,0,1307,119.871a13.434,13.434,0,0,0,13.435-13.434" transform="translate(-1212.535 -85.675)"/>
          <path id="Path_1022041" data-name="Path 1022041" d="M1454.017,222.1a8.792,8.792,0,0,0,3.869,1.538,2.311,2.311,0,0,0,1.065-.25c1.576-.8,2.591-3.014,2.2-3.8a.6.6,0,0,0-.079-.119c-.4-.476-1.591-.708-3.407-.977a13.533,13.533,0,0,1-3.415-.8c-2.641-1.209-2.424-3.956-1.673-5.6v0h0a4.608,4.608,0,0,1,4.095-2.861h.1c1.695.041,3.4,1.2,4.788,2.121a.862.862,0,1,1-.951,1.438c-1.548-1.023-2.789-1.809-3.879-1.835h-.054a2.894,2.894,0,0,0-2.527,1.855h0c-.609,1.33-.485,2.712.823,3.31a12.181,12.181,0,0,0,2.951.659c1.46.216,3.538.468,4.47,1.568a2.338,2.338,0,0,1,.3.458c1.067,2.115-1.115,5.181-2.959,6.112a4.034,4.034,0,0,1-1.842.435c-1.673,0-3.339-.976-4.722-1.764a.862.862,0,1,1,.854-1.5" transform="translate(-1362.936 -196.391)"/>
          <path id="Path_1022042" data-name="Path 1022042" d="M1514.458,176.111v-2.173a.862.862,0,1,1,1.724,0v2.173a.862.862,0,1,1-1.724,0" transform="translate(-1421.489 -162.45)"/>
          <path id="Path_1022043" data-name="Path 1022043" d="M1526.822,452.064V449.89a.862.862,0,0,1,1.725,0v2.174a.862.862,0,0,1-1.725,0" transform="translate(-1433.094 -421.463)"/>
          <path id="Path_1022044" data-name="Path 1022044" d="M842.709,1401.048l12.953-30.974,8.9,1.086,12.113-2.882,9.293-.07,2.975,1.071,6.348-1.684,9.6,2.248,7.357,2.537,6.909-.3,2.632-.53,12.156,29.1-8.816,6.266,1.221,3.661-.926,3.912-2.869,2.552-3.717-1.147-.772,3.54-2.122,3.44-3.271,1.393-3.188-1-1.637,3.3-2.684,3.091-4.2.3-2.075-1.326-1.037,2.121-2.786,2.745-5.883-1.369-3.116-2.53-1.684,2.324-3.89,2.143-2.66-.059-2.728-4.655-1.879.586-4.553-.635-2.072-3.072.133-3.479-4.765,2.5-2.705-1.48-2.04-7.153-3.434.934-2.784-1.339-.235-4.3,1.57-3.24Z" transform="translate(-790.977 -1283.641)" fill="#f6af91"/>
          <path id="Path_1022045" data-name="Path 1022045" d="M8.591,897.349l27.92,11.5,27.92,11.5L46.2,964.987,8.54,951.45Z" transform="translate(-8.016 -842.263)" fill="#4e80b6"/>
          <path id="Path_1022046" data-name="Path 1022046" d="M2211.608,948.894l-.306.339-.305.34L2229,992.331,2262.7,978.78q-.2-25.542-.4-51.084Z" transform="translate(-2075.27 -870.747)" fill="#8d7bb7"/>
          <path id="Path_1022047" data-name="Path 1022047" d="M655.821,1345.539,671.85,1307.9l9.176,3.879-16.06,37.116Z" transform="translate(-615.562 -1227.615)" fill="#fff"/>
          <path id="Path_1022048" data-name="Path 1022048" d="M2106.327,1327.92l-.2.448,7.739-3.558,15.4,36.793-7.509,3Z" transform="translate(-1976.837 -1243.483)" fill="#fff"/>
          <path id="Path_1022049" data-name="Path 1022049" d="M1.2,885.148l55.81,23.171a.843.843,0,0,1,.456,1.1L39.132,953.93a.842.842,0,0,1-1.071.47L.551,940.546a.843.843,0,0,1,.584-1.581l37.509,13.854-1.071.47L55.9,908.776l.456,1.1L.55,886.7a.843.843,0,1,1,.647-1.556" transform="translate(0 -830.75)"/>
          <path id="Path_1022050" data-name="Path 1022050" d="M668.487,1295.37l8.988,3.605a.843.843,0,0,1,.461,1.114l-16.022,37.451a.843.843,0,0,1-1.082.453l-8.458-3.315a.843.843,0,0,1,.615-1.569l8.457,3.315-1.082.453,16.022-37.451.461,1.114-8.989-3.605a.843.843,0,0,1,.628-1.564" transform="translate(-611.824 -1215.793)"/>
          <path id="Path_1022051" data-name="Path 1022051" d="M1040.131,1353.632a33.656,33.656,0,0,0,5.793.59,28.158,28.158,0,0,0,4.24-.337c2.107-.318,4.591-.892,7.091-1.469,2.424-.56,4.865-1.124,6.908-1.433.3-.046.6-.086.887-.12a19.185,19.185,0,0,1,2.266-.143,13,13,0,0,1,6.085,1.493.843.843,0,1,1-.705,1.531,11.35,11.35,0,0,0-5.38-1.339,17.55,17.55,0,0,0-2.067.131q-.4.048-.834.113c-1.965.3-4.337.844-6.781,1.409-2.481.573-5.034,1.163-7.218,1.493a29.851,29.851,0,0,1-4.492.356,35.283,35.283,0,0,1-6.066-.613.843.843,0,1,1,.273-1.663" transform="translate(-975.36 -1267.802)"/>
          <path id="Path_1022052" data-name="Path 1022052" d="M1207.036,1367.005l8.321-11.158a.842.842,0,0,1,.35-.274c6.076-2.545,12.195-5.107,16.2-6.494a17.671,17.671,0,0,1,5.8-1.259,12.632,12.632,0,0,1,3.724.625c1.24.374,2.665.917,4.133,1.477,1.669.636,3.41,1.3,5.1,1.809.743.224,1.47.417,2.17.563a19.349,19.349,0,0,0,3.994.406,38.894,38.894,0,0,0,6.034-.609.843.843,0,0,1,.257,1.666,40.487,40.487,0,0,1-6.292.629,21.023,21.023,0,0,1-4.339-.441c-.759-.159-1.535-.365-2.312-.6-1.757-.53-3.555-1.215-5.214-1.847-1.485-.566-2.849-1.085-4.02-1.438a10.965,10.965,0,0,0-3.238-.553,16.086,16.086,0,0,0-5.245,1.166c-3.944,1.364-10,3.9-16.1,6.455l.35-.273-8.321,11.158a.843.843,0,1,1-1.351-1.008" transform="translate(-1132.782 -1265.081)"/>
          <path id="Path_1022053" data-name="Path 1022053" d="M1197.475,1588.542c-1.688,2.087-2.139,2.931-1.36,3.582.953.8,3.595,1.527,6.132,1.527a9.652,9.652,0,0,0,2.137-.215c2.009-.464,3.18-1.738,4.512-3.219.362-.4.74-.822,1.14-1.222a31.843,31.843,0,0,1,6.275-4.509.843.843,0,0,1,.535-.115l5.447.655a.843.843,0,1,1-.2,1.673l-5.447-.655.535-.115a30.333,30.333,0,0,0-5.953,4.257c-.364.364-.712.75-1.079,1.158-1.3,1.45-2.8,3.135-5.385,3.733a11.325,11.325,0,0,1-2.517.259c-2.673,0-5.8-.742-7.212-1.918-2.331-1.946.018-4.562,1.13-5.936a.843.843,0,0,1,1.31,1.06" transform="translate(-1120.741 -1487.104)"/>
          <path id="Path_1022054" data-name="Path 1022054" d="M1641.929,1596.78l31.8,24.965a.847.847,0,0,1,.109.1,6.937,6.937,0,0,1,1.79,2.955,6.689,6.689,0,0,1-.715,4.874,4.791,4.791,0,0,1-4.37,2.744,8.442,8.442,0,0,1-3.073-.664c-4-1.576-10.165-6.355-16.154-10.987a.843.843,0,0,1,1.031-1.333c6.1,4.718,12.026,9.288,15.741,10.752a6.781,6.781,0,0,0,2.455.547,3.118,3.118,0,0,0,2.892-1.868,5.011,5.011,0,0,0,.562-3.642,5.33,5.33,0,0,0-1.418-2.257l.109.1-31.8-24.965a.843.843,0,1,1,1.041-1.326" transform="translate(-1539.855 -1498.589)"/>
          <path id="Path_1022055" data-name="Path 1022055" d="M1868.341,1764.727l8.251-.159a.843.843,0,0,1,.032,1.685l-8.251.159a.843.843,0,1,1-.032-1.685" transform="translate(-1752.872 -1656.246)"/>
          <path id="Path_1022056" data-name="Path 1022056" d="M2163.968,1906.6l9.166-6.169a.843.843,0,0,1,.941,1.4l-9.166,6.169a.843.843,0,0,1-.941-1.4" transform="translate(-2030.778 -1783.629)"/>
          <path id="Path_1022057" data-name="Path 1022057" d="M1697.224,2092.7h0l.054.046c5.026,4.265,9.91,8.4,13.1,10.012a6.629,6.629,0,0,0,2.976.857,5.629,5.629,0,0,0,2.811-.94l-.074.046.01-.007h0a3.933,3.933,0,0,0,1.763-1.909,16.425,16.425,0,0,0,.489-4.515.843.843,0,1,1,1.685.048,17.63,17.63,0,0,1-.593,5.052,5.552,5.552,0,0,1-2.389,2.712h0l-.01.007c-.024.017-.049.032-.074.046a7.239,7.239,0,0,1-3.617,1.145,8.277,8.277,0,0,1-3.737-1.039c-3.415-1.729-8.487-6.037-13.43-10.23l-.054-.046a.843.843,0,0,1,1.091-1.285" transform="translate(-1591.733 -1964.05)"/>
          <path id="Path_1022058" data-name="Path 1022058" d="M1590.959,2206.278c3.25,3.417,6.382,6.7,9.212,8.406a8.668,8.668,0,0,0,4.347,1.417,3.674,3.674,0,0,0,2.056-.553c1.352-.9,1.953-2.9,2.647-5.4a.843.843,0,0,1,1.624.45c-.629,2.27-1.35,5.039-3.341,6.357a5.346,5.346,0,0,1-2.987.834,10.323,10.323,0,0,1-5.217-1.658c-3.07-1.851-6.375-5.335-9.564-8.687a.843.843,0,0,1,1.221-1.162" transform="translate(-1491.93 -2070.594)"/>
          <path id="Path_1022059" data-name="Path 1022059" d="M1539.859,2352.15a15.516,15.516,0,0,0,4.255,3.082,6.941,6.941,0,0,0,2.61.552,3.745,3.745,0,0,0,1.835-.419c1.126-.634,1.818-2.093,2.651-3.95a.843.843,0,1,1,1.538.689c-.754,1.683-1.65,3.765-3.362,4.729a5.412,5.412,0,0,1-2.661.636,8.618,8.618,0,0,1-3.258-.682,17.062,17.062,0,0,1-4.738-3.388.843.843,0,1,1,1.132-1.249" transform="translate(-1444.008 -2206.6)"/>
          <path id="Path_1022060" data-name="Path 1022060" d="M824.547,1900.537l9.789,7a.843.843,0,0,1-.981,1.371l-9.789-7a.843.843,0,1,1,.981-1.371" transform="translate(-772.679 -1783.72)"/>
          <path id="Path_1022061" data-name="Path 1022061" d="M962.978,1969.938c-.017,0-.306.058-.417.091h0a6.1,6.1,0,0,0-1.52.76,11.019,11.019,0,0,0-2.969,2.772c-1.247,1.747-1.1,5.362.246,6.322a1.37,1.37,0,0,0,.389.195,3.777,3.777,0,0,0,1.14.169c3.221,0,7.133-3.588,7.68-6.806.177-1.04-1.189-2.44-2.815-3.13a9.644,9.644,0,0,0-1.962-.362l.075,0Zm-.3-1.658a.86.86,0,0,1,.152-.014l.075,0a10.749,10.749,0,0,1,2.47.489c1.586.673,4.226,2.564,3.819,4.964-.669,3.94-5.211,8.209-9.341,8.209a5.457,5.457,0,0,1-1.647-.246,3.053,3.053,0,0,1-.862-.431c-2.422-1.728-2.167-6.532-.639-8.673a12.685,12.685,0,0,1,3.422-3.206,7.722,7.722,0,0,1,1.95-.96c.222-.067.618-.139.6-.135" transform="translate(-896.878 -1847.44)"/>
          <path id="Path_1022062" data-name="Path 1022062" d="M1063.76,2007.668c.521,2.871.993,5.25,2.14,6.324a2.348,2.348,0,0,0,1.659.633,5.57,5.57,0,0,0,3.388-1.5c2.337-1.926,4.873-5.728,7.518-9.709l-.02.032c.639-1.064.937-1.651.483-2.461a5.621,5.621,0,0,0-4.143-2.49l-.137,0c-1.718,0-3.543,1.172-5.674,2.582a.843.843,0,1,1-.93-1.406c1.982-1.312,4.271-2.862,6.6-2.862.067,0,.134,0,.2,0a7.279,7.279,0,0,1,5.549,3.35c.985,1.758.067,3.195-.509,4.153l-.021.032c-2.582,3.886-5.272,7.952-7.85,10.077a7.208,7.208,0,0,1-4.459,1.885,4.034,4.034,0,0,1-2.811-1.088c-1.652-1.548-2.173-4.646-2.646-7.253a.843.843,0,0,1,1.658-.3" transform="translate(-996.889 -1874.231)"/>
          <path id="Path_1022063" data-name="Path 1022063" d="M1217.18,2099.7c-.487,1.9-.82,3.368-.343,4.422a5.041,5.041,0,0,0,3.467,2.267,4.876,4.876,0,0,0,1.1.141c1,0,2.19-.409,3.836-2.2,2.289-2.488,5.088-7.215,5.327-9.847.2-2.179-1.508-2.935-3.078-3.319a6.112,6.112,0,0,0-1.448-.208,3.808,3.808,0,0,0-1.1.174c-.688.188-1.388.408-2.106.635a.843.843,0,1,1-.507-1.607c.712-.225,1.444-.456,2.169-.654a5.459,5.459,0,0,1,1.54-.234,7.779,7.779,0,0,1,1.848.256c1.55.379,4.687,1.468,4.356,5.109-.29,3.188-3.393,8.256-5.765,10.836-1.848,2.009-3.456,2.743-5.077,2.743a6.543,6.543,0,0,1-1.485-.185c-1.809-.419-3.836-1.478-4.622-3.214-.773-1.708-.187-3.842.246-5.534a.843.843,0,1,1,1.633.417" transform="translate(-1140.343 -1961.012)"/>
          <path id="Path_1022064" data-name="Path 1022064" d="M1356.9,2237.082c1.409,2.428,2.453,4.034,3.932,4.034q.107,0,.222-.011c1.857-.191,4.829-2.7,5.944-5.213a4.615,4.615,0,0,0-.68-5.3,2.41,2.41,0,0,0-1.621-.5,12.44,12.44,0,0,0-2.543.391.862.862,0,0,1-.371-1.684,13.943,13.943,0,0,1,2.914-.431,4.12,4.12,0,0,1,2.721.9c1.641,1.36,2.479,4.347,1.156,7.328-1.264,2.85-4.659,5.953-7.344,6.229a3.859,3.859,0,0,1-.4.021c-2.694,0-4.242-2.857-5.423-4.893a.862.862,0,1,1,1.492-.866" transform="translate(-1272.099 -2091.574)"/>
          <path id="Path_1022065" data-name="Path 1022065" d="M2101.123,1309.229l-7.759,2.939.492-1.135,15.452,37.549-1.126-.469,7.269-3a.862.862,0,1,1,.657,1.595l-7.268,3a.862.862,0,0,1-1.126-.469l-15.452-37.549a.863.863,0,0,1,.492-1.134l7.759-2.939a.862.862,0,0,1,.611,1.613" transform="translate(-1963.761 -1227.292)"/>
          <path id="Path_1022066" data-name="Path 1022066" d="M2252.655,914.435,2201.8,936l.46-1.124,17.962,43.289-1.119-.469,33.223-13.405a.862.862,0,1,1,.645,1.6l-33.223,13.405a.863.863,0,0,1-1.119-.469l-17.962-43.289a.863.863,0,0,1,.46-1.124l50.85-21.562a.862.862,0,0,1,.673,1.588" transform="translate(-2065.515 -856.745)"/>
          <path id="Path_1022067" data-name="Path 1022067" d="M464.11,1724.461a4.507,4.507,0,1,1-4.507-4.507,4.507,4.507,0,0,1,4.507,4.507m-1.725,0a2.783,2.783,0,1,0-2.783,2.783,2.782,2.782,0,0,0,2.783-2.783" transform="translate(-427.158 -1614.37)"/>
          <path id="Path_1022068" data-name="Path 1022068" d="M2545.027,1738.371a4.507,4.507,0,1,1-4.507-4.507,4.507,4.507,0,0,1,4.507,4.507m-1.724,0a2.783,2.783,0,1,0-2.783,2.783,2.783,2.783,0,0,0,2.783-2.783" transform="translate(-2380.333 -1627.426)"/>
        </g>
      </g>
    </g>
  </g>
</svg>
