<svg xmlns="http://www.w3.org/2000/svg" xmlns:xlink="http://www.w3.org/1999/xlink" width="84" height="84" viewBox="0 0 84 84">
  <defs>
    <clipPath id="clip-path">
      <rect id="Rectangle_458712" data-name="Rectangle 458712" width="56.257" height="67" fill="none"/>
    </clipPath>
  </defs>
  <g id="img42" transform="translate(-216 -11789)">
    <rect id="Rectangle_456558" data-name="Rectangle 456558" width="84" height="84" rx="10" transform="translate(216 11789)" fill="#ff9e74"/>
    <g id="Group_1183532" data-name="Group 1183532" transform="translate(229.871 11797.5)">
      <g id="Group_1183531" data-name="Group 1183531" transform="translate(0 0)" clip-path="url(#clip-path)">
        <path id="Path_1029339" data-name="Path 1029339" d="M18.972,11.395h17a2.008,2.008,0,0,0,2.008-2.007V6.2a2.008,2.008,0,0,0-2.008-2.007H32.815a5.5,5.5,0,0,0-10.688,0H18.972A2.008,2.008,0,0,0,16.965,6.2V9.387a2.007,2.007,0,0,0,2.007,2.007m8.5-8.144a2.27,2.27,0,1,1-2.27,2.27,2.271,2.271,0,0,1,2.27-2.27" transform="translate(-6.518 0)" fill="#203a72"/>
        <path id="Path_1029340" data-name="Path 1029340" d="M41.906,44.67V16.523a5.009,5.009,0,0,0-5-5h-2.5v2.288a4.954,4.954,0,0,1-4.956,4.955h-17A4.963,4.963,0,0,1,7.5,13.813V11.525H5a5.009,5.009,0,0,0-5,5V55.915a5.009,5.009,0,0,0,5,5H29.4a12.991,12.991,0,0,1-.084-1.474A14.979,14.979,0,0,1,41.906,44.67M19.963,27.824H33.426a1.474,1.474,0,0,1,0,2.948H19.963a1.474,1.474,0,1,1,0-2.948m0,10.88H33.426a1.474,1.474,0,0,1,0,2.948H19.963a1.474,1.474,0,1,1,0-2.948m-3.8,9.532-4.311,4.8a1.495,1.495,0,0,1-2.19,0L7.385,50.5a1.476,1.476,0,1,1,2.19-1.98l1.179,1.32,3.215-3.58a1.476,1.476,0,0,1,2.19,1.98m0-10.88-4.311,4.8a1.467,1.467,0,0,1-2.19,0L7.385,39.616a1.472,1.472,0,0,1,2.19-1.966l1.179,1.32,3.215-3.58a1.472,1.472,0,1,1,2.19,1.966m0-10.88-4.311,4.8a1.465,1.465,0,0,1-2.19,0L7.385,28.736a1.472,1.472,0,0,1,2.19-1.966l1.179,1.32,3.215-3.58a1.471,1.471,0,0,1,2.19,1.965m8.872,26.056H19.963a1.474,1.474,0,1,1,0-2.948h5.068a1.474,1.474,0,0,1,0,2.948" transform="translate(0 -4.428)" fill="#203a72"/>
        <path id="Path_1029341" data-name="Path 1029341" d="M64.395,69.843a12,12,0,1,0,11.994,12,12.009,12.009,0,0,0-11.994-12m4.916,13.469H64.395a1.474,1.474,0,0,1-1.474-1.474V75.257a1.474,1.474,0,0,1,2.948,0v5.107h3.443a1.474,1.474,0,0,1,0,2.948" transform="translate(-20.132 -26.834)" fill="#14a0de"/>
      </g>
    </g>
  </g>
</svg>
