<svg xmlns="http://www.w3.org/2000/svg" xmlns:xlink="http://www.w3.org/1999/xlink" width="90" height="90" viewBox="0 0 90 90">
  <defs>
    <clipPath id="clip-path">
      <rect id="Rectangle_458716" data-name="Rectangle 458716" width="45.518" height="55.795" transform="translate(0 0)" fill="none"/>
    </clipPath>
  </defs>
  <g id="img47" transform="translate(-338.711 -12699)">
    <circle id="Ellipse_13756" data-name="Ellipse 13756" cx="45" cy="45" r="45" transform="translate(338.711 12699)" fill="#fff"/>
    <g id="Group_1183542" data-name="Group 1183542" transform="translate(360.952 12716.103)">
      <g id="Group_1183541" data-name="Group 1183541" transform="translate(0 0)" clip-path="url(#clip-path)">
        <path id="Path_1029347" data-name="Path 1029347" d="M9.795,18.863a6.226,6.226,0,0,0,5.235,2.943c.479.005,1.012,0,1.572-.011-2.133,2.524-4.1,5.868-4.1,8.782,0,6.549,5.034,9.636,11.242,9.636s11.242-3.087,11.242-9.636c0-3.74-2.87-7.788-5.8-10.575a2.543,2.543,0,0,0,.494-1.471,2.621,2.621,0,0,0-.521-1.6,2.662,2.662,0,0,0,.56-3.657,2.662,2.662,0,0,0,0-4.317A2.656,2.656,0,0,0,30.08,6.6a2.686,2.686,0,0,0-1.694-1.693c.771-.791,2.059-2.261,2.07-3.266C30.468.426,20.3-.992,20.765.976a5.821,5.821,0,0,0,.829,1.856l-3.061-.4a6.762,6.762,0,0,0-5.355,1.637L9.542,7.28H7.476V6.806a1.3,1.3,0,0,0-1.3-1.3H1.3A1.3,1.3,0,0,0,0,6.806V18.949a1.3,1.3,0,0,0,1.3,1.3h4.87a1.3,1.3,0,0,0,1.3-1.3v-.472H9.552ZM3.738,18A1.265,1.265,0,1,1,5,16.74,1.265,1.265,0,0,1,3.738,18M24.8,35.022v1.12a.32.32,0,0,1-.321.319H23a.32.32,0,0,1-.32-.319V35.056a3.238,3.238,0,0,1-2.6-2.832.318.318,0,0,1,.322-.341h1.5a.311.311,0,0,1,.307.237A1.112,1.112,0,0,0,23.3,33h.885a1.111,1.111,0,0,0,0-2.221h-.739a3.331,3.331,0,0,1-3.36-2.909,3.229,3.229,0,0,1,2.6-3.487V23.284a.32.32,0,0,1,.32-.319h1.48a.32.32,0,0,1,.321.319v1.087A3.239,3.239,0,0,1,27.4,27.2a.318.318,0,0,1-.322.339h-1.5a.312.312,0,0,1-.306-.235,1.11,1.11,0,0,0-1.085-.874H23.3a1.11,1.11,0,1,0,0,2.22h.885A3.235,3.235,0,0,1,27.4,32.208a3.273,3.273,0,0,1-2.6,2.814M26.99,19.516H24.122a1,1,0,1,1,0-2.009H26.99a1,1,0,1,1,0,2.009m.529-3.7H23.6a1,1,0,1,1,0-2.008h3.918a1,1,0,1,1,0,2.008m-2.112-9.4h2.112a1,1,0,0,1,0,2.009H25.39l.036-1.718c0-.1-.015-.194-.019-.291m-.07,4.643.019-.947h2.776a1,1,0,0,1,0,2.009H25.085a2.636,2.636,0,0,0,.252-1.062m-17.86-2.1H9.861a.847.847,0,0,0,.559-.211L14.3,5.332A5.077,5.077,0,0,1,18.314,4.1l3.626.475a2.092,2.092,0,0,1,1.8,2.1l-.09,4.352a.989.989,0,0,1-.984.963.977.977,0,0,1-.71-.3,1.034,1.034,0,0,1-.272-.722l.126-2.989a.849.849,0,0,0-.716-.869l-1.9-.289a.844.844,0,1,0-.253,1.669l.954.145a4.567,4.567,0,0,1-4.43,2.74.854.854,0,0,0-.927.752v.092a.846.846,0,0,0,.759.835,6.18,6.18,0,0,0,4.722-1.722,2.614,2.614,0,0,0,.72,1.526,2.671,2.671,0,0,0,.625.468,2.71,2.71,0,0,0-.454,1.491,2.622,2.622,0,0,0,.394,1.361,6.034,6.034,0,0,1-1.988,2.9c-.344.281-.707.6-1.08.964-1.172.072-2.271.088-3.188.078a4.546,4.546,0,0,1-3.822-2.152l-.49-.782a.846.846,0,0,0-.716-.4H7.476Z" transform="translate(0 0)" fill="#203a72"/>
        <path id="Path_1029348" data-name="Path 1029348" d="M53.672,79.424H48.8a1.3,1.3,0,0,0-1.3,1.3v.524l-.409-.114a6.866,6.866,0,0,0-4.59.326l-7.386,3.243-3.934-1.065a2.684,2.684,0,0,0-2.52.621L23.8,81.068A3.13,3.13,0,0,0,20.09,86.1l11,9.043a5.967,5.967,0,0,0,6.007.933l7.62-3.045a8.877,8.877,0,0,1,2.305-.578L47.5,92.4v.474a1.3,1.3,0,0,0,1.3,1.3h4.87a1.3,1.3,0,0,0,1.3-1.3V80.727a1.3,1.3,0,0,0-1.3-1.3M46.83,90.778a10.575,10.575,0,0,0-2.743.689l-7.62,3.045a4.282,4.282,0,0,1-4.309-.67l-11-9.043a1.443,1.443,0,0,1,.591-2.521,1.461,1.461,0,0,1,.33-.038,1.428,1.428,0,0,1,.788.238l4.981,3.271a2.691,2.691,0,0,0,1.749,3l4.812,1.681a3.54,3.54,0,0,0,2.3.009l4.45-1.516a.844.844,0,0,0-.544-1.6l-4.45,1.516a1.846,1.846,0,0,1-1.2,0l-4.811-1.681a.992.992,0,0,1-.63-1.178.987.987,0,0,1,1.213-.706l4.221,1.142a.843.843,0,0,0,.56-.041l7.658-3.362a5.178,5.178,0,0,1,3.459-.246L47.5,83v7.7Zm4.4,1.153A1.265,1.265,0,1,1,52.5,90.665a1.26,1.26,0,0,1-1.265,1.265" transform="translate(-9.709 -40.709)" fill="#203a72"/>
        <path id="Path_1029349" data-name="Path 1029349" d="M80.743,22.976,76.49,27.229a1.574,1.574,0,0,1-2.172,0l-4.271-4.253a1.561,1.561,0,0,1,0-2.19,1.579,1.579,0,0,1,1.086-.453,1.549,1.549,0,0,1,1.086.453l1.647,1.647V9.453a1.538,1.538,0,1,1,3.077,0V22.433l1.629-1.647a1.539,1.539,0,0,1,2.172,0,1.562,1.562,0,0,1,0,2.19" transform="translate(-35.674 -4.057)" fill="#14a0de"/>
      </g>
    </g>
  </g>
</svg>
