<svg xmlns="http://www.w3.org/2000/svg" xmlns:xlink="http://www.w3.org/1999/xlink" width="90" height="90" viewBox="0 0 90 90">
  <defs>
    <clipPath id="clip-path">
      <rect id="Rectangle_458718" data-name="Rectangle 458718" width="66.709" height="50.586" transform="translate(0 0)" fill="none"/>
    </clipPath>
  </defs>
  <g id="img53" transform="translate(-338.711 -12699)">
    <circle id="Ellipse_13756" data-name="Ellipse 13756" cx="45" cy="45" r="45" transform="translate(338.711 12699)" fill="#fff"/>
    <g id="Group_1183549" data-name="Group 1183549" transform="translate(350.356 12718.707)">
      <g id="Group_1183548" data-name="Group 1183548" transform="translate(0 0)" clip-path="url(#clip-path)">
        <path id="Path_1029357" data-name="Path 1029357" d="M110.6,29.833a16.781,16.781,0,0,0-11.533-9.762,25.879,25.879,0,0,1,2.86,9.762Z" transform="translate(-54.426 -11.027)" fill="#203a72"/>
        <path id="Path_1029358" data-name="Path 1029358" d="M56.259,29.834H64.93a25.878,25.878,0,0,1,2.86-9.761,16.776,16.776,0,0,0-11.531,9.761" transform="translate(-30.908 -11.028)" fill="#203a72"/>
        <path id="Path_1029359" data-name="Path 1029359" d="M85.061,19.022c-1.519,0-3.558,3.842-4.428,10.235h8.855c-.87-6.392-2.909-10.235-4.427-10.235" transform="translate(-44.299 -10.451)" fill="#203a72"/>
        <path id="Path_1029360" data-name="Path 1029360" d="M61.164,55.226h3.643c-.1-1.391-.157-2.8-.157-4.21s.059-2.82.157-4.192H56.463L60.5,53.581a5.375,5.375,0,0,1,.666,1.645" transform="translate(-31.02 -25.725)" fill="#203a72"/>
        <path id="Path_1029361" data-name="Path 1029361" d="M89.394,51.011c0-1.484-.067-2.88-.178-4.2H79.865c-.11,1.32-.177,2.716-.177,4.2s.066,2.881.177,4.2h9.352c.11-1.32.178-2.716.178-4.2" transform="translate(-43.78 -25.718)" fill="#203a72"/>
        <path id="Path_1029362" data-name="Path 1029362" d="M113.888,51.715a12.705,12.705,0,0,1,1.756.119,5.532,5.532,0,0,0,.041-.818,16.363,16.363,0,0,0-.559-4.211h-9.18c.1,1.377.16,2.795.16,4.211,0,1.1-.04,2.216-.1,3.293a13.057,13.057,0,0,1,7.882-2.595" transform="translate(-58.206 -25.714)" fill="#203a72"/>
        <path id="Path_1029363" data-name="Path 1029363" d="M70.719,80.286a25.7,25.7,0,0,1-2.86-9.774H64.1a6.057,6.057,0,0,1-.725,2.037,5.718,5.718,0,0,1-1.783,1.958,16.667,16.667,0,0,0,9.127,5.778" transform="translate(-33.838 -38.739)" fill="#203a72"/>
        <path id="Path_1029364" data-name="Path 1029364" d="M80.613,70.542c.879,6.386,2.914,10.238,4.43,10.238.479,0,1.038-.4,1.577-1.138a12.194,12.194,0,0,1-.08-1.477,13.247,13.247,0,0,1,2.395-7.624Z" transform="translate(-44.288 -38.755)" fill="#203a72"/>
        <path id="Path_1029365" data-name="Path 1029365" d="M48.96,9.564a22.25,22.25,0,0,1,30.514-.843L78.28,9.937a1.179,1.179,0,0,0,.627,2.016l5.719,1.039a.888.888,0,0,0,.215.019,1.141,1.141,0,0,0,.842-.352,1.124,1.124,0,0,0,.333-1.058l-1.038-5.72a1.187,1.187,0,0,0-2.017-.645L81.668,6.548a25.335,25.335,0,0,0-34.881.842,24.066,24.066,0,0,0-3.231,4l1.782,2.977a21.907,21.907,0,0,1,3.623-4.8" transform="translate(-23.929 0)" fill="#203a72"/>
        <path id="Path_1029366" data-name="Path 1029366" d="M68.388,92.947A22.176,22.176,0,0,1,49.63,87.638l1.217-1.2a1.2,1.2,0,0,0-.639-2.036l-5.727-1.038a1.214,1.214,0,0,0-1.4,1.4l1.037,5.727a1.228,1.228,0,0,0,.818.938,2.156,2.156,0,0,0,.359.039,1.264,1.264,0,0,0,.859-.338l1.3-1.318a25.156,25.156,0,0,0,16.963,6.566A25.69,25.69,0,0,0,70.8,95.56a13.049,13.049,0,0,1-2.415-2.614" transform="translate(-23.662 -45.793)" fill="#203a72"/>
        <path id="Path_1029367" data-name="Path 1029367" d="M139.127,51.622a11.628,11.628,0,0,1,2.734,2.3,25.3,25.3,0,0,0,.08-9.8,1.544,1.544,0,1,0-3.033.579,22.471,22.471,0,0,1,.219,6.924" transform="translate(-76.3 -23.547)" fill="#203a72"/>
        <path id="Path_1029368" data-name="Path 1029368" d="M110.105,62.993a11.036,11.036,0,1,0,11.026,11.026,11.029,11.029,0,0,0-11.026-11.026m-.548,9.89h1.058a3.7,3.7,0,0,1,.627,7.344v1.489a.294.294,0,0,1-.314.294h-1.665a.294.294,0,0,1-.314-.294V80.248a3.685,3.685,0,0,1-3.074-3.33.3.3,0,0,1,.313-.314h1.665a.285.285,0,0,1,.313.235,1.413,1.413,0,0,0,1.391,1.2h.979a1.48,1.48,0,0,0,1.488-1.2,1.42,1.42,0,0,0-1.41-1.664h-.881a3.812,3.812,0,0,1-3.858-3.35,3.691,3.691,0,0,1,3.074-4.015V66.342a.294.294,0,0,1,.314-.294h1.665a.294.294,0,0,1,.314.294v1.469a3.686,3.686,0,0,1,3.075,3.329.3.3,0,0,1-.314.314h-1.684a.276.276,0,0,1-.274-.215,1.468,1.468,0,0,0-1.429-1.215h-.96a1.48,1.48,0,0,0-1.488,1.195,1.409,1.409,0,0,0,1.391,1.665" transform="translate(-54.422 -34.608)" fill="#14a0de"/>
        <path id="Path_1029369" data-name="Path 1029369" d="M27.278,44.649a3.28,3.28,0,0,0-.039-3.336L16.7,23.683a3.314,3.314,0,0,0-5.691,0L.475,41.313A3.315,3.315,0,0,0,3.32,46.329H24.394a3.28,3.28,0,0,0,2.884-1.679M12.221,29.057a1.637,1.637,0,1,1,3.273,0v6.8a1.637,1.637,0,0,1-3.274,0Zm1.637,14.105a2,2,0,1,1,2-2,2,2,0,0,1-2,2" transform="translate(0 -12.124)" fill="#14a0de"/>
      </g>
    </g>
  </g>
</svg>
