<svg xmlns="http://www.w3.org/2000/svg" xmlns:xlink="http://www.w3.org/1999/xlink" width="149.909" height="150" viewBox="0 0 149.909 150">
  <defs>
    <clipPath id="clip-path">
      <rect id="Rectangle_458720" data-name="Rectangle 458720" width="86.055" height="70.918" fill="none"/>
    </clipPath>
  </defs>
  <g id="img59" transform="translate(-705.985 -1710.002)">
    <g id="Group_1180300" data-name="Group 1180300" transform="translate(705.936 1710.002)">
      <g id="Grupo_155253" data-name="Grupo 155253" transform="matrix(0.999, 0.035, -0.035, 0.999, 5.062, 0)">
        <path id="Trazado_196478" data-name="Trazado 196478" d="M20.377,22.814q-.452.483-.9.974A75.7,75.7,0,0,0,.051,77.428l30.182-1.084c-.818-24.1,17.45-44.315,40.8-45.157S113.985,49.2,114.8,73.3l30.182-1.084c-1.018-30-19.313-56.469-46.471-67.234A70.928,70.928,0,0,0,20.377,22.822" transform="translate(0 0)" fill="#ff9e74"/>
        <path id="Trazado_196479" data-name="Trazado 196479" d="M0,5.22c1.4,41.3,34.98,73.608,75,72.167S146.334,41.3,144.933,0L114.751,1.084c.818,24.1-17.451,44.315-40.8,45.156S31,28.229,30.182,4.132Z" transform="translate(0.049 67.595)" fill="#70f5c8"/>
      </g>
      <ellipse id="Ellipse_13685" data-name="Ellipse 13685" cx="58.366" cy="58.462" rx="58.366" ry="58.462" transform="translate(16.722 16.827)" fill="#fff"/>
    </g>
    <g id="Group_1183553" data-name="Group 1183553" transform="translate(737.909 1749.543)">
      <g id="Group_1183552" data-name="Group 1183552" clip-path="url(#clip-path)">
        <path id="Path_1029379" data-name="Path 1029379" d="M44.831,94.725v3.722c0,1.8,5.186,4.413,13.313,4.413s13.314-2.614,13.314-4.413V94.725c-3.173,1.963-8.341,2.99-13.314,2.99S48,96.688,44.831,94.725" transform="translate(-15.117 -31.942)" fill="#14a0de"/>
        <path id="Path_1029380" data-name="Path 1029380" d="M44.831,82.306v3.722c0,1.8,5.186,4.413,13.313,4.413s13.314-2.614,13.314-4.413V82.306c-3.173,1.963-8.341,2.99-13.314,2.99S48,84.269,44.831,82.306" transform="translate(-15.117 -27.754)" fill="#14a0de"/>
        <path id="Path_1029381" data-name="Path 1029381" d="M44.831,57.469v3.722c0,1.8,5.186,4.413,13.313,4.413s13.314-2.614,13.314-4.413V57.469c-3.173,1.963-8.341,2.991-13.314,2.991S48,59.432,44.831,57.469" transform="translate(-15.117 -19.379)" fill="#14a0de"/>
        <path id="Path_1029382" data-name="Path 1029382" d="M58.145,44.007c-8.127,0-13.313,2.615-13.313,4.413s5.186,4.413,13.313,4.413,13.313-2.614,13.313-4.413-5.186-4.413-13.313-4.413" transform="translate(-15.118 -14.839)" fill="#14a0de"/>
        <path id="Path_1029383" data-name="Path 1029383" d="M44.831,69.887v3.722c0,1.8,5.186,4.413,13.313,4.413s13.314-2.614,13.314-4.413V69.887c-3.173,1.963-8.341,2.991-13.314,2.991S48,71.85,44.831,69.887" transform="translate(-15.117 -23.566)" fill="#14a0de"/>
        <path id="Path_1029384" data-name="Path 1029384" d="M0,94.725v3.722c0,1.8,5.186,4.413,13.313,4.413s13.314-2.614,13.314-4.413V94.725c-3.173,1.961-8.341,2.99-13.314,2.99S3.173,96.688,0,94.725" transform="translate(0 -31.942)" fill="#203a72"/>
        <path id="Path_1029385" data-name="Path 1029385" d="M13.313,68.844C5.186,68.844,0,71.458,0,73.257S5.186,77.67,13.313,77.67s13.314-2.614,13.314-4.413-5.186-4.413-13.314-4.413" transform="translate(0 -23.215)" fill="#203a72"/>
        <path id="Path_1029386" data-name="Path 1029386" d="M0,82.306v3.722c0,1.8,5.186,4.413,13.313,4.413s13.314-2.614,13.314-4.413V82.306c-3.173,1.961-8.341,2.99-13.314,2.99S3.173,84.269,0,82.306" transform="translate(0 -27.754)" fill="#203a72"/>
        <path id="Path_1029387" data-name="Path 1029387" d="M9.418,35.952H13.2V48.9A1.507,1.507,0,0,0,14.708,50.4h2.639A1.507,1.507,0,0,0,18.855,48.9V35.952h3.783A1.366,1.366,0,0,0,23.71,33.74L17.1,25.358a1.365,1.365,0,0,0-2.145,0L8.345,33.74a1.366,1.366,0,0,0,1.072,2.212" transform="translate(-2.714 -8.375)" fill="#203a72"/>
        <path id="Path_1029388" data-name="Path 1029388" d="M54.249,11.115h3.783V24.059a1.507,1.507,0,0,0,1.507,1.507h2.639a1.507,1.507,0,0,0,1.507-1.507V11.115h3.783A1.366,1.366,0,0,0,68.541,8.9L61.932.521a1.366,1.366,0,0,0-2.146,0L53.176,8.9a1.366,1.366,0,0,0,1.072,2.212" transform="translate(-17.831)" fill="#14a0de"/>
        <path id="Path_1029389" data-name="Path 1029389" d="M89.661,69.887v3.722c0,1.8,5.186,4.413,13.313,4.413s13.314-2.614,13.314-4.413V69.887c-3.173,1.961-8.341,2.991-13.314,2.991S92.834,71.85,89.661,69.887" transform="translate(-30.234 -23.566)" fill="#203a72"/>
        <path id="Path_1029390" data-name="Path 1029390" d="M102.975,65.252c8.128,0,13.314-2.615,13.314-4.413s-5.186-4.413-13.314-4.413S89.662,59.04,89.662,60.839s5.186,4.413,13.313,4.413" transform="translate(-30.234 -19.027)" fill="#203a72"/>
        <path id="Path_1029391" data-name="Path 1029391" d="M89.661,94.725v3.722c0,1.8,5.186,4.413,13.313,4.413s13.314-2.614,13.314-4.413V94.725c-3.173,1.961-8.341,2.99-13.314,2.99s-10.139-1.027-13.313-2.99" transform="translate(-30.234 -31.942)" fill="#203a72"/>
        <path id="Path_1029392" data-name="Path 1029392" d="M89.661,82.306v3.722c0,1.8,5.186,4.413,13.313,4.413s13.314-2.614,13.314-4.413V82.306c-3.173,1.961-8.341,2.99-13.314,2.99s-10.139-1.027-13.313-2.99" transform="translate(-30.234 -27.754)" fill="#203a72"/>
        <path id="Path_1029393" data-name="Path 1029393" d="M99.079,23.533h3.783V36.477a1.507,1.507,0,0,0,1.507,1.507h2.639a1.507,1.507,0,0,0,1.507-1.507V23.533H112.3a1.366,1.366,0,0,0,1.072-2.212l-6.61-8.382a1.365,1.365,0,0,0-2.145,0l-6.61,8.382a1.366,1.366,0,0,0,1.073,2.212" transform="translate(-32.948 -4.187)" fill="#203a72"/>
      </g>
    </g>
  </g>
</svg>
