<svg xmlns="http://www.w3.org/2000/svg" xmlns:xlink="http://www.w3.org/1999/xlink" width="90" height="90" viewBox="0 0 90 90">
  <defs>
    <clipPath id="clip-path">
      <rect id="Rectangle_458719" data-name="Rectangle 458719" width="66.527" height="55.406" fill="none"/>
    </clipPath>
  </defs>
  <g id="img54" transform="translate(-338.711 -12699)">
    <circle id="Ellipse_13756" data-name="Ellipse 13756" cx="45" cy="45" r="45" transform="translate(338.711 12699)" fill="#fff"/>
    <g id="Group_1183551" data-name="Group 1183551" transform="translate(350.448 12716.297)">
      <g id="Group_1183550" data-name="Group 1183550" transform="translate(0 0)" clip-path="url(#clip-path)">
        <path id="Path_1029370" data-name="Path 1029370" d="M26.022,68.11a6.433,6.433,0,0,1-5.061-6.271V55.905l-3.136-.022V61.84a9.542,9.542,0,0,0,8.22,9.451,1.908,1.908,0,0,1-.023-.358Z" transform="translate(-8.66 -27.151)" fill="#14a0de"/>
        <path id="Path_1029371" data-name="Path 1029371" d="M100.659,61.84A6.413,6.413,0,0,1,95.62,68.11v2.822a.984.984,0,0,1-.045.358,9.542,9.542,0,0,0,8.219-9.451V55.906l-3.135-.023Z" transform="translate(-46.435 -27.151)" fill="#14a0de"/>
        <path id="Path_1029372" data-name="Path 1029372" d="M20,30.635a12.791,12.791,0,0,1,.448-2.083,7.7,7.7,0,0,0-4.7-4.1.539.539,0,0,0-.672.358l-2.889,8.264-.672-5.4h.448a.5.5,0,0,0,.494-.493V25.708a.5.5,0,0,0-.494-.493H9.545a.5.5,0,0,0-.493.493v1.478a.5.5,0,0,0,.493.493h.448l-.672,5.4L6.433,24.813a.53.53,0,0,0-.673-.358A7.72,7.72,0,0,0,.386,30.882L0,35.294A2.221,2.221,0,0,0,2.2,37.69l17.11.022a1.717,1.717,0,0,0,.761-.157,5.056,5.056,0,0,1-.448-2.508Z" transform="translate(0 -11.869)" fill="#203a72"/>
        <path id="Path_1029373" data-name="Path 1029373" d="M15.414,11.726A5.863,5.863,0,1,0,9.551,5.863a5.863,5.863,0,0,0,5.863,5.863" transform="translate(-4.64 0)" fill="#203a72"/>
        <path id="Path_1029374" data-name="Path 1029374" d="M109.7,30.882a7.663,7.663,0,0,0-5.353-6.427.562.562,0,0,0-.694.358l-2.889,8.264-.65-5.4h.448a.493.493,0,0,0,.47-.493V25.708a.493.493,0,0,0-.47-.493H98.117a.493.493,0,0,0-.47.493v1.478a.493.493,0,0,0,.47.493h.448l-.649,5.4-2.889-8.264a.548.548,0,0,0-.672-.358,7.662,7.662,0,0,0-4.7,4.076,11.723,11.723,0,0,1,.426,1.993l.4,4.547a5.262,5.262,0,0,1-.425,2.485,1.974,1.974,0,0,0,.739.135l17.088.022a2.195,2.195,0,0,0,2.194-2.4Z" transform="translate(-43.558 -11.869)" fill="#203a72"/>
        <path id="Path_1029375" data-name="Path 1029375" d="M102.984,11.726a5.863,5.863,0,1,0-5.863-5.863,5.863,5.863,0,0,0,5.863,5.863" transform="translate(-47.187 0)" fill="#203a72"/>
        <path id="Path_1029376" data-name="Path 1029376" d="M46,37.693l17.09.018a2.2,2.2,0,0,0,2.2-2.392l-.377-4.446a7.7,7.7,0,0,0-5.372-6.423.553.553,0,0,0-.673.353l-2.89,8.267-.663-5.4h.442a.484.484,0,0,0,.482-.484V25.7a.481.481,0,0,0-.481-.482H53.338a.481.481,0,0,0-.482.482v1.486a.483.483,0,0,0,.482.484h.442l-.664,5.4L50.228,24.8a.553.553,0,0,0-.673-.353,7.7,7.7,0,0,0-5.371,6.422l-.376,4.43A2.205,2.205,0,0,0,46,37.693" transform="translate(-21.28 -11.868)" fill="#203a72"/>
        <path id="Path_1029377" data-name="Path 1029377" d="M59.2,11.726a5.863,5.863,0,1,0-5.863-5.863A5.863,5.863,0,0,0,59.2,11.726" transform="translate(-25.913 0)" fill="#203a72"/>
        <path id="Path_1029378" data-name="Path 1029378" d="M64.322,67.547,61.951,67.2l-.675-1.63,1.433-1.919a1.288,1.288,0,0,0-.121-1.679L60.642,60.03a1.285,1.285,0,0,0-1.678-.122l-1.92,1.432-1.629-.674-.344-2.37a1.286,1.286,0,0,0-1.272-1.1H51.047a1.286,1.286,0,0,0-1.273,1.1l-.344,2.37L47.8,61.34l-1.919-1.432a1.286,1.286,0,0,0-1.679.122l-1.944,1.944a1.286,1.286,0,0,0-.122,1.679l1.438,1.925c-.3.715-.377.907-.674,1.623l-2.376.345a1.287,1.287,0,0,0-1.1,1.274v2.751a1.285,1.285,0,0,0,1.1,1.271l2.37.345c.3.718.377.91.675,1.629l-1.432,1.919a1.286,1.286,0,0,0,.122,1.679L44.2,80.36a1.288,1.288,0,0,0,1.679.121L47.8,79.048c.719.3.912.377,1.629.674l.344,2.37a1.285,1.285,0,0,0,1.273,1.1H53.8a1.285,1.285,0,0,0,1.272-1.1l.344-2.37c.718-.3.911-.375,1.629-.674l1.92,1.433a1.286,1.286,0,0,0,1.678-.121l1.946-1.946a1.287,1.287,0,0,0,.121-1.678l-1.433-1.92c.3-.719.377-.911.675-1.629l2.371-.345a1.286,1.286,0,0,0,1.1-1.271V68.82a1.286,1.286,0,0,0-1.1-1.273m-11.9,7.275a4.627,4.627,0,1,1,4.628-4.628,4.627,4.627,0,0,1-4.628,4.628" transform="translate(-19.154 -27.788)" fill="#203a72"/>
      </g>
    </g>
  </g>
</svg>
