<svg xmlns="http://www.w3.org/2000/svg" xmlns:xlink="http://www.w3.org/1999/xlink" width="149.909" height="150" viewBox="0 0 149.909 150">
  <defs>
    <clipPath id="clip-path">
      <rect id="Rectangle_458721" data-name="Rectangle 458721" width="63.522" height="74.36" fill="none"/>
    </clipPath>
  </defs>
  <g id="img61" transform="translate(-705.985 -1710.002)">
    <g id="Group_1180300" data-name="Group 1180300" transform="translate(705.936 1710.002)">
      <g id="Grupo_155253" data-name="Grupo 155253" transform="matrix(0.999, 0.035, -0.035, 0.999, 5.062, 0)">
        <path id="Trazado_196478" data-name="Trazado 196478" d="M20.377,22.814q-.452.483-.9.974A75.7,75.7,0,0,0,.051,77.428l30.182-1.084c-.818-24.1,17.45-44.315,40.8-45.157S113.985,49.2,114.8,73.3l30.182-1.084c-1.018-30-19.313-56.469-46.471-67.234A70.928,70.928,0,0,0,20.377,22.822" transform="translate(0 0)" fill="#f9ce5d"/>
        <path id="Trazado_196479" data-name="Trazado 196479" d="M0,5.22c1.4,41.3,34.98,73.608,75,72.167S146.334,41.3,144.933,0L114.751,1.084c.818,24.1-17.451,44.315-40.8,45.156S31,28.229,30.182,4.132Z" transform="translate(0.049 67.595)" fill="#70f5c8"/>
      </g>
      <ellipse id="Ellipse_13685" data-name="Ellipse 13685" cx="58.366" cy="58.462" rx="58.366" ry="58.462" transform="translate(16.722 16.827)" fill="#fff"/>
    </g>
    <g id="Group_1183555" data-name="Group 1183555" transform="translate(749.176 1747.822)">
      <g id="Group_1183554" data-name="Group 1183554" clip-path="url(#clip-path)">
        <path id="Path_1029394" data-name="Path 1029394" d="M48.574,18.552H64.443L45.891,0v15.87a2.683,2.683,0,0,0,2.683,2.683" transform="translate(-15.511 0)" fill="#203a72"/>
        <path id="Path_1029395" data-name="Path 1029395" d="M48.933,41.51V22.221H33.066A6.362,6.362,0,0,1,26.7,15.871V0H3.781A3.774,3.774,0,0,0,0,3.785V60.141a3.775,3.775,0,0,0,3.781,3.78H31.146a17.793,17.793,0,0,1-.478-4.147A18.289,18.289,0,0,1,48.933,41.51M11.895,9.251V7.187a.484.484,0,0,1,.483-.485h2.285a.485.485,0,0,1,.485.485V9.251a5.076,5.076,0,0,1,4.639,4.485.491.491,0,0,1-.481.555H16.993a.472.472,0,0,1-.466-.37,1.835,1.835,0,0,0-1.792-1.46H12.417A1.906,1.906,0,0,0,10.488,14.1a1.833,1.833,0,0,0,1.82,2.021h2.224a5.221,5.221,0,0,1,5.248,4.452,5.072,5.072,0,0,1-4.632,5.672v2.065a.485.485,0,0,1-.485.485H12.378a.485.485,0,0,1-.483-.485V26.246a5.08,5.08,0,0,1-4.64-4.486.492.492,0,0,1,.482-.555h2.312a.472.472,0,0,1,.467.369,1.835,1.835,0,0,0,1.792,1.46h2.428a1.831,1.831,0,0,0,1.819-2.018,1.9,1.9,0,0,0-1.926-1.64H12.51a5.22,5.22,0,0,1-5.246-4.452,5.067,5.067,0,0,1,4.631-5.672M8.838,34.695H40.091a1.571,1.571,0,0,1,0,3.143H8.838a1.571,1.571,0,0,1,0-3.143M24.464,55.67H8.838a1.572,1.572,0,0,1,0-3.143H24.464a1.572,1.572,0,1,1,0,3.143m3.393-8.917H8.838a1.571,1.571,0,0,1,0-3.143h19.02a1.571,1.571,0,0,1,0,3.143" transform="translate(0 -0.002)" fill="#203a72"/>
        <path id="Path_1029396" data-name="Path 1029396" d="M66.466,68.248A14.59,14.59,0,1,0,81.056,82.837,14.59,14.59,0,0,0,66.466,68.248M73.2,86.519a2.158,2.158,0,1,1-3.052,3.052l-3.68-3.681-3.68,3.681a2.158,2.158,0,1,1-3.052-3.052l3.681-3.681-3.681-3.681a2.158,2.158,0,1,1,3.052-3.051l3.68,3.679,3.68-3.679A2.158,2.158,0,0,1,73.2,79.157l-3.68,3.681Z" transform="translate(-17.534 -23.067)" fill="#14a0de"/>
      </g>
    </g>
  </g>
</svg>
