<svg xmlns="http://www.w3.org/2000/svg" xmlns:xlink="http://www.w3.org/1999/xlink" width="127.921" height="128" viewBox="0 0 127.921 128">
  <defs>
    <clipPath id="clip-path">
      <rect id="Rectangle_458730" data-name="Rectangle 458730" width="61.214" height="45.128" fill="none"/>
    </clipPath>
  </defs>
  <g id="img68" transform="translate(-705.978 -1710.001)">
    <g id="Group_1180300" data-name="Group 1180300" transform="translate(705.936 1710.002)">
      <g id="Grupo_155253" data-name="Grupo 155253" transform="matrix(0.999, 0.035, -0.035, 0.999, 4.319, 0)">
        <path id="Trazado_196478" data-name="Trazado 196478" d="M17.389,19.468q-.386.412-.764.831A64.6,64.6,0,0,0,.044,66.072L25.8,65.147C25.1,44.584,40.69,27.331,60.618,26.613S97.267,41.982,97.965,62.546l25.755-.925c-.869-25.6-16.481-48.187-39.655-57.372A60.525,60.525,0,0,0,17.389,19.475" transform="translate(0 0)" fill="#f9ce5d"/>
        <path id="Trazado_196479" data-name="Trazado 196479" d="M0,4.454C1.195,39.7,29.849,67.266,64,66.036S124.871,35.241,123.676,0L97.92.925c.7,20.563-14.891,37.815-34.819,38.533S26.453,24.089,25.755,3.526Z" transform="translate(0.042 57.68)" fill="#70f5c8"/>
      </g>
      <ellipse id="Ellipse_13685" data-name="Ellipse 13685" cx="49.806" cy="49.887" rx="49.806" ry="49.887" transform="translate(14.269 14.359)" fill="#fff"/>
    </g>
    <g id="Group_1183572" data-name="Group 1183572" transform="translate(739.329 1751.438)">
      <g id="Group_1183571" data-name="Group 1183571" transform="translate(0 0)" clip-path="url(#clip-path)">
        <path id="Path_1029438" data-name="Path 1029438" d="M62.45,10.108V2.869H88.119v21.9H62.45V19.422a4.381,4.381,0,0,1-.9.089H59.581V26.2a1.436,1.436,0,0,0,1.43,1.439H89.558a1.436,1.436,0,0,0,1.43-1.439V1.43A1.434,1.434,0,0,0,89.558,0H61.011a1.434,1.434,0,0,0-1.43,1.43v8.589h1.967a4.381,4.381,0,0,1,.9.089" transform="translate(-33.857 0)" fill="#203a72"/>
        <path id="Path_1029439" data-name="Path 1029439" d="M17.037,33.543h10.65a2.065,2.065,0,0,0,0-4.129H12.142A14.3,14.3,0,0,0,.349,34.967a2.064,2.064,0,0,0,.035,2.348L4,42.382a2.066,2.066,0,0,0,2.88.48,2.036,2.036,0,0,0,.3-.263l-.01,1.436L5.9,59.355a2.294,2.294,0,0,0,4.573.38l1.225-14.73h.894l1.227,14.73a2.294,2.294,0,0,0,2.284,2.1c.063,0,.127,0,.193-.008a2.3,2.3,0,0,0,2.1-2.476L17.113,44.035ZM7.2,39.757l-2.5-3.5a10.05,10.05,0,0,1,2.536-1.671Zm6.191-.225-1.079,1.192a.234.234,0,0,1-.343,0l-1.08-1.192a.23.23,0,0,1-.058-.186l.889-6.506H11.3a.232.232,0,0,1-.233-.233V31.265a.232.232,0,0,1,.233-.231h1.682a.232.232,0,0,1,.231.231v1.341a.233.233,0,0,1-.231.233h-.421l.889,6.506a.229.229,0,0,1-.058.186" transform="translate(0 -16.714)" fill="#203a72"/>
        <path id="Path_1029440" data-name="Path 1029440" d="M22.081,14.563a4.59,4.59,0,1,0-4.59-4.59,4.589,4.589,0,0,0,4.59,4.59" transform="translate(-9.939 -3.059)" fill="#203a72"/>
        <path id="Path_1029441" data-name="Path 1029441" d="M61.886,91.538a4.431,4.431,0,0,0-2.118-1.59,5.911,5.911,0,0,1-6.713,0,4.388,4.388,0,0,0-2.941,4.119v1.77a.4.4,0,0,0,.4.4H61.412a2.049,2.049,0,0,1-.036-.4v-1.77a6.535,6.535,0,0,1,.509-2.529" transform="translate(-28.478 -51.112)" fill="#203a72"/>
        <path id="Path_1029442" data-name="Path 1029442" d="M55.9,73.615a3.8,3.8,0,1,0,3.8-3.8,3.8,3.8,0,0,0-3.8,3.8" transform="translate(-31.762 -39.672)" fill="#203a72"/>
        <path id="Path_1029443" data-name="Path 1029443" d="M123.366,89.948a5.923,5.923,0,0,1-6.721,0,4.45,4.45,0,0,0-2.109,1.582,6.567,6.567,0,0,1,.509,2.538v1.77a2.055,2.055,0,0,1-.035.4h10.9a.4.4,0,0,0,.393-.4v-1.77a4.379,4.379,0,0,0-2.932-4.12" transform="translate(-65.084 -51.112)" fill="#203a72"/>
        <path id="Path_1029444" data-name="Path 1029444" d="M118.4,73.615a3.8,3.8,0,1,0,3.8-3.8,3.8,3.8,0,0,0-3.8,3.8" transform="translate(-67.282 -39.672)" fill="#203a72"/>
        <path id="Path_1029445" data-name="Path 1029445" d="M91.026,89.956a5.915,5.915,0,0,1-6.716,0,4.372,4.372,0,0,0-2.936,4.121v1.767a.4.4,0,0,0,.4.4H93.564a.4.4,0,0,0,.4-.4V94.077a4.372,4.372,0,0,0-2.937-4.121" transform="translate(-46.24 -51.117)" fill="#203a72"/>
        <path id="Path_1029446" data-name="Path 1029446" d="M87.149,73.615a3.8,3.8,0,1,0,3.8-3.8,3.8,3.8,0,0,0-3.8,3.8" transform="translate(-49.522 -39.672)" fill="#203a72"/>
        <path id="Path_1029447" data-name="Path 1029447" d="M76.188,17.209H91.625a1.435,1.435,0,1,0,0-2.869H76.188a1.435,1.435,0,0,0,0,2.869" transform="translate(-42.479 -8.149)" fill="#14a0de"/>
        <path id="Path_1029448" data-name="Path 1029448" d="M76.188,45.891H91.625a1.435,1.435,0,1,0,0-2.869H76.188a1.435,1.435,0,0,0,0,2.869" transform="translate(-42.479 -24.447)" fill="#14a0de"/>
        <path id="Path_1029449" data-name="Path 1029449" d="M76.188,31.55H91.625a1.435,1.435,0,1,0,0-2.869H76.188a1.435,1.435,0,0,0,0,2.869" transform="translate(-42.479 -16.298)" fill="#14a0de"/>
      </g>
    </g>
  </g>
</svg>
