<svg xmlns="http://www.w3.org/2000/svg" xmlns:xlink="http://www.w3.org/1999/xlink" width="84" height="84" viewBox="0 0 84 84">
  <defs>
    <clipPath id="clip-path">
      <rect id="Rectangle_458724" data-name="Rectangle 458724" width="61.786" height="61.663" fill="none"/>
    </clipPath>
  </defs>
  <g id="img62" transform="translate(-319.711 -17517)">
    <rect id="Rectangle_456580" data-name="Rectangle 456580" width="84" height="84" rx="10" transform="translate(319.711 17517)" fill="#ff9e74"/>
    <g id="Group_1183559" data-name="Group 1183559" transform="translate(330.711 17528)">
      <g id="Group_1183558" data-name="Group 1183558" transform="translate(0 0)" clip-path="url(#clip-path)">
        <path id="Path_1029403" data-name="Path 1029403" d="M51.985,0a22.285,22.285,0,0,0-22.1,19.23,14.978,14.978,0,0,1,9,17.617l6.969,6.97a21.307,21.307,0,0,0,6.13.871A22.344,22.344,0,1,0,51.985,0M49.727,8.519a3.287,3.287,0,0,1,2.355-.936A3.25,3.25,0,0,1,55.4,10.875a3.2,3.2,0,0,1-3.323,3.258,3.307,3.307,0,0,1-2.355-5.613M57.857,35.4A1.111,1.111,0,0,1,56.7,36.525h-9a1.1,1.1,0,0,1-1.13-1.129v-1a1.1,1.1,0,0,1,1.13-1.129l2.064-.226V21.2l-2.226-.227a1.13,1.13,0,0,1-1.065-1.128v-.936a1.1,1.1,0,0,1,1-1.13L52.211,17l.258-.064h1.258a1.1,1.1,0,0,1,1.13,1.129v15l1.968.194A1.084,1.084,0,0,1,57.857,34.4Z" transform="translate(-12.559 0)" fill="#14a0de"/>
        <path id="Path_1029404" data-name="Path 1029404" d="M40.273,76.4l-.152-5.393A.75.75,0,0,0,39.9,70.5L22.636,53.236a11.78,11.78,0,1,0-6.3,6.295l4.327,4.327a.744.744,0,0,0,.528.219h3.142a.746.746,0,0,1,.746.747v3.141a.747.747,0,0,0,.219.528l1.5,1.5a.746.746,0,0,0,.528.219h3.142a.746.746,0,0,1,.746.746V74.1a.743.743,0,0,0,.219.528L33.607,76.8a.746.746,0,0,0,.506.219l5.393.152a.745.745,0,0,0,.767-.766M6.687,48.265a3.311,3.311,0,1,1,4.683,0,3.311,3.311,0,0,1-4.683,0" transform="translate(0 -15.505)" fill="#203a72"/>
      </g>
    </g>
  </g>
</svg>
