<svg xmlns="http://www.w3.org/2000/svg" xmlns:xlink="http://www.w3.org/1999/xlink" width="127.922" height="128" viewBox="0 0 127.922 128">
  <defs>
    <clipPath id="clip-path">
      <rect id="Rectangle_458727" data-name="Rectangle 458727" width="60.572" height="52.223" fill="none"/>
    </clipPath>
  </defs>
  <g id="img65" transform="translate(-705.978 -1710.002)">
    <g id="Group_1180300" data-name="Group 1180300" transform="translate(705.936 1710.002)">
      <g id="Grupo_155253" data-name="Grupo 155253" transform="matrix(0.999, 0.035, -0.035, 0.999, 4.319, 0)">
        <path id="Trazado_196478" data-name="Trazado 196478" d="M17.389,19.468q-.386.412-.764.831A64.6,64.6,0,0,0,.044,66.072L25.8,65.147C25.1,44.584,40.69,27.331,60.618,26.613S97.267,41.982,97.965,62.546l25.755-.925c-.869-25.6-16.481-48.187-39.655-57.372A60.525,60.525,0,0,0,17.389,19.475" transform="translate(0 0)" fill="#f9ce5d"/>
        <path id="Trazado_196479" data-name="Trazado 196479" d="M0,4.454C1.195,39.7,29.849,67.266,64,66.036S124.871,35.241,123.676,0L97.92.925c.7,20.563-14.891,37.815-34.819,38.533S26.453,24.089,25.755,3.526Z" transform="translate(0.042 57.68)" fill="#70f5c8"/>
      </g>
      <ellipse id="Ellipse_13685" data-name="Ellipse 13685" cx="49.806" cy="49.887" rx="49.806" ry="49.887" transform="translate(14.269 14.359)" fill="#fff"/>
    </g>
    <g id="Group_1183566" data-name="Group 1183566" transform="translate(739.65 1747.891)">
      <g id="Group_1183565" data-name="Group 1183565" transform="translate(0 0)" clip-path="url(#clip-path)">
        <path id="Path_1029412" data-name="Path 1029412" d="M6.161,43.094a7.408,7.408,0,0,1,6.045-4.559,6.868,6.868,0,0,1,2.738.284v-21.4H2.06A2.065,2.065,0,0,0,0,19.482V51.618a1.475,1.475,0,0,0,1.471,1.471H2.88a8.614,8.614,0,0,1,3.594-3.951,6.936,6.936,0,0,1-.313-6.044M5.045,23.476a.852.852,0,0,1,.861-.862H9.059a.853.853,0,0,1,.861.862v3.006a.852.852,0,0,1-.861.862H5.906a.852.852,0,0,1-.861-.862Zm0,11.686V32.135a.865.865,0,0,1,.861-.861H9.059a.865.865,0,0,1,.861.861v3.026a.852.852,0,0,1-.861.862H5.906a.852.852,0,0,1-.861-.862" transform="translate(0 -9.016)" fill="#14a0de"/>
        <path id="Path_1029413" data-name="Path 1029413" d="M60.276,40.122a7.017,7.017,0,0,1-.862-3.363,7.224,7.224,0,0,1,2.438-5.423V2.081A2.072,2.072,0,0,0,59.772,0H38.713a2.072,2.072,0,0,0-2.081,2.081V31.295a7.243,7.243,0,0,1,2.48,5.465,7.421,7.421,0,0,1-.862,3.384,8.417,8.417,0,0,1,2.291,1.912,8.53,8.53,0,0,1,2.312-1.933,7.258,7.258,0,1,1,13.683-3.363,7.177,7.177,0,0,1-.883,3.384,8.829,8.829,0,0,1,2.312,1.912,8.236,8.236,0,0,1,2.312-1.933M46.91,26.142a.858.858,0,0,1-.859.861H42.887a.859.859,0,0,1-.861-.861V23.123a.86.86,0,0,1,.861-.859h3.164a.86.86,0,0,1,.859.859Zm0-8.672a.859.859,0,0,1-.859.861H42.887a.859.859,0,0,1-.861-.861V14.45a.86.86,0,0,1,.861-.859h3.164a.86.86,0,0,1,.859.859Zm0-8.672a.858.858,0,0,1-.859.861H42.887a.859.859,0,0,1-.861-.861V5.778a.86.86,0,0,1,.861-.859h3.164a.859.859,0,0,1,.859.859Zm9.557,17.345a.858.858,0,0,1-.859.861H52.444a.859.859,0,0,1-.861-.861V23.123a.861.861,0,0,1,.861-.859h3.164a.86.86,0,0,1,.859.859Zm0-8.672a.859.859,0,0,1-.859.861H52.444a.86.86,0,0,1-.861-.861V14.45a.86.86,0,0,1,.861-.859h3.164a.86.86,0,0,1,.859.859Zm0-8.672a.858.858,0,0,1-.859.861H52.444a.859.859,0,0,1-.861-.861V5.778a.86.86,0,0,1,.861-.859h3.164a.859.859,0,0,1,.859.859Z" transform="translate(-18.956 0)" fill="#203a72"/>
        <path id="Path_1029414" data-name="Path 1029414" d="M107.447,17.423H94.563v21.4a6.929,6.929,0,0,1,1.828-.31,7.324,7.324,0,0,1,7.294,5.443,7.143,7.143,0,0,1-.632,5.208,8.553,8.553,0,0,1,3.594,3.93h1.388a1.462,1.462,0,0,0,1.471-1.471V19.483a2.066,2.066,0,0,0-2.06-2.06m-2.964,17.739a.865.865,0,0,1-.862.862h-3.174a.865.865,0,0,1-.861-.862V32.135a.879.879,0,0,1,.861-.862h3.174a.879.879,0,0,1,.862.862Zm0-8.68a.865.865,0,0,1-.862.861h-3.174a.865.865,0,0,1-.861-.861V23.476a.865.865,0,0,1,.861-.862h3.174a.865.865,0,0,1,.862.862Z" transform="translate(-48.935 -9.016)" fill="#14a0de"/>
        <path id="Path_1029415" data-name="Path 1029415" d="M21.617,86.945a.427.427,0,0,0-.52.274l-2.236,6.4-.513-4.181h.342a.375.375,0,0,0,.373-.374V87.91a.373.373,0,0,0-.373-.373H16.816a.373.373,0,0,0-.373.373v1.15a.374.374,0,0,0,.373.374h.341l-.513,4.181-2.235-6.4a.428.428,0,0,0-.521-.274,5.956,5.956,0,0,0-4.156,4.969l-.291,3.428a1.707,1.707,0,0,0,1.7,1.849l13.224.014a1.707,1.707,0,0,0,1.7-1.851l-.292-3.44a5.956,5.956,0,0,0-4.156-4.97" transform="translate(-4.883 -44.984)" fill="#203a72"/>
        <path id="Path_1029416" data-name="Path 1029416" d="M17.3,71.324a4.536,4.536,0,1,0,4.537-4.536A4.536,4.536,0,0,0,17.3,71.324" transform="translate(-8.952 -34.562)" fill="#203a72"/>
        <path id="Path_1029417" data-name="Path 1029417" d="M93.817,86.945a.427.427,0,0,0-.52.274l-2.236,6.4-.513-4.181h.342a.375.375,0,0,0,.373-.374V87.91a.373.373,0,0,0-.373-.373H89.016a.373.373,0,0,0-.373.373v1.15a.374.374,0,0,0,.373.374h.341l-.513,4.181-2.235-6.4a.428.428,0,0,0-.521-.274,5.956,5.956,0,0,0-4.156,4.969l-.291,3.428a1.707,1.707,0,0,0,1.7,1.849l13.224.014a1.707,1.707,0,0,0,1.7-1.851l-.292-3.44a5.956,5.956,0,0,0-4.156-4.97" transform="translate(-42.245 -44.984)" fill="#203a72"/>
        <path id="Path_1029418" data-name="Path 1029418" d="M94.035,75.861A4.536,4.536,0,1,0,89.5,71.324a4.536,4.536,0,0,0,4.537,4.537" transform="translate(-46.314 -34.562)" fill="#203a72"/>
        <path id="Path_1029419" data-name="Path 1029419" d="M57.718,86.945a.428.428,0,0,0-.521.274l-2.236,6.4-.512-4.181h.342a.374.374,0,0,0,.373-.374V87.91a.372.372,0,0,0-.373-.373H52.916a.372.372,0,0,0-.373.373v1.15a.374.374,0,0,0,.373.374h.342l-.513,4.181-2.235-6.4a.427.427,0,0,0-.52-.274,5.955,5.955,0,0,0-4.155,4.969l-.291,3.428a1.706,1.706,0,0,0,1.7,1.849l13.224.014a1.706,1.706,0,0,0,1.7-1.851l-.292-3.44a5.956,5.956,0,0,0-4.156-4.97" transform="translate(-23.564 -44.984)" fill="#203a72"/>
        <path id="Path_1029420" data-name="Path 1029420" d="M57.935,75.861A4.536,4.536,0,1,0,53.4,71.324a4.536,4.536,0,0,0,4.537,4.537" transform="translate(-27.632 -34.562)" fill="#203a72"/>
      </g>
    </g>
  </g>
</svg>
