<svg xmlns="http://www.w3.org/2000/svg" xmlns:xlink="http://www.w3.org/1999/xlink" width="127.921" height="128" viewBox="0 0 127.921 128">
  <defs>
    <clipPath id="clip-path">
      <rect id="Rectangle_458726" data-name="Rectangle 458726" width="60.675" height="58.307" fill="none"/>
    </clipPath>
  </defs>
  <g id="img64" transform="translate(-705.978 -1710.002)">
    <g id="Group_1180300" data-name="Group 1180300" transform="translate(705.936 1710.002)">
      <g id="Grupo_155253" data-name="Grupo 155253" transform="matrix(0.999, 0.035, -0.035, 0.999, 4.319, 0)">
        <path id="Trazado_196478" data-name="Trazado 196478" d="M17.389,19.468q-.386.412-.764.831A64.6,64.6,0,0,0,.044,66.072L25.8,65.147C25.1,44.584,40.69,27.331,60.618,26.613S97.267,41.982,97.965,62.546l25.755-.925c-.869-25.6-16.481-48.187-39.655-57.372A60.525,60.525,0,0,0,17.389,19.475" transform="translate(0 0)" fill="#f9ce5d"/>
        <path id="Trazado_196479" data-name="Trazado 196479" d="M0,4.454C1.195,39.7,29.849,67.266,64,66.036S124.871,35.241,123.676,0L97.92.925c.7,20.563-14.891,37.815-34.819,38.533S26.453,24.089,25.755,3.526Z" transform="translate(0.042 57.68)" fill="#70f5c8"/>
      </g>
      <ellipse id="Ellipse_13685" data-name="Ellipse 13685" cx="49.806" cy="49.887" rx="49.806" ry="49.887" transform="translate(14.269 14.359)" fill="#fff"/>
    </g>
    <g id="Group_1183564" data-name="Group 1183564" transform="translate(739.599 1744.849)">
      <g id="Group_1183563" data-name="Group 1183563" clip-path="url(#clip-path)">
        <path id="Path_1029409" data-name="Path 1029409" d="M59.31,19.187H49.074V4.776H51.48a1.365,1.365,0,0,0,1.366-1.365V1.366A1.366,1.366,0,0,0,51.48,0H9.2A1.366,1.366,0,0,0,7.83,1.366V3.411A1.365,1.365,0,0,0,9.2,4.776H11.6V19.187H1.365A1.365,1.365,0,0,0,0,20.552V22.6a1.365,1.365,0,0,0,1.365,1.366H59.31A1.366,1.366,0,0,0,60.675,22.6V20.552a1.366,1.366,0,0,0-1.365-1.365M27.961,17.724a.747.747,0,0,1-.747.747H25.6a.747.747,0,0,1-.747-.747V13.549H20.25v4.175a.747.747,0,0,1-.747.747h-1.61a.747.747,0,0,1-.747-.747V6.125a.747.747,0,0,1,.747-.747H19.5a.747.747,0,0,1,.747.747V10.8h4.607V6.125a.747.747,0,0,1,.747-.747h1.611a.747.747,0,0,1,.747.747Zm15.412-.1-.66.852a.747.747,0,0,1-1.1.091L40.47,17.508a6.941,6.941,0,0,1-3.951,1.143,7.346,7.346,0,0,1-2.735-.5,6.021,6.021,0,0,1-3.51-3.514,7.3,7.3,0,0,1-.494-2.708,7.3,7.3,0,0,1,.494-2.708,6.274,6.274,0,0,1,1.373-2.137A6.141,6.141,0,0,1,33.784,5.7a7.692,7.692,0,0,1,5.43-.009,6.179,6.179,0,0,1,2.128,1.368,6.249,6.249,0,0,1,1.387,2.133,7.294,7.294,0,0,1,.5,2.74,6.971,6.971,0,0,1-1,3.734l1.05.948a.747.747,0,0,1,.09,1.012" fill="#14a0de"/>
        <path id="Path_1029410" data-name="Path 1029410" d="M65.461,15.237a3.29,3.29,0,0,0-1.841-.527,3.38,3.38,0,0,0-1.8.5,3.429,3.429,0,0,0-1.269,1.377,4.488,4.488,0,0,0,0,3.955,3.442,3.442,0,0,0,1.269,1.372,3.379,3.379,0,0,0,1.8.494,3.455,3.455,0,0,0,1.611-.387L64.47,21.3a.747.747,0,0,1-.068-1.018l.627-.767a.748.748,0,0,1,1.08-.081l.742.672a4.56,4.56,0,0,0-.157-3.473,3.458,3.458,0,0,0-1.233-1.4" transform="translate(-27.093 -6.632)" fill="#14a0de"/>
        <path id="Path_1029411" data-name="Path 1029411" d="M59.31,75.753H57.164V49.288H3.513V75.753H1.366A1.366,1.366,0,0,0,0,77.118v2.045a1.366,1.366,0,0,0,1.366,1.365H20.229V67.2a2.136,2.136,0,0,1,2.136-2.136H28.9V80.529h2.874V65.068H38.31A2.136,2.136,0,0,1,40.446,67.2V80.529H59.31a1.365,1.365,0,0,0,1.365-1.365V77.118a1.365,1.365,0,0,0-1.365-1.366M15.839,70.311a1.717,1.717,0,0,1-1.717,1.717H10.6a1.717,1.717,0,0,1-1.717-1.717V66.784A1.717,1.717,0,0,1,10.6,65.068h3.526a1.717,1.717,0,0,1,1.717,1.717Zm0-11.6a1.717,1.717,0,0,1-1.717,1.717H10.6a1.717,1.717,0,0,1-1.717-1.717V55.185A1.717,1.717,0,0,1,10.6,53.469h3.526a1.716,1.716,0,0,1,1.717,1.717Zm11.986,0a1.717,1.717,0,0,1-1.717,1.717H22.582a1.717,1.717,0,0,1-1.717-1.717V55.185a1.716,1.716,0,0,1,1.717-1.717h3.526a1.717,1.717,0,0,1,1.717,1.717Zm11.986,0a1.717,1.717,0,0,1-1.717,1.717H34.567a1.716,1.716,0,0,1-1.716-1.717V55.185a1.716,1.716,0,0,1,1.716-1.717h3.526a1.716,1.716,0,0,1,1.717,1.717ZM51.8,70.311a1.717,1.717,0,0,1-1.717,1.717H46.554a1.717,1.717,0,0,1-1.717-1.717V66.784a1.717,1.717,0,0,1,1.717-1.717H50.08A1.717,1.717,0,0,1,51.8,66.784Zm0-11.6a1.717,1.717,0,0,1-1.717,1.717H46.554a1.717,1.717,0,0,1-1.717-1.717V55.185a1.717,1.717,0,0,1,1.717-1.717H50.08A1.716,1.716,0,0,1,51.8,55.185Z" transform="translate(0 -22.221)" fill="#203a72"/>
      </g>
    </g>
  </g>
</svg>
