<svg xmlns="http://www.w3.org/2000/svg" xmlns:xlink="http://www.w3.org/1999/xlink" width="83.949" height="84" viewBox="0 0 83.949 84">
  <defs>
    <clipPath id="clip-path">
      <rect id="Rectangle_458771" data-name="Rectangle 458771" width="39.589" height="39.589" fill="none"/>
    </clipPath>
  </defs>
  <g id="img14" transform="translate(-705.963 -1710.001)">
    <g id="Group_1180300" data-name="Group 1180300" transform="translate(705.936 1710.002)">
      <g id="Grupo_155253" data-name="Grupo 155253" transform="matrix(0.999, 0.035, -0.035, 0.999, 2.834, 0)">
        <path id="Trazado_196478" data-name="Trazado 196478" d="M11.411,12.776q-.253.27-.5.545A42.391,42.391,0,0,0,.029,43.36l16.9-.607c-.458-13.495,9.772-24.816,22.85-25.288S63.831,27.551,64.289,41.046l16.9-.607A41.841,41.841,0,0,0,55.167,2.788,39.72,39.72,0,0,0,11.411,12.78" transform="translate(0 0)" fill="#f9ce5d"/>
        <path id="Trazado_196479" data-name="Trazado 196479" d="M0,2.923C.784,26.05,19.589,44.144,42,43.336S81.947,23.127,81.162,0L64.26.607c.458,13.495-9.772,24.816-22.85,25.287S17.36,15.809,16.9,2.314Z" transform="translate(0.027 37.853)" fill="#ff9e74"/>
      </g>
      <ellipse id="Ellipse_13685" data-name="Ellipse 13685" cx="32.685" cy="32.739" rx="32.685" ry="32.739" transform="translate(9.364 9.423)" fill="#fff"/>
    </g>
    <g id="Group_1183649" data-name="Group 1183649" transform="translate(728.141 1732.207)">
      <g id="Group_1183648" data-name="Group 1183648" clip-path="url(#clip-path)">
        <path id="Path_1029680" data-name="Path 1029680" d="M98.038,79.623H96.923a.785.785,0,0,0-.785.786v1.6h-1.6a.786.786,0,0,0-.786.786v1.116a.786.786,0,0,0,.786.786h3.5a.786.786,0,0,0,.786-.786v-3.5a.786.786,0,0,0-.786-.786" transform="translate(-59.234 -50.309)" fill="#14a0de"/>
        <path id="Path_1029681" data-name="Path 1029681" d="M71.674,86.108H66.32a.786.786,0,0,0-.786.786V88.01a.786.786,0,0,0,.786.786h5.354a.786.786,0,0,0,.786-.786V86.894a.786.786,0,0,0-.786-.786" transform="translate(-41.407 -54.406)" fill="#14a0de"/>
        <path id="Path_1029682" data-name="Path 1029682" d="M14.914,30.116h1.115a.786.786,0,0,0,.786-.786V23.977a.786.786,0,0,0-.786-.785H14.914a.785.785,0,0,0-.786.785v5.353a.786.786,0,0,0,.786.786" transform="translate(-8.927 -14.654)" fill="#14a0de"/>
        <path id="Path_1029683" data-name="Path 1029683" d="M14.914,5.075h1.115a.786.786,0,0,0,.786-.786v-1.6h1.6A.785.785,0,0,0,19.2,1.9V.786A.786.786,0,0,0,18.416,0h-3.5a.786.786,0,0,0-.786.786v3.5a.786.786,0,0,0,.786.786" transform="translate(-8.927)" fill="#14a0de"/>
        <path id="Path_1029684" data-name="Path 1029684" d="M66.319,2.689h5.355a.786.786,0,0,0,.786-.786V.787A.786.786,0,0,0,71.673,0H66.319a.785.785,0,0,0-.786.786V1.9a.786.786,0,0,0,.786.786" transform="translate(-41.406 -0.001)" fill="#14a0de"/>
        <path id="Path_1029685" data-name="Path 1029685" d="M38.1,2.689h5.354a.786.786,0,0,0,.786-.786V.787A.786.786,0,0,0,43.456,0H38.1a.785.785,0,0,0-.786.786V1.9a.786.786,0,0,0,.786.786" transform="translate(-23.578 -0.001)" fill="#14a0de"/>
        <path id="Path_1029686" data-name="Path 1029686" d="M98.038,0h-3.5a.786.786,0,0,0-.786.786V1.9a.786.786,0,0,0,.786.786h1.6v1.6a.786.786,0,0,0,.785.786h1.115a.786.786,0,0,0,.786-.786V.786A.786.786,0,0,0,98.038,0" transform="translate(-59.234)" fill="#14a0de"/>
        <path id="Path_1029687" data-name="Path 1029687" d="M102.136,23.191h-1.115a.785.785,0,0,0-.785.786v5.355a.785.785,0,0,0,.785.786h1.115a.786.786,0,0,0,.786-.786V23.977a.786.786,0,0,0-.786-.786" transform="translate(-63.333 -14.653)" fill="#14a0de"/>
        <path id="Path_1029688" data-name="Path 1029688" d="M102.136,51.41h-1.115a.785.785,0,0,0-.785.786v5.353a.785.785,0,0,0,.785.785h1.115a.785.785,0,0,0,.786-.785V52.2a.786.786,0,0,0-.786-.786" transform="translate(-63.333 -32.483)" fill="#14a0de"/>
        <path id="Path_1029689" data-name="Path 1029689" d="M31.533,19.75H23.647a.786.786,0,0,0-.787.785v1.117a.787.787,0,0,0,.787.785h4.086L17.661,32.508a10.962,10.962,0,1,0,1.9,1.9L29.633,24.337v4.086a.784.784,0,0,0,.785.785h1.115a.785.785,0,0,0,.786-.785V20.535a.785.785,0,0,0-.786-.785M12.11,47.238v1.486a.348.348,0,0,1-.348.349H10.119a.348.348,0,0,1-.348-.349V47.238a3.653,3.653,0,0,1-3.337-3.226.354.354,0,0,1,.347-.4H8.443a.339.339,0,0,1,.335.266,1.318,1.318,0,0,0,1.289,1.05h1.745a1.317,1.317,0,0,0,1.309-1.452A1.369,1.369,0,0,0,11.736,42.3H10.213a3.755,3.755,0,0,1-3.774-3.2,3.645,3.645,0,0,1,3.331-4.08V33.531a.348.348,0,0,1,.348-.348h1.643a.348.348,0,0,1,.348.348v1.484a3.653,3.653,0,0,1,3.337,3.226.354.354,0,0,1-.347.4H13.437a.34.34,0,0,1-.336-.267,1.319,1.319,0,0,0-1.289-1.05H10.147A1.371,1.371,0,0,0,8.759,38.5a1.318,1.318,0,0,0,1.309,1.454h1.6a3.754,3.754,0,0,1,3.774,3.2,3.646,3.646,0,0,1-3.331,4.079" transform="translate(0 -12.479)" fill="#203a72"/>
      </g>
    </g>
  </g>
</svg>
