<svg xmlns="http://www.w3.org/2000/svg" xmlns:xlink="http://www.w3.org/1999/xlink" width="90" height="90" viewBox="0 0 90 90">
  <defs>
    <clipPath id="clip-path">
      <rect id="Rectangle_458776" data-name="Rectangle 458776" width="44.564" height="62.737" fill="none"/>
    </clipPath>
  </defs>
  <g id="img27" transform="translate(-338.711 -12699)">
    <circle id="Ellipse_13756" data-name="Ellipse 13756" cx="45" cy="45" r="45" transform="translate(338.711 12699)" fill="#fff"/>
    <g id="Group_1183662" data-name="Group 1183662" transform="translate(361.429 12712.632)">
      <g id="Group_1183661" data-name="Group 1183661" clip-path="url(#clip-path)">
        <path id="Path_1029711" data-name="Path 1029711" d="M32.5,66.381V63.415a5.076,5.076,0,0,0-5.064-5.08H5.05a1.779,1.779,0,1,1,0-3.559h5.365a7.5,7.5,0,0,1-3.1-3.27H5.05A5.056,5.056,0,0,0,0,56.556V79.75a5.089,5.089,0,0,0,5.08,5.081H27.439A5.076,5.076,0,0,0,32.5,79.75V76.785a4.265,4.265,0,0,0,3.7-4.213V70.594a4.265,4.265,0,0,0-3.7-4.214M15.255,77.956V79.4a.461.461,0,0,1-.456.472H13.263a.461.461,0,0,1-.456-.472V78a3.368,3.368,0,0,1-3.012-3,.491.491,0,0,1,.472-.5h1.551a.443.443,0,0,1,.441.349.926.926,0,0,0,.9.73h1.369a1.442,1.442,0,0,0,1.46-1.248,1.305,1.305,0,0,0-.35-1.064,1.385,1.385,0,0,0-1.019-.457h-1a3.954,3.954,0,0,1-3.985-3.467,3.841,3.841,0,0,1,3.179-4.168V63.765a.461.461,0,0,1,.456-.472H14.8a.461.461,0,0,1,.456.472v1.4a3.354,3.354,0,0,1,3,3,.393.393,0,0,1-.107.334.456.456,0,0,1-.35.167H16.244a.474.474,0,0,1-.456-.35.9.9,0,0,0-.882-.73H13.536a1.441,1.441,0,0,0-1.46,1.248,1.306,1.306,0,0,0,.35,1.064,1.361,1.361,0,0,0,1.019.457h1.171a3.838,3.838,0,0,1,2.844,1.262,3.8,3.8,0,0,1,.974,2.966,3.9,3.9,0,0,1-3.179,3.376m17.674-5.384a1.023,1.023,0,0,1-1,1h-4.7a1.033,1.033,0,0,1-1-1V70.594a1.023,1.023,0,0,1,1-1h4.7a1.013,1.013,0,0,1,1,1Z" transform="translate(0 -22.095)" fill="#203a72"/>
        <path id="Path_1029712" data-name="Path 1029712" d="M50,9.945l-3.575-6.8a1.3,1.3,0,0,0-1.611-.614L42.043,3.559a1.83,1.83,0,0,1-1.365-.035L33.571.47A5.782,5.782,0,0,0,29.286.358l-14.924,5.5a2.029,2.029,0,0,0-1.124,2.78,2.051,2.051,0,0,0,1.81,1.148l6.619.045a4.3,4.3,0,0,1,.15-.462,4.018,4.018,0,0,1,4.165-2.535l.263.026A41.772,41.772,0,0,1,33.4,8.2l1.871.522a1.151,1.151,0,0,1,.8,1.422,1.154,1.154,0,0,1-1.424.8L32.677,10.4A38.535,38.535,0,0,0,26.16,9.167l-.411-.038a1.725,1.725,0,0,0-1.742,2.442,1.754,1.754,0,0,0,.984.9l9.6,3.442a5.056,5.056,0,0,0,3.275.045L49.3,11.776A1.3,1.3,0,0,0,50,9.945" transform="translate(-5.592 0)" fill="#203a72"/>
        <path id="Path_1029713" data-name="Path 1029713" d="M31.53,51.391a4.337,4.337,0,0,0,1.034,1.551H39.91A5.026,5.026,0,0,0,41.356,49.4a5.115,5.115,0,0,0-5.126-5.11,4.963,4.963,0,0,0-1.369.2c.015.244.03.472.03.715a7.373,7.373,0,0,1-3.361,6.19" transform="translate(-13.525 -18.998)" fill="#14a0de"/>
        <path id="Path_1029714" data-name="Path 1029714" d="M15.522,42.045a5.114,5.114,0,1,0,5.114-5.114,5.113,5.113,0,0,0-5.114,5.114" transform="translate(-6.658 -15.842)" fill="#14a0de"/>
        <path id="Path_1029715" data-name="Path 1029715" d="M25.369,26.572V22.708a1.141,1.141,0,0,0-2.281,0v3.864a1.141,1.141,0,1,0,2.281,0" transform="translate(-9.904 -9.252)" fill="#14a0de"/>
        <path id="Path_1029716" data-name="Path 1029716" d="M33.2,25.758A1.141,1.141,0,0,0,32.059,26.9v3.863a1.141,1.141,0,1,0,2.282,0V26.9A1.141,1.141,0,0,0,33.2,25.758" transform="translate(-13.752 -11.049)" fill="#14a0de"/>
        <path id="Path_1029717" data-name="Path 1029717" d="M43.312,34.953V31.092a1.141,1.141,0,1,0-2.281,0v3.861a1.141,1.141,0,1,0,2.281,0" transform="translate(-17.601 -12.848)" fill="#14a0de"/>
      </g>
    </g>
  </g>
</svg>
