<svg xmlns="http://www.w3.org/2000/svg" xmlns:xlink="http://www.w3.org/1999/xlink" width="90" height="90" viewBox="0 0 90 90">
  <defs>
    <clipPath id="clip-path">
      <rect id="Rectangle_458773" data-name="Rectangle 458773" width="59.031" height="61.209" fill="none"/>
    </clipPath>
  </defs>
  <g id="img24" transform="translate(-338.711 -12699)">
    <circle id="Ellipse_13756" data-name="Ellipse 13756" cx="45" cy="45" r="45" transform="translate(338.711 12699)" fill="#fff"/>
    <g id="Group_1183653" data-name="Group 1183653" transform="translate(354.195 12713.396)">
      <g id="Group_1183652" data-name="Group 1183652" transform="translate(0 0)" clip-path="url(#clip-path)">
        <path id="Path_1029696" data-name="Path 1029696" d="M46.824,49.742c1.355-2.8,2.851-6.2,2.851-7.507,0-1.657-2.076-2.525-3.341-.763-1.645,2.3-2.352-1.041-4.256-1.037-1.877,0-2.861,3.094-4.327,1.023a1.924,1.924,0,0,0-3.6.725c0,1.791,1.43,5.022,2.763,7.649-4.6,3.6-9.185,10.322-9.185,16.42,0,8.865,5.783,13.062,14.2,13.062s14.2-4.2,14.2-13.062c0-6.153-4.683-12.933-9.309-16.509m-5.58,12.971h1.377a4.887,4.887,0,0,1,4.859,5.368,4.96,4.96,0,0,1-4.047,4.287v1.958a.4.4,0,0,1-.4.4h-2.2a.4.4,0,0,1-.4-.4V72.4a4.883,4.883,0,0,1-4.052-4.379.4.4,0,0,1,.406-.425H39a.385.385,0,0,1,.388.3,1.885,1.885,0,0,0,1.856,1.577h1.27a1.956,1.956,0,0,0,1.961-1.564,1.88,1.88,0,0,0-1.854-2.194H41.462a5.032,5.032,0,0,1-5.077-4.393,4.884,4.884,0,0,1,4.046-5.3v-1.92a.4.4,0,0,1,.4-.4h2.2a.4.4,0,0,1,.4.4v1.921a4.886,4.886,0,0,1,4.052,4.38.4.4,0,0,1-.405.427H44.865a.386.386,0,0,1-.389-.3,1.884,1.884,0,0,0-1.856-1.577h-1.27a1.956,1.956,0,0,0-1.961,1.561,1.883,1.883,0,0,0,1.854,2.2" transform="translate(-12.416 -18.105)" fill="#203a72"/>
        <path id="Path_1029697" data-name="Path 1029697" d="M5.921,42.747.208,48.092a.662.662,0,0,0,0,.966L5.921,54.4a.661.661,0,0,0,1.113-.483V51.342h8.275a.661.661,0,0,0,.662-.662V46.468a.661.661,0,0,0-.662-.661H7.034V43.23a.661.661,0,0,0-1.113-.483" transform="translate(0 -19.059)" fill="#14a0de"/>
        <path id="Path_1029698" data-name="Path 1029698" d="M23.805,15.561l-7.819-.26a.662.662,0,0,0-.683.683l.26,7.819a.661.661,0,0,0,1.128.445l1.822-1.822,5.852,5.851a.66.66,0,0,0,.935,0L28.279,25.3a.66.66,0,0,0,0-.935l-5.851-5.852,1.822-1.822a.661.661,0,0,0-.445-1.128" transform="translate(-6.852 -6.851)" fill="#14a0de"/>
        <path id="Path_1029699" data-name="Path 1029699" d="M54.4,5.921,49.059.209a.663.663,0,0,0-.966,0L42.748,5.921a.661.661,0,0,0,.483,1.113h2.577v8.275a.661.661,0,0,0,.662.662h4.213a.661.661,0,0,0,.661-.662V7.034h2.577A.661.661,0,0,0,54.4,5.921" transform="translate(-19.06 0)" fill="#14a0de"/>
        <path id="Path_1029700" data-name="Path 1029700" d="M80.652,23.8l.26-7.819a.662.662,0,0,0-.683-.683l-7.818.26a.661.661,0,0,0-.446,1.128l1.822,1.823-5.851,5.851a.66.66,0,0,0,0,.935l2.979,2.979a.66.66,0,0,0,.935,0L77.7,22.425l1.822,1.822a.661.661,0,0,0,1.128-.445" transform="translate(-30.332 -6.851)" fill="#14a0de"/>
        <path id="Path_1029701" data-name="Path 1029701" d="M88.022,54.4l5.712-5.345a.662.662,0,0,0,0-.966l-5.712-5.345a.661.661,0,0,0-1.113.483v2.577H78.635a.661.661,0,0,0-.662.662v4.213a.661.661,0,0,0,.662.661H86.91V53.92a.661.661,0,0,0,1.113.483" transform="translate(-34.912 -19.06)" fill="#14a0de"/>
      </g>
    </g>
  </g>
</svg>
