<svg xmlns="http://www.w3.org/2000/svg" xmlns:xlink="http://www.w3.org/1999/xlink" width="555.513" height="266" viewBox="0 0 555.513 266">
  <defs>
    <clipPath id="clip-path">
      <rect id="Rectangle_457783" data-name="Rectangle 457783" width="311.52" height="214.442" fill="none"/>
    </clipPath>
  </defs>
  <g id="img20" transform="translate(2429 2455)">
    <rect id="Rectangle_456651" data-name="Rectangle 456651" width="555.513" height="266" transform="translate(-2429 -2455)" fill="#ffd8c7"/>
    <g id="Group_1181086" data-name="Group 1181086" transform="translate(-2307 -2429)">
      <g id="Group_1181085" data-name="Group 1181085" clip-path="url(#clip-path)">
        <path id="Path_1026585" data-name="Path 1026585" d="M33.6.072c6.012-.705,20.621,3.805,21.67,10.617,1.017,6.6-4.263,7.926-3.49,13.38.156,1.1,2.212,3.759,2.036,4.654-.181.92-2.7,1.431-2.909,1.745-.181.267-.5,3.257-.873,4.072-2.183,4.759-4.7,6.836-10.035,4.508-3.58,11.93,17.835,16.2,16.434,28.069-.143,1.207-2.4,5.236-2.327,5.526.091.366,5.267,3.337,6.254,4.218,4.352,3.883,2.3,5.96,9.308,4.945,6.127-.888,9.167-4.515,16-1.745,1.818.737,10.23,6.275,6.981,8.435l13.38.291,9.744-29.814c.239-2.219,3.687-1.476,4.072-.291.869,2.675-9.6,28.653-10.035,33.6,2.679-.6,12.431.8,14.253,0,.59-.259.18-2.414,2.036-2.909,2.758-.735,13.927,1.215,15.271-1.018.493-.819.14-2.269,0-3.2-.756-5.029-5.974-24.788-7.853-29.378a12.457,12.457,0,0,1-.727-1.309l-.727.727-3.2,22.979c-.755,1.22-6.451.871-6.108-1.454l3.781-25.306L110.385,37.594c-2.655,2.325-.559,3.587-.436,5.963a15.624,15.624,0,0,1-2.182,9.162c-1.205.14-4.545-3.43-4.945-3.49-.833-.125-2.471,2.372-5.817.582-3.12-1.669-1.234-4.5-1.6-5.963-.116-.466-4.461-3.149-4.945-4.072a14.774,14.774,0,0,1,8.29-5.09,17.5,17.5,0,0,1,3.49.291c1.312-.332,3.478-8.791,8.726-4.072,3.049,2.742.005,4.755.145,5.672.152,1,13.84,11.2,15.271,13.235l3.927-27.487c.25-1.7,5.533-.442,5.817.291l-3.2,27.051c1.712,1.023,2.575,1.309,3.49,3.2,1.989,4.108,8.147,27.214,9.017,32.286.456,2.659.62,4.935-1.454,6.981l9.6.582-.145,7.708-10.035.145-.436,113.875L141.8,100.422l-57.737.145v11.344c10.737,4.366,22.154,5.154,19.779,20.07-.616,3.871-3.379,7.421-3.2,11.344.606,13.232,6.992,32.382,8.726,46.539.09.739.659,4.709.582,4.945-.282.87-1.976-.111-.873,2.909,2.541,6.952,21.448,7.952,22.106,12.8.364,2.679-3.011,3.386-5.09,3.636-2.936.355-25.525.221-27.051-.582-4.471-2.353.621-12.091-1.309-15.271-.616-1.015-1.6.489-2.327-.873-.592-1.111-1.151-4.613-1.745-6.108-2.654-6.67-5.23-13.429-8.29-19.924-.2.684-1.213,2.231-1.309,2.763-.424,2.35-.539,31.591,0,33.159.249.724,3,1.684,2.327,4.654-.389,1.713-2.341.753-2.472,2.472-2.654-2.123-6.03-.582-9.308-1.745-1.766-.628-9.671-8.552-10.18-8.144-.4,3.191,1.762,6.873.582,9.89-1.064.017-1.523-9.881-1.891-10.908-1.436-4.005-12.668-5.172-2.327-13.671l-6.108-41.012-33.6-.145-10.035,65.3H9.89l9.89-65.155c-5.553-.46-8.273-2.11-9.89-7.563L0,74.389a5.122,5.122,0,0,1,6.545-.145c3.443,2.73,8.357,28.279,8.29,33.3-.032,2.38-1.125,8.679-3.636,9.744-1.546.656-2.666-.212-3.927.436l3.2,21.524,18.034.291c-12.055-4.623-14.043-15.57-12.8-27.342.426-4.033,2.741-8.759,3.49-12.8,2.111-11.382-1.244-22.706-3.927-33.6A10.8,10.8,0,0,1,3.49,53.447c.307-2.145,2.9-5.172,3.2-6.69.921-4.626-2.1-7.778.873-13.089C10.851,27.8,17.1,28.579,19.2,20,21.272,11.525,22.039,1.428,33.6.072m.582.873C21.568,2.18,22.264,13.988,19.779,22.324,17.37,30.407,7.319,28.933,7.272,40.358c-.008,1.875.867,3.734.582,5.817-.3,2.19-2.7,4.666-3.2,6.981A9.655,9.655,0,0,0,15.707,64.791c-.8-6.472-.586-16.184,5.672-19.924,4.136-2.472,9.649-1.194,10.617-7.417.1-.648.1-9.681,0-10.18-.282-1.4-3.934-3.9-1.163-7.272,2.12-2.578,3.877-.083,5.09.145,5.046.949,12.236-5.809,13.671-10.471,1.331-.44,3.131,7.167,2.763,8.29C60.19,7.342,42.349.145,34.177.945M49.884,11.416c-1.766,4.359-9.436,10.975-14.253,9.89-.826-.186-2.471-2.984-4.218-.436-2.2,3.2,1.934,5.484,2.036,5.817.264.864-.838.789-.873,1.163-.473,5.156,2.622,11.513-3.2,15.125,1.483.351,11.483,7.656,12.216,6.4-.836-1.556-2.884-3.487-3.2-5.236-.28-1.555.629-4.976.582-5.236-.088-.478-4.043-2.853-3.49-3.781,2.334.722,3.881,3.261,6.545,3.636,2.782.391,5.289-.3,6.108-3.2-3.009.067-5.384-1.855-5.09-5.09.339-.526,5.35,1.659,6.254,1.309.241-.093.812-3.414,3.345-3.345-3.881-5.19.484-11.552-2.763-17.016m82.025,11.053c-.378.121-.4.8-.727,1.018l-7.272,53.52c.312.663,3.778.995,4.072.582l7.272-52.356c1.066-2.08-2.347-3.083-3.345-2.763m-24.724,8.144c-.677.132-3.7,4.1-3.636,4.508.05.306,4.175,2.635,4.508,3.636,1-1.521,3.442-3.784,3.054-5.672-.242-1.176-2.65-2.722-3.927-2.472M44.648,31.777c-1.22,2.319,5.769,4.2,4.363.873Zm53.811,4.072c-1.033.145-6.384,2.65-6.254,3.927l14.98,11.489c4.3-6.907.272-16.675-8.726-15.416M27.487,43.7c-20.232.622-5.955,38.25-6.254,49.011-.211,7.6-4.044,14.631-4.654,22.106,15.9,3.627,30.9-7.891,46.975-1.6a25.768,25.768,0,0,0,3.781-22.688c-7.851,1.3-22.005,7.878-29.669,5.817C31.876,94.793,27.76,82.6,25.306,77.589c-.063-.129-1.621-1.2-2.036-2.036-.65-1.317-4.34-10.936-3.636-11.489.664-.147.757.263,1.018.727.946,1.68,2.75,10.735,4.508,11.2l12.653-5.672L31.85,52.429,43.194,82.97l19.924-1.018c-.163-2.764-10.048-8.345-10.18-9.017-.17-.858,1.784-3.551,2.036-4.654.887-3.883-.16-6.36-2.618-9.308-.671-.8-8.808-8.805-9.453-8.871-.451-.046-.923.782-2.909.291-3.4-.843-9.2-6.791-12.507-6.69m68.936.873c-1.968,3.1,2.693,6.574,5.09,3.927Zm36.649,6.4c-1.819.675.661,2.883.727,3.054,1.936,5.019,8.368,27.267,8.726,32,.133,1.764-.054,3.748-2.182,4.218-2.883.636-12.534-.783-14.543.291a2.345,2.345,0,0,0-.436,1.6c.521.635,15.378.379,16.434.145,2.631-.581,2.983-4.106,2.763-6.254-.491-4.794-6.568-25.65-8.435-30.832-.3-.845-1.742-4.7-3.054-4.218m-15.707,7.563c-1.59.41-8.435,27.824-10.471,31.123H78.971l-.436,2.182,29.814.436c3.75-10.878,7.44-21.945,10.326-33.014a2.353,2.353,0,0,0-1.309-.727M37.377,71.917c-.621-.028-9.568,5.046-11.2,5.381,2.677,4.74,6.3,16.682,12.071,18.179,7.556,1.962,24.315-6.029,32.286-7.272,1.979-.309,3.836.484,6.108,0,1.786-.38,4.175-2.548,6.108-2.618,2.679-.1,5.225,2.5,7.853,2.618-1.611-2.87-4.872-3.218-7.272-4.363-2.76-1.317,1.155-.959,2.327-.582,1.3.417,6.346,4.6,6.835,3.927-2.914-3.956-8.2-7.569-13.235-7.126-2.046.179-5.37,1.919-7.563,2.327-9.248,1.718-19.65,1-29.087,1.454-1.8-1.209-3.827-11.862-5.236-11.926m-35.2,2.327a3.829,3.829,0,0,0-1.018.727l5.817,41.3c4.22,1.936,6.278-2.6,6.69-6.108.689-5.856-3.514-27.057-6.108-32.577-.965-2.054-2.724-4.176-5.381-3.345M82.17,86.751c-.323.033-3.067,1.116-3.2,1.745l8.871-.145c-1.685-.672-3.793-1.791-5.672-1.6m-5.236,2.327c-.862-.087-8.362.445-8.581,1.018,1.943,6.132,1.389,12.294-.582,18.325l14.98,3.345.145-10.908-10.762-.873c.4-5.623-2.2-8.749,5.381-7.708-.538-1.393.785-3.061-.582-3.2m-3.49,4.363.291,6.108,78.971-.436-.145-5.672Zm-6.108,16c-.224.058-2.509,3.636-2.036,4.072l17.6,4.508c-.2-1.047.329-4.4-.145-5.09-.449-.65-14.651-3.689-15.416-3.49M48.43,112.348c-10.155.6-20.689,6.437-31.414,4.072-3.839,30.517,31.274,22.358,50.32,23.269,2.665.127,11,.169,12.362,2.472.739,1.248,2.045,17.625,3.054,17.6l.145-39.994C72.361,116.659,59.5,111.7,48.43,112.348m35.777.873a28.439,28.439,0,0,0-.145,5.381c.172.439,7.263,3.055,8.581,3.927,6.181,4.09,6.246,10.781,7.563,17.452,2.393-7.616,5.9-16.182-2.327-21.524-1.3-.841-13.1-5.695-13.671-5.236m0,6.69-.145,44.357,12.216,32.286c1.1,1.274,10.475-1.21,12.362-1.891.263-.314.158-1.4.145-1.891-.264-10.5-8.047-51.229-11.344-61.664-2.308-7.306-6.7-8.4-13.235-11.2m-73.3,20.652c.273,2.837,2.98,6.468,5.817,6.981,12.859,2.323,32.934-1.745,46.539,0,4.724-2.126,1.8-6.318-2.036-6.981Zm54.1.291c5.319,7.986-3.367,8.115-9.162,8l5.963,39.7a20.649,20.649,0,0,0,3.054-3.927c.131-1.294-1.234-.573-1.163-2.327.1-2.536,7.869-25.316,9.308-29.378.543-1.534,4.932-10.743,4.508-11.2a53.74,53.74,0,0,0-12.507-.873M78.68,142.6c-6.072,12.823-9.661,27.01-13.671,40.431a50.513,50.513,0,0,0,11.053,4.945c.72-.134,6.7-12.225,6.835-12.944,1.387-7.225-1.166-12.78-2.327-19.2-.794-4.391-.915-8.878-1.891-13.235m5.527,24.433v4.363c1.527-1.431.509-2.65,0-4.363M82.752,177.5c-.564-.276-4.892,10.468-5.672,11.2-1.047.983-1.217-.337-2.036.582-3.192,3.586,3.038,15.742,7.417,17.307Zm-16.87,7.272c-.366.1-3.764,5.329-3.345,6.545.805,2.336,12.657,14.683,14.98,13.234-1.1-4.346-4.923-7.952-4.508-12.653.051-.576,1.217-2.987,1.163-3.2-.111-.445-7.847-4.049-8.29-3.927m-5.236,6.69c-5.383,4.689-2.607,6.376,1.745,9.89.1-1.515-.726-9.907-1.745-9.89m2.327,2.327c-.345.259.75,7.981,1.018,8.581.381.849,10.309,9.058,11.489,9.453,3.437,1.152,9.243,1.812,7.417-3.636a37.753,37.753,0,0,0-4.218-2.763c-.369-.131-1.553.573-2.327.291-5.165-1.879-9.768-7.935-13.38-11.926m43.63,2.327c-.4.012-7.52,1.542-7.708,1.891a48.252,48.252,0,0,0,0,6.108c.707,1.763,19.977,5.844,22.106,2.036-4.015-1.635-9.583-2.993-12.216-6.69-.93-1.3-.46-3.4-2.182-3.345m-7.853,9.6c-.644,2.5-1.4,6.588,2.036,7.272,3.257.649,23.893.538,27.051-.291.437-.113,2.049-.617,2.182-1.018.791-2.144-6-5.029-7.126-5.09s-2.854,1.71-4.363,2.036c-5.572,1.2-14.282-1.446-19.779-2.909m-14.543,2.909-.145,3.345c2.266.707,1.35-2.432.145-3.345" transform="translate(0 0)" fill="#101722"/>
        <path id="Path_1026586" data-name="Path 1026586" d="M44.949,3.1c8.172-.8,26.013,6.4,18.179,17.016.368-1.123-1.433-8.729-2.763-8.29C58.931,16.489,51.74,23.247,46.694,22.3c-1.213-.228-2.97-2.723-5.09-.145-2.771,3.368.882,5.869,1.163,7.272.1.5.1,9.532,0,10.18-.968,6.223-6.481,4.945-10.617,7.417-6.258,3.741-6.468,13.452-5.672,19.924A9.655,9.655,0,0,1,15.426,55.312c.5-2.314,2.9-4.791,3.2-6.981.286-2.084-.59-3.943-.582-5.817.047-11.425,10.1-9.951,12.507-18.034C33.036,16.144,32.34,4.336,44.949,3.1" transform="translate(-10.772 -2.156)" fill="#576776"/>
        <path id="Path_1026587" data-name="Path 1026587" d="M121.506,39.249c3.247,5.464-1.118,11.826,2.763,17.016-2.533-.069-3.1,3.252-3.345,3.345-.9.35-5.914-1.835-6.254-1.309-.293,3.235,2.081,5.157,5.09,5.09-.82,2.9-3.327,3.591-6.108,3.2-2.664-.375-4.211-2.914-6.545-3.636-.553.929,3.4,3.3,3.49,3.781.047.259-.862,3.681-.582,5.236.315,1.749,2.364,3.68,3.2,5.236-.734,1.257-10.733-6.048-12.216-6.4,5.821-3.613,2.726-9.969,3.2-15.125.034-.374,1.136-.3.873-1.163-.1-.333-4.231-2.616-2.036-5.817,1.747-2.547,3.391.25,4.218.436,4.816,1.086,12.487-5.53,14.253-9.89m-3.49,7.563c-.288.047-2.126.627-1.454,1.454l4.508-.436c.029-1.1-2.325-1.138-3.054-1.018m.873,2.909c-.968.209-.9,3.036.582,2.327.981-.47.271-2.511-.582-2.327" transform="translate(-71.622 -27.833)" fill="#fdfefb"/>
        <path id="Path_1026588" data-name="Path 1026588" d="M155.6,65.134c.729-.12,3.083-.085,3.054,1.018l-4.508.436c-.671-.828,1.167-1.407,1.454-1.454" transform="translate(-109.204 -46.155)" fill="#0a151e"/>
        <path id="Path_1026589" data-name="Path 1026589" d="M160.93,75.221c.853-.184,1.563,1.857.582,2.327-1.482.709-1.549-2.118-.582-2.327" transform="translate(-113.664 -53.333)" fill="#0d1824"/>
        <path id="Path_1026590" data-name="Path 1026590" d="M658.222,181.29l-.873.582c-1.764-.557-14.465-3.582-15.271-3.2-.268.127-2.318,4.554-3.054,5.09,6.008,2.332,16.445,3.3,21.67,6.835,8.97,6.079,6.094,29.456,9.453,38.54,1.012,2.737,6.4,7.755,7.708,10.908.756.209,8.042-3.749,8.29-4.508.113-.349-.262-.422-.291-.727,1.262-1.428.46,1.306.873,2.036.364.643,3.991,1.963,4.8,2.036,3.927.361,7.749-2.211,12.216-1.454,2.115.358,4.529,2.222,4.218,4.508-2.094,2.6-22.8,9.852-23.269,11.053-.369.939-.125,6.719.727,7.417,3.153,2.589,18.729-3.31,18.47,7.417l-40.285.145c-3.868-2.647-.454-8.586-1.309-11.78-.344-1.286-1.327-.884-1.745-2.036-2.839-7.821-6.52-18.54-8.726-26.469a61.472,61.472,0,0,1-2.036-11.344l-24.578-.145c-1.228.545.623,5.489-1.454,6.4-.414.18-1.9-.247-2.181.145-.353.5-.481,11.635-.291,12.216.227.7,1.819-.157,2.327,2.618.392,2.138-.519,10.582,0,11.635l20.8,7.417c1.429,2.8,4.787,3.973,4.508,7.417-.456,5.64-9.783,6-9.308-1.454.044-.7,1.444-1.905.436-2.472l-18.616-3.49c-1.613,3.973,2.364,3.886,1.6,8.29-.923,5.32-10.321,4.026-9.017-2.618.121-.617,3.718-5.108,1.309-5.963-.882-.314-15.9,3.962-18.325,3.781-.422.265.665,3.255.436,4.508-.737,4.04-6.886,4.974-8.726,1.163-2.228-4.616,2.462-5.692,3.927-9.162l20.8-7.417c.512-1.041-.381-9.5,0-11.635.5-2.8,1.784-1.908,2.036-2.327.315-.524.247-11.658,0-12.216-.344-.777-4.15.192-3.636-3.054-1,1.806-5.666,3.042-6.4,3.781s-.118,1.446-1.454,2.618c-1.489,1.306-8.094,4.226-8.581.436-.3-2.353,5.444-4.764,7.126-4.8.758-.015,1.549.89,2.327.873,1.75-.041,9.435-5.342,6.4-6.69-2.375-1.054-13.845.834-18.906-.873-18.075-6.1-8.709-29.212-10.326-42.9-1.1-9.337-12.227-40.777-10.471-46.83,2.059-7.1,11.124-3.8,14.98-5.09.56-.188,5.329-9.17,5.672-10.326,2.8-9.444-1.368-18.491,5.526-27.342C601.879,77.493,609.31,75.378,615.9,76c2.165.2,11.92,6.723,12.944,8.581,3.568,6.479-.671,8.617-1.454,12.8-1.223,6.524.579,15.845-8.29,18.47-1.44.426-3.556-1.047-3.054,2.182.292,1.877,4.347,2.583,5.963,3.636,4.452,2.9,5.084,7.01,7.417,11.2,1.839,3.3,4.464,3.293,4.072,8.726-.1,1.454-1.774,4.407-1.745,4.654.044.377,3.74,3.635,4.508,3.636.849,0,5.17-2.383,6.69-2.618,5.543-.857,11.142,2.567,13.525,7.417-2.664,3.155-7.409-.529-10.617-.145-.326.039-5.9,2.441-5.963,2.763a22.635,22.635,0,0,1,2.618,20.07c5.264,1.288,10.547,2.226,15.707,3.927M612.992,77.159c-5.654.889-10.527,10.99-9.017,16.289,2.531,1.177,2.009-3.876,2.472-5.381,1.732-5.625,5-9.551,11.053-10.471-.02-.368-3.96-.523-4.508-.436m-4.945.291c-15.845,1.794-12.118,21.943-14.4,31.559-1.486,6.266-7.631,12.541-8.726,18.906-1.142,6.634.979,12.454,7.126,15.561-.928-6.908-3.389-16.212,3.2-21.233,3.612-2.753,9.478-2.358,10.326-8,.131-.871-.293-7.834-.582-8.144-.635-.683-4.719.073-5.817-4.363-1.566-6.324,2.837-6.509,3.49-8.435.351-1.033.175-4.546.582-6.108a16.2,16.2,0,0,1,6.69-9.6c-.118-.229-1.553-.184-1.891-.145m8.726,1.163c-4.695.433-8.544,6.081-9.453,10.326-.581,2.711-1.345,6.644,2.472,6.545,4.167-.109,11.742-6.069,13.089-10.18,2.82,2.568,4.141,5.628,4.945,9.308a12.685,12.685,0,0,0,1.018-7.126c-.657-3.661-8.565-9.195-12.071-8.871m6.108,8.726c-2.758,4.993-8.18,7.779-13.525,9.162a10.418,10.418,0,0,1,.582,4.654c-.184,1.33-1.714,3.02-1.745,3.2-.437,2.513,8.076,8.426,8.435,5.236.014-.121-1.192-1.672-.146-2.182a42.268,42.268,0,0,1,5.817.873c2.4,1.374-4.9.983-5.09.436,1.258,1.315,4.678.441,3.781,3.2-.86,2.644-8.49-1.1-10.035-2.182a15.971,15.971,0,0,1-3.781-4.363,2.367,2.367,0,0,0-1.309.727c-.1.382,1.1,5.928.873,7.853a8.459,8.459,0,0,1-3.2,5.526c1.836,1.587,12.476,9.077,13.671,4.654.723-2.677-1.666-3.278-2.036-4.945-.2-.9.258-3.164,0-3.781-.146-.349-6.389-3.285-6.108-4.363.365-1.4,4.5,2.635,5.672,3.054,6.64,2.379,10.07-3.481,11.2-9.162a67.312,67.312,0,0,0,.582-7.272c-.536-1.29-3.629-.08-3.2-1.454.27-.865,2.4-.275,3.054-.145.888-.769-1.3-8.431-3.49-8.726M603.975,94.32c-5.648.5-5.11,11.913,1.745,10.471,4.483-.943,4.123-11-1.745-10.471m13.38,16.289c-.7,1.887,3.749,1.827,2.036,0Zm-15.125,9.308a55.429,55.429,0,0,0-6.981,3.781c-5.657,5.232-3.049,16.185-.873,22.688l11.78-3.054c.265-1.126-2.006-8.036-.727-8.29l3.781,18.616,25.16-3.345c-.339-.815-4.024-3.508-4.072-3.781-.077-.439,3.065-3.766,1.745-8.435-.757-2.679-7.137-7.759-7.272-8.435-.5-2.51,2.016.8,2.182.727-1.266-4.136-4.672-8.106-9.017-9.308,1.788,7.466-4.636,5.664-9.017,3.49-1.178-.584-6.283-4.671-6.69-4.654m-22.106,1.454c-2.793.293-6.881,1.72-7.708,4.8-1.392,5.184,9.282,36.59,10.471,45.085,2.265,16.187-8.967,38.136,12.944,44.067h53.52c.113-1.915.89-7.46-1.454-8.144H599.03c-12.938-2.668-8.01-15.8-7.708-24.869.6-17.943-8-35.439-11.053-52.647-.122-.685-.535-1.716.145-2.182.719-.1,3.858,12.456,4.218,13.816,3.682,13.915,7.974,28.286,7.563,42.758-.167,5.861-2.887,13.457.873,18.616,3.3,4.531,9.053,3.31,13.962,3.2a19.468,19.468,0,0,1-9.308-6.4c-10.248-14.051,2.605-25.868,0-40.722-.32-1.824-4.117-12.673-4.945-13.671-.41-.494-3.086-1.453-3.927-2.182-6.473-5.606-6.64-13.828-2.763-21.088-.21-.647-5.149-.522-5.963-.436m25.015,23.269c-2.093.078-7.226,2.6-9.744,2.763.749,4.138,4.353,16.631,8.581,17.888,6.811,2.026,25.062-6.806,32.286-9.017,1.116-.341,3.825-.426,5.526-.873,3.45-.906,4.762-3.323,9.308-.582l-4.945-3.781c2.938.333,4.819,2.774,7.272,4.072-1.237-2.407-4.194-4.172-6.69-4.945-1.549-2,3.129.19,3.781.582.427.256,4.59,4.541,4.508,3.345-7.34-10.372-13.243-4-21.67-2.182-7.463,1.613-16.523,1.289-24.142,2.909-2.005-.458-1.973-7.887-2.763-9.453-.4-.794-.423-.76-1.309-.727m32.286,12.507c-2.551,0-12.864,5.038-16.289,6.108-6.507,2.033-19.208,6.881-22.106-2.036.965,10.609-5.616,20-4.218,30.687l25.451-10.035c-2.962-1.073-6.256-1.519-8.871-3.345-.087-.253.273-.674.436-.727.525-.17,8.843,3.143,10.471,3.49,4.831,1.031,10.52.819,15.416,2.327a22.474,22.474,0,0,0,4.8-17.307c-.29-2.437-2.481-9.164-5.09-9.162m-15.707,25.306c-2.928.289-23.452,8.413-25.015,10.18-1.113,1.26,1.023,5.045,1.891,6.254,9.033,12.588,36.511,4.872,49.884,7.417,3.038,1.264,2.03,9.347,2.472,12.362,1.452,9.9,6.071,20.416,9.308,29.959.286.844.88,4.578,1.163,4.945,1.04,1.344,8.345-.942,10.035-1.309-1.888-14.735-2.58-30.34-5.09-44.939-.627-3.643-1.721-10.43-3.781-13.38-3.777-5.406-34.209-12.146-40.867-11.489m-8.726,33.741c-.115,1.258-.627,5.058.582,5.527a88.064,88.064,0,0,0,9.6,0c1.094-.425.972-5.224.291-5.527-1.361-.6-8.461.455-10.471,0m3.781,6.4c-.94.419-.19,11-.436,12.653l3.927.145c-.229-2.211.785-10.919.145-12.362-.255-.576-3.3-.585-3.636-.436m-14.834.582c-.684.067-5.2,2.126-5.381,2.763-1.556,5.622,13.392-3.551,5.381-2.763m68.645,8.144,2.182,21.088c-3.522,1.21,4.311,6.309,5.09,5.672L678,241.645Zm-55.556,5.236-.436,13.235-.727.727c-5.567,2.219-14.413,3.653-19.488,6.4-3.25,1.757-.551,2.039,1.454,2.618l20.652-4.072c.229.163.247,3.255.582,3.49a16.748,16.748,0,0,0,2.909,0c.426-.3.169-3.531.873-3.781l19.779,4.363c.756.215,3.912-.753,3.927-1.309l-21.67-8-.436-13.234Zm70.681.582c-.381-.023-5.468,3.726-6.544,3.927l3.054,8.871c.689.271,13.348-5.241,13.525-5.963a22.419,22.419,0,0,0-1.018-3.927c-.305-.166-3.915-.1-4.654-.291-1.716-.451-4.1-2.6-4.363-2.618m13.38,1.454c-6.041.881-.94,4.348-2.327,6.4-.707,1.047-12.048,4.939-13.816,6.254a2.365,2.365,0,0,0,1.6.436c1.178-.052,20.649-8.81,21.524-9.6,3.464-3.118-5.079-3.767-6.981-3.49M679.31,244.7l-.436,13.525c.241.492,4.2,1.239,4.508,1.018.253-.183.276-5.881.145-6.254-.052-.145-1.949-1.37-2.327-2.036a22.038,22.038,0,0,1-1.891-6.254m1.018,15.707c-.907-.308-.4-.849-1.309-1.163-1.466-.509-3.057-.922-4.508-1.454-1.911-1.21-3.65-3.985-3.927-4.072-.98-.311-5.732,1.7-7.272,1.163.358,2.423-1.792,11.425,1.164,12.216H689.49c.71-3.208-3.6-5.771-6.108-6.69a18.243,18.243,0,0,0-3.054,0m-87.988-.582c-3.27.352-4.162,5.721-1.164,6.981,6.129,2.574,7.193-7.632,1.164-6.981m51.484,0c-3.689.326-4.306,6.556-.582,7.272,5.973,1.149,5.757-7.728.582-7.272m-26.469.291c-3.445.835-3.052,8.162,2.327,6.981,3.7-.812,3.041-8.281-2.327-6.981m71.844,2.036c1.044.649,1.681,4.791,2.036,4.945.527.227,11.132.3,11.489-.145-1.126-6.748-8.6-4.389-13.525-4.8" transform="translate(-405.166 -53.817)" fill="#152331"/>
        <path id="Path_1026591" data-name="Path 1026591" d="M434,77.106c1-.32,4.411.683,3.345,2.763l-7.272,52.356c-.294.413-3.76.081-4.072-.582l7.272-53.52c.326-.217.349-.9.727-1.018" transform="translate(-302.09 -54.637)" fill="#7d8d9a"/>
        <path id="Path_1026592" data-name="Path 1026592" d="M691.839,80.192c.548-.086,4.488.068,4.508.436-6.053.92-9.321,4.846-11.053,10.471-.463,1.5.059,6.558-2.472,5.381-1.51-5.3,3.362-15.4,9.017-16.289" transform="translate(-484.014 -56.85)" fill="#eb8a7b"/>
        <path id="Path_1026593" data-name="Path 1026593" d="M640.4,81.172c.338-.038,1.773-.084,1.891.145a16.2,16.2,0,0,0-6.69,9.6c-.406,1.563-.231,5.075-.582,6.108-.654,1.926-5.056,2.111-3.49,8.435,1.1,4.436,5.182,3.68,5.817,4.363.289.311.713,7.273.582,8.144-.848,5.641-6.714,5.246-10.326,8-6.588,5.022-4.127,14.326-3.2,21.233-6.148-3.108-8.268-8.928-7.126-15.561,1.1-6.366,7.24-12.641,8.726-18.906,2.28-9.616-1.446-29.765,14.4-31.559" transform="translate(-437.522 -57.54)" fill="#586978"/>
        <path id="Path_1026594" data-name="Path 1026594" d="M703.281,85.216c3.506-.323,11.414,5.21,12.071,8.871a12.684,12.684,0,0,1-1.018,7.126c-.8-3.68-2.124-6.739-4.945-9.308-1.347,4.111-8.922,10.071-13.089,10.18-3.818.1-3.054-3.833-2.472-6.545.91-4.244,4.759-9.893,9.453-10.326" transform="translate(-491.674 -60.42)" fill="#576776"/>
        <path id="Path_1026595" data-name="Path 1026595" d="M359.633,105.184c1.277-.249,3.685,1.3,3.927,2.472.388,1.887-2.05,4.151-3.054,5.672-.333-1-4.459-3.33-4.508-3.636-.067-.412,2.958-4.376,3.636-4.508" transform="translate(-252.448 -74.57)" fill="#f38474"/>
        <path id="Path_1026596" data-name="Path 1026596" d="M153.149,109.249l4.363.873c1.406,3.33-5.583,1.446-4.363-.873" transform="translate(-108.501 -77.472)" fill="#fafbfb"/>
        <path id="Path_1026597" data-name="Path 1026597" d="M701.343,115.249c2.2.295,4.378,7.957,3.49,8.726-.651-.13-2.784-.719-3.054.145-.429,1.374,2.663.165,3.2,1.454a67.3,67.3,0,0,1-.582,7.272c-1.129,5.682-4.559,11.541-11.2,9.162-1.171-.419-5.307-4.454-5.672-3.054-.281,1.078,5.963,4.014,6.108,4.363.257.617-.2,2.884,0,3.781.37,1.667,2.759,2.268,2.036,4.945-1.195,4.423-11.835-3.067-13.671-4.654a8.46,8.46,0,0,0,3.2-5.527c.223-1.926-.973-7.471-.873-7.853a2.368,2.368,0,0,1,1.309-.727,15.971,15.971,0,0,0,3.781,4.363c1.545,1.083,9.175,4.826,10.035,2.182.9-2.759-2.523-1.884-3.781-3.2.188.546,7.488.937,5.09-.436a42.269,42.269,0,0,0-5.817-.873c-1.047.509.159,2.061.145,2.182-.359,3.191-8.873-2.723-8.435-5.236.031-.179,1.562-1.869,1.745-3.2a10.418,10.418,0,0,0-.582-4.654c5.346-1.384,10.767-4.169,13.525-9.162m-7.272,7.853c-.286.039-1.651.512-1.745.873-.187.5,4.668.659,4.8.436.763-1.291-2.563-1.376-3.054-1.309m.873,2.909c-.635.17-.88,2.606.582,2.036.688-.268.22-2.251-.582-2.036m7.853.582c-.594.244-.672,2.549.582,2.036.707-.289.807-2.606-.582-2.036m-2.618.291c-1.152.049.65,4.415.436,5.09-.078.246-2.935,1.408-1.309,1.891,3.267.971,2.218-5.722.873-6.981" transform="translate(-483.628 -81.727)" fill="#fdfefc"/>
        <path id="Path_1026598" data-name="Path 1026598" d="M323.248,122.979c9-1.259,13.028,8.509,8.726,15.416l-14.98-11.489c-.13-1.277,5.22-3.782,6.254-3.927" transform="translate(-224.789 -87.13)" fill="#f68877"/>
        <path id="Path_1026599" data-name="Path 1026599" d="M674.1,139.2c5.869-.524,6.228,9.529,1.745,10.471-6.855,1.442-7.393-9.967-1.745-10.471" transform="translate(-475.293 -98.698)" fill="#f58b7a"/>
        <path id="Path_1026600" data-name="Path 1026600" d="M719.232,142.209c.491-.067,3.817.018,3.054,1.309-.131.222-4.986.06-4.8-.436.095-.36,1.459-.833,1.745-.873" transform="translate(-508.789 -100.833)" fill="#0a151f"/>
        <path id="Path_1026601" data-name="Path 1026601" d="M67.908,150.246c3.307-.1,9.1,5.847,12.507,6.69,1.986.492,2.458-.337,2.909-.291.645.066,8.782,8.067,9.453,8.871,2.458,2.947,3.5,5.424,2.618,9.308-.252,1.1-2.206,3.8-2.036,4.654.133.672,10.017,6.253,10.18,9.017l-19.924,1.018L72.271,158.972l5.963,17.888-12.653,5.672c-1.758-.463-3.562-9.518-4.508-11.2-.261-.464-.354-.874-1.018-.727-.7.553,2.986,10.172,3.636,11.489.415.841,1.973,1.907,2.036,2.036,2.455,5.016,6.57,17.2,12.362,18.761,7.664,2.061,21.818-4.517,29.669-5.817a25.768,25.768,0,0,1-3.781,22.688C87.9,213.472,72.9,224.99,57,221.363c.61-7.475,4.443-14.5,4.654-22.106.3-10.761-13.978-48.39,6.254-49.011" transform="translate(-40.421 -106.543)" fill="#f68775"/>
        <path id="Path_1026602" data-name="Path 1026602" d="M725.28,152.209c.8-.215,1.27,1.768.582,2.036-1.462.57-1.216-1.866-.582-2.036" transform="translate(-513.964 -107.925)" fill="#07121c"/>
        <path id="Path_1026603" data-name="Path 1026603" d="M330.348,153.249l5.09,3.927c-2.4,2.647-7.058-.83-5.09-3.927" transform="translate(-233.925 -108.674)" fill="#fafbfa"/>
        <path id="Path_1026604" data-name="Path 1026604" d="M752.488,154.03c1.389-.57,1.289,1.747.582,2.036-1.253.513-1.176-1.792-.582-2.036" transform="translate(-533.319 -109.164)" fill="#0d1821"/>
        <path id="Path_1026605" data-name="Path 1026605" d="M741.155,155.249c1.346,1.259,2.394,7.952-.873,6.981-1.626-.483,1.231-1.644,1.309-1.891.214-.676-1.588-5.041-.436-5.09" transform="translate(-524.603 -110.092)" fill="#0e1923"/>
        <path id="Path_1026606" data-name="Path 1026606" d="M884.182,161.392c5.029,1,21.58-1.446,25.306.291a5.469,5.469,0,0,1,1.309,1.6c.25.971.244,19.046,0,20.07a4.523,4.523,0,0,1-2.182,2.182c-4.741,1.161-15.111-1.186-19.779,0-.984.25-5.943,5.679-6.4,5.527L882,163.574Zm.582.873-1.6,1.309.145,25.451c.58-1.053,4.878-3.843,5.09-4.508.591-1.85-.326-3.728,1.454-6.108,2.411-3.224,8.627-3.627,11.78-1.309,2.833,2.082,2.842,7.078,3.2,7.272.748.4,4.215.108,4.8-1.018.442-.852.6-17.826.291-19.2a3.306,3.306,0,0,0-1.018-1.6c-2.685-1.493-19.98.531-24.142-.291m10.18,14.253a6.608,6.608,0,0,0-5.236,7.853l13.816-.145c.128-4.925-3.6-8.433-8.581-7.708" transform="translate(-625.454 -114.199)" fill="#18141c"/>
        <path id="Path_1026607" data-name="Path 1026607" d="M887.6,164.576c4.162.822,21.457-1.2,24.142.291a3.306,3.306,0,0,1,1.018,1.6c.308,1.371.151,18.346-.291,19.2-.585,1.126-4.052,1.422-4.8,1.018-.358-.194-.366-5.189-3.2-7.272-3.153-2.318-9.369-1.915-11.78,1.309-1.78,2.38-.864,4.258-1.454,6.108-.212.666-4.51,3.455-5.09,4.508L886,165.885Zm11.053,3.2c-4.319.508-4.974,7.415-1.454,8.726,7.856,2.928,9.156-9.633,1.454-8.726" transform="translate(-628.291 -116.51)" fill="#f68877"/>
        <path id="Path_1026608" data-name="Path 1026608" d="M438.6,175.146c1.312-.487,2.75,3.372,3.054,4.218,1.867,5.182,7.944,26.038,8.435,30.832.22,2.147-.133,5.673-2.763,6.254-1.056.233-15.913.49-16.434-.145a2.345,2.345,0,0,1,.436-1.6c2.009-1.074,11.661.345,14.543-.291,2.128-.469,2.315-2.454,2.182-4.218-.358-4.729-6.79-26.976-8.726-32-.066-.172-2.546-2.38-.727-3.054" transform="translate(-305.532 -124.171)" fill="#798a98"/>
        <path id="Path_1026609" data-name="Path 1026609" d="M920.431,176.135c7.7-.907,6.4,11.655-1.454,8.726-3.519-1.312-2.865-8.218,1.454-8.726m-.291,1.163c-2.941.6-2.813,6.023-.291,6.69,6.193,1.637,6.033-7.853.291-6.69" transform="translate(-650.069 -124.869)" fill="#1c1922"/>
        <path id="Path_1026610" data-name="Path 1026610" d="M923.15,180.007c5.742-1.163,5.9,8.327-.291,6.69-2.522-.667-2.65-6.095.291-6.69" transform="translate(-653.079 -127.578)" fill="#798997"/>
        <path id="Path_1026611" data-name="Path 1026611" d="M755.729,193.249a5.684,5.684,0,0,1,1.891,4.8c-.583,2.631-6.665,2.59-5.817-.873,1.18-1.521,3.278-.761,4.945-1.163Zm-2.327,4.072c-2.848.83,2.916,2.521,3.054.727.075-.972-2.522-.882-3.054-.727" transform="translate(-533.07 -137.039)" fill="#171720"/>
        <path id="Path_1026612" data-name="Path 1026612" d="M729.314,195.249h2.036c1.713,1.827-2.74,1.887-2.036,0" transform="translate(-517.126 -138.457)" fill="#86909a"/>
        <path id="Path_1026613" data-name="Path 1026613" d="M308.831,201.239a2.353,2.353,0,0,1,1.309.727c-2.885,11.068-6.575,22.136-10.326,33.014L270,234.543l.436-2.182H298.36c2.036-3.3,8.882-30.712,10.471-31.123" transform="translate(-191.466 -142.702)" fill="#788997"/>
        <path id="Path_1026614" data-name="Path 1026614" d="M755.576,207.014c.532-.155,3.129-.245,3.054.727-.138,1.794-5.9.1-3.054-.727" transform="translate(-535.243 -146.732)" fill="#e08a80"/>
        <path id="Path_1026615" data-name="Path 1026615" d="M913.332,214.017c4.977-.725,8.709,2.783,8.581,7.708l-13.816.145a6.608,6.608,0,0,1,5.236-7.853" transform="translate(-643.842 -151.699)" fill="#778896"/>
        <path id="Path_1026616" data-name="Path 1026616" d="M652.171,227.249c.407-.017,5.512,4.07,6.69,4.654,4.381,2.174,10.805,3.976,9.017-3.49,4.345,1.2,7.751,5.172,9.017,9.308-.165.069-2.68-3.237-2.182-.727.134.676,6.515,5.756,7.272,8.435,1.319,4.669-1.822,8-1.745,8.435.048.274,3.734,2.966,4.072,3.781l-25.16,3.345-3.781-18.616c-1.279.254.992,7.164.727,8.29l-11.78,3.054c-2.176-6.5-4.784-17.456.873-22.688a55.432,55.432,0,0,1,6.981-3.781m20.07,25.887a10.993,10.993,0,0,1-9.6,2.618c-.426-.1-2.173-2.085-2.472-.727-.622,2.819,11.982,2.243,12.8-1.454Z" transform="translate(-455.108 -161.149)" fill="#7b8c9a"/>
        <path id="Path_1026617" data-name="Path 1026617" d="M582.4,232.078c.814-.086,5.753-.211,5.963.436-3.876,7.26-3.71,15.482,2.763,21.088.841.729,3.517,1.687,3.927,2.182.828,1,4.625,11.847,4.945,13.671,2.605,14.854-10.248,26.671,0,40.722a19.468,19.468,0,0,0,9.308,6.4c-4.909.111-10.659,1.332-13.962-3.2-3.76-5.159-1.039-12.754-.873-18.616.411-14.472-3.88-28.842-7.563-42.758-.36-1.36-3.5-13.92-4.218-13.816-.681.465-.267,1.5-.145,2.181,3.056,17.208,11.65,34.7,11.053,52.647-.3,9.069-5.23,22.2,7.708,24.869h48.866c2.345.684,1.567,6.229,1.454,8.144H598.11c-21.91-5.93-10.679-27.88-12.944-44.067-1.189-8.5-11.863-39.9-10.471-45.085.827-3.08,4.914-4.506,7.708-4.8" transform="translate(-407.446 -164.524)" fill="#60717f"/>
        <path id="Path_1026618" data-name="Path 1026618" d="M101.2,247.249c1.409.063,3.44,10.717,5.236,11.926,9.437-.451,19.839.264,29.087-1.454,2.193-.408,5.517-2.147,7.563-2.327,5.039-.442,10.321,3.17,13.234,7.126-.489.669-5.54-3.51-6.835-3.927-1.172-.377-5.087-.735-2.327.582,2.4,1.145,5.661,1.493,7.272,4.363-2.629-.122-5.175-2.714-7.853-2.618-1.934.07-4.323,2.237-6.108,2.618-2.273.484-4.129-.309-6.108,0-7.971,1.243-24.73,9.234-32.286,7.272C96.3,269.311,92.677,257.37,90,252.63c1.63-.335,10.578-5.409,11.2-5.381" transform="translate(-63.822 -175.332)" fill="#fefefc"/>
        <path id="Path_1026619" data-name="Path 1026619" d="M5.018,254.8c2.657-.831,4.416,1.291,5.381,3.345,2.594,5.52,6.8,26.721,6.108,32.577-.412,3.5-2.469,8.044-6.69,6.108L4,255.525a3.83,3.83,0,0,1,1.018-.727" transform="translate(-2.837 -180.554)" fill="#fefefd"/>
        <path id="Path_1026620" data-name="Path 1026620" d="M869.184,364.034c-.413-.73.39-3.464-.873-2.036-.378-4.084-7.65-21.9-9.6-26.905-4.689-12.042-5.6-21.833-18.906-26.033l.873-.582c1.954.644,4.147,1.011,5.963,2.036,7.539,4.256,9.922,18.8,13.671,26.178l.145-40.867-31.268-.145c-.674-.3-.758-5.962,0-6.69.133-.128,1.017.2,1.309-.145.232-.271-.473-1.2,0-2.036,1.31-2.326,15.89,0,16.87-1.454l7.708-29.814,36.649-.291c.535.408,1.193.309,1.6,1.018,1.155,2.013-6.9,28.346-7.272,32.577l12.653.145.436,6.254-32,.582v59.919c.774,2.6,3.028,5.814,2.036,8.29M855.659,256.412l-7.272,29.378,37.377-.436,6.69-26.76-.436-2.182Zm-23.851,30.541c-.765.346-.342,1.86,0,2.036.666.344,14.665.244,14.98-.436a3.137,3.137,0,0,0-.145-1.6c-.605-.428-12.979.327-14.834,0m16.87,0c-.585.259-.581,1.832-.291,2.036,1.474,1.039,31.76-.8,36.068,0a3.859,3.859,0,0,0,.727-1.309c-.352-1.791-33.159-.137-36.5-.727m43.339,2.909c-20.669-.524-41.548,1-62.246.291l-.145,3.927,68.209.436.291-4.363c-2.03.269-4.13-.241-6.108-.291m-30.25,5.817-.436,43.776,4.8,12.944.145-56.574Z" transform="translate(-587.624 -181.005)" fill="#131520"/>
        <path id="Path_1026621" data-name="Path 1026621" d="M903.772,259.249H940.13l.436,2.182-6.69,26.76-37.377.436Zm15.416,11.344c-3.834.62-4.18,8.165.873,7.272,3.656-.646,3.8-8.026-.873-7.272" transform="translate(-635.737 -183.842)" fill="#f68774"/>
        <path id="Path_1026622" data-name="Path 1026622" d="M274.7,298.2c1.879-.191,3.987.928,5.672,1.6l-8.871.145c.132-.629,2.877-1.712,3.2-1.745" transform="translate(-192.529 -211.445)" fill="#fcfefd"/>
        <path id="Path_1026623" data-name="Path 1026623" d="M967.433,298.117c4.671-.755,4.529,6.625.873,7.272-5.052.894-4.706-6.652-.873-7.272m-.291,1.163c-2.083.586-2.423,5.8.873,5.236,2.565-.439,3.016-6.329-.873-5.236m-.291,5.526c-.294.493,1.038.327,1.018.145-.026-.25-.777-.119-1.018-.145" transform="translate(-683.981 -211.366)" fill="#413436"/>
        <path id="Path_1026624" data-name="Path 1026624" d="M969.635,301.92c3.889-1.093,3.438,4.8.873,5.236-3.3.565-2.955-4.65-.873-5.236" transform="translate(-686.474 -214.005)" fill="#feffff"/>
        <path id="Path_1026625" data-name="Path 1026625" d="M242.162,306.226c1.367.138.043,1.806.582,3.2-7.577-1.041-4.978,2.085-5.381,7.708l10.762.873-.145,10.908L233,325.569c1.971-6.031,2.524-12.193.582-18.325.219-.573,7.719-1.105,8.581-1.018" transform="translate(-165.228 -217.148)" fill="#fefefd"/>
        <path id="Path_1026626" data-name="Path 1026626" d="M663.744,312.217c.886-.033.908-.067,1.309.727.79,1.566.758,9,2.763,9.453,7.619-1.62,16.679-1.3,24.142-2.909,8.427-1.821,14.329-8.19,21.67,2.182.081,1.2-4.082-3.089-4.508-3.345-.652-.392-5.331-2.584-3.781-.582,2.5.773,5.453,2.538,6.69,4.945-2.452-1.3-4.334-3.739-7.272-4.072L709.7,322.4c-4.546-2.741-5.858-.324-9.308.582-1.7.447-4.41.531-5.526.873-7.224,2.211-25.475,11.043-32.286,9.017-4.228-1.258-7.832-13.75-8.581-17.888,2.518-.165,7.651-2.686,9.744-2.763" transform="translate(-463.772 -221.393)" fill="#fdfefd"/>
        <path id="Path_1026627" data-name="Path 1026627" d="M717.017,316.249l.727.436c-.816,3.7-13.42,4.274-12.8,1.454.3-1.358,2.046.625,2.472.727a10.993,10.993,0,0,0,9.6-2.618" transform="translate(-499.884 -224.262)" fill="#081725"/>
        <path id="Path_1026628" data-name="Path 1026628" d="M252.5,321.249h79.116l.145,5.672-78.971.436Z" transform="translate(-179.056 -227.808)" fill="#fefefd"/>
        <path id="Path_1026629" data-name="Path 1026629" d="M972.4,321.222c.241.026.992-.1,1.018.145.02.182-1.312.348-1.018-.145" transform="translate(-689.527 -227.781)" fill="#93898c"/>
        <path id="Path_1026630" data-name="Path 1026630" d="M694.134,355.249c2.609,0,4.8,6.725,5.09,9.162a22.474,22.474,0,0,1-4.8,17.307c-4.9-1.508-10.585-1.3-15.416-2.327-1.628-.348-9.946-3.661-10.471-3.49-.164.053-.523.474-.436.727,2.615,1.826,5.91,2.272,8.871,3.345l-25.451,10.035c-1.4-10.69,5.182-20.077,4.218-30.687,2.9,8.917,15.6,4.069,22.106,2.036,3.425-1.07,13.737-6.106,16.289-6.108" transform="translate(-461.876 -251.918)" fill="#7c8d9b"/>
        <path id="Path_1026631" data-name="Path 1026631" d="M838.454,363.919c1.856.327,14.229-.428,14.834,0a3.137,3.137,0,0,1,.145,1.6c-.315.68-14.314.78-14.98.436-.342-.177-.765-1.69,0-2.036" transform="translate(-594.27 -257.97)" fill="#d7877f"/>
        <path id="Path_1026632" data-name="Path 1026632" d="M896.324,363.921c3.345.59,36.152-1.064,36.5.727a3.859,3.859,0,0,1-.727,1.309c-4.308-.8-34.594,1.039-36.068,0-.29-.2-.294-1.777.291-2.036" transform="translate(-635.269 -257.973)" fill="#ea8b7d"/>
        <path id="Path_1026633" data-name="Path 1026633" d="M894.391,373.975c1.978.05,4.078.56,6.108.291l-.291,4.363L832,378.193l.145-3.927c20.7.707,41.577-.815,62.246-.291" transform="translate(-589.997 -265.118)" fill="#fdfdfb"/>
        <path id="Path_1026634" data-name="Path 1026634" d="M226.379,376.226c.765-.2,14.967,2.84,15.416,3.49.474.688-.052,4.043.145,5.09l-17.6-4.508c-.473-.437,1.812-4.014,2.036-4.072" transform="translate(-159.043 -266.787)" fill="#586977"/>
        <path id="Path_1026635" data-name="Path 1026635" d="M89.2,386.108c11.073-.649,23.931,4.311,34.468,7.417l-.145,39.994c-1.009.027-2.315-16.349-3.054-17.6-1.364-2.3-9.7-2.345-12.362-2.472-19.047-.911-54.16,7.248-50.32-23.269,10.724,2.365,21.258-3.477,31.414-4.072" transform="translate(-40.775 -273.76)" fill="#5a6b7a"/>
        <path id="Path_1026636" data-name="Path 1026636" d="M288.987,389.174c.572-.459,12.376,4.394,13.671,5.236,8.227,5.342,4.72,13.908,2.327,21.524-1.316-6.671-1.381-13.362-7.563-17.452-1.318-.872-8.408-3.488-8.581-3.927a28.437,28.437,0,0,1,.145-5.381" transform="translate(-204.78 -275.954)" fill="#576876"/>
        <path id="Path_1026637" data-name="Path 1026637" d="M941.436,394.249l4.509.145-.146,56.574L941,438.025Z" transform="translate(-667.293 -279.574)" fill="#788895"/>
        <path id="Path_1026638" data-name="Path 1026638" d="M289.145,412.249c6.539,2.8,10.926,3.892,13.235,11.2,3.3,10.435,11.08,51.164,11.344,61.664.012.492.118,1.577-.145,1.891-1.887.681-11.257,3.165-12.362,1.891L289,456.606Z" transform="translate(-204.939 -292.339)" fill="#5a6b79"/>
        <path id="Path_1026639" data-name="Path 1026639" d="M822.325,432.367c13.307,4.2,14.218,13.991,18.906,26.033,1.949,5,9.221,22.822,9.6,26.905.029.305.4.378.291.727-.247.759-7.534,4.718-8.29,4.508-1.306-3.153-6.7-8.171-7.708-10.908-3.359-9.084-.483-32.462-9.453-38.54-5.225-3.54-15.661-4.5-21.67-6.835.736-.536,2.786-4.963,3.054-5.09.806-.382,13.506,2.643,15.271,3.2" transform="translate(-570.142 -304.313)" fill="#5a6b7a"/>
        <path id="Path_1026640" data-name="Path 1026640" d="M682.749,442.141c6.658-.657,37.09,6.083,40.867,11.489,2.061,2.95,3.155,9.737,3.781,13.38,2.51,14.6,3.2,30.2,5.09,44.939-1.69.367-8.995,2.653-10.035,1.309-.284-.367-.877-4.1-1.163-4.945-3.237-9.543-7.855-20.058-9.308-29.959-.442-3.015.566-11.1-2.472-12.362-13.373-2.545-40.851,5.171-49.884-7.417-.867-1.209-3-4.994-1.891-6.254,1.562-1.768,22.086-9.892,25.015-10.18" transform="translate(-466.197 -313.504)" fill="#5b6c7a"/>
        <path id="Path_1026641" data-name="Path 1026641" d="M37.5,483.249H87.82c3.836.663,6.76,4.855,2.036,6.981-13.6-1.745-33.68,2.323-46.539,0-2.837-.513-5.544-4.143-5.817-6.981" transform="translate(-26.592 -342.687)" fill="#fdfefd"/>
        <path id="Path_1026642" data-name="Path 1026642" d="M201.162,484.211a53.737,53.737,0,0,1,12.507.873c.424.455-3.965,9.665-4.508,11.2-1.439,4.061-9.206,26.841-9.308,29.378-.07,1.754,1.294,1.033,1.163,2.327a20.646,20.646,0,0,1-3.054,3.927L192,492.21c5.795.116,14.481-.013,9.162-8" transform="translate(-136.153 -343.358)" fill="#fdfdfc"/>
        <path id="Path_1026643" data-name="Path 1026643" d="M237.171,490.249c.976,4.356,1.1,8.844,1.891,13.235,1.161,6.417,3.714,11.972,2.327,19.2-.138.718-6.115,12.81-6.835,12.944A50.516,50.516,0,0,1,223.5,530.68c4.009-13.421,7.6-27.608,13.671-40.431" transform="translate(-158.491 -347.651)" fill="#5a6b79"/>
        <path id="Path_1026644" data-name="Path 1026644" d="M714,557.782c2.01.455,9.11-.6,10.471,0,.681.3.8,5.1-.291,5.526a88.033,88.033,0,0,1-9.6,0c-1.209-.468-.7-4.268-.582-5.526" transform="translate(-506.172 -395.405)" fill="#596a78"/>
        <path id="Path_1026645" data-name="Path 1026645" d="M289.5,574.249c.509,1.713,1.527,2.932,0,4.363Z" transform="translate(-205.294 -407.218)" fill="#6a7682"/>
        <path id="Path_1026646" data-name="Path 1026646" d="M726.307,580.052c.335-.148,3.381-.14,3.636.436.64,1.443-.375,10.151-.145,12.362l-3.927-.145c.246-1.652-.5-12.234.436-12.653" transform="translate(-514.7 -411.276)" fill="#768593"/>
        <path id="Path_1026647" data-name="Path 1026647" d="M663.1,582.131c8.011-.788-6.937,8.386-5.381,2.763.176-.637,4.7-2.7,5.381-2.763" transform="translate(-466.329 -412.773)" fill="#5b6a79"/>
        <path id="Path_1026648" data-name="Path 1026648" d="M263.571,610.236l-.291,29.087c-4.379-1.565-10.609-13.72-7.417-17.307.819-.919.989.4,2.036-.582.78-.73,5.108-11.475,5.672-11.2" transform="translate(-180.819 -432.734)" fill="#fdfdfc"/>
        <path id="Path_1026649" data-name="Path 1026649" d="M912.5,610.249l7.417,10.326-.145,16.434c-.78.637-8.613-4.462-5.09-5.672Z" transform="translate(-647.083 -432.747)" fill="#fdfdfc"/>
        <path id="Path_1026650" data-name="Path 1026650" d="M667.463,628.249l7.417.436.436,13.234,21.67,8c-.015.556-3.171,1.524-3.927,1.309l-19.779-4.363c-.7.25-.447,3.485-.873,3.781a16.748,16.748,0,0,1-2.909,0c-.335-.236-.353-3.328-.582-3.49l-20.652,4.072c-2-.579-4.7-.861-1.454-2.618,5.075-2.746,13.921-4.18,19.488-6.4l.727-.727Z" transform="translate(-457.602 -445.511)" fill="#596a78"/>
        <path id="Path_1026651" data-name="Path 1026651" d="M948.545,630.249c.259.015,2.647,2.167,4.363,2.618.739.195,4.349.125,4.654.291a22.422,22.422,0,0,1,1.018,3.927c-.177.721-12.836,6.233-13.525,5.963L942,634.175c1.076-.2,6.164-3.95,6.545-3.927" transform="translate(-668.002 -446.929)" fill="#f58c7c"/>
        <path id="Path_1026652" data-name="Path 1026652" d="M218.258,635.242c.442-.122,8.178,3.482,8.29,3.927.054.212-1.113,2.624-1.163,3.2-.414,4.7,3.409,8.307,4.508,12.653-2.323,1.448-14.174-10.9-14.98-13.234-.419-1.216,2.979-6.443,3.345-6.545" transform="translate(-152.376 -450.468)" fill="#fdfdfc"/>
        <path id="Path_1026653" data-name="Path 1026653" d="M971.143,635.109c1.9-.276,10.445.372,6.981,3.49-.875.788-20.346,9.546-21.524,9.6a2.365,2.365,0,0,1-1.6-.436c1.768-1.315,13.109-5.207,13.816-6.254,1.387-2.051-3.714-5.518,2.327-6.4" transform="translate(-677.221 -450.335)" fill="#f48f7c"/>
        <path id="Path_1026654" data-name="Path 1026654" d="M941.436,656.249a22.041,22.041,0,0,0,1.891,6.254c.378.666,2.275,1.891,2.327,2.036.131.372.108,6.07-.145,6.254-.305.221-4.267-.526-4.508-1.018Z" transform="translate(-667.293 -465.367)" fill="#6c7d89"/>
        <path id="Path_1026655" data-name="Path 1026655" d="M201.27,658.249c1.019-.017,1.844,8.374,1.745,9.89-4.353-3.514-7.128-5.2-1.745-9.89" transform="translate(-140.624 -466.785)" fill="#f28673"/>
        <path id="Path_1026656" data-name="Path 1026656" d="M216.337,666.249c3.612,3.991,8.215,10.047,13.38,11.926.774.282,1.958-.422,2.327-.291a37.752,37.752,0,0,1,4.218,2.763c1.826,5.448-3.98,4.788-7.417,3.636-1.18-.4-11.109-8.6-11.489-9.453-.268-.6-1.363-8.322-1.018-8.581" transform="translate(-153.364 -472.458)" fill="#f78e7c"/>
        <path id="Path_1026657" data-name="Path 1026657" d="M347.471,674.246c1.721-.055,1.252,2.042,2.182,3.345,2.634,3.7,8.2,5.055,12.216,6.69-2.129,3.807-21.4-.273-22.106-2.036a48.254,48.254,0,0,1,0-6.108c.188-.349,7.311-1.879,7.708-1.891" transform="translate(-240.868 -478.129)" fill="#fdfdfb"/>
        <path id="Path_1026658" data-name="Path 1026658" d="M897.668,691.241c.983.622,4.564,1.94,4.654,2.181.078.207-.945,4.066-1.309,4.218-2.071.864-11.832-.844-14.253,0a.618.618,0,0,0,0,1.164c.714.25,14.442.323,15.125,0,.666-.314.963-4.157,1.6-4.945a18.24,18.24,0,0,1,3.054,0c2.5.919,6.818,3.482,6.108,6.69H887.633c-2.955-.791-.805-9.794-1.164-12.216,1.54.532,6.292-1.475,7.272-1.164.276.087,2.016,2.862,3.927,4.072" transform="translate(-628.324 -487.27)" fill="#f49181"/>
        <path id="Path_1026659" data-name="Path 1026659" d="M904.226,703.867c-.637.788-.934,4.631-1.6,4.945-.684.323-14.411.25-15.125,0a.618.618,0,0,1,0-1.163c2.421-.844,12.182.864,14.253,0,.364-.151,1.387-4.011,1.309-4.218-.09-.241-3.671-1.559-4.654-2.182,1.451.532,3.042.945,4.508,1.454.9.314.4.855,1.309,1.164" transform="translate(-629.064 -497.278)" fill="#2e1d24"/>
        <path id="Path_1026660" data-name="Path 1026660" d="M338.154,707.249c5.5,1.463,14.207,4.107,19.779,2.909,1.509-.326,3.225-2.1,4.363-2.036s7.917,2.946,7.126,5.09c-.132.4-1.745.9-2.181,1.018-3.157.829-23.794.94-27.051.291-3.436-.684-2.68-4.77-2.036-7.272" transform="translate(-239.404 -501.533)" fill="#f68b78"/>
        <path id="Path_1026661" data-name="Path 1026661" d="M636.2,708.176c6.03-.652,4.966,9.555-1.164,6.981-3-1.259-2.106-6.629,1.164-6.981" transform="translate(-449.025 -502.169)" fill="#5a6a77"/>
        <path id="Path_1026662" data-name="Path 1026662" d="M812.969,708.208c5.175-.457,5.391,8.421-.582,7.272-3.724-.716-3.107-6.946.582-7.272" transform="translate(-574.312 -502.2)" fill="#5f707c"/>
        <path id="Path_1026663" data-name="Path 1026663" d="M724.077,708.879c5.368-1.3,6.028,6.169,2.327,6.981-5.378,1.181-5.771-6.146-2.327-6.981" transform="translate(-511.889 -502.581)" fill="#576977"/>
        <path id="Path_1026664" data-name="Path 1026664" d="M976.5,716.053c4.924.41,12.4-1.949,13.525,4.8-.358.448-10.963.372-11.489.145-.355-.154-.992-4.3-2.036-4.945" transform="translate(-692.467 -507.718)" fill="#71808d"/>
        <path id="Path_1026665" data-name="Path 1026665" d="M289.145,717.249c1.2.913,2.12,4.052-.145,3.345Z" transform="translate(-204.939 -508.624)" fill="#e79f95"/>
      </g>
    </g>
  </g>
</svg>
