<svg xmlns="http://www.w3.org/2000/svg" xmlns:xlink="http://www.w3.org/1999/xlink" width="90" height="90" viewBox="0 0 90 90">
  <defs>
    <clipPath id="clip-path">
      <rect id="Rectangle_458775" data-name="Rectangle 458775" width="47.612" height="58.362" fill="none"/>
    </clipPath>
  </defs>
  <g id="img26" transform="translate(-338.711 -12699)">
    <circle id="Ellipse_13756" data-name="Ellipse 13756" cx="45" cy="45" r="45" transform="translate(338.711 12699)" fill="#fff"/>
    <g id="Group_1183659" data-name="Group 1183659" transform="translate(359.905 12714.819)">
      <g id="Group_1183658" data-name="Group 1183658" transform="translate(0 0)" clip-path="url(#clip-path)">
        <path id="Path_1029708" data-name="Path 1029708" d="M10.245,19.731a6.512,6.512,0,0,0,5.475,3.079c.5.006,1.058,0,1.644-.011-2.231,2.641-4.293,6.138-4.293,9.186,0,6.851,5.266,10.08,11.76,10.08s11.759-3.229,11.759-10.08c0-3.912-3-8.146-6.062-11.062a2.66,2.66,0,0,0,.517-1.539,2.742,2.742,0,0,0-.545-1.674,2.785,2.785,0,0,0,.586-3.826,2.785,2.785,0,0,0,0-4.516A2.779,2.779,0,0,0,31.464,6.9a2.81,2.81,0,0,0-1.772-1.771c.807-.828,2.154-2.365,2.165-3.416.013-1.271-10.619-2.754-10.136-.7a6.088,6.088,0,0,0,.867,1.942l-3.2-.419a7.073,7.073,0,0,0-5.6,1.712l-3.8,3.36H7.82v-.5A1.364,1.364,0,0,0,6.457,5.756H1.363A1.364,1.364,0,0,0,0,7.12v12.7a1.363,1.363,0,0,0,1.363,1.363H6.457A1.363,1.363,0,0,0,7.82,19.821v-.494H9.991Zm-6.335-.9A1.323,1.323,0,1,1,5.233,17.51,1.323,1.323,0,0,1,3.91,18.833m22.032,17.8V37.8a.335.335,0,0,1-.335.334H24.058a.335.335,0,0,1-.335-.334V36.669a3.386,3.386,0,0,1-2.715-2.962.333.333,0,0,1,.337-.356h1.569a.326.326,0,0,1,.321.248,1.163,1.163,0,0,0,1.134.916h.925a1.162,1.162,0,0,0,0-2.323h-.773a3.484,3.484,0,0,1-3.515-3.043A3.377,3.377,0,0,1,23.723,25.5V24.355a.335.335,0,0,1,.335-.334h1.548a.335.335,0,0,1,.335.334v1.137a3.388,3.388,0,0,1,2.715,2.962.333.333,0,0,1-.337.355h-1.57a.326.326,0,0,1-.32-.246,1.161,1.161,0,0,0-1.134-.914h-.925a1.161,1.161,0,1,0,0,2.322h.925a3.383,3.383,0,0,1,3.363,3.719,3.424,3.424,0,0,1-2.716,2.943m2.29-16.219h-3a1.051,1.051,0,1,1,0-2.1h3a1.051,1.051,0,1,1,0,2.1m.553-3.866h-4.1a1.05,1.05,0,1,1,0-2.1h4.1a1.05,1.05,0,1,1,0,2.1M26.575,6.714h2.209a1.051,1.051,0,0,1,0,2.1H26.559l.037-1.8c0-.1-.015-.2-.02-.3M26.5,11.571l.02-.991h2.9a1.051,1.051,0,0,1,0,2.1H26.239a2.757,2.757,0,0,0,.263-1.111M7.82,9.379h2.494a.886.886,0,0,0,.584-.221l4.054-3.581a5.31,5.31,0,0,1,4.2-1.284l3.792.5a2.188,2.188,0,0,1,1.883,2.192l-.094,4.553a1.035,1.035,0,0,1-1.029,1.007,1.022,1.022,0,0,1-.742-.317,1.082,1.082,0,0,1-.285-.755l.132-3.127a.888.888,0,0,0-.749-.909l-1.988-.3a.883.883,0,1,0-.265,1.745l1,.151A4.777,4.777,0,0,1,16.175,11.9a.893.893,0,0,0-.97.787v.1a.885.885,0,0,0,.794.874,6.464,6.464,0,0,0,4.939-1.8,2.735,2.735,0,0,0,.754,1.6,2.794,2.794,0,0,0,.654.49,2.834,2.834,0,0,0-.475,1.56,2.743,2.743,0,0,0,.412,1.424A6.312,6.312,0,0,1,20.2,19.956c-.359.294-.739.632-1.129,1.009-1.226.075-2.376.092-3.335.082a4.755,4.755,0,0,1-4-2.251l-.512-.818a.885.885,0,0,0-.749-.414H7.82Z" transform="translate(0 0)" fill="#203a72"/>
        <path id="Path_1029709" data-name="Path 1029709" d="M55.27,79.424H50.176a1.362,1.362,0,0,0-1.363,1.363v.548l-.428-.119a7.182,7.182,0,0,0-4.8.341l-7.726,3.392-4.115-1.114a2.808,2.808,0,0,0-2.636.65l-5.089-3.342a3.274,3.274,0,0,0-3.877,5.265l11.5,9.459a6.241,6.241,0,0,0,6.283.976L45.9,93.659a9.285,9.285,0,0,1,2.411-.6l.5-.057v.5a1.362,1.362,0,0,0,1.363,1.363H55.27a1.363,1.363,0,0,0,1.363-1.363V80.787a1.362,1.362,0,0,0-1.363-1.363M48.113,91.3a11.061,11.061,0,0,0-2.869.72l-7.971,3.185a4.479,4.479,0,0,1-4.507-.7l-11.5-9.459a1.51,1.51,0,0,1,.618-2.637,1.528,1.528,0,0,1,.345-.039,1.493,1.493,0,0,1,.824.249l5.21,3.421a2.814,2.814,0,0,0,1.829,3.135l5.033,1.758a3.7,3.7,0,0,0,2.4.01l4.655-1.586a.882.882,0,0,0-.57-1.67l-4.655,1.586a1.93,1.93,0,0,1-1.25-.005l-5.032-1.758a1.038,1.038,0,0,1-.659-1.232,1.032,1.032,0,0,1,1.269-.738L35.7,86.734a.882.882,0,0,0,.585-.043l8.01-3.517a5.417,5.417,0,0,1,3.618-.257l.9.252v8.053Zm4.606,1.206a1.323,1.323,0,1,1,1.324-1.324,1.318,1.318,0,0,1-1.324,1.324" transform="translate(-9.285 -38.928)" fill="#203a72"/>
        <path id="Path_1029710" data-name="Path 1029710" d="M81.256,23.668l-4.449,4.449a1.647,1.647,0,0,1-2.271,0l-4.467-4.449a1.633,1.633,0,0,1,0-2.29A1.652,1.652,0,0,1,71.2,20.9a1.62,1.62,0,0,1,1.136.474L74.063,23.1V9.524a1.609,1.609,0,0,1,3.218,0V23.1l1.7-1.722a1.61,1.61,0,0,1,2.271,0,1.634,1.634,0,0,1,0,2.29" transform="translate(-34.113 -3.879)" fill="#14a0de"/>
      </g>
    </g>
  </g>
</svg>
