<svg xmlns="http://www.w3.org/2000/svg" xmlns:xlink="http://www.w3.org/1999/xlink" width="149.908" height="150" viewBox="0 0 149.908 150">
  <defs>
    <clipPath id="clip-path">
      <rect id="Rectangle_458763" data-name="Rectangle 458763" width="67.058" height="66.106" fill="none"/>
    </clipPath>
  </defs>
  <g id="img4" transform="translate(-705.985 -1710.002)">
    <g id="Group_1180300" data-name="Group 1180300" transform="translate(705.936 1710.002)">
      <g id="Grupo_155253" data-name="Grupo 155253" transform="matrix(0.999, 0.035, -0.035, 0.999, 5.061, 0)">
        <path id="Trazado_196478" data-name="Trazado 196478" d="M20.378,22.814q-.452.483-.9.974A75.7,75.7,0,0,0,.051,77.428l30.182-1.084c-.818-24.1,17.45-44.315,40.8-45.157S113.984,49.2,114.8,73.3l30.181-1.084c-1.018-30-19.313-56.469-46.471-67.233A70.928,70.928,0,0,0,20.378,22.822" transform="translate(0 0)" fill="#f9ce5d"/>
        <path id="Trazado_196479" data-name="Trazado 196479" d="M0,5.22c1.4,41.3,34.98,73.608,75,72.166S146.333,41.3,144.933,0L114.75,1.084c.818,24.1-17.451,44.314-40.8,45.156S31,28.229,30.182,4.132Z" transform="translate(0.049 67.594)" fill="#70f5c8"/>
      </g>
      <ellipse id="Ellipse_13685" data-name="Ellipse 13685" cx="58.366" cy="58.462" rx="58.366" ry="58.462" transform="translate(16.722 16.827)" fill="#fff"/>
    </g>
    <g id="Group_1183639" data-name="Group 1183639" transform="translate(747.407 1751.949)">
      <g id="Group_1183638" data-name="Group 1183638" clip-path="url(#clip-path)">
        <path id="Path_1029640" data-name="Path 1029640" d="M16.207,65.487a2.757,2.757,0,0,1,2.758-2.757h17.7v6.3H40.34v-6.3H58.065A2.751,2.751,0,0,1,60.8,65.487v3.546h3.677V65.487a6.422,6.422,0,0,0-6.408-6.433H40.34V53.2H36.664v5.856h-17.7a6.444,6.444,0,0,0-6.434,6.433v3.546h3.676Z" transform="translate(-4.976 -21.126)" fill="#14a0de"/>
        <path id="Path_1029641" data-name="Path 1029641" d="M16.033,85.1H2.742A2.742,2.742,0,0,0,0,87.846v9.315A2.742,2.742,0,0,0,2.742,99.9h13.29a2.742,2.742,0,0,0,2.742-2.742V87.846A2.742,2.742,0,0,0,16.033,85.1" transform="translate(0 -33.797)" fill="#203a72"/>
        <path id="Path_1029642" data-name="Path 1029642" d="M56.077,85.1H42.786a2.742,2.742,0,0,0-2.742,2.742v9.315A2.742,2.742,0,0,0,42.786,99.9h13.29a2.742,2.742,0,0,0,2.742-2.742V87.846A2.742,2.742,0,0,0,56.077,85.1" transform="translate(-15.902 -33.797)" fill="#203a72"/>
        <path id="Path_1029643" data-name="Path 1029643" d="M96.121,85.1H82.83a2.743,2.743,0,0,0-2.742,2.742v9.315A2.743,2.743,0,0,0,82.83,99.9h13.29a2.742,2.742,0,0,0,2.742-2.742V87.846A2.742,2.742,0,0,0,96.121,85.1" transform="translate(-31.805 -33.797)" fill="#203a72"/>
        <path id="Path_1029644" data-name="Path 1029644" d="M38.279,37.826l18.959.02a2.446,2.446,0,0,0,2.44-2.653l-.42-4.933A8.538,8.538,0,0,0,53.3,23.136a.613.613,0,0,0-.746.392L49.347,32.7,48.611,26.7h.49a.536.536,0,0,0,.535-.537V24.519a.533.533,0,0,0-.534-.534H46.416a.535.535,0,0,0-.535.534v1.648a.536.536,0,0,0,.535.537h.49L46.17,32.7l-3.2-9.17a.613.613,0,0,0-.746-.392,8.535,8.535,0,0,0-5.957,7.124l-.418,4.915a2.445,2.445,0,0,0,2.434,2.651" transform="translate(-14.231 -9.178)" fill="#203a72"/>
        <path id="Path_1029645" data-name="Path 1029645" d="M51.361,13.008a6.5,6.5,0,1,0-6.5-6.5,6.5,6.5,0,0,0,6.5,6.5" transform="translate(-17.814)" fill="#203a72"/>
      </g>
    </g>
  </g>
</svg>
