<svg xmlns="http://www.w3.org/2000/svg" xmlns:xlink="http://www.w3.org/1999/xlink" width="149.908" height="150" viewBox="0 0 149.908 150">
  <defs>
    <clipPath id="clip-path">
      <rect id="Rectangle_458764" data-name="Rectangle 458764" width="90.814" height="72.254" fill="none"/>
    </clipPath>
  </defs>
  <g id="img5" transform="translate(-705.985 -1710.002)">
    <g id="Group_1180300" data-name="Group 1180300" transform="translate(705.936 1710.002)">
      <g id="Grupo_155253" data-name="Grupo 155253" transform="matrix(0.999, 0.035, -0.035, 0.999, 5.061, 0)">
        <path id="Trazado_196478" data-name="Trazado 196478" d="M20.378,22.814q-.452.483-.9.974A75.7,75.7,0,0,0,.051,77.428l30.182-1.084c-.818-24.1,17.45-44.315,40.8-45.157S113.984,49.2,114.8,73.3l30.181-1.084c-1.018-30-19.313-56.469-46.471-67.233A70.928,70.928,0,0,0,20.378,22.822" transform="translate(0 0)" fill="#f9ce5d"/>
        <path id="Trazado_196479" data-name="Trazado 196479" d="M0,5.22c1.4,41.3,34.98,73.608,75,72.166S146.333,41.3,144.933,0L114.75,1.084c.818,24.1-17.451,44.314-40.8,45.156S31,28.229,30.182,4.132Z" transform="translate(0.049 67.594)" fill="#70f5c8"/>
      </g>
      <ellipse id="Ellipse_13685" data-name="Ellipse 13685" cx="58.366" cy="58.462" rx="58.366" ry="58.462" transform="translate(16.722 16.827)" fill="#fff"/>
    </g>
    <g id="Group_1183641" data-name="Group 1183641" transform="translate(735.529 1748.875)">
      <g id="Group_1183640" data-name="Group 1183640" transform="translate(0 0)" clip-path="url(#clip-path)">
        <path id="Path_1029646" data-name="Path 1029646" d="M61.979,15.568A7.784,7.784,0,1,0,54.2,7.783a7.785,7.785,0,0,0,7.783,7.784" transform="translate(-16.572 0)" fill="#203a72"/>
        <path id="Path_1029647" data-name="Path 1029647" d="M50.379,41.442c.305.023.623.046.95.072a114.877,114.877,0,0,0,18.123-.049,3.2,3.2,0,0,0,2.914-3.57L71.7,32.411a8.772,8.772,0,0,0-6.683-7.47l-3.484,8.708-.755-6.29h.5a.548.548,0,0,0,.549-.548V25.118a.548.548,0,0,0-.549-.546H58.532a.548.548,0,0,0-.549.546v1.693a.548.548,0,0,0,.549.548h.5l-.754,6.288L54.8,24.941a8.768,8.768,0,0,0-6.683,7.466l-.659,5.465a3.191,3.191,0,0,0,2.924,3.57" transform="translate(-14.503 -7.514)" fill="#203a72"/>
        <path id="Path_1029648" data-name="Path 1029648" d="M109.408,54.625a7.783,7.783,0,1,0,7.783,7.782,7.782,7.782,0,0,0-7.783-7.782" transform="translate(-31.075 -16.703)" fill="#203a72"/>
        <path id="Path_1029649" data-name="Path 1029649" d="M119.8,92.519l-.662-5.486a8.768,8.768,0,0,0-6.684-7.467l-3.484,8.7-.754-6.29h.5a.549.549,0,0,0,.55-.548v-1.69a.549.549,0,0,0-.55-.549h-2.755a.548.548,0,0,0-.548.549v1.69a.548.548,0,0,0,.548.548h.5l-.755,6.29-3.482-8.7a8.764,8.764,0,0,0-6.682,7.465l-.659,5.463a3.19,3.19,0,0,0,2.924,3.57c.305.023.623.046.95.072a114.886,114.886,0,0,0,18.124-.049,3.2,3.2,0,0,0,2.914-3.568" transform="translate(-29.007 -24.216)" fill="#203a72"/>
        <path id="Path_1029650" data-name="Path 1029650" d="M85.479,12.173h8.58a7.82,7.82,0,0,1,7.811,7.812v4.289H99.144a1.969,1.969,0,0,0-1.686,2.987l4.759,7.874a2.043,2.043,0,0,0,3.37,0l4.759-7.874a1.97,1.97,0,0,0-1.686-2.987h-2.853V19.985A11.764,11.764,0,0,0,94.059,8.235h-8.58a1.969,1.969,0,0,0,0,3.938" transform="translate(-25.536 -2.518)" fill="#203a72"/>
        <path id="Path_1029651" data-name="Path 1029651" d="M14.549,70.191a7.783,7.783,0,1,0-7.783-7.784,7.782,7.782,0,0,0,7.783,7.784" transform="translate(-2.069 -16.703)" fill="#203a72"/>
        <path id="Path_1029652" data-name="Path 1029652" d="M24.276,87.031a8.764,8.764,0,0,0-6.682-7.465l-3.482,8.7-.755-6.289h.5a.548.548,0,0,0,.548-.549v-1.69a.548.548,0,0,0-.548-.549H11.1a.549.549,0,0,0-.55.549v1.69a.549.549,0,0,0,.55.549h.5l-.754,6.289-3.484-8.7A8.768,8.768,0,0,0,.685,87.033L.024,92.519a3.2,3.2,0,0,0,2.914,3.568,114.886,114.886,0,0,0,18.124.049c.326-.026.644-.049.95-.072a3.192,3.192,0,0,0,2.925-3.57Z" transform="translate(0 -24.216)" fill="#203a72"/>
        <path id="Path_1029653" data-name="Path 1029653" d="M13.282,35.135a2.044,2.044,0,0,0,3.37,0l4.759-7.874a1.969,1.969,0,0,0-1.686-2.987H17v-4.29a7.82,7.82,0,0,1,7.811-7.811h8.58a1.969,1.969,0,0,0,0-3.938h-8.58a11.764,11.764,0,0,0-11.749,11.75v4.29H10.209a1.97,1.97,0,0,0-1.686,2.987Z" transform="translate(-2.52 -2.518)" fill="#203a72"/>
        <path id="Path_1029654" data-name="Path 1029654" d="M72.864,70.268,70,69.85c-.36-.866-.456-1.1-.815-1.967l1.73-2.319a1.551,1.551,0,0,0-.147-2.027L68.42,61.186a1.555,1.555,0,0,0-2.028-.146l-2.319,1.731-1.967-.815-.417-2.865a1.553,1.553,0,0,0-1.537-1.329H56.828a1.554,1.554,0,0,0-1.538,1.329l-.416,2.865-1.968.815L50.587,61.04a1.555,1.555,0,0,0-2.028.146l-2.35,2.351a1.553,1.553,0,0,0-.147,2.026l1.731,2.319c-.359.869-.456,1.1-.815,1.967l-2.864.417a1.553,1.553,0,0,0-1.33,1.537v3.324a1.554,1.554,0,0,0,1.33,1.537l2.864.416c.359.869.456,1.1.815,1.969l-1.731,2.318A1.556,1.556,0,0,0,46.21,83.4l2.35,2.349a1.554,1.554,0,0,0,2.028.147l2.319-1.73,1.968.815.416,2.863a1.555,1.555,0,0,0,1.538,1.329h3.323a1.553,1.553,0,0,0,1.537-1.329l.417-2.863,1.967-.815,2.319,1.73a1.554,1.554,0,0,0,2.028-.147L70.768,83.4a1.553,1.553,0,0,0,.147-2.029l-1.736-2.325.813-1.961,2.872-.417a1.554,1.554,0,0,0,1.33-1.537V71.8a1.553,1.553,0,0,0-1.33-1.537M58.49,79.5a6.035,6.035,0,1,1,6.034-6.034A6.034,6.034,0,0,1,58.49,79.5" transform="translate(-13.083 -17.662)" fill="#14a0de"/>
      </g>
    </g>
  </g>
</svg>
