<svg xmlns="http://www.w3.org/2000/svg" xmlns:xlink="http://www.w3.org/1999/xlink" width="149.909" height="150.001" viewBox="0 0 149.909 150.001">
  <defs>
    <clipPath id="clip-path">
      <rect id="Rectangle_458765" data-name="Rectangle 458765" width="63.536" height="69.243" fill="none"/>
    </clipPath>
  </defs>
  <g id="img7" transform="translate(-705.985 -1710.001)">
    <g id="Group_1180300" data-name="Group 1180300" transform="translate(705.936 1710.002)">
      <g id="Grupo_155253" data-name="Grupo 155253" transform="matrix(0.999, 0.035, -0.035, 0.999, 5.062, 0)">
        <path id="Trazado_196478" data-name="Trazado 196478" d="M20.377,22.814q-.452.483-.9.974A75.7,75.7,0,0,0,.051,77.428l30.182-1.084c-.818-24.1,17.45-44.315,40.8-45.157S113.985,49.2,114.8,73.3l30.182-1.084c-1.018-30-19.313-56.469-46.471-67.234A70.928,70.928,0,0,0,20.377,22.822" transform="translate(0 0)" fill="#ff9e74"/>
        <path id="Trazado_196479" data-name="Trazado 196479" d="M0,5.22c1.4,41.3,34.98,73.608,75,72.167S146.334,41.3,144.933,0L114.751,1.084c.818,24.1-17.451,44.315-40.8,45.156S31,28.229,30.182,4.132Z" transform="translate(0.049 67.595)" fill="#70f5c8"/>
      </g>
      <ellipse id="Ellipse_13685" data-name="Ellipse 13685" cx="58.366" cy="58.462" rx="58.366" ry="58.462" transform="translate(16.722 16.827)" fill="#fff"/>
    </g>
    <g id="Group_1183643" data-name="Group 1183643" transform="translate(749.168 1750.381)">
      <g id="Group_1183642" data-name="Group 1183642" transform="translate(0 0)" clip-path="url(#clip-path)">
        <path id="Path_1029655" data-name="Path 1029655" d="M23.962,42.789a2.586,2.586,0,0,0-3.479-1.128l-4.836,2.467s-5.147-3.49-5.675-3.845a7.444,7.444,0,0,0-1.554-.84C6.709,38.9,2.3,38.5,1.072,41.378-.223,44.425,0,52.309.043,57.945a.814.814,0,0,0,.815.871h9.318a.76.76,0,0,0,.835-.765c.042-.291.566-6.672.536-9.476,0-.3,0-.628.006-.973l2.459,1.665a2.586,2.586,0,0,0,2.626.162l6.2-3.161a2.587,2.587,0,0,0,1.128-3.48" transform="translate(0 -14.734)" fill="#203a72"/>
        <path id="Path_1029656" data-name="Path 1029656" d="M6.939,30.092a5.653,5.653,0,1,0-5.652-5.653,5.653,5.653,0,0,0,5.652,5.653" transform="translate(-0.485 -7.087)" fill="#203a72"/>
        <path id="Path_1029657" data-name="Path 1029657" d="M67.094,19.632H48.863c-2.173,3.032-6.352,5.049-11.247,5.049-.2,0-.394,0-.6-.011v7.088a5.021,5.021,0,0,1,3.125,2.576,5.081,5.081,0,0,1-2.215,6.819l-.91.466v8.174a1.55,1.55,0,0,0,1.553,1.552H67.094a1.55,1.55,0,0,0,1.552-1.552V21.184a1.55,1.55,0,0,0-1.552-1.552M59.764,43.561H45.9a1.241,1.241,0,0,1,0-2.483H59.764a1.241,1.241,0,0,1,0,2.483m0-6.831H45.9a1.241,1.241,0,0,1,0-2.483H59.764a1.241,1.241,0,0,1,0,2.483m0-6.831H45.9a1.241,1.241,0,0,1,0-2.483H59.764a1.241,1.241,0,0,1,0,2.483" transform="translate(-13.964 -7.406)" fill="#203a72"/>
        <path id="Path_1029658" data-name="Path 1029658" d="M25.208,13.15a7.893,7.893,0,0,1-1.581,2.591.841.841,0,0,0,.923,1.345c1.7-.633,3.658-1.524,5.464-2.406a14.484,14.484,0,0,0,1.685.106c5.719,0,10.355-3.311,10.355-7.395S37.419,0,31.7,0,21.343,3.309,21.343,7.393c0,2.328,1.511,4.4,3.865,5.757m10.63-6.739,0,0A1.393,1.393,0,0,1,36.826,6a1.375,1.375,0,0,1,.98.411l0,0a1.411,1.411,0,0,1,.283.421l.017.039a1.38,1.38,0,0,1,.1.5c0,.007,0,.013,0,.021a1.391,1.391,0,0,1-1.391,1.392c-.017,0-.031-.009-.047-.009a1.387,1.387,0,0,1-.447-.09c-.031-.012-.059-.024-.088-.037a1.4,1.4,0,0,1-.375-.253c-.014-.013-.027-.026-.04-.039a1.372,1.372,0,0,1-.4-.962,1.391,1.391,0,0,1,.409-.983m-5.421.441,0,0a1.388,1.388,0,0,1,2.559,0l0,.009a1.4,1.4,0,0,1,.107.536v0h0v0a1.391,1.391,0,1,1-2.673-.546m-5.23.525a1.394,1.394,0,0,1,.1-.511c0-.01.008-.02.013-.03a1.389,1.389,0,0,1,2.665.557,1.425,1.425,0,0,1-1.394,1.391,1.391,1.391,0,0,1-1.391-1.392c0-.006,0-.01,0-.016" transform="translate(-8.051 0)" fill="#14a0de"/>
        <path id="Path_1029659" data-name="Path 1029659" d="M37.522,96.5a5.485,5.485,0,0,0-2.176-1.389,7.7,7.7,0,0,1-8.735,0,5.682,5.682,0,0,0-3.811,5.371v3.519a1.106,1.106,0,0,0,1.11,1.111H36.658a4.36,4.36,0,0,1-.154-1.1v-3.534A8.219,8.219,0,0,1,37.522,96.5" transform="translate(-8.601 -35.881)" fill="#203a72"/>
        <path id="Path_1029660" data-name="Path 1029660" d="M32.95,86.849a4.943,4.943,0,1,0-4.943-4.943,4.942,4.942,0,0,0,4.943,4.943" transform="translate(-10.565 -29.033)" fill="#203a72"/>
        <path id="Path_1029661" data-name="Path 1029661" d="M89.287,95.116a7.679,7.679,0,0,1-8.719,0,5.494,5.494,0,0,0-2.16,1.389,8.376,8.376,0,0,1,1,3.982v3.534a4.36,4.36,0,0,1-.154,1.1H92.018a1.1,1.1,0,0,0,1.1-1.111v-3.519a5.7,5.7,0,0,0-3.827-5.371" transform="translate(-29.578 -35.881)" fill="#203a72"/>
        <path id="Path_1029662" data-name="Path 1029662" d="M85.884,86.849a4.943,4.943,0,1,0-4.944-4.943,4.943,4.943,0,0,0,4.944,4.943" transform="translate(-30.533 -29.033)" fill="#203a72"/>
        <path id="Path_1029663" data-name="Path 1029663" d="M61.82,95.131a7.692,7.692,0,0,1-8.735,0,5.685,5.685,0,0,0-3.819,5.359v3.534a1.1,1.1,0,0,0,1.105,1.105H64.534a1.105,1.105,0,0,0,1.1-1.105V100.49a5.686,5.686,0,0,0-3.819-5.359" transform="translate(-18.585 -35.886)" fill="#203a72"/>
        <path id="Path_1029664" data-name="Path 1029664" d="M59.417,86.858a4.943,4.943,0,1,0-4.943-4.943,4.943,4.943,0,0,0,4.943,4.943" transform="translate(-20.549 -29.036)" fill="#203a72"/>
      </g>
    </g>
  </g>
</svg>
