<svg xmlns="http://www.w3.org/2000/svg" xmlns:xlink="http://www.w3.org/1999/xlink" width="149.909" height="150.001" viewBox="0 0 149.909 150.001">
  <defs>
    <clipPath id="clip-path">
      <rect id="Rectangle_458766" data-name="Rectangle 458766" width="84.083" height="57.08" fill="none"/>
    </clipPath>
  </defs>
  <g id="img8" transform="translate(-705.985 -1710.001)">
    <g id="Group_1180300" data-name="Group 1180300" transform="translate(705.936 1710.002)">
      <g id="Grupo_155253" data-name="Grupo 155253" transform="matrix(0.999, 0.035, -0.035, 0.999, 5.062, 0)">
        <path id="Trazado_196478" data-name="Trazado 196478" d="M20.377,22.814q-.452.483-.9.974A75.7,75.7,0,0,0,.051,77.428l30.182-1.084c-.818-24.1,17.45-44.315,40.8-45.157S113.985,49.2,114.8,73.3l30.182-1.084c-1.018-30-19.313-56.469-46.471-67.234A70.928,70.928,0,0,0,20.377,22.822" transform="translate(0 0)" fill="#f9ce5d"/>
        <path id="Trazado_196479" data-name="Trazado 196479" d="M0,5.22c1.4,41.3,34.98,73.608,75,72.167S146.334,41.3,144.933,0L114.751,1.084c.818,24.1-17.451,44.315-40.8,45.156S31,28.229,30.182,4.132Z" transform="translate(0.049 67.595)" fill="#ff9e74"/>
      </g>
      <ellipse id="Ellipse_13685" data-name="Ellipse 13685" cx="58.366" cy="58.462" rx="58.366" ry="58.462" transform="translate(16.722 16.827)" fill="#fff"/>
    </g>
    <g id="Group_1183645" data-name="Group 1183645" transform="translate(738.895 1756.462)">
      <g id="Group_1183644" data-name="Group 1183644" transform="translate(0 0)" clip-path="url(#clip-path)">
        <path id="Path_1029665" data-name="Path 1029665" d="M25.684,12.842A12.842,12.842,0,1,0,12.842,25.685,12.844,12.844,0,0,0,25.684,12.842M11.015,18.4a1.929,1.929,0,0,1-1.364-.564l-3.29-3.289a1.931,1.931,0,1,1,2.73-2.731l1.924,1.924,5.254-5.255A1.931,1.931,0,1,1,19,11.218l-6.618,6.62a1.934,1.934,0,0,1-1.366.564" transform="translate(0 0)" fill="#203a72"/>
        <path id="Path_1029666" data-name="Path 1029666" d="M110.959,0A12.842,12.842,0,1,0,123.8,12.842,12.842,12.842,0,0,0,110.959,0m5.1,15.188a1.947,1.947,0,0,1-2.754,2.754L110.959,15.6l-2.346,2.347a1.947,1.947,0,0,1-2.754-2.754l2.346-2.347L105.858,10.5a1.947,1.947,0,1,1,2.754-2.753l2.346,2.345L113.3,7.742a1.947,1.947,0,1,1,2.754,2.753l-2.346,2.346Z" transform="translate(-39.717 0)" fill="#203a72"/>
        <path id="Path_1029667" data-name="Path 1029667" d="M74.732,49.42l-.857-7.114a8.711,8.711,0,0,0-6.648-7.433L63.765,43.53l-.751-6.253h.5a.547.547,0,0,0,.546-.546V35.048a.548.548,0,0,0-.546-.546H60.775a.547.547,0,0,0-.546.546V36.73a.547.547,0,0,0,.546.546h.5l-.751,6.251-3.461-8.654a8.724,8.724,0,0,0-6.647,7.433l-.858,7.114a1.8,1.8,0,0,0,1.395,1.99c1.292.276,2.624.489,3.974.668l.963,16.628a2.48,2.48,0,0,0,2.476,2.34h7.56a2.482,2.482,0,0,0,2.478-2.34l.96-16.628c1.35-.179,2.684-.392,3.975-.668a1.805,1.805,0,0,0,1.394-1.99" transform="translate(-20.055 -13.966)" fill="#203a72"/>
        <path id="Path_1029668" data-name="Path 1029668" d="M65.451,21.288a7.739,7.739,0,1,0-7.739-7.739,7.739,7.739,0,0,0,7.739,7.739" transform="translate(-23.361 -2.352)" fill="#203a72"/>
        <path id="Path_1029669" data-name="Path 1029669" d="M109.64,51.336a1.979,1.979,0,0,0-3.066,0L101.318,58.4a1.909,1.909,0,0,0,1.533,3.049h3.157v8.284a3.633,3.633,0,0,1-3.629,3.629H92.964a2.1,2.1,0,1,0,0,4.2h9.415a7.836,7.836,0,0,0,7.828-7.828V61.453h3.159A1.91,1.91,0,0,0,114.9,58.4Z" transform="translate(-36.781 -20.486)" fill="#14a0de"/>
        <path id="Path_1029670" data-name="Path 1029670" d="M31.862,73.364H22.447a3.633,3.633,0,0,1-3.629-3.629V61.452h3.157A1.91,1.91,0,0,0,23.507,58.4L18.25,51.335a1.979,1.979,0,0,0-3.065,0L9.926,58.4a1.91,1.91,0,0,0,1.533,3.049h3.159v8.283a7.837,7.837,0,0,0,7.829,7.828h9.415a2.1,2.1,0,1,0,0-4.2" transform="translate(-3.865 -20.486)" fill="#14a0de"/>
      </g>
    </g>
  </g>
</svg>
