<svg xmlns="http://www.w3.org/2000/svg" xmlns:xlink="http://www.w3.org/1999/xlink" width="83.947" height="83.994" viewBox="0 0 83.947 83.994">
  <defs>
    <clipPath id="clip-path">
      <rect id="Rectangle_458777" data-name="Rectangle 458777" width="47.776" height="33.125" fill="none"/>
    </clipPath>
  </defs>
  <g id="img1" transform="translate(-706.028 -1710)">
    <g id="Group_1180300" data-name="Group 1180300" transform="translate(706 1710)">
      <g id="Grupo_155253" data-name="Grupo 155253" transform="matrix(0.999, 0.035, -0.035, 0.999, 2.834, 0)">
        <path id="Trazado_196478" data-name="Trazado 196478" d="M11.413,12.382q-.253.262-.5.529A40.338,40.338,0,0,0,.029,42.021l16.9-.589a23.694,23.694,0,0,1,47.359-1.656l16.9-.589a40.606,40.606,0,0,0-69.778-26.8" transform="translate(0 0)" fill="#f9ce5d"/>
        <path id="Trazado_196479" data-name="Trazado 196479" d="M0,2.836A40.606,40.606,0,0,0,81.162,0L64.26.589A23.694,23.694,0,0,1,16.9,2.245Z" transform="translate(0.028 39.185)" fill="#70f5c8"/>
      </g>
      <ellipse id="Ellipse_13685" data-name="Ellipse 13685" cx="33.016" cy="33.016" rx="33.016" ry="33.016" transform="translate(8.983 9.09)" fill="#fff"/>
    </g>
    <g id="Group_1183664" data-name="Group 1183664" transform="translate(724.112 1735.434)">
      <g id="Group_1183663" data-name="Group 1183663" clip-path="url(#clip-path)">
        <path id="Path_1029718" data-name="Path 1029718" d="M113.692,21.837H101.837v23h13.322V23.3a1.471,1.471,0,0,0-1.467-1.466m-6.435,18.53a.669.669,0,0,1-.667.667H105.7a.669.669,0,0,1-.667-.667V38.422a.669.669,0,0,1,.667-.667h.889a.669.669,0,0,1,.667.667Zm0-6.057a.669.669,0,0,1-.667.667H105.7a.669.669,0,0,1-.667-.667V32.365a.669.669,0,0,1,.667-.667h.889a.669.669,0,0,1,.667.667Zm0-6.057a.669.669,0,0,1-.667.667H105.7a.669.669,0,0,1-.667-.667V26.309a.668.668,0,0,1,.667-.667h.889a.668.668,0,0,1,.667.667Zm4.683,12.114a.669.669,0,0,1-.667.667h-.889a.669.669,0,0,1-.667-.667V38.422a.669.669,0,0,1,.667-.667h.889a.669.669,0,0,1,.667.667Zm0-6.057a.669.669,0,0,1-.667.667h-.889a.669.669,0,0,1-.667-.667V32.365a.669.669,0,0,1,.667-.667h.889a.669.669,0,0,1,.667.667Zm0-6.057a.669.669,0,0,1-.667.667h-.889a.669.669,0,0,1-.667-.667V26.309a.669.669,0,0,1,.667-.667h.889a.668.668,0,0,1,.667.667Z" transform="translate(-69.551 -14.914)" fill="#203a72"/>
        <path id="Path_1029719" data-name="Path 1029719" d="M6.835,23.311V44.841H20.158v-23H8.3a1.472,1.472,0,0,0-1.467,1.474m7.9,3a.669.669,0,0,1,.667-.667h.889a.669.669,0,0,1,.667.667v1.944a.669.669,0,0,1-.667.667H15.4a.669.669,0,0,1-.667-.667Zm0,6.056A.669.669,0,0,1,15.4,31.7h.889a.669.669,0,0,1,.667.667V34.31a.669.669,0,0,1-.667.667H15.4a.669.669,0,0,1-.667-.667Zm0,6.056a.669.669,0,0,1,.667-.667h.889a.669.669,0,0,1,.667.667v1.945a.669.669,0,0,1-.667.667H15.4a.669.669,0,0,1-.667-.667ZM10.055,26.309a.669.669,0,0,1,.667-.667h.889a.669.669,0,0,1,.667.667v1.944a.669.669,0,0,1-.667.667h-.889a.669.669,0,0,1-.667-.667Zm0,6.056a.669.669,0,0,1,.667-.667h.889a.669.669,0,0,1,.667.667V34.31a.669.669,0,0,1-.667.667h-.889a.669.669,0,0,1-.667-.667Zm0,6.056a.669.669,0,0,1,.667-.667h.889a.669.669,0,0,1,.667.667v1.945a.669.669,0,0,1-.667.667h-.889a.669.669,0,0,1-.667-.667Z" transform="translate(-4.668 -14.914)" fill="#203a72"/>
        <path id="Path_1029720" data-name="Path 1029720" d="M65.372,2.233V.667A.667.667,0,0,0,64.7,0H48.751a.667.667,0,0,0-.667.667V2.233a.667.667,0,0,0,.667.667h1.182V29.923h13.59V2.9H64.7a.667.667,0,0,0,.667-.667M55.5,25.453a.669.669,0,0,1-.667.667h-.889a.669.669,0,0,1-.667-.667V23.508a.669.669,0,0,1,.667-.667h.889a.669.669,0,0,1,.667.667Zm0-6.056a.669.669,0,0,1-.667.667h-.889a.669.669,0,0,1-.667-.667V17.451a.669.669,0,0,1,.667-.667h.889a.669.669,0,0,1,.667.667Zm1.962-5.39H56V12.644a2.452,2.452,0,0,1-2.065-2.406v-.047h1.463v.047a.985.985,0,0,0,.983.984h.7a.983.983,0,0,0,0-1.967h-.7A2.441,2.441,0,0,1,56,4.4V3.041h1.463V4.4a2.453,2.453,0,0,1,2.064,2.406v.047H58.06V6.808a.985.985,0,0,0-.983-.984h-.7a.984.984,0,0,0,0,1.968h.7a2.44,2.44,0,0,1,.382,4.852ZM60.18,25.453a.669.669,0,0,1-.667.667h-.889a.669.669,0,0,1-.667-.667V23.508a.669.669,0,0,1,.667-.667h.889a.669.669,0,0,1,.667.667Zm0-6.056a.669.669,0,0,1-.667.667h-.889a.669.669,0,0,1-.667-.667V17.451a.669.669,0,0,1,.667-.667h.889a.669.669,0,0,1,.667.667Z" transform="translate(-32.839)" fill="#203a72"/>
        <path id="Path_1029721" data-name="Path 1029721" d="M0,100.227H0a.8.8,0,0,0,.8.8H46.974a.8.8,0,1,0,0-1.6H.8a.8.8,0,0,0-.8.8" transform="translate(0 -67.903)" fill="#14a0de"/>
      </g>
    </g>
  </g>
</svg>
