<svg xmlns="http://www.w3.org/2000/svg" xmlns:xlink="http://www.w3.org/1999/xlink" width="312.289" height="210" viewBox="0 0 312.289 210">
  <defs>
    <clipPath id="clip-path">
      <rect id="Rectangle_457787" data-name="Rectangle 457787" width="262.745" height="198.445" fill="none"/>
    </clipPath>
  </defs>
  <g id="img14" transform="translate(-185.955 -3698.464)">
    <rect id="Rectangle_456673" data-name="Rectangle 456673" width="312.289" height="210" transform="translate(185.955 3698.464)" fill="#f9ce5d"/>
    <g id="Group_1181093" data-name="Group 1181093" transform="translate(210.955 3710.019)">
      <g id="Group_1181092" data-name="Group 1181092" clip-path="url(#clip-path)">
        <path id="Path_1026874" data-name="Path 1026874" d="M174.481,220.7c30.558.041,58.679.537,81,1.333,54.657-31.142,35.829-92.016,16.267-126.461-27.227-47.938-91.691-65.243-118.417-27.06-36.276,51.825-71.179,33.676-90.092,73.047s9.677,77.181,30.248,80.252c22.318-.735,50.441-1.154,81-1.112m-47.672-132.9c-13.993,10.621-37.126,18.834-44.788,7.513C76.3,86.847,83.384,71,97.24,59s32.384-19.239,42.47-10.381c11.971,10.513-2.123,31-12.9,39.175" transform="translate(-43.101 -33.76)" fill="#f0f5fb" fill-rule="evenodd"/>
        <path id="Path_1026875" data-name="Path 1026875" d="M131.38,764.635c72.555.1,131.369,2.756,131.365,5.933s-58.826,5.674-131.38,5.575S0,773.388,0,770.21s58.825-5.673,131.38-5.575" transform="translate(0 -577.701)" fill="#dce6f2" fill-rule="evenodd"/>
        <path id="Path_1026876" data-name="Path 1026876" d="M430.985,77.1c32.8,7.354,53.64,37.557,55.666,52.129.831,5.979-.706-8.012-17.427-20.774-14.943-11.4-26.586-13.529-44.38-14.929-12.574-.988-25.742-2.553-24.8-10.052.748-5.923,9.761-11.121,30.938-6.373m-85.78-12.321c5.649.347,9.081,4.99,9.31,10.339.1,2.276-1.682-3.677-7.942-4.514-3.883-.518-4.469.626-5.858-.979s-.063-5.126,4.49-4.847" transform="translate(-257.023 -48.928)" fill="#fff" fill-rule="evenodd"/>
        <path id="Path_1026877" data-name="Path 1026877" d="M104.924,583.393c-1.5-1.877-3.6-3.43-4.216-5.75-.727-2.739.885-5.617.49-8.422-.5-3.532-3.894-5.825-5.735-8.878-1.8-2.992-.954-3.994-1.116-7.482-.241-5.256-4.542-11.9-10.288-10.125-5.833,1.8-4.888,7.222-3.868,11.3.728,2.905.25,3.322-.465,6.231-.863,3.513-3.635,6.906-2.483,10.335.713,2.121,2.79,3.555,3.538,5.662.848,2.39-.187,4.977-.587,7.481-.844,5.27.35,9.658,4.174,14.016a15.693,15.693,0,0,0,1.282,1.094c5.365-.3,11.4-.567,18.02-.809l.049-.051c3.511-3.821,4.565-10.386,1.2-14.6" transform="translate(-58.152 -409.831)" fill="#dce6f2" fill-rule="evenodd"/>
        <path id="Path_1026878" data-name="Path 1026878" d="M99.741,562.154a.46.46,0,1,0-.861.328,33.645,33.645,0,0,1,1.16,3.737c-.131-.119-.267-.236-.409-.35a10.689,10.689,0,0,0-2.128-1.32.461.461,0,1,0-.394.833,9.753,9.753,0,0,1,1.947,1.206,7.9,7.9,0,0,1,1.4,1.454c.584,2.813.966,5.838,1.308,9.026a16.392,16.392,0,0,0-1.706-2.235,11.944,11.944,0,0,0-3.492-2.671.46.46,0,0,0-.409.823,11.06,11.06,0,0,1,3.222,2.471A17.307,17.307,0,0,1,102,579.341l.088.866c.194,1.9.393,3.85.628,5.84a.47.47,0,0,0,.006.058c.246,2.079.533,4.2.9,6.365a26.459,26.459,0,0,0-3.209-4.082,19.533,19.533,0,0,0-5.526-4.053.461.461,0,0,0-.4.83,18.605,18.605,0,0,1,5.265,3.865,27.626,27.626,0,0,1,4.343,6.043,75.741,75.741,0,0,0,2.236,8.726h0l0,.01h0c.469,1.446.995,2.9,1.587,4.358a26.607,26.607,0,0,0-11.464-5.81.461.461,0,1,0-.21.9,25.863,25.863,0,0,1,6.788,2.607,26.549,26.549,0,0,1,5.772,4.382q.609,1.361,1.306,2.728l1.014-.043a61.662,61.662,0,0,1-3.9-9.363,17.748,17.748,0,0,1,.808-6.738,24.708,24.708,0,0,1,3.514-6.839.46.46,0,1,0-.75-.534,25.61,25.61,0,0,0-3.64,7.095,19.3,19.3,0,0,0-.825,4.036,97.667,97.667,0,0,1-2.689-14.532,29.078,29.078,0,0,1,1.819-5.008,10.791,10.791,0,0,1,2.167-3.139.461.461,0,0,0-.632-.671,11.749,11.749,0,0,0-2.365,3.406,25.509,25.509,0,0,0-1.25,3.105c-.134-1.23-.257-2.443-.379-3.636l-.093-.929a.333.333,0,0,0-.007-.051c-.647-6.328-1.3-12.087-3.164-16.982" transform="translate(-71.19 -424.499)" fill="#fff" fill-rule="evenodd"/>
        <path id="Path_1026879" data-name="Path 1026879" d="M40.35,648.083c-1.6-.864-3.526-1.323-4.641-2.756-1.317-1.692-1.049-4.175-2.154-6.013-1.391-2.312-4.437-2.9-6.625-4.484-2.143-1.549-1.848-2.5-2.993-4.882-1.725-3.59-6.689-6.942-10.167-4.005-3.529,2.984-1.265,6.479.655,9.02,1.368,1.807,1.158,2.24,1.522,4.477.439,2.7-.486,5.888,1.333,7.935,1.124,1.267,3,1.65,4.141,2.9,1.3,1.413,1.345,3.522,1.808,5.385a12,12,0,0,0,3.389,6.068c4.6-.341,10-.659,16.1-.947a9.087,9.087,0,0,0,1.123-2.166c1.312-3.7.1-8.587-3.488-10.529" transform="translate(-9.006 -472.07)" fill="#c4ddf2" fill-rule="evenodd"/>
        <path id="Path_1026880" data-name="Path 1026880" d="M29.036,639.417a.348.348,0,1,0-.5.483,25.13,25.13,0,0,1,1.916,2.26c-.128-.045-.256-.085-.387-.122a8.066,8.066,0,0,0-1.875-.289.348.348,0,0,0-.027.7,7.407,7.407,0,0,1,1.713.264,5.987,5.987,0,0,1,1.407.6c1.241,1.788,2.4,3.78,3.584,5.9a12.3,12.3,0,0,0-1.85-1.053,9.085,9.085,0,0,0-3.223-.826.348.348,0,1,0-.042.7,8.382,8.382,0,0,1,2.977.768,13.035,13.035,0,0,1,2.977,1.929l.318.576c.7,1.266,1.414,2.566,2.167,3.883a.321.321,0,0,0,.022.038c.789,1.377,1.618,2.771,2.51,4.169a20.01,20.01,0,0,0-3.445-1.893,14.736,14.736,0,0,0-5.05-1.186.349.349,0,0,0-.032.7,14.06,14.06,0,0,1,4.812,1.131,20.968,20.968,0,0,1,4.816,2.923,57.154,57.154,0,0,0,4.145,5.416h0l0,.006q1.133,1.3,2.4,2.567a20.112,20.112,0,0,0-9.707-.652.349.349,0,0,0,.12.688,19.541,19.541,0,0,1,5.5-.2A20.059,20.059,0,0,1,49.6,670.23q.908.839,1.888,1.654l1.038-.053a46.448,46.448,0,0,1-6.006-5.782,13.455,13.455,0,0,1-1.433-4.933,18.666,18.666,0,0,1,.422-5.805.348.348,0,0,0-.68-.15,19.317,19.317,0,0,0-.433,6.02,14.528,14.528,0,0,0,.62,3.057,74.048,74.048,0,0,1-6.179-9.326,22.04,22.04,0,0,1-.216-4.027,8.2,8.2,0,0,1,.579-2.829.348.348,0,1,0-.638-.279,8.9,8.9,0,0,0-.638,3.074,19.343,19.343,0,0,0,.049,2.533c-.457-.817-.9-1.626-1.341-2.422l-.341-.619a.153.153,0,0,0-.019-.034c-2.325-4.216-4.487-8.035-7.235-10.891" transform="translate(-21.022 -483.017)" fill="#fff" fill-rule="evenodd"/>
        <path id="Path_1026881" data-name="Path 1026881" d="M852.973,565.657c1.638-2.044,3.941-3.732,4.619-6.262.8-2.986-.95-6.132-.51-9.193.551-3.851,4.265-6.343,6.284-9.671,1.976-3.258,1.054-4.355,1.239-8.161.278-5.735,4.992-12.968,11.257-11.018,6.36,1.982,5.313,7.9,4.187,12.344-.8,3.169-.282,3.625.489,6.8.932,3.835,3.946,7.547,2.679,11.286-.784,2.311-3.054,3.87-3.878,6.169-.933,2.6.189,5.431.619,8.165.9,5.754-.412,10.536-4.6,15.281a16.672,16.672,0,0,1-1.586,1.327c-5.78-.3-12.231-.581-19.245-.828-.1-.1-.193-.2-.287-.3-3.819-4.182-4.95-11.347-1.27-15.939" transform="translate(-642.747 -393.651)" fill="#dce6f2" fill-rule="evenodd"/>
        <path id="Path_1026882" data-name="Path 1026882" d="M901.336,542.53a.5.5,0,1,1,.938.362A36.594,36.594,0,0,0,901,546.966c.144-.13.294-.256.447-.379a11.6,11.6,0,0,1,2.328-1.435.5.5,0,1,1,.427.908,10.619,10.619,0,0,0-2.127,1.311,8.632,8.632,0,0,0-1.535,1.583c-.645,3.067-1.07,6.366-1.454,9.845a17.757,17.757,0,0,1,1.868-2.434,13.073,13.073,0,0,1,3.818-2.9.5.5,0,1,1,.445.9,12.1,12.1,0,0,0-3.524,2.688,18.877,18.877,0,0,0-2.872,4.232l-.1.943c-.217,2.074-.44,4.2-.7,6.371a.43.43,0,0,1-.008.063c-.275,2.27-.594,4.587-1,6.943a28.978,28.978,0,0,1,3.513-4.444,21.316,21.316,0,0,1,6.042-4.407.5.5,0,0,1,.435.907,20.3,20.3,0,0,0-5.757,4.2,30.207,30.207,0,0,0-4.759,6.584,82.092,82.092,0,0,1-2.465,9.515h0l0,.011h0q-.774,2.365-1.744,4.752a29,29,0,0,1,12.526-6.307.5.5,0,0,1,.227.98,28.285,28.285,0,0,0-7.415,2.824,28.913,28.913,0,0,0-6.311,4.766q-.718,1.584-1.539,3.174l-1.111-.044a67.234,67.234,0,0,0,4.4-10.413,19.369,19.369,0,0,0-.862-7.356,26.965,26.965,0,0,0-3.814-7.473.5.5,0,0,1,.82-.58,27.962,27.962,0,0,1,3.951,7.752,21.087,21.087,0,0,1,.888,4.408A106.35,106.35,0,0,0,897,568.6a31.637,31.637,0,0,0-1.969-5.469,11.8,11.8,0,0,0-2.355-3.433.5.5,0,0,1,.69-.73,12.808,12.808,0,0,1,2.572,3.724,27.967,27.967,0,0,1,1.355,3.393c.149-1.342.288-2.664.424-3.967l.106-1.014a.417.417,0,0,1,.006-.055c.725-6.9,1.455-13.187,3.5-18.523" transform="translate(-671.117 -409.653)" fill="#fff" fill-rule="evenodd"/>
        <path id="Path_1026883" data-name="Path 1026883" d="M915.191,636.48c1.746-.94,3.849-1.432,5.073-2.994,1.442-1.843,1.156-4.552,2.367-6.554,1.526-2.521,4.851-3.156,7.242-4.875,2.342-1.683,2.025-2.721,3.281-5.318,1.894-3.912,7.32-7.554,11.107-4.34,3.842,3.266,1.361,7.076-.741,9.841-1.5,1.97-1.27,2.442-1.674,4.883-.487,2.948.512,6.425-1.478,8.654-1.231,1.38-3.274,1.791-4.529,3.148-1.42,1.538-1.477,3.84-1.988,5.87a13.066,13.066,0,0,1-3.8,6.687c-5.018-.348-10.84-.673-17.347-.968a9.906,9.906,0,0,1-1.354-2.555c-1.422-4.044-.086-9.371,3.838-11.478" transform="translate(-688.135 -461.753)" fill="#c4ddf2" fill-rule="evenodd"/>
        <path id="Path_1026884" data-name="Path 1026884" d="M953,627.092a.381.381,0,0,1,.546.53,27.4,27.4,0,0,0-2.1,2.46c.139-.048.28-.093.423-.132a8.8,8.8,0,0,1,2.047-.31.38.38,0,0,1,.028.76,8.122,8.122,0,0,0-1.871.282,6.508,6.508,0,0,0-1.536.649c-1.36,1.945-2.634,4.117-3.931,6.427a13.367,13.367,0,0,1,2.023-1.141,9.872,9.872,0,0,1,3.519-.893.38.38,0,0,1,.044.759,9.143,9.143,0,0,0-3.251.827,14.263,14.263,0,0,0-3.254,2.1l-.349.628c-.764,1.379-1.55,2.8-2.377,4.23a.37.37,0,0,1-.024.041c-.864,1.5-1.772,3.02-2.751,4.541a21.914,21.914,0,0,1,3.763-2.054,16.129,16.129,0,0,1,5.515-1.28.381.381,0,0,1,.034.76,15.367,15.367,0,0,0-5.255,1.221,22.842,22.842,0,0,0-5.265,3.176,62.307,62.307,0,0,1-4.538,5.9l-.006.008c-.827.946-1.7,1.879-2.623,2.793a21.939,21.939,0,0,1,10.594-.682.381.381,0,0,1-.133.75,21.385,21.385,0,0,0-6-.231,21.947,21.947,0,0,0-5.808,1.45q-1.081.994-2.253,1.953l-1.147-.055a50.544,50.544,0,0,0,6.773-6.453,14.658,14.658,0,0,0,1.579-5.38,20.358,20.358,0,0,0-.443-6.335.38.38,0,1,1,.743-.162,21.2,21.2,0,0,1,.456,6.571,16.058,16.058,0,0,1-.687,3.334,80.616,80.616,0,0,0,6.769-10.158,23.726,23.726,0,0,0,.248-4.394,8.913,8.913,0,0,0-.623-3.089.38.38,0,1,1,.7-.3,9.709,9.709,0,0,1,.687,3.357,21.193,21.193,0,0,1-.06,2.764c.5-.89.99-1.772,1.471-2.638l.373-.674c.006-.013.014-.025.021-.037,2.551-4.595,4.921-8.754,7.928-11.865" transform="translate(-700.424 -473.698)" fill="#fff" fill-rule="evenodd"/>
        <path id="Path_1026885" data-name="Path 1026885" d="M475.713,171.666c-.48,6.453-1.432,7.342-7.586,7.831,6.153.5,7.1,1.4,7.564,7.85.479-6.453,1.432-7.342,7.585-7.829-6.152-.506-7.1-1.4-7.563-7.851M500.7,188.72c-.256,3.446-.765,3.921-4.05,4.18,3.285.27,3.792.746,4.039,4.192.256-3.446.764-3.919,4.049-4.18-3.284-.27-3.792-.746-4.037-4.192m-10.917-26.531c-.258,3.488-.774,3.969-4.1,4.233,3.328.274,3.841.755,4.091,4.246.259-3.489.774-3.97,4.1-4.234-3.328-.273-3.841-.755-4.091-4.245" transform="translate(-353.683 -122.538)" fill="#fff" fill-rule="evenodd"/>
        <path id="Path_1026886" data-name="Path 1026886" d="M402.416,546.853c.592,8.283,1.812,9.427,9.706,10.076-7.9.628-9.12,1.768-9.733,10.05-.593-8.283-1.813-9.427-9.708-10.076,7.9-.628,9.12-1.768,9.735-10.05m-32.128,21.8c.316,4.422.967,5.033,5.183,5.38-4.217.334-4.869.943-5.2,5.365-.316-4.422-.967-5.033-5.184-5.379,4.216-.334,4.87-.945,5.2-5.365m14.1-34.013c.32,4.479.98,5.1,5.25,5.449-4.271.338-4.932.956-5.264,5.434-.32-4.479-.98-5.1-5.249-5.448,4.27-.34,4.932-.956,5.263-5.435" transform="translate(-275.836 -403.936)" fill="#fff" fill-rule="evenodd"/>
        <path id="Path_1026887" data-name="Path 1026887" d="M772.714,563.251c-.3,4-.889,4.553-4.705,4.856,3.816.314,4.405.867,4.691,4.87.3-4,.889-4.554,4.705-4.857-3.815-.313-4.405-.866-4.691-4.868m15.5,10.577c-.159,2.137-.475,2.432-2.513,2.593,2.038.167,2.352.463,2.505,2.6.158-2.137.475-2.432,2.511-2.593-2.037-.167-2.352-.463-2.5-2.6m-6.772-16.456c-.161,2.164-.48,2.462-2.544,2.626,2.063.168,2.382.468,2.536,2.632.161-2.164.48-2.463,2.545-2.626-2.064-.17-2.383-.468-2.537-2.633" transform="translate(-580.252 -421.11)" fill="#fff" fill-rule="evenodd"/>
        <path id="Path_1026888" data-name="Path 1026888" d="M149.97,379.645v-.008a10.5,10.5,0,0,0-1.658-3.968,7.312,7.312,0,0,1-1.611-4.025,17.337,17.337,0,0,1,.429-3.569,10.459,10.459,0,0,0-.177-5.83,5.309,5.309,0,0,0-3.73-3.255,6.56,6.56,0,0,0-6.093,2.108c-1.581,1.759-2.172,4.084-3.452,6.032a23.19,23.19,0,0,1-2.619,2.931,18.566,18.566,0,0,0-3.631,4.463,9.165,9.165,0,0,0,3.224,11.454,8.668,8.668,0,0,0,1.1.6c.174.08.35.154.529.222a19.757,19.757,0,0,0,8.491,1.026,14.519,14.519,0,0,0,4.941-1.1c2.737-1.232,4.773-3.978,4.259-7.088" transform="translate(-95.636 -271.133)" fill="#142d4d" fill-rule="evenodd"/>
        <path id="Path_1026889" data-name="Path 1026889" d="M171.3,562H96.731c-.319,0-.576-.541-.576-1.207v-.6c0-.666.257-1.207.576-1.207H171.3c.318,0,.576.541.576,1.207v.6c0,.666-.259,1.207-.576,1.207" transform="translate(-72.648 -422.33)" fill="#b08d78" fill-rule="evenodd"/>
        <path id="Path_1026890" data-name="Path 1026890" d="M208.382,433.034c2.523.565,5.707,7.574,7.267,12.066,1.573,4.529,4.239,10.148,5.987,11.894s13.218,5.793,13.218,5.793-28.346.055-27.766,0,1.294-29.753,1.294-29.753" transform="translate(-156.454 -327.169)" fill="#8d9fca" fill-rule="evenodd"/>
        <path id="Path_1026891" data-name="Path 1026891" d="M226.937,460.535c-1.552-.221-7.15.5-4.766-.5s2.051-2.272,2.051-2.272-3.382,2.827-3.991.355c-.525-2.131-.727-9.655-2.722-17.2-1.648-3.739-3.806-7.481-5.62-7.887,0,0-.063,2.655-.169,6.379.7,8.238,1.879,20.344,2.178,23.4,3.757,0,10.045,0,15.306-.008l3.5-.167a37.707,37.707,0,0,0-5.764-2.1" transform="translate(-159.96 -327.169)" fill="#9aa8d0" fill-rule="evenodd"/>
        <path id="Path_1026892" data-name="Path 1026892" d="M142.936,426.681s-8.025,4.483-9.895,5.437,5.241,28.941,6.822,30.14,15.5.206,17.09-1.3-1.216-6.149.156-15.435-4.184-17.3-4.9-17.285a48.042,48.042,0,0,1-5.371-1.553Z" transform="translate(-100.282 -322.369)" fill="#8d9fca" fill-rule="evenodd"/>
        <path id="Path_1026893" data-name="Path 1026893" d="M139.941,480.323c1.581,1.2,11.544,1.225,15.786-.093.478-.151,2.652-1.015,2.7-1.83-.511-.1-2.544.148-3.368-.043-2.868-.659-4.448-4.211-4.448-4.211s-1.58-.569-5.113-2.065-2.078-6.028-2.16-8.022-3.493-8.523-9.895-13.469l-.586.264c-.457,4.547,5.62,28.358,7.083,29.468" transform="translate(-100.36 -340.434)" fill="#9aa8d0" fill-rule="evenodd"/>
        <path id="Path_1026894" data-name="Path 1026894" d="M190.271,543.714c5.045.942,6.284,2.1,9.033,2.542,3.118.5,2.747,1.192.431,1.192s-8.132.09-10.127-.354.663-3.38.663-3.38" transform="translate(-142.693 -410.791)" fill="#f4ae7c" fill-rule="evenodd"/>
        <path id="Path_1026895" data-name="Path 1026895" d="M104.952,449.566c-3.865,12.359-9.345,26.383-8.472,26.383s23.07.9,23.942.151.623-3.615.5-3.99-12.619-2.591-12.619-2.591,1.646-3.206,2.27-9.474-4.886-12.823-5.619-10.478" transform="translate(-72.823 -339.292)" fill="#8d9fca" fill-rule="evenodd"/>
        <path id="Path_1026896" data-name="Path 1026896" d="M176.877,382.75l-3.114,11.378s5.26,8.214,6.707,7.484-.809-6.677-.809-7.484,2.255-9.144,2.255-9.144Z" transform="translate(-131.283 -289.178)" fill="#f4ae7c" fill-rule="evenodd"/>
        <path id="Path_1026897" data-name="Path 1026897" d="M184.32,402.71a11.759,11.759,0,0,1,.125-1.494c.086-.808,2.786-8.762,2.786-8.762l-4.8-2.234L181,393.985a19.775,19.775,0,0,0,3.324,8.725" transform="translate(-136.748 -294.822)" fill="#f3a15e" fill-rule="evenodd"/>
        <path id="Path_1026898" data-name="Path 1026898" d="M191.464,371.637c.065,3.383-.142,9.351-3.072,10.466-4.506.9-7.753-1.972-7.54-6.429-1.423-3.745-.2-7.683,2.728-8.8a6.178,6.178,0,0,1,7.883,4.761" transform="translate(-136.191 -276.949)" fill="#f4ae7c" fill-rule="evenodd"/>
        <path id="Path_1026899" data-name="Path 1026899" d="M175.483,389.93a1.994,1.994,0,0,1-.8,2.636c-.85.3-1.873-.387-2.283-1.54a1.993,1.993,0,0,1,.8-2.638c.85-.3,1.873.387,2.284,1.541" transform="translate(-130.126 -293.384)" fill="#f4ae7c" fill-rule="evenodd"/>
        <path id="Path_1026900" data-name="Path 1026900" d="M132.828,681.4h1.166l7.523-34.858h-2.563Z" transform="translate(-100.355 -488.477)" fill="#b08d78" fill-rule="evenodd"/>
        <path id="Path_1026901" data-name="Path 1026901" d="M250.341,677.586h-1.166L240.42,641.5h2.563Z" transform="translate(-181.644 -484.668)" fill="#b08d78" fill-rule="evenodd"/>
        <path id="Path_1026902" data-name="Path 1026902" d="M148.156,582.638c-4.667,0-7.624-.838-9.511-2.676-2.338-2.279-2.823-5.808-2.83-10.408-.006-3.618-.091-5.975-.288-7.881a1.306,1.306,0,1,1,2.6-.268c.206,2,.3,4.433.3,8.145.008,4.66.6,7.136,2.042,8.539,1.479,1.443,4.155,2.037,8.672,1.924a51.344,51.344,0,0,0,9.778-1.208c3.174-.644,5.467-1.112,8.186.188a1.305,1.305,0,1,1-1.126,2.356c-1.93-.921-3.568-.588-6.54.016a53.628,53.628,0,0,1-10.234,1.26c-.358.009-.708.014-1.049.014" transform="translate(-102.389 -423.272)" fill="#b08d78" fill-rule="evenodd"/>
        <path id="Path_1026903" data-name="Path 1026903" d="M285.016,565.952c6.039-.917,8.093-.628,11.791,6.253s8.617,19.268,11.447,20.868c4.262,2.41,5.674,8.317,7.424,8.052s2.877.507.971,2.091-4.979,2.93-6.031,2.648-1.867-4.824-4.612-6.3-1.921-2.688-1.741-3.993-8.016-7.312-14.2-14.783c-3.775-4.565-5.719-7.578-6.007-10.31a7.159,7.159,0,0,1,.954-4.528" transform="translate(-214.584 -427.307)" fill="#f4ae7c" fill-rule="evenodd"/>
        <path id="Path_1026904" data-name="Path 1026904" d="M299.991,590.9c-1.4-3.56-2.811-9.433-4.134-14.819-1.881-7.661-3.852-9.479-5.1-10.294a15.1,15.1,0,0,0-5.739.165,7.16,7.16,0,0,0-.954,4.528c.288,2.731,2.232,5.745,6.007,10.31a108.691,108.691,0,0,0,9.921,10.112" transform="translate(-214.584 -427.308)" fill="#f3a15e" fill-rule="evenodd"/>
        <path id="Path_1026905" data-name="Path 1026905" d="M277.524,572s-1.607,12.128-3.1,13.361c-1.07.881-1.828.94-2.577-2.676s1.163-17.118,1.163-17.118Z" transform="translate(-205.254 -427.305)" fill="#142d4d" fill-rule="evenodd"/>
        <path id="Path_1026906" data-name="Path 1026906" d="M244.407,585.22l-14.876,2.5,8.4-12.043,6.391-1.3,3.833.882Z" transform="translate(-173.417 -433.958)" fill="#f3a15e" fill-rule="evenodd"/>
        <path id="Path_1026907" data-name="Path 1026907" d="M156.045,567.5c-5.278,9.472-1.673,15.491,4.741,16.105s16.541-.558,22.443-5.463,10.749-10.091,10.073-10.866-37.258.224-37.258.224" transform="translate(-115.976 -428.373)" fill="#f29f65" fill-rule="evenodd"/>
        <path id="Path_1026908" data-name="Path 1026908" d="M282.7,580.158c1.081-3.242,2.326-5.73,4.739-5.776,2.536-.046,4.1,1.273,4.2,5.421.128,4.941.3,21.3.074,28.579-.172,5.508,1.434,7.271,1.3,13.012-.1,4.324,4.507,2.14,2.726,4.383-1.223,1.542-4.869,1.037-7.107.753-2-.254,1.032-6.233-1.729-7.832-2.369-1.372-2.415-3.6-.919-5.284s.165-6.674-.831-10.165a76.975,76.975,0,0,1-3.561-15.525,19.76,19.76,0,0,1,1.106-7.566" transform="translate(-212.704 -433.961)" fill="#f4ae7c" fill-rule="evenodd"/>
        <path id="Path_1026909" data-name="Path 1026909" d="M304.814,744.287a10.4,10.4,0,0,1-2.527.519c-1.663.054-2.162-1.774-2.272-4.259a11.906,11.906,0,0,0-3.289-6.971c-.03.04-.059.078-.091.114-1.5,1.686-1.45,3.913.919,5.284,2.761,1.6-.266,7.578,1.729,7.832,2.239.284,5.884.788,7.107-.753,1.159-1.458-.278-1.573-1.576-1.767" transform="translate(-223.35 -554.237)" fill="#142d4d" fill-rule="evenodd"/>
        <path id="Path_1026910" data-name="Path 1026910" d="M373.466,692.677a11.869,11.869,0,0,1-2.276,1.676c-1.66.854-3.2-.5-4.709-2.624-1.32-1.85-2.763-4.549-5.187-4.978-.008.05-.017.1-.028.145-.572,2.2-1.355,4.6,1.827,4.65,3.707.06,4,6.757,6.168,6.012,2.437-.836,6.427-2.161,6.8-4.1.356-1.836-1.169-1.242-2.6-.78" transform="translate(-272.551 -518.86)" fill="#142d4d" fill-rule="evenodd"/>
        <path id="Path_1026911" data-name="Path 1026911" d="M294.439,731.52s-2.425,2.532-2.2,3.584a40.106,40.106,0,0,1,1.094,5.764c.125,2.051.237,4.406.237,4.406s.872,0,.942-.248.555-8.335.555-8.335Z" transform="translate(-220.782 -552.684)" fill="#142d4d" fill-rule="evenodd"/>
        <path id="Path_1026912" data-name="Path 1026912" d="M361.35,686.757s-1.038,3.39-.219,4.2.995,2.675,2.276,4.408,2.721,3.739,2.721,3.739.888-.423.818-.674-4.132-7.559-4.132-7.559Z" transform="translate(-272.607 -518.864)" fill="#142d4d" fill-rule="evenodd"/>
        <path id="Path_1026913" data-name="Path 1026913" d="M149.867,565.571s-3.13,13.286.825,16.969,20.379.37,24.247.149c2.62-.149,5.154,3.046,5.154,3.046s-1.828-7.412-.581-13.4,3.26-6.388,3.26-6.388l-2.679-.378Z" transform="translate(-112.34 -427.305)" fill="#003d81" fill-rule="evenodd"/>
        <path id="Path_1026914" data-name="Path 1026914" d="M148.5,551.367c1.339,2.84-1.441,7.745-.467,9.158s6.552.2,10.207-2.743,10.57-3.589,10.57-3.589Z" transform="translate(-111.687 -416.573)" fill="#8d9fca" fill-rule="evenodd"/>
        <path id="Path_1026915" data-name="Path 1026915" d="M161.472,638.746c11.056.414,22.7.219,22.7-1.43s-.5-2.811-9.062-2.146-14.382,1.58-16.96,1,3.326,2.579,3.326,2.579" transform="translate(-118.991 -479.745)" fill="#b08d78" fill-rule="evenodd"/>
        <path id="Path_1026916" data-name="Path 1026916" d="M282.139,459.475H251.391a1.534,1.534,0,0,0-1.391,1.1l-5.471,20.832a.822.822,0,0,0,.812,1.1H276.09a1.535,1.535,0,0,0,1.391-1.1l5.471-20.832a.823.823,0,0,0-.812-1.1" transform="translate(-184.72 -347.146)" fill="#d0d9ee" fill-rule="evenodd"/>
        <path id="Path_1026917" data-name="Path 1026917" d="M243.661,472.666l3.714-14.143a1.536,1.536,0,0,1,1.391-1.1h30.747c.606,0,1.685.783,1.506,1.383a.805.805,0,0,0-.848-.882H249.424a1.534,1.534,0,0,0-1.391,1.1l-5.471,20.832a.866.866,0,0,0,.219.888c-.507-.327-.99-.959-.876-1.389Z" transform="translate(-182.753 -345.595)" fill="#bcc9e7" fill-rule="evenodd"/>
        <path id="Path_1026918" data-name="Path 1026918" d="M216.31,549.041h30.749a1.208,1.208,0,0,0,.337-.049c-.613,1.586-2.275,1.352-2.924,1.347H208.016c-1.975-.084-1.923-1.47-1.949-2.805h8.758a1.8,1.8,0,0,0,.892,1.293.857.857,0,0,0,.593.213" transform="translate(-155.689 -413.678)" fill="#bcc9e7" fill-rule="evenodd"/>
        <path id="Path_1026919" data-name="Path 1026919" d="M255.089,494.516c3.3,1.668,7.2,2.18,11.2,2.384a3.036,3.036,0,0,0-.1.442,2.633,2.633,0,0,0,2.644,3.128,3.483,3.483,0,0,0,3.344-2.88,3.143,3.143,0,0,0,.037-.511c4.162.112,8.183.341,11.509,1.643l-2.286,8.709H251.7Z" transform="translate(-190.164 -373.621)" fill="#d0d9ee" fill-rule="evenodd"/>
        <path id="Path_1026920" data-name="Path 1026920" d="M317.3,498.426a2.428,2.428,0,0,0-2.311,1.994,1.66,1.66,0,0,0,1.679,2,2.427,2.427,0,0,0,2.312-2,1.66,1.66,0,0,0-1.68-1.994" transform="translate(-237.962 -376.575)" fill="#d0d9ee" fill-rule="evenodd"/>
        <path id="Path_1026921" data-name="Path 1026921" d="M189.862,368.111a6.7,6.7,0,0,1-2.678-2.694c-.09-.161-.171-.323-.247-.486a7.677,7.677,0,0,1-4.616,2.752,8.056,8.056,0,0,1-4.462-.289,7.627,7.627,0,0,1,1.258-4.044,5.991,5.991,0,0,1,1.374-1.435,5.644,5.644,0,0,1,7.418.634,7.179,7.179,0,0,1,1.832,3.929,13.932,13.932,0,0,1,.117,1.39c0,.081,0,.162,0,.243" transform="translate(-134.377 -272.605)" fill="#142d4d" fill-rule="evenodd"/>
        <path id="Path_1026922" data-name="Path 1026922" d="M202.849,395.84c-.149.008-.354-.227-.411-.58a.922.922,0,0,1,.049-.507c.022-.048.081-.161.173-.175h.014c.147-.008.353.228.409.58a.935.935,0,0,1-.049.507c-.022.047-.081.161-.172.175Z" transform="translate(-152.937 -298.113)" fill="#142d4d" fill-rule="evenodd"/>
        <path id="Path_1026923" data-name="Path 1026923" d="M221.131,394.207c-.125.006-.336-.2-.394-.56a.908.908,0,0,1,.049-.493c.043-.1.1-.157.163-.166h.013c.126-.006.337.2.393.56a.885.885,0,0,1-.048.493c-.042.1-.1.157-.163.166Z" transform="translate(-166.763 -296.913)" fill="#142d4d" fill-rule="evenodd"/>
        <path id="Path_1026924" data-name="Path 1026924" d="M213.242,400.8a.546.546,0,0,1,.5-.148.656.656,0,0,1,.473.9.545.545,0,0,1-.408.324.739.739,0,0,0,.212-.39.589.589,0,0,0-.333-.641.757.757,0,0,0-.443-.049" transform="translate(-161.11 -302.695)" fill="#00303f" fill-rule="evenodd"/>
        <path id="Path_1026925" data-name="Path 1026925" d="M201.046,388.63a.084.084,0,0,0,.037-.018,1.359,1.359,0,0,1,.479-.227l.071-.015a1.355,1.355,0,0,1,.482,0,.081.081,0,0,0,.036,0,.1.1,0,0,0,.037-.015.1.1,0,0,0,.046-.068.1.1,0,0,0-.084-.12,1.529,1.529,0,0,0-.556.005l-.082.018a1.535,1.535,0,0,0-.553.262.1.1,0,0,0-.02.145.1.1,0,0,0,.1.039Z" transform="translate(-151.799 -293.251)" fill="#142d4d" fill-rule="evenodd"/>
        <path id="Path_1026926" data-name="Path 1026926" d="M219.258,389.113l.021,0a.1.1,0,0,0,.068-.026.1.1,0,0,0,.01-.145,1.434,1.434,0,0,0-.718-.441l-.075-.017a1.29,1.29,0,0,0-.211-.026.105.105,0,0,0-.108.1.1.1,0,0,0,.077.106l.022,0a1.159,1.159,0,0,1,.179.023c.022,0,.042.009.063.014a1.238,1.238,0,0,1,.615.376.089.089,0,0,0,.052.032Z" transform="translate(-164.891 -293.493)" fill="#142d4d" fill-rule="evenodd"/>
        <path id="Path_1026927" data-name="Path 1026927" d="M203.181,395.505a.173.173,0,0,0-.07.339.173.173,0,0,0,.07-.339" transform="translate(-153.356 -298.812)" fill="#fff" fill-rule="evenodd"/>
        <path id="Path_1026928" data-name="Path 1026928" d="M221.7,393.721a.172.172,0,0,0-.069.337.172.172,0,0,0,.069-.337" transform="translate(-167.349 -297.464)" fill="#fff" fill-rule="evenodd"/>
        <path id="Path_1026929" data-name="Path 1026929" d="M434.086,202.328l-107.2.619a3.879,3.879,0,0,1-3.9-3.856l-.417-72.3a3.877,3.877,0,0,1,3.856-3.9l107.2-.62a3.881,3.881,0,0,1,3.9,3.858l.418,72.3a3.879,3.879,0,0,1-3.857,3.9m-3.65-4.221a3.536,3.536,0,0,0,3.518-3.558l-.373-64.5a3.538,3.538,0,0,0-3.559-3.518l-99.946.578a3.537,3.537,0,0,0-3.518,3.559l.373,64.5a3.539,3.539,0,0,0,3.559,3.519Z" transform="translate(-243.71 -92.377)" fill="#d0d9ee" fill-rule="evenodd"/>
        <path id="Path_1026930" data-name="Path 1026930" d="M442.762,211.282l-99.946.576a3.537,3.537,0,0,1-3.559-3.518l-.373-64.5a3.54,3.54,0,0,1,3.519-3.559l99.946-.576a3.538,3.538,0,0,1,3.558,3.518l.373,64.5a3.538,3.538,0,0,1-3.518,3.559" transform="translate(-256.036 -105.551)" fill="#f0f5fb" fill-rule="evenodd"/>
        <path id="Path_1026931" data-name="Path 1026931" d="M445.513,143.261l.01,1.831-107.153.619-.011-1.831a3.762,3.762,0,0,1,3.987-3.9l99.136-.571c2.667-.016,4.016,1.316,4.031,3.856" transform="translate(-255.639 -105.325)" fill="#d2e5f6" fill-rule="evenodd"/>
        <path id="Path_1026932" data-name="Path 1026932" d="M718.338,147.828a1.08,1.08,0,1,1-1.086-1.073,1.08,1.08,0,0,1,1.086,1.073m7.759-.044a1.08,1.08,0,1,1-1.086-1.074,1.079,1.079,0,0,1,1.086,1.074m-3.879.022a1.08,1.08,0,1,1-1.086-1.074,1.081,1.081,0,0,1,1.086,1.074" transform="translate(-541.093 -110.843)" fill="#fff" fill-rule="evenodd"/>
        <path id="Path_1026933" data-name="Path 1026933" d="M369.569,335.8h33.337a4.459,4.459,0,0,1,4.185,4.668v5.062a4.459,4.459,0,0,1-4.185,4.668h-2.258l-.756,3.972-2.718-3.972H369.569a4.459,4.459,0,0,1-4.186-4.668v-5.062a4.459,4.459,0,0,1,4.186-4.668" transform="translate(-276.057 -253.709)" fill="#d0d9ee" fill-rule="evenodd"/>
        <path id="Path_1026934" data-name="Path 1026934" d="M382.023,354.6h-7.371a1.706,1.706,0,0,1-1.7-1.706v-7.371a1.7,1.7,0,0,1,1.7-1.7h7.371a1.7,1.7,0,0,1,1.706,1.7v7.371a1.706,1.706,0,0,1-1.706,1.706" transform="translate(-281.772 -259.763)" fill="#f0f5fb" fill-rule="evenodd"/>
        <path id="Path_1026935" data-name="Path 1026935" d="M384.995,349.078a2.979,2.979,0,1,1-2.98,2.979,2.978,2.978,0,0,1,2.98-2.979" transform="translate(-288.623 -263.738)" fill="#d0d9ee" fill-rule="evenodd"/>
        <path id="Path_1026936" data-name="Path 1026936" d="M374.525,375.908h9.93a6.231,6.231,0,0,0-9.93,0" transform="translate(-282.964 -282.145)" fill="#d0d9ee" fill-rule="evenodd"/>
        <path id="Path_1026937" data-name="Path 1026937" d="M426.8,347.594h8.689v1.034H426.8Zm0,6.7h19.174v1.034H426.8Zm0-2.482h14.426v1.034H426.8Zm0-1.987h18.521v1.034H426.8Z" transform="translate(-322.458 -262.617)" fill="#f0f5fb" fill-rule="evenodd"/>
        <path id="Path_1026938" data-name="Path 1026938" d="M365.374,181.446h94.253a1.535,1.535,0,0,1,1.532,1.532v18.286a1.535,1.535,0,0,1-1.532,1.532H365.374a1.535,1.535,0,0,1-1.532-1.532V182.978a1.535,1.535,0,0,1,1.532-1.532" transform="translate(-274.893 -137.088)" fill="#d0d9ee" fill-rule="evenodd"/>
        <path id="Path_1026939" data-name="Path 1026939" d="M393.516,210.1h-9.1a2.106,2.106,0,0,1-2.1-2.106v-9.1a2.106,2.106,0,0,1,2.1-2.106h9.1a2.107,2.107,0,0,1,2.107,2.106v9.1a2.107,2.107,0,0,1-2.107,2.106" transform="translate(-288.846 -148.679)" fill="#f0f5fb" fill-rule="evenodd"/>
        <path id="Path_1026940" data-name="Path 1026940" d="M397.188,203.288a3.678,3.678,0,1,1-3.678,3.678,3.677,3.677,0,0,1,3.678-3.678" transform="translate(-297.308 -153.59)" fill="#d0d9ee" fill-rule="evenodd"/>
        <path id="Path_1026941" data-name="Path 1026941" d="M384.261,236.416h12.26a7.694,7.694,0,0,0-12.26,0" transform="translate(-290.32 -176.319)" fill="#d0d9ee" fill-rule="evenodd"/>
        <path id="Path_1026942" data-name="Path 1026942" d="M673.63,199.306a3.547,3.547,0,1,1,3.547-3.546,3.547,3.547,0,0,1-3.547,3.546m-5.431,1.768a7.6,7.6,0,0,0,1.7,1.306l-.1,1.8,1.5.53,1.061-1.463.409.058H674.5l.981,1.517,1.34-.381.046-.017.139-.053,0-1.807.3-.157,1.468-1.058.161.062,1.523.588a9.324,9.324,0,0,0,.968-1.261l-1.061-1.459a7.6,7.6,0,0,0,.716-2.021l1.743-.463.041-1.591-1.717-.556a7.516,7.516,0,0,0-.607-2.056l1.138-1.4a9.248,9.248,0,0,0-.9-1.31l-1.717.56-1.7-1.306.1-1.8a9.171,9.171,0,0,0-1.5-.53l-1.059,1.461-2.142-.055-.982-1.517-1.525.452,0,1.805a7.608,7.608,0,0,0-1.765,1.215l-.453-.174-1.232-.476a9.387,9.387,0,0,0-.969,1.26l1.063,1.459a7.506,7.506,0,0,0-.716,2.021l-1.743.465-.043,1.59,1.716.555a7.585,7.585,0,0,0,.607,2.056l-1.137,1.4a9.262,9.262,0,0,0,.9,1.309Z" transform="translate(-501.97 -141.053)" fill="#f0f5fb" fill-rule="evenodd"/>
        <path id="Path_1026943" data-name="Path 1026943" d="M721.833,221.078a.187.187,0,0,1-.143-.306,6.083,6.083,0,0,0,1.072-5.862.187.187,0,1,1,.354-.123,6.464,6.464,0,0,1-1.138,6.224.182.182,0,0,1-.144.067" transform="translate(-545.224 -162.183)" fill="#fff" fill-rule="evenodd"/>
        <path id="Path_1026944" data-name="Path 1026944" d="M713.023,200.619a.2.2,0,0,1-.129-.051,6.026,6.026,0,0,0-2.091-1.289.187.187,0,1,1,.128-.351,6.416,6.416,0,0,1,2.22,1.369.186.186,0,0,1,.008.264.19.19,0,0,1-.136.059" transform="translate(-536.939 -150.287)" fill="#fff" fill-rule="evenodd"/>
        <path id="Path_1026945" data-name="Path 1026945" d="M695.832,197.952a.187.187,0,0,1-.045-.368,6.478,6.478,0,0,1,1.583-.2.187.187,0,1,1,0,.373,6.111,6.111,0,0,0-1.492.185.186.186,0,0,1-.046.005" transform="translate(-525.58 -149.132)" fill="#fff" fill-rule="evenodd"/>
        <rect id="Rectangle_457785" data-name="Rectangle 457785" width="39.225" height="1.034" transform="translate(115.265 48.806)" fill="#f0f5fb"/>
        <rect id="Rectangle_457786" data-name="Rectangle 457786" width="39.225" height="1.034" transform="translate(115.265 59.482)" fill="#f0f5fb"/>
        <path id="Path_1026946" data-name="Path 1026946" d="M629.858,195.621l-1.72.993-1.72.994v-3.972l1.72.993Z" transform="translate(-473.276 -146.297)" fill="#fff" fill-rule="evenodd"/>
        <path id="Path_1026947" data-name="Path 1026947" d="M469.722,239.283l1.719.993,1.72.994V237.3l-1.72.994Z" transform="translate(-354.888 -179.284)" fill="#fff" fill-rule="evenodd"/>
        <path id="Path_1026948" data-name="Path 1026948" d="M619.756,288.2H586.42a4.46,4.46,0,0,0-4.186,4.669v5.061a4.459,4.459,0,0,0,4.186,4.669h2.257l.757,3.972,2.719-3.972h27.6a4.459,4.459,0,0,0,4.185-4.669V292.87a4.46,4.46,0,0,0-4.185-4.669" transform="translate(-439.894 -217.744)" fill="#d0d9ee" fill-rule="evenodd"/>
        <path id="Path_1026949" data-name="Path 1026949" d="M714.811,301.475a2.979,2.979,0,1,0,2.978,2.98,2.98,2.98,0,0,0-2.978-2.98" transform="translate(-537.808 -227.773)" fill="#f0f5fb" fill-rule="evenodd"/>
        <path id="Path_1026950" data-name="Path 1026950" d="M713.009,328.307h-9.93a6.232,6.232,0,0,1,9.93,0" transform="translate(-531.196 -246.183)" fill="#f0f5fb" fill-rule="evenodd"/>
        <path id="Path_1026951" data-name="Path 1026951" d="M632.167,299.991h-8.69v1.034h8.69Zm0,6.7H612.992v1.034h19.175Zm0-2.483H617.741v1.034h14.426Zm0-1.985H613.644v1.034h18.523Z" transform="translate(-463.133 -226.652)" fill="#f0f5fb" fill-rule="evenodd"/>
        <path id="Path_1026952" data-name="Path 1026952" d="M642.091,348.867l.359-1.8H682.01V308.59h1.8v40.277Z" transform="translate(-485.118 -233.148)" fill="#d0d9ee" fill-rule="evenodd"/>
        <path id="Path_1026953" data-name="Path 1026953" d="M725.341,740.013l.7-5.751,4.9,1-1.029,5.994-3.93,1.2Z" transform="translate(-548.015 -554.755)" fill="#f6b788" fill-rule="evenodd"/>
        <path id="Path_1026954" data-name="Path 1026954" d="M700.8,758.571A8.718,8.718,0,0,0,700.39,757a11.474,11.474,0,0,0-.506-1.706l-.12,0-3.789-.054-.7-1.389-.1-.193-2.064.659L689,755.631l-3.046.973a.783.783,0,0,0-.1,1.488,15.183,15.183,0,0,0,2.45.649c1.5.3,2.88.447,4.389.7s2.919.405,4.408.555l1.809.18c.03,0,.06.006.091.009a2.309,2.309,0,0,0,1.364-.162c.454-.3.476-.957.432-1.449" transform="translate(-517.818 -569.411)" fill="#1a3065" fill-rule="evenodd"/>
        <path id="Path_1026955" data-name="Path 1026955" d="M739.716,490.778c-.191,1.142-.332,2.466-.519,3.919-.114.877-.248,1.8-.42,2.763-.382,2.108-.987,4.585-1.358,6.37-.149.715-1.648,9.264-2.833,16.029-.8,4.555-1.449,8.3-1.449,8.3l-4.49,25.374-8.249-1.253s1.462-19,2.4-27.566c.571-5.209.835-13.262,2.3-24.122.248-1.84.822-6.442,1.253-9.815Z" transform="translate(-544.281 -370.797)" fill="#09378c" fill-rule="evenodd"/>
        <path id="Path_1026956" data-name="Path 1026956" d="M775.665,506.811c-.114.877-.248,1.8-.42,2.763-.382,2.107-.987,4.585-1.358,6.37-.149.715-1.648,9.264-2.833,16.029a22.494,22.494,0,0,1-2.388-10.6c0-7.64,3.077-13.911,7-14.562" transform="translate(-580.749 -382.91)" fill="#1a3065" fill-rule="evenodd"/>
        <path id="Path_1026957" data-name="Path 1026957" d="M833.3,753.663l-1.258-5.792,5.092.5,1.018,6.064-3.41,1.6Z" transform="translate(-628.628 -565.038)" fill="#f6b788" fill-rule="evenodd"/>
        <path id="Path_1026958" data-name="Path 1026958" d="M817.3,771.765a11.634,11.634,0,0,0-.923-1.518,15.39,15.39,0,0,0-1.067-1.647l-.117.01-3.7.328-1.15-1.31-.162-.184-1.781.865q-1.776.859-3.549,1.72-1.316.634-2.63,1.274a.647.647,0,0,0-.365.578,1.2,1.2,0,0,0,.766.912,16.9,16.9,0,0,0,2.6.4c1.561.148,2.945.154,4.5.252s2.971.108,4.467.107c.591,0,1.192,0,1.816,0h.091a2,2,0,0,0,1.271-.3c.341-.344.139-1-.068-1.486" transform="translate(-605.831 -579.825)" fill="#1a3065" fill-rule="evenodd"/>
        <path id="Path_1026959" data-name="Path 1026959" d="M833.793,747.354l.6,3.649-8.743-.452-.95-3.675Z" transform="translate(-623.082 -564.286)" fill="#1a3065" fill-rule="evenodd"/>
        <path id="Path_1026960" data-name="Path 1026960" d="M728.175,731.339l-.758,3.739-8.844-1.553.227-4.028Z" transform="translate(-542.902 -551.156)" fill="#1a3065" fill-rule="evenodd"/>
        <path id="Path_1026961" data-name="Path 1026961" d="M610.34,315.9a5.73,5.73,0,0,0-.544-.187c-.494-.149-.994-.279-1.485-.431a2.248,2.248,0,0,1-.611-.264.821.821,0,0,1-.367-.536.509.509,0,0,1,.288-.546.84.84,0,0,1,.571.062l.727.26c.327.119.654.236.977.367a3.622,3.622,0,0,1,1.7,1.206c.126.185.35.956-.135.8-.185-.059-.346-.277-.506-.39a3.188,3.188,0,0,0-.614-.342" transform="translate(-458.853 -237.164)" fill="#f5b280" fill-rule="evenodd"/>
        <path id="Path_1026962" data-name="Path 1026962" d="M609.568,313.913a5.321,5.321,0,0,0-.544-.188c-.494-.148-.993-.278-1.485-.43a2.256,2.256,0,0,1-.611-.264.819.819,0,0,1-.365-.535.508.508,0,0,1,.287-.547.838.838,0,0,1,.573.062l.726.26c.327.117.655.234.976.366a3.613,3.613,0,0,1,1.7,1.206c.126.185.35.955-.134.8-.188-.059-.347-.277-.506-.39a3.215,3.215,0,0,0-.615-.341" transform="translate(-458.271 -235.663)" fill="#f4ad79" fill-rule="evenodd"/>
        <path id="Path_1026963" data-name="Path 1026963" d="M615.509,319.025a7.622,7.622,0,0,0,.272-1.432c.021-.254.041-.5.08-.749-.183.08-.313.121-.356.1a1.186,1.186,0,0,1-.355-.342l-.032-.041a24.128,24.128,0,0,0-2.419-2.612,9.283,9.283,0,0,0-1.889-1.529,17.814,17.814,0,0,0-2.361-1,1.068,1.068,0,0,0-.388-.093.392.392,0,0,0-.385.488c.187.535.85.778,1.332.976a8.806,8.806,0,0,1,1.323.6,2.918,2.918,0,0,1,.939,1c.179.29.368.572.542.868a2.611,2.611,0,0,1,.181.354.93.93,0,0,1,.078.513.628.628,0,0,1-.257.427c-.152.08-.311-.039-.44-.112a2.209,2.209,0,0,1-.408-.325,3.206,3.206,0,0,0-.691-.58.849.849,0,0,0-.139-.062c-.517-.188-1.317.133-.891.763a2.2,2.2,0,0,0,.334.356,12.862,12.862,0,0,0,1.692,1.6,13.457,13.457,0,0,0,1.315.71,6.146,6.146,0,0,0,2.7.849q.116-.366.223-.737" transform="translate(-459.101 -235.215)" fill="#f6b788" fill-rule="evenodd"/>
        <path id="Path_1026964" data-name="Path 1026964" d="M620.079,328.646a3.159,3.159,0,0,1,.2.287,1.16,1.16,0,0,1,.2.582.535.535,0,0,1-.291.51.626.626,0,0,1-.506-.049,2.711,2.711,0,0,1-.889-.911,2.81,2.81,0,0,0-.44-.5,3.227,3.227,0,0,1,.691.58,2.2,2.2,0,0,0,.407.325c.129.072.288.192.44.112a.63.63,0,0,0,.257-.427.944.944,0,0,0-.078-.513" transform="translate(-467.188 -248.243)" fill="#f4ad79" fill-rule="evenodd"/>
        <path id="Path_1026965" data-name="Path 1026965" d="M915.384,516.817a5.519,5.519,0,0,1,.227.53c.184.48.351.969.539,1.448a2.2,2.2,0,0,0,.307.589.82.82,0,0,0,.562.326.51.51,0,0,0,.524-.328.842.842,0,0,0-.1-.565c-.105-.234-.21-.471-.312-.705-.143-.316-.283-.635-.439-.945a3.606,3.606,0,0,0-1.329-1.606c-.194-.111-.978-.278-.789.194.074.182.3.325.426.476a3.114,3.114,0,0,1,.388.587" transform="translate(-690.962 -389.429)" fill="#f4ad79" fill-rule="evenodd"/>
        <path id="Path_1026966" data-name="Path 1026966" d="M917.422,517.442a5.48,5.48,0,0,1,.227.53c.185.481.351.969.539,1.447a2.212,2.212,0,0,0,.309.589.83.83,0,0,0,.561.328.512.512,0,0,0,.524-.33.838.838,0,0,0-.1-.566c-.105-.234-.208-.469-.312-.705-.14-.317-.283-.634-.438-.945a3.615,3.615,0,0,0-1.329-1.606c-.194-.111-.978-.278-.79.193.074.183.3.327.427.476a3.235,3.235,0,0,1,.386.587" transform="translate(-692.502 -389.901)" fill="#f5b280" fill-rule="evenodd"/>
        <path id="Path_1026967" data-name="Path 1026967" d="M893.565,500.962a7.641,7.641,0,0,1,1.408-.378c.254-.041.5-.08.742-.136-.067.189-.1.321-.072.363a1.225,1.225,0,0,0,.367.33c.014.01.03.019.045.028a24.46,24.46,0,0,1,2.784,2.218,9.306,9.306,0,0,1,1.663,1.77,17.873,17.873,0,0,1,1.174,2.28,1.1,1.1,0,0,1,.121.381.392.392,0,0,1-.458.419c-.548-.145-.84-.791-1.073-1.254a8.613,8.613,0,0,0-.7-1.275,2.923,2.923,0,0,0-1.071-.861c-.3-.157-.6-.325-.907-.476a2.563,2.563,0,0,0-.365-.156.947.947,0,0,0-.519-.039.639.639,0,0,0-.406.288c-.069.157.062.308.144.43a2.2,2.2,0,0,0,.355.384,3.168,3.168,0,0,1,.63.646,1.174,1.174,0,0,1,.072.134c.227.5-.034,1.324-.695.945a2.129,2.129,0,0,1-.38-.306,12.76,12.76,0,0,1-1.725-1.567,13.7,13.7,0,0,1-.807-1.26,6.165,6.165,0,0,1-1.049-2.632c.238-.1.479-.189.72-.277" transform="translate(-674.569 -378.103)" fill="#f6b788" fill-rule="evenodd"/>
        <path id="Path_1026968" data-name="Path 1026968" d="M782.556,508.862c.19,1.142.332,2.466.518,3.919.114.878.248,1.8.422,2.763.381,2.108.985,4.586,1.356,6.371.149.715,1.648,9.264,2.833,16.03.8,4.555,1.449,8.3,1.449,8.3l4.49,25.374,8.249-1.252s-1.462-19.007-2.4-27.568c-.572-5.209-.834-13.262-2.3-24.122-.248-1.84-.821-6.442-1.253-9.815Z" transform="translate(-591.243 -384.46)" fill="#09378c" fill-rule="evenodd"/>
        <path id="Path_1026969" data-name="Path 1026969" d="M906.412,514.8a3.3,3.3,0,0,0-.3-.179,1.174,1.174,0,0,0-.594-.162.537.537,0,0,0-.487.329.623.623,0,0,0,.086.5,2.715,2.715,0,0,0,.975.818,2.8,2.8,0,0,1,.526.4,3.176,3.176,0,0,0-.631-.646,2.185,2.185,0,0,1-.355-.384c-.082-.122-.212-.273-.144-.43a.639.639,0,0,1,.406-.288.946.946,0,0,1,.519.039" transform="translate(-683.757 -388.688)" fill="#f4ad79" fill-rule="evenodd"/>
        <path id="Path_1026970" data-name="Path 1026970" d="M779.372,358.478a25.416,25.416,0,0,0-3.214-.253,12.579,12.579,0,0,0-3.393.466l.731,4.1,5.705-1.015Z" transform="translate(-583.846 -270.649)" fill-rule="evenodd"/>
        <path id="Path_1026971" data-name="Path 1026971" d="M760.594,404.86c-2.042,1.527-24.395,1.328-24.379.241a70.913,70.913,0,0,1,.831-8.308c.217-1.582.424-3.146.549-4.639.3-3.519,1.291-14.608,1.431-16.57.092-1.279.318-4.179.343-4.524.165-.115.332-.224.5-.33l.015-.009c.125-.074.268-.157.425-.245h0c.665-.385,1.54-.874,2.118-1.145,1.445-.681,3.57-1.814,5.6-1.814a18.94,18.94,0,0,1,5.972,1.1,20.035,20.035,0,0,1,2.97,1.058l.012.005a2.794,2.794,0,0,0-1.374,2.227,21.272,21.272,0,0,0,2.495,13.5s.944,6.543,1.492,9.88c.347,2.119,1.284,9.363,1,9.577" transform="translate(-556.231 -277.668)" fill="#fff" fill-rule="evenodd"/>
        <path id="Path_1026972" data-name="Path 1026972" d="M805.5,518.473c0,.048,0,.094,0,.136a1.171,1.171,0,0,1-.032.245c-.133.507-3.181,1.474-5.118,2.1-2.137.691-6.218,1.38-6.533,1.138a.581.581,0,0,1-.11-.112,1.145,1.145,0,0,1-.143-.241l-.031-.068c-.033-.08-.065-.166-.093-.257s-.05-.174-.072-.265-.04-.168-.058-.256c0-.03-.011-.057-.017-.086-.015-.086-.031-.173-.044-.26a13.4,13.4,0,0,1-.136-1.44l11.764-3.418s.271.817.456,1.651c.01.046.022.093.031.14s.018.089.025.132.017.084.024.126c.029.154.052.3.066.443h0c.008.053.01.1.014.153s.006.094.006.138" transform="translate(-599.218 -389.618)" fill="#818fc2" fill-rule="evenodd"/>
        <path id="Path_1026973" data-name="Path 1026973" d="M884.884,494.217a13.987,13.987,0,0,0,.862,1.378c.05.07.1.141.156.21a5.206,5.206,0,0,0,.526.6,2.141,2.141,0,0,0,.2.174.887.887,0,0,0,.449.207c.648.048,3.287-2.521,3.326-2.944a1.319,1.319,0,0,0-.112-.558c-.032-.086-.072-.176-.117-.269a7.314,7.314,0,0,0-.4-.709c-.049-.08-.1-.157-.152-.234-.444-.668-.911-1.234-.911-1.234Z" transform="translate(-668.555 -370.845)" fill="#818fc2" fill-rule="evenodd"/>
        <path id="Path_1026974" data-name="Path 1026974" d="M801.334,390.2c-1.267-1.821-1.652-2.772-3.173-4.99a26.484,26.484,0,0,1-1.441-2.342c-.028-.053-.053-.1-.077-.148-.127.254,2.656,18.885,2.694,19.156.2,1.407.856,2.487-.964,3.24-.174.071-.385.149-.628.231-.166.056-.346.112-.54.173-.818.249-1.866.525-2.993.795l-.168.041c-3.6.852-6.608,1.617-6.782,1.213-.119-.275-1.6-29.931-1.557-34.833v-.02a4.457,4.457,0,0,1,.391-1.53q.106-.259.232-.533c.247-.544.544-1.122.845-1.707.109-.216.22-.431.33-.647.212-.421.417-.84.6-1.246.035-.078.067-.156.1-.233l.126.029c.2.044.4.091.6.139l.327.08c.2.051.4.1.6.156.1.025.207.053.31.081.149.038.3.081.448.122l.187.053c.295.082,6.261,1.471,8.1,3.834.445.571,5.1,8.773,6.618,11.913,4.311,6.846,8.874,13.438,8.874,14.96,0,.886-3.55,3.295-4.057,3.169-.388-.1-6.972-8.241-9-11.156" transform="translate(-593.622 -277.143)" fill="#8d9fca" fill-rule="evenodd"/>
        <path id="Path_1026975" data-name="Path 1026975" d="M784.713,367.448l.026.342c.842-.652,1.673-1.315,2.473-2.007a16.241,16.241,0,0,0,1.993-2l-.162-.264a12.5,12.5,0,0,1-.887,1,30.739,30.739,0,0,1-2.81,2.436c-.209.167-.421.333-.632.5" transform="translate(-592.873 -274.646)" fill="#fff" fill-rule="evenodd"/>
        <path id="Path_1026976" data-name="Path 1026976" d="M631.5,337.3a12.289,12.289,0,0,1-1.138-.724c-.058-.044-.116-.086-.174-.131a4.732,4.732,0,0,1-.5-.44,1.745,1.745,0,0,1-.142-.168.73.73,0,0,1-.17-.374c-.035-.538,2.114-2.708,2.465-2.738a1.1,1.1,0,0,1,.462.1c.072.028.145.062.222.1a6.024,6.024,0,0,1,.587.336c.064.041.129.084.192.127.551.372,1.019.763,1.019.763Z" transform="translate(-475.517 -251.379)" fill="#818fc2" fill-rule="evenodd"/>
        <path id="Path_1026977" data-name="Path 1026977" d="M738.449,519.113a16.553,16.553,0,0,1-.109,1.786c-.012.088-.023.173-.038.255a3.807,3.807,0,0,1-.133.592,1.543,1.543,0,0,1-.1.241.645.645,0,0,1-.08.113c-.23.242-3.3-.443-4.91-1.131-1.463-.624-3.763-1.586-3.873-2.093a1.868,1.868,0,0,1-.032-.382c0-.09,0-.188.009-.29.011-.18.031-.372.056-.57.011-.09.023-.182.037-.272.12-.834.306-1.651.306-1.651Z" transform="translate(-550.91 -389.633)" fill="#818fc2" fill-rule="evenodd"/>
        <path id="Path_1026978" data-name="Path 1026978" d="M669.751,348.891c0,.438-1.159,11.832-1.315,17.425-.265,9.678-.768,17.739-1.049,18.3-.351.7-5.843-1.547-8.243-2.54-1.818-.752-1.158-1.832-.963-3.239.575-4.147,3.354-21.7,3.349-21.692l-.034-.01c-.1-.029-.405-.121-.867-.263-2.969-.907-12.36-3.839-13.424-4.8-6.149-5.534-11.664-11.029-12.3-12.3-.221-.443,2.482-3.785,3.043-3.424,2.155,1.395,12.8,7.734,12.8,7.734s10.429,1.151,11.284,1.395c.887.254,4.385-.96,4.68-1.042a9.5,9.5,0,0,1,1.193-.281c.865,2.05,1.84,3.765,1.84,4.728" transform="translate(-479.681 -254.106)" fill="#8d9fca" fill-rule="evenodd"/>
        <path id="Path_1026979" data-name="Path 1026979" d="M742.7,389.908l-1.67,7.71c-.1-.029-.405-.121-.867-.263,1.138-3.507,2.478-7.28,2.537-7.447" transform="translate(-559.213 -294.586)" fill="#818fc2" fill-rule="evenodd"/>
        <path id="Path_1026980" data-name="Path 1026980" d="M831.615,406.2a26.514,26.514,0,0,1-1.441-2.342,26.6,26.6,0,0,1-.123-5.222q.087-2.019.171-4.034c.2,1.161.56,5.005.661,5.753.11.808.391,3.714.732,5.845" transform="translate(-627.076 -298.134)" fill="#818fc2" fill-rule="evenodd"/>
        <path id="Path_1026981" data-name="Path 1026981" d="M758.148,302.575c1.2,2.883,4,4.457,6.274,3.515s3.138-4.042,1.943-6.925-4-4.456-6.275-3.514-3.138,4.042-1.942,6.924" transform="translate(-572.396 -223.167)" fill="#0f3970" fill-rule="evenodd"/>
        <path id="Path_1026982" data-name="Path 1026982" d="M771,344.846a4.876,4.876,0,0,0,1.8,1.309c3.073.1,5.616-5.351,5.616-5.351a9.211,9.211,0,0,1-3.091-7.54l-2.738,2.2-1.858,1.5a22.715,22.715,0,0,0,.211,2.431c.036.282.082.587.131.912a.653.653,0,0,1-.3.66c-1.288.8.221,3.878.221,3.878" transform="translate(-581.948 -251.79)" fill="#f6b788" fill-rule="evenodd"/>
        <path id="Path_1026983" data-name="Path 1026983" d="M772.2,343.614a22.722,22.722,0,0,0,.211,2.431c2.058-.353,4.4-3.681,4.4-3.681a6.528,6.528,0,0,0-2.747-.246Z" transform="translate(-583.417 -258.439)" fill="#f4aa74" fill-rule="evenodd"/>
        <path id="Path_1026984" data-name="Path 1026984" d="M759.3,315.6s7.136,1.185,7.806-3.271,2.042-7.3-2.486-8.247-5.672.621-6.256,2.054-.9,9.041.936,9.465" transform="translate(-572.623 -229.523)" fill="#f6b788" fill-rule="evenodd"/>
        <path id="Path_1026985" data-name="Path 1026985" d="M764.772,289.428a2.478,2.478,0,0,0-.539-2.161,3.145,3.145,0,0,0-1.9-1.02,5.981,5.981,0,0,0-2.159.1,8.113,8.113,0,0,1-2.068.3,3.175,3.175,0,0,1-2.243-1.176,1.889,1.889,0,0,0-2.371-.1,3.452,3.452,0,0,0-1.518,2.122,2.769,2.769,0,0,0,1.234,2.962c1.525.892,6.316.575,6.965.56s-.4,2.588.027,3.109a13.086,13.086,0,0,0,1.423,6.584,36.053,36.053,0,0,0,3.757-5.193,12.93,12.93,0,0,0,1.1-3.3,5.318,5.318,0,0,0,.134-1.743,1.484,1.484,0,0,0-.2-.628,1.084,1.084,0,0,0-.8-.457,1.954,1.954,0,0,0-.838.045" transform="translate(-568.099 -215.328)" fill="#0f3970" fill-rule="evenodd"/>
        <path id="Path_1026986" data-name="Path 1026986" d="M783.763,321.314c.512.3.476,1.319-.081,2.284s-1.424,1.508-1.936,1.212-.477-1.319.08-2.284,1.424-1.508,1.938-1.212" transform="translate(-590.356 -242.701)" fill="#f6b788" fill-rule="evenodd"/>
        <path id="Path_1026987" data-name="Path 1026987" d="M786.819,310.31c-.924-1.815-3.885-3-3.587-3.214s2.827.444,3.289,1.492c.318.441.592,1.508.3,1.723" transform="translate(-591.738 -231.989)" fill="#0f3970" fill-rule="evenodd"/>
        <path id="Path_1026988" data-name="Path 1026988" d="M769.664,321.832c.113.066.368-.039.552-.29a.8.8,0,0,0,.162-.416.249.249,0,0,0-.063-.2l-.01-.006c-.114-.066-.368.038-.552.289a.8.8,0,0,0-.164.417.252.252,0,0,0,.065.2Z" transform="translate(-581.446 -242.445)" fill="#0f3970" fill-rule="evenodd"/>
        <path id="Path_1026989" data-name="Path 1026989" d="M759.923,319.712c.1.052.342-.04.518-.3a.8.8,0,0,0,.142-.41.225.225,0,0,0-.07-.192l-.01-.006c-.1-.05-.341.04-.517.3a.782.782,0,0,0-.142.41.222.222,0,0,0,.069.192Z" transform="translate(-574.084 -240.853)" fill="#0f3970" fill-rule="evenodd"/>
        <path id="Path_1026990" data-name="Path 1026990" d="M765.334,325.714a.485.485,0,0,0-.414-.194.561.561,0,0,0-.435.236.568.568,0,0,0-.093.488.484.484,0,0,0,.313.333.661.661,0,0,1-.134-.365.511.511,0,0,1,.1-.32.5.5,0,0,1,.274-.192.653.653,0,0,1,.39.015" transform="translate(-577.504 -245.939)" fill="#f4aa74" fill-rule="evenodd"/>
        <path id="Path_1026991" data-name="Path 1026991" d="M773.436,316.035a1.579,1.579,0,0,1,1.116.556.3.3,0,0,1-.039.427.3.3,0,0,1-.233.068.312.312,0,0,1-.1-.027.334.334,0,0,1-.1-.079.96.96,0,0,0-.678-.339.277.277,0,0,1-.118-.03.3.3,0,0,1-.171-.288.307.307,0,0,1,.319-.29" transform="translate(-584.111 -238.773)" fill="#0f3970" fill-rule="evenodd"/>
        <path id="Path_1026992" data-name="Path 1026992" d="M762.66,312.746a1.388,1.388,0,0,1,.217-.036,1.471,1.471,0,0,1,.913.223.3.3,0,0,1-.077.547.253.253,0,0,1-.059.011.312.312,0,0,1-.191-.046.864.864,0,0,0-.532-.128.738.738,0,0,0-.124.02.264.264,0,0,1-.047.006.3.3,0,0,1-.32-.229.306.306,0,0,1,.221-.368" transform="translate(-576.038 -236.257)" fill="#0f3970" fill-rule="evenodd"/>
        <path id="Path_1026993" data-name="Path 1026993" d="M771.277,321.545a.151.151,0,0,1-.08.292.151.151,0,0,1,.08-.292" transform="translate(-582.58 -242.932)" fill="#fff" fill-rule="evenodd"/>
        <path id="Path_1026994" data-name="Path 1026994" d="M761.206,319.2a.151.151,0,0,1-.067.295.151.151,0,0,1,.067-.295" transform="translate(-574.977 -241.159)" fill="#fff" fill-rule="evenodd"/>
        <path id="Path_1026995" data-name="Path 1026995" d="M763.8,338.561a.947.947,0,0,1-.093.279c-.293.57-1.094.688-1.673.682a1.8,1.8,0,0,1-1.474-.6,2.5,2.5,0,0,1,.7-.543A2.551,2.551,0,0,1,763,338.16a1.812,1.812,0,0,1,.795.4" transform="translate(-574.621 -255.44)" fill="#eaa2a1" fill-rule="evenodd"/>
        <path id="Path_1026996" data-name="Path 1026996" d="M769.7,363.089l-.082.5-.061.354-.107.643-.057.349-.161.964-.056.345-.139.836-2.73-4.529a4.015,4.015,0,0,1,1.576-2.189Z" transform="translate(-578.963 -272.264)" fill="#818fc2" fill-rule="evenodd"/>
        <path id="Path_1026997" data-name="Path 1026997" d="M784.318,362.976l.026.341.026.346.045.571.026.342.073.942.024.33.094,1.2,4.966-5.371a5.653,5.653,0,0,0-1.5-2.419Z" transform="translate(-592.574 -271.432)" fill="#818fc2" fill-rule="evenodd"/>
        <path id="Path_1026998" data-name="Path 1026998" d="M508.826,0,479.111,12.182,487.27,22.6Z" transform="translate(-361.982 0)" fill="#d0d9ee" fill-rule="evenodd"/>
        <path id="Path_1026999" data-name="Path 1026999" d="M436.993,7.477l33-7.2-41.079,3Z" transform="translate(-324.056 -0.206)" fill="#d0d9ee" fill-rule="evenodd"/>
        <path id="Path_1027000" data-name="Path 1027000" d="M461.965,7.271l.772,13.681,3.42-8.77L495.872,0l-.908.067Z" transform="translate(-349.027 0)" fill="#aab9de" fill-rule="evenodd"/>
        <path id="Path_1027001" data-name="Path 1027001" d="M465.123,58.6l7.035-4.153-3.616-4.617Z" transform="translate(-351.413 -37.647)" fill="#8d9fca" fill-rule="evenodd"/>
        <path id="Path_1027002" data-name="Path 1027002" d="M281.1,77.158a.713.713,0,0,0-.148-1.418l-1.423.155a.713.713,0,0,0,.159,1.416ZM232.379,133.81a.713.713,0,0,0,0,1.426l.92,0a.713.713,0,0,0-.013-1.426Zm5.146-.129a.713.713,0,0,0,.08,1.423l1.436-.09a.713.713,0,0,0-.106-1.422Zm5.606-.534a.713.713,0,0,0,.215,1.41Zm5.445-1.2a.712.712,0,0,0,.445,1.354c.468-.149.928-.313,1.386-.492a.713.713,0,0,0-.529-1.324c-.427.17-.865.322-1.3.462m4.835-2.433a.712.712,0,0,0,.9,1.107,10.259,10.259,0,0,0,1.122-1.059.712.712,0,0,0-1.068-.943,8.948,8.948,0,0,1-.95.894m2.666-4.322a.713.713,0,0,0,1.405.243,10.526,10.526,0,0,0,.166-1.52.712.712,0,0,0-1.424-.034,8.781,8.781,0,0,1-.147,1.31m-.382-5.328a.713.713,0,0,0,1.374-.378c-.126-.466-.264-.948-.422-1.4a.713.713,0,0,0-1.35.457c.147.435.278.881.4,1.325m-1.966-5.221a.713.713,0,0,0,1.3-.6c-.2-.433-.406-.873-.619-1.3a.713.713,0,0,0-1.281.626c.207.42.408.847.6,1.271m-2.542-5.057a.712.712,0,0,0,1.258-.667l-.668-1.26a.713.713,0,0,0-1.26.669c.229.408.45.841.669,1.257m-2.656-5.064a.712.712,0,0,0,1.275-.636l-.623-1.269a.713.713,0,0,0-1.287.615ZM246.218,99.2a.713.713,0,0,0,1.355-.444c-.144-.44-.274-.87-.39-1.319a.713.713,0,0,0-1.382.349c.123.48.262.943.417,1.414m-.714-5.917a.712.712,0,0,0,1.414.176,10.119,10.119,0,0,1,.242-1.312.713.713,0,0,0-1.382-.353,11.916,11.916,0,0,0-.274,1.489m2.191-5.582a.713.713,0,0,0,1.151.84,13.385,13.385,0,0,1,.844-1.054.712.712,0,0,0-1.056-.955,12.991,12.991,0,0,0-.939,1.168m4.3-4.062a.713.713,0,0,0,.8,1.183c.384-.26.772-.5,1.17-.741a.713.713,0,0,0-.727-1.226c-.421.251-.832.509-1.238.785m5.15-2.734a.712.712,0,0,0,.551,1.314c.43-.183.865-.352,1.3-.52a.713.713,0,0,0-.507-1.332c-.45.173-.9.349-1.345.538m5.461-1.9A.713.713,0,0,0,263,80.379L264.36,80A.712.712,0,0,0,264,78.626Zm5.589-1.365a.712.712,0,0,0,.287,1.395l1.387-.276a.712.712,0,0,0-.266-1.4Zm5.65-1a.713.713,0,0,0,.212,1.41l1.4-.2a.713.713,0,0,0-.2-1.411Z" transform="translate(-175.029 -57.219)" fill="#8d9fca" fill-rule="evenodd"/>
        <path id="Path_1027003" data-name="Path 1027003" d="M207.559,407.472a2.393,2.393,0,0,1-4.681.915,8.331,8.331,0,0,0,4.681-.915" transform="translate(-153.28 -307.857)" fill="#ed7d5b" fill-rule="evenodd"/>
      </g>
    </g>
  </g>
</svg>
