<svg xmlns="http://www.w3.org/2000/svg" width="626" height="180" viewBox="0 0 626 180">
  <g id="img11" transform="translate(-446.686 -2520)">
    <rect id="Rectangle_456595" data-name="Rectangle 456595" width="626" height="180" transform="translate(446.686 2520)" fill="#fef5de"/>
    <g id="Group_1180819" data-name="Group 1180819" transform="translate(5786.216 16875.67)">
      <path id="Path_1024285" data-name="Path 1024285" d="M421.469,151.7a56.394,56.394,0,0,1,18.368-1.168A31.366,31.366,0,0,1,453.96,155.3a26.012,26.012,0,0,1,10.187,13.341c2.559,7.435,2.143,15.557.38,23.119-1.388,6.335-3.443,12.507-4.64,18.885-.8,4.886-1.309,10.161.785,14.807,1.8,4.136,5.661,6.921,9.644,8.763,4.519,2.029,9.244,3.554,13.777,5.556a55.758,55.758,0,0,1,14.82,9.015c4.375,4.081,8.014,9.248,9.212,15.2a23.376,23.376,0,0,1-2.192,15.063c-2.919,5.828-7.579,10.524-12.284,14.932-7.654,7.042-15.989,13.5-22.249,21.905a41.4,41.4,0,0,0-4.221,6.921c6.954-.046,13.914-.085,20.868-.01l.18.514q-159.061.069-318.127-.007l-.259-.481c6.685-.167,13.377-.043,20.066-.052,4.552-.02,9.107.007,13.659.026,2.333.016,4.67-.115,7,.049l-1-.252c.2-.147.4-.288.605-.425.494.2.995.4,1.5.592-.546-12.271-1.574-24.526-1.711-36.814-.052-2.651.334-5.491,1.973-7.661,1.643-2.058,4.447-2.379,6.882-2.667,1.289-8.06,2.683-16.113,4.65-24.039.576-2.458,1.473-4.83,2.16-7.248a20.544,20.544,0,0,1,2.647-10.233,19.961,19.961,0,0,1,3.763-11.322c-8.266-3.053-16.709-5.933-25.511-6.918a44.93,44.93,0,0,0-20.115,2.173,54.657,54.657,0,0,0-19.578,12.412,63.3,63.3,0,0,0-8.842,10.913,53.389,53.389,0,0,0-9.077,25.256,37.524,37.524,0,0,0,3.619,19.333,43.7,43.7,0,0,0,11.234,14.258,80.548,80.548,0,0,0,18.034,11.548,157.027,157.027,0,0,0,19.657,7.742c2.638.759,5.177,1.878,7.88,2.389.085.137.252.419.337.56a189.553,189.553,0,0,1-26.323-9.493,93.66,93.66,0,0,1-14.2-8.053,53.393,53.393,0,0,1-13.25-12.52,38.312,38.312,0,0,1-6.61-14.624c-1.895-8.181-.635-16.784,2.192-24.595a60.183,60.183,0,0,1,7.971-14.647,57.95,57.95,0,0,1,8.528-9.693c7.536-6.829,16.9-11.983,27.092-13.237,7.746-1.165,15.6.154,23.09,2.166,4.771,1.325,9.464,2.919,14.084,4.7,1.662-2.52,3.511-4.928,4.925-7.6a47.173,47.173,0,0,0,3.642-9.061c.592-2.582.838-5.236,1.538-7.795,1.283-5.527,4.058-11.011,8.855-14.271a20.861,20.861,0,0,1,14.542-3.128c5.295.615,10.723,2.507,14.454,6.466a13.273,13.273,0,0,1,3.894,8.894,9.569,9.569,0,0,1-2.1,5.805c-.02,1.783-.281,3.56-.278,5.344a23.915,23.915,0,0,1-.818,8.364,72.826,72.826,0,0,1-3,8.358,6.518,6.518,0,0,1-1.374,2.238,5.19,5.19,0,0,1-2.5.851c.046,2.2-.02,4.395-.088,6.59a33.853,33.853,0,0,0,6.515.088,65.355,65.355,0,0,0,13.348-2.16q-.049-6.195-.029-12.386c-.039-4.306-.016-8.61-.043-12.916,13.7-.111,27.409-.023,41.114-.065,7.9-6.682,15.616-13.6,23.652-20.122a216.983,216.983,0,0,1,30.8-21.46c10.1-5.635,20.815-10.413,32.187-12.775m8.076-.785c-10.93.988-21.417,4.7-31.277,9.379a188.857,188.857,0,0,0-34.887,22.3c-9.6,7.5-18.652,15.661-27.939,23.535q1.36-.059,2.723-.082c.056,2.12.026,4.244.023,6.365.069,6.914.059,13.832.013,20.75-3.757-.02-7.51-.036-11.267-.069.052,1.325.085,2.651.013,3.976-1.872-1.263-3.757-2.507-5.668-3.7a2.752,2.752,0,0,0-1.522-.255c-8.662.059-17.324-.043-25.982.069-.01-.429-.02-.857-.023-1.283a68.108,68.108,0,0,1-17.772,2.225c4.172,1.862,8.652,3.22,12.36,5.979,3.092,2.533,4.162,6.61,4.922,10.36,1.338,7.638,2.019,15.37,2.638,23.093q3.176-4.045,6.178-8.227l1.073.219c.17-.288.34-.573.517-.857,1.761.2,3.508.5,5.275.664a5.249,5.249,0,0,1-1.122.55c-1.181-.3-2.389-.429-3.586-.622l-.5.2c.327.046.982.137,1.309.187-.275.183-.546.37-.818.556-.641-.1-1.279-.206-1.914-.321-2.065,2.837-4.162,5.655-6.365,8.384a17.11,17.11,0,0,0,.17,2.31l-.834-.1.249-.311a227.583,227.583,0,0,0-2.912-25.93c-.727-3.678-1.806-7.762-5.039-10.049-4.2-2.831-9.094-4.329-13.731-6.253a35.4,35.4,0,0,0,.115,11.119,14.706,14.706,0,0,1,.065,7.016c-.187.586-.285,1.27-.864,1.617a19.463,19.463,0,0,0,.733-2.732c.537-3.6-.916-7.094-.825-10.691-.435,2.569-.252,5.213-.884,7.755a13.067,13.067,0,0,1-4.009,6.96c-2.863,2.435-6.6,3.479-10.256,3.992a44.326,44.326,0,0,1-19.994-2.245,13.5,13.5,0,0,1-3.485-1.7,18.144,18.144,0,0,1-1.607-7.379,24.907,24.907,0,0,0-.556,6.391,11.612,11.612,0,0,1-4.922-3.973,14.169,14.169,0,0,1-1.63-4.136,90.193,90.193,0,0,0-2.919,10.917c-1.315,6.208-2.425,12.461-3.439,18.724,1.446-.141,2.9-.219,4.346-.295a177.569,177.569,0,0,0,.965-18.787,7.481,7.481,0,0,1,.173-1.751c.645,1.247.262,2.69.38,4.032.268,5.481.772,10.949,1.211,16.421,8.862.01,17.785.013,26.535,1.6,3.462.717,7.006,1.927,9.6,4.437,3.086,3.217,4.346,7.621,5.972,11.659,1.266,2.919,2.13,5.982,3.253,8.956,2.516,6.941,4.807,13.96,7.245,20.927,5.144-.029,10.292,0,15.439-.016-.579-1.289-1.4-2.451-2.068-3.691a19.25,19.25,0,0,1-4.454-.615,13.774,13.774,0,0,1-8.047-6.784,20.606,20.606,0,0,1-1.967-6.712c-.144-1.738-1.338-3.089-2.156-4.545-1.027-1.78-2.206-3.482-3.089-5.331a49.21,49.21,0,0,1,.38-6.5c.383-5.776,1.185-11.522,1.306-17.311l.52-.039c.373,5.786,1.05,11.545,1.6,17.314.694,6.237,1.263,12.5,2.369,18.678a13.778,13.778,0,0,0,8.747,10.56,11.427,11.427,0,0,0,9.892-1.018,10.37,10.37,0,0,0,4.153-7.1,13.606,13.606,0,0,0-4.123-11.067,43.459,43.459,0,0,1-.291,5.5c-.131.062-.393.193-.524.255a55.251,55.251,0,0,0,.023-11.512c-.216-5.219-.8-10.413-1.119-15.625l.5-.484.007.314c.124,1.021.157,2.052.278,3.076,7.549,1.338,15.151,2.356,22.7,3.678a.569.569,0,0,1-.7.458q-10.975-1.806-21.977-3.475l.118,1.62c7.062,1.2,14.173,2.13,21.215,3.41-.357.618-1.109.268-1.675.259-6.489-1.024-12.981-2.019-19.467-3.069.016.566.043,1.132.075,1.7q9.041,1.389,18.083,2.788c.537.115,1.273.043,1.473.7a36.2,36.2,0,0,1-4.745-.618c-4.931-.723-9.843-1.587-14.775-2.3.4,4.13.569,8.279.834,12.419a1.317,1.317,0,0,0,.916,1.034c1.05-.275,1.967-.923,3.02-1.207-.753-.147-1.5-.311-2.235-.514,1.813-2.552,3.691-5.059,5.344-7.723,3.138.465,6.253,1.041,9.385,1.541-1.073,1.918-2.5,3.6-3.73,5.422a2.416,2.416,0,0,1,.337,1.806c-.308,1.23-1.659,1.639-2.657,2.15a5.68,5.68,0,0,0-.618-.51c1.083-.183,2.382-.582,2.818-1.711.1-.409.056-1.191-.553-1.086-1.855.3-3.711.628-5.589.753a13.314,13.314,0,0,0-5.255,1.554,15.794,15.794,0,0,1,2.84,4.909,11.873,11.873,0,0,1-1.077,10.229c3.037-.435,6.316-1.09,8.551-3.361.87-.468,1.073-1.424,1.381-2.274.543-.573,1.509-.926,1.541-1.833.1-.566-.275-1.381.4-1.685.749-.543,1.659-1.178,1.7-2.2a3.151,3.151,0,0,0-.766-2.32c-.507.481-1.073,1.175-1.878.916,2.516-2.863,4.571-6.1,7.026-9.025,4.162-5.039,7.965-10.36,12.055-15.459,1.538-2.107,3.21-4.12,4.729-6.24-.527.02-1.237-.347-1.554.265-3.364,4.7-6.944,9.235-10.3,13.937-4.133,5.462-8.315,10.887-12.186,16.538-1.675-.141-3.312-.514-4.967-.772a1.12,1.12,0,0,1-.841-.465q.726-.285,1.466-.543c.419.419.818.89,1.489.8a10.435,10.435,0,0,0,2.49.37c3.593-4.709,6.97-9.585,10.625-14.251,3.973-5.543,8.214-10.887,12.176-16.434-2.628-.474-5.295-.707-7.929-1.129l-.229-.524c2.808.314,5.6.759,8.4,1.116.118-.085.353-.262.471-.35-3.868-.491-7.733-1.014-11.587-1.6-.252.141-.5.291-.743.445a14.714,14.714,0,0,1,3.42.334l.245.56c-3.115-.406-6.221-.857-9.329-1.293.1-.115.291-.344.389-.461,1.59.252,3.194.4,4.781.674.236-.154.475-.311.717-.465-1.3.036-2.569-.285-3.858-.34.255-.177.514-.35.772-.52,5.308.831,10.658,1.387,15.946,2.3-.245.344-.488.694-.73,1.041a12.049,12.049,0,0,0,1.721.245c-3.02,4.725-6.774,8.92-10.089,13.433-4.169,5.406-8.446,10.733-12.553,16.185a3.689,3.689,0,0,1,1.145,3.312c-.275,1.155-1.3,1.865-2.134,2.618q.01.687-.039,1.384c-.255,1.152-1.747,1.492-1.895,2.7,3.361-.4,6.977-.442,10,1.293,4.159,2.327,6.424,6.967,7.2,11.519,3.822-.056,7.647-.046,11.47-.01.51-2.6,1.116-5.18,1.708-7.759.975-3.75,1.954-7.661,4.441-10.737-1.924-.478-3.861-.883-5.789-1.329.38-.635,1.136-.844,1.725-1.23-.187-.02-1.456-.432-.69-.746,7.448-3.973,14.909-7.932,22.3-12.013,4.457-2.448,9.035-4.679,13.41-7.278.87.239,1.744.452,2.624.658.55-1.26,1.018-2.552,1.571-3.812-3.109.906-6.018-.962-8.8-2.075-6.767-3.073-13.439-6.345-20.073-9.693a4.208,4.208,0,0,1-1.545-1.067,5.191,5.191,0,0,1-.2-3.02,32.852,32.852,0,0,1,1.512-6.257c-1.263-.933-2.35-2.4-4.038-2.487-2.4-.285-4.827-.311-7.219-.664-1.188-.134-2.006-1.093-3.086-1.492a17.551,17.551,0,0,1-7.33-4.676c-1.633-1.329-3.469-2.4-5.02-3.829-.488-.344-.023-.923.059-1.348-.416-.337-1.211-.841-.772-1.463.582-.9,1.823-.481,2.68-.308,1-.635,1.836.327,2.628.825.566.065,1.214-.151,1.715.223.684.527,1.05,1.371,1.747,1.885a34.364,34.364,0,0,0,9.163-.137c-1.865-1.139-4.153-1.633-5.661-3.305a1.635,1.635,0,0,1-.1-2.284c.582-.435,1.3-.062,1.911.115,2.7,1.07,5.36,2.261,8.083,3.282a12.176,12.176,0,0,1,6,4.535,14.445,14.445,0,0,0,3.668,3.465c.131-.111.4-.331.53-.438,5.907,2.69,11.813,5.406,17.91,7.644,2.837-9.791,4.876-19.791,7.517-29.634.831-3.007,1.806-6.4,4.6-8.168,4.467-2.386,9.31-3.982,13.793-6.339a16.581,16.581,0,0,1-4.627-.664,14.15,14.15,0,0,1-1.551-5.828c-.317,2.042.54,3.992,1.312,5.831a24.879,24.879,0,0,1-4.464-1.319,20.2,20.2,0,0,1-.262-6.672c.517-5.648,2.431-11.119,2.291-16.833-.072.232-.209.7-.278.933l-.51.327c.1-.936.327-1.855.353-2.795a21.015,21.015,0,0,1-1.273-3.861,14.382,14.382,0,0,1,6.79-14.7,10.778,10.778,0,0,1,6.842-1.63,17.42,17.42,0,0,1,8.79-1.185,5.242,5.242,0,0,1,1.963-4.081,4.979,4.979,0,0,1,4.087-.753,25.786,25.786,0,0,0,2.451.972,10.768,10.768,0,0,1,2.818.848,10.223,10.223,0,0,1,3.23,2.988c.884,1.505,2.222,2.791,2.543,4.571a7.167,7.167,0,0,1-3.547,8.469c1.116,3.459,1.3,7.111,1.61,10.707a35.517,35.517,0,0,0,2.611,10.092c1.041,2.909,2,6.152,1.014,9.208-.7,2.4-3.1,3.632-5.219,4.552,1.456,1.374,3.485,1.751,5.275,2.516a98.837,98.837,0,0,1,13.367,5.89c2.621,1.43,3.793,4.4,4.558,7.127,1.25,4.967,1.885,10.062,2.667,15.118,3.292.9,6.816,1.463,9.66,3.472a6.364,6.364,0,0,1,2.467,5.478c-.065,4.712-.625,9.395-1.034,14.084-1.649,16.506-3.436,33-5.625,49.442-.524,2.961-.779,6.168-2.6,8.675,3.6-.072,7.2-.016,10.805-.026a48.829,48.829,0,0,1,6.865-10.445c1.26-1.2,2.31-2.592,3.547-3.816,7.877-8.256,17.527-14.732,24.631-23.738,3.852-4.843,6.6-10.871,6.348-17.167-.173-6.748-3.766-12.985-8.56-17.563l.007-.065c-6.584-6.2-15.017-9.85-23.4-12.919-4.48-1.734-9.205-3.41-12.684-6.872a15.513,15.513,0,0,1-4.6-10.324,35.664,35.664,0,0,1,.6-9.215l-.046-.082c1.021-4.738,2.251-9.428,3.528-14.1,1.993-7.5,3.439-15.393,1.983-23.126a27.641,27.641,0,0,0-6.515-13.695,26.81,26.81,0,0,0-13.1-7.68,44.587,44.587,0,0,0-15.8-1.057m-14.915,10.39c-.275.792-.936,1.947.026,2.52a6.77,6.77,0,0,1,6.057-4.287,4.357,4.357,0,0,0-6.083,1.767m14.84,4.817a8.089,8.089,0,0,1-3.092,8.394c.242.471.478.946.717,1.423a6.351,6.351,0,0,0,3.462-5.831,9.968,9.968,0,0,0-1.086-3.986m-24.14,3.825a25.215,25.215,0,0,0,3.92,7.14,24.243,24.243,0,0,0,9.948,7.962,2.388,2.388,0,0,0-.818-.618,24.025,24.025,0,0,1-9.261-7.873,21.276,21.276,0,0,1-3.57-6.856l-.219.245m-11.64,14.035a4.747,4.747,0,0,1,5.57-.157.508.508,0,0,1,.1.812c-.72.115-1.374-.38-2.068-.491-1.257-.412-2.467.272-3.652.589-.223,5.615-.6,11.62,2.062,16.774,1.1,1.94,2.389,3.953,4.434,5.013,1.787.959,3.92.618,5.792.1a20.974,20.974,0,0,0,9.025-5.393,19.559,19.559,0,0,1-2.827,4.647c-2.111,2.484-4.771,4.974-8.168,5.308a37.265,37.265,0,0,1,.226,4.941c-.121.036-.36.111-.481.147-.029-1.024-.059-2.052-.154-3.073a50.733,50.733,0,0,0-2.3,5.985,6.915,6.915,0,0,0,3.668,3.122c4.221,1.4,8.845.223,12.654-1.813.769-.514,1.908-.848,2.071-1.895.5-1.954,1.047-3.9,1.564-5.851a30.4,30.4,0,0,1-7.353.295,62.394,62.394,0,0,0,3.472-15.148,2,2,0,0,0-.252-1.407,4.735,4.735,0,0,0,3.446-.553,6.37,6.37,0,0,0,2.376-6.7,2.42,2.42,0,0,0-2.052-1.934,4.288,4.288,0,0,0-3.334,1.721c-.54-.507-.762-1.384-1.567-1.545a21.564,21.564,0,0,1-5.023-2.575c-.023.229-.069.684-.095.91a11.787,11.787,0,0,0-3.017-1.25c-1.25-.281-2.49.16-3.734.245a.69.69,0,0,1,.425-.969c1.564-.753,3.331-.35,4.892.19a51.146,51.146,0,0,1-4.1-3.3,19.965,19.965,0,0,1-5.151-7.507c-3.933,2.1-5.746,6.568-6.453,10.75m28.489-5.753c.5,1.489,1.129,2.935,1.554,4.45a44.47,44.47,0,0,1,1.342,14.915,27.89,27.89,0,0,1-2.523,10.861,4.11,4.11,0,0,0,.919-1.656,28.1,28.1,0,0,0,1.846-10.2,41.669,41.669,0,0,0-1.947-15.714,9.333,9.333,0,0,0-1.191-2.654m-165.505,7.34a24.333,24.333,0,0,0-7.729,11.506,22.508,22.508,0,0,0-1.45,8.433c.4-1.855.33-3.786.861-5.622a26.5,26.5,0,0,1,7.255-13.07c.841-.841,1.95-1.358,2.742-2.248a6.75,6.75,0,0,0-1.679,1m-4.156,15.6a61.151,61.151,0,0,0,.432,12.8c.687,4.588,1.41,9.274.632,13.9-.91,5.812-4.765,10.674-5.511,16.535a18,18,0,0,0,1.8,10.894,20.763,20.763,0,0,1-1.378-11.924c.641-3.393,2.2-6.505,3.564-9.653a24.06,24.06,0,0,0,2.081-10.285c.095-4.846-1.237-9.568-1.43-14.392-.344-4.879-.154-9.968,1.747-14.539.445-1.221,1.358-2.206,1.761-3.436a20.029,20.029,0,0,0-3.7,10.1m28.728-3.986c-.887,2.8-2.768,5.118-3.842,7.834-.3.569-.416,1.42-1.217,1.453a16.047,16.047,0,0,0-.533-2.84c-.259-.743-1.276-1.273-1.9-.609-1.263,1.456-1.142,3.56-1.041,5.367.272,1.744.671,3.685,2.016,4.938a.979.979,0,0,0-.435.933c-.173,4.005-.124,8.014-.2,12.019.825-.147,1.826-.183,2.376-.923a14.432,14.432,0,0,0,1.4-2.867c1.98-4.869,3.8-10.056,3.263-15.4.016-3.3.713-6.62.121-9.909m139.484,3.685A21.523,21.523,0,0,1,418,211.143c2.536-3.757,3.233-8.534,2.873-12.991a11.418,11.418,0,0,0-.144,2.716M247.22,205.22c-.2,4.755.4,9.516.049,14.271a22.926,22.926,0,0,1-2.444,7.854c-1.407,2.752-3.138,5.35-4.179,8.279a19.856,19.856,0,0,0-.311,12.958,4.888,4.888,0,0,0,1.031,2.1A20.3,20.3,0,0,1,240.9,235.6a83.806,83.806,0,0,1,4.175-8.259,21.123,21.123,0,0,0,2.536-9.791c0-4.11-.023-8.233-.389-12.327m47.02,1.43c.026,8.639.092,17.281-.02,25.92,8.852-.029,17.7-.013,26.549-.013,2.012.988,3.819,2.435,5.736,3.626-.023-1.211-.036-2.422-.026-3.629,3.73-.02,7.464-.007,11.195.02.016-8.665-.023-17.334,0-26-4.562.124-9.127.056-13.688.072-9.915.01-19.83.065-29.746,0M239.127,211.9a55.746,55.746,0,0,1-6.473,10.684c.88.317,1.747.684,2.634.995.324.1.8.324.969-.131a21.479,21.479,0,0,0,3.135-6.9,76.547,76.547,0,0,0,1.423-9.077c-.618,1.456-1.021,3-1.689,4.434m158.794,2.71c-1.993,3.056-4.189,6.044-5.583,9.437a39.561,39.561,0,0,0,3.832,2.268c-.007.059-.016.177-.023.236-1.839,1.211-3.888,2.081-5.831,3.112a145.644,145.644,0,0,0,.147,25.842c.36,5.193.877,10.37,1.43,15.547l.654-.118a21.051,21.051,0,0,0-.1,4.539l.206.249a82.021,82.021,0,0,1,.612,9.608,35.244,35.244,0,0,0,4.038.848,10.022,10.022,0,0,1,3.763-2.386,75.178,75.178,0,0,1,7.86-1.368c-.674-5.141.088-10.331.592-15.452a271.374,271.374,0,0,1,6.322-33.682c1.142-4.454,2.081-8.963,3.488-13.345a17.721,17.721,0,0,1-12.86,3.3,8.255,8.255,0,0,1-5.553-3.344c-1.584,6.123-3.043,12.284-4.038,18.535-1.849,10.619-2.873,21.352-4.169,32.043l-.56.016c.733-5.965,1.479-11.931,2.13-17.906q1.394-11.206,3.59-22.291c1.217-5.161,2.3-10.4,4.424-15.292a8.809,8.809,0,0,0,1.145-3.816c-2.153.416-4.408,1.43-5.514,3.426m23.862-2c-.461,2.078-1.054,4.126-1.666,6.165-2.464,8.917-4.621,17.916-6.6,26.954a223.264,223.264,0,0,0-4.287,30.449l.789-.173c4.068-11.309,9-22.275,13.7-33.326,1.469-3.541,3.083-7.026,4.319-10.658-1.833-1.531-4.117-2.569-5.648-4.434,2.405-.533,4.738-1.345,7.078-2.114-.481-4.064-.825-8.148-1.437-12.2a3.024,3.024,0,0,0-1.211-2.114,18.949,18.949,0,0,1-5.039,1.446m-151.307-.072c-.043,2.549.425,5.1.154,7.647-.288,6.43-3.007,12.5-3.033,18.96a34.6,34.6,0,0,0,.632,6.846l.288-.052a25.771,25.771,0,0,1-.681-6.129c-.147-6.25,2.3-12.157,2.929-18.319a65.954,65.954,0,0,0,0-7.546,3.631,3.631,0,0,0-.288-1.407m157.894-.095a119.962,119.962,0,0,1,1.479,13.377c-2.163.759-4.336,1.489-6.538,2.12,1.81,1.211,3.57,2.5,5.285,3.838-2.124,6.018-4.8,11.823-7.307,17.69-3.38,7.883-6.784,15.763-9.82,23.79-.69,1.855-1.152,3.793-1.97,5.6-.566,1.054-.154,2.271-.111,3.393a12.754,12.754,0,0,0,3.246-.645c1.188-1,2.745-1.325,4.113-2.013,4.323-1.747,8.574-3.668,12.831-5.573.654-.311.6-1.172.812-1.761,1.24-5.376,2.438-10.763,3.652-16.142,1.024-3.4-.147-6.885-.043-10.334a.872.872,0,0,1,.484.874c.618,8.115,1.643,16.195,2.513,24.284-.209.393-.71.471-1.06.694q-10.917,5.046-22.016,9.689c2.651,2.693,4.071,6.293,5.111,9.86a19.74,19.74,0,0,1,.9,6.528c4.509-1.384,8.986-2.876,13.4-4.545,5.916-2.34,11.96-4.48,17.474-7.7a9.214,9.214,0,0,0,4.287-5.91c.965-4.421.507-8.966.245-13.433.115-.137.35-.412.465-.55l0,.147a54.749,54.749,0,0,1,.216,11.411c-.255,2.932-1.286,6.021-3.675,7.9a47.6,47.6,0,0,1-6.515,3.659c2.238,6.816,4.434,13.665,6.195,20.622,1.895-8.825,3.181-17.769,4.827-26.64,1.342-8.017,2.844-16.005,4.211-24.012.573-3.272,1.27-6.528,1.62-9.833.164-1.44-.036-3.171-1.414-3.973-2.49-1.456-5.4-1.891-8.138-2.66,1.044,7.51,1.9,15.043,2.68,22.586-.222.258-.445.517-.668.772a57.508,57.508,0,0,0-.527-6.748c-.969-9.094-2.134-18.175-3.685-27.19-.625-2.991-1.073-6.116-2.543-8.835-1.528-2.749-4.6-3.894-7.284-5.187-4.149-1.947-8.538-3.312-12.733-5.151m-41.529,6.113a6.821,6.821,0,0,0-2.644,2.952,26.65,26.65,0,0,0-2.33,6.852c-2.412,9.431-4.575,18.931-7.124,28.329-6.188-2.245-12.18-4.977-18.181-7.664a14.747,14.747,0,0,1-.281,4.761,28.732,28.732,0,0,1-5.128,11.869c.078.435.641.5.952.746,6.591,3.243,13.132,6.594,19.857,9.562a32.847,32.847,0,0,0,5.7,2.137c.959.147,2.143.373,2.961-.281a43.792,43.792,0,0,0,2.333-11.178c.209-1.247-.481-2.366-.92-3.472a18.246,18.246,0,0,0-1.335-2.85,14.571,14.571,0,0,0-2.719-2.268,10.649,10.649,0,0,1-2.343-1.486c1.9.291,3.321,1.725,4.748,2.893-.19-2.1.4-4.14.7-6.191.484-2.621.861-5.262,1.293-7.893.488-3.6,1.368-7.157,1.548-10.8.108-1.263.052-2.543.268-3.789l.435-.216c-.088,2.762-.373,5.514-.533,8.276-.121,4.568-.059,9.14-.288,13.7-.082,5.255-.111,10.517-.6,15.753a53.466,53.466,0,0,1-3.642,14.1c3.243.789,6.509,1.476,9.765,2.206.589-2.264,1.188-4.526,1.626-6.823a21.219,21.219,0,0,0,.7-4.935c-1.567-14.4-3.282-28.931-1.764-43.408,1.4-.789,2.791-1.61,4.244-2.3.311-.206.8-.308.884-.736-.988-.92-2.467-1.221-3.3-2.3a75.291,75.291,0,0,1,6.3-10.514c-3.734,1.639-7.559,3.076-11.178,4.964m-154.448,4.414a20.011,20.011,0,0,0-3.567,10.275,65.92,65.92,0,0,1,6.95-8.992c-1.126-.435-2.222-.946-3.384-1.283M336.3,238.516c.851,1.855,3.043,2.412,4.706,3.3.759.445,1.882.939,1.793,2a3.837,3.837,0,0,0-1.761-.144,21.681,21.681,0,0,1-5.93.065,14.689,14.689,0,0,1,2.5,3.753c.687,1.525,3.348.56,3.668,2.392a10.57,10.57,0,0,0-2.245-.864c-.481-.147-1.07-.173-1.361-.641-.939-1.27-1.489-2.814-2.628-3.933a4.442,4.442,0,0,0-1.954-.789c.18.458.38.913.569,1.374.046-.229.144-.684.19-.913.085.023.249.075.334.1a14.572,14.572,0,0,0,1.417,4.568,7.929,7.929,0,0,0,4.123,3.773c2.742.54,5.57.478,8.335.893a5.189,5.189,0,0,1,2.212,1.316c1.371,1.181,2.768,2.336,4.113,3.557a24.732,24.732,0,0,0,1.754-8.685c-1.325-1.224-3.043-2.035-4.09-3.55a13.711,13.711,0,0,0-2.6-2.932c-1.6-1.316-3.609-1.9-5.5-2.647-2.107-.766-4.126-1.757-6.237-2.507-.484-.157-1.623-.36-1.417.517m-9.631,2.922c-.046-1.07-1.374-.923-2.094-.818-.157,1.1,1.446,1.011,2.179,1.152.154-.183.308-.366.465-.55a22.819,22.819,0,0,0,4.987,7.445c-1.194-2.094-2-4.375-2.978-6.568a2.989,2.989,0,0,0-2.107-1.764c-.147.367-.295.736-.452,1.1m3.047.02a33.081,33.081,0,0,0,2.975,6.964c.746,1.486,2.425,2.088,3.874,2.664-1.4-1.329-1.829-3.243-2.651-4.909a9.567,9.567,0,0,1-1.682-2.808c-.576-.887-1.26-2.147-2.516-1.911m-4.843,1.283a53.726,53.726,0,0,0,4.535,3.465,47,47,0,0,0-2.644-3.907,1.6,1.6,0,0,0-1.891.442m138.037,8.2c-.9,5.579-1.937,11.139-2.886,16.712-2.628,14.261-4.791,28.607-7.647,42.822,1.067,4.117,2.1,8.246,3.079,12.389,1.607-2.651,2.107-5.759,2.575-8.77q.879-6.892,1.718-13.79c1.757-15.246,3.544-30.495,4.764-45.8a31.371,31.371,0,0,0,.029-5.488,6.831,6.831,0,0,0-1.7-3.266c.694,1.666.317,3.469.062,5.187M219.3,276.106c-1.9.223-3.92.35-5.609,1.342a7.131,7.131,0,0,0-2.238,2.464,9.883,9.883,0,0,1,4.192-1.741,71.742,71.742,0,0,1,9.176-.769c8.511-.157,17.091-.216,25.511,1.227,3.528.661,7.176,1.813,9.774,4.414,2.418,2.5,3.485,5.9,4.585,9.11,3.249,10.134,6.054,20.406,8.963,30.646,1.62-.033,3.243,0,4.869.007-3.573-10.138-6.97-20.334-10.727-30.4a66.077,66.077,0,0,0-3.469-8,12.883,12.883,0,0,0-6.712-5.7c-5.226-2.032-10.907-2.258-16.434-2.66a170.13,170.13,0,0,0-21.882.065m-.661,2.183c-2.376.278-5,.494-6.872,2.153-1.289,1.25-1.2,3.22-1.266,4.876.062,12.513,1.181,24.984,1.711,37.478q30.452-.1,60.908.036c-2.67-9.516-5.376-19.022-8.253-28.476-1.08-3.171-1.96-6.476-3.789-9.32a13.429,13.429,0,0,0-7.949-5.206c-5.164-1.414-10.55-1.633-15.871-1.852a181.209,181.209,0,0,0-18.62.311m182.577,6.024a9.817,9.817,0,0,0-3.446,2.081,48.662,48.662,0,0,0-3.933,3.642,28.037,28.037,0,0,0-2.183,2.7c-.723.9-1.646,1.8-1.626,3.043,2.422-1.95,4.486-4.326,7.019-6.149.92-.592,1.715-1.525,2.857-1.643a3.146,3.146,0,0,1-.962.92,58.316,58.316,0,0,0-8.43,7.274c-.488.363-.36,1-.383,1.528a2.673,2.673,0,0,0,2.12-.445c3.459-2.327,6.551-5.239,10.3-7.117a1.018,1.018,0,0,1-.53.877,92.675,92.675,0,0,0-9.85,7.052c.177.805,1.26.517,1.453,1.191-1.819.314-3.171,1.656-4.765,2.477-4.352,2.628-8.753,5.183-13.076,7.863-.429.249-.933.02-1.374-.033q-15.427-3.637-30.829-7.389a2.513,2.513,0,0,0-2.723.52c11.856,2.66,23.63,5.71,35.518,8.233,5.619-3.93,11.489-7.49,17.219-11.244l.38-.056c-.016-.416-.026-.831-.02-1.237l.19.363c3.665-2.075,7.287-4.244,11.106-6.028-.029.147-.095.442-.128.589a35.709,35.709,0,0,0-7.353,6.227c.53.668,1.391.33,2.019-.007,2.31-1.247,4.369-2.948,6.807-3.963,1.9-.818,3.963-1.185,5.877-1.973a16.7,16.7,0,0,0,4.126-2.742,3.469,3.469,0,0,1,1.594-.615c-.962-3.017-2.2-6.1-4.486-8.367-4.074,1.207-8.364,1.417-12.487,2.422m-59.9,16.872c11.286,2.461,22.452,5.488,33.731,7.971.435.088.8-.223,1.158-.419,5.223-3.338,10.75-6.195,15.868-9.7-.065-.193-.2-.586-.262-.779a1.811,1.811,0,0,1-2.386-.864c-7.464-1.865-14.942-3.655-22.422-5.442-.481-.154-1.139-.121-1.319-.7,2.081.141,4.048.919,6.09,1.306,5.916,1.453,11.862,2.785,17.756,4.336.085-.2.259-.615.344-.821-1.983-.959-4.225-1.188-6.329-1.79-5.03-1.188-10.033-2.474-15.069-3.639-.357,0-.481-.294-.576-.579,2.634.393,5.2,1.185,7.795,1.777,4.558,1.266,9.264,1.96,13.767,3.436.566-1.79,2-3.063,3.125-4.5a1.906,1.906,0,0,1-.075-1.751c.694-1.541,2.667-1.535,3.914-2.412-6.636-1.3-13.224-2.853-19.817-4.342-11.794,6.191-23.43,12.8-35.292,18.914m51.353-11.312c1.263-.311,1.993-1.636,3.047-2.359-1.191.51-2.641.972-3.047,2.359m-92.555,6.846a16.39,16.39,0,0,0,3.279.442,57.355,57.355,0,0,0,6.594-.916,24.891,24.891,0,0,1,3.194-4.938c-2.775-.386-5.534-.884-8.292-1.358-1.5,2.32-3.086,4.585-4.774,6.77m111.04-2.012c.854,2.991,1.325,6.073,2.081,9.091,1.554,6.335,2.444,12.867,4.729,19.006,12.3-.082,24.611-.059,36.915-.007-1.941-8.142-4.107-16.231-6.437-24.271a19.1,19.1,0,0,0-4.032-.334c-5.131-.373-10.256-.785-15.387-1.152-2.081-.1-4.28-.612-6.26.288-1.293.347-2.6,1.227-3.966.861-1.79-1.253-2.611-3.4-3.341-5.373-1.482.514-2.791,1.433-4.3,1.891m-50.2,16.07a41.885,41.885,0,0,0-3.132,10.5,3.889,3.889,0,0,0-.154,1.384c1.2-4.853,2-9.984,4.889-14.2a6.64,6.64,0,0,0-1.6,2.31m26.9,5.831a12.029,12.029,0,0,1,1.911,6.322,5.142,5.142,0,0,0-.337-3.616A5.994,5.994,0,0,0,387.849,316.608Z" transform="translate(-5355 -14499)" fill="#101319"/>
      <path id="Path_1024286" data-name="Path 1024286" d="M905.165,262.374c1.986-.906,2.094,3.079.213,2.916C904.3,264.776,904.422,263.136,905.165,262.374Z" transform="translate(-5863.749 -14574.365)" fill="#101319"/>
      <path id="Path_1024287" data-name="Path 1024287" d="M914.228,264.09a.539.539,0,0,1,.458.668,11.976,11.976,0,0,1-1.783,4.918c-.2.4-.543.772-.51,1.247.4.494.9.887,1.338,1.355a2.124,2.124,0,0,1-1.911-1.289c.069-1.05.831-1.855,1.27-2.768A11.664,11.664,0,0,0,914.228,264.09Z" transform="translate(-5868.614 -14575.609)" fill="#101319"/>
      <path id="Path_1024288" data-name="Path 1024288" d="M935.108,263.87a.775.775,0,0,1,1.217.245,2.1,2.1,0,0,1-.416,2.631C934.306,267.172,934.159,264.639,935.108,263.87Z" transform="translate(-5883.885 -14575.32)" fill="#101319"/>
      <path id="Path_1024289" data-name="Path 1024289" d="M885.242,265.848c.35-.73.095-1.944,1.028-2.238-.776,4.748-3.639,8.973-3.675,13.871-.173,2.68.831,5.2,1.548,7.729-1.594-1.97-1.921-4.627-2.035-7.072C881.972,273.81,883.946,269.867,885.242,265.848Z" transform="translate(-5848.62 -14575.286)" fill="#101319"/>
      <path id="Path_1024290" data-name="Path 1024290" d="M971.833,272.179c.569-1.139,1.25-2.526,2.631-2.795.517-.177.851.321,1.178.625a11.106,11.106,0,0,0-1.512-.01,4.679,4.679,0,0,0-1.862,2.494c.353.173.713.353,1.073.533a12.631,12.631,0,0,1-1.325,1.914c-.877-.638.461-1.325.769-1.868C972.465,272.771,972.151,272.473,971.833,272.179Z" transform="translate(-5908.915 -14579.146)" fill="#101319"/>
      <path id="Path_1024291" data-name="Path 1024291" d="M920.824,287.085c.334-.314,1.253.036.88.537C921.367,288.011,920.4,287.575,920.824,287.085Z" transform="translate(-5874.601 -14590.999)" fill="#101319"/>
      <path id="Path_1024292" data-name="Path 1024292" d="M916.516,298.457a19.978,19.978,0,0,0,2.631-.7c-.043.154-.124.465-.167.622a7.893,7.893,0,0,1-5.779.458,1.073,1.073,0,0,1-.841-.8A13.729,13.729,0,0,0,916.516,298.457Z" transform="translate(-5868.978 -14598.262)" fill="#101319"/>
      <path id="Path_1024293" data-name="Path 1024293" d="M607.16,338.86c2.654.013,5.311.016,7.965-.01.062,2.87,0,5.743.095,8.613-2.677-.043-5.357,0-8.037-.02q0-4.29-.023-8.583m.527.563c.043,2.507.069,5.013-.01,7.52,2.31-.026,4.624-.029,6.937-.043-.036-2.484-.01-4.967-.036-7.448C612.281,339.436,609.984,339.465,607.687,339.423Z" transform="translate(-5663.649 -14625.905)" fill="#101319"/>
      <path id="Path_1024294" data-name="Path 1024294" d="M641.83,341.753c7.687.049,15.37-.043,23.057.007l-.013.524c-7.68.016-15.364.082-23.044.01Z" transform="translate(-5686.975 -14627.853)" fill="#101319"/>
      <path id="Path_1024295" data-name="Path 1024295" d="M641.69,348.866c7.733-.039,15.465-.016,23.194,0,.17.8-.749.461-1.162.56-7.317-.088-14.647.137-21.961-.069Z" transform="translate(-5686.88 -14632.629)" fill="#101319"/>
      <path id="Path_1024296" data-name="Path 1024296" d="M641.57,356.6c.026-.111.082-.337.108-.448,7.31-.013,14.624.023,21.934,0a3.441,3.441,0,0,1,1.378.229c-.432.51-1.126.278-1.689.331C656.06,356.638,648.808,356.838,641.57,356.6Z" transform="translate(-5686.799 -14637.545)" fill="#101319"/>
      <path id="Path_1024297" data-name="Path 1024297" d="M641.781,363.416c2.844-.085,5.7-.056,8.544-.023.049.134.154.406.206.54-3.017.007-6.034.01-9.051.026C641.555,363.825,641.706,363.553,641.781,363.416Z" transform="translate(-5686.739 -14642.395)" fill="#101319"/>
      <path id="Path_1024298" data-name="Path 1024298" d="M1032.625,366.8c.419-.275.939-.651,1.453-.3-4.041,2.248-6.483,6.551-7.69,10.894a41.338,41.338,0,0,0-1.63,11.355l-.448-.026a37.057,37.057,0,0,1,3.243-15.58A15.619,15.619,0,0,1,1032.625,366.8Z" transform="translate(-5944.294 -14644.414)" fill="#101319"/>
      <path id="Path_1024299" data-name="Path 1024299" d="M606.97,375.182c11.486-.059,22.975.023,34.464-.062-.007.16-.016.484-.02.645-9.293-.147-18.6.023-27.89-.039-2.13.02-4.274.141-6.394-.02C607.088,375.575,607.009,375.313,606.97,375.182Z" transform="translate(-5663.522 -14650.307)" fill="#101319"/>
      <path id="Path_1024300" data-name="Path 1024300" d="M607.03,382.35c7.477-.062,14.958.013,22.435-.046.432.069,1.463-.249,1.185.615-7.939-.046-15.881.01-23.819.007C606.879,382.782,606.981,382.494,607.03,382.35Z" transform="translate(-5663.428 -14655.138)" fill="#101319"/>
      <path id="Path_1024301" data-name="Path 1024301" d="M543.449,430.529a6.909,6.909,0,0,1,2.359-1.669c-.422.992-1.561,1.378-2.225,2.179-3.616,3.681-5.733,8.564-7.137,13.459-.8,2.641-1.181,5.38-1.819,8.053-.049-.19-.147-.573-.2-.762a48.757,48.757,0,0,1,4.3-14.552A22.575,22.575,0,0,1,543.449,430.529Z" transform="translate(-5614.719 -14686.461)" fill="#101319"/>
      <path id="Path_1024302" data-name="Path 1024302" d="M733.7,440.28c1.126.641,1.908,2.081,3.364,1.99,2.055-.288,4.123-1.211,6.221-.645.619.2,1.522.353,1.6,1.152a7.261,7.261,0,0,0-3.544-.723c-1.659.092-3.249.812-4.918.69A3.787,3.787,0,0,1,733.7,440.28Z" transform="translate(-5748.781 -14694.144)" fill="#101319"/>
      <path id="Path_1024303" data-name="Path 1024303" d="M841.12,475.9a16.449,16.449,0,0,1,3.544,5c-.9-.658-1.309-1.757-2.032-2.582C842.1,477.539,841.2,476.914,841.12,475.9Z" transform="translate(-5821.05 -14718.107)" fill="#101319"/>
      <path id="Path_1024304" data-name="Path 1024304" d="M638.816,502.37c1.26.206,2.526.36,3.8.507.353,0,.2.386.183.6-1.574-.236-3.141-.494-4.729-.576C638.315,502.723,638.564,502.547,638.816,502.37Z" transform="translate(-5684.445 -14735.916)" fill="#101319"/>
      <path id="Path_1024305" data-name="Path 1024305" d="M626,503.833c.252-.187.5-.37.762-.553.645.095,1.293.2,1.941.3,2.873.406,5.736.995,8.639,1.135.1.17.288.507.386.677l-.514-.043C633.474,504.851,629.75,504.236,626,503.833Z" transform="translate(-5676.324 -14736.528)" fill="#101319"/>
      <path id="Path_1024306" data-name="Path 1024306" d="M653.21,504.778c.213-.209.432-.416.654-.618a23.27,23.27,0,0,0,4.49.609c-.252.18-.5.36-.746.543C656.142,505.116,654.686,504.844,653.21,504.778Z" transform="translate(-5694.63 -14737.12)" fill="#101319"/>
      <path id="Path_1024307" data-name="Path 1024307" d="M1035.04,516.337a1.651,1.651,0,0,1,1.656-.965,22.835,22.835,0,0,1,8.469.8.954.954,0,0,1,.7.586,26.076,26.076,0,0,0-10.135-.926l.226.347a23.336,23.336,0,0,1,8,2.827,1.238,1.238,0,0,1,.615.789,33.376,33.376,0,0,0-4.967-2.219C1038.129,517.008,1036.539,516.835,1035.04,516.337Z" transform="translate(-5951.512 -14744.607)" fill="#101319"/>
      <path id="Path_1024308" data-name="Path 1024308" d="M619.005,519.15c7.693,1.037,15.344,2.366,23.031,3.449-.01.134-.029.406-.043.54-7.484-.959-14.922-2.261-22.389-3.361Q618.966,519.8,619.005,519.15Z" transform="translate(-5671.617 -14747.205)" fill="#101319"/>
      <path id="Path_1024309" data-name="Path 1024309" d="M614.04,525.843a.817.817,0,0,1,.992-.357q7.446,1.114,14.9,2.261l.258.56C624.79,527.62,619.4,526.749,614.04,525.843Z" transform="translate(-5668.278 -14751.434)" fill="#101319"/>
      <path id="Path_1024310" data-name="Path 1024310" d="M607.11,535.431l.236-.461c4.483.812,9.022,1.293,13.508,2.114,3.266.592,6.551,1.057,9.843,1.486-.183.884-1.132.386-1.741.383C621.685,537.712,614.355,536.816,607.11,535.431Z" transform="translate(-5663.616 -14757.848)" fill="#101319"/>
      <path id="Path_1024311" data-name="Path 1024311" d="M602.5,541.481c.036-.124.1-.37.137-.491,7.818,1.155,15.6,2.52,23.423,3.645-.033.141-.1.422-.137.563C618.116,543.971,610.282,542.875,602.5,541.481Z" transform="translate(-5660.515 -14761.898)" fill="#101319"/>
      <path id="Path_1024312" data-name="Path 1024312" d="M805.76,585.04c.272.007.812.016,1.08.02,7.324,1.7,14.618,3.521,21.931,5.268.579.183,1.319.209,1.643.815a14.582,14.582,0,0,1-2.971-.573q-9.881-2.449-19.788-4.794A4.394,4.394,0,0,1,805.76,585.04Z" transform="translate(-5797.261 -14791.533)" fill="#101319"/>
      <path id="Path_1024313" data-name="Path 1024313" d="M800.11,588.15c7.955,1.849,15.91,3.73,23.836,5.714a1.489,1.489,0,0,1,.847.56,18.049,18.049,0,0,1-4.113-.8c-6.62-1.751-13.325-3.151-19.958-4.85A.67.67,0,0,1,800.11,588.15Z" transform="translate(-5793.46 -14793.626)" fill="#101319"/>
      <path id="Path_1024314" data-name="Path 1024314" d="M789.718,593.54c7.6,1.833,15.187,3.77,22.792,5.6a2.767,2.767,0,0,1,1.538.694,8.816,8.816,0,0,1-3.024-.471c-7.2-1.842-14.437-3.518-21.614-5.419C789.489,593.841,789.642,593.641,789.718,593.54Z" transform="translate(-5786.261 -14797.252)" fill="#101319"/>
      <path id="Path_1024315" data-name="Path 1024315" d="M782.86,597.16a37.171,37.171,0,0,1,5.013,1.109c6.345,1.5,12.651,3.155,18.989,4.67a.811.811,0,0,1,.658.553,20.109,20.109,0,0,1-4.362-.88c-6.42-1.685-12.886-3.184-19.317-4.82A1.208,1.208,0,0,1,782.86,597.16Z" transform="translate(-5781.854 -14799.688)" fill="#101319"/>
      <path id="Path_1024316" data-name="Path 1024316" d="M776.57,601.095c.252-.445.72-.3,1.116-.216,7.317,1.846,14.65,3.639,21.977,5.458.628.213,1.407.249,1.842.831a6.8,6.8,0,0,1-2.258-.393C791.708,604.809,784.087,603.146,776.57,601.095Z" transform="translate(-5777.623 -14802.127)" fill="#101319"/>
      <path id="Path_1024317" data-name="Path 1024317" d="M771.243,604.28a32.633,32.633,0,0,1,4.555,1.037c6.433,1.558,12.854,3.164,19.281,4.751a1.166,1.166,0,0,1,.883.658c-8.112-1.8-16.133-3.992-24.235-5.838A.473.473,0,0,1,771.243,604.28Z" transform="translate(-5774.033 -14804.478)" fill="#101319"/>
      <g id="_fde0d3ff" data-name="#fde0d3ff" transform="translate(-5191.542 -14339.292)">
        <path id="Path_1024318" data-name="Path 1024318" d="M993.58,179.932c2.369-.8,4.892-.687,7.356-.71a27.9,27.9,0,0,1,10.674,1.954,20.086,20.086,0,0,1,9.208,7.15,29.009,29.009,0,0,1,5.03,13.4c.926,6.185.278,12.445.357,18.665-.092,3.3.095,6.81,1.859,9.7l.046.082a35.656,35.656,0,0,0-.6,9.215,15.512,15.512,0,0,0,4.6,10.324c3.478,3.462,8.2,5.138,12.684,6.872,8.38,3.069,16.813,6.721,23.4,12.919l-.007.065c-.173,2.844,0,5.7-.363,8.541a64.935,64.935,0,0,1-3.236,14.781c-.8,2.566-2.091,4.931-3.092,7.415-4.185,9.307-10.38,17.487-15.711,26.139-1.155,1.826-2.88,3.3-3.563,5.406a48.827,48.827,0,0,0-6.865,10.445c-3.6.01-7.206-.046-10.805.026,1.826-2.507,2.081-5.714,2.6-8.675,2.189-16.44,3.976-32.936,5.625-49.442.409-4.689.969-9.372,1.034-14.084a6.363,6.363,0,0,0-2.467-5.478c-2.844-2.009-6.368-2.575-9.66-3.472-.782-5.056-1.417-10.151-2.667-15.118-.766-2.726-1.937-5.7-4.558-7.127a98.838,98.838,0,0,0-13.367-5.89c-1.79-.766-3.819-1.142-5.275-2.516,2.124-.92,4.516-2.156,5.219-4.552.985-3.056.026-6.3-1.014-9.208a35.519,35.519,0,0,1-2.611-10.092c-.311-3.6-.494-7.248-1.61-10.707a7.167,7.167,0,0,0,3.547-8.469c-.321-1.78-1.659-3.066-2.543-4.571A10.223,10.223,0,0,0,993.58,179.932Z" transform="translate(-732.078 -179.218)" fill="#fde0d3"/>
        <path id="Path_1024319" data-name="Path 1024319" d="M1001,198.83a9.968,9.968,0,0,1,1.086,3.986,6.351,6.351,0,0,1-3.462,5.831c-.239-.478-.474-.952-.717-1.423A8.089,8.089,0,0,0,1001,198.83Z" transform="translate(-734.991 -192.412)" fill="#fde0d3"/>
        <path id="Path_1024320" data-name="Path 1024320" d="M686.091,204.014c3-.452,6.306-.4,8.95,1.279,2.156,1.433,2.88,4.251,2.615,6.705-.586,4-2.942,7.428-5.557,10.39a51.446,51.446,0,0,1-14.287,10.573c-4.287,1.944-8.96,3.583-13.737,3.063-2.516-.331-5.232-1.587-6.214-4.087-1.214-3.047-.327-6.46,1.185-9.231,2.277-4.555,6.1-8.089,10.069-11.172C674.229,208.013,679.9,205,686.091,204.014Z" transform="translate(-505.835 -195.737)" fill="#fde0d3"/>
        <path id="Path_1024321" data-name="Path 1024321" d="M897.6,231.31c.707-4.182,2.52-8.646,6.453-10.75a19.965,19.965,0,0,0,5.151,7.507,51.128,51.128,0,0,0,4.1,3.3c-1.561-.54-3.328-.942-4.892-.19a.69.69,0,0,0-.425.969c1.243-.085,2.484-.527,3.734-.245a11.787,11.787,0,0,1,3.017,1.25c.026-.226.072-.681.095-.91a21.564,21.564,0,0,0,5.023,2.575c.8.16,1.027,1.037,1.567,1.545a4.288,4.288,0,0,1,3.335-1.721,2.42,2.42,0,0,1,2.052,1.934,6.37,6.37,0,0,1-2.376,6.7,4.735,4.735,0,0,1-3.446.553,2,2,0,0,1,.252,1.407,62.4,62.4,0,0,1-3.472,15.148,30.405,30.405,0,0,0,7.353-.294c-.517,1.95-1.06,3.9-1.564,5.851-.164,1.047-1.3,1.381-2.071,1.895-3.809,2.035-8.433,3.213-12.654,1.813a6.914,6.914,0,0,1-3.668-3.122,50.723,50.723,0,0,1,2.3-5.985c.095,1.021.124,2.048.154,3.073.121-.036.36-.111.481-.147a37.244,37.244,0,0,0-.226-4.941c3.4-.334,6.057-2.824,8.168-5.308a19.556,19.556,0,0,0,2.827-4.647,20.974,20.974,0,0,1-9.025,5.393c-1.872.514-4.005.854-5.792-.1-2.045-1.06-3.331-3.073-4.434-5.013-2.657-5.154-2.284-11.159-2.062-16.774,1.185-.317,2.4-1,3.652-.589.694.111,1.348.605,2.068.491a.508.508,0,0,0-.1-.812,4.747,4.747,0,0,0-5.57.157m2.726,3.024c-.743.762-.864,2.4.213,2.916,1.882.164,1.774-3.822-.213-2.916m4.2.471a11.663,11.663,0,0,1-1.139,4.13c-.439.913-1.2,1.718-1.27,2.768a2.123,2.123,0,0,0,1.911,1.289c-.435-.468-.939-.861-1.338-1.355-.033-.474.311-.848.51-1.247a11.977,11.977,0,0,0,1.784-4.918.539.539,0,0,0-.458-.668m5.609.069c-.949.769-.8,3.3.8,2.876a2.1,2.1,0,0,0,.416-2.631.775.775,0,0,0-1.217-.245m11.7,4.483c.317.295.632.592.952.893-.308.543-1.646,1.23-.769,1.869a12.626,12.626,0,0,0,1.325-1.914c-.36-.18-.72-.36-1.073-.533a4.68,4.68,0,0,1,1.862-2.494,11.106,11.106,0,0,1,1.512.01c-.327-.3-.661-.8-1.178-.625-1.381.268-2.062,1.656-2.631,2.795m-16.7,3.053c-.422.491.543.926.88.537.373-.5-.546-.851-.88-.537m1.315,4.11a13.731,13.731,0,0,1-4.156-.412,1.073,1.073,0,0,0,.841.8,7.892,7.892,0,0,0,5.779-.458c.043-.157.124-.468.167-.622A19.975,19.975,0,0,1,906.447,246.52Z" transform="translate(-667.368 -207.031)" fill="#fde0d3"/>
        <path id="Path_1024322" data-name="Path 1024322" d="M649.128,226.618c1.531-1.014,2.991-2.287,4.859-2.618a14.757,14.757,0,0,0-.438,6.584,21.012,21.012,0,0,0,1.273,3.861c-.026.939-.255,1.859-.353,2.795l.511-.327c.069-.232.206-.7.278-.933.141,5.714-1.774,11.185-2.291,16.833a20.2,20.2,0,0,0,.262,6.672,24.882,24.882,0,0,0,4.464,1.319c-.772-1.839-1.63-3.789-1.312-5.831a14.151,14.151,0,0,0,1.551,5.828,16.58,16.58,0,0,0,4.627.664c-4.483,2.356-9.326,3.953-13.793,6.339-2.795,1.77-3.77,5.16-4.6,8.168-2.641,9.843-4.679,19.843-7.517,29.634-6.1-2.238-12-4.954-17.909-7.644-.134.108-.4.327-.53.438a14.446,14.446,0,0,1-3.668-3.465,12.176,12.176,0,0,0-6-4.535c-2.723-1.021-5.38-2.212-8.083-3.282-.612-.177-1.328-.55-1.911-.115a1.635,1.635,0,0,0,.1,2.284c1.509,1.672,3.8,2.166,5.661,3.305a34.363,34.363,0,0,1-9.163.137c-.7-.514-1.064-1.358-1.747-1.885-.5-.373-1.149-.157-1.715-.223-.792-.5-1.63-1.459-2.628-.825-.857-.173-2.1-.6-2.68.308-.438.622.357,1.126.772,1.463-.082.425-.547,1-.059,1.348,1.551,1.427,3.387,2.5,5.02,3.829a17.552,17.552,0,0,0,7.33,4.676c1.08.4,1.9,1.358,3.086,1.492,2.392.353,4.817.38,7.219.664,1.688.092,2.775,1.554,4.038,2.487a32.853,32.853,0,0,0-1.512,6.257,5.191,5.191,0,0,0,.2,3.02,4.208,4.208,0,0,0,1.545,1.067c6.633,3.348,13.305,6.62,20.073,9.693,2.778,1.113,5.687,2.981,8.8,2.075-.553,1.26-1.021,2.552-1.571,3.812-.88-.206-1.754-.419-2.624-.658-4.375,2.6-8.953,4.83-13.41,7.278-7.4,4.081-14.856,8.04-22.3,12.013-.766.314.5.726.69.746-.589.386-1.345.6-1.724,1.23,1.927.445,3.865.851,5.789,1.329-2.487,3.076-3.465,6.987-4.441,10.737-.592,2.579-1.2,5.16-1.708,7.759-3.822-.036-7.648-.046-11.47.01-.772-4.552-3.037-9.192-7.2-11.519-3.027-1.734-6.643-1.7-10-1.293.147-1.207,1.639-1.548,1.895-2.7q.049-.7.039-1.384c.831-.753,1.859-1.463,2.134-2.618a3.689,3.689,0,0,0-1.145-3.312c4.107-5.452,8.384-10.779,12.553-16.185,3.315-4.513,7.068-8.708,10.089-13.433a12.046,12.046,0,0,1-1.721-.245c.242-.347.484-.7.73-1.041-5.288-.91-10.638-1.466-15.946-2.3-.258.17-.517.344-.772.52,1.289.056,2.559.376,3.858.34-.242.154-.481.311-.717.465-1.587-.275-3.19-.422-4.781-.674-.1.118-.291.347-.389.461l-.088.072-.419-.128.514.043c-.1-.17-.288-.507-.386-.677-2.9-.141-5.766-.73-8.639-1.136l.442-.151a5.249,5.249,0,0,0,1.122-.55c-1.767-.164-3.515-.465-5.275-.664-.177.285-.347.569-.517.857l-1.073-.219q-3.009,4.172-6.178,8.227c-.619-7.723-1.3-15.455-2.638-23.093-.759-3.75-1.829-7.827-4.922-10.36-3.708-2.759-8.187-4.117-12.36-5.979a68.112,68.112,0,0,0,17.772-2.225c0,.425.013.854.023,1.283,8.659-.111,17.32-.01,25.982-.069a2.752,2.752,0,0,1,1.522.255c1.911,1.2,3.8,2.441,5.668,3.7.072-1.325.039-2.651-.013-3.976,3.757.033,7.51.049,11.267.069.046-6.918.056-13.835-.013-20.75a23.02,23.02,0,0,1,1.937-1.28c8.649-4.67,16.368-10.809,24.078-16.853q10.98-9.051,22.6-17.3m4.823,12.582c-1.3,4.018-3.269,7.962-3.135,12.291.115,2.444.442,5.1,2.035,7.072-.717-2.526-1.721-5.049-1.548-7.729.036-4.9,2.9-9.123,3.675-13.871-.933.295-.677,1.509-1.028,2.238M571.7,315.092c-.252.177-.5.353-.746.533,1.587.082,3.155.34,4.728.576.02-.216.17-.6-.183-.6-1.273-.147-2.539-.3-3.8-.507m4.208,1.2c1.476.065,2.932.337,4.4.533.245-.183.494-.363.746-.543a23.27,23.27,0,0,1-4.49-.609C576.341,315.881,576.122,316.087,575.909,316.3Z" transform="translate(-425.788 -209.346)" fill="#fde0d3"/>
        <path id="Path_1024323" data-name="Path 1024323" d="M226.52,287.87a50.411,50.411,0,0,1,37.94-9.8,63.7,63.7,0,0,1,14.192,3.724,17.288,17.288,0,0,1,3.979,1.855c-.7,2.559-.946,5.213-1.538,7.795a47.173,47.173,0,0,1-3.642,9.061c-1.414,2.677-3.263,5.085-4.925,7.6-4.621-1.78-9.313-3.374-14.084-4.7-7.49-2.012-15.344-3.331-23.09-2.166-10.2,1.253-19.556,6.407-27.092,13.237a6.454,6.454,0,0,1,.566-2.408,56.764,56.764,0,0,1,10.393-17.435A50.3,50.3,0,0,1,226.52,287.87Z" transform="translate(-203.742 -245.365)" fill="#fde0d3"/>
        <path id="Path_1024324" data-name="Path 1024324" d="M536.733,293.74c.592,3.289-.1,6.613-.121,9.909.54,5.34-1.283,10.527-3.263,15.4a14.432,14.432,0,0,1-1.4,2.867c-.55.74-1.551.776-2.376.923.078-4.005.029-8.014.2-12.019a.979.979,0,0,1,.435-.933c-1.345-1.253-1.744-3.194-2.016-4.938-.1-1.806-.223-3.91,1.041-5.367.625-.664,1.643-.134,1.9.609a16.044,16.044,0,0,1,.533,2.84c.8-.033.92-.884,1.217-1.453C533.965,298.858,535.846,296.541,536.733,293.74Z" transform="translate(-418.946 -256.264)" fill="#fde0d3"/>
        <path id="Path_1024325" data-name="Path 1024325" d="M412.383,329.6c.668-1.437,1.07-2.978,1.689-4.434a76.543,76.543,0,0,1-1.423,9.077,21.479,21.479,0,0,1-3.135,6.9c-.173.455-.645.236-.969.131-.887-.311-1.754-.677-2.634-.995A55.743,55.743,0,0,0,412.383,329.6Z" transform="translate(-336.714 -277.41)" fill="#fde0d3"/>
        <path id="Path_1024326" data-name="Path 1024326" d="M1099.665,349.7c-2.094-4.647-1.587-9.922-.785-14.807a3.719,3.719,0,0,0,.864,2.035c2.569,3.04,6.466,4.369,10.131,5.56,5.53,1.59,11.244,3.164,15.92,6.672a29.268,29.268,0,0,1,9.3,11.62,41.348,41.348,0,0,1,2.791,9.6,6.818,6.818,0,0,1,.02,2.651,55.76,55.76,0,0,0-14.82-9.015c-4.532-2-9.257-3.528-13.777-5.556C1105.326,356.618,1101.468,353.834,1099.665,349.7Z" transform="translate(-802.452 -283.949)" fill="#fde0d3"/>
        <path id="Path_1024327" data-name="Path 1024327" d="M217.394,352.289a44.93,44.93,0,0,1,20.115-2.173c8.8.985,17.245,3.865,25.511,6.918a19.961,19.961,0,0,0-3.763,11.322,20.544,20.544,0,0,0-2.647,10.233c-.687,2.418-1.584,4.791-2.16,7.248-1.967,7.926-3.361,15.979-4.65,24.039-2.435.288-5.239.609-6.882,2.667-1.639,2.17-2.026,5.01-1.973,7.661.137,12.288,1.165,24.543,1.711,36.814-.5-.2-1-.393-1.5-.592-.2.137-.406.278-.605.425l1,.252c-2.333-.164-4.67-.033-7-.049-4.552-.02-9.107-.046-13.659-.026-1.911-2.746-4.215-5.206-5.91-8.1a7.532,7.532,0,0,1-.654-1.718,189.552,189.552,0,0,0,26.323,9.493c-.085-.141-.252-.422-.337-.56-2.7-.51-5.242-1.63-7.88-2.389a157.031,157.031,0,0,1-19.657-7.742,4.347,4.347,0,0,0-.857-1.846,61.452,61.452,0,0,1-5.036-8.727,95.467,95.467,0,0,1-5.936-13.387,101.556,101.556,0,0,1-6.482-32.939,76.754,76.754,0,0,1,3.344-24.408A54.656,54.656,0,0,1,217.394,352.289Z" transform="translate(-194.453 -293.962)" fill="#fde0d3"/>
        <path id="Path_1024328" data-name="Path 1024328" d="M539,349.6a128.425,128.425,0,0,0,12.87,3.58q-.029,6.19.029,12.386a65.357,65.357,0,0,1-13.348,2.16,33.855,33.855,0,0,1-6.515-.088c.069-2.2.134-4.395.088-6.591a5.191,5.191,0,0,0,2.5-.851,6.517,6.517,0,0,0,1.374-2.238A72.813,72.813,0,0,0,539,349.6Z" transform="translate(-421.57 -293.845)" fill="#fde0d3"/>
        <path id="Path_1024329" data-name="Path 1024329" d="M397.777,372.55c1.162.337,2.258.848,3.384,1.283a65.919,65.919,0,0,0-6.95,8.992A20.01,20.01,0,0,1,397.777,372.55Z" transform="translate(-328.843 -309.285)" fill="#fde0d3"/>
        <path id="Path_1024330" data-name="Path 1024330" d="M716.047,418.7c-.206-.877.933-.674,1.417-.517,2.111.749,4.13,1.741,6.237,2.507,1.888.749,3.9,1.332,5.5,2.647a13.714,13.714,0,0,1,2.6,2.932c1.047,1.515,2.765,2.327,4.09,3.551a24.734,24.734,0,0,1-1.754,8.685c-1.345-1.221-2.742-2.376-4.113-3.557a5.189,5.189,0,0,0-2.212-1.315c-2.765-.416-5.592-.353-8.335-.893a7.929,7.929,0,0,1-4.123-3.773,14.57,14.57,0,0,1-1.417-4.568c-.085-.023-.249-.075-.334-.1-.046.229-.144.684-.19.913-.19-.461-.389-.916-.569-1.374a4.441,4.441,0,0,1,1.954.789c1.139,1.119,1.689,2.664,2.628,3.933.291.468.88.494,1.361.641a10.575,10.575,0,0,1,2.245.864c-.321-1.833-2.981-.867-3.668-2.392a14.689,14.689,0,0,0-2.5-3.753,21.681,21.681,0,0,0,5.93-.065,3.837,3.837,0,0,1,1.76.144c.088-1.057-1.034-1.551-1.793-2-1.662-.89-3.855-1.446-4.706-3.3m3.619,6.62a3.787,3.787,0,0,0,2.723,2.464c1.669.121,3.259-.6,4.918-.69a7.261,7.261,0,0,1,3.544.723c-.079-.8-.982-.952-1.6-1.152-2.1-.566-4.166.357-6.221.645C721.574,427.4,720.792,425.963,719.666,425.322Z" transform="translate(-543.206 -339.893)" fill="#fde0d3"/>
        <path id="Path_1024331" data-name="Path 1024331" d="M688.882,426.713c.157-.367.3-.736.452-1.1a2.99,2.99,0,0,1,2.107,1.764c.982,2.192,1.783,4.473,2.978,6.568a22.818,22.818,0,0,1-4.987-7.445c-.157.183-.311.366-.465.55-.733-.141-2.336-.052-2.179-1.152C687.508,425.79,688.836,425.643,688.882,426.713Z" transform="translate(-525.672 -344.982)" fill="#fde0d3"/>
        <path id="Path_1024332" data-name="Path 1024332" d="M702.52,428.981c1.257-.236,1.94,1.024,2.516,1.911a9.565,9.565,0,0,0,1.682,2.808c.821,1.666,1.253,3.58,2.651,4.909-1.45-.576-3.128-1.178-3.875-2.664A33.081,33.081,0,0,1,702.52,428.981Z" transform="translate(-536.263 -347.23)" fill="#fde0d3"/>
        <path id="Path_1024333" data-name="Path 1024333" d="M687.72,431.8a1.6,1.6,0,0,1,1.891-.442,46.994,46.994,0,0,1,2.644,3.907A53.728,53.728,0,0,1,687.72,431.8Z" transform="translate(-526.306 -348.766)" fill="#fde0d3"/>
        <path id="Path_1024334" data-name="Path 1024334" d="M1064.651,431.3c2.739.769,5.648,1.2,8.138,2.66,1.378.8,1.577,2.533,1.414,3.973-.35,3.305-1.047,6.561-1.62,9.833-1.368,8.007-2.87,16-4.211,24.012-1.646,8.871-2.932,17.815-4.827,26.64-1.761-6.957-3.956-13.806-6.195-20.622a47.6,47.6,0,0,0,6.515-3.659c2.389-1.875,3.419-4.964,3.675-7.9a54.739,54.739,0,0,0-.216-11.411l0-.147c0-.2,0-.6,0-.8C1066.549,446.343,1065.694,438.81,1064.651,431.3Z" transform="translate(-774.98 -348.81)" fill="#fde0d3"/>
        <path id="Path_1024335" data-name="Path 1024335" d="M1087.894,447.357c.255-1.718.631-3.521-.062-5.187a6.831,6.831,0,0,1,1.7,3.266,31.381,31.381,0,0,1-.03,5.488c-1.221,15.3-3.007,30.551-4.765,45.8q-.83,6.9-1.718,13.79c-.468,3.011-.969,6.119-2.575,8.77-.975-4.143-2.013-8.272-3.079-12.389,2.857-14.215,5.02-28.561,7.647-42.822C1085.956,458.5,1086.99,452.936,1087.894,447.357Z" transform="translate(-788.442 -356.123)" fill="#fde0d3"/>
        <path id="Path_1024336" data-name="Path 1024336" d="M642.9,518.988c.317-.612,1.028-.245,1.554-.265-1.518,2.12-3.191,4.133-4.729,6.24-4.09,5.1-7.893,10.419-12.055,15.458-2.454,2.922-4.509,6.162-7.026,9.025.8.258,1.371-.435,1.878-.916a3.151,3.151,0,0,1,.766,2.32c-.043,1.024-.952,1.659-1.7,2.2-.677.3-.3,1.119-.4,1.685-.033.906-1,1.26-1.541,1.833-.308.851-.51,1.806-1.381,2.274-2.235,2.271-5.514,2.926-8.551,3.361a11.872,11.872,0,0,0,1.077-10.229,15.794,15.794,0,0,0-2.84-4.909,13.314,13.314,0,0,1,5.255-1.554c1.878-.124,3.734-.448,5.589-.753.609-.1.654.677.553,1.086-.435,1.129-1.734,1.528-2.818,1.712a5.68,5.68,0,0,1,.619.51c.1.1.314.314.416.419-.671.085-1.07-.386-1.489-.805-.494.173-.982.353-1.466.543a1.121,1.121,0,0,0,.841.465c1.656.258,3.292.631,4.967.772,3.871-5.651,8.053-11.077,12.186-16.538C635.958,528.222,639.538,523.684,642.9,518.988Z" transform="translate(-472.639 -407.564)" fill="#fde0d3"/>
        <path id="Path_1024337" data-name="Path 1024337" d="M348.957,534.124a170.1,170.1,0,0,1,21.882-.065c5.527.4,11.208.628,16.434,2.66a12.883,12.883,0,0,1,6.712,5.7,66.084,66.084,0,0,1,3.469,8c3.757,10.069,7.153,20.266,10.727,30.4-1.626-.007-3.249-.039-4.869-.007-2.909-10.239-5.714-20.511-8.963-30.646-1.1-3.213-2.166-6.613-4.585-9.11-2.6-2.6-6.247-3.753-9.774-4.414-8.42-1.443-17-1.384-25.511-1.227a71.742,71.742,0,0,0-9.176.769,9.883,9.883,0,0,0-4.192,1.741,7.131,7.131,0,0,1,2.238-2.464C345.037,534.474,347.053,534.347,348.957,534.124Z" transform="translate(-293.119 -417.726)" fill="#fde0d3"/>
        <path id="Path_1024338" data-name="Path 1024338" d="M346.338,540.753a181.235,181.235,0,0,1,18.62-.311c5.321.219,10.707.438,15.871,1.852a13.429,13.429,0,0,1,7.949,5.206c1.829,2.844,2.709,6.149,3.789,9.32,2.876,9.454,5.583,18.96,8.253,28.476q-30.457-.142-60.908-.036c-.53-12.494-1.649-24.965-1.711-37.478.062-1.656-.023-3.626,1.266-4.876C341.341,541.247,343.963,541.031,346.338,540.753Z" transform="translate(-291.161 -422.172)" fill="#fde0d3"/>
        <path id="Path_1024339" data-name="Path 1024339" d="M796.912,555.021c4.123-1,8.413-1.214,12.487-2.422,2.291,2.268,3.524,5.35,4.486,8.367a3.469,3.469,0,0,0-1.594.615,16.7,16.7,0,0,1-4.126,2.742c-1.914.789-3.973,1.155-5.877,1.973-2.438,1.014-4.5,2.716-6.806,3.963-.628.337-1.489.674-2.019.007a35.706,35.706,0,0,1,7.353-6.227c.033-.147.1-.442.128-.589-3.819,1.783-7.441,3.953-11.106,6.028l-.19-.363c-.007.406,0,.821.02,1.237l-.38.056c-5.73,3.753-11.6,7.314-17.219,11.244-11.888-2.523-23.662-5.573-35.518-8.233a2.513,2.513,0,0,1,2.723-.52q15.4,3.755,30.829,7.389c.442.052.946.281,1.374.033,4.323-2.68,8.724-5.236,13.076-7.863,1.594-.821,2.945-2.163,4.765-2.477-.193-.674-1.276-.386-1.453-1.191a92.676,92.676,0,0,1,9.85-7.052,1.018,1.018,0,0,0,.53-.877c-3.747,1.878-6.839,4.791-10.3,7.117a2.673,2.673,0,0,1-2.12.445c.023-.53-.1-1.165.383-1.528a58.316,58.316,0,0,1,8.43-7.274,3.147,3.147,0,0,0,.962-.92c-1.142.118-1.937,1.05-2.857,1.643-2.533,1.823-4.6,4.2-7.019,6.149-.02-1.243.9-2.147,1.626-3.043a28.021,28.021,0,0,1,2.183-2.7,48.655,48.655,0,0,1,3.933-3.642A9.818,9.818,0,0,1,796.912,555.021Z" transform="translate(-559.157 -430.417)" fill="#fde0d3"/>
        <path id="Path_1024340" data-name="Path 1024340" d="M894.9,572.139c.406-1.387,1.855-1.849,3.047-2.359C896.893,570.5,896.163,571.829,894.9,572.139Z" transform="translate(-665.69 -441.975)" fill="#fde0d3"/>
      </g>
      <g id="_a7c5dcff" data-name="#a7c5dcff" transform="translate(-5115.604 -14329.294)">
        <path id="Path_1024341" data-name="Path 1024341" d="M933.59,210.015l.219-.245a21.274,21.274,0,0,0,3.57,6.856,24.024,24.024,0,0,0,9.261,7.873,2.388,2.388,0,0,1,.818.618,24.243,24.243,0,0,1-9.948-7.962A25.212,25.212,0,0,1,933.59,210.015Z" transform="translate(-767.657 -209.77)" fill="#a7c5dc"/>
        <path id="Path_1024342" data-name="Path 1024342" d="M985.08,235.83a9.335,9.335,0,0,1,1.191,2.654,41.668,41.668,0,0,1,1.947,15.714,28.1,28.1,0,0,1-1.846,10.2,4.11,4.11,0,0,1-.919,1.656,27.889,27.889,0,0,0,2.523-10.861,44.47,44.47,0,0,0-1.342-14.915C986.209,238.765,985.577,237.319,985.08,235.83Z" transform="translate(-802.297 -227.302)" fill="#a7c5dc"/>
        <path id="Path_1024343" data-name="Path 1024343" d="M460.4,256.2a6.749,6.749,0,0,1,1.679-1c-.792.89-1.9,1.407-2.742,2.248a26.5,26.5,0,0,0-7.255,13.07c-.53,1.836-.465,3.766-.861,5.622a22.509,22.509,0,0,1,1.45-8.433A24.333,24.333,0,0,1,460.4,256.2Z" transform="translate(-443.121 -240.334)" fill="#a7c5dc"/>
        <path id="Path_1024344" data-name="Path 1024344" d="M457.145,285.158a20.029,20.029,0,0,1,3.7-10.1c-.4,1.23-1.315,2.215-1.761,3.436-1.9,4.571-2.091,9.66-1.747,14.539.193,4.823,1.525,9.545,1.43,14.392a24.06,24.06,0,0,1-2.081,10.285c-1.361,3.148-2.922,6.26-3.564,9.653A20.763,20.763,0,0,0,454.5,339.29a18,18,0,0,1-1.8-10.894c.746-5.861,4.6-10.724,5.511-16.535.779-4.624.056-9.31-.632-13.9A61.153,61.153,0,0,1,457.145,285.158Z" transform="translate(-444.024 -253.695)" fill="#a7c5dc"/>
        <path id="Path_1024345" data-name="Path 1024345" d="M975.039,299.416a11.427,11.427,0,0,1,.144-2.716c.36,4.457-.337,9.235-2.873,12.991A21.523,21.523,0,0,0,975.039,299.416Z" transform="translate(-793.706 -268.254)" fill="#a7c5dc"/>
        <path id="Path_1024346" data-name="Path 1024346" d="M434.335,318.3c.366,4.094.393,8.217.389,12.327a21.123,21.123,0,0,1-2.536,9.791,83.8,83.8,0,0,0-4.175,8.259,20.3,20.3,0,0,0,.468,15.086,4.888,4.888,0,0,1-1.031-2.1,19.856,19.856,0,0,1,.311-12.959c1.041-2.929,2.772-5.527,4.179-8.279a22.927,22.927,0,0,0,2.444-7.854C434.735,327.816,434.133,323.055,434.335,318.3Z" transform="translate(-426.512 -282.785)" fill="#a7c5dc"/>
        <path id="Path_1024347" data-name="Path 1024347" d="M515.553,340.67a3.631,3.631,0,0,1,.288,1.407,65.953,65.953,0,0,1,0,7.546c-.625,6.162-3.076,12.068-2.929,18.319a25.769,25.769,0,0,0,.681,6.129l-.288.052a34.6,34.6,0,0,1-.632-6.846c.026-6.46,2.746-12.53,3.034-18.96C515.978,345.768,515.51,343.219,515.553,340.67Z" transform="translate(-484.473 -297.835)" fill="#a7c5dc"/>
        <path id="Path_1024348" data-name="Path 1024348" d="M612.06,583.99c1.688-2.186,3.272-4.45,4.774-6.771,2.758.474,5.517.972,8.292,1.358a24.9,24.9,0,0,0-3.194,4.938,57.356,57.356,0,0,1-6.594.916A16.388,16.388,0,0,1,612.06,583.99Z" transform="translate(-551.342 -456.978)" fill="#a7c5dc"/>
        <path id="Path_1024349" data-name="Path 1024349" d="M791.179,636.12a6.642,6.642,0,0,1,1.6-2.31c-2.893,4.215-3.688,9.346-4.889,14.2a3.889,3.889,0,0,1,.154-1.384A41.886,41.886,0,0,1,791.179,636.12Z" transform="translate(-669.622 -495.049)" fill="#a7c5dc"/>
        <path id="Path_1024350" data-name="Path 1024350" d="M880.17,658.69a5.994,5.994,0,0,1,1.574,2.706,5.142,5.142,0,0,1,.337,3.616A12.029,12.029,0,0,0,880.17,658.69Z" transform="translate(-731.717 -511.788)" fill="#a7c5dc"/>
      </g>
      <g id="_4b79a9ff" data-name="#4b79a9ff" transform="translate(-5003.847 -14287.834)">
        <path id="Path_1024351" data-name="Path 1024351" d="M894.281,339.956c1.106-2,3.361-3.011,5.514-3.426a8.81,8.81,0,0,1-1.145,3.816c-2.12,4.889-3.207,10.131-4.424,15.292q-2.214,11.074-3.59,22.291c-.651,5.975-1.4,11.941-2.13,17.906l.56-.016a17.746,17.746,0,0,0-.056,5.249c-.052-.062-.154-.187-.206-.249a21.051,21.051,0,0,1,.1-4.539l-.654.118c-.553-5.177-1.07-10.354-1.43-15.547a145.642,145.642,0,0,1-.147-25.842c1.944-1.031,3.992-1.9,5.831-3.112.007-.059.016-.177.023-.236a39.555,39.555,0,0,1-3.832-2.268C890.092,346,892.288,343.012,894.281,339.956Z" transform="translate(-847.512 -336.51)" fill="#4b79a9"/>
        <path id="Path_1024352" data-name="Path 1024352" d="M958.063,337.916a18.947,18.947,0,0,0,5.039-1.446,3.024,3.024,0,0,1,1.211,2.114c.612,4.048.956,8.132,1.437,12.2-2.34.769-4.673,1.581-7.078,2.114,1.531,1.865,3.816,2.9,5.648,4.434-1.237,3.632-2.85,7.117-4.32,10.658-4.7,11.051-9.634,22.016-13.7,33.326l-.789.173a223.273,223.273,0,0,1,4.287-30.449c1.98-9.038,4.136-18.037,6.6-26.954C957.009,342.043,957.6,339.994,958.063,337.916Z" transform="translate(-887.432 -336.47)" fill="#4b79a9"/>
        <path id="Path_1024353" data-name="Path 1024353" d="M964.593,340.38c4.2,1.839,8.583,3.2,12.733,5.151,2.68,1.293,5.756,2.438,7.284,5.187,1.469,2.719,1.918,5.844,2.543,8.835,1.551,9.015,2.716,18.1,3.685,27.19a57.5,57.5,0,0,1,.527,6.748c.223-.255.445-.514.668-.772,0,.2,0,.6,0,.8-.114.137-.35.412-.465.55.262,4.467.72,9.012-.245,13.433a9.214,9.214,0,0,1-4.287,5.91c-5.514,3.22-11.558,5.36-17.474,7.7-4.414,1.669-8.891,3.161-13.4,4.545a19.741,19.741,0,0,0-.9-6.528c-1.041-3.567-2.461-7.166-5.111-9.86q11.093-4.648,22.016-9.689c.35-.223.851-.3,1.06-.694-.87-8.089-1.895-16.169-2.513-24.284a.872.872,0,0,0-.484-.874c-.1,3.449,1.067,6.934.043,10.334-1.214,5.38-2.412,10.766-3.652,16.142-.216.589-.157,1.45-.812,1.761-4.257,1.9-8.508,3.825-12.831,5.573-1.368.687-2.925,1.011-4.113,2.013a12.754,12.754,0,0,1-3.246.645c-.043-1.122-.455-2.34.111-3.393.818-1.81,1.28-3.747,1.97-5.6,3.037-8.027,6.44-15.907,9.82-23.79,2.5-5.867,5.183-11.672,7.307-17.69-1.715-1.342-3.475-2.628-5.285-3.838,2.2-.632,4.375-1.361,6.538-2.12a119.97,119.97,0,0,0-1.479-13.377m14.961,8.943a15.619,15.619,0,0,0-5.072,6.345,37.058,37.058,0,0,0-3.243,15.58l.448.026a41.338,41.338,0,0,1,1.63-11.355c1.207-4.342,3.649-8.646,7.69-10.894-.514-.353-1.034.023-1.453.3m-4.8,49.34c1.5.5,3.089.671,4.571,1.24a33.385,33.385,0,0,1,4.967,2.219,1.237,1.237,0,0,0-.615-.789,23.336,23.336,0,0,0-8-2.827l-.226-.347a26.075,26.075,0,0,1,10.134.926.954.954,0,0,0-.7-.586,22.833,22.833,0,0,0-8.469-.8A1.651,1.651,0,0,0,974.75,398.664Z" transform="translate(-887.376 -339.101)" fill="#4b79a9"/>
        <path id="Path_1024354" data-name="Path 1024354" d="M803.718,348.854c3.619-1.888,7.445-3.325,11.178-4.964a75.306,75.306,0,0,0-6.3,10.514c.834,1.08,2.314,1.381,3.3,2.3-.085.429-.573.53-.884.736-1.453.694-2.84,1.515-4.244,2.3-1.518,14.477.2,29.013,1.764,43.408a21.215,21.215,0,0,1-.7,4.935c-.438,2.3-1.037,4.558-1.626,6.823-3.256-.73-6.522-1.417-9.765-2.206a53.463,53.463,0,0,0,3.642-14.1c.491-5.236.52-10.5.6-15.753.229-4.565.167-9.136.288-13.7.16-2.762.445-5.514.533-8.276l-.435.216c-.216,1.247-.16,2.526-.268,3.789-.18,3.639-1.06,7.193-1.548,10.8-.432,2.631-.808,5.272-1.293,7.893-.308,2.052-.893,4.094-.7,6.191-1.427-1.168-2.85-2.6-4.748-2.893a10.651,10.651,0,0,0,2.343,1.486,14.57,14.57,0,0,1,2.719,2.268,18.249,18.249,0,0,1,1.335,2.85c.438,1.106,1.129,2.225.919,3.472a43.789,43.789,0,0,1-2.333,11.178c-.818.654-2,.429-2.961.281a32.841,32.841,0,0,1-5.7-2.137c-6.725-2.968-13.266-6.319-19.857-9.562-.311-.242-.874-.311-.952-.746a28.732,28.732,0,0,0,5.128-11.869,14.747,14.747,0,0,0,.281-4.761c6,2.687,11.993,5.419,18.181,7.664,2.549-9.4,4.712-18.9,7.124-28.329a26.652,26.652,0,0,1,2.33-6.852,6.82,6.82,0,0,1,2.644-2.952m-11.771,38.234c.075,1.014.978,1.639,1.512,2.422.723.825,1.129,1.924,2.032,2.582A16.45,16.45,0,0,0,791.948,387.088Z" transform="translate(-768.03 -341.462)" fill="#4b79a9"/>
        <path id="Path_1024355" data-name="Path 1024355" d="M951.39,587.871c1.512-.458,2.821-1.378,4.3-1.891.73,1.97,1.551,4.12,3.341,5.373,1.365.366,2.674-.514,3.966-.861,1.98-.9,4.179-.389,6.26-.288,5.131.366,10.255.779,15.387,1.152a19.1,19.1,0,0,1,4.031.334c2.33,8.04,4.5,16.129,6.437,24.271-12.3-.052-24.611-.075-36.915.007-2.284-6.139-3.174-12.67-4.729-19.006C952.715,593.945,952.244,590.862,951.39,587.871Z" transform="translate(-891.388 -504.332)" fill="#4b79a9"/>
      </g>
      <g id="_7fb0d1ff" data-name="#7fb0d1ff" transform="translate(-5135.628 -14286.482)">
        <path id="Path_1024356" data-name="Path 1024356" d="M608.75,340.6c2.3.043,4.594.013,6.892.029.026,2.48,0,4.964.036,7.448-2.314.013-4.627.016-6.937.043C608.819,345.613,608.792,343.107,608.75,340.6Z" transform="translate(-529.085 -340.6)" fill="#7fb0d1"/>
        <path id="Path_1024357" data-name="Path 1024357" d="M419.795,406.08c4.637,1.924,9.532,3.423,13.731,6.253,3.233,2.287,4.313,6.371,5.039,10.049a227.569,227.569,0,0,1,2.912,25.93l-.249.311.834.1a17.11,17.11,0,0,1-.17-2.31c.088.736.177,1.476.219,2.222l-.023.232-.5.484c.321,5.213.9,10.406,1.119,15.625a55.251,55.251,0,0,1-.023,11.512c.131-.062.393-.193.524-.255a43.458,43.458,0,0,0,.291-5.5,13.606,13.606,0,0,1,4.123,11.067,10.37,10.37,0,0,1-4.153,7.1,11.427,11.427,0,0,1-9.892,1.018,13.778,13.778,0,0,1-8.747-10.56c-1.106-6.181-1.675-12.441-2.369-18.679-.55-5.769-1.227-11.528-1.6-17.314l-.52.039c-.121,5.789-.923,11.535-1.306,17.311a49.205,49.205,0,0,0-.38,6.5c.884,1.849,2.062,3.551,3.089,5.331.818,1.456,2.012,2.808,2.156,4.545a20.606,20.606,0,0,0,1.967,6.712,13.774,13.774,0,0,0,8.047,6.784,19.249,19.249,0,0,0,4.454.615c.668,1.24,1.489,2.4,2.068,3.691-5.147.02-10.295-.013-15.439.016-2.438-6.967-4.729-13.986-7.245-20.927-1.122-2.975-1.986-6.037-3.253-8.956-1.626-4.038-2.886-8.443-5.972-11.659-2.592-2.51-6.136-3.721-9.6-4.437-8.75-1.59-17.674-1.594-26.535-1.6-.439-5.471-.942-10.939-1.211-16.421-.118-1.342.265-2.785-.38-4.032a7.481,7.481,0,0,0-.173,1.751,177.561,177.561,0,0,1-.965,18.787c-1.45.075-2.9.154-4.346.294,1.014-6.263,2.124-12.517,3.439-18.724a90.192,90.192,0,0,1,2.919-10.917,14.169,14.169,0,0,0,1.63,4.136,11.612,11.612,0,0,0,4.922,3.973,24.908,24.908,0,0,1,.556-6.391,18.144,18.144,0,0,0,1.607,7.379,13.5,13.5,0,0,0,3.485,1.7,44.327,44.327,0,0,0,19.994,2.245c3.652-.514,7.392-1.558,10.256-3.992a13.067,13.067,0,0,0,4.009-6.96c.632-2.543.448-5.187.884-7.755-.092,3.6,1.361,7.091.825,10.691a19.461,19.461,0,0,1-.733,2.732c.579-.347.677-1.031.864-1.617a14.707,14.707,0,0,0-.065-7.016,35.4,35.4,0,0,1-.115-11.119m9.883,9.123a22.574,22.574,0,0,0-4.719,6.708,48.758,48.758,0,0,0-4.3,14.552l.2.762c.638-2.673,1.024-5.412,1.819-8.053,1.4-4.9,3.521-9.778,7.137-13.459.664-.8,1.8-1.188,2.225-2.179A6.908,6.908,0,0,0,429.677,415.2Z" transform="translate(-365.32 -384.653)" fill="#7fb0d1"/>
      </g>
    </g>
  </g>
</svg>
