<svg xmlns="http://www.w3.org/2000/svg" width="626" height="180" viewBox="0 0 626 180">
  <g id="img12" transform="translate(-446.686 -2520)">
    <rect id="Rectangle_456595" data-name="Rectangle 456595" width="626" height="180" transform="translate(446.686 2520)" fill="#fef5de"/>
    <g id="Group_1180820" data-name="Group 1180820" transform="translate(5824.852 15611.996)">
      <path id="Path_1024401" data-name="Path 1024401" d="M388.218,168.582a6.471,6.471,0,0,1,5.657-3.841c2.1-.227,3.918.975,5.839,1.592a6.556,6.556,0,0,1,3.924,4.576c-.105.1-.316.291-.422.39-.741-1.384-1.326-2.985-2.822-3.739a7.118,7.118,0,0,1,1.179,3.017c-.016.681.741.793,1.192,1.1a8.509,8.509,0,0,1,2.873,8.495,10.879,10.879,0,0,1-4.212,5.759c.329,5-1.211,9.853-2.943,14.468-1.413,3.822-3.5,7.354-5.075,11.1,0,2.109.288,4.212.377,6.318-.01.831,1.032.959,1.413,1.569.435.537.521,1.409,1.234,1.678,1.767.767,2.963,2.346,4.35,3.621.837.757,1.464,1.729,2.33,2.451,5.65,2.764,11.46,5.228,16.922,8.37,2.122,1.314,4.433,2.531,5.967,4.561a20.532,20.532,0,0,1,2.854,9.527c1.294.121,2.585.281,3.867.515a15.308,15.308,0,0,1,7.057,4.257,17.11,17.11,0,0,1,4.151,13.7c-.348,2.55-.841,5.081-1.259,7.619-1.291,7.2-2.448,14.426-3.774,21.623-1.048,6.858-2.5,13.656-3.436,20.53.738-.166.713-.936.837-1.515,2.78-15.551,5.4-31.128,8.063-46.7,1.154-5.893-.521-12.563-5.056-16.667a23.519,23.519,0,0,0-3.4-2.426,18.7,18.7,0,0,1,10.569,4.816,17.688,17.688,0,0,1,5.033,15.26c-1.144,7.36-2.48,14.695-3.672,22.048-1.429,8.258-2.7,16.542-4.254,24.778,7.028.022,14.056.01,21.083.013,6.488.035,12.975-.022,19.463.026-.054.163-.166.489-.224.652-21.809.035-43.621-.029-65.429.045-3.42-.089-6.83.173-10.246.121q-22.521.043-45.043.1c-3.835.115-7.657-.272-11.489-.259-7.037.042-14.078.058-21.112-.035-1.074.125-2.061.8-3.17.633a9.375,9.375,0,0,1-1.56-.62,5.643,5.643,0,0,1-1.959.588,15.069,15.069,0,0,1-1.595-.537c-.952.422-1.937.026-2.911-.01-23.327-.038-46.657.01-69.983-.016-4.247.038-8.511-.115-12.745.118-.444-.07-.885-.144-1.323-.227-.492.323-1,.805-1.6.409-.665-.4-1.259.131-1.873.355a9.544,9.544,0,0,1-1.681-.8c-.406.169-.8.348-1.2.521a3.889,3.889,0,0,0-1.959-.38c-2.339.1-4.733-.137-7.018.476a10.883,10.883,0,0,1-1.623-.444,4.254,4.254,0,0,1-1.54.665c-1.246.121-2.32-.761-3.563-.671-6.814.064-13.63-.038-20.441.064-9.8.192-19.6.051-29.4.064q-33.552-.2-67.11-.128c-.543.115-.805-.105-.789-.668,7.066-.067,14.132-.035,21.2-.01-.69-5.375-1.582-10.722-2.381-16.078-1.042-6.868-2.029-13.742-3.145-20.6a17.561,17.561,0,0,1,5.161-15.737c2.876-2.585,6.715-3.666,10.431-4.366a15.853,15.853,0,0,0-8.961,11.78c-.78,3.752.246,7.51.764,11.221,1.6,10.342,3.205,20.684,4.9,31.013.272,1.058.01,2.448,1.029,3.161-.6-5.011-1.486-9.984-2.244-14.976-1.381-7.964-2.419-15.983-3.806-23.947a15.532,15.532,0,0,1,11.048-18.587,89.542,89.542,0,0,1,9.3-.754,12.023,12.023,0,0,1,5.241-5.922,16.219,16.219,0,0,1,.633-11.039c1.649-3.928,4.679-7.053,6.5-10.888a29.858,29.858,0,0,0,2.464-11.978c.163-4.682.636-9.444,2.47-13.8a16,16,0,0,1,7.59-8.428,12.8,12.8,0,0,1,3.755-.92,9.107,9.107,0,0,1,5.273-2.86,21.59,21.59,0,0,1,15.225,3.052,24.537,24.537,0,0,1,9.527,12.6c1.866,5.353,2.959,11.131,1.965,16.782-.658,4.851-3.468,9.332-2.931,14.343.153,2.979,2.087,5.375,3.452,7.9,1.665,2.844,2.761,6.226,2.049,9.533,2.33,3.205,3.519,7.025,4.973,10.665,3.707,9.578,7.421,19.153,11.026,28.769.326.911,1.214,1.4,1.9,2.023,1.54,1.339,2.995,2.774,4.522,4.132,1.956,1.755,3.7,3.73,5.682,5.459a23.008,23.008,0,0,1,2.531.959c.6.473.988,1.163,1.6,1.624,2.071,1.262,3.186,3.6,3.88,5.842q40.714.034,81.428.029c.118-2.6,1.927-4.688,3.493-6.615a13.842,13.842,0,0,1-5.769-2.378c-3.822-2.771-6.51-6.724-9.345-10.425-6.414-8.891-12.6-17.945-18.7-27.053.694-1.128,1.371-2.263,2.1-3.368-.463-.674-.94-1.336-1.393-2.013a41.015,41.015,0,0,1,3.423-2.979c-.492-.761-.965-1.528-1.422-2.307-4.276-.457-7.383-3.867-9.872-7.069-.869-1.48-2.835-1.54-3.915-2.8-1.077-1.09-1.723-2.915-.7-4.257.179-.278.368-.55.559-.821-.268-.818-.789-1.7-.46-2.569a3.922,3.922,0,0,1,1.783-1.965c0-.943-.278-2.055.463-2.806,1.067-1.083,2.7-1.147,4.091-1.55-2.416-2.883-6.04-4.445-8.37-7.4-.713-.872-1.224-2.435-.169-3.244.856-.406,1.729.208,2.467.607,3.432,2.173,7.005,4.174,10.093,6.842,2.691,2.32,5.586,4.452,7.814,7.251a16.191,16.191,0,0,1,3.113,4.637c.061.131.185.39.246.521a29.792,29.792,0,0,1,1.624,3.988,13.177,13.177,0,0,0,2.125,4.784c.214.051.646.157.863.208.5.61.981,1.246,1.441,1.892.166.032.5.089.668.118,6.353,7.967,12.892,15.791,19.364,23.666,7.207-11.349,14.263-22.793,20.984-34.436a22.01,22.01,0,0,1,4.414-5.81,30.173,30.173,0,0,1,6.1-3.8q4.42-2.258,8.776-4.64a29.541,29.541,0,0,0,4.749-3.218,27.187,27.187,0,0,1,2.02-3.845c-.026-1.151-.051-2.3-.131-3.442a9.425,9.425,0,0,1-4.692-.825c-1.71-.841-2.723-2.55-3.557-4.18a31.643,31.643,0,0,1-2.653-8.236c-1.029-5.244-.006-10.61-.757-15.884a12.018,12.018,0,0,1-4.8-4.74,11.3,11.3,0,0,1-.777-3.346c-.639,2.205.217,4.4,1.438,6.222-1.2-.169-1.63-1.429-2.013-2.4a7.987,7.987,0,0,1,1.745-7.386c-.393-1.269-1.055-2.681-.511-3.992a1.4,1.4,0,0,0-.467.195c-.054,1.151-.045,2.3-.125,3.455a2.245,2.245,0,0,1-.575-1.518,8.162,8.162,0,0,1,3.071-6.993,10.668,10.668,0,0,1,3.682-1.432,6.476,6.476,0,0,1,2.966-3.042c3.506-1.505,7.325.32,10.917-.591a19.846,19.846,0,0,1,13.209,2.109m-25.3,15.27a29.254,29.254,0,0,0-1.726,7.335,7.278,7.278,0,0,1,5.181-.128c.927.364.4,2.256-.658,1.735a6.257,6.257,0,0,0-4.429.1c.3,3.094.035,6.2.067,9.3a30.171,30.171,0,0,0,3.806,14.97,6.319,6.319,0,0,0,3.79,3.087c2.758.719,5.65.029,8.281-.885,3.889-1.48,7.7-3.755,10.019-7.309.045.166.137.5.185.668-.892,1.684-2.585,2.755-3.57,4.382-2.672,3.675-6.149,7.446-10.882,8.1.489,4.848,2.122,9.473,3.017,14.247,1.278-2.228,2.071-4.736,3.57-6.83,4.356-3.471,8.77-6.9,12.87-10.687.415-.428,1.051-.837.895-1.531-.288-4.561-.7-9.121-.834-13.691-.572-.006-1.144-.019-1.707-.038l.281-.534c4.008-.038,7.267-4.382,6.369-8.242a3.76,3.76,0,0,0-2.9-2.966,3.249,3.249,0,0,0-3.317,1.831,26.776,26.776,0,0,0-1.224,4.433c-.329,1.176-2.311.767-2.592-.224a31.388,31.388,0,0,0,.112-5.823c-.863-1.2-1.949-2.317-2.247-3.822-.649-2.055.31-4.64-1.4-6.3-1.032-1.093-2.608-.815-3.953-.9-1.457-.153-2.854.4-4.292.5-1.818.24-3.615-.291-5.427-.23a12.89,12.89,0,0,1-3.2-.217,36.444,36.444,0,0,0-4.091-.329M180.284,204.4a23.357,23.357,0,0,1-6.721,10.793c-1.157,1.051-2.637,1.659-3.822,2.672a11.385,11.385,0,0,0,5.538-3.173,17.464,17.464,0,0,0,5-10.291m.738-.08a19.076,19.076,0,0,1-1.962,6.174,14.859,14.859,0,0,1-9.706,8.233c-.15,1.08-.2,2.173-.348,3.257-.067.511-.63.585-1.029.368-.773-.981-.914-2.282-1.556-3.336a2.445,2.445,0,0,0-2.653-.917,3.288,3.288,0,0,0-1.994,2.64,6.164,6.164,0,0,0,2.307,5.733,3.541,3.541,0,0,0,3.142.761c.038.55-.447.77-.815,1.061a47.962,47.962,0,0,1-.9,14.366c.131.361.511.559.77.831,4.222,3.579,8.495,7.1,12.873,10.486a23.789,23.789,0,0,0,2.963-4.934c.2-1.566.147-3.154.377-4.717-3.9-.978-6.922-4.027-9.1-7.28-.674-1.08-1.668-1.9-2.422-2.915.1-.112.307-.329.409-.441a16.628,16.628,0,0,0,4.762,4.056c2.921,1.627,6.235,2.943,9.632,2.646,1.812-.121,3.036-1.649,3.742-3.174,1.582-3.394,3.1-6.945,3.292-10.738.246-3.337-.086-6.7.457-10.019-1.243-.591-2.55-.211-3.819.032a.959.959,0,0,1-.01-1.355,4.9,4.9,0,0,1,3.918.032,12.562,12.562,0,0,0-2.515-6.769,8.66,8.66,0,0,0-5.631-3.241c-1.406-.233-2.947.01-4.187-.837M394,219.15c-.067.716.252,1.537-.179,2.186a13.577,13.577,0,0,1-2.183,2.228q-5.5,4.784-11.291,9.217a5.264,5.264,0,0,0-1.371,2.128c-.994,2.144-2.052,4.26-3.087,6.385-1.25-2.349-2.208-4.842-3.458-7.194a83.077,83.077,0,0,0-4.516,7.028,203.511,203.511,0,0,0-6.552,31.048c-1.368,9.978-2.563,19.987-3.448,30.019,5.133-.882,10.284-1.668,15.411-2.589.361-2.368.476-4.771.783-7.146a193.126,193.126,0,0,1,5.264-27.823,136.6,136.6,0,0,1,9.057-24.126c-.556.508-1.09,1.035-1.627,1.56-2.119-2.927-4.228-5.861-6.51-8.658,1.112,0,1.665,1.055,2.275,1.812,1.464,1.991,2.966,3.956,4.4,5.97a45.586,45.586,0,0,0,3.784-5.574,79.268,79.268,0,0,0,4.487-9.7c.377-1.3.972-2.748.339-4.068-.454-.94-.658-2.093-1.582-2.707m-195.566,5.4c-.908,4.385-3,8.594-2.569,13.18a38.834,38.834,0,0,1,1.454-5.8,29.171,29.171,0,0,0,1.78-11.56c-.23,1.393-.358,2.8-.665,4.183m196.911,2.787c-1.662,4.5-4.254,8.575-6.139,12.978-1.166,2.768-2.662,5.385-3.71,8.2-1.63,4.292-3.356,8.559-4.6,12.982a203.678,203.678,0,0,0-6.951,38.025c6.67-1.157,13.34-2.33,19.993-3.589.988-5.273,2.327-10.479,3.231-15.768.121-1.2-.476-2.336-.562-3.525-.454-3.838-.876-7.689-1.071-11.55.84.121.626,1.077.719,1.691.176,3.9.754,7.769,1.144,11.652a11.4,11.4,0,0,0,.821-3.122c1.147-6.024,1.965-12.17,4.164-17.932a7.763,7.763,0,0,1,1.671-3.142,10.657,10.657,0,0,1-1.141,3.353c-2.173,5.606-2.9,11.611-4.1,17.469-1.416,6.929-2.733,13.883-4.359,20.77-.048.783-.984.761-1.556.927-12.285,2.183-24.56,4.445-36.9,6.337a137.694,137.694,0,0,1,3.09,14.612c11.694.042,23.391-.1,35.088-.067,6.075-.045,12.154.083,18.226-.157a4.314,4.314,0,0,0,2.959-1.729,20.521,20.521,0,0,0,3.321-6.564c3.7-10.994,6-22.4,7.916-33.825a136.012,136.012,0,0,0,1.854-23.618,30.442,30.442,0,0,0-1.978-9.613c-.911-2.346-3.1-3.768-5.11-5.1-3.282-2.061-6.817-3.678-10.278-5.407-2.752-1.278-5.433-2.713-8.22-3.915a128.021,128.021,0,0,1-1.186,13.26c-2.359.994-4.759,1.886-7.057,3.017,1.167,1.477,2.547,2.784,3.621,4.33a11.951,11.951,0,0,1-1.371,2.953c-6.967,13.279-13.682,26.711-19.556,40.514-.546,1.067-.7,2.4-1.63,3.228a14.348,14.348,0,0,1,1.445-4.34c1.595-3.637,3.17-7.283,4.871-10.872,2.02-4.068,3.81-8.245,5.916-12.272,3.094-6.417,6.5-12.675,9.706-19.035-1.329-1.6-2.758-3.119-4.062-4.74,2.483-1.24,5.123-2.135,7.693-3.183.294-4.487.965-8.952,1-13.455a46.426,46.426,0,0,0-5.682-5.388,13.786,13.786,0,0,1-1.234,5.615M368.812,238.37c1.269-1.7,2.205-3.627,3.64-5.2,1.17,1.457,1.572,3.333,2.522,4.918-.809-4.231-2.128-8.36-2.653-12.649-2.2,3.973-2.378,8.616-3.509,12.931m-93.224-11.844c-.438.956.275,1.934.863,2.646a40.229,40.229,0,0,0,5.1,4.171c1.921,1.282,3.18,3.266,4.522,5.1,1.173-.179,2.445-.617,3.579-.054,1.847.821,3.624,1.8,5.522,2.509a15.125,15.125,0,0,0-1.991-2.247c-2.582-2.327-5.254-4.557-7.987-6.7-2.509-1.8-5.206-3.314-7.788-5-.543-.278-1.2-.8-1.818-.419m92.729,4.126c-2.959,3.177-5.871,6.395-8.7,9.684,1.1,1.46,2.841,2.272,3.921,3.733-2.157,1.639-4.656,2.8-6.89,4.346-1.461,15.884-.617,31.857.463,47.734a1.855,1.855,0,0,1-.425,1.7c-.537-4.484-.617-9-.952-13.5-.534-12.039-.888-24.154.4-36.158,2.007-1.582,4.314-2.78,6.465-4.174-1.24-1.208-2.659-2.218-3.851-3.471a8.057,8.057,0,0,1,1.675-2.1,74.982,74.982,0,0,0,5.094-5.941c-4.132,2.052-8.236,4.174-12.237,6.472-1.483.8-2.112,2.406-2.921,3.778-.837-.214-.054-1.074.026-1.6a16.51,16.51,0,0,0-3.158,4.235c-6.951,12.087-14.356,23.908-21.767,35.711-.5.1-.735-.511-1.055-.777-3.685-4.529-7.507-8.939-11.125-13.519-2.5-2.956-4.867-6.024-7.4-8.952-.438-.6-.965.189-1.329.454-3.551,3.372-7.267,6.564-10.837,9.914-1.128,1.09-2.483,1.9-3.643,2.959,1.262,1.723,2.442,3.5,3.6,5.3,5.724,8.316,11.349,16.714,17.472,24.746,2.128,2.624,4.27,5.347,7.159,7.178a16,16,0,0,0,5.216,1.985c2.212-3.1,5.832-4.605,9.214-6.04,1.438-.636,3.055-.157,4.516-.518a50.485,50.485,0,0,0,6.766-6.005c.419-.515,1.179-.895,1.166-1.639.163-2.672.185-5.347.166-8.022.07-8.517.112-17.034.5-25.542a84.758,84.758,0,0,1,1.969-14.736c.182-.636.278-1.422.965-1.726-.064.492-.115.994-.217,1.483a84.459,84.459,0,0,0-2.24,18.789c-.284,6.178-.275,12.365-.326,18.546-.236,6.615-.067,13.244-.486,19.856,2.4.3,4.8.547,7.216.7-.125-.534-.24-1.071-.348-1.6a9.456,9.456,0,0,1,2.921-.393c.016-.217.048-.652.064-.866.636-.157,1.278-.307,1.921-.451,1.55-15.832,3.244-31.687,6.449-47.283,1.186-4.832,2.045-9.763,3.81-14.433,1.323-3.621,1.425-7.52,2.579-11.182a7.569,7.569,0,0,0-1.806,1.333m-88.126,8.073c-.553,2.1.687,4.116,1.409,6.027.393,1.326,1.86,1.62,2.9,2.279.722.364,1.438,1.058,2.317.789.738-.39.47-1.413.1-1.972-.614-1.2-2.205-1.547-2.557-2.908-1.09-.371-2.419-.636-2.975-1.771-.406-.658-.412-1.761.435-2.068a18.954,18.954,0,0,1,3.666-.428c-.4-.5-.8-1-1.189-1.505-1.4.259-3.225.256-4.1,1.556m1.624,1.08c-.064,1.943,2.164,2.493,3.7,2.522,1.045.141,2.317-.38,3.177.415.959.863,1.981,1.646,2.905,2.547-.131.153-.4.457-.531.61a10.728,10.728,0,0,0,2.49,7.057c.607.729,1.486,1.192,2,2.01-1.042.109-1.633-.78-2.25-1.445a11.387,11.387,0,0,1-2.927-8.539,22.05,22.05,0,0,0-2.33-1.9,9.3,9.3,0,0,0-2.886-.013c1.071,1.275,2.94,2.282,2.777,4.2.035.978-1,1.416-1.834,1.409-.045.572.163,1.291-.326,1.729-.342.358-.911.237-1.342.352.013.614.3,1.4-.275,1.857-.537.313-1.192.131-1.777.166,2.154,2.474,4.366,5.177,7.523,6.379a8.332,8.332,0,0,0,3.423.15c-.259.3-.521.588-.783.879.46.713.936,1.416,1.464,2.081,2.758-2.426,5.753-4.567,8.52-6.986a17.629,17.629,0,0,1-1.9-3.956,34.436,34.436,0,0,0-3.848-8.584c-.406-.754-1.3-.9-2.01-1.227-2.084-.767-3.928-2.1-6.069-2.7-2.311.1-4.592.69-6.887.988m-3.567,3.966a11.235,11.235,0,0,0,1.918,4c.741,1.176,2.125,1.639,3.359,2.113a3.283,3.283,0,0,0,1.9.118,6.923,6.923,0,0,0-.042-1.687,7.7,7.7,0,0,0-2.442-1.352c-2.221-.828-2.343-3.56-3.279-5.407a1.891,1.891,0,0,0-1.413,2.212m-117.011,2.557c-.192.355-.879.821-.358,1.2,4,4.433,7.827,9.019,11.614,13.64a56.23,56.23,0,0,1,5.606-7.207c-2.742-2.138-5.455-4.314-8.114-6.555a60.548,60.548,0,0,1-5.161-4.535c.042-.252.121-.764.163-1.016a45.73,45.73,0,0,0-3.749,4.477m117-.192a2.915,2.915,0,0,0-.5,2.253c.518,2.24,3.036,2.889,4.9,3.627.767.5,1.892-.39,1.131-1.144-1.2-.834-2.79-1.061-3.787-2.186-.633-.815-1.109-1.735-1.739-2.55m-95.2.377a7.8,7.8,0,0,1-.61,3.42,38.7,38.7,0,0,1-2.518,4.075,43.932,43.932,0,0,1,5.6,5.225,24.8,24.8,0,0,0-.253-7.213,35.646,35.646,0,0,0-2.215-5.507m-31.547,4.129c-3.525,1.457-7.156,3-9.9,5.733-2.947,3.17-3.883,7.622-4.33,11.793a192.733,192.733,0,0,0-.195,22.9c.224,6.174.588,12.355,1.4,18.482.451,2.63.962,5.628,3.237,7.338.7.63,1.7.454,2.56.524,14.922.214,29.853-.029,44.768.24.789-3.579,1.451-7.191,2.474-10.713-10.773-1.671-21.531-3.464-32.278-5.289-.4-.128-1.087-.15-1.058-.716-.179-3.931-.048-7.878-.153-11.812-.3-6.922.313-13.953-1.253-20.764-.358-.326.332-1.278.515-.642,1.307,5.206,1.246,10.626,1.294,15.957-.032,1.716.428,3.42.16,5.133-.115,4.02.038,8.044.026,12.068,5.941,1.045,11.9,2.01,17.855,2.94,3.183.534,6.369,1.048,9.549,1.611.364-3.739.678-7.482,1.042-11.221a70.372,70.372,0,0,0,.32-10.853,49.185,49.185,0,0,0-1.94-8.987c-1.943-6.568-4.33-12.991-6.523-19.476-.026-.288-.543-1.029-.77-.431-1.959,2.506-3.832,5.078-5.7,7.654-3.033-3.407-5.855-7.021-8.926-10.4a40.887,40.887,0,0,1-3.64-4.334c-2.832,1.122-5.721,2.09-8.533,3.263m28.127,3.88c2,5.893,4.222,11.713,6,17.68a59.2,59.2,0,0,1,2.512,10.179c.463,4.273-.032,8.562-.323,12.828-.316,3.432-.607,6.871-.978,10.3,1.748.361,3.541.511,5.267.978.006.259.019.77.026,1.029q1.007-.029,2.017-.051c2.752-.137,5.484-.508,8.22-.821.639-6.657,1.921-13.234,2.624-19.882a30.419,30.419,0,0,0-1.093-11.687,25.275,25.275,0,0,1-1.783-8.869c.192.026.572.074.761.1a18.809,18.809,0,0,0,1.061,6.855,28.6,28.6,0,0,1,1.809,8.322c.313,4.925-.678,9.8-1.365,14.65-.575,3.461-.943,6.948-1.384,10.425,2.259-.345,4.522-.7,6.8-.847,1.844,0,3.516.879,5.19,1.537a13.856,13.856,0,0,1,4.414,2.761c1.272-1.109,2.6-2.57,4.442-2.474a23.111,23.111,0,0,0,4.043.243c-2.72-2.6-5.436-5.209-8.21-7.756-.825-.777-1.937-1.358-2.295-2.506-3.819-10.128-7.673-20.243-11.646-30.31-1.138-2.761-1.985-5.721-3.9-8.073a20.7,20.7,0,0,1-2.237,4.781c-.745,1.262-1.739,2.585-1.505,4.139.214,1.908,1.54,3.378,2.646,4.848-1.671,1.962-4.554,1.282-6.817,1.24l-.019-.163a11.883,11.883,0,0,1-8.293-7.4,13.964,13.964,0,0,1-.3-6.51,41.813,41.813,0,0,0-5.682-5.548m121.428,2.841c-3.381,2.835-6.97,5.414-10.3,8.306.623.892,1.259,1.78,1.918,2.653,4.011-3.739,8.191-7.293,12.18-11.058-.435-.594-.844-1.208-1.243-1.825a29.518,29.518,0,0,0-2.557,1.924m36.88,46.66c2.32.163,4.634.441,6.941.764.189-2.445.214-4.9.336-7.347a60.181,60.181,0,0,1-7.277,6.584m84.144-4.193c-1.2,4.311-2.221,8.709-4.11,12.79a12.953,12.953,0,0,1-3.647,4.864c3.177-.026,6.353,0,9.533-.022a135.552,135.552,0,0,1-1.441-14.6,8.388,8.388,0,0,0-.336-3.03M353.015,304.3a124.345,124.345,0,0,1,2.646,13.247c.952-.026,1.9-.035,2.86-.051-.895-4.49-1.7-9.025-2.934-13.429a19.775,19.775,0,0,0-2.573.233m-19.086.355a17.326,17.326,0,0,0-4.3,1.739,15.966,15.966,0,0,0-4.9,3.384,33.792,33.792,0,0,0-3.809,4.979c2.212-2.192,4.129-4.787,6.878-6.357,1.636-.831,3.285-1.675,4.992-2.346.585.5-.246.818-.6.975a21.689,21.689,0,0,0-6.516,3.7,53.29,53.29,0,0,0-4.6,5.046c-.342.428-.812.86-.677,1.467a11.858,11.858,0,0,0,1.275.467,17.572,17.572,0,0,1,3.547-3.9A20.943,20.943,0,0,1,331.5,309.5c1.211-.435,2.349-1.208,3.678-1.189a1.746,1.746,0,0,1-.866.761,23.348,23.348,0,0,0-6.762,3.56,53.588,53.588,0,0,0-4.928,4.631,2.1,2.1,0,0,0,3.3-.189c.831-1.173,2.224-1.675,3.4-2.413a29.062,29.062,0,0,1,7.74-3.384c.406-.121.559.042.457.486a49.233,49.233,0,0,0-5.018,1.908,35.73,35.73,0,0,0-6.075,3.624c1.007,1.377,2.761.566,4.046.137a23.828,23.828,0,0,1,7.472-2.026c1.761-.048,3.4.684,5.091,1.074a20.981,20.981,0,0,0,7.386.735,22.725,22.725,0,0,0,4.388-1.141c-.588-3.308-1.131-6.635-1.937-9.891a28.908,28.908,0,0,0-3.755-.332c-2.991-.294-5.986-.537-8.968-.917a26.662,26.662,0,0,0-6.216-.281m-127.34,2.081c-4.915.614-9.827,1.524-14.8,1.419-.6,2.713-1.365,5.395-1.806,8.143,2.112.457,4.2,1.186,6.385,1.135,3.269-.006,6.357-1.234,9.559-1.7,3.464-.307,6.644,1.384,9.875,2.33.588.141,2.017.237,1.831-.69a5.582,5.582,0,0,0-1.649-1.218,27.351,27.351,0,0,0-7.191-3.062c-.658-.233-1.681-.173-1.694-1.125a31.182,31.182,0,0,1,10.157,4.219c.847.515,1.336,1.617,2.416,1.713.594.195,1.051-.358,1.518-.617-2.854-3.074-6.315-5.813-10.438-6.9-.5-.179-1.285-.24-1.125-.952,1.135-.026,2.148.652,3.205.988,3.877,1.454,7.018,4.3,9.693,7.386.326-.38.662-.748.984-1.131-2.033-1.921-3.739-4.2-6.059-5.8-1.838-1.342-4.084-1.879-6.091-2.886.134-.112.406-.342.543-.454,2.448,1.035,5.1,1.857,7.088,3.714a13.546,13.546,0,0,1,2.253,2.295c.284.163.575.323.866.483.364-.393.729-.783,1.1-1.167-.173-.374-.332-.748-.489-1.122a2.613,2.613,0,0,1,1.643.847c1.528,1.668,2.269,4.062,4.289,5.267l.716-.259.189-.326a29.686,29.686,0,0,0-3.643-7.824,1.537,1.537,0,0,1,1.147.754,34.666,34.666,0,0,1,3.2,6.7c.361.607,1.029,1.323,1.809,1.2.642-.444.246-1.221.141-1.831a22,22,0,0,0-2.522-6.453,2.734,2.734,0,0,0-2.359-1.355c-.927-.134-1.86.575-2.72.013-1.9-.9-3.388,1.119-4.8,2.068.815.9,1.614,1.806,2.391,2.742a.986.986,0,0,1-1.045-.307c-1.406-1.384-2.573-3.071-4.324-4.062a39.651,39.651,0,0,0-4.4-1.975c-1.844-.818-3.909-.425-5.836-.185m24.068,3.132a32.3,32.3,0,0,1,2.467,7.357c.125.6,1.285.994,1.518.291a13.7,13.7,0,0,0-1.329-5.532,3.372,3.372,0,0,0-2.656-2.116m3.691,2.685c.419,1.409.6,2.889,1.112,4.27a5.545,5.545,0,0,0,1.991.895,8.943,8.943,0,0,0-3.1-5.165m-11.742,1.806c.5.754,1.083,1.454,1.544,2.24-.077.214-.23.639-.3.853,1.023.006,2.049-.01,3.071-.08-1.08-1.4-1.78-3.084-3.058-4.314a11.21,11.21,0,0,0-1.253,1.3m109.795,3.01c3.8.115,7.6.035,11.4.016-2.346-.588-4.7-1.665-7.168-1.24a15.906,15.906,0,0,0-4.235,1.224m-130.721.045c3.391.061,6.785-.019,10.173.019a12.7,12.7,0,0,0-3.372-.933c-2.3-.476-4.608.265-6.8.914m150.846,0a23.709,23.709,0,0,0,2.611.058c-.115-.221-.236-.435-.364-.639a16.92,16.92,0,0,0-2.247.582m-162.913.077a15.6,15.6,0,0,0,2.381-.086C191.268,317.417,189.974,316.513,189.613,317.491Z" transform="translate(-5355 -13230.821)"/>
      <path id="Path_1024402" data-name="Path 1024402" d="M961.176,245.586c3.2-.933,7.095-.6,9.652,1.716-.24.291-.476.578-.713.863a11.037,11.037,0,0,0-8.463-.786C960.617,247.875,960.106,245.8,961.176,245.586Z" transform="translate(-5943.586 -13285.52)"/>
      <path id="Path_1024403" data-name="Path 1024403" d="M940.451,256.33c.924.294.812,1.377.831,2.144a16.7,16.7,0,0,1-2.41,7.044c-.147.364-.505.773-.275,1.179.486.9,1.64,1.2,2.065,2.16a3.558,3.558,0,0,1-2.726-2.09c-.361-.71.259-1.352.543-1.959C939.952,262.255,941.039,259.315,940.451,256.33Z" transform="translate(-5928.102 -13293.159)"/>
      <path id="Path_1024404" data-name="Path 1024404" d="M932.476,259.516c1.918-.1,2.084,3.429.195,3.618C931.22,262.654,931.162,260.142,932.476,259.516Z" transform="translate(-5923.822 -13295.325)"/>
      <path id="Path_1024405" data-name="Path 1024405" d="M968.727,259.239c.9-.531,1.79.543,1.78,1.406.2.965-.374,2.448-1.579,2.128C967.679,262.148,967.7,260.058,968.727,259.239Z" transform="translate(-5948.616 -13295.043)"/>
      <path id="Path_1024406" data-name="Path 1024406" d="M1021.489,267.35a2.316,2.316,0,0,1,2.132-1.716c.508,0,.761.527,1.109.815-.639.022-1.365-.313-1.924.112a3.917,3.917,0,0,0-1.042,2.02c.946.051,2.1.291,2.339,1.381-.748-.265-1.473-.575-2.2-.869-.837.78-.5,2.49-1.751,2.771A32.34,32.34,0,0,1,1021.489,267.35Z" transform="translate(-5984.117 -13299.488)"/>
      <path id="Path_1024407" data-name="Path 1024407" d="M947.016,306.025a18.067,18.067,0,0,0,3.819-.975c.112.137.332.415.444.553-2.579,1.09-5.586,1.678-8.29.738-.045-.173-.134-.521-.179-.7A13.147,13.147,0,0,0,947.016,306.025Z" transform="translate(-5931.494 -13326.309)"/>
      <path id="Path_1024408" data-name="Path 1024408" d="M346.59,321.426a6.7,6.7,0,0,1,3.266-1.416,8.655,8.655,0,0,1,5.491.492c.588.345.109,1.026-.15,1.435a10.088,10.088,0,0,0-6.925-.224C347.7,321.893,346.622,322.462,346.59,321.426Z" transform="translate(-5525.819 -13336.334)"/>
      <path id="Path_1024409" data-name="Path 1024409" d="M360.434,331.464c1.2-.253,1.534,1.39,1.291,2.259a1.1,1.1,0,0,1-1.9.61A2.036,2.036,0,0,1,360.434,331.464Z" transform="translate(-5534.594 -13344.264)"/>
      <path id="Path_1024410" data-name="Path 1024410" d="M384,332.3a1.405,1.405,0,0,1,.668-1.262,13.576,13.576,0,0,0,.489,4.439,35.044,35.044,0,0,0,1.62,3.851,3.041,3.041,0,0,1-2.828,2.17c.361-1.067,1.831-1.074,2.192-2.151A15.137,15.137,0,0,1,384,332.3Z" transform="translate(-5551.239 -13343.993)"/>
      <path id="Path_1024411" data-name="Path 1024411" d="M392,332.66a.859.859,0,0,1,1.422.636c.147.786.265,1.838-.531,2.323C391.295,335.9,391.049,333.5,392,332.66Z" transform="translate(-5556.337 -13344.936)"/>
      <path id="Path_1024412" data-name="Path 1024412" d="M307.08,336.671a1.4,1.4,0,0,1,2.256-.016,9.335,9.335,0,0,1,1.729,5.174c-.94-.425-.8-1.572-1.125-2.391-.735.153-1.464.336-2.2.5.153-1.119,1.3-1.055,2.16-1.163a3.762,3.762,0,0,0-1.234-1.8A7.645,7.645,0,0,0,307.08,336.671Z" transform="translate(-5498.936 -13347.428)"/>
      <path id="Path_1024413" data-name="Path 1024413" d="M367.048,373.538c-.5-.125-.681-.8-.051-.908a10.786,10.786,0,0,0,3.554.876c1.128.109,2.186-.422,3.308-.422a1.725,1.725,0,0,1-1.25,1A9.26,9.26,0,0,1,367.048,373.538Z" transform="translate(-5539.431 -13372.291)"/>
      <path id="Path_1024414" data-name="Path 1024414" d="M1067.523,411c4-4.206,9.185-7.533,14.985-8.469.543-.23.825.134.994.61a21.961,21.961,0,0,0-9.958,3.621,24.218,24.218,0,0,0-6.449,5.74,3.059,3.059,0,0,1-1.294,1.064A5.888,5.888,0,0,1,1067.523,411Z" transform="translate(-6015.177 -13392.587)"/>
      <path id="Path_1024415" data-name="Path 1024415" d="M255.98,446.853c.061-.137.179-.409.237-.543a19.4,19.4,0,0,1,8.7,8.389c-.428.109-.885.1-1.029-.4A18.177,18.177,0,0,0,255.98,446.853Z" transform="translate(-5464.167 -13422.424)"/>
      <path id="Path_1024416" data-name="Path 1024416" d="M296.63,513.068c.716-.367.585.419.451.86q-1.05,4.511-2.451,8.936a3.927,3.927,0,0,1-.722,1.365c-.035-1.812.757-3.471,1.189-5.193C295.684,517.066,296.087,515.046,296.63,513.068Z" transform="translate(-5489.972 -13467.781)"/>
      <path id="Path_1024417" data-name="Path 1024417" d="M821.76,541.677c.109-.153.32-.46.425-.617a56.813,56.813,0,0,1,2.448,12.768c.032.377.026.978-.521.85a4.1,4.1,0,0,1-.192-1.16A52.221,52.221,0,0,0,821.76,541.677Z" transform="translate(-5849.13 -13486.893)"/>
      <path id="Path_1024418" data-name="Path 1024418" d="M825.36,541.74a2.52,2.52,0,0,1,1.381.869,34.241,34.241,0,0,1,5.324,8.642c.214.323-.07.575-.24.828a45.336,45.336,0,0,0-4.072-7.264C827.015,543.741,826.082,542.82,825.36,541.74Z" transform="translate(-5851.579 -13487.355)"/>
      <path id="Path_1024419" data-name="Path 1024419" d="M1041.7,572.37a32.284,32.284,0,0,1,7.542,1.633c-.006.189-.016.569-.019.757a25.877,25.877,0,0,0-7.571-1.751C1041.588,572.773,1041.268,572.447,1041.7,572.37Z" transform="translate(-5998.629 -13508.196)"/>
      <path id="Path_1024420" data-name="Path 1024420" d="M1036.71,577.71a19.832,19.832,0,0,1,4.094,2.522,28,28,0,0,1,4.183,3.615l-.288.329c-2-1.569-3.864-3.346-6.015-4.733C1037.976,578.931,1037.039,578.6,1036.71,577.71Z" transform="translate(-5995.384 -13511.83)"/>
      <path id="Path_1024421" data-name="Path 1024421" d="M440.89,584a17.752,17.752,0,0,1,9.07-3.487c.109.444.9,1.087.262,1.438a17.9,17.9,0,0,0-4.3,3.407c-.454.479-.857,1.106-1.595,1.112,1.294-2.3,3.624-3.73,5.638-5.334a16.632,16.632,0,0,0-8.265,3.138C441.43,584.492,441.149,584.061,440.89,584Z" transform="translate(-5589.981 -13513.735)"/>
      <path id="Path_1024422" data-name="Path 1024422" d="M261.368,586.2a30.9,30.9,0,0,1,7.367-.879c0,.182-.006.547-.01.729a30.791,30.791,0,0,0-7.565.914C261.211,586.773,261.313,586.39,261.368,586.2Z" transform="translate(-5467.691 -13517.007)"/>
      <path id="Path_1024423" data-name="Path 1024423" d="M262.329,595.844c1.595-.863,3.11-1.994,4.931-2.314-.857,1.218-2.416,1.524-3.6,2.311-1.3.617-2.368,1.774-3.835,1.981C260.315,596.815,261.45,596.435,262.329,595.844Z" transform="translate(-5466.779 -13522.594)"/>
      <g id="_d4e6f5ff" data-name="#d4e6f5ff" transform="translate(-5253.984 -13079.177)">
        <path id="Path_1024424" data-name="Path 1024424" d="M796.27,127.689c10.348-3.893,21.674-4.548,32.582-3.279a68.785,68.785,0,0,1,17.277,4.3,50.63,50.63,0,0,1,12.5,7.287,33.662,33.662,0,0,1,10.84,15.717,37.712,37.712,0,0,1,1.515,14.356c-.208,3.7-.671,7.485.153,11.15a12.154,12.154,0,0,0,4.835,7.287c3.356,2.662,7.549,3.816,11.384,5.58a46.636,46.636,0,0,1,11.771,6.753,38.143,38.143,0,0,1,10.649,13.317c2.991,5.6,4.3,11.892,5.235,18.117a85.615,85.615,0,0,1-5.1,40.572A89.692,89.692,0,0,1,901.7,284.6c-1.087,1.751-2.592,3.209-3.6,5.014-7.028,0-14.056.01-21.083-.013,1.553-8.236,2.825-16.52,4.254-24.778,1.192-7.354,2.528-14.688,3.672-22.048a17.687,17.687,0,0,0-5.034-15.26,18.7,18.7,0,0,0-10.569-4.816,5.135,5.135,0,0,0-3.186-.425c-1.282-.233-2.573-.393-3.867-.515a20.531,20.531,0,0,0-2.854-9.527c-1.534-2.029-3.845-3.247-5.967-4.561-5.462-3.142-11.272-5.606-16.922-8.37-.866-.722-1.492-1.694-2.33-2.451-1.387-1.275-2.582-2.854-4.35-3.621-.713-.268-.8-1.141-1.234-1.678-.38-.61-1.422-.738-1.413-1.569-.089-2.106-.377-4.209-.377-6.318,1.579-3.742,3.662-7.274,5.075-11.1,1.732-4.615,3.273-9.473,2.943-14.468a10.878,10.878,0,0,0,4.212-5.759,8.509,8.509,0,0,0-2.873-8.495c.115-.093.339-.281.451-.374s.316-.294.422-.39a6.556,6.556,0,0,0-3.924-4.576c-1.921-.617-3.739-1.818-5.839-1.592a6.471,6.471,0,0,0-5.657,3.841,19.846,19.846,0,0,0-13.209-2.109c-3.592.911-7.411-.914-10.917.591a6.476,6.476,0,0,0-2.966,3.042,10.668,10.668,0,0,0-3.682,1.432,8.162,8.162,0,0,0-3.071,6.993,2.245,2.245,0,0,0,.575,1.518c.08-1.151.07-2.3.125-3.455a1.4,1.4,0,0,1,.467-.195c-.543,1.31.118,2.723.511,3.992a7.987,7.987,0,0,0-1.745,7.386c.384.975.812,2.234,2.013,2.4-1.221-1.822-2.077-4.017-1.438-6.222a11.293,11.293,0,0,0,.777,3.346,12.017,12.017,0,0,0,4.8,4.74c.751,5.273-.272,10.639.757,15.884a31.641,31.641,0,0,0,2.653,8.236c.834,1.63,1.847,3.34,3.557,4.18a9.425,9.425,0,0,0,4.692.825c.08,1.144.105,2.291.131,3.442a27.169,27.169,0,0,0-2.02,3.845,29.545,29.545,0,0,1-4.749,3.218q-4.348,2.392-8.776,4.64a30.173,30.173,0,0,0-6.1,3.8,22.01,22.01,0,0,0-4.414,5.81c-6.721,11.643-13.777,23.087-20.984,34.436-6.472-7.875-13.01-15.7-19.364-23.665-.169-.029-.5-.086-.668-.118-.46-.646-.936-1.282-1.441-1.892-.217-.051-.649-.157-.863-.208a13.178,13.178,0,0,1-2.125-4.784,29.8,29.8,0,0,0-1.624-3.988c3.985.2,7.977.029,11.965.121,1.521.013,3.3.048,4.4-1.2,1.365-1.288,1.122-3.321,1.147-5.021q0-28.916.026-57.836a71.33,71.33,0,0,0,16.59-7.593c5.107-2.943,9.594-6.8,14.372-10.23A63.181,63.181,0,0,1,796.27,127.689Z" transform="translate(-534.446 -123.823)" fill="#d4e6f5"/>
        <path id="Path_1024425" data-name="Path 1024425" d="M353.016,131.987a65.913,65.913,0,0,1,23-4.6,45.573,45.573,0,0,1,17.063,3.3,53.677,53.677,0,0,1,10.166,5.781c2.943,2.144,5.644,4.6,8.488,6.878a25.113,25.113,0,0,1,3.362,2.991c-16.644.038-33.292.013-49.936.067a3.974,3.974,0,0,0-4.033,4.171q-.034,32.608-.029,65.218a4.187,4.187,0,0,0,4.4,4.672c17.788-.038,35.58-.013,53.368-.032,1.259.058,2.643-.31,3.793.371-1.026,1.342-.38,3.167.7,4.257,1.08,1.259,3.046,1.32,3.915,2.8,2.49,3.2,5.6,6.612,9.872,7.069.457.78.93,1.547,1.422,2.307a41.011,41.011,0,0,0-3.423,2.979c.454.678.93,1.339,1.393,2.013-.732,1.106-1.409,2.24-2.1,3.368,6.1,9.108,12.282,18.162,18.7,27.053,2.835,3.7,5.522,7.654,9.345,10.425a13.842,13.842,0,0,0,5.769,2.378c-1.566,1.927-3.375,4.02-3.493,6.615q-40.714-.019-81.428-.029c-.694-2.24-1.809-4.58-3.88-5.842-.617-.46-1-1.151-1.6-1.624a23.007,23.007,0,0,0-2.531-.959c-1.978-1.729-3.726-3.7-5.682-5.459-1.528-1.358-2.982-2.793-4.522-4.132-.681-.62-1.569-1.112-1.9-2.023-3.6-9.616-7.319-19.191-11.026-28.769-1.454-3.64-2.643-7.459-4.973-10.665.713-3.308-.384-6.689-2.049-9.533-1.365-2.522-3.3-4.918-3.452-7.9-.537-5.011,2.272-9.492,2.931-14.343.994-5.65-.1-11.428-1.965-16.782a24.537,24.537,0,0,0-9.527-12.6,21.591,21.591,0,0,0-15.225-3.052,9.107,9.107,0,0,0-5.273,2.86,12.8,12.8,0,0,0-3.755.92,5.8,5.8,0,0,1,.818-1.595c3.205-3.979,6.027-8.242,9.06-12.349a80.855,80.855,0,0,1,14.813-15.532A73.934,73.934,0,0,1,353.016,131.987Z" transform="translate(-246.183 -126.249)" fill="#d4e6f5"/>
        <path id="Path_1024426" data-name="Path 1024426" d="M348.067,148.124a2.442,2.442,0,0,1,3.052,1.838c.428,2.042-.949,3.918-2.406,5.19-1.2.984-2.947,1.79-4.465,1.039a2.919,2.919,0,0,1-.968-2.426A6.3,6.3,0,0,1,348.067,148.124Z" transform="translate(-269.576 -140.295)" fill="#d4e6f5"/>
        <path id="Path_1024427" data-name="Path 1024427" d="M252.109,159.443a4.976,4.976,0,0,1,3.784,1.045c1.521,1.863,1.227,4.474.805,6.676a49.464,49.464,0,0,1-7.136,15.89,43.776,43.776,0,0,1-7.712,8.881,15.581,15.581,0,0,1-9,3.861,5.843,5.843,0,0,1-5.807-4.222c-1.051-3.934.2-8.044,1.863-11.62,3.452-6.81,8.99-12.352,15.1-16.823A19.913,19.913,0,0,1,252.109,159.443Z" transform="translate(-190.233 -148.035)" fill="#d4e6f5"/>
        <path id="Path_1024428" data-name="Path 1024428" d="M1186.423,196.963c2.87-.789,5.88.374,8.156,2.119a13.672,13.672,0,0,1,4.183,5.733,10.378,10.378,0,0,1,.422,7.021c-1.425,5.238-9.14,6.964-12.847,3.145-2.023-2.16-2.119-5.283-2.464-8.057-.2-2.234-1.029-4.465-.572-6.718A4.343,4.343,0,0,1,1186.423,196.963Z" transform="translate(-841.05 -173.417)" fill="#d4e6f5"/>
        <path id="Path_1024429" data-name="Path 1024429" d="M613.828,246.827a8.953,8.953,0,0,1,2.841-.169c14.839.045,29.68.016,44.519.01q-.024,1.011-.006,2.029c-8.555.109-17.117.022-25.676.074-7.261-.045-14.522.08-21.783-.051C613.758,248.1,613.54,247.405,613.828,246.827Z" transform="translate(-453.563 -207.381)" fill="#d4e6f5"/>
        <path id="Path_1024430" data-name="Path 1024430" d="M613.8,258.727c7.689-.214,15.382-.051,23.074-.1,8.114.026,16.232-.054,24.343.051.038.6.077,1.2.121,1.793a22.213,22.213,0,0,1-2.429.233c-15.046-.032-30.1.064-45.142.013C613.786,260.053,613.8,259.389,613.8,258.727Z" transform="translate(-453.627 -215.536)" fill="#d4e6f5"/>
        <path id="Path_1024431" data-name="Path 1024431" d="M613.668,270.641q23.749-.077,47.5-.01c.032.633.067,1.272.109,1.908-3.25.182-6.513.105-9.767.08-11.2.157-22.39.093-33.586.1a31.729,31.729,0,0,1-4.126-.109A7.965,7.965,0,0,1,613.668,270.641Z" transform="translate(-453.557 -223.694)" fill="#d4e6f5"/>
        <path id="Path_1024432" data-name="Path 1024432" d="M1202.148,275.048c5.554-1.083,11.409,2.4,13.646,7.494a4.657,4.657,0,0,1,.054,4.235c-.933,1.3-2.761,1.39-4.2,1.128a27.532,27.532,0,0,1-9.15-3.883,7.386,7.386,0,0,1-3.691-4.979A3.876,3.876,0,0,1,1202.148,275.048Z" transform="translate(-851.681 -226.584)" fill="#d4e6f5"/>
        <path id="Path_1024433" data-name="Path 1024433" d="M613.751,282.8a3.622,3.622,0,0,1,1.553-.2c8.862.048,17.728-.038,26.59.038q.058.925.125,1.857a18.343,18.343,0,0,1-3.4.173c-7.878.089-15.756-.013-23.634.042a5.306,5.306,0,0,1-1.234-.134A2.171,2.171,0,0,1,613.751,282.8Z" transform="translate(-453.483 -231.857)" fill="#d4e6f5"/>
        <path id="Path_1024434" data-name="Path 1024434" d="M163.5,296.632A29.558,29.558,0,0,1,167.8,293.8c-1.834,4.359-2.307,9.121-2.47,13.8a29.859,29.859,0,0,1-2.464,11.978c-1.818,3.835-4.848,6.961-6.5,10.888a16.219,16.219,0,0,0-.633,11.039,12.023,12.023,0,0,0-5.241,5.922,89.55,89.55,0,0,0-9.3.754,4.343,4.343,0,0,0-2.726.336c-3.717.7-7.555,1.78-10.431,4.366a17.561,17.561,0,0,0-5.161,15.737c1.115,6.855,2.1,13.729,3.145,20.6a7.1,7.1,0,0,1-1.253-1.579,85.207,85.207,0,0,1-11.975-36.887c-.185-5.123-.272-10.329.911-15.353a36.681,36.681,0,0,1,10.47-19.281,42.257,42.257,0,0,1,10.566-7.325,88.291,88.291,0,0,1,12.566-4.644C152.982,302.346,158.68,300.221,163.5,296.632Z" transform="translate(-112.678 -239.477)" fill="#d4e6f5"/>
        <path id="Path_1024435" data-name="Path 1024435" d="M613.7,305.646c8.549-.128,17.1,0,25.653-.058,7.37.067,14.743-.077,22.112.077a5.065,5.065,0,0,1-.157,1.854c-4.113.316-8.255.1-12.381.169-11.732.013-23.461.057-35.19-.019C613.735,306.994,613.722,306.317,613.7,305.646Z" transform="translate(-453.579 -247.498)" fill="#d4e6f5"/>
        <path id="Path_1024436" data-name="Path 1024436" d="M613.823,317.629c5.871-.153,11.751-.035,17.625-.067,9.594-.045,19.188.022,28.785-.022.431.064,1.163-.131,1.294.47.074.518.125,1.492-.665,1.387-14.592.042-29.188-.016-43.78.029-1.09.016-2.176-.019-3.263-.067C613.826,318.78,613.826,318.2,613.823,317.629Z" transform="translate(-453.661 -255.63)" fill="#d4e6f5"/>
        <path id="Path_1024437" data-name="Path 1024437" d="M613.671,329.083c.23-.511.9-.332,1.342-.393,6.328.086,12.662-.006,18.99.067q-.038,1-.032,2.013c-6.775.07-13.554.086-20.329,0A15.662,15.662,0,0,1,613.671,329.083Z" transform="translate(-453.534 -263.217)" fill="#d4e6f5"/>
        <path id="Path_1024438" data-name="Path 1024438" d="M500.261,367.536c-.582-.531-.352-1.371-.2-2.036,15.768.086,31.54.054,47.309.019.115.684.671,2.065-.451,2.116-14.484.038-28.98-.032-43.47.022A17.391,17.391,0,0,1,500.261,367.536Z" transform="translate(-376.139 -288.263)" fill="#d4e6f5"/>
        <path id="Path_1024439" data-name="Path 1024439" d="M499.45,377.024a14.989,14.989,0,0,1,3.365-.093c13.209-.1,26.417-.058,39.629-.086a25.885,25.885,0,0,1,4.95.185c-.026.6-.045,1.211-.064,1.818-15.369.169-30.741-.016-46.11.105a3.42,3.42,0,0,1-1.54-.2A16.565,16.565,0,0,1,499.45,377.024Z" transform="translate(-375.842 -295.964)" fill="#d4e6f5"/>
        <path id="Path_1024440" data-name="Path 1024440" d="M499.81,389.606c6.762-.147,13.531-.067,20.3-.045,0,.6,0,1.2.016,1.8-6.747.026-13.5.125-20.246-.051Z" transform="translate(-376.087 -304.606)" fill="#d4e6f5"/>
        <path id="Path_1024441" data-name="Path 1024441" d="M853.98,586.6a60.186,60.186,0,0,0,7.277-6.583c-.121,2.448-.147,4.9-.336,7.347C858.614,587.045,856.3,586.766,853.98,586.6Z" transform="translate(-617.069 -434.225)" fill="#d4e6f5"/>
      </g>
      <g id="_8fb2d2ff" data-name="#8fb2d2ff" transform="translate(-5218.181 -13059.134)">
        <path id="Path_1024442" data-name="Path 1024442" d="M472.19,190.822a3.974,3.974,0,0,1,4.033-4.171c16.644-.054,33.292-.029,49.936-.067,13.615-.042,27.232-.01,40.847-.035,1.329.016,2.819-.182,3.966.649a4.645,4.645,0,0,1,1.889,3.95c.016,1.822.042,3.646.026,5.468q-.072,28.916-.026,57.836c-.026,1.7.217,3.733-1.147,5.021-1.1,1.246-2.876,1.211-4.4,1.2-3.988-.093-7.98.083-11.965-.121-.061-.131-.185-.39-.246-.521,4.5-.073,8.993-.01,13.493-.035a3.37,3.37,0,0,0,3.423-2.381,20.849,20.849,0,0,0,.195-4.442q-.01-29.214,0-58.427-49.688.081-99.379.045c.045,20.53.006,41.061.013,61.588A3.529,3.529,0,0,0,476.543,260q26.05-.014,52.1,0a31.654,31.654,0,0,1,5.638.23c-.192.272-.38.543-.559.821-1.151-.681-2.534-.313-3.793-.371-17.788.019-35.58-.006-53.368.032a4.187,4.187,0,0,1-4.4-4.672q0-32.608.029-65.218m11.5-1.448a1.485,1.485,0,0,0-.984,1.767,1.588,1.588,0,0,0,2.755.6,1.572,1.572,0,0,0-1.77-2.365m-6.082.288a1.455,1.455,0,0,0,.029,2.323c.86.665,2.483.051,2.343-1.138a1.485,1.485,0,0,0-2.371-1.186m11.5-.038a1.5,1.5,0,0,0-.543,1.975,1.568,1.568,0,0,0,2.64-.115C491.89,190.295,490.212,188.853,489.109,189.623Z" transform="translate(-393.05 -186.539)" fill="#8fb2d2"/>
        <path id="Path_1024443" data-name="Path 1024443" d="M501.23,239.315a6.16,6.16,0,0,1,1.141-.105q13.26.029,26.526.019a1.594,1.594,0,0,1,1.806,1.5c.16,3.838-.067,7.689.147,11.528-.157,4.263-.115,8.53,0,12.79-.224,2.119.01,4.241-.032,6.363a2.009,2.009,0,0,1-2.247,2.065c-8.408.061-16.817-.01-25.225.013-.9-.042-2.013.067-2.627-.735-.626-.722-.387-1.755-.447-2.627-.022-9.588-.006-19.175-.058-28.763-.038-.783.166-1.786,1.02-2.049m11.764,4.414A6.329,6.329,0,0,0,509,249.7a3.529,3.529,0,0,0,1.355,3.014,12.151,12.151,0,0,1,1.419-3.359c-.048-.86-.655-1.665-.383-2.534a29.7,29.7,0,0,0,3.167,1.892,14.046,14.046,0,0,0,5.59.783c.256,1.055.473,2.119.738,3.174a5.929,5.929,0,0,0-.831-7.555,7.106,7.106,0,0,0-7.063-1.387m-.828,4.573c.08.783.441,1.694-.2,2.339a6.065,6.065,0,0,0-1.122,3.193,3.92,3.92,0,0,0-1.135-.725c-.393.332-.217.924-.189,1.368.086.751,1.055.834,1.582,1.2a5.288,5.288,0,0,0,4.711,4.193c2.212-.24,3.7-2.272,4.3-4.267.706-.355,1.588-.767,1.349-1.732.054-.741-.821-.5-1.266-.492a11.415,11.415,0,0,0-.374-3.25,15.31,15.31,0,0,0-3.084-.262,13.209,13.209,0,0,1-4.573-1.56m1.032,11.627a8.622,8.622,0,0,0-.058,2.311,33.726,33.726,0,0,0,2.522,2.49c.7-1.032,1.662-1.857,2.346-2.9a6.076,6.076,0,0,0-.112-1.889,5.353,5.353,0,0,1-4.7-.016m2.95,5.149c.422.591.844,1.182,1.278,1.771a40.222,40.222,0,0,0,1.9-4.746c-1.445.467-2.129,1.981-3.174,2.975m-4.247-2.7a27.3,27.3,0,0,0,1.949,4.193c.563-.179.748-1.029,1.125-1.492-1.026-.9-1.742-2.215-3.074-2.7m8.226.195c-.988,1.7-1.678,3.557-2.589,5.3-.716-.716-1.355-1.5-2.084-2.2a17.859,17.859,0,0,0-1.518,2.106,39.367,39.367,0,0,1-2.656-5.014c-2.087.387-4.337,1.221-5.443,3.164a16.224,16.224,0,0,0-1.748,6.909c7.59-.013,15.184,0,22.774-.026a16.23,16.23,0,0,0-1.445-6.51C524.5,264.205,522.253,263.048,520.127,262.575Z" transform="translate(-412.16 -222.377)" fill="#8fb2d2"/>
        <path id="Path_1024444" data-name="Path 1024444" d="M953.3,316.25a8.644,8.644,0,0,1,1.467.32c-.307.508-1,.345-1.489.5C953.286,316.86,953.3,316.455,953.3,316.25Z" transform="translate(-720.437 -274.796)" fill="#8fb2d2"/>
        <path id="Path_1024445" data-name="Path 1024445" d="M239.381,426.643c2.812-1.173,5.7-2.141,8.533-3.263a40.887,40.887,0,0,0,3.64,4.334c5.037,8.926,9.5,18.348,11.585,28.447,1.6,7.728.773,15.65.476,23.458l.885.195c-5.96-.93-11.914-1.9-17.855-2.94.013-4.024-.141-8.047-.026-12.068.268-1.713-.192-3.416-.16-5.133-.048-5.331.013-10.751-1.294-15.957-.182-.636-.872.316-.515.642,1.566,6.81.952,13.841,1.253,20.764.105,3.934-.026,7.881.153,11.812-.029.566.655.588,1.058.716,10.748,1.825,21.505,3.618,32.278,5.289-1.023,3.522-1.684,7.133-2.474,10.713-14.915-.268-29.846-.026-44.768-.24-.863-.07-1.857.105-2.56-.524-2.275-1.71-2.787-4.708-3.237-7.338-.815-6.126-1.179-12.307-1.4-18.482a192.725,192.725,0,0,1,.195-22.9c.447-4.171,1.384-8.622,4.33-11.793,2.748-2.732,6.379-4.276,9.9-5.733m-4.679,4.608a18.177,18.177,0,0,1,7.9,7.45c.144.492.6.5,1.029.4a19.4,19.4,0,0,0-8.7-8.389c-.058.134-.176.406-.237.543m14.845,20.856c-.543,1.978-.946,4-1.534,5.967-.431,1.723-1.224,3.381-1.189,5.193a3.927,3.927,0,0,0,.722-1.365q1.4-4.42,2.451-8.936c.134-.441.265-1.227-.451-.86m-12.982,23.905c-.054.192-.157.575-.208.764a30.785,30.785,0,0,1,7.565-.914c0-.182.01-.546.01-.729a30.9,30.9,0,0,0-7.367.879m1.873,4.059c-.879.591-2.013.972-2.509,1.978,1.467-.208,2.534-1.365,3.835-1.981,1.189-.786,2.748-1.093,3.6-2.311C241.548,478.078,240.033,479.209,238.438,480.072Z" transform="translate(-224.708 -347.688)" fill="#8fb2d2"/>
        <path id="Path_1024446" data-name="Path 1024446" d="M409.046,464.931a20.705,20.705,0,0,0,2.237-4.781c1.918,2.352,2.764,5.312,3.9,8.073,3.972,10.067,7.827,20.182,11.646,30.31.358,1.147,1.47,1.729,2.295,2.506,2.774,2.547,5.491,5.155,8.21,7.756a23.105,23.105,0,0,1-4.043-.243c-1.838-.1-3.17,1.365-4.442,2.474a13.856,13.856,0,0,0-4.414-2.761c-1.675-.658-3.346-1.54-5.19-1.537-2.282.15-4.545.5-6.8.847.441-3.477.809-6.964,1.384-10.425.687-4.854,1.678-9.725,1.365-14.65a28.6,28.6,0,0,0-1.809-8.322,18.809,18.809,0,0,1-1.061-6.855c-.189-.022-.569-.07-.761-.1a25.274,25.274,0,0,0,1.783,8.869,30.417,30.417,0,0,1,1.093,11.687c-.7,6.647-1.985,13.225-2.624,19.882-2.736.313-5.468.684-8.22.821-.243-8.514,1.227-17,.8-25.516-.109-2.633-.725-5.2-1.023-7.811,2.263.042,5.145.722,6.817-1.24-1.106-1.47-2.432-2.94-2.646-4.848-.233-1.553.761-2.876,1.505-4.139m6.315,37.171c.259.064.54.5.809.275a16.632,16.632,0,0,1,8.265-3.138c-2.013,1.6-4.343,3.033-5.638,5.334.738-.006,1.141-.633,1.595-1.112a17.9,17.9,0,0,1,4.3-3.407c.636-.352-.153-.994-.262-1.438A17.753,17.753,0,0,0,415.361,502.1Z" transform="translate(-346.272 -372.707)" fill="#8fb2d2"/>
      </g>
      <g id="_fbc4afff" data-name="#fbc4afff" transform="translate(-5193.301 -13046.97)">
        <path id="Path_1024447" data-name="Path 1024447" d="M928.506,224.6a36.439,36.439,0,0,1,4.091.329,12.889,12.889,0,0,0,3.2.217c1.812-.061,3.608.47,5.427.23,1.438-.1,2.835-.649,4.292-.5,1.345.09,2.921-.189,3.953.9,1.713,1.659.754,4.244,1.4,6.3.3,1.505,1.384,2.624,2.247,3.822A31.385,31.385,0,0,1,953,241.73c.281.991,2.263,1.4,2.592.224a26.776,26.776,0,0,1,1.224-4.433,3.249,3.249,0,0,1,3.317-1.831,3.759,3.759,0,0,1,2.9,2.966c.9,3.861-2.362,8.2-6.369,8.242l-.281.534c.562.019,1.135.032,1.707.038.131,4.57.546,9.131.834,13.691.157.694-.479,1.1-.895,1.531-4.1,3.784-8.514,7.216-12.87,10.687-1.5,2.093-2.292,4.6-3.57,6.83-.895-4.775-2.528-9.4-3.017-14.247,4.733-.658,8.21-4.43,10.882-8.1.984-1.627,2.678-2.7,3.57-4.382-.048-.166-.141-.5-.185-.668-2.323,3.554-6.13,5.829-10.019,7.309-2.63.914-5.523,1.6-8.281.885a6.319,6.319,0,0,1-3.79-3.087,30.172,30.172,0,0,1-3.806-14.97c-.032-3.1.237-6.206-.067-9.3a6.258,6.258,0,0,1,4.43-.1c1.061.521,1.585-1.371.658-1.735a7.278,7.278,0,0,0-5.181.128,29.252,29.252,0,0,1,1.726-7.335m9.671,7.037c-1.071.211-.559,2.288.476,1.793a11.037,11.037,0,0,1,8.463.786c.236-.284.473-.572.713-.863-2.557-2.32-6.449-2.649-9.652-1.716m-5.241,3.1c.588,2.985-.5,5.925-1.972,8.479-.284.607-.9,1.25-.543,1.959a3.559,3.559,0,0,0,2.726,2.09c-.425-.962-1.579-1.259-2.065-2.16-.23-.406.128-.815.275-1.179a16.694,16.694,0,0,0,2.41-7.044c-.019-.767.093-1.85-.831-2.144m-3.694,1.019c-1.313.626-1.256,3.138.2,3.618,1.889-.189,1.723-3.714-.2-3.618m11.457.006c-1.023.818-1.048,2.908.2,3.535,1.2.32,1.78-1.163,1.579-2.128.01-.863-.876-1.937-1.78-1.406m17.261,3.666a32.339,32.339,0,0,0-1.339,4.513c1.25-.281.914-1.991,1.751-2.771.729.294,1.454.6,2.2.869-.24-1.09-1.393-1.329-2.339-1.381a3.917,3.917,0,0,1,1.042-2.02c.559-.425,1.285-.09,1.924-.112-.348-.288-.6-.818-1.109-.815a2.316,2.316,0,0,0-2.132,1.716m-21.85,11.854a13.146,13.146,0,0,1-4.206-.38c.045.176.134.524.179.7,2.7.94,5.711.352,8.29-.738-.112-.137-.332-.415-.444-.553a18.063,18.063,0,0,1-3.819.975m-.837,2.6c-.006.2-.016.61-.022.815.486-.15,1.182.013,1.489-.5A8.648,8.648,0,0,0,935.271,253.89Z" transform="translate(-727.286 -224.6)" fill="#fbc4af"/>
        <path id="Path_1024448" data-name="Path 1024448" d="M338.263,288.9a17.465,17.465,0,0,1-5,10.291,11.385,11.385,0,0,1-5.538,3.174c1.186-1.013,2.665-1.62,3.822-2.672A23.357,23.357,0,0,0,338.263,288.9Z" transform="translate(-319.678 -268.35)" fill="#fbc4af"/>
        <path id="Path_1024449" data-name="Path 1024449" d="M321.881,288.65c1.24.847,2.78.6,4.187.837a8.66,8.66,0,0,1,5.631,3.241,12.562,12.562,0,0,1,2.515,6.769,4.9,4.9,0,0,0-3.918-.032.959.959,0,0,0,.01,1.355c1.269-.243,2.576-.623,3.819-.032-.543,3.314-.211,6.683-.457,10.019-.195,3.794-1.71,7.344-3.292,10.738-.706,1.524-1.93,3.052-3.742,3.174-3.4.3-6.711-1.02-9.632-2.646a16.627,16.627,0,0,1-4.762-4.056c-.1.112-.307.329-.409.441.754,1.016,1.748,1.834,2.422,2.915,2.173,3.253,5.193,6.3,9.1,7.28-.23,1.563-.179,3.151-.377,4.717a23.788,23.788,0,0,1-2.963,4.934c-4.378-3.384-8.651-6.906-12.873-10.486-.259-.272-.639-.47-.77-.831a47.963,47.963,0,0,0,.9-14.365c.368-.291.853-.511.815-1.061a3.541,3.541,0,0,1-3.142-.761,6.164,6.164,0,0,1-2.307-5.733,3.288,3.288,0,0,1,1.994-2.64,2.445,2.445,0,0,1,2.653.917c.642,1.055.783,2.355,1.556,3.336.4.217.962.144,1.029-.368.144-1.083.2-2.176.348-3.257a14.859,14.859,0,0,0,9.706-8.233,19.075,19.075,0,0,0,1.962-6.174m-5.251,11.591c.032,1.035,1.106.467,1.681.288a10.088,10.088,0,0,1,6.925.224c.259-.409.738-1.09.15-1.435a8.655,8.655,0,0,0-5.491-.492,6.7,6.7,0,0,0-3.266,1.416m5.069,2.109a2.036,2.036,0,0,0-.614,2.87,1.1,1.1,0,0,0,1.9-.61c.243-.869-.093-2.512-1.291-2.26m6.922,1.109a15.137,15.137,0,0,0,2.141,7.047c-.361,1.077-1.831,1.083-2.192,2.151a3.041,3.041,0,0,0,2.828-2.17,35.047,35.047,0,0,1-1.62-3.851,13.576,13.576,0,0,1-.489-4.439,1.405,1.405,0,0,0-.668,1.262m2.9-.585c-.952.837-.706,3.237.892,2.959.8-.486.678-1.537.531-2.323a.859.859,0,0,0-1.422-.636M304,304.393a7.645,7.645,0,0,1,1.592.3,3.762,3.762,0,0,1,1.234,1.8c-.863.109-2.007.045-2.16,1.163.732-.16,1.461-.342,2.2-.5.323.818.185,1.965,1.125,2.391a9.334,9.334,0,0,0-1.729-5.174,1.4,1.4,0,0,0-2.256.016m19.473,12a9.259,9.259,0,0,0,5.561.543,1.725,1.725,0,0,0,1.25-1c-1.122,0-2.18.531-3.308.422a10.786,10.786,0,0,1-3.554-.876c-.63.112-.444.783.051.908m2.758,3.042c.54-.089,1.329.144,1.5-.582C327.151,318.889,326.288,318.576,326.234,319.439Z" transform="translate(-302.558 -268.18)" fill="#fbc4af"/>
        <path id="Path_1024450" data-name="Path 1024450" d="M658.631,357.847c.614-.377,1.275.141,1.818.419,2.582,1.684,5.28,3.2,7.788,5,2.733,2.148,5.4,4.378,7.987,6.7a15.129,15.129,0,0,1,1.991,2.247c-1.9-.713-3.675-1.687-5.523-2.509-1.135-.562-2.406-.125-3.579.054-1.342-1.831-2.6-3.816-4.522-5.1a40.236,40.236,0,0,1-5.1-4.171C658.906,359.781,658.194,358.8,658.631,357.847Z" transform="translate(-544.742 -315.173)" fill="#fbc4af"/>
        <path id="Path_1024451" data-name="Path 1024451" d="M673.026,392.986c.879-1.3,2.7-1.3,4.1-1.556.393.5.786,1,1.189,1.505a18.958,18.958,0,0,0-3.666.428c-.847.307-.841,1.409-.435,2.068.556,1.135,1.886,1.4,2.975,1.771.352,1.361,1.943,1.71,2.557,2.908.371.559.639,1.582-.1,1.972-.879.268-1.595-.425-2.317-.789-1.039-.658-2.506-.952-2.9-2.279C673.713,397.1,672.473,395.089,673.026,392.986Z" transform="translate(-554.535 -338.113)" fill="#fbc4af"/>
        <path id="Path_1024452" data-name="Path 1024452" d="M678.4,397.577c2.295-.3,4.576-.888,6.887-.987,2.141.6,3.985,1.934,6.069,2.7.713.323,1.6.473,2.01,1.227a34.436,34.436,0,0,1,3.848,8.584,17.63,17.63,0,0,0,1.9,3.957c-2.768,2.419-5.762,4.561-8.52,6.986-.527-.665-1-1.368-1.464-2.081.262-.291.524-.582.783-.879a8.333,8.333,0,0,1-3.423-.15c-3.158-1.2-5.369-3.905-7.523-6.379.585-.035,1.24.147,1.777-.166.578-.454.288-1.243.275-1.857.432-.115,1,.006,1.342-.352.489-.438.281-1.157.326-1.729.834.006,1.87-.431,1.834-1.409.163-1.918-1.707-2.924-2.777-4.2a9.3,9.3,0,0,1,2.886.013,22.037,22.037,0,0,1,2.33,1.9,11.387,11.387,0,0,0,2.927,8.539c.617.665,1.208,1.553,2.25,1.445-.511-.818-1.39-1.282-2-2.01a10.728,10.728,0,0,1-2.49-7.057c.134-.153.4-.457.531-.61-.924-.9-1.946-1.684-2.905-2.547-.86-.8-2.132-.275-3.177-.415C680.561,400.07,678.333,399.521,678.4,397.577Z" transform="translate(-558.282 -341.624)" fill="#fbc4af"/>
        <path id="Path_1024453" data-name="Path 1024453" d="M667.177,407.382a1.891,1.891,0,0,1,1.413-2.212c.936,1.847,1.058,4.58,3.279,5.407a7.7,7.7,0,0,1,2.442,1.352,6.919,6.919,0,0,1,.042,1.687,3.283,3.283,0,0,1-1.9-.118c-1.234-.473-2.617-.936-3.359-2.112A11.235,11.235,0,0,1,667.177,407.382Z" transform="translate(-550.629 -347.462)" fill="#fbc4af"/>
        <path id="Path_1024454" data-name="Path 1024454" d="M665.94,419.49c.63.815,1.106,1.735,1.739,2.55,1,1.125,2.592,1.352,3.787,2.186.761.754-.364,1.646-1.131,1.144-1.863-.738-4.382-1.387-4.9-3.627A2.915,2.915,0,0,1,665.94,419.49Z" transform="translate(-549.405 -357.205)" fill="#fbc4af"/>
        <path id="Path_1024455" data-name="Path 1024455" d="M812.6,602.387a26.659,26.659,0,0,1,6.216.281c2.982.38,5.976.623,8.968.917a28.9,28.9,0,0,1,3.755.332c.805,3.257,1.349,6.584,1.937,9.891a22.723,22.723,0,0,1-4.388,1.141,20.978,20.978,0,0,1-7.386-.735c-1.691-.39-3.33-1.122-5.091-1.074a23.83,23.83,0,0,0-7.472,2.026c-1.285.428-3.039,1.24-4.046-.137a35.729,35.729,0,0,1,6.075-3.624,49.242,49.242,0,0,1,5.018-1.908c.1-.444-.051-.607-.457-.486a29.064,29.064,0,0,0-7.74,3.384c-1.176.738-2.569,1.24-3.4,2.413a2.1,2.1,0,0,1-3.3.189,53.584,53.584,0,0,1,4.928-4.631,23.346,23.346,0,0,1,6.762-3.56,1.746,1.746,0,0,0,.866-.761c-1.329-.019-2.467.754-3.678,1.189a20.944,20.944,0,0,0-6.283,4.308,17.57,17.57,0,0,0-3.547,3.9,11.865,11.865,0,0,1-1.275-.467c-.134-.607.336-1.039.678-1.467a53.281,53.281,0,0,1,4.6-5.046,21.691,21.691,0,0,1,6.516-3.7c.358-.157,1.189-.473.6-.975-1.707.671-3.356,1.515-4.992,2.346-2.748,1.569-4.666,4.164-6.878,6.357a33.792,33.792,0,0,1,3.809-4.979,15.966,15.966,0,0,1,4.9-3.384A17.327,17.327,0,0,1,812.6,602.387Z" transform="translate(-640.368 -481.582)" fill="#fbc4af"/>
        <path id="Path_1024456" data-name="Path 1024456" d="M407.659,608.455c1.927-.24,3.992-.633,5.836.185a39.659,39.659,0,0,1,4.4,1.975c1.751.991,2.918,2.678,4.324,4.062a.986.986,0,0,0,1.045.307c-.777-.936-1.576-1.844-2.391-2.742,1.416-.949,2.905-2.966,4.8-2.068.86.562,1.793-.147,2.72-.013a2.734,2.734,0,0,1,2.359,1.355,22,22,0,0,1,2.522,6.453c.105.61.5,1.387-.141,1.831-.78.128-1.448-.588-1.809-1.2a34.663,34.663,0,0,0-3.2-6.7,1.537,1.537,0,0,0-1.147-.754,29.685,29.685,0,0,1,3.643,7.824l-.189.326-.716.259c-2.02-1.2-2.761-3.6-4.289-5.267a2.613,2.613,0,0,0-1.643-.847c.157.374.316.748.489,1.122-.371.384-.735.773-1.1,1.167-.291-.16-.582-.32-.866-.483a13.546,13.546,0,0,0-2.253-2.295c-1.985-1.857-4.64-2.678-7.088-3.714-.137.112-.409.342-.543.454,2.007,1.007,4.254,1.544,6.091,2.886,2.32,1.6,4.027,3.88,6.059,5.8-.323.383-.658.751-.984,1.131-2.675-3.081-5.817-5.932-9.693-7.386-1.058-.336-2.071-1.013-3.205-.988-.16.713.623.773,1.125.952,4.123,1.09,7.584,3.829,10.438,6.9-.467.259-.924.812-1.518.617-1.08-.1-1.569-1.2-2.416-1.713a31.182,31.182,0,0,0-10.157-4.219c.013.952,1.035.892,1.694,1.125a27.35,27.35,0,0,1,7.191,3.062,5.583,5.583,0,0,1,1.649,1.218c.185.927-1.243.831-1.831.69-3.231-.946-6.411-2.637-9.875-2.33-3.2.47-6.289,1.7-9.559,1.7-2.186.051-4.273-.678-6.385-1.135.441-2.748,1.208-5.43,1.806-8.143C397.832,609.979,402.744,609.069,407.659,608.455Z" transform="translate(-362.769 -485.57)" fill="#fbc4af"/>
        <path id="Path_1024457" data-name="Path 1024457" d="M518.33,618.91a3.372,3.372,0,0,1,2.656,2.116,13.7,13.7,0,0,1,1.329,5.532c-.233.7-1.393.307-1.518-.291A32.3,32.3,0,0,0,518.33,618.91Z" transform="translate(-449.372 -492.893)" fill="#fbc4af"/>
        <path id="Path_1024458" data-name="Path 1024458" d="M529.88,627.31a8.943,8.943,0,0,1,3.1,5.165,5.544,5.544,0,0,1-1.991-.895C530.484,630.2,530.3,628.719,529.88,627.31Z" transform="translate(-457.231 -498.608)" fill="#fbc4af"/>
        <path id="Path_1024459" data-name="Path 1024459" d="M493.14,630.191a11.212,11.212,0,0,1,1.253-1.3c1.278,1.23,1.978,2.918,3.058,4.314-1.023.07-2.049.086-3.071.08.073-.214.227-.639.3-.853C494.223,631.645,493.642,630.945,493.14,630.191Z" transform="translate(-432.232 -499.684)" fill="#fbc4af"/>
      </g>
      <g id="_3e5775ff" data-name="#3e5775ff" transform="translate(-5169.625 -13009.102)">
        <path id="Path_1024460" data-name="Path 1024460" d="M949.871,348.705a13.787,13.787,0,0,0,1.234-5.615,46.438,46.438,0,0,1,5.682,5.388c-.035,4.5-.706,8.968-1,13.455-2.569,1.048-5.209,1.943-7.693,3.183,1.3,1.62,2.733,3.135,4.062,4.739-3.2,6.36-6.612,12.617-9.706,19.035-2.106,4.027-3.9,8.2-5.916,12.272-1.7,3.589-3.276,7.235-4.87,10.872a14.348,14.348,0,0,0-1.445,4.34c.927-.831,1.083-2.16,1.63-3.228,5.874-13.8,12.589-27.235,19.556-40.514a11.951,11.951,0,0,0,1.371-2.953c-1.074-1.547-2.454-2.854-3.621-4.33,2.3-1.131,4.7-2.023,7.057-3.017a128.012,128.012,0,0,0,1.186-13.26c2.787,1.2,5.468,2.637,8.22,3.915,3.461,1.729,7,3.346,10.278,5.407,2.007,1.336,4.2,2.758,5.11,5.1a30.445,30.445,0,0,1,1.978,9.613,136.011,136.011,0,0,1-1.854,23.618c-1.914,11.425-4.219,22.831-7.916,33.825a20.523,20.523,0,0,1-3.321,6.564,4.314,4.314,0,0,1-2.959,1.729c-6.072.24-12.151.112-18.226.157-11.7-.032-23.394.109-35.088.067a137.657,137.657,0,0,0-3.09-14.612c12.336-1.892,24.611-4.155,36.9-6.337.572-.166,1.508-.144,1.556-.927,1.627-6.887,2.943-13.841,4.359-20.77,1.2-5.858,1.924-11.863,4.1-17.469a10.654,10.654,0,0,0,1.141-3.352,7.763,7.763,0,0,0-1.671,3.142c-2.2,5.762-3.017,11.908-4.164,17.932a11.4,11.4,0,0,1-.821,3.122c-.39-3.883-.968-7.75-1.144-11.652-.093-.614.121-1.569-.719-1.691.195,3.861.617,7.712,1.071,11.55.086,1.189.684,2.32.563,3.525-.9,5.289-2.244,10.5-3.231,15.768-6.654,1.259-13.324,2.432-19.993,3.589a203.671,203.671,0,0,1,6.951-38.025c1.246-4.423,2.972-8.69,4.6-12.982,1.048-2.816,2.544-5.433,3.71-8.2,1.885-4.4,4.477-8.475,6.139-12.979m12,21.9a5.89,5.89,0,0,0-1.723,2.566,3.06,3.06,0,0,0,1.294-1.064,24.216,24.216,0,0,1,6.449-5.74,21.962,21.962,0,0,1,9.958-3.621c-.169-.476-.451-.841-.994-.61-5.8.936-10.981,4.263-14.986,8.469M952.6,416.365c-.435.077-.115.4-.048.639a25.877,25.877,0,0,1,7.571,1.751c0-.189.013-.569.019-.757a32.281,32.281,0,0,0-7.542-1.633m-1.748,1.707c.329.885,1.266,1.221,1.975,1.732,2.151,1.387,4.014,3.164,6.015,4.733l.288-.329a28,28,0,0,0-4.183-3.615A19.826,19.826,0,0,0,950.856,418.072Z" transform="translate(-739.905 -343.09)" fill="#3e5775"/>
        <path id="Path_1024461" data-name="Path 1024461" d="M782.464,368.2a7.567,7.567,0,0,1,1.806-1.333c-1.154,3.662-1.256,7.561-2.579,11.182-1.764,4.669-2.624,9.6-3.81,14.433-3.205,15.6-4.9,31.451-6.449,47.283-.642.144-1.285.294-1.921.451-.016.214-.048.649-.064.866a9.456,9.456,0,0,0-2.921.393c.109.531.224,1.067.348,1.6-2.413-.157-4.819-.4-7.216-.7.419-6.612.249-13.241.486-19.856.051-6.181.042-12.368.326-18.546a84.456,84.456,0,0,1,2.24-18.789c.1-.489.153-.991.217-1.483-.687.3-.783,1.09-.965,1.726a84.761,84.761,0,0,0-1.969,14.736c-.393,8.507-.435,17.025-.5,25.542.019,2.675,0,5.35-.166,8.022.013.745-.748,1.125-1.167,1.639a50.487,50.487,0,0,1-6.766,6.005c-1.461.361-3.078-.118-4.516.518-3.381,1.435-7,2.94-9.214,6.04a16,16,0,0,1-5.216-1.985c-2.889-1.831-5.03-4.554-7.159-7.178-6.123-8.031-11.748-16.43-17.472-24.746-1.163-1.793-2.343-3.573-3.6-5.3,1.16-1.055,2.515-1.87,3.643-2.959,3.57-3.349,7.287-6.542,10.837-9.914.364-.265.892-1.055,1.33-.454,2.534,2.927,4.9,6,7.4,8.952,3.618,4.58,7.44,8.99,11.125,13.519.32.265.559.872,1.055.777,7.411-11.8,14.816-23.624,21.767-35.711a16.513,16.513,0,0,1,3.158-4.235c-.08.524-.863,1.384-.026,1.6.808-1.371,1.438-2.979,2.921-3.778,4-2.3,8.1-4.42,12.237-6.472a74.988,74.988,0,0,1-5.094,5.941,8.056,8.056,0,0,0-1.675,2.1c1.192,1.253,2.611,2.263,3.851,3.471-2.151,1.393-4.458,2.592-6.465,4.174-1.285,12-.93,24.119-.4,36.158.336,4.5.416,9.019.952,13.5a1.855,1.855,0,0,0,.425-1.7c-1.08-15.877-1.924-31.85-.463-47.734,2.234-1.544,4.733-2.707,6.89-4.346-1.08-1.461-2.822-2.272-3.921-3.733,2.832-3.289,5.743-6.507,8.7-9.684m-40.687,54.953A52.22,52.22,0,0,1,743.938,435a4.1,4.1,0,0,0,.192,1.16c.547.128.553-.473.521-.85a56.817,56.817,0,0,0-2.448-12.768c-.105.157-.316.463-.425.617m1.151-.4c.722,1.08,1.655,2,2.394,3.074a45.333,45.333,0,0,1,4.072,7.264c.169-.253.454-.5.24-.828a34.24,34.24,0,0,0-5.324-8.642A2.52,2.52,0,0,0,742.928,422.756Z" transform="translate(-599.522 -359.27)" fill="#3e5775"/>
        <path id="Path_1024462" data-name="Path 1024462" d="M376.64,383.688c.054-.863.917-.55,1.5-.582C377.969,383.832,377.18,383.6,376.64,383.688Z" transform="translate(-376.64 -370.297)" fill="#3e5775"/>
        <path id="Path_1024463" data-name="Path 1024463" d="M1100.756,587.5a8.39,8.39,0,0,1,.336,3.03,135.55,135.55,0,0,0,1.441,14.6c-3.18.022-6.357,0-9.533.022a12.953,12.953,0,0,0,3.646-4.864C1098.535,596.209,1099.555,591.811,1100.756,587.5Z" transform="translate(-864.06 -509.389)" fill="#3e5775"/>
      </g>
    </g>
  </g>
</svg>
