<svg xmlns="http://www.w3.org/2000/svg" xmlns:xlink="http://www.w3.org/1999/xlink" width="127.921" height="128" viewBox="0 0 127.921 128">
  <defs>
    <clipPath id="clip-path">
      <rect id="Rectangle_458743" data-name="Rectangle 458743" width="55.009" height="61.983" fill="none"/>
    </clipPath>
  </defs>
  <g id="img29" transform="translate(-705.978 -1710.001)">
    <g id="Group_1180300" data-name="Group 1180300" transform="translate(705.936 1710.002)">
      <g id="Grupo_155253" data-name="Grupo 155253" transform="matrix(0.999, 0.035, -0.035, 0.999, 4.319, 0)">
        <path id="Trazado_196478" data-name="Trazado 196478" d="M17.389,19.468q-.386.412-.764.831A64.6,64.6,0,0,0,.044,66.072L25.8,65.147C25.1,44.584,40.69,27.331,60.618,26.613S97.267,41.982,97.965,62.546l25.755-.925c-.869-25.6-16.481-48.187-39.655-57.372A60.525,60.525,0,0,0,17.389,19.475" transform="translate(0 0)" fill="#f9ce5d"/>
        <path id="Trazado_196479" data-name="Trazado 196479" d="M0,4.454C1.195,39.7,29.849,67.266,64,66.036S124.871,35.241,123.676,0L97.92.925c.7,20.563-14.891,37.815-34.819,38.533S26.453,24.089,25.755,3.526Z" transform="translate(0.042 57.68)" fill="#70f5c8"/>
      </g>
      <ellipse id="Ellipse_13685" data-name="Ellipse 13685" cx="49.806" cy="49.887" rx="49.806" ry="49.887" transform="translate(14.269 14.359)" fill="#fff"/>
    </g>
    <g id="Group_1183599" data-name="Group 1183599" transform="translate(742.432 1743.01)">
      <g id="Group_1183598" data-name="Group 1183598" transform="translate(0 0)" clip-path="url(#clip-path)">
        <path id="Path_1029521" data-name="Path 1029521" d="M60.767,76.619a2.487,2.487,0,0,0-2.1.172l-9.54,5.428a4.308,4.308,0,0,1-4.526,5.2l-8.7-.62a1.324,1.324,0,0,1,.2-2.64l8.687.622a1.672,1.672,0,0,0,.691-3.24l-9.16-3.28a7.068,7.068,0,0,0-5.469.312l-8.375,3.142V94.211L40.157,96.63a9.759,9.759,0,0,0,7.781-2.688L61.62,80.734a2.478,2.478,0,0,0-.853-4.115" transform="translate(-10.2 -34.7)" fill="#203a72"/>
        <path id="Path_1029522" data-name="Path 1029522" d="M7.949,80.52H1.528A1.528,1.528,0,0,0,0,82.048v14.5a1.528,1.528,0,0,0,1.528,1.528h6.42a1.528,1.528,0,0,0,1.528-1.528v-14.5A1.528,1.528,0,0,0,7.949,80.52" transform="translate(0 -36.541)" fill="#203a72"/>
        <path id="Path_1029523" data-name="Path 1029523" d="M54.525,19.758A13.379,13.379,0,1,0,67.911,33.144,13.386,13.386,0,0,0,54.525,19.758m5.532,15.1H54.476A1.675,1.675,0,0,1,52.8,33.185V25.117a1.674,1.674,0,0,1,3.348,0v6.4h3.908a1.674,1.674,0,0,1,0,3.347" transform="translate(-18.67 -8.967)" fill="#203a72"/>
        <path id="Path_1029524" data-name="Path 1029524" d="M49.733,43.321A19.159,19.159,0,0,0,66.459,14.827a1.42,1.42,0,1,0-2.479,1.387A16.316,16.316,0,1,1,49.733,7.855H62.96l-2.591,2.591a1.42,1.42,0,1,0,2.008,2.008l5.015-5.015a1.419,1.419,0,0,0,0-2.008L62.377.416a1.42,1.42,0,0,0-2.008,2.008L62.96,5.015H49.733a19.153,19.153,0,1,0,0,38.306" transform="translate(-13.878 0)" fill="#14a0de"/>
      </g>
    </g>
  </g>
</svg>
