<svg xmlns="http://www.w3.org/2000/svg" xmlns:xlink="http://www.w3.org/1999/xlink" width="97.936" height="98" viewBox="0 0 97.936 98">
  <defs>
    <clipPath id="clip-path">
      <rect id="Rectangle_458737" data-name="Rectangle 458737" width="49.274" height="43.473" transform="translate(0 0)" fill="none"/>
    </clipPath>
  </defs>
  <g id="img22" transform="translate(-705.968 -1710.002)">
    <g id="Group_1180300" data-name="Group 1180300" transform="translate(705.936 1710.002)">
      <g id="Grupo_155253" data-name="Grupo 155253" transform="matrix(0.999, 0.035, -0.035, 0.999, 3.307, 0)">
        <path id="Trazado_196478" data-name="Trazado 196478" d="M13.313,14.905q-.3.315-.585.636A49.458,49.458,0,0,0,.034,50.586l19.718-.708c-.535-15.744,11.4-28.953,26.657-29.5S74.466,32.143,75,47.887l19.718-.708c-.665-19.6-12.618-36.893-30.36-43.926A46.336,46.336,0,0,0,13.313,14.911" transform="translate(0 0)" fill="#f9ce5d"/>
        <path id="Trazado_196479" data-name="Trazado 196479" d="M0,3.41C.915,30.392,22.852,51.5,49,50.559S95.6,26.981,94.685,0L74.967.708c.534,15.744-11.4,28.952-26.657,29.5S20.252,18.443,19.718,2.7Z" transform="translate(0.032 44.162)" fill="#70f5c8"/>
      </g>
      <ellipse id="Ellipse_13685" data-name="Ellipse 13685" cx="38.13" cy="38.195" rx="38.13" ry="38.195" transform="translate(10.925 10.994)" fill="#fff"/>
    </g>
    <g id="Group_1183589" data-name="Group 1183589" transform="translate(730.297 1737.266)">
      <g id="Group_1183588" data-name="Group 1183588" transform="translate(0 0)" clip-path="url(#clip-path)">
        <path id="Path_1029490" data-name="Path 1029490" d="M65.611,63.013a2.473,2.473,0,0,0-3.359-1.785L52.175,65.322a4.3,4.3,0,0,1-.21,1.667,4.249,4.249,0,0,1-4.92,2.86L38.569,68.1a1.312,1.312,0,0,1,.524-2.572l8.476,1.745a1.657,1.657,0,0,0,1.089-3.1l-8.581-4.421a6.919,6.919,0,0,0-5.406-.407l-7.151,2.414V75.045l13.948,3.28a9.691,9.691,0,0,0,7.99-1.627L64.653,65.492a2.486,2.486,0,0,0,.958-2.479" transform="translate(-16.383 -35.114)" fill="#203a72"/>
        <path id="Path_1029491" data-name="Path 1029491" d="M1.286,59.627H7.222a1.286,1.286,0,0,1,1.286,1.286V76.744A1.286,1.286,0,0,1,7.222,78.03H1.286A1.286,1.286,0,0,1,0,76.744V60.913a1.286,1.286,0,0,1,1.286-1.286" transform="translate(0 -35.496)" fill="#203a72"/>
        <path id="Path_1029492" data-name="Path 1029492" d="M6.39,20.917H24.563a2.806,2.806,0,0,0,.829-.119,3.682,3.682,0,0,1,.435-2.232,4.048,4.048,0,0,1-2.864-3.852V12.068a3.57,3.57,0,0,1,.376-1.639L17.926,1.383A2.826,2.826,0,0,0,15.477,0a2.857,2.857,0,0,0-2.469,1.383L3.921,16.592A2.877,2.877,0,0,0,6.39,20.917M14.055,6.024a1.412,1.412,0,1,1,2.824,0v5.846a1.412,1.412,0,1,1-2.824,0Zm1.422,8.71a1.728,1.728,0,1,1-1.719,1.718,1.72,1.72,0,0,1,1.719-1.718" transform="translate(-2.095 0)" fill="#14a0de"/>
        <path id="Path_1029493" data-name="Path 1029493" d="M59.464,17.169l2.29.333.653,1.575-1.385,1.854a1.242,1.242,0,0,0,.119,1.623l1.879,1.881a1.246,1.246,0,0,0,1.623.117L66.5,23.167l1.575.652L68.4,26.11a1.242,1.242,0,0,0,1.23,1.064h2.659a1.242,1.242,0,0,0,1.229-1.064l.333-2.291c.695-.287.881-.363,1.574-.652l1.856,1.385a1.245,1.245,0,0,0,1.622-.117l1.881-1.881a1.243,1.243,0,0,0,.117-1.622L79.52,19.078l.652-1.575,2.291-.333a1.242,1.242,0,0,0,1.065-1.229V13.282a1.243,1.243,0,0,0-1.065-1.23l-2.291-.333c-.288-.695-.364-.881-.652-1.576l1.385-1.855a1.244,1.244,0,0,0-.117-1.622L78.908,4.787a1.242,1.242,0,0,0-1.622-.118L75.43,6.053,73.856,5.4l-.333-2.291a1.243,1.243,0,0,0-1.229-1.065H69.635A1.243,1.243,0,0,0,68.4,3.111L68.072,5.4,66.5,6.053,64.643,4.669a1.243,1.243,0,0,0-1.623.118L61.141,6.666a1.242,1.242,0,0,0-.119,1.622l1.389,1.86c-.287.691-.364.877-.651,1.569l-2.3.333a1.242,1.242,0,0,0-1.064,1.23v2.659a1.241,1.241,0,0,0,1.064,1.229M70.964,9.8a4.806,4.806,0,1,1-4.806,4.805A4.805,4.805,0,0,1,70.964,9.8" transform="translate(-34.765 -1.218)" fill="#203a72"/>
      </g>
    </g>
  </g>
</svg>
