<svg xmlns="http://www.w3.org/2000/svg" xmlns:xlink="http://www.w3.org/1999/xlink" width="97.936" height="98" viewBox="0 0 97.936 98">
  <defs>
    <clipPath id="clip-path">
      <rect id="Rectangle_458735" data-name="Rectangle 458735" width="55.528" height="44.787" transform="translate(0 0)" fill="none"/>
    </clipPath>
  </defs>
  <g id="img20" transform="translate(-705.968 -1710.002)">
    <g id="Group_1180300" data-name="Group 1180300" transform="translate(705.936 1710.002)">
      <g id="Grupo_155253" data-name="Grupo 155253" transform="matrix(0.999, 0.035, -0.035, 0.999, 3.307, 0)">
        <path id="Trazado_196478" data-name="Trazado 196478" d="M13.313,14.905q-.3.315-.585.636A49.458,49.458,0,0,0,.034,50.586l19.718-.708c-.535-15.744,11.4-28.953,26.657-29.5S74.466,32.143,75,47.887l19.718-.708c-.665-19.6-12.618-36.893-30.36-43.926A46.336,46.336,0,0,0,13.313,14.911" transform="translate(0 0)" fill="#ff9e74"/>
        <path id="Trazado_196479" data-name="Trazado 196479" d="M0,3.41C.915,30.392,22.852,51.5,49,50.559S95.6,26.981,94.685,0L74.967.708c.534,15.744-11.4,28.952-26.657,29.5S20.252,18.443,19.718,2.7Z" transform="translate(0.032 44.162)" fill="#70f5c8"/>
      </g>
      <ellipse id="Ellipse_13685" data-name="Ellipse 13685" cx="38.13" cy="38.195" rx="38.13" ry="38.195" transform="translate(10.925 10.994)" fill="#fff"/>
    </g>
    <g id="Group_1183585" data-name="Group 1183585" transform="translate(727.17 1736.609)">
      <g id="Group_1183584" data-name="Group 1183584" transform="translate(0 0)" clip-path="url(#clip-path)">
        <path id="Path_1029475" data-name="Path 1029475" d="M13.291,63.124a.49.49,0,0,0-.572.3l-2.436,6.985-.559-4.561H10.1a.414.414,0,0,0,.41-.41V64.18a.414.414,0,0,0-.41-.41H8.046a.4.4,0,0,0-.4.41v1.255a.4.4,0,0,0,.4.41h.373L7.86,70.407,5.424,63.422a.484.484,0,0,0-.572-.3A6.5,6.5,0,0,0,.329,68.555L.006,72.3a1.858,1.858,0,0,0,1.852,2.014l14.4.012a11.58,11.58,0,0,1-.336-2.809,11.74,11.74,0,0,1,1.205-5.2,6.53,6.53,0,0,0-3.84-3.194" transform="translate(0 -36.133)" fill="#203a72"/>
        <path id="Path_1029476" data-name="Path 1029476" d="M14.631,48.2a4.95,4.95,0,1,0-4.949-4.949A4.949,4.949,0,0,0,14.631,48.2" transform="translate(-5.543 -21.931)" fill="#203a72"/>
        <path id="Path_1029477" data-name="Path 1029477" d="M106.646,68.554a6.492,6.492,0,0,0-4.536-5.431.49.49,0,0,0-.572.3L99.1,70.406l-.56-4.561h.373a.414.414,0,0,0,.41-.41V64.18a.414.414,0,0,0-.41-.41H96.878a.414.414,0,0,0-.41.41v1.255a.414.414,0,0,0,.41.41h.372l-.559,4.561-2.448-6.984a.47.47,0,0,0-.56-.3A6.493,6.493,0,0,0,89.856,66.3a11.8,11.8,0,0,1,1.205,5.208,11.493,11.493,0,0,1-.336,2.8l14.379.012a1.867,1.867,0,0,0,1.864-2.013Z" transform="translate(-51.447 -36.133)" fill="#203a72"/>
        <path id="Path_1029478" data-name="Path 1029478" d="M102.068,48.2a4.95,4.95,0,1,0-4.949-4.949,4.949,4.949,0,0,0,4.949,4.949" transform="translate(-55.606 -21.931)" fill="#203a72"/>
        <path id="Path_1029479" data-name="Path 1029479" d="M52.368,60.779a9.4,9.4,0,1,0,9.4,9.4,9.4,9.4,0,0,0-9.4-9.4M56.946,68.7l-5.2,5.2a1.172,1.172,0,0,1-1.656,0L47.5,71.321a1.171,1.171,0,0,1,1.656-1.656l1.756,1.757,4.375-4.375A1.171,1.171,0,0,1,56.946,68.7" transform="translate(-24.6 -34.799)" fill="#14a0de"/>
        <path id="Path_1029480" data-name="Path 1029480" d="M49.113,18.9H51.6l2.131,3.8a.725.725,0,0,0,1.264,0l2.132-3.8h2.484a2.661,2.661,0,0,0,2.66-2.661V2.66A2.661,2.661,0,0,0,59.609,0h-10.5a2.661,2.661,0,0,0-2.66,2.66V16.244a2.661,2.661,0,0,0,2.66,2.661m5.671-8.2h-.713A3.094,3.094,0,0,1,50.95,8a3,3,0,0,1,2.488-3.258V3.564a.247.247,0,0,1,.246-.247h1.354a.247.247,0,0,1,.247.247V4.746a3.005,3.005,0,0,1,2.492,2.694.249.249,0,0,1-.25.262H56.165a.238.238,0,0,1-.239-.187,1.158,1.158,0,0,0-1.141-.97H54A1.2,1.2,0,0,0,52.8,7.5a1.157,1.157,0,0,0,1.14,1.352h.847a3.006,3.006,0,0,1,2.988,3.3,3.049,3.049,0,0,1-2.489,2.636V16a.246.246,0,0,1-.247.246H53.684A.246.246,0,0,1,53.438,16V14.815a3,3,0,0,1-2.492-2.694.247.247,0,0,1,.25-.261h1.362a.237.237,0,0,1,.239.187,1.159,1.159,0,0,0,1.141.969h.781a1.2,1.2,0,0,0,1.205-.961,1.156,1.156,0,0,0-1.14-1.35" transform="translate(-26.597 0)" fill="#203a72"/>
      </g>
    </g>
  </g>
</svg>
