<svg xmlns="http://www.w3.org/2000/svg" xmlns:xlink="http://www.w3.org/1999/xlink" width="97.936" height="98" viewBox="0 0 97.936 98">
  <defs>
    <clipPath id="clip-path">
      <rect id="Rectangle_458736" data-name="Rectangle 458736" width="41.378" height="50.165" fill="none"/>
    </clipPath>
  </defs>
  <g id="img21" transform="translate(-705.968 -1710.002)">
    <g id="Group_1180300" data-name="Group 1180300" transform="translate(705.936 1710.002)">
      <g id="Grupo_155253" data-name="Grupo 155253" transform="matrix(0.999, 0.035, -0.035, 0.999, 3.307, 0)">
        <path id="Trazado_196478" data-name="Trazado 196478" d="M13.313,14.905q-.3.315-.585.636A49.458,49.458,0,0,0,.034,50.586l19.718-.708c-.535-15.744,11.4-28.953,26.657-29.5S74.466,32.143,75,47.887l19.718-.708c-.665-19.6-12.618-36.893-30.36-43.926A46.336,46.336,0,0,0,13.313,14.911" transform="translate(0 0)" fill="#f9ce5d"/>
        <path id="Trazado_196479" data-name="Trazado 196479" d="M0,3.41C.915,30.392,22.852,51.5,49,50.559S95.6,26.981,94.685,0L74.967.708c.534,15.744-11.4,28.952-26.657,29.5S20.252,18.443,19.718,2.7Z" transform="translate(0.032 44.162)" fill="#ff9e74"/>
      </g>
      <ellipse id="Ellipse_13685" data-name="Ellipse 13685" cx="38.13" cy="38.195" rx="38.13" ry="38.195" transform="translate(10.925 10.994)" fill="#fff"/>
    </g>
    <g id="Group_1183587" data-name="Group 1183587" transform="translate(734.245 1733.92)">
      <g id="Group_1183586" data-name="Group 1183586" transform="translate(0 0)" clip-path="url(#clip-path)">
        <path id="Path_1029481" data-name="Path 1029481" d="M76.1,42.788a16.79,16.79,0,0,0-1.511-16.665L73.182,27.53a14.826,14.826,0,0,1,1.068,14.6,6.018,6.018,0,0,1,1.85.658" transform="translate(-40.668 -14.517)" fill="#14a0de"/>
        <path id="Path_1029482" data-name="Path 1029482" d="M51.357,49.724a6.3,6.3,0,0,1,1.862,1.387,11.292,11.292,0,0,0,6.753-10.335,11.168,11.168,0,0,0-1.517-5.639l-1.439,1.439a9.213,9.213,0,0,1,1,4.2,9.355,9.355,0,0,1-6.662,8.948" transform="translate(-28.54 -19.526)" fill="#14a0de"/>
        <path id="Path_1029483" data-name="Path 1029483" d="M45.463,3.791a.971.971,0,0,0-.7-.69L42.9,2.605,42.4.73a.982.982,0,0,0-.69-.7.97.97,0,0,0-.944.254l-3.6,3.6a.966.966,0,0,0-.254.938l.494,1.882L35.441,8.675A16.828,16.828,0,0,0,8.93,28.218a5.913,5.913,0,0,1,1.856-.625A14.877,14.877,0,0,1,34.054,10.062l-2.54,2.547A11.288,11.288,0,1,0,19.629,31.546a6.235,6.235,0,0,1,1.862-1.367,9.344,9.344,0,1,1,8.635-16.19l-2.56,2.566a5.666,5.666,0,0,0-3.314-1.061,5.762,5.762,0,1,0,5.574,4.324l-1.791,1.791a3.81,3.81,0,1,1-1.882-3.647l-2.592,2.6a.977.977,0,0,0,.69,1.667.981.981,0,0,0,.69-.287L38.788,8.089l1.882.5a1.121,1.121,0,0,0,.247.032.975.975,0,0,0,.69-.287l3.6-3.6a.974.974,0,0,0,.254-.944" transform="translate(-4.119 0)" fill="#14a0de"/>
        <path id="Path_1029484" data-name="Path 1029484" d="M13.771,89.051A5.463,5.463,0,0,0,11.5,87.508l-.052-.013a6.31,6.31,0,0,1-7.47,0l-.052.013A5.453,5.453,0,0,0,.369,91.989L0,95.551a1.069,1.069,0,0,0,1.055,1.172h9.69l.293-2.865a7.068,7.068,0,0,1,2.729-4.806" transform="translate(0 -48.622)" fill="#203a72"/>
        <path id="Path_1029485" data-name="Path 1029485" d="M11.612,74.925a4.6,4.6,0,1,0-4.6-4.605,4.606,4.606,0,0,0,4.6,4.605" transform="translate(-3.895 -36.519)" fill="#203a72"/>
        <path id="Path_1029486" data-name="Path 1029486" d="M69.217,87.508l-.052-.013a6.3,6.3,0,0,1-7.463,0l-.052.013a5.352,5.352,0,0,0-2.259,1.55A7.117,7.117,0,0,1,62.125,93.9l.28,2.82h9.684a1.059,1.059,0,0,0,1.055-1.166L72.792,92a5.445,5.445,0,0,0-3.575-4.494" transform="translate(-33.004 -48.622)" fill="#203a72"/>
        <path id="Path_1029487" data-name="Path 1029487" d="M62.625,70.319a4.6,4.6,0,1,0,4.6-4.6,4.6,4.6,0,0,0-4.6,4.6" transform="translate(-34.802 -36.519)" fill="#203a72"/>
        <path id="Path_1029488" data-name="Path 1029488" d="M39.311,92.161l-.052-.013a6.286,6.286,0,0,1-7.463-.007l-.059.02a5.452,5.452,0,0,0-3.562,4.48l-.365,3.562a1.063,1.063,0,0,0,1.055,1.166H42.183a1.056,1.056,0,0,0,1.055-1.166l-.351-3.549a5.446,5.446,0,0,0-3.576-4.494" transform="translate(-15.452 -51.204)" fill="#203a72"/>
        <path id="Path_1029489" data-name="Path 1029489" d="M34.82,74.979a4.6,4.6,0,1,0,4.6-4.6,4.6,4.6,0,0,0-4.6,4.6" transform="translate(-19.35 -39.108)" fill="#203a72"/>
      </g>
    </g>
  </g>
</svg>
