<svg xmlns="http://www.w3.org/2000/svg" xmlns:xlink="http://www.w3.org/1999/xlink" width="84" height="84" viewBox="0 0 84 84">
  <defs>
    <clipPath id="clip-path">
      <rect id="Rectangle_458741" data-name="Rectangle 458741" width="56.314" height="53.328" fill="none"/>
    </clipPath>
  </defs>
  <g id="img28" transform="translate(-319.686 -4761)">
    <rect id="Rectangle_456605" data-name="Rectangle 456605" width="84" height="84" transform="translate(319.686 4761)" fill="#ff9e74"/>
    <g id="Group_1183594" data-name="Group 1183594" transform="translate(333.528 4776.336)">
      <rect id="Rectangle_458739" data-name="Rectangle 458739" width="3.96" height="8.32" transform="translate(11.337 43.61)" fill="#203a72"/>
      <rect id="Rectangle_458740" data-name="Rectangle 458740" width="3.96" height="8.32" transform="translate(17.697 43.61)" fill="#203a72"/>
      <g id="Group_1183593" data-name="Group 1183593">
        <g id="Group_1183592" data-name="Group 1183592" clip-path="url(#clip-path)">
          <path id="Path_1029515" data-name="Path 1029515" d="M32.989,1.2A1.2,1.2,0,0,0,31.513.032L.924,7.23A1.2,1.2,0,0,0,0,8.393v42.5a1.031,1.031,0,0,0,1.032,1.031h7.9V42.412a1.2,1.2,0,0,1,1.2-1.2H22.852a1.2,1.2,0,0,1,1.2,1.2v9.513H32.4c-2.555-2.423-3.947-5.938-3.947-10.316,0-4.174,1.956-8.421,4.535-11.839ZM24.927,36.919H8.073a1.2,1.2,0,0,1,0-2.4H24.927a1.2,1.2,0,0,1,0,2.4m0-7.065H8.073a1.2,1.2,0,0,1,0-2.4H24.927a1.2,1.2,0,0,1,0,2.4m0-7.066H8.073a1.2,1.2,0,0,1,0-2.4H24.927a1.2,1.2,0,0,1,0,2.4m0-7.066H8.073a1.2,1.2,0,1,1,0-2.4H24.927a1.2,1.2,0,0,1,0,2.4" transform="translate(0 0)" fill="#203a72"/>
          <path id="Path_1029516" data-name="Path 1029516" d="M79.459,45.663c1.215-2.515,2.557-5.557,2.557-6.732,0-1.486-1.862-2.264-3-.684-1.475,2.061-2.109-.934-3.817-.93-1.682,0-2.565,2.774-3.88.917a1.725,1.725,0,0,0-3.227.65c0,1.606,1.282,4.5,2.478,6.858C66.449,48.975,62.339,55,62.339,60.467c0,7.949,5.185,11.713,12.733,11.713s12.734-3.764,12.734-11.713c0-5.518-4.2-11.6-8.347-14.8m-5,11.631h1.235a4.382,4.382,0,0,1,4.357,4.813,4.447,4.447,0,0,1-3.629,3.844v1.755a.359.359,0,0,1-.359.359H74.086a.359.359,0,0,1-.359-.359V65.979a4.378,4.378,0,0,1-3.633-3.926.36.36,0,0,1,.364-.381h1.986a.345.345,0,0,1,.348.272,1.69,1.69,0,0,0,1.664,1.414H75.6a1.753,1.753,0,0,0,1.758-1.4,1.686,1.686,0,0,0-1.662-1.967H74.652A4.513,4.513,0,0,1,70.1,56.049a4.38,4.38,0,0,1,3.628-4.75V49.577a.359.359,0,0,1,.359-.361H76.06a.36.36,0,0,1,.359.361V51.3a4.38,4.38,0,0,1,3.633,3.927.361.361,0,0,1-.364.382H77.7a.347.347,0,0,1-.349-.273,1.689,1.689,0,0,0-1.664-1.414H74.552a1.754,1.754,0,0,0-1.758,1.4,1.688,1.688,0,0,0,1.662,1.971" transform="translate(-31.492 -18.852)" fill="#14a0de"/>
        </g>
      </g>
    </g>
  </g>
</svg>
