<svg xmlns="http://www.w3.org/2000/svg" xmlns:xlink="http://www.w3.org/1999/xlink" width="127.921" height="128" viewBox="0 0 127.921 128">
  <defs>
    <clipPath id="clip-path">
      <rect id="Rectangle_458746" data-name="Rectangle 458746" width="65.985" height="67.503" fill="none"/>
    </clipPath>
  </defs>
  <g id="img32" transform="translate(-705.978 -1710.001)">
    <g id="Group_1180300" data-name="Group 1180300" transform="translate(705.936 1710.002)">
      <g id="Grupo_155253" data-name="Grupo 155253" transform="matrix(0.999, 0.035, -0.035, 0.999, 4.319, 0)">
        <path id="Trazado_196478" data-name="Trazado 196478" d="M17.389,19.468q-.386.412-.764.831A64.6,64.6,0,0,0,.044,66.072L25.8,65.147C25.1,44.584,40.69,27.331,60.618,26.613S97.267,41.982,97.965,62.546l25.755-.925c-.869-25.6-16.481-48.187-39.655-57.372A60.525,60.525,0,0,0,17.389,19.475" transform="translate(0 0)" fill="#f9ce5d"/>
        <path id="Trazado_196479" data-name="Trazado 196479" d="M0,4.454C1.195,39.7,29.849,67.266,64,66.036S124.871,35.241,123.676,0L97.92.925c.7,20.563-14.891,37.815-34.819,38.533S26.453,24.089,25.755,3.526Z" transform="translate(0.042 57.68)" fill="#70f5c8"/>
      </g>
      <ellipse id="Ellipse_13685" data-name="Ellipse 13685" cx="49.806" cy="49.887" rx="49.806" ry="49.887" transform="translate(14.269 14.359)" fill="#fff"/>
    </g>
    <g id="Group_1183603" data-name="Group 1183603" transform="translate(736.943 1740.25)">
      <g id="Group_1183602" data-name="Group 1183602" transform="translate(0 0)" clip-path="url(#clip-path)">
        <path id="Path_1029531" data-name="Path 1029531" d="M17.355,27.243a6.361,6.361,0,1,0-6.361-6.361,6.362,6.362,0,0,0,6.361,6.361" transform="translate(-4.09 -5.403)" fill="#203a72"/>
        <path id="Path_1029532" data-name="Path 1029532" d="M20.619,68.911h-9.81a4.426,4.426,0,0,1-4.394-3.762L3.865,48.794a1.944,1.944,0,1,0-3.842.6L2.573,65.749a8.3,8.3,0,0,0,8.236,7.05h1.469v8.357H10.262a1.944,1.944,0,1,0,0,3.888h7.92a1.944,1.944,0,0,0,0-3.888H16.166V72.8h4.453a1.944,1.944,0,0,0,0-3.888" transform="translate(0 -17.542)" fill="#203a72"/>
        <path id="Path_1029533" data-name="Path 1029533" d="M34.715,59.366a2.908,2.908,0,0,0-2.9-2.6l-7.469.009L23.6,46.48a13.385,13.385,0,0,0,6.917,1.949h5.314a2.43,2.43,0,0,0,0-4.86H30.518a8.555,8.555,0,0,1-4.735-1.424l-4.867-3.2a6.371,6.371,0,0,0-8.5,1.029,5.875,5.875,0,0,0-1.363,4.7l2.408,15.475a2.917,2.917,0,0,0,2.881,2.468h0L29.2,62.6l1.738,15.978a2.915,2.915,0,0,0,2.895,2.6c.1,0,.212-.006.319-.017a2.916,2.916,0,0,0,2.583-3.214Z" transform="translate(-4.09 -14.042)" fill="#203a72"/>
        <path id="Path_1029534" data-name="Path 1029534" d="M78.419,58.481H40.589a1.944,1.944,0,1,0,0,3.888H76.476V89.26h3.888V60.426a1.944,1.944,0,0,0-1.944-1.945" transform="translate(-14.378 -21.758)" fill="#203a72"/>
        <path id="Path_1029535" data-name="Path 1029535" d="M70.3,97.7H68.688a2.294,2.294,0,0,1-2.3-2.218,51.193,51.193,0,0,1-6.086-.611v5.66a1.9,1.9,0,0,0,1.891,1.906H76.766a1.907,1.907,0,0,0,1.906-1.906v-5.66a50.44,50.44,0,0,1-6.072.6A2.3,2.3,0,0,1,70.3,97.7" transform="translate(-22.434 -35.296)" fill="#14a0de"/>
        <path id="Path_1029536" data-name="Path 1029536" d="M77.336,80.838H73.128V79.445a2.718,2.718,0,0,0-2.716-2.717H66.928a2.726,2.726,0,0,0-2.716,2.717v1.393h-4.2a1.882,1.882,0,0,0-1.891,1.892v2.943a.564.564,0,0,0,.441.554,48,48,0,0,0,7,.782,2.315,2.315,0,0,1,2.317-2.3h1.608a2.316,2.316,0,0,1,2.318,2.3,45.911,45.911,0,0,0,6.982-.8.538.538,0,0,0,.441-.541V82.73a1.891,1.891,0,0,0-1.891-1.892m-6.519-.178H66.536V79.445a.391.391,0,0,1,.391-.39h3.484a.393.393,0,0,1,.405.39Z" transform="translate(-21.626 -28.547)" fill="#14a0de"/>
        <path id="Rectangle_458745" data-name="Rectangle 458745" d="M.977,0h.872a.977.977,0,0,1,.977.977v.874a.977.977,0,0,1-.977.977H.979A.979.979,0,0,1,0,1.849V.977A.977.977,0,0,1,.977,0Z" transform="translate(45.638 57.87)" fill="#14a0de"/>
        <path id="Path_1029537" data-name="Path 1029537" d="M95.951,49.355H82.567a.548.548,0,0,0-.549.548v2.483a.549.549,0,0,0,.549.549H95.951a.55.55,0,0,0,.549-.549V49.9a.549.549,0,0,0-.549-.548" transform="translate(-30.515 -18.363)" fill="#203a72"/>
        <path id="Path_1029538" data-name="Path 1029538" d="M95.951,41.045H82.567a.548.548,0,0,0-.549.548v2.484a.548.548,0,0,0,.549.548H95.951a.549.549,0,0,0,.549-.548V41.593a.549.549,0,0,0-.549-.548" transform="translate(-30.515 -15.271)" fill="#203a72"/>
        <path id="Path_1029539" data-name="Path 1029539" d="M95.951,32.734H82.567a.549.549,0,0,0-.549.549v2.482a.549.549,0,0,0,.549.549H95.951a.55.55,0,0,0,.549-.549V33.283a.55.55,0,0,0-.549-.549" transform="translate(-30.515 -12.179)" fill="#203a72"/>
        <path id="Path_1029540" data-name="Path 1029540" d="M54.077,18.237a9.119,9.119,0,1,0-9.118-9.118,9.129,9.129,0,0,0,9.118,9.118M52.7,4.276a1.38,1.38,0,0,1,2.76,0V7.739h2.112a1.38,1.38,0,1,1,0,2.76H54.077a1.38,1.38,0,0,1-1.38-1.38Z" transform="translate(-16.727 0)" fill="#14a0de"/>
      </g>
    </g>
  </g>
</svg>
