<svg xmlns="http://www.w3.org/2000/svg" xmlns:xlink="http://www.w3.org/1999/xlink" width="149.908" height="150" viewBox="0 0 149.908 150">
  <defs>
    <clipPath id="clip-path">
      <rect id="Rectangle_458750" data-name="Rectangle 458750" width="65.959" height="68.682" fill="none"/>
    </clipPath>
  </defs>
  <g id="img36" transform="translate(-705.985 -1710.001)">
    <g id="Group_1180300" data-name="Group 1180300" transform="translate(705.936 1710.002)">
      <g id="Grupo_155253" data-name="Grupo 155253" transform="matrix(0.999, 0.035, -0.035, 0.999, 5.061, 0)">
        <path id="Trazado_196478" data-name="Trazado 196478" d="M20.378,22.814q-.452.483-.9.974A75.7,75.7,0,0,0,.051,77.428l30.182-1.084c-.818-24.1,17.45-44.315,40.8-45.157S113.984,49.2,114.8,73.3l30.181-1.084c-1.018-30-19.313-56.469-46.471-67.233A70.928,70.928,0,0,0,20.378,22.822" transform="translate(0 0)" fill="#f9ce5d"/>
        <path id="Trazado_196479" data-name="Trazado 196479" d="M0,5.22c1.4,41.3,34.98,73.608,75,72.166S146.333,41.3,144.933,0L114.75,1.084c.818,24.1-17.451,44.314-40.8,45.156S31,28.229,30.182,4.132Z" transform="translate(0.049 67.594)" fill="#70f5c8"/>
      </g>
      <ellipse id="Ellipse_13685" data-name="Ellipse 13685" cx="58.366" cy="58.462" rx="58.366" ry="58.462" transform="translate(16.722 16.827)" fill="#fff"/>
    </g>
    <g id="Group_1183610" data-name="Group 1183610" transform="translate(747.957 1750.66)">
      <g id="Group_1183609" data-name="Group 1183609" clip-path="url(#clip-path)">
        <path id="Path_1029552" data-name="Path 1029552" d="M87.047,43.609l-3.834-21.8a2.927,2.927,0,0,0-4.58-1.882,2.963,2.963,0,0,0-1.225,2.165l-.958,12.765a4.975,4.975,0,0,1,2.095,7.7l-6.266,8.005A1.511,1.511,0,0,1,69.9,48.7L76.165,40.7a1.981,1.981,0,0,0-.178-2.61,1.947,1.947,0,0,0-1.384-.568,2.033,2.033,0,0,0-1.172.373L64.307,44.6a8.261,8.261,0,0,0-3.266,5.485l-1.6,12.533H76.5l8.077-9.728a11.4,11.4,0,0,0,2.467-9.284" transform="translate(-21.262 -6.934)" fill="#203a72"/>
        <path id="Path_1029553" data-name="Path 1029553" d="M75.371,91.387H57.258a1.74,1.74,0,0,0-1.74,1.739v6.5a1.74,1.74,0,0,0,1.74,1.741H75.371a1.74,1.74,0,0,0,1.74-1.741v-6.5a1.74,1.74,0,0,0-1.74-1.739" transform="translate(-19.858 -32.688)" fill="#203a72"/>
        <path id="Path_1029554" data-name="Path 1029554" d="M27.779,62.619l-1.6-12.533A8.261,8.261,0,0,0,22.915,44.6l-9.124-6.693a1.947,1.947,0,0,0-2.556.178,1.98,1.98,0,0,0-.177,2.61L17.323,48.7a1.511,1.511,0,0,1-2.379,1.863L8.678,42.56a4.976,4.976,0,0,1,2.095-7.7L9.814,22.092a2.959,2.959,0,0,0-1.225-2.165,2.866,2.866,0,0,0-2.45-.444,2.924,2.924,0,0,0-2.13,2.326L.175,43.607a11.4,11.4,0,0,0,2.468,9.284l8.077,9.728Z" transform="translate(0 -6.932)" fill="#203a72"/>
        <path id="Path_1029555" data-name="Path 1029555" d="M33.408,91.387H15.3a1.74,1.74,0,0,0-1.74,1.739v6.5a1.74,1.74,0,0,0,1.74,1.741H33.408a1.74,1.74,0,0,0,1.739-1.741v-6.5a1.739,1.739,0,0,0-1.739-1.739" transform="translate(-4.848 -32.688)" fill="#203a72"/>
        <path id="Path_1029556" data-name="Path 1029556" d="M42.014,0A16.756,16.756,0,1,0,58.77,16.755,16.755,16.755,0,0,0,42.014,0m-.778,15.057h1.558a5.528,5.528,0,0,1,5.5,6.073,5.608,5.608,0,0,1-4.577,4.848v2.214a.452.452,0,0,1-.453.452h-2.49a.452.452,0,0,1-.453-.452V26.014a5.526,5.526,0,0,1-4.582-4.954.455.455,0,0,1,.459-.481h2.5a.435.435,0,0,1,.44.344,2.132,2.132,0,0,0,2.1,1.782h1.436a2.211,2.211,0,0,0,2.218-1.767,2.126,2.126,0,0,0-2.1-2.483H41.483a5.691,5.691,0,0,1-5.742-4.97A5.523,5.523,0,0,1,40.316,7.5V5.323a.454.454,0,0,1,.453-.455h2.49a.454.454,0,0,1,.453.455V7.5A5.528,5.528,0,0,1,48.3,12.451a.457.457,0,0,1-.459.482h-2.5a.437.437,0,0,1-.439-.344,2.131,2.131,0,0,0-2.1-1.784H41.357a2.212,2.212,0,0,0-2.218,1.766,2.128,2.128,0,0,0,2.1,2.486" transform="translate(-9.035)" fill="#14a0de"/>
      </g>
    </g>
  </g>
</svg>
