<svg xmlns="http://www.w3.org/2000/svg" xmlns:xlink="http://www.w3.org/1999/xlink" width="127.921" height="128" viewBox="0 0 127.921 128">
  <defs>
    <clipPath id="clip-path">
      <rect id="Rectangle_458748" data-name="Rectangle 458748" width="62.89" height="54.959" fill="none"/>
    </clipPath>
  </defs>
  <g id="img33" transform="translate(-705.978 -1710.001)">
    <g id="Group_1180300" data-name="Group 1180300" transform="translate(705.936 1710.002)">
      <g id="Grupo_155253" data-name="Grupo 155253" transform="matrix(0.999, 0.035, -0.035, 0.999, 4.319, 0)">
        <path id="Trazado_196478" data-name="Trazado 196478" d="M17.389,19.468q-.386.412-.764.831A64.6,64.6,0,0,0,.044,66.072L25.8,65.147C25.1,44.584,40.69,27.331,60.618,26.613S97.267,41.982,97.965,62.546l25.755-.925c-.869-25.6-16.481-48.187-39.655-57.372A60.525,60.525,0,0,0,17.389,19.475" transform="translate(0 0)" fill="#f9ce5d"/>
        <path id="Trazado_196479" data-name="Trazado 196479" d="M0,4.454C1.195,39.7,29.849,67.266,64,66.036S124.871,35.241,123.676,0L97.92.925c.7,20.563-14.891,37.815-34.819,38.533S26.453,24.089,25.755,3.526Z" transform="translate(0.042 57.68)" fill="#70f5c8"/>
      </g>
      <ellipse id="Ellipse_13685" data-name="Ellipse 13685" cx="49.806" cy="49.887" rx="49.806" ry="49.887" transform="translate(14.269 14.359)" fill="#fff"/>
    </g>
    <g id="Group_1183606" data-name="Group 1183606" transform="translate(738.491 1746.522)">
      <path id="Path_1029541" data-name="Path 1029541" d="M46.2.882,34.964,12.009H46.2Z" transform="translate(-17.721 -0.447)" fill="#203a72"/>
      <g id="Group_1183605" data-name="Group 1183605">
        <g id="Group_1183604" data-name="Group 1183604" clip-path="url(#clip-path)">
          <path id="Path_1029542" data-name="Path 1029542" d="M62.767,32.715l-4.522,1.8a3.38,3.38,0,0,1-4.521-3.973l1.234-4.819a3.354,3.354,0,0,1,.784-1.45L68.676,10.169V1.126a1.163,1.163,0,0,0-.324-.8A1.147,1.147,0,0,0,67.55,0H48V12.683a1.126,1.126,0,0,1-1.126,1.126h-12.8v8.953a3.247,3.247,0,0,1,2.856,2.882l.225,2.108c.09.036.189.081.288.117l1.63-1.324a3.258,3.258,0,0,1,4.36.225L45.455,28.8a3.248,3.248,0,0,1,.234,4.351L44.356,34.8c.036.09.072.189.117.279l2.117.225a3.26,3.26,0,0,1,2.91,3.243V41.38a3.279,3.279,0,0,1-.676,1.991H67.55a1.126,1.126,0,0,0,1.126-1.126V26.77L64.01,31.86a3.41,3.41,0,0,1-1.243.856" transform="translate(-17.271 0)" fill="#203a72"/>
          <path id="Path_1029543" data-name="Path 1029543" d="M119.556,16.137l-3.289-3.014a1.125,1.125,0,0,0-1.591.069l-2.148,2.344,4.949,4.536,2.148-2.344a1.126,1.126,0,0,0-.069-1.591" transform="translate(-57.031 -6.5)" fill="#203a72"/>
          <rect id="Rectangle_458747" data-name="Rectangle 458747" width="17.238" height="6.714" transform="matrix(0.676, -0.737, 0.737, 0.676, 42.328, 23.402)" fill="#203a72"/>
          <path id="Path_1029544" data-name="Path 1029544" d="M78.3,56.858A1.126,1.126,0,0,0,79.8,58.183l4.522-1.8a1.129,1.129,0,0,0,.412-.285l.68-.742-4.949-4.537-.68.742a1.12,1.12,0,0,0-.26.482Z" transform="translate(-39.664 -25.754)" fill="#203a72"/>
          <path id="Path_1029545" data-name="Path 1029545" d="M29.073,63.214l-3.553-.378a11.116,11.116,0,0,0-1.095-2.666l2.239-2.762a1.007,1.007,0,0,0-.071-1.347l-2.02-2.019a1.007,1.007,0,0,0-1.347-.072l-2.763,2.24A11.021,11.021,0,0,0,17.8,55.1l-.378-3.535a1.008,1.008,0,0,0-1-.9H13.556a1.007,1.007,0,0,0-1,.9L12.176,55.1A11.037,11.037,0,0,0,9.511,56.21L6.747,53.97a1.007,1.007,0,0,0-1.347.072L3.38,56.061a1.008,1.008,0,0,0-.07,1.347l2.24,2.762a11.077,11.077,0,0,0-1.1,2.666L.9,63.214a1.01,1.01,0,0,0-.9,1V67.06a1.007,1.007,0,0,0,.9,1l3.553.379a11.077,11.077,0,0,0,1.1,2.666L3.308,73.886a1.009,1.009,0,0,0,.074,1.348L5.4,77.242a1.009,1.009,0,0,0,1.343.07l2.766-2.228a11.631,11.631,0,0,0,2.665,1.1l.379,3.552a1.007,1.007,0,0,0,1,.9h2.861a1.008,1.008,0,0,0,1-.9L17.8,76.18a11.613,11.613,0,0,0,2.665-1.1l2.765,2.228a1.01,1.01,0,0,0,1.343-.07l2.02-2.008a1.008,1.008,0,0,0,.074-1.348l-2.241-2.779a11.116,11.116,0,0,0,1.095-2.666l3.553-.379a1.007,1.007,0,0,0,.9-1V64.218a1.01,1.01,0,0,0-.9-1M14.987,70.851a5.212,5.212,0,1,1,5.22-5.2,5.2,5.2,0,0,1-5.22,5.2" transform="translate(0 -25.675)" fill="#14a0de"/>
        </g>
      </g>
    </g>
  </g>
</svg>
