<svg xmlns="http://www.w3.org/2000/svg" xmlns:xlink="http://www.w3.org/1999/xlink" width="90" height="90" viewBox="0 0 90 90">
  <defs>
    <clipPath id="clip-path">
      <rect id="Rectangle_458753" data-name="Rectangle 458753" width="66.451" height="42.554" fill="none"/>
    </clipPath>
  </defs>
  <g id="img40" transform="translate(-338.711 -12699)">
    <circle id="Ellipse_13756" data-name="Ellipse 13756" cx="45" cy="45" r="45" transform="translate(338.711 12699)" fill="#fff"/>
    <g id="Group_1183619" data-name="Group 1183619" transform="translate(350.485 12722.723)">
      <g id="Group_1183618" data-name="Group 1183618" clip-path="url(#clip-path)">
        <path id="Path_1029563" data-name="Path 1029563" d="M17.211,56.607A3.405,3.405,0,1,0,13.806,53.2a3.405,3.405,0,0,0,3.405,3.405" transform="translate(-8.56 -30.875)" fill="#203a72"/>
        <path id="Path_1029564" data-name="Path 1029564" d="M15.234,69.737a3.049,3.049,0,0,1-.559-2.75l-2.75.858a6.8,6.8,0,0,1-2.032.307H7.051a3.7,3.7,0,0,0-2.5.969l-4.092,3.7A1.394,1.394,0,0,0,1.4,75.254a1.374,1.374,0,0,0,.932-.354l2.349-2.134L3.341,76.848a1.013,1.013,0,0,0,.96,1.323h.839L4.647,82.5a1.4,1.4,0,1,0,2.778.317l.512-4.474a.191.191,0,0,1,.187-.168H9.176a.19.19,0,0,1,.186.168l.513,4.474a1.4,1.4,0,0,0,1.388,1.24.835.835,0,0,0,.158-.009A1.389,1.389,0,0,0,12.653,82.5l-.494-4.325H13a1.008,1.008,0,0,0,.96-1.323l-2.013-6.123c.27-.065.541-.13.811-.214Z" transform="translate(0 -41.533)" fill="#203a72"/>
        <path id="Path_1029565" data-name="Path 1029565" d="M149.554,72.822l-4.092-3.709a3.775,3.775,0,0,0-2.507-.96h-2.843a6.846,6.846,0,0,1-2.032-.307l-2.74-.858a3.073,3.073,0,0,1-.568,2.75l2.479.774c.1.037.205.056.308.084v12.06a1.4,1.4,0,1,0,2.8,0V77.072a.374.374,0,0,1,.373-.373H142a.374.374,0,0,1,.373.373v5.583a1.4,1.4,0,1,0,2.8,0V72.626l2.507,2.274a1.4,1.4,0,0,0,.941.354,1.382,1.382,0,0,0,1.035-.457,1.4,1.4,0,0,0-.093-1.976" transform="translate(-83.56 -41.533)" fill="#203a72"/>
        <path id="Path_1029566" data-name="Path 1029566" d="M146.552,56.607a3.405,3.405,0,1,0-3.405-3.405,3.405,3.405,0,0,0,3.405,3.405" transform="translate(-88.753 -30.875)" fill="#203a72"/>
        <path id="Path_1029567" data-name="Path 1029567" d="M71.843,46.818a4.094,4.094,0,0,0-3.384-1.788H65.647a4.093,4.093,0,0,0-3.384,1.788l-3.007,4.409-3.007-4.409a4.1,4.1,0,0,0-3.384-1.788H50.052a4.092,4.092,0,0,0-3.383,1.788L42.275,53.26a1.678,1.678,0,1,0,2.772,1.89l2.244-3.29V68.705a1.74,1.74,0,0,0,1.4,1.744A1.679,1.679,0,0,0,50.646,68.8V58.751a.373.373,0,0,1,.373-.373H51.9a.373.373,0,0,1,.373.373v9.954a1.74,1.74,0,0,0,1.4,1.744,1.679,1.679,0,0,0,1.96-1.654V51.861l2.244,3.29a1.678,1.678,0,0,0,2.772,0l2.71-3.974-2.525,7.68a1.184,1.184,0,0,0,1.125,1.553h1l-.405,8.3A1.677,1.677,0,0,0,64.14,70.47l.083,0a1.678,1.678,0,0,0,1.675-1.6l.4-8.289a.187.187,0,0,1,.186-.177h1.129a.187.187,0,0,1,.186.177l.4,8.2a1.741,1.741,0,0,0,1.48,1.675,1.678,1.678,0,0,0,1.876-1.748l-.405-8.3h1a1.183,1.183,0,0,0,1.124-1.553l-2.524-7.68,2.71,3.974a1.678,1.678,0,1,0,2.772-1.89Z" transform="translate(-26.03 -27.919)" fill="#203a72"/>
        <path id="Path_1029568" data-name="Path 1029568" d="M60.833,30.37a3.73,3.73,0,1,0-3.73-3.73,3.73,3.73,0,0,0,3.73,3.73" transform="translate(-35.405 -14.205)" fill="#203a72"/>
        <path id="Path_1029569" data-name="Path 1029569" d="M101.871,30.37a3.73,3.73,0,1,0-3.73-3.73,3.73,3.73,0,0,0,3.73,3.73" transform="translate(-60.849 -14.205)" fill="#203a72"/>
        <path id="Path_1029570" data-name="Path 1029570" d="M25.157,15.663a1.035,1.035,0,0,1-.9-1.533,27.324,27.324,0,0,1,47.856,0,1.033,1.033,0,0,1-1.809,1,25.257,25.257,0,0,0-44.239,0,1.033,1.033,0,0,1-.905.535" transform="translate(-14.958 0.001)" fill="#14a0de"/>
      </g>
    </g>
  </g>
</svg>
