<svg xmlns="http://www.w3.org/2000/svg" xmlns:xlink="http://www.w3.org/1999/xlink" width="83.947" height="83.994" viewBox="0 0 83.947 83.994">
  <defs>
    <clipPath id="clip-path">
      <rect id="Rectangle_458733" data-name="Rectangle 458733" width="48.083" height="42.209" fill="none"/>
    </clipPath>
  </defs>
  <g id="img9" transform="translate(-706.028 -1710)">
    <g id="Group_1180300" data-name="Group 1180300" transform="translate(706 1710)">
      <g id="Grupo_155253" data-name="Grupo 155253" transform="matrix(0.999, 0.035, -0.035, 0.999, 2.834, 0)">
        <path id="Trazado_196478" data-name="Trazado 196478" d="M11.413,12.382q-.253.262-.5.529A40.338,40.338,0,0,0,.029,42.021l16.9-.589a23.694,23.694,0,0,1,47.359-1.656l16.9-.589a40.606,40.606,0,0,0-69.778-26.8" transform="translate(0 0)" fill="#f9ce5d"/>
        <path id="Trazado_196479" data-name="Trazado 196479" d="M0,2.836A40.606,40.606,0,0,0,81.162,0L64.26.589A23.694,23.694,0,0,1,16.9,2.245Z" transform="translate(0.028 39.185)" fill="#70f5c8"/>
      </g>
      <ellipse id="Ellipse_13685" data-name="Ellipse 13685" cx="33.016" cy="33.016" rx="33.016" ry="33.016" transform="translate(8.983 9.09)" fill="#fff"/>
    </g>
    <g id="Group_1183580" data-name="Group 1183580" transform="translate(723.958 1730.893)">
      <g id="Group_1183579" data-name="Group 1183579" clip-path="url(#clip-path)">
        <path id="Path_1029464" data-name="Path 1029464" d="M16.46,39.037a11.6,11.6,0,0,1,1.309-5.379l-2.112-2.112a14.357,14.357,0,0,0-2.079,7.491A14.684,14.684,0,0,0,25.4,53.435a5.163,5.163,0,0,1,.1-2.167,5.441,5.441,0,0,1,.242-.715A11.8,11.8,0,0,1,16.46,39.037" transform="translate(-8.161 -18.962)" fill="#203a72"/>
        <path id="Path_1029465" data-name="Path 1029465" d="M39.013,16.424a11.8,11.8,0,0,1,11.505,9.24,5.046,5.046,0,0,1,2.849-.429A14.647,14.647,0,0,0,31.5,15.621l2.112,2.112a11.731,11.731,0,0,1,5.4-1.309" transform="translate(-18.934 -8.14)" fill="#203a72"/>
        <path id="Path_1029466" data-name="Path 1029466" d="M28.08,41.859a8.835,8.835,0,0,0-.66,3.377,9.162,9.162,0,0,0,8.722,9.141,5.187,5.187,0,0,1,3.256-.66V51.56a3.135,3.135,0,0,1,.1-.792,6.183,6.183,0,0,1-2.936.737,6.272,6.272,0,0,1-6.26-6.27,4.938,4.938,0,0,1,.1-1.066Z" transform="translate(-16.481 -25.16)" fill="#203a72"/>
        <path id="Path_1029467" data-name="Path 1029467" d="M45.228,27.438a8.941,8.941,0,0,0-3.388.66l2.321,2.31a5.645,5.645,0,0,1,1.067-.1,6.279,6.279,0,0,1,6.27,6.259,6.194,6.194,0,0,1-.693,2.849,3.15,3.15,0,0,1,.858-.11h2.179a4.757,4.757,0,0,1-.044-.682,5.1,5.1,0,0,1,.561-2.332,9.131,9.131,0,0,0-9.129-8.855" transform="translate(-25.149 -16.492)" fill="#203a72"/>
        <path id="Path_1029468" data-name="Path 1029468" d="M16.727,18.76a3.628,3.628,0,1,0,2.033-2.035L9.053,7.018V4.033a1.075,1.075,0,0,0-.316-.762L5.782.315a1.079,1.079,0,0,0-1.842.763V3.939H1.079A1.078,1.078,0,0,0,.316,5.781L3.272,8.736a1.076,1.076,0,0,0,.763.316H7.019Z" transform="translate(0 0)" fill="#203a72"/>
        <path id="Path_1029469" data-name="Path 1029469" d="M80.721,78.113l-2.465,2.465-.838-.831a1.112,1.112,0,0,0-1.549,0,1.1,1.1,0,0,0,0,1.548l1.61,1.61a1.1,1.1,0,0,0,1.548,0l3.242-3.242a1.1,1.1,0,0,0,0-1.548,1.125,1.125,0,0,0-1.548,0" transform="translate(-45.41 -46.767)" fill="#14a0de"/>
        <path id="Path_1029470" data-name="Path 1029470" d="M77.173,61.84a2.793,2.793,0,0,0-2.03-2.036,2.947,2.947,0,0,0-1.678.053,13.3,13.3,0,0,1-1.959.475V55.4a1.4,1.4,0,0,0-1.4-1.4H65.2a13.219,13.219,0,0,1,.475-1.96,2.949,2.949,0,0,0,.047-1.678,2.786,2.786,0,0,0-2.031-2.03,2.9,2.9,0,0,0-3.66,2.792,3.057,3.057,0,0,0,.141.9A13.4,13.4,0,0,1,60.653,54H55.7a1.4,1.4,0,0,0-1.4,1.4v4.928a13.008,13.008,0,0,1-1.942-.469,2.945,2.945,0,0,0-1.677-.053,2.812,2.812,0,0,0-2.03,2.036,2.9,2.9,0,0,0,2.8,3.661,2.824,2.824,0,0,0,.9-.147,15.008,15.008,0,0,1,1.954-.475v4.928a1.392,1.392,0,0,0,1.4,1.4H70.11a1.4,1.4,0,0,0,1.4-1.4V64.878a14.153,14.153,0,0,1,1.971.475,2.891,2.891,0,0,0,3.7-3.514M62.917,68.247a5.656,5.656,0,1,1,5.657-5.656,5.652,5.652,0,0,1-5.657,5.656" transform="translate(-29.187 -28.993)" fill="#14a0de"/>
      </g>
    </g>
  </g>
</svg>
