<svg xmlns="http://www.w3.org/2000/svg" xmlns:xlink="http://www.w3.org/1999/xlink" width="555.513" height="266" viewBox="0 0 555.513 266">
  <defs>
    <clipPath id="clip-path">
      <rect id="Rectangle_457782" data-name="Rectangle 457782" width="307.103" height="239.296" fill="none"/>
    </clipPath>
  </defs>
  <g id="img18" transform="translate(2429.259 3033.745)">
    <rect id="Rectangle_456645" data-name="Rectangle 456645" width="555.513" height="266" transform="translate(-2429.259 -3033.745)" fill="#ffd8c7"/>
    <g id="Group_1181084" data-name="Group 1181084" transform="translate(-2305.054 -3020.393)">
      <g id="Group_1181083" data-name="Group 1181083" clip-path="url(#clip-path)">
        <path id="Path_1026539" data-name="Path 1026539" d="M200.614,284.484c35.718,0,68.587.534,94.672,1.429,63.834-36.486,41.73-107.608,18.81-147.836-31.9-55.988-107.274-76.113-138.452-31.44C133.327,167.27,92.5,146.112,70.459,192.161s11.434,90.195,35.485,93.752c26.084-.895,58.953-1.429,94.67-1.429M144.683,129.221c-16.339,12.436-43.365,22.071-52.338,8.851-6.7-9.877,1.554-28.41,17.729-42.46S147.9,73.073,159.7,83.412c14.008,12.269-2.432,36.233-15.015,45.809" transform="translate(-47.062 -58.638)" fill="#e9eff8" fill-rule="evenodd"/>
        <path id="Path_1026540" data-name="Path 1026540" d="M137.965,525.548a25.24,25.24,0,1,1,19.655-29.8,25.242,25.242,0,0,1-19.655,29.8m-66.7-20.787a73.054,73.054,0,0,0,4.96,13.877l5.842.649a53.9,53.9,0,0,0,7.176,13.465l-1.606,3.087a55.531,55.531,0,0,0,13.085,10.883l1.912-1.089a54.379,54.379,0,0,0,9.8,5.246c16.09-.547,34.732-.958,55.013-1.192l-1.286-6.231,1.858-1.52,8.718-9.471,1.215.2,11.455,1.918a66.17,66.17,0,0,0,4.956-10.176l-9.489-8.648a54.1,54.1,0,0,0,2.1-15.115l11.489-5.723-1.985-11.148-12.76-1.417a53.413,53.413,0,0,0-7.175-13.467l5.93-11.388a65.954,65.954,0,0,0-8.155-7.847l-11.167,6.359-13.706-6.678-1.9-12.711a64.623,64.623,0,0,0-11.209-1.553l-5.3,11.7-15.012,2.669-9.01-9.169L97.031,445.6l2.593,12.586a54.213,54.213,0,0,0-10.569,10.988l-3.405-.565-9.268-1.553a65.953,65.953,0,0,0-4.953,10.176l9.49,8.649A53.505,53.505,0,0,0,78.823,501Z" transform="translate(-53.01 -323.621)" fill="#c1cbe6" fill-rule="evenodd"/>
        <path id="Path_1026541" data-name="Path 1026541" d="M153.552,881.64c84.8,0,153.552,3.011,153.552,6.725s-68.747,6.725-153.552,6.725S0,892.079,0,888.365s68.747-6.725,153.552-6.725" transform="translate(0 -655.794)" fill="#dce6f2" fill-rule="evenodd"/>
        <path id="Path_1026542" data-name="Path 1026542" d="M429.341,73.245H538.295A15.509,15.509,0,0,1,553.758,88.71V238.476a15.508,15.508,0,0,1-15.464,15.463H429.341a15.51,15.51,0,0,1-15.465-15.463V88.71a15.511,15.511,0,0,1,15.465-15.465" transform="translate(-307.855 -54.482)" fill="#bcc9e7" fill-rule="evenodd"/>
        <path id="Path_1026543" data-name="Path 1026543" d="M442.034,90.308H550.987A11.126,11.126,0,0,1,562.08,101.4V251.167a11.127,11.127,0,0,1-11.093,11.094H442.034a11.127,11.127,0,0,1-11.095-11.094V101.4a11.127,11.127,0,0,1,11.095-11.094" transform="translate(-320.547 -67.174)" fill="#cbd4eb" fill-rule="evenodd"/>
        <path id="Path_1026544" data-name="Path 1026544" d="M462.726,100.908l113.029.9-1.329,154.5-113.031-.9Z" transform="translate(-343.201 -75.059)" fill="#fff" fill-rule="evenodd"/>
        <path id="Path_1026545" data-name="Path 1026545" d="M567.388,11.941h19.162V7.9a7.9,7.9,0,1,1,15.8,0v4.038h19.162a4.789,4.789,0,0,1,4.775,4.775v9.1a4.789,4.789,0,0,1-4.775,4.775H567.388a4.789,4.789,0,0,1-4.775-4.775v-9.1a4.789,4.789,0,0,1,4.775-4.775M594.453,4.72a3.5,3.5,0,1,0,3.5,3.5,3.5,3.5,0,0,0-3.5-3.5" transform="translate(-418.491)" fill="#bcc9e7" fill-rule="evenodd"/>
        <path id="Path_1026546" data-name="Path 1026546" d="M597.7,258.349H585.269a1.356,1.356,0,1,1,0-2.713H597.7a1.357,1.357,0,0,1,0,2.714m-52.675,15.5h-34.49a1.357,1.357,0,1,1,0-2.714h34.49a1.357,1.357,0,0,1,0,2.714m39.157,0H550.588a1.357,1.357,0,0,1,0-2.714h33.594a1.357,1.357,0,1,1,0,2.714M531.891,266.1H510.536a1.356,1.356,0,1,1,0-2.712h21.355a1.356,1.356,0,0,1,0,2.712m65.809,0h-59.84a1.356,1.356,0,1,1,0-2.712H597.7a1.356,1.356,0,1,1,0,2.712m-18.185-7.751H510.536a1.356,1.356,0,1,1,0-2.713h68.979a1.357,1.357,0,1,1,0,2.714" transform="translate(-378.744 -190.15)" fill="#bcc9e7" fill-rule="evenodd"/>
        <path id="Path_1026547" data-name="Path 1026547" d="M597.7,351.229H585.269a1.357,1.357,0,1,1,0-2.714H597.7a1.357,1.357,0,0,1,0,2.714m-52.675,15.5h-34.49a1.357,1.357,0,1,1,0-2.714h34.49a1.357,1.357,0,0,1,0,2.714m39.157,0H550.588a1.357,1.357,0,0,1,0-2.714h33.594a1.357,1.357,0,1,1,0,2.714m-52.291-7.749H510.536a1.357,1.357,0,1,1,0-2.714h21.355a1.357,1.357,0,0,1,0,2.714m65.809,0h-59.84a1.357,1.357,0,1,1,0-2.714H597.7a1.357,1.357,0,0,1,0,2.714m-18.185-7.751H510.536a1.357,1.357,0,1,1,0-2.714h68.979a1.357,1.357,0,1,1,0,2.714" transform="translate(-378.744 -259.237)" fill="#bcc9e7" fill-rule="evenodd"/>
        <path id="Path_1026548" data-name="Path 1026548" d="M597.7,444.105H585.269a1.356,1.356,0,1,1,0-2.713l12.431,0a1.357,1.357,0,0,1,0,2.714m-52.675,15.5h-34.49a1.357,1.357,0,1,1,0-2.714h34.49a1.357,1.357,0,0,1,0,2.714m39.157,0H550.588a1.357,1.357,0,0,1,0-2.714h33.594a1.357,1.357,0,1,1,0,2.714m-52.291-7.751H510.536a1.356,1.356,0,1,1,0-2.712h21.355a1.356,1.356,0,0,1,0,2.712m65.809,0h-59.84a1.356,1.356,0,1,1,0-2.712H597.7a1.356,1.356,0,1,1,0,2.712m-18.185-7.751H510.536a1.356,1.356,0,1,1,0-2.713l68.979,0a1.357,1.357,0,1,1,0,2.714" transform="translate(-378.744 -328.322)" fill="#bcc9e7" fill-rule="evenodd"/>
        <path id="Path_1026549" data-name="Path 1026549" d="M533.163,200.609h83.259a1.017,1.017,0,0,1,1.015,1.015v0a1.017,1.017,0,0,1-1.015,1.015H533.163a1.017,1.017,0,0,1-1.016-1.015v0a1.017,1.017,0,0,1,1.016-1.015" transform="translate(-395.829 -149.22)" fill="#bcc9e7" fill-rule="evenodd"/>
        <path id="Path_1026550" data-name="Path 1026550" d="M487.131,650.522H522.6a1.017,1.017,0,0,1,1.015,1.015v0a1.017,1.017,0,0,1-1.015,1.015H487.131a1.017,1.017,0,0,1-1.015-1.015v0a1.017,1.017,0,0,1,1.015-1.015" transform="translate(-361.59 -483.881)" fill="#bcc9e7" fill-rule="evenodd"/>
        <path id="Path_1026551" data-name="Path 1026551" d="M140.453,844.3s-2.61,2.7-1.974,4.481,3.188,2.853,3.647,5.048,1.867,3.328,3.072,3.261l5.758-.321s.8-1.609-1.371-1.958-3.127-2.906-3.127-5.328a43.3,43.3,0,0,0-.514-5.624l-4.621-.821Z" transform="translate(-102.931 -627.084)" fill="#142d4d" fill-rule="evenodd"/>
        <path id="Path_1026552" data-name="Path 1026552" d="M280.366,865.625a10.657,10.657,0,0,0,2.623.158l13.018-.724c-.066-.386-.445-1.749-2.592-1.975-2.427-.256-6.671-1.422-7.771-4.448-.037-.1-.068-.2-.1-.295-.918-3.245-6.045,1.344-6.045,1.344s-.008.133-.02.357c-.058,1.215-.159,5.133.887,5.583" transform="translate(-207.862 -637.6)" fill="#142d4d" fill-rule="evenodd"/>
        <path id="Path_1026553" data-name="Path 1026553" d="M246.445,543.816s-.251,10.214-.53,22.491c-.378,16.677-.81,37.16-.751,41.032.107,6.726-.37,17.517-.37,17.517s-2.407,2.693-7.568,1.9a175.894,175.894,0,0,1-7.595-31.206c-.035-.263-.07-.531-.1-.8-2.126-16.436-5.935-51.08-5.935-51.08Z" transform="translate(-166.316 -404.403)" fill="#003d81" fill-rule="evenodd"/>
        <path id="Path_1026554" data-name="Path 1026554" d="M246.445,543.816s-.251,10.214-.53,22.491L229.631,595.55c-.035-.263-.07-.531-.1-.8-2.126-16.436-5.935-51.08-5.935-51.08Z" transform="translate(-166.316 -404.403)" fill="#0f3970" fill-rule="evenodd"/>
        <path id="Path_1026555" data-name="Path 1026555" d="M185.191,534.256s-12.644,37.646-21.339,55.489-11.45,22.84-11.45,22.84-5.656-1.9-6.242-3.385c0,0,1.835-33.619,7.852-42.122,3.4-4.8,6.925-18.856,6.859-23.7s.506-14.461.506-14.461Z" transform="translate(-108.718 -393.429)" fill="#003d81" fill-rule="evenodd"/>
        <path id="Path_1026556" data-name="Path 1026556" d="M430.884,405.772a43.912,43.912,0,0,1,4.371-1.84,9.638,9.638,0,0,1,3.241.539c.071.182,0,.356-.4.469s-1.732.231-1.617.371c.006.005,1.464-.331,1.691.484.4,1.444,1.007,2.613-.709,3.4-1.72.473-5.585-.8-5.885-.763-2.536.325-.7-2.66-.7-2.66" transform="translate(-320.027 -300.449)" fill="#f4ae7c" fill-rule="evenodd"/>
        <path id="Path_1026557" data-name="Path 1026557" d="M287.7,346.779c.171-1.9-.023-2.16-.023-2.16s-15.769-5.212-17.406-5.765-21.763-14.371-21.763-14.371l-15.725,8.255s30.194,14.075,34.365,15.389c6.9,2.172,19.631,1.176,19.631,1.176a5.337,5.337,0,0,0,.919-2.525" transform="translate(-173.151 -241.362)" fill="#9aa8d0" fill-rule="evenodd"/>
        <path id="Path_1026558" data-name="Path 1026558" d="M270.607,282.362s8.167,8.4,14.194,8.5a16.05,16.05,0,0,1-2.958-4.843c.425-.8.791-1.529,1.1-2.177a35.457,35.457,0,0,0,1.479-3.446l-3.086-4.805-2.1-3.261a17.539,17.539,0,0,1-1.414,3.423,14.362,14.362,0,0,1-7.224,6.61" transform="translate(-201.287 -202.568)" fill="#f4ae7c" fill-rule="evenodd"/>
        <path id="Path_1026559" data-name="Path 1026559" d="M195.242,364.243c4.644,4.313,32.558,5.338,31.478,1.889a39.037,39.037,0,0,1-1.51-6.941c-.1-.77-.181-1.588-.243-2.459a56.567,56.567,0,0,1,2.019-18.717c.155-.573.317-1.154.491-1.743a55.118,55.118,0,0,0,1.87-9.033c.677-5.692.31-10.916-1.337-14.026a.478.478,0,0,0-.023-.043C221.9,311.822,217.6,302.38,217.6,302.38s-15.716,2.18-16.716,30.576c0,0-9.684,27.536-5.644,31.287" transform="translate(-144.494 -224.921)" fill="#8d9fca" fill-rule="evenodd"/>
        <path id="Path_1026560" data-name="Path 1026560" d="M286.755,425.309c-.1-.77-.181-1.588-.241-2.459a56.526,56.526,0,0,1,2.018-18.717c-1.418-3.57-2.934-6.465-4.161-7.65-4.988-4.814-7.37-5.216-7.37-5.216s-.452,25,9.755,34.042" transform="translate(-206.039 -291.038)" fill="#9aa8d0" fill-rule="evenodd"/>
        <path id="Path_1026561" data-name="Path 1026561" d="M316.791,237.155s1.035,3.967-.035,4.283c-.884.262-.043,4.112.039,4.73s-1.639.628-2.072.906-2.543,4.48-3.913,4.287-6.878-3.759-8.1-5.863-.69-10.136,1.2-13.116,11.043-2.167,12.885,4.774" transform="translate(-224.675 -171.637)" fill="#f4ae7c" fill-rule="evenodd"/>
        <path id="Path_1026562" data-name="Path 1026562" d="M304.559,228.241c3.373-.987,2.955-8.316-1.13-10.578-2.942,4.035-9.356,3.318-10.13,3.328s-5.665-.5-7.992,6.114a16.738,16.738,0,0,1,3.9,7.5s1.607-3.232,2.994-3.217c1.507.015,3.94.271,3.94.271s-.437-3.588,1.611-3.581,5.026-1.043,6.8.16" transform="translate(-212.221 -161.905)" fill="#0f3970" fill-rule="evenodd"/>
        <path id="Path_1026563" data-name="Path 1026563" d="M313.044,258.637c-.059-.492,0-2.04-1.94-1.309s-.273,4.516.007,4.633,2.443.817,1.933-3.324" transform="translate(-230.721 -191.266)" fill="#f4ae7c" fill-rule="evenodd"/>
        <path id="Path_1026564" data-name="Path 1026564" d="M310.151,293.966c-.146.411-.309.778-.558,1.34a30.175,30.175,0,0,1-4.235-5.188c.932,1.259,4.793,3.848,4.793,3.848" transform="translate(-227.136 -215.8)" fill="#ed7d5b" fill-rule="evenodd"/>
        <path id="Path_1026565" data-name="Path 1026565" d="M353.35,272.948c-.422-.069-.467-1.785.557-1.617.547.092.135,1.727-.557,1.617" transform="translate(-262.625 -201.817)" fill="#0f3970" fill-rule="evenodd"/>
        <path id="Path_1026566" data-name="Path 1026566" d="M350.525,265.686c.676.136.559.694.039.763a15.308,15.308,0,0,1-2.854-.038,3.529,3.529,0,0,1,2.815-.725" transform="translate(-258.634 -197.584)" fill="#0f3970" fill-rule="evenodd"/>
        <path id="Path_1026567" data-name="Path 1026567" d="M337.312,295.579c-2.989,3.109-4.09-.787-3.493-.717,3.04.355,3.859.339,3.493.717" transform="translate(-248.19 -219.328)" fill="#fff" fill-rule="evenodd"/>
        <path id="Path_1026568" data-name="Path 1026568" d="M398.383,294.252a14.11,14.11,0,1,1,10.987-16.657,14.11,14.11,0,0,1-10.987,16.657m-19.751,11.229a30.333,30.333,0,0,0,7.667,3.732l1.064,7.106,6.262.87,2.964-6.548,1.642-.1,6.749-1.387,5.038,5.128,4.917-2.557.167-.1.5-.317-1.452-7.038,1.038-.849,4.874-5.295.68.112,6.4,1.073a36.992,36.992,0,0,0,2.77-5.689l-5.3-4.836a30.2,30.2,0,0,0,1.173-8.449l6.423-3.2L431.1,270.9l-7.135-.793a29.868,29.868,0,0,0-4.011-7.528l3.315-6.367a36.868,36.868,0,0,0-4.56-4.387l-6.242,3.554-7.663-3.733-1.064-7.105a36.033,36.033,0,0,0-6.266-.868l-2.961,6.543-8.393,1.494-5.037-5.127-5.582,2.978,1.45,7.036a30.261,30.261,0,0,0-5.908,6.143l-1.9-.315-5.181-.868a36.87,36.87,0,0,0-2.768,5.689l5.3,4.835a29.914,29.914,0,0,0-1.171,8.449l-6.424,3.2L360,289.96l7.132.793a30.161,30.161,0,0,0,4.012,7.527l-3.315,6.367a37.009,37.009,0,0,0,4.561,4.386Z" transform="translate(-266.958 -181.251)" fill="#325194" fill-rule="evenodd"/>
        <path id="Path_1026569" data-name="Path 1026569" d="M421.841,474.564a57.637,57.637,0,0,1,6.145-.751,12.58,12.58,0,0,1,3.879,1.839c.026.25-.134.442-.665.445s-2.257-.331-2.161-.112,5.052,1.518,5.044,2.529-2.873,2.718-5.2,2.7-6.725-3-7.116-3.06c-3.3-.5.077-3.589.077-3.589" transform="translate(-312.647 -352.43)" fill="#f4ae7c" fill-rule="evenodd"/>
        <path id="Path_1026570" data-name="Path 1026570" d="M286.495,366.69c.676-1.914-.244-2.52-.244-2.52s-18.86-9.1-20.4-10.1-11.814-20.012-11.814-20.012-3.8-7.771-8.716-7.648c-4.269.107-6.656,2.752-7.991,5.531a8.938,8.938,0,0,0,1.549,9.954c5.626,6.033,16.922,17.98,19.857,19.8,6.535,4.054,26.172,7.427,26.172,7.427a6.366,6.366,0,0,0,1.588-2.437" transform="translate(-175.886 -242.796)" fill="#8d9fca" fill-rule="evenodd"/>
        <path id="Path_1026571" data-name="Path 1026571" d="M449.525,411.236q1.96,2.148,1.659,3.087a2.425,2.425,0,0,1-2.541.153,2.122,2.122,0,0,1-.554-2.071,1.436,1.436,0,0,1,1.436-1.17" transform="translate(-333.249 -305.889)" fill="#f4ae7c" fill-rule="evenodd"/>
        <path id="Path_1026572" data-name="Path 1026572" d="M470.522,283.572a26.936,26.936,0,0,1,21.68,48.553,26.684,26.684,0,0,0-21.68-48.553" transform="translate(-349.99 -209.827)" fill="#8d9fca" fill-rule="evenodd"/>
        <path id="Path_1026573" data-name="Path 1026573" d="M990.059,688.606q.964-39,.966-39,7.139.063,7.2.059l-8.166,38.939" transform="translate(-736.44 -483.201)" fill="#cbd4eb" fill-rule="evenodd"/>
        <path id="Path_1026574" data-name="Path 1026574" d="M793.653,618.042q-35.406.083-35.406.085V655.8a4.736,4.736,0,0,0,5.159,5.158l55.315.12q-.119-42.834-.119-42.836l-6.058.12V612.9c-.813,0-1.594.005-2.345.009-5.316.023-9.084.031-11.286.047-4.868.036-5.2-.576-5.261,5.082" transform="translate(-563.995 -455.898)" fill="#8d9fca" fill-rule="evenodd"/>
        <path id="Path_1026575" data-name="Path 1026575" d="M853.437,710.507a10.443,10.443,0,0,0,.1-1.628V695.061c0-.507-.011-.917-.032-1.234a3.883,3.883,0,0,0-.118-.782,1.108,1.108,0,0,0-.253-.478,1.753,1.753,0,0,0-.453-.335,2.989,2.989,0,0,0-1.455-.378h-.758v-.581h7.978v19.233h2.04v.858h-9.9v-.858Z" transform="translate(-632.608 -514.193)" fill="#fff" fill-rule="evenodd"/>
        <path id="Path_1026576" data-name="Path 1026576" d="M862.763,663.449a2.88,2.88,0,1,1-2.879,2.88,2.879,2.879,0,0,1,2.879-2.88" transform="translate(-639.611 -493.496)" fill="#fff" fill-rule="evenodd"/>
        <rect id="Rectangle_457777" data-name="Rectangle 457777" width="27.762" height="4.561" transform="translate(153.057 36.649)" fill="#325194"/>
        <rect id="Rectangle_457778" data-name="Rectangle 457778" width="10.075" height="4.561" transform="translate(184.11 36.649)" fill="#bcc9e7"/>
        <path id="Path_1026577" data-name="Path 1026577" d="M999.564,492.533a13.522,13.522,0,1,1-13.521,13.521,13.521,13.521,0,0,1,13.521-13.521" transform="translate(-733.453 -366.363)" fill="#aab9de" fill-rule="evenodd"/>
        <path id="Path_1026578" data-name="Path 1026578" d="M1029.011,517.147a3.381,3.381,0,1,1-3.38,3.38,3.381,3.381,0,0,1,3.38-3.38" transform="translate(-762.899 -384.672)" fill="#fff" fill-rule="evenodd"/>
        <path id="Path_1026579" data-name="Path 1026579" d="M1015.817,547.093h6.761a3.39,3.39,0,0,1,3.38,3.38v3.381h-13.521v-3.381a3.39,3.39,0,0,1,3.38-3.38" transform="translate(-753.085 -406.947)" fill="#fff" fill-rule="evenodd"/>
        <rect id="Rectangle_457779" data-name="Rectangle 457779" width="21.798" height="21.798" transform="translate(270.585 95.982)" fill="#aab9de"/>
        <rect id="Rectangle_457780" data-name="Rectangle 457780" width="9.819" height="14.34" transform="translate(273.925 110.365) rotate(-88.729)" fill="#8d9fca"/>
        <path id="Path_1026580" data-name="Path 1026580" d="M1069.329,415.359l7.288-5.329,7.048,5.647Z" transform="translate(-795.404 -304.994)" fill="#d0d7ed" fill-rule="evenodd"/>
        <path id="Path_1026581" data-name="Path 1026581" d="M1084.514,392.833l-7.3,5.955-7.032-6.273Z" transform="translate(-796.035 -291.966)" fill="#fff" fill-rule="evenodd"/>
        <rect id="Rectangle_457781" data-name="Rectangle 457781" width="22.414" height="22.415" transform="translate(256.636 61.491)" fill="#aab9de"/>
        <path id="Path_1026582" data-name="Path 1026582" d="M1037.785,258.307a2.954,2.954,0,1,1-3.02,2.886,2.954,2.954,0,0,1,3.02-2.886" transform="translate(-769.693 -192.137)" fill="#fff" fill-rule="evenodd"/>
        <path id="Path_1026583" data-name="Path 1026583" d="M1025.481,284.211l5.908.133a2.961,2.961,0,0,1,2.886,3.019l-.066,2.954-11.814-.266.066-2.953a2.961,2.961,0,0,1,3.02-2.888" transform="translate(-760.493 -211.405)" fill="#fff" fill-rule="evenodd"/>
        <path id="Path_1026584" data-name="Path 1026584" d="M189.748,140a1.185,1.185,0,0,1-2.257-.725q5.608-17.528,17.613-28.487T235.437,95.5a1.188,1.188,0,0,1,.539,2.313q-17.727,4.192-29.273,14.733T189.748,140" transform="translate(-139.42 -71.015)" fill="#fff" fill-rule="evenodd"/>
      </g>
    </g>
  </g>
</svg>
