<svg xmlns="http://www.w3.org/2000/svg" xmlns:xlink="http://www.w3.org/1999/xlink" width="83.947" height="83.994" viewBox="0 0 83.947 83.994">
  <defs>
    <clipPath id="clip-path">
      <rect id="Rectangle_458692" data-name="Rectangle 458692" width="44.98" height="35.098" transform="translate(0 0)" fill="none"/>
    </clipPath>
  </defs>
  <g id="img1" transform="translate(-706.028 -1710)">
    <g id="Group_1180300" data-name="Group 1180300" transform="translate(706 1710)">
      <g id="Grupo_155253" data-name="Grupo 155253" transform="matrix(0.999, 0.035, -0.035, 0.999, 2.834, 0)">
        <path id="Trazado_196478" data-name="Trazado 196478" d="M11.413,12.382q-.253.262-.5.529A40.338,40.338,0,0,0,.029,42.021l16.9-.589a23.694,23.694,0,0,1,47.359-1.656l16.9-.589a40.606,40.606,0,0,0-69.778-26.8" transform="translate(0 0)" fill="#f9ce5d"/>
        <path id="Trazado_196479" data-name="Trazado 196479" d="M0,2.836A40.606,40.606,0,0,0,81.162,0L64.26.589A23.694,23.694,0,0,1,16.9,2.245Z" transform="translate(0.028 39.185)" fill="#70f5c8"/>
      </g>
      <ellipse id="Ellipse_13685" data-name="Ellipse 13685" cx="33.016" cy="33.016" rx="33.016" ry="33.016" transform="translate(8.983 9.09)" fill="#fff"/>
    </g>
    <g id="Group_1183494" data-name="Group 1183494" transform="translate(725.51 1734.448)">
      <g id="Group_1183493" data-name="Group 1183493" transform="translate(0 0)" clip-path="url(#clip-path)">
        <path id="Path_1029253" data-name="Path 1029253" d="M76.529,37.849a8.794,8.794,0,0,1-9.718.007A10.43,10.43,0,0,0,61.758,41.5a9.642,9.642,0,0,1,6.756,9.188,9.488,9.488,0,0,1-.121,1.521H82.28a1.406,1.406,0,0,0,1.4-1.408v-3a10.5,10.5,0,0,0-7.151-9.952" transform="translate(-38.7 -23.717)" fill="#203a72"/>
        <path id="Path_1029254" data-name="Path 1029254" d="M76.9,13.587a6.794,6.794,0,1,0-6.8-6.793,6.8,6.8,0,0,0,6.8,6.793" transform="translate(-43.927 0)" fill="#203a72"/>
        <path id="Path_1029255" data-name="Path 1029255" d="M8.413,72.6c-3.207,0-6.536-.69-8.413-1.989V73.57c0,1.218,3.2,2.9,8.413,2.9a20.131,20.131,0,0,0,3.5-.284,9.729,9.729,0,0,1-1.3-3.7c-.731.071-1.471.112-2.2.112" transform="translate(0 -44.245)" fill="#14a0de"/>
        <path id="Path_1029256" data-name="Path 1029256" d="M8.413,62.013a19.97,19.97,0,0,0,2.121-.1,9.658,9.658,0,0,1,.985-4,21.042,21.042,0,0,1-3.106.224c-3.207,0-6.536-.69-8.413-1.989V59.11c0,1.218,3.2,2.9,8.413,2.9" transform="translate(0 -35.184)" fill="#14a0de"/>
        <path id="Path_1029257" data-name="Path 1029257" d="M8.413,47.552a20.085,20.085,0,0,0,4.191-.416,9.676,9.676,0,0,1,4.222-3.085V41.686c-1.878,1.3-5.206,1.989-8.413,1.989S1.878,42.985,0,41.686v2.963c0,1.218,3.2,2.9,8.413,2.9" transform="translate(0 -26.122)" fill="#14a0de"/>
        <path id="Path_1029258" data-name="Path 1029258" d="M8.421,33.193c5.217,0,8.413-1.684,8.413-2.9s-3.2-2.9-8.413-2.9-8.413,1.7-8.413,2.9,3.2,2.9,8.413,2.9" transform="translate(-0.005 -17.162)" fill="#14a0de"/>
        <path id="Path_1029259" data-name="Path 1029259" d="M40.418,50.5a8.122,8.122,0,1,0,8.122,8.122A8.132,8.132,0,0,0,40.418,50.5m.734,12.38v1.079a.208.208,0,0,1-.208.208h-1.05a.208.208,0,0,1-.208-.208V62.9a2.194,2.194,0,0,1-2.045-1.962.207.207,0,0,1,.21-.22h1.063a.2.2,0,0,1,.2.153.729.729,0,0,0,.712.575h.93a1.091,1.091,0,0,0,1.105-.939,1.051,1.051,0,0,0-1.044-1.159h-.684a2.593,2.593,0,0,1-2.616-2.264,2.517,2.517,0,0,1,2.168-2.743V53.282a.209.209,0,0,1,.208-.208h1.05a.209.209,0,0,1,.208.208v1.052A2.194,2.194,0,0,1,43.2,56.3a.208.208,0,0,1-.21.221H41.923a.2.2,0,0,1-.2-.153.73.73,0,0,0-.712-.576h-.93a1.092,1.092,0,0,0-1.106.939,1.05,1.05,0,0,0,1.043,1.159h.8a2.519,2.519,0,0,1,2.5,2.767,2.562,2.562,0,0,1-2.168,2.224" transform="translate(-20.237 -31.643)" fill="#14a0de"/>
      </g>
    </g>
  </g>
</svg>
