<svg xmlns="http://www.w3.org/2000/svg" xmlns:xlink="http://www.w3.org/1999/xlink" width="555.513" height="266" viewBox="0 0 555.513 266">
  <defs>
    <clipPath id="clip-path">
      <rect id="Rectangle_457776" data-name="Rectangle 457776" width="279.206" height="230.738" transform="translate(0 0)" fill="none"/>
    </clipPath>
  </defs>
  <g id="img17_1" transform="translate(-235.26 -8604)">
    <rect id="Rectangle_454797" data-name="Rectangle 454797" width="555.513" height="266" transform="translate(235.26 8604)" fill="#ffd8c7"/>
    <g id="Group_1181081" data-name="Group 1181081" transform="translate(373.26 8621.997)">
      <g id="Group_1181080" data-name="Group 1181080" transform="translate(0 0.003)" clip-path="url(#clip-path)">
        <path id="Path_1026357" data-name="Path 1026357" d="M198.381,0c-32.506,0-46.2,24-69.668,42.658C97.654,67.355,66.6,51.28,61.624,134.714c-4.427,74.258,50.8,8.039,128.676,34.64S347.484,206.667,323.95,120.6,273.91,0,198.381,0" transform="translate(-48.955 -0.003)" fill="#eff2f7" fill-rule="evenodd"/>
        <path id="Path_1026358" data-name="Path 1026358" d="M132.369,273.3V386.644c-17.854,3.417-31.616,6.813-39.951,1.771V306.738c9.087-22.046,23.765-25.874,39.951-33.437" transform="translate(-73.714 -217.991)" fill="#f5f7fa" fill-rule="evenodd"/>
        <path id="Path_1026359" data-name="Path 1026359" d="M227.912,287.9V399.559c-2.6.509-5.1.987-7.49,1.413V291.33c2.43-1.188,4.932-2.3,7.49-3.433" transform="translate(-175.813 -229.633)" fill="#eff2f7" fill-rule="evenodd"/>
        <path id="Path_1026360" data-name="Path 1026360" d="M384.566,74.055V223.93a159.179,159.179,0,0,0-39.951,1.827V108.468a76,76,0,0,0,7.227-5.084c12.211-9.707,21.777-20.861,32.724-29.329" transform="translate(-274.871 -59.068)" fill="#f5f7fa" fill-rule="evenodd"/>
        <path id="Path_1026361" data-name="Path 1026361" d="M480.12,101.122V245.081c-2.536-.106-5.029-.136-7.489-.106V108.081c2.5-2.387,4.979-4.726,7.489-6.959" transform="translate(-376.979 -80.657)" fill="#eff2f7" fill-rule="evenodd"/>
        <path id="Path_1026362" data-name="Path 1026362" d="M636.766,8.642v176c-7.345-2.174-14.768-4.559-22.178-7.09a123.572,123.572,0,0,0-17.774-4.638V14.347A54.845,54.845,0,0,1,622.669,8.2c4.9,0,9.594.149,14.1.443" transform="translate(-476.03 -6.54)" fill="#f5f7fa" fill-rule="evenodd"/>
        <path id="Path_1026363" data-name="Path 1026363" d="M732.315,8.323V182.649q-3.738-1.159-7.487-2.385V8.2c2.553,0,5.044.043,7.487.124" transform="translate(-578.137 -6.54)" fill="#eff2f7" fill-rule="evenodd"/>
        <path id="Path_1026364" data-name="Path 1026364" d="M888.969,28.75V201.76a275.772,275.772,0,0,1-39.952-7.95V15.773c15.667,2.081,28.768,6.324,39.952,12.977" transform="translate(-677.192 -12.581)" fill="#f5f7fa" fill-rule="evenodd"/>
        <path id="Path_1026365" data-name="Path 1026365" d="M984.519,49.893v175.68q-3.691-.539-7.488-1.226V46.691q3.876,1.457,7.488,3.2" transform="translate(-779.299 -37.242)" fill="#eff2f7" fill-rule="evenodd"/>
        <path id="Path_1026366" data-name="Path 1026366" d="M1141.176,186.258v89.717c-9.5,7.075-23.431,9.573-39.95,8.918V118.931c17.208,14.519,29.375,36.537,39.95,67.327" transform="translate(-878.359 -94.862)" fill="#f5f7fa" fill-rule="evenodd"/>
        <path id="Path_1026367" data-name="Path 1026367" d="M1236.727,302.06V413.04a47.657,47.657,0,0,1-7.49,2.7V285.938q3.929,7.508,7.49,16.122" transform="translate(-980.463 -228.07)" fill="#eff2f7" fill-rule="evenodd"/>
        <path id="Path_1026368" data-name="Path 1026368" d="M1353.423,674.836V638.091c3.455,15.559,3.213,27.623,0,36.745" transform="translate(-1079.516 -508.954)" fill="#f5f7fa" fill-rule="evenodd"/>
        <path id="Path_1026369" data-name="Path 1026369" d="M133.72,1068.206c73.851,0,133.719,3.258,133.719,7.276s-59.869,7.278-133.719,7.278S0,1079.5,0,1075.482s59.868-7.276,133.72-7.276" transform="translate(0 -852.022)" fill="#e4e9f3" fill-rule="evenodd"/>
        <path id="Path_1026370" data-name="Path 1026370" d="M952.3,944.617s-.491,5.737-.964,11.378c-.432,5.164-.851,10.244-.866,10.77-.044,1.541-.827,2.008-1.575,2.008a1.471,1.471,0,0,1-1.573-1.1c-.028-.131-.086-.889-.165-2.053v-.008c-.049-.741-.107-1.643-.169-2.655-.051-.825-.106-1.723-.162-2.663-.381-6.357-.852-14.657-.962-15.674h.71c.086.937.457,8.209.776,14.234.179,3.395.343,6.394.43,7.638.022.323.04.53.051.591.134.728.453,1.083,1.089,1.083a.777.777,0,0,0,.666-.361h0a2.613,2.613,0,0,0,.332-1.362c.012-.394.241-3.448.525-7.15q.036-.442.071-.9c.479-6.228,1.075-13.777,1.075-13.777Z" transform="translate(-754.44 -753.445)" fill="#b5c3de" fill-rule="evenodd"/>
        <path id="Path_1026371" data-name="Path 1026371" d="M1149.272,937.941s-.183,15.044-.312,24.966c-.045,3.526-.085,6.406-.106,7.734v.032c-.006.4-.012.657-.014.736-.04,1.062-.828,1.062-1.063.749a3.3,3.3,0,0,1-.434-1.5c0-.234-.22-11.524-.4-20.687-.125-6.3-.228-11.595-.228-11.595l.946-.163.263,24.891v.02l.07,6.688.236-19.973.14-11.746Z" transform="translate(-914.641 -748.12)" fill="#aabada" fill-rule="evenodd"/>
        <path id="Path_1026372" data-name="Path 1026372" d="M870.961,934.492c-5.506,15.575-7.011,20.926-10.626,33.217-.064.555-1.115,3.317-3.052,3.506-4.477,1.106-3.693-17.564-3.894-21.691.142-5.457.7-11.365,1.279-17.157Z" transform="translate(-680.679 -743.675)" fill="#dbe1ef" fill-rule="evenodd"/>
        <path id="Path_1026373" data-name="Path 1026373" d="M871.03,934.492c-1.65,4.813-3.746,10.846-5.34,15.51-4.894,3.517-8.95,9.787-11.665,15.014-1.054-13.62-.467-21.172.713-32.649Z" transform="translate(-680.749 -743.675)" fill="#cbd4e8" fill-rule="evenodd"/>
        <path id="Path_1026374" data-name="Path 1026374" d="M870.957,934.492s-.621,1.81-1.445,4.2A33.756,33.756,0,0,0,853.39,951.4c-.015-1.7,0-3.218.064-4.308.267-4.514,1.015-13.432,1.212-14.727Z" transform="translate(-680.676 -743.675)" fill="#c0cce4" fill-rule="evenodd"/>
        <path id="Path_1026375" data-name="Path 1026375" d="M873.033,937.258l-.26.76s-9.43,1.2-16.786,5.42c.245-3.1.513-6.159.669-7.6l6.3.109Z" transform="translate(-682.751 -746.44)" fill="#b5c3de" fill-rule="evenodd"/>
        <path id="Path_1026376" data-name="Path 1026376" d="M856.639,970.852c-1.141-1.023-1.811-4.88-1.968-6.1s-.728-13.144-.462-17.661c.258-4.419.982-13.046,1.2-14.633l-.74-.1c-.2,1.3-.945,10.213-1.212,14.73s.307,16.441.463,17.661.827,5.077,1.968,6.1a1.65,1.65,0,0,0,1.45.347,1.476,1.476,0,0,1-.7-.347" transform="translate(-680.675 -743.669)" fill="#aabada" fill-rule="evenodd"/>
        <path id="Path_1026377" data-name="Path 1026377" d="M809.383,907.805c.974-1.239,17.269-4.427,27.452-4.781s33.6,1.593,38.115,1.947,11.5,1.417,11.623,2.6-.147,1.919-3.6,2.362-14.449,1.518-23.01,1.636-29.618.183-35.995.007-11.9-.817-13.844-1.821-.739-1.949-.739-1.949" transform="translate(-645.283 -720.236)" fill="#c0cce4" fill-rule="evenodd"/>
        <path id="Path_1026378" data-name="Path 1026378" d="M886.476,924.57c-.284.62-1.157,1.058-3.506,1.359-3.453.443-14.4,1.654-22.965,1.772s-29.754.176-36.129,0-12.038-.726-13.987-1.729a1.006,1.006,0,0,1-.62-.838c-.247.276-.7,1.038.852,1.839,1.946,1,7.379,1.771,13.755,1.948s27.57.118,36.129,0,19.512-1.328,22.965-1.77,3.72-1.181,3.6-2.362a.461.461,0,0,0-.1-.219" transform="translate(-645.282 -737.455)" fill="#aabada" fill-rule="evenodd"/>
        <path id="Path_1026379" data-name="Path 1026379" d="M983.266,884.1h0c-2.735,0-5.027-1.454-5.31-3.37l-.943-6.39h12.5l-.945,6.39c-.283,1.916-2.575,3.37-5.307,3.37" transform="translate(-779.284 -697.388)" fill="#cbd4e8" fill-rule="evenodd"/>
        <path id="Path_1026380" data-name="Path 1026380" d="M985.864,882.467a2.7,2.7,0,0,1-2.131-.629,5.731,5.731,0,0,0,4.892,2.259c2.734,0,5.026-1.455,5.308-3.371l.945-6.39H989.83c-.6,5.345-1.989,7.964-3.965,8.131" transform="translate(-784.644 -697.388)" fill="#c0cce4" fill-rule="evenodd"/>
        <path id="Path_1026381" data-name="Path 1026381" d="M998.7,874.336l-.8,4.764a5.172,5.172,0,0,1-5.031,4.323h-.081a7.406,7.406,0,0,1-1.651-.185,6.813,6.813,0,0,0,3.393.857c2.733,0,5.026-1.455,5.308-3.371l.945-6.39Z" transform="translate(-790.55 -697.388)" fill="#b5c3de" fill-rule="evenodd"/>
        <path id="Path_1026382" data-name="Path 1026382" d="M989.518,870.152c0,.586-2.8,1.062-6.253,1.062s-6.252-.475-6.252-1.062,2.8-1.062,6.252-1.062,6.253.475,6.253,1.062" transform="translate(-779.284 -693.203)" fill="#aabada" fill-rule="evenodd"/>
        <path id="Path_1026383" data-name="Path 1026383" d="M992.218,871.353c0,.4-2.387.725-5.333.725s-5.333-.324-5.333-.723,2.387-.725,5.333-.725,5.333.324,5.333.723" transform="translate(-782.904 -694.432)" fill="#cbd4e8" fill-rule="evenodd"/>
        <path id="Path_1026384" data-name="Path 1026384" d="M1003.3,832.405a6.944,6.944,0,0,1-1.836,4.325,6.944,6.944,0,0,1-1.992-4.256c-.042-2.37,1.886-5.4,1.886-5.4s1.9,2.963,1.941,5.333" transform="translate(-797.195 -659.689)" fill="#b2c3e4" fill-rule="evenodd"/>
        <path id="Path_1026385" data-name="Path 1026385" d="M984.078,841.94c1.738,1.79,1.5,4.837,1.5,4.837s-3.052.144-4.791-1.646-2.41-6.156-2.41-6.156,3.957,1.175,5.7,2.966" transform="translate(-780.376 -669.182)" fill="#cbd4e8" fill-rule="evenodd"/>
        <path id="Path_1026386" data-name="Path 1026386" d="M981.739,844.362a20.109,20.109,0,0,1-3.336-5.385l-.014,0s.67,4.366,2.408,6.156a6.772,6.772,0,0,0,4.552,1.648,11.207,11.207,0,0,1-3.611-2.415" transform="translate(-780.382 -669.181)" fill="#b5c3de" fill-rule="evenodd"/>
        <path id="Path_1026387" data-name="Path 1026387" d="M1003.2,842.94c-2.113,1.519-2.494,4.606-2.494,4.606s3.046.621,5.16-.9,3.866-6.172,3.866-6.172-4.417.945-6.532,2.466" transform="translate(-798.185 -670.379)" fill="#cbd4e8" fill-rule="evenodd"/>
        <path id="Path_1026388" data-name="Path 1026388" d="M1004.62,846.573a11.838,11.838,0,0,1-3.607,1.513,7.32,7.32,0,0,0,5.1-.911c1.9-1.368,3.51-5.269,3.813-6.038a24.882,24.882,0,0,1-5.3,5.437" transform="translate(-798.427 -670.907)" fill="#b5c3de" fill-rule="evenodd"/>
        <path id="Path_1026389" data-name="Path 1026389" d="M1006.489,831.766c-1.114,1.369-.591,3.638-.591,3.638s2.326.046,3.44-1.324a8.634,8.634,0,0,0,1.286-4.03s-3.023.346-4.135,1.717" transform="translate(-802.226 -662.063)" fill="#cbd4e8" fill-rule="evenodd"/>
        <path id="Path_1026390" data-name="Path 1026390" d="M1009.359,833.359a8.172,8.172,0,0,1-2.847,2.133,4.785,4.785,0,0,0,3.413-1.324,8.514,8.514,0,0,0,1.283-4.008,13.818,13.818,0,0,1-1.85,3.2" transform="translate(-802.814 -662.152)" fill="#b5c3de" fill-rule="evenodd"/>
        <path id="Path_1026391" data-name="Path 1026391" d="M996.919,830.518a1.71,1.71,0,1,1-2.39,1.794c-.843-1.123-.418-3.6-.418-3.6a7.036,7.036,0,0,1,2.808,1.8" transform="translate(-792.837 -661)" fill="#cbd4e8" fill-rule="evenodd"/>
        <path id="Path_1026392" data-name="Path 1026392" d="M995.3,831.929a7.726,7.726,0,0,1-1.18-3.21l-.01,0s-.425,2.474.418,3.6a3.682,3.682,0,0,0,2.6,1.13,5.524,5.524,0,0,1-1.825-1.513" transform="translate(-792.837 -661)" fill="#b5c3de" fill-rule="evenodd"/>
        <path id="Path_1026393" data-name="Path 1026393" d="M1007.365,824.4a1.4,1.4,0,1,1-2.336.041,5.72,5.72,0,0,1,1.16-2.746,5.893,5.893,0,0,1,1.176,2.7" transform="translate(-801.63 -655.399)" fill="#dbe1ef" fill-rule="evenodd"/>
        <path id="Path_1026394" data-name="Path 1026394" d="M997.1,874.918l1.574.069a6.883,6.883,0,0,0,2.617-.194v.381l-.808.172h-2.013l-1.408-.172Z" transform="translate(-795.272 -697.752)" fill="#c0cce4" fill-rule="evenodd"/>
        <path id="Path_1026395" data-name="Path 1026395" d="M642.969,115.668c0-.045-.008-.087-.012-.133a3.683,3.683,0,0,1-.015-.4c0-.067,0-.134.008-.2s.007-.134.015-.2c0-.033.008-.065.014-.1a4.076,4.076,0,0,1,.306-1.112c.031-.07.063-.139.1-.208a4.077,4.077,0,0,1,.366-.6,4.168,4.168,0,0,1,4.589-1.521c.1.03.19.061.284.1l.091.037c.061.025.123.052.184.082a4.311,4.311,0,0,1,.526.3c.054.037.111.076.164.117a4.167,4.167,0,0,1,1.684,3.092c0,.069.006.137.007.2,0,.1,0,.2-.006.3,0,.066-.01.133-.017.2,0,.032-.008.065-.01.1-.009.068-.022.132-.033.2-.017.1-.038.193-.064.292-.016.065-.035.127-.054.192a3.94,3.94,0,0,1-.177.469c-.024.061-.055.122-.082.182l-.1.178c-.051.089-.1.173-.159.256a4.179,4.179,0,0,1-2.308,1.693c-.067.02-.133.036-.2.053-.1.024-.2.042-.3.058-.066.011-.133.022-.2.03-.044,0-.09.008-.135.01-.087.006-.177.014-.266.014-.069,0-.136,0-.2,0l-.162-.009-.14-.012c-.032,0-.066-.01-.1-.013-.065-.008-.13-.019-.2-.03l-.1-.02c-.065-.013-.129-.028-.194-.044l-.1-.027c-.127-.037-.254-.078-.378-.126l-.094-.037c-.061-.026-.122-.054-.182-.082s-.121-.058-.18-.09c-.03-.017-.059-.032-.089-.048-.057-.033-.116-.068-.171-.105a4.162,4.162,0,0,1-1.9-2.89c-.007-.046-.012-.094-.02-.14m11.136,7.5-.849-1.432a12.075,12.075,0,0,0,1.76-2.305l.05-.024,1.635.4a.686.686,0,0,0,.825-.49l.722-2.807a.672.672,0,0,0-.48-.817l-1.526-.272a7.194,7.194,0,0,0-.329-2.639l.007,0,1.432-.848c.318-.188.054-.762-.133-1.077l-1.476-2.493c-.188-.316-.356-.471-.674-.283l-1.432.848a8.332,8.332,0,0,0-2.273-1.709l-.01-.027.407-1.62a.677.677,0,0,0-.485-.82l-2.806-.719a.671.671,0,0,0-.816.483l-.49,1.657a11.717,11.717,0,0,0-2.858.455l0-.005-.848-1.432c-.19-.32-.255-.2-.573-.01l-2.491,1.476c-.317.187-.978.5-.788.816l.848,1.433a7.022,7.022,0,0,0-1.491,2.145l.084-.056-1.565-.441a.642.642,0,0,0-.795.471l-.706,2.8a.672.672,0,0,0,.49.812l1.632.441a8.128,8.128,0,0,0,.429,2.806l-.007,0-1.431.848c-.317.187-.791.739-.6,1.059l1.474,2.488a1.424,1.424,0,0,0,1.41.305l1.432-.848a7.4,7.4,0,0,0,2.177,1.541l-.04-.06-.434,1.578a.648.648,0,0,0,.472.8l2.8.709a.667.667,0,0,0,.811-.485l.224-1.5a6.818,6.818,0,0,0,2.585-.3l0,.006.848,1.432a1.786,1.786,0,0,0,1.565.458l2.49-1.473c.318-.19-.012-.948-.2-1.268" transform="translate(-507.252 -82.96)" fill="#cbd4e8" fill-rule="evenodd"/>
        <path id="Path_1026396" data-name="Path 1026396" d="M760.643,71.83c0-.066-.013-.13-.019-.2-.017-.2-.024-.4-.023-.593,0-.1,0-.2.012-.3s.01-.2.022-.3c0-.05.011-.1.019-.149a6.42,6.42,0,0,1,.169-.834,5.969,5.969,0,0,1,.285-.81c.045-.1.092-.2.142-.308a6.167,6.167,0,0,1,7.324-3.133c.142.045.28.09.419.144.046.022.09.038.135.057.09.036.183.076.273.121a6.475,6.475,0,0,1,.776.438c.08.054.164.111.243.171a6.184,6.184,0,0,1,2.491,4.573c0,.1.006.2.009.3,0,.149,0,.3-.009.446-.007.1-.016.2-.025.3-.005.046-.01.1-.016.146-.013.1-.03.193-.048.293-.026.143-.058.286-.1.431-.024.1-.05.189-.08.285a5.889,5.889,0,0,1-.261.693c-.036.09-.081.18-.122.269l-.14.261c-.075.131-.151.256-.236.379A6.122,6.122,0,0,1,769.9,76.4a6.214,6.214,0,0,1-1.424.617c-.1.029-.2.052-.3.079-.145.034-.3.064-.443.087-.1.015-.2.031-.3.042-.065,0-.134.011-.2.016-.131.009-.263.019-.394.02-.1,0-.2,0-.3,0l-.239-.013c-.068-.007-.139-.011-.207-.017-.046-.006-.1-.015-.149-.02-.1-.011-.191-.027-.291-.045-.049-.009-.1-.018-.146-.029-.1-.019-.191-.04-.287-.065-.046-.015-.1-.024-.143-.04a5.783,5.783,0,0,1-.559-.186c-.048-.017-.1-.037-.139-.054-.092-.04-.181-.081-.27-.122s-.179-.086-.267-.133c-.044-.025-.087-.046-.132-.071-.084-.048-.17-.1-.253-.153a6.179,6.179,0,0,1-2.012-2.069,6.107,6.107,0,0,1-.788-2.2c-.01-.07-.018-.139-.029-.208M777.1,82.913,775.849,80.8a17.857,17.857,0,0,0,2.6-3.409l.073-.035,2.417.595a1.014,1.014,0,0,0,1.221-.724l1.068-4.15a.994.994,0,0,0-.711-1.208l-2.256-.4a10.615,10.615,0,0,0-.486-3.9l.01-.006L781.9,66.3c.471-.279.081-1.125-.2-1.593l-2.182-3.683c-.278-.469-.524-.7-1-.419l-2.117,1.254a12.333,12.333,0,0,0-3.36-2.527l-.014-.038.6-2.4a1,1,0,0,0-.718-1.211l-4.147-1.064a.992.992,0,0,0-1.206.714l-.723,2.449a17.259,17.259,0,0,0-4.225.674l-.005-.009-1.254-2.117c-.279-.471-.376-.294-.847-.016L756.832,58.5c-.469.278-1.445.737-1.167,1.208l1.254,2.117a10.428,10.428,0,0,0-2.2,3.172l.123-.081-2.313-.652a.95.95,0,0,0-1.174.7l-1.043,4.131a.991.991,0,0,0,.724,1.2l2.412.653a12.025,12.025,0,0,0,.634,4.146l-.009,0-2.117,1.254c-.469.277-1.168,1.093-.889,1.565l2.18,3.68a2.1,2.1,0,0,0,2.082.45l2.117-1.254a10.894,10.894,0,0,0,3.217,2.279l-.06-.089-.64,2.332a.957.957,0,0,0,.7,1.181l4.139,1.048a.988.988,0,0,0,1.2-.718l.329-2.222a10.079,10.079,0,0,0,3.823-.443l.005.009,1.254,2.117a2.639,2.639,0,0,0,2.312.677l3.68-2.179c.471-.278-.018-1.4-.3-1.871" transform="translate(-598.437 -43.548)" fill="#cbd4e8" fill-rule="evenodd"/>
        <path id="Path_1026397" data-name="Path 1026397" d="M738.9,221.932c0-.025-.005-.05-.008-.076a2.3,2.3,0,0,1-.008-.232c0-.038,0-.077,0-.117s0-.077.009-.114c0-.02,0-.038.007-.058a2.429,2.429,0,0,1,.066-.326,2.377,2.377,0,0,1,.111-.316c.017-.04.036-.08.056-.119a2.232,2.232,0,0,1,.211-.345A2.405,2.405,0,0,1,742,219.35c.054.017.109.035.163.057l.053.021c.035.015.07.029.106.048a2.445,2.445,0,0,1,.3.17c.032.023.065.044.1.068a2.374,2.374,0,0,1,.64.708,2.407,2.407,0,0,1,.333,1.076l0,.117c0,.057,0,.115,0,.174,0,.038-.006.077-.01.116,0,.018,0,.038-.006.057-.005.039-.012.076-.018.116-.011.056-.023.112-.037.169-.009.037-.02.073-.032.11a2.252,2.252,0,0,1-.1.271c-.014.034-.031.07-.048.1s-.036.067-.054.1c-.029.052-.058.1-.092.149a2.4,2.4,0,0,1-.776.736,2.424,2.424,0,0,1-.556.241c-.038.012-.076.021-.116.031-.057.013-.115.025-.174.034-.037.005-.076.012-.114.016l-.078.007c-.052,0-.1.008-.154.008h-.117l-.093-.005-.081-.007-.057-.008c-.039,0-.076-.01-.114-.017l-.057-.012-.112-.025c-.019-.005-.037-.009-.056-.016a1.958,1.958,0,0,1-.219-.072l-.055-.021-.1-.048c-.036-.016-.07-.035-.1-.052-.017-.011-.035-.019-.052-.028l-.1-.06a2.4,2.4,0,0,1-1.094-1.669c0-.027-.006-.053-.011-.081m6.425,4.328-.489-.827a6.919,6.919,0,0,0,1.016-1.331l.027-.014.944.232a.394.394,0,0,0,.476-.282l.418-1.62a.388.388,0,0,0-.279-.471l-.88-.156a4.164,4.164,0,0,0-.19-1.523l0,0,.825-.49c.184-.109.032-.439-.076-.621l-.852-1.438c-.109-.184-.206-.273-.389-.164l-.827.49a4.81,4.81,0,0,0-1.312-.987l-.006-.015.235-.936a.39.39,0,0,0-.28-.473l-1.619-.415a.388.388,0,0,0-.472.278l-.282.957a6.7,6.7,0,0,0-1.65.263v0l-.49-.827c-.109-.183-.147-.114-.331-.005l-1.437.852c-.184.108-.564.287-.456.471l.49.827a4.081,4.081,0,0,0-.859,1.238l.048-.032-.9-.253a.37.37,0,0,0-.459.271l-.407,1.614a.388.388,0,0,0,.283.469l.942.255a4.692,4.692,0,0,0,.248,1.618l0,0-.827.49c-.183.108-.456.427-.346.611l.851,1.437a.824.824,0,0,0,.814.175l.825-.49a4.291,4.291,0,0,0,1.257.89l-.024-.035-.25.911a.375.375,0,0,0,.272.461l1.617.41a.387.387,0,0,0,.469-.281l.129-.867a3.943,3.943,0,0,0,1.492-.174l0,0,.49.827a1.035,1.035,0,0,0,.9.264l1.437-.851c.183-.109-.006-.547-.117-.731" transform="translate(-586.136 -171.651)" fill="#cbd4e8" fill-rule="evenodd"/>
        <path id="Path_1026398" data-name="Path 1026398" d="M468.571,387.685a8.865,8.865,0,1,0-12.835,7.928v2.025a.855.855,0,0,0,.84.869h6.546a.854.854,0,0,0,.839-.869v-2.175a8.863,8.863,0,0,0,4.609-7.778" transform="translate(-359.599 -302.155)" fill="#fdada0" fill-rule="evenodd"/>
        <path id="Path_1026399" data-name="Path 1026399" d="M459.523,378.646v19.438h-3.384c-.261,0-.5,0-.649-.195l-.01.048a.748.748,0,0,1-.172-.292l.029.009a.676.676,0,0,1-.014-.194v-2.026a8.5,8.5,0,0,1-4.894-7.927,8.868,8.868,0,0,1,8.869-8.865c.075,0,.226,0,.226,0" transform="translate(-359.271 -302.013)" fill="#fbc1b8" fill-rule="evenodd"/>
        <rect id="Rectangle_457775" data-name="Rectangle 457775" width="8.206" height="8.031" transform="translate(96.136 94.224)" fill="#fdada0"/>
        <path id="Path_1026400" data-name="Path 1026400" d="M472.972,503.9c.324,1.658,2.214,2.93,4.5,2.93s4.175-1.273,4.5-2.93Z" transform="translate(-377.251 -401.919)" fill="#fd9887" fill-rule="evenodd"/>
        <path id="Path_1026401" data-name="Path 1026401" d="M479.062,466.315c0,.406-.455.735-1.016.735h-9.073c-.561,0-1.015-.329-1.015-.735s.454-.736,1.015-.736h9.073c.563,0,1.016.33,1.016.736" transform="translate(-373.251 -371.355)" fill="#fd9887" fill-rule="evenodd"/>
        <path id="Path_1026402" data-name="Path 1026402" d="M478.866,478.5c0,.4-.456.735-1.016.735h-9.075c-.56,0-1.015-.329-1.015-.735s.455-.737,1.015-.737h9.075c.56,0,1.015.331,1.016.737" transform="translate(-373.094 -381.072)" fill="#fd9887" fill-rule="evenodd"/>
        <path id="Path_1026403" data-name="Path 1026403" d="M479.337,491.383c0,.406-.455.736-1.015.736h-9.076c-.56,0-1.014-.33-1.014-.736s.454-.735,1.014-.735h9.076c.56,0,1.015.329,1.015.735" transform="translate(-373.471 -391.351)" fill="#fd9887" fill-rule="evenodd"/>
        <path id="Path_1026404" data-name="Path 1026404" d="M487.162,419a.135.135,0,0,0,.035-.092.148.148,0,0,0-.146-.149c-.565,0-.524,1.082-.914.376-.093-.171-.213-.386-.473-.388s-.379.21-.477.378c-.4.7-.349-.385-.908-.391-.26,0-.38.211-.477.378-.179.315-.263.311-.437,0-.093-.173-.211-.388-.471-.389s-.383.211-.478.38c-.417.722-.349-.51-.909-.51h0c-.08,0-.146.125-.146.2a.227.227,0,0,0,.033.124,22.879,22.879,0,0,1,1.479,5.634,20.985,20.985,0,0,1-.008,3.546h.284a21.173,21.173,0,0,0,0-3.559,22.263,22.263,0,0,0-1.24-5.027.413.413,0,0,0,.28.115c.262,0,.382-.212.479-.381.082-.145.138-.232.219-.232s.138.09.216.236c.1.171.214.386.472.388s.383-.21.479-.378c.083-.145.14-.232.22-.232s.137.089.216.236c.095.173.213.385.472.389s.382-.211.479-.381c.178-.31.263-.31.435,0,.1.172.211.388.471.389a.408.408,0,0,0,.3-.125,22.759,22.759,0,0,0-1.277,5.018,24.569,24.569,0,0,0-.111,3.541h.281a24.608,24.608,0,0,1,.109-3.507A23.231,23.231,0,0,1,487.162,419" transform="translate(-383.941 -333.88)" fill="#fff" fill-rule="evenodd"/>
        <path id="Path_1026405" data-name="Path 1026405" d="M764.759,393.48H634.892a2.373,2.373,0,0,1-2.251-2.467v-81.89c0-5.137,3.838-9.341,8.529-9.341h121.3a4.783,4.783,0,0,1,4.538,4.969v86.263a2.374,2.374,0,0,1-2.252,2.467" transform="translate(-504.607 -239.112)" fill="#f5f7fa" fill-rule="evenodd"/>
        <path id="Path_1026406" data-name="Path 1026406" d="M761.213,382.292c0,4.342-3.213,7.864-7.18,7.864H645.322c-3.967,0-7.182-3.522-7.182-7.864V312.11c0-4.342,3.215-7.862,7.182-7.862H754.035c3.965,0,7.178,3.52,7.178,7.862Zm7.2-76.486c0-4.342-3.214-7.861-7.179-7.861H638.124c-3.965,0-7.181,3.519-7.181,7.861v82c0,4.343,3.215,7.864,7.181,7.864H761.232c3.965,0,7.179-3.521,7.179-7.864Z" transform="translate(-503.252 -237.646)" fill="#dbe1ef" fill-rule="evenodd"/>
        <path id="Path_1026407" data-name="Path 1026407" d="M960.051,362.447s3.316,2.824.275,6.075c0,0,2.537.249,3.392-.452a2.235,2.235,0,0,1-.327.495s2.836.1,4.005-.781.421-15.382-7.446-13.762c0,0-6.665-.5-6.046,7.211s-1.9,7.713-1.9,7.713a3.592,3.592,0,0,0,1.038.345s.494-.19.593-.461a1.8,1.8,0,0,1-.224.565s2.715.258,4.072-.769,2.95-4.59,2.564-6.18" transform="translate(-759.34 -282.274)" fill="#22407a" fill-rule="evenodd"/>
        <path id="Path_1026408" data-name="Path 1026408" d="M942.377,427.646h18.174c-1.3-3.256-3.162-5.612-4.577-5.9-.753-.2-2.034-2.923-2.016-7.311l-.341.066-5.706,1.129s.128,1.8.134,3.49c0,1.409-.073,2.844-.393,3.012-.409.037-.784.111-.784.111a14.667,14.667,0,0,0-4.491,5.4" transform="translate(-751.658 -330.559)" fill="#ffb17d" fill-rule="evenodd"/>
        <path id="Path_1026409" data-name="Path 1026409" d="M969.721,415.883s.127,1.8.134,3.489c3.194-.091,4.882-3,5.573-4.62Z" transform="translate(-773.468 -330.815)" fill="#ef8161" fill-rule="evenodd"/>
        <path id="Path_1026410" data-name="Path 1026410" d="M961.848,365.468a16.739,16.739,0,0,0,2.076-4.906c.288-1.614-.534-7.6-6.547-6.736a8.152,8.152,0,0,0-3.389,1.281c-1.306.881-3.192,2.786-1.083,8.009l.545,1.765Z" transform="translate(-759.299 -282.151)" fill="#22407a" fill-rule="evenodd"/>
        <path id="Path_1026411" data-name="Path 1026411" d="M954.528,378.006s7.556.123,7.56-4.582.982-7.862-3.839-8.14-5.765,1.517-6.15,3.087.462,9.482,2.429,9.636" transform="translate(-759.341 -291.335)" fill="#ffb17d" fill-rule="evenodd"/>
        <path id="Path_1026412" data-name="Path 1026412" d="M965.826,361.055s2.07,5.522,5.246,6.339,4.553-.033,4.553-.033a9,9,0,0,1-2.942-5.314s-5.294-3.622-6.857-.993" transform="translate(-770.361 -287.222)" fill="#22407a" fill-rule="evenodd"/>
        <path id="Path_1026413" data-name="Path 1026413" d="M953.287,363.493a6.705,6.705,0,0,0-1.923,2.432c-.377,1.2-.546,3.667-1.266,3.582,0,0-1.558-3.753.2-5.875,1.855-2.253,2.994-.138,2.994-.138" transform="translate(-757.307 -289.212)" fill="#22407a" fill-rule="evenodd"/>
        <path id="Path_1026414" data-name="Path 1026414" d="M966.948,362.036s1.474,5.784,5.481,7.636c0,0-4.007-3.554-4.346-7.372s-1.134-.264-1.134-.264" transform="translate(-771.256 -287.568)" fill="#22407a" fill-rule="evenodd"/>
        <path id="Path_1026415" data-name="Path 1026415" d="M828.748,538.948s-2.519-2.058-3.423-2.069-2.626-.464-2.558-.169,1.518.677,1.267.814-2.354-.43-2.942-.09-1.969,1.741-.86,2.353a16.033,16.033,0,0,0,5.3,1.471c.86-.113,2.805-.25,2.805-.25Z" transform="translate(-653.899 -428.011)" fill="#ffb17d" fill-rule="evenodd"/>
        <path id="Path_1026416" data-name="Path 1026416" d="M919.646,641.47c1.219-2.747,2.363-5.5,3.239-8.16.413-1.254.783-2.434,1.118-3.55.106-.358.211-.708.308-1.056a83.626,83.626,0,0,0,2.979-15.677l-18.748.153s-1.095,11.508-4.437,28.29Z" transform="translate(-721.131 -488.962)" fill="#93a8d1" fill-rule="evenodd"/>
        <path id="Path_1026417" data-name="Path 1026417" d="M928.29,464.793c.047,8.922-1.307,12.749-1.307,12.749a25.18,25.18,0,0,0,17.565,1.075c.114-.034,7.9-1.811,7.9-1.811-.161-.362-1.581-6.372-1.736-6.7-2.014-4.326-3.544-6.222-3.782-7.551a28.285,28.285,0,0,1-.234-7.474,60.133,60.133,0,0,1,2.313-11.738,61,61,0,0,1-7.737-2.646,6.063,6.063,0,0,1-4.178,1.549c-1.9-.043-2.516-.855-2.418-1.744-2.023,1.127-3.639,2.191-3.639,2.191-1.722,2.99-5.213,5.894-5.466,10.481-.062,1.127,2.714,11.374,2.716,11.624" transform="translate(-738.255 -351.349)" fill="#fff" fill-rule="evenodd"/>
        <path id="Path_1026418" data-name="Path 1026418" d="M959.321,695c1.219-2.747,2.363-5.5,3.239-8.16.413-1.254.783-2.434,1.117-3.55.106-.358.211-.708.308-1.056l-2.762-2.1A108.173,108.173,0,0,0,953.845,695Z" transform="translate(-760.805 -542.491)" fill="#889fcc" fill-rule="evenodd"/>
        <path id="Path_1026419" data-name="Path 1026419" d="M994.409,680.961l.382-2.8c.588-4.418,1-8.118,1.141-11.243.022-.493.041-.971.048-1.436s.013-.92.009-1.361l-16.2-1.579c.1,5.482.587,12.441,1.03,18.423Z" transform="translate(-781.501 -528.454)" fill="#93a8d1" fill-rule="evenodd"/>
        <path id="Path_1026420" data-name="Path 1026420" d="M1034.592,698.211l.382-2.8c.588-4.418,1-8.118,1.141-11.243l-5.944,3.5s3.563,1.258,2.469,10.55Z" transform="translate(-821.684 -545.704)" fill="#889fcc" fill-rule="evenodd"/>
        <path id="Path_1026421" data-name="Path 1026421" d="M983.208,490.595s1.14,4.123,5.088,3.6a47.641,47.641,0,0,0,9.56-2.893s-1.685-5.332-3.783-12.334c-2.539-8.48-3.173-20.394-4.654-27.288-.415-1.934-3.211-2.558-3.316-3.716l-3.274-6.355s-4.885,10.961-5.149,13.724,5.528,35.265,5.528,35.265" transform="translate(-779.809 -352.233)" fill="#9fb1d6" fill-rule="evenodd"/>
        <path id="Path_1026422" data-name="Path 1026422" d="M1018.64,517.842c.176,4.475,1.741,12.106,8.029,15.46.027.015.051.025.076.037-2.539-8.48-2.507-16.612-3.988-23.508-3.382-.7-4.215,5.546-4.117,8.01" transform="translate(-812.48 -406.609)" fill="#93a8d1" fill-rule="evenodd"/>
        <path id="Path_1026423" data-name="Path 1026423" d="M1035.717,597.84s-2.822-.609-3.547.2-1.131,2.086-.409,2.533,2.823-.784,3.578-.285c.539.356.71,1.262,1.253.948s1.116-2.4,1.116-2.4Z" transform="translate(-822.65 -476.673)" fill="#ffb17d" fill-rule="evenodd"/>
        <path id="Path_1026424" data-name="Path 1026424" d="M1003.157,441.6s7.609.336,9.439,2.035,12.783,14.825,12.963,18.264-9.594,13.217-9.594,13.217-2.715-.657-3.894-2.365c0,0,6.066-10.813,5.7-11.287s-10.636-8.888-11.476-7.023c-.727,1.611-3.14-12.842-3.14-12.842" transform="translate(-800.137 -352.233)" fill="#9fb1d6" fill-rule="evenodd"/>
        <path id="Path_1026425" data-name="Path 1026425" d="M856.1,461.17s8.691,2.9,9.777,2.654,2.637-12.015,3.477-16.051a7.808,7.808,0,0,1,5.2-6.232l3.907-1.044s-4.473,11.053-4.606,13.291-.524,36.582-.524,36.582.261,1.581-2.766.921-3.815-1.316-3.815-1.316,1.311-9.6,1.929-18.122c-3.083-.528-13-5.551-13-5.551-1.539-2.418.421-5.131.421-5.131" transform="translate(-682.037 -351.349)" fill="#9fb1d6" fill-rule="evenodd"/>
        <path id="Path_1026426" data-name="Path 1026426" d="M962.666,412.517a9.873,9.873,0,0,1-2.825.212c-.445-.017,1.083,3.071,2.917-.051.044-.074-.009-.18-.092-.161" transform="translate(-765.525 -329.03)" fill="#eb7d63" fill-rule="evenodd"/>
        <path id="Path_1026427" data-name="Path 1026427" d="M972.1,381.814c-.522.146-.409.561,0,.584,4.386.208,1.288-.945,0-.584" transform="translate(-775.086 -304.486)" fill="#22407a" fill-rule="evenodd"/>
        <path id="Path_1026428" data-name="Path 1026428" d="M951.457,382.665c.535.093.462.519.054.581-4.341.653-1.376-.81-.054-.581" transform="translate(-757.128 -305.202)" fill="#22407a" fill-rule="evenodd"/>
        <path id="Path_1026429" data-name="Path 1026429" d="M960.58,394.758l-.028,0c-.464-.124-.711-.2-.794-.382-.075-.164.016-.344.178-.672a9.155,9.155,0,0,0,.713-1.818.125.125,0,1,1,.239.07,9.686,9.686,0,0,1-.727,1.863c-.106.214-.2.4-.175.456.038.08.367.17.633.239a.126.126,0,0,1,.086.156.123.123,0,0,1-.124.09" transform="translate(-765.5 -312.501)" fill="#eb7d63" fill-rule="evenodd"/>
        <path id="Path_1026430" data-name="Path 1026430" d="M954.858,392.335c-.308.03-.658-1.123.089-1.19.4-.039.414,1.144-.089,1.19" transform="translate(-761.328 -311.985)" fill="#22407a" fill-rule="evenodd"/>
        <path id="Path_1026431" data-name="Path 1026431" d="M975.5,390.769c-.308.026-.658-1.124.088-1.192.4-.037.417,1.144-.088,1.192" transform="translate(-777.793 -310.734)" fill="#22407a" fill-rule="evenodd"/>
        <path id="Path_1026432" data-name="Path 1026432" d="M962.878,412.865c.454.328-2.04.858-2.552.549-.056-.033-.255-.232-.214-.309s.353-.016.434-.012a7.91,7.91,0,0,0,2.332-.229" transform="translate(-765.8 -329.31)" fill="#fdfdfd" fill-rule="evenodd"/>
        <path id="Path_1026433" data-name="Path 1026433" d="M334.263,645.182c.317-.108,1.385-.357,2.63-.775q1.917.781,5.052-.462a3.7,3.7,0,0,0,.217-3.849,7.706,7.706,0,0,1-4.339.908q2.321-1.529.719-1.815a1.236,1.236,0,0,1-.665.595,2.958,2.958,0,0,0-2.309,2.183c-.575.155-1.167.3-1.472.393a4.946,4.946,0,0,1,.166,2.824" transform="translate(-266.482 -509.829)" fill="#ffb17d" fill-rule="evenodd"/>
        <path id="Path_1026434" data-name="Path 1026434" d="M135.579,490.051c-3.981-.516-6.988-.243-8.273,1.667a34.134,34.134,0,0,0,1.051,4.546,1.168,1.168,0,0,1-1.028.694,5.074,5.074,0,0,0-1.422-1.98q-2.843,1.276,1.069,3.933.231.916.442,1.517a7.214,7.214,0,0,1-4.587-3.534c-2.738-5.4.316-7.676,1.949-8.506.72-5.345,8.481-.621,12.37-3.2,1.546,2.134-.365,4.812-1.57,4.86" transform="translate(-97.097 -386.998)" fill="#22407a" fill-rule="evenodd"/>
        <path id="Path_1026435" data-name="Path 1026435" d="M128.207,584.62a46.453,46.453,0,0,0,6.3,6.511q-2.319-8.237-4.968-17.739a9.115,9.115,0,0,0-1.5,1.56q-.209,3.854-.1,5.881a8.046,8.046,0,0,0,2.212,1.361,8.942,8.942,0,0,0-1.94,2.426" transform="translate(-102.015 -457.349)" fill="#0c326d" fill-rule="evenodd"/>
        <path id="Path_1026436" data-name="Path 1026436" d="M190.686,583.735a46.617,46.617,0,0,1-4.1,7.341q.672-10.062.681-16.961a6.458,6.458,0,0,1,1.562,1.144c.073.085.142.17.208.254a51.58,51.58,0,0,1,1.395,6.03q-1.007.46-1.7.8.946.635,1.958,1.395" transform="translate(-148.824 -457.926)" fill="#0c326d" fill-rule="evenodd"/>
        <path id="Path_1026437" data-name="Path 1026437" d="M80.688,581.1q-5.786,3.357-9.463,5.947a86.827,86.827,0,0,0-2.689,20.43c.226,8.408,1.063,14.493,2.056,17.772,1.447.064,2.987-.079,3.559-.63q.47-11.093.238-18a37.037,37.037,0,0,1,2.791-5.448c.351,2.5.832,4.673.948,6.909a147.39,147.39,0,0,1-1.833,16.411q2.287,2.193,10.121,2.617a215.592,215.592,0,0,0,.739-29.824,46.443,46.443,0,0,1-6.3-6.511,8.948,8.948,0,0,1,1.94-2.426,8.046,8.046,0,0,1-2.212-1.361q-.106-2.027.1-5.881" transform="translate(-54.666 -463.499)" fill="#0e397c" fill-rule="evenodd"/>
        <path id="Path_1026438" data-name="Path 1026438" d="M186.586,596.586c1.5,15.969,2.122,26.352,3,29.95a9.473,9.473,0,0,0,5.6-2.608c-.313-9.085-1.375-14.887-1.822-20.2.808-8.72,2.464-16.737.679-20.463a12.7,12.7,0,0,0-5.008-2.244,51.338,51.338,0,0,1,1.4,6.029q-1.007.46-1.7.8.946.635,1.957,1.395a46.6,46.6,0,0,1-4.1,7.341" transform="translate(-148.825 -463.436)" fill="#0e397c" fill-rule="evenodd"/>
        <path id="Path_1026439" data-name="Path 1026439" d="M225.7,594.709q-1.073-1.316-2.263-2.595c1.237,2.582.822,7.226.18,12.737a41.1,41.1,0,0,0,6.229,6.025c4.716.272,9.77-.821,17.558-3.178a5.877,5.877,0,0,0-.1-3.279c-7.587.438-12.221.365-15.264,1.148-1.97-4.911-4.469-7.821-6.341-10.858" transform="translate(-178.218 -472.282)" fill="#0e397c" fill-rule="evenodd"/>
        <path id="Path_1026440" data-name="Path 1026440" d="M145.529,568.407a27.84,27.84,0,0,0-3.767-4.471,13.534,13.534,0,0,1,.376-1.375c.071-.2.5-.427,1.063-.534-.052.09-.164.473-.072.532a.593.593,0,0,1,.065.053,21.713,21.713,0,0,0,4.454,2.816c-.821.958-1.392,1.964-2.118,2.978" transform="translate(-113.072 -448.285)" fill="#76a4ed" fill-rule="evenodd"/>
        <path id="Path_1026441" data-name="Path 1026441" d="M179.6,565.924a19.454,19.454,0,0,1-.085,2.883,4.131,4.131,0,0,0-1.562-2.11q-.175-1.481-.236-2.779a3.365,3.365,0,0,1,1.883,2.007" transform="translate(-141.748 -449.792)" fill="#76a4ed" fill-rule="evenodd"/>
        <path id="Path_1026442" data-name="Path 1026442" d="M148.25,608.693c-.454-5.04-.983-11.625-1.732-19.605q.659-9.887.681-16.719a6.174,6.174,0,0,0-.589-.186,19.2,19.2,0,0,1-.089,2.77,4.131,4.131,0,0,0-1.562-2.11,10.248,10.248,0,0,1-.688,1.5c-.407-.423-.794-.828-1.046-1.139-.765.919-1.317,1.883-2.012,2.852a28.524,28.524,0,0,0-3.726-4.438c-.422.216-.8.423-1.136.622q2.606,9.351,4.894,17.475a176.6,176.6,0,0,1-.037,19.184,17.837,17.837,0,0,0,1.879.184v-.064a.28.28,0,0,1,.272-.273l2.638-.074a.26.26,0,0,1,.272.258v.048q.97-.1,1.98-.29" transform="translate(-108.757 -455.938)" fill="#fff" fill-rule="evenodd"/>
        <path id="Path_1026443" data-name="Path 1026443" d="M171.289,586.422a2.685,2.685,0,0,0-1.626-1.338,4.028,4.028,0,0,0-1.477,1.4,4.082,4.082,0,0,0,1.3,1.484,147.149,147.149,0,0,0-1.2,22.731,11.189,11.189,0,0,0,1.927,3.135,8.458,8.458,0,0,0,1.412-3.469q-.9-15.29-1.07-22.313a3.3,3.3,0,0,0,.728-1.63" transform="translate(-134.148 -466.675)" fill="#679aeb" fill-rule="evenodd"/>
        <path id="Path_1026444" data-name="Path 1026444" d="M164.819,579.594c-.3.407-.577.82-.854,1.236q.38.255.974.591a4.691,4.691,0,0,1,1.009-1.038q-.577-.428-1.128-.789m2.495-.654a5.917,5.917,0,0,1-.593,1.393,2.749,2.749,0,0,1,.966.844,3.875,3.875,0,0,0,.415-1.33,4.077,4.077,0,0,0-.788-.908" transform="translate(-130.782 -461.774)" fill="#3b7fe6" fill-rule="evenodd"/>
        <path id="Path_1026445" data-name="Path 1026445" d="M123.019,803.168q.052-12.258-.825-28.858a14.15,14.15,0,0,1-4.309,1.547c-.434-1.144-.83-3.859-1.412-8.823a14.593,14.593,0,0,1-1.521.323v.282a.279.279,0,0,1-.272.273l-2.638.074a.261.261,0,0,1-.272-.259v-.2q-.717-.031-1.449-.124c-.273,4.175-.38,6.969-.594,9.012-4.333-.542-6.936-1.011-9.029-1.887a228.506,228.506,0,0,0-1.779,26.634q-2.66,5.706-1.455,27.871a13.189,13.189,0,0,0,5.137,0,229.482,229.482,0,0,0,3.939-26.241,204.33,204.33,0,0,0,4.879-21.9,170.161,170.161,0,0,0,2.739,21.646q-.752,8.92,2.612,26.2a23.089,23.089,0,0,0,5.564-.5,203.559,203.559,0,0,1,.686-25.071" transform="translate(-77.438 -611.801)" fill="#0c326d" fill-rule="evenodd"/>
        <path id="Path_1026446" data-name="Path 1026446" d="M123.95,775.635c.214-2.043.321-4.837.595-9.012q-.282-.036-.566-.081-.223,3.871-.566,8.086a25.317,25.317,0,0,1-8.407-1.527c-.03.215-.057.431-.085.647,2.093.876,4.7,1.346,9.029,1.887m8.159-.558a14.145,14.145,0,0,0,4.309-1.547q-.02-.368-.04-.741a9.661,9.661,0,0,1-3.951,1.333,68.61,68.61,0,0,1-1.062-8.066c-.222.072-.444.136-.669.2.582,4.964.978,7.68,1.412,8.823" transform="translate(-91.663 -611.021)" fill="#0c326d" fill-rule="evenodd"/>
        <path id="Path_1026447" data-name="Path 1026447" d="M95.7,1076.193c.243.234.321.168.492.053.28-1.528,3.16-1.705,3.874-.146a.8.8,0,0,0,.45-.4c.5.987,1.64,1.955,1.338,3.676-.765,1.1-4.7,1.648-6.57-.6-.529-.857.122-1.943.417-2.582m19.865-1.677c-.482,1.308-.589,2.38-.021,2.8,1.449.29,4.417.256,8.989.856,3.228-.231,4.626-1.151,3.81-2.172a11.386,11.386,0,0,1-7.6-2.194q-.631,2.564-5.179.71" transform="translate(-75.837 -856.489)" fill="#0c326d" fill-rule="evenodd"/>
        <path id="Path_1026448" data-name="Path 1026448" d="M98.682,1070.63q-.117,1.369-.231,2.506c.194.161.273.1.427-.006.28-1.528,3.16-1.706,3.874-.146l.005,0h.005l0,0h.005l0,0h.007l0,0h.007l0,0h.028l0,0h.005l0,0h.014l0,0h.005l0,0h0l0,0h.005l0,0,0,0,0,0h0l0,0,0,0h0l.012-.008,0,0,0,0h.008l0,0h0l0,0h0l0,0h0l0,0h0l.005,0h0l0,0v0h0l0,0h0l0,0h0l0,0,0,0h0l0,0,0,0h0l0,0,0,0h0l0,0,0,0h0c-.126-.612-.234-1.306-.321-2.079a12.526,12.526,0,0,1-4.014-.118m24.224-.733a4.181,4.181,0,0,0,.443,1.06c-.017.044-.034.087-.053.13a1.794,1.794,0,0,1-.315.495h0a1.528,1.528,0,0,1-.134.13l0,0-.044.037-.006.005a1.767,1.767,0,0,1-.566.3h-.005l-.059.019-.011,0-.059.016h-.007l-.065.016h0c-.021.006-.044.009-.065.014l-.01,0-.064.011h-.007a3.351,3.351,0,0,1-.718.029h-.012l-.077-.005h-.013l-.077-.007h-.017l-.077-.008h-.015l-.085-.01h0l-.089-.012-.02,0c-.215-.032-.443-.077-.682-.137l-.026-.006-.093-.024-.012,0-.092-.024-.029-.008-.084-.024-.029-.01-.085-.024-.036-.011-.085-.026-.025-.008-.1-.031-.025-.008-.1-.032-.021-.006-.1-.034-.025-.009-.1-.035-.124-.045c-.078-.028-.158-.058-.239-.089l-.017-.007-.125-.049a9.352,9.352,0,0,0-.057-1.128,25.218,25.218,0,0,0,4.537-.443" transform="translate(-78.526 -853.371)" fill="#ffb17d" fill-rule="evenodd"/>
        <path id="Path_1026449" data-name="Path 1026449" d="M224.927,611.51a61.073,61.073,0,0,1-.6,8.812,41.118,41.118,0,0,0,6.229,6.025c4.717.272,9.77-.822,17.558-3.178a95.813,95.813,0,0,1-17.363,2.276,41.832,41.832,0,0,1-5.522-5.453,76.587,76.587,0,0,0-.3-8.481" transform="translate(-178.928 -487.753)" fill="#0c326d" fill-rule="evenodd"/>
        <path id="Path_1026450" data-name="Path 1026450" d="M109.314,678.862q-.408-5.1-.77-8.776a9.129,9.129,0,0,1-.79,2.058c.351,2.5.832,4.673.948,6.909a147.449,147.449,0,0,1-1.833,16.411,4.388,4.388,0,0,0,.463.386,89.056,89.056,0,0,0,1.981-16.988" transform="translate(-85.241 -534.474)" fill="#163560" fill-rule="evenodd"/>
        <path id="Path_1026451" data-name="Path 1026451" d="M159.676,757.558a15.812,15.812,0,0,0,7.388-.486q-.1-1.081-.21-2.279a21.05,21.05,0,0,1-7.041.21q-.062,1.258-.137,2.555" transform="translate(-127.361 -602.038)" fill="#134da7" fill-rule="evenodd"/>
        <path id="Path_1026452" data-name="Path 1026452" d="M169.909,754.787l2.638-.074a.263.263,0,0,1,.272.264V757.8a.282.282,0,0,1-.272.28l-2.638.074a.263.263,0,0,1-.272-.264v-2.828a.282.282,0,0,1,.272-.28" transform="translate(-135.306 -601.974)" fill="#fff" fill-rule="evenodd"/>
        <path id="Path_1026453" data-name="Path 1026453" d="M172.225,757.336v2.349l2.134-.06v-2.349Z" transform="translate(-137.37 -604.019)" fill="#134da7" fill-rule="evenodd"/>
        <path id="Path_1026454" data-name="Path 1026454" d="M133.321,521.469c.1.008.208.011.32.011l-.1.085Zm.589,0c.062,0,.125-.007.187-.012-.056.032-.11.064-.164.1Zm2.42-2a21.838,21.838,0,0,0,4.272,2.774c.1.051.207.1.312.15l-.106.127c.222.269.543.613.893.98a2.238,2.238,0,0,0,.32-.117c.24-.446.324-.852.521-1.23-.027-.22-.051-.437-.073-.651-.024-.258-.106-1.18-.146-1.431.131-.009.259-.019.381-.033.153-.019.33-.048.535-.086l.008.008q2.409-.456,1.994-2.469c.648-2.771.739-5.176.035-5.823q-.177-1.777-.454-3.367c-3.981-.516-6.988-.243-8.273,1.667a34.374,34.374,0,0,0,1.051,4.546,1.168,1.168,0,0,1-1.028.694,5.073,5.073,0,0,0-1.422-1.98q-2.843,1.276,1.069,3.933.231.916.442,1.517a5.456,5.456,0,0,1-.329.791" transform="translate(-106.339 -405.248)" fill="#ffb17d" fill-rule="evenodd"/>
        <path id="Path_1026455" data-name="Path 1026455" d="M168.353,567.072a11.58,11.58,0,0,1-2.4-.073,9.1,9.1,0,0,0,2.512,1.2q-.024-.247-.044-.488c-.027-.268-.053-.523-.072-.637" transform="translate(-132.37 -452.25)" fill="#ef8161" fill-rule="evenodd"/>
        <path id="Path_1026456" data-name="Path 1026456" d="M81.029,799.107c.016.6.232,1.514-.153,1.948a4.074,4.074,0,0,1-4.538.485c-.457-.315-.51-1.34-.522-2a11.887,11.887,0,0,0,.885-3.87,3.652,3.652,0,0,1,3.256-.412Z" transform="translate(-60.472 -634.137)" fill="#ffb17d" fill-rule="evenodd"/>
        <path id="Path_1026457" data-name="Path 1026457" d="M173.007,549.822a10.922,10.922,0,0,0,3.113-.386c.479-.116-.507,3.57-3.181.58-.064-.071-.028-.2.068-.194" transform="translate(-137.914 -438.239)" fill="#eb7d63" fill-rule="evenodd"/>
        <path id="Path_1026458" data-name="Path 1026458" d="M158.051,518.15c.6.044.565.521.122.634-4.717,1.183-1.6-.747-.122-.634" transform="translate(-124.162 -413.283)" fill="#22407a" fill-rule="evenodd"/>
        <path id="Path_1026459" data-name="Path 1026459" d="M180.37,515.735c-.56.215-.389.662.068.642,4.855-.238,1.318-1.18-.068-.642" transform="translate(-143.586 -411.23)" fill="#22407a" fill-rule="evenodd"/>
        <path id="Path_1026460" data-name="Path 1026460" d="M178.644,529.352l.03,0c.522-.116.8-.186.9-.383.09-.181,0-.384-.164-.753a10.245,10.245,0,0,1-.7-2.046.143.143,0,0,0-.167-.1.138.138,0,0,0-.1.167,10.653,10.653,0,0,0,.714,2.1c.109.243.2.451.17.514-.044.088-.412.171-.71.236a.138.138,0,0,0,.03.273" transform="translate(-142.323 -419.597)" fill="#eb7d63" fill-rule="evenodd"/>
        <path id="Path_1026461" data-name="Path 1026461" d="M186.842,525.963c.341-.036.47-1.363-.357-1.274-.442.048-.2,1.333.357,1.274" transform="translate(-148.561 -418.499)" fill="#22407a" fill-rule="evenodd"/>
        <path id="Path_1026462" data-name="Path 1026462" d="M164.327,528.4c.341-.039.47-1.363-.357-1.273-.44.046-.2,1.332.357,1.273" transform="translate(-130.604 -420.443)" fill="#22407a" fill-rule="evenodd"/>
        <path id="Path_1026463" data-name="Path 1026463" d="M173.632,550.209c-.422.455,2.4.487,2.891.038.053-.048.224-.307.165-.382s-.386.061-.475.082a8.739,8.739,0,0,1-2.581.261" transform="translate(-138.458 -438.565)" fill="#fdfdfd" fill-rule="evenodd"/>
        <path id="Path_1026464" data-name="Path 1026464" d="M558.323,834.867c.317-.107,1.385-.357,2.63-.775q1.918.78,5.052-.462a3.7,3.7,0,0,0,.218-3.85,7.7,7.7,0,0,1-4.339.908q2.321-1.529.719-1.816a1.233,1.233,0,0,1-.665.595,2.959,2.959,0,0,0-2.309,2.183c-.574.155-1.167.3-1.472.393a4.951,4.951,0,0,1,.166,2.824" transform="translate(-445.197 -661.125)" fill="#ffb17d" fill-rule="evenodd"/>
        <path id="Path_1026465" data-name="Path 1026465" d="M290.51,1027.83s-.422.819-1.035,1.988c-1.5,2.864-4.147,7.827-4.5,8.005-.5.255-.553-.149-.553-.149l2.108-8.086.61-2.338Z" transform="translate(-226.858 -819.355)" fill="#cbd4e8" fill-rule="evenodd"/>
        <path id="Path_1026466" data-name="Path 1026466" d="M298.817,1027.83s-.422.819-1.035,1.988a14.384,14.384,0,0,0-2.948-.229l.61-2.338Z" transform="translate(-235.165 -819.355)" fill="#c0cce4" fill-rule="evenodd"/>
        <path id="Path_1026467" data-name="Path 1026467" d="M289.5,1028.811c-.527,1.33-3.915,9.832-4.421,10.31a.457.457,0,0,0,.419-.051c.5-.252,5.538-10,5.538-10Z" transform="translate(-227.386 -820.6)" fill="#c0cce4" fill-rule="evenodd"/>
        <path id="Path_1026468" data-name="Path 1026468" d="M381.318,1019.663l-1.359,7.15s.227.831.78.125,3.047-5.792,3.047-5.792Z" transform="translate(-303.063 -813.303)" fill="#c0cce4" fill-rule="evenodd"/>
        <path id="Path_1026469" data-name="Path 1026469" d="M416.2,1042.078c-.53,1.209-1.285,0-1.285,0l-2.143-13.654-.351-2.231,3.475-1s.031,1.035.073,2.593c.125,4.662.361,14,.23,14.287" transform="translate(-328.956 -817.718)" fill="#cbd4e8" fill-rule="evenodd"/>
        <path id="Path_1026470" data-name="Path 1026470" d="M415.578,1042.069l-1.8-15.98,2.129-.511c-.007-.244-.011-.379-.011-.379l-3.476.994,2.494,15.887s.532.851,1.015.41a1.682,1.682,0,0,1-.353-.42" transform="translate(-328.956 -817.718)" fill="#c0cce4" fill-rule="evenodd"/>
        <path id="Path_1026471" data-name="Path 1026471" d="M415.972,1027.791a9.31,9.31,0,0,0-3.2.633l-.351-2.231,3.475-1s.031,1.035.073,2.593" transform="translate(-328.956 -817.718)" fill="#c0cce4" fill-rule="evenodd"/>
        <path id="Path_1026472" data-name="Path 1026472" d="M520.926,1014.509a.606.606,0,0,1-.184.442c-.235.192-.646.088-.987-.252-.358-.36-2.991-7.757-4.386-11.729-.516-1.47-.863-2.472-.863-2.472l1.843-.487,2.159-.571s.145.849.365,2.142c.679,4.037,2.082,12.414,2.053,12.927" transform="translate(-410.38 -797.173)" fill="#cbd4e8" fill-rule="evenodd"/>
        <path id="Path_1026473" data-name="Path 1026473" d="M520.848,1017.065c-.242.422-.752.224-1.094-.117-.492-.493-5.248-14.2-5.248-14.2l1.843-.487c.866,3.685,3.53,13.884,4.127,14.569a.546.546,0,0,0,.372.236" transform="translate(-410.38 -799.422)" fill="#c0cce4" fill-rule="evenodd"/>
        <path id="Path_1026474" data-name="Path 1026474" d="M518.873,1001.582a10.255,10.255,0,0,0-3.5,1.388c-.516-1.47-.863-2.472-.863-2.472l1.843-.487,2.159-.571s.144.849.365,2.142" transform="translate(-410.38 -797.173)" fill="#c0cce4" fill-rule="evenodd"/>
        <path id="Path_1026475" data-name="Path 1026475" d="M428.4,890.015a2.487,2.487,0,0,1-.719.114c-1.509.052-3.322,0-3.322,0S398.6,875.376,398.448,875.15s-.326-5.264-.326-5.264c.143-.773.224-1.814,2.215-2.854a10.9,10.9,0,0,1,1.16-.52c3.121-1.208,12.688-3.876,14.551-4.329a29.025,29.025,0,0,1,6.337-.815l.1,0c1.789.036,3.34.412,3.787,1.517,1.056,2.618,2.164,14.2,2.315,15.356s.807,9.747.857,10.313a1.376,1.376,0,0,1-1.045,1.458" transform="translate(-317.55 -687.044)" fill="#cbd4e8" fill-rule="evenodd"/>
        <path id="Path_1026476" data-name="Path 1026476" d="M400.242,897.228c.636,0,2.65,1.145,3.841,1.888a15.793,15.793,0,0,0,3.848,1.751c.9.093,4.09.621,4.741.667,1.016.072,3.87.446,5.211.572a8.524,8.524,0,0,1,3.931,1.541c.366.491-1.837.369-3.931.369s-14.373.636-14.373.636-3.108.9-3.267,0,0-7.424,0-7.424" transform="translate(-319.185 -715.647)" fill="#c0cce4" fill-rule="evenodd"/>
        <path id="Path_1026477" data-name="Path 1026477" d="M434.852,876.367c-.037.493-.03,3.473-.019,5.808.01,1.591.019,2.881.019,2.881s-4.261-6.907-4.442-7.163a31.41,31.41,0,0,1-.711-4.581c-.064-.954-.521-9.189-1.274-9.608-1.908-1.06-18.125,3.371-19.352,3.328a10.882,10.882,0,0,1,1.158-.52c2.566-.992,9.491-2.973,12.907-3.9.738-.2,1.315-.349,1.644-.432a29.028,29.028,0,0,1,6.337-.815l.1,0a18.42,18.42,0,0,1,1.534,3.478c0,.7,2.163,10.689,2.1,11.518" transform="translate(-326.284 -687.044)" fill="#dbe1ef" fill-rule="evenodd"/>
        <path id="Path_1026478" data-name="Path 1026478" d="M493.276,889.58a1.537,1.537,0,0,1-.711.435c-.365-1.226-1.387-4.664-2.3-7.84a57.1,57.1,0,0,1-1.253-6.085c-.276-.848-1.032-13.659-2.919-13.957-.51-.08-7.579.858-7.523.481.738-.2,1.315-.349,1.644-.432a29.025,29.025,0,0,1,6.337-.815l.1,0a7.909,7.909,0,0,1,2.362.345,2.178,2.178,0,0,1,1.424,1.172c1.056,2.618,2.164,14.2,2.315,15.356s.807,9.747.857,10.313a1.37,1.37,0,0,1-.334,1.023" transform="translate(-381.717 -687.044)" fill="#e4e9f3" fill-rule="evenodd"/>
        <path id="Path_1026479" data-name="Path 1026479" d="M261.406,813.982l-6.6,1.108-19.219-.344-1.759-.032-4.3-.077c-.6-.906-3.826-11.983-4.33-15.911s-1.311-8.208-1.261-10.021a3.566,3.566,0,0,1,.206-1.243,1.068,1.068,0,0,1,.565-.62,2.393,2.393,0,0,1,.638-.15c.707-.1,19.639-2.267,22.108-2.47,1.935-.157,3.373-.1,4.172.371a1.535,1.535,0,0,1,.386.315,1.447,1.447,0,0,1,.124.171,15.389,15.389,0,0,1,.914,2.885c.349,1.374.718,2.985,1.041,4.341.109.465.216.9.31,1.286a39.066,39.066,0,0,0,3.627,8.507c.906,1.359,2.669,8.008,3.374,11.883" transform="translate(-178.617 -625.45)" fill="#dbe1ef" fill-rule="evenodd"/>
        <path id="Path_1026480" data-name="Path 1026480" d="M260.788,789.585c-.538-.142-1.991-1.595-2.585-1.677a14.882,14.882,0,0,0-3.621.254c-1.2.255-5.542.637-6.135.637a32.871,32.871,0,0,0-4.453.636,20.236,20.236,0,0,1-3.607.467,6.671,6.671,0,0,0-3.372.848c-1,.656-1.6,3.226-2.185,3.313-1.263.191-1.358-5.01-1.044-5.392s2.613-.253,3.713-.414,4.84-.517,5.35-.561,5.3-.466,5.98-.508,4.93-.6,5.223-.641,2.114-.219,3.092-.293a12.272,12.272,0,0,1,2.22-.037,1.536,1.536,0,0,1,.386.314,1.47,1.47,0,0,1,.124.172,15.387,15.387,0,0,1,.914,2.885" transform="translate(-186.351 -627.07)" fill="#e4e9f3" fill-rule="evenodd"/>
        <path id="Path_1026481" data-name="Path 1026481" d="M252.833,784.909h0a7.622,7.622,0,0,0-2.6-.277c-.34,0-3.436.3-4.709.511s-3.267.719-4.326.848-5.05.254-6.917.424-4.708.892-5.641,1.018a12.527,12.527,0,0,1-2.545,0l-1.125.03a1.067,1.067,0,0,1,.565-.62,2.4,2.4,0,0,1,.638-.15c.707-.1,19.639-2.267,22.108-2.469,2.3-.186,3.9-.068,4.557.686" transform="translate(-179.436 -625.45)" fill="#c0cce4" fill-rule="evenodd"/>
        <path id="Path_1026482" data-name="Path 1026482" d="M275.669,850.191l-6.6,1.108-19.219-.344-1.759-.032-2.579-3.484s-3.06-10.4-3.5-12.339-.132-6.445,1.021-3.908a35.88,35.88,0,0,0,3.055,5.217c1.06,1.509,3.9,2.854,6.618,4.18,3.307,1.611,8.549-.038,10.116-.544a7.112,7.112,0,0,0,4.045-3.719,12.821,12.821,0,0,0,1.078-3.9c-.285-3.465.629-3.016.723-2.631a39.065,39.065,0,0,0,3.627,8.507c.906,1.359,2.669,8.008,3.373,11.883" transform="translate(-192.88 -661.659)" fill="#cbd4e8" fill-rule="evenodd"/>
        <path id="Path_1026483" data-name="Path 1026483" d="M235.59,825.275l-6.058-.109c-.6-.906-3.827-11.985-4.33-15.911s-1.311-8.208-1.261-10.021c.035-1.235.352-1.677.771-1.863a1.662,1.662,0,0,1,2.024,1.146c.642,2.114-.037,4.531.87,8.27s7.665,15.333,7.665,15.333Z" transform="translate(-178.618 -635.979)" fill="#c0cce4" fill-rule="evenodd"/>
        <path id="Path_1026484" data-name="Path 1026484" d="M428.09,931.809c0,.256,0,.529-.024.825a31.773,31.773,0,0,1-.482,3.282c-.33,1.76-.729,3.535-.877,4.37a2.22,2.22,0,0,1-.592,1.233,1.545,1.545,0,0,1-.166.152,2.361,2.361,0,0,1-.442.272l-.014.005a4.866,4.866,0,0,1-1.306.356c-1.31.2-17.573,4.43-18.53,4.581-.612.1-1.121.358-2.042.547a10.105,10.105,0,0,1-1.517.19c-.161.009-.337.016-.52.02-.261.005-.536-.224-.819-.64-1.375-2.018-2.917-8.405-3.948-13.281-.013-.064-.026-.125-.038-.185-.689-3.267-1.136-5.81-1.136-5.81a114.411,114.411,0,0,1,14.729-.983,108.617,108.617,0,0,1,13.039,1.2,11.838,11.838,0,0,1,2.066.536,5.465,5.465,0,0,1,1.7.986h0a3.006,3.006,0,0,1,.917,2.342" transform="translate(-315.568 -739.166)" fill="#dbe1ef" fill-rule="evenodd"/>
        <path id="Path_1026485" data-name="Path 1026485" d="M418.256,927.528a9.276,9.276,0,0,1-2.949.674c-1.862.21-6.992.827-8.365.827-.892,0-3.607.839-5.2,1.177s-3.924.391-5.221,1.411c-.832.65-2.365.747-3.623.966-.688-3.269.369-4.857.369-4.857A114.409,114.409,0,0,1,408,926.742a69.177,69.177,0,0,1,10.26.786" transform="translate(-313.198 -739.166)" fill="#cbd4e8" fill-rule="evenodd"/>
        <path id="Path_1026486" data-name="Path 1026486" d="M447.771,967.951c-.331,1.759-.728,3.535-.877,4.37a2.219,2.219,0,0,1-.592,1.233,1.531,1.531,0,0,1-.166.152,2.37,2.37,0,0,1-.442.272l-.014.005a4.848,4.848,0,0,1-1.306.356c-1.31.2-17.573,4.43-18.53,4.581-.612.1-1.121.358-2.043.547a10.038,10.038,0,0,1-1.517.19c-.162.009-.337.016-.52.02-.261.005-.536-.224-.819-.64.875-2.15,2.092-6.307,2.092-6.307a3.87,3.87,0,0,0,2.683.416c1.91-.194,3.947-1.549,5.473-1.781,2.365-.362,5.6-.657,6.7-.848s3.31-1.559,4.582-1.782c1.559-.273,3,.021,3.5-.159a8.375,8.375,0,0,0,1.984-1.7Z" transform="translate(-335.755 -771.2)" fill="#cbd4e8" fill-rule="evenodd"/>
        <path id="Path_1026487" data-name="Path 1026487" d="M451.714,942.656c-.891.192-2.04.2-3.294.349-2.674.318-7.174,1.292-8.528,1.562s-9.523,1.747-10.606,2.511a5.955,5.955,0,0,0-1.621,2.822l-2.409-4.475c2.441-.318,10.818-2.462,14.041-3.139s8.57-1.188,11.5-1.971h0a3.006,3.006,0,0,1,.917,2.342" transform="translate(-339.193 -750.013)" fill="#e4e9f3" fill-rule="evenodd"/>
        <path id="Path_1026488" data-name="Path 1026488" d="M407.071,975.231c-.519.108,0,0-.871.019-1.538.032-3.525-8.043-4.768-13.92,1.756.124,4.458.328,5.4.5,1.433.264,1.962,1.776,1.85,3.588a16.681,16.681,0,0,1-.145,3.855,37.692,37.692,0,0,1-1.465,5.957" transform="translate(-320.19 -766.776)" fill="#c0cce4" fill-rule="evenodd"/>
        <path id="Path_1026489" data-name="Path 1026489" d="M451.413,998.923c-.112.072-.266.165-.442.272l-.014,0a4.857,4.857,0,0,1-1.306.356c-1.31.2-17.573,4.43-18.53,4.581-.612.1-1.121.358-2.043.547a10.058,10.058,0,0,1-1.517.19l.508-.616a13.6,13.6,0,0,0,3-.587c1.951-.531,5.155-1.327,6.809-1.75s4.184-1.108,4.947-1.448a36.416,36.416,0,0,1,4.551-.946c.508-.085,2.751-.5,3.1-.565s.985-.386,1.33-.467c.07-.019-.231.321-.393.429" transform="translate(-341.032 -796.418)" fill="#c0cce4" fill-rule="evenodd"/>
        <path id="Path_1026490" data-name="Path 1026490" d="M554.6,1098.156c-3.832-.061-6.694-.108-8.017-.525-1.426-.45-1.132-1.321-.312-2.712,3.611,1.66,2.648-.341,4.337-.088a10.725,10.725,0,0,0,5.271,1.92c.983.726.584,1.373-1.279,1.405" transform="translate(-435.169 -873.24)" fill="#0c326d" fill-rule="evenodd"/>
        <path id="Path_1026491" data-name="Path 1026491" d="M451.618,822.986H427.953a1.18,1.18,0,0,0-1.071.848l-4.211,16.033a.634.634,0,0,0,.625.848h23.667a1.181,1.181,0,0,0,1.07-.848l4.211-16.033a.632.632,0,0,0-.625-.848" transform="translate(-337.108 -656.43)" fill="#cbd4e8" fill-rule="evenodd"/>
        <path id="Path_1026492" data-name="Path 1026492" d="M356.839,752.2l-2.858,10.886a67.981,67.981,0,0,1-11.907-7.813,35.722,35.722,0,0,0-.434-3.713q.522-1.035,1.145-2.212-6.006-.038-7.324-2.583a52.379,52.379,0,0,1,4.49-9.6q2.017-2.984,7.9-3.508c.458,5.261,8.527,4.99,6.629.462a15.764,15.764,0,0,1,7.441,4.355,69.4,69.4,0,0,1,3.2,9.02,15.741,15.741,0,0,1-5.4,2.582,11.843,11.843,0,0,0-.183,1.272h-1.634a1.182,1.182,0,0,0-1.07.848" transform="translate(-267.571 -585.184)" fill="#2e76e5" fill-rule="evenodd"/>
        <path id="Path_1026493" data-name="Path 1026493" d="M421.586,832.812l2.858-10.886a1.182,1.182,0,0,1,1.07-.848h23.667c.466,0,1.3.6,1.159,1.064a.619.619,0,0,0-.653-.678H426.021a1.18,1.18,0,0,0-1.071.848l-4.211,16.033a.671.671,0,0,0,.169.685c-.39-.252-.762-.739-.674-1.07Z" transform="translate(-335.176 -654.908)" fill="#c0cce4" fill-rule="evenodd"/>
        <path id="Path_1026494" data-name="Path 1026494" d="M394.8,906.019h23.667a.979.979,0,0,0,.26-.037c-.472,1.221-1.752,1.041-2.251,1.036H388.416c-1.52-.065-1.481-1.131-1.5-2.159h6.741a1.387,1.387,0,0,0,.686,1,.67.67,0,0,0,.456.163" transform="translate(-308.611 -721.733)" fill="#b5c3de" fill-rule="evenodd"/>
        <path id="Path_1026495" data-name="Path 1026495" d="M431.952,855.561c13.032,6.592,13.008-.3,22.041,3.239l-1.761,6.7h-22.89Z" transform="translate(-342.451 -682.412)" fill="#c0cce4" fill-rule="evenodd"/>
        <path id="Path_1026496" data-name="Path 1026496" d="M362.5,873.637a24.93,24.93,0,0,0,1.018-4.48c3.188,1.234,6.832,2.425,11.439,4.245l-.623,2.368q-10.444.343-11.834-2.134" transform="translate(-289.139 -693.257)" fill="#699ced" fill-rule="evenodd"/>
        <path id="Path_1026497" data-name="Path 1026497" d="M348.6,820.326c-4.608-1.821-8.252-3.011-11.439-4.245a39,39,0,0,1-7.706-3.827,29.468,29.468,0,0,1,1.858-9.641q1.78,1.7,6.682,1.733-1.419,2.683-2.313,4.624a71.739,71.739,0,0,0,13.508,9.113Z" transform="translate(-262.779 -640.181)" fill="#ffb17d" fill-rule="evenodd"/>
        <path id="Path_1026498" data-name="Path 1026498" d="M459.419,804.087q.533,1.862.987,3.439h-5.952a11.54,11.54,0,0,1,.182-1.272,15.008,15.008,0,0,0,4.783-2.167" transform="translate(-362.481 -641.356)" fill="#ffb17d" fill-rule="evenodd"/>
        <path id="Path_1026499" data-name="Path 1026499" d="M497.841,949.77q-5.281-19.149-3.778-26.9a31.036,31.036,0,0,1-6.026.269c.306-1.381.614-2.765.929-4.168-.036-1.9-1.008-3.315-4.459-4.329h9.809a3.03,3.03,0,0,0,1.57-.226c3.16.9,4.7,2.393,5.231,4.213.385,5.008-.656,10.713.231,31.182a16.153,16.153,0,0,1-3.507-.038" transform="translate(-386.452 -729.354)" fill="#0c326d" fill-rule="evenodd"/>
        <path id="Path_1026500" data-name="Path 1026500" d="M532.216,914.639h.154a3.031,3.031,0,0,0,1.57-.226c3.16.9,4.7,2.394,5.231,4.213.385,5.008-.656,10.713.231,31.182a15.031,15.031,0,0,1-2.048.069c-1.818-7.114-6.144-24.569-1.27-32.091a19.013,19.013,0,0,0-3.868-3.148" transform="translate(-424.506 -729.354)" fill="#0c326d" fill-rule="evenodd"/>
        <path id="Path_1026501" data-name="Path 1026501" d="M392.4,688.156a8.21,8.21,0,0,0,1.34-2.067c-.126-.361-.259-.815-.4-1.365q-3.524-2.392-.963-3.541a4.573,4.573,0,0,1,1.281,1.782,1.051,1.051,0,0,0,.926-.625,30.979,30.979,0,0,1-.947-4.093c1.157-1.72,3.864-1.965,7.448-1.5q.249,1.431.409,3.031c.634.584.552,2.749-.032,5.242q.438,2.128-2.627,2.323a4.4,4.4,0,0,0,.185,1.221h0a.08.08,0,0,0,.005.016c1.865,4.5-6.12,4.772-6.629-.425" transform="translate(-312.113 -539.622)" fill="#ffb17d" fill-rule="evenodd"/>
        <path id="Path_1026502" data-name="Path 1026502" d="M390.531,660.311c-3.584-.464-6.292-.219-7.448,1.5a30.987,30.987,0,0,0,.947,4.093,1.054,1.054,0,0,1-.926.625,4.564,4.564,0,0,0-1.282-1.782q-2.56,1.147.964,3.541c.138.551.27,1,.4,1.366a6.5,6.5,0,0,1-4.131-3.181c-2.464-4.86.284-6.911,1.755-7.659.649-4.811,7.636-.559,11.137-2.879,1.392,1.923-.329,4.333-1.413,4.377" transform="translate(-301.552 -523.186)" fill="#22407a" fill-rule="evenodd"/>
        <path id="Path_1026503" data-name="Path 1026503" d="M415.428,729.613a20.484,20.484,0,0,0,2.654.061,3.674,3.674,0,0,0,.129,1.007,3.624,3.624,0,0,1-2.783-1.068" transform="translate(-331.353 -581.954)" fill="#ef8161" fill-rule="evenodd"/>
        <path id="Path_1026504" data-name="Path 1026504" d="M364.068,906.067c-4.13-1.482-4.691-5.6-2.874-11.809q2.238,1.832,11.316,1.534l-.14.539a.35.35,0,0,0-.012.073h-6.742c.02,1.028-.02,2.094,1.5,2.159h18.25c3.45,1.014,4.423,2.426,4.459,4.329-2.185,9.759-4.127,18.707-6.775,31.073a4.354,4.354,0,0,1-3.661-.116q-1.863-17.986,1.021-26.162a100.728,100.728,0,0,1-16.341-1.62" transform="translate(-287.311 -713.278)" fill="#0e397c" fill-rule="evenodd"/>
        <path id="Path_1026505" data-name="Path 1026505" d="M364.067,906.067c-4.128-1.482-4.69-5.595-2.873-11.809a4.477,4.477,0,0,0,1.261.682c-1.5,6.386.131,9.885,4.984,10.221a93.721,93.721,0,0,0,14.08,1.21q-2.464,15.971-.846,27.848a7.94,7.94,0,0,1-1.284-.37q-1.863-17.986,1.021-26.162a100.756,100.756,0,0,1-16.343-1.62" transform="translate(-287.311 -713.278)" fill="#0e397c" fill-rule="evenodd"/>
        <path id="Path_1026506" data-name="Path 1026506" d="M553.431,1089.273a3.53,3.53,0,0,0,.5,1.087c-1.1.1-.678,1.526-3.663.221a4.684,4.684,0,0,0,.214-1.358,16.332,16.332,0,0,0,2.949.051" transform="translate(-438.905 -868.785)" fill="#ffb17d" fill-rule="evenodd"/>
        <path id="Path_1026507" data-name="Path 1026507" d="M455.788,1101.9c-2.033-.839-2.338-2.2-3.455-2.726s-1.256-1.463-.155-2.48c.814.65,1.822,1.447,2.357,1.026.357-.283,1.567-.264,1.807.147,1.054,2.45,2.52,1.674,2.809,2.788.033,1.485-2.082,1.773-3.363,1.245" transform="translate(-360.059 -874.748)" fill="#0c326d" fill-rule="evenodd"/>
        <path id="Path_1026508" data-name="Path 1026508" d="M459.158,1090.813a6.268,6.268,0,0,0,.267,1.961,1.784,1.784,0,0,0-1.175.163c-.495.391-1.4-.265-2.175-.881a5.308,5.308,0,0,0,.256-1.359,4.383,4.383,0,0,0,2.826.115" transform="translate(-363.775 -869.962)" fill="#ffb17d" fill-rule="evenodd"/>
        <path id="Path_1026509" data-name="Path 1026509" d="M364.354,790.789a28.047,28.047,0,0,0,1.669-3.838,31.627,31.627,0,0,1-.809,4.759,32.372,32.372,0,0,1,.539,6.635q-1.045-.784-2.11-1.631a35.657,35.657,0,0,0-.434-3.713q.522-1.035,1.145-2.212m18.165.375a11.634,11.634,0,0,1-1.225.357q.229-3.573.3-5.905.687,3.444.923,5.549M362.5,807a24.93,24.93,0,0,0,1.018-4.48c.591.228,1.2.455,1.821.684a44.2,44.2,0,0,1-1.063,5.076A3.23,3.23,0,0,1,362.5,807" transform="translate(-289.139 -626.623)" fill="#134da7" fill-rule="evenodd"/>
        <path id="Path_1026510" data-name="Path 1026510" d="M413.819,684.5c-1.062-.234-2.885.909-2.292,1.027.192.038.736-.288.944-.345.417-.116,1.222-.058,1.449-.332a.228.228,0,0,0-.1-.35" transform="translate(-328.149 -545.944)" fill="#22407a" fill-rule="evenodd"/>
        <path id="Path_1026511" data-name="Path 1026511" d="M431.093,684.747c.227.272,1.032.214,1.449.33.208.056.751.381.945.34.591-.118-1.236-1.267-2.293-1.022a.222.222,0,0,0-.1.352" transform="translate(-343.808 -545.86)" fill="#22407a" fill-rule="evenodd"/>
        <path id="Path_1026512" data-name="Path 1026512" d="M417.437,692.565c-.307,0-.547-1.17.2-1.17.4,0,.305,1.17-.2,1.17" transform="translate(-332.72 -551.47)" fill="#22407a" fill-rule="evenodd"/>
        <path id="Path_1026513" data-name="Path 1026513" d="M435.765,692.6c.309,0,.55-1.17-.2-1.17-.4,0-.307,1.17.2,1.17" transform="translate(-347.22 -551.502)" fill="#22407a" fill-rule="evenodd"/>
        <path id="Path_1026514" data-name="Path 1026514" d="M429.667,695.62c-.075-.11.129-.2.247-.276.437-.283.544-.06-.42-1.972-.189-.374-.333-.56-.2-.622s.151.11.366.534c1.048,2.081.953,1.812.135,2.36a.092.092,0,0,1-.13-.024" transform="translate(-342.372 -552.543)" fill="#ef8161" fill-rule="evenodd"/>
        <path id="Path_1026515" data-name="Path 1026515" d="M424.153,714.117c-.126-.228.2-.166,2.213-.379.6-.063-1.17,2.28-2.213.379" transform="translate(-338.294 -569.291)" fill="#ef8161" fill-rule="evenodd"/>
        <path id="Path_1026516" data-name="Path 1026516" d="M282.5,914.426c-.137.033-.937.061-2.175.082-6.07.1-22.7.044-23.909-.082-1.46-.151-2.617-.454-3.425-2.97-.59-1.847-2.989-8.732-4.337-12.372a20.113,20.113,0,0,0-.919-2.281c-.283-.251-1.768-.24-1.088-1.513a22.493,22.493,0,0,1,8.209-6.342s8-3.323,12.185-4.08,8.458-1.35,9.619.4S283,911.808,283.1,912.363s.2,1.863-.6,2.064" transform="translate(-196.588 -705.197)" fill="#cbd4e8" fill-rule="evenodd"/>
        <path id="Path_1026517" data-name="Path 1026517" d="M282.5,914.426a7.7,7.7,0,0,1-.9.052c-.342.011-.776.021-1.279.03a6.115,6.115,0,0,1-1.4-2.625c-.452-1.058-3.053-9.854-4.309-13.1-1.285-3.318-2.966-8.748-4.248-9.009-1.671-.344-11.988,1.478-14.355,2.4a68.1,68.1,0,0,0-8.277,4.633c-.282-.251-1.769-.242-1.088-1.512a22.478,22.478,0,0,1,8.208-6.343s5.364-2.227,9.6-3.45h.008c.938-.27,1.819-.491,2.575-.629,4.179-.755,8.458-1.35,9.619.4s6.343,26.537,6.444,27.092.2,1.862-.6,2.064" transform="translate(-196.592 -705.197)" fill="#dbe1ef" fill-rule="evenodd"/>
        <path id="Path_1026518" data-name="Path 1026518" d="M375.174,914.427a7.731,7.731,0,0,1-.9.052,2.5,2.5,0,0,1-1.169-.807c-.458-.827-1.712-5.74-2.6-8.258s-4.6-14.149-5.3-15.861-1.535-3.651-2.253-4.256c-.7-.589-.086-.972,1.339-1.095,2.376-.2,4.32-.025,5.045,1.07,1.157,1.754,6.343,26.537,6.444,27.092s.2,1.862-.6,2.064" transform="translate(-289.264 -705.198)" fill="#e4e9f3" fill-rule="evenodd"/>
        <path id="Path_1026519" data-name="Path 1026519" d="M273.066,912.838a99.277,99.277,0,0,0-10.713,2.813,68.267,68.267,0,0,0-5.727,3.722,11.955,11.955,0,0,1-2.989,1.572,20.21,20.21,0,0,0-.919-2.281c1.332-.842,5.048-3.5,6.9-4.255a33.009,33.009,0,0,1,5.706-1.888,50.385,50.385,0,0,1,8.856-.913c1.173.027,1.9-.369,2.333.447.255.477-2.515.69-3.445.782" transform="translate(-201.572 -727.059)" fill="#c0cce4" fill-rule="evenodd"/>
        <path id="Path_1026520" data-name="Path 1026520" d="M397.624,290.2a30.652,30.652,0,0,0-26.9-4.665,31.041,31.041,0,0,0-5.455,2.212,30.733,30.733,0,0,0-9.2,7.336,30.237,30.237,0,0,0-3.382,4.865l.545.775a.827.827,0,0,1,.083.151l.361.8a29.027,29.027,0,0,1,42.135-10.688,16.823,16.823,0,0,1,1.808-.787m8.815,35.419a29.023,29.023,0,0,1-44.354,12.557l-1.55.369a.842.842,0,0,1-.207.025l-.451.009a30.74,30.74,0,0,0,22.518,6.926,30.159,30.159,0,0,0,5.822-1.137,30.593,30.593,0,0,0,5.455-2.211,30.961,30.961,0,0,0,4.934-3.209,30.52,30.52,0,0,0,9.255-12.341Z" transform="translate(-281.314 -226.729)" fill="#c0cce4" fill-rule="evenodd"/>
        <path id="Path_1026521" data-name="Path 1026521" d="M451.616,272.231q4.367-.87,8.735-1.737-4.326-1.043-8.659-2.091l-8.255-3.473-.176.082,2.588,4.48.414.717-.445.7-2.764,4.341.172.118Z" transform="translate(-353.387 -211.314)" fill="#c0cce4" fill-rule="evenodd"/>
        <path id="Path_1026522" data-name="Path 1026522" d="M517.548,534.777q-3.318,2.47-6.63,4.942,4.049-.854,8.091-1.7l8.3-.382.118-.142-3.956-2.72-.635-.436.1-.766.584-4.737-.194-.031Z" transform="translate(-407.518 -421.783)" fill="#c0cce4" fill-rule="evenodd"/>
        <path id="Path_1026523" data-name="Path 1026523" d="M260.973,398.072h-13.79a12.765,12.765,0,0,0-12.691,12.577v.836a12.663,12.663,0,0,0,12.691,12.457h4.463l-2.8,7.4,10.663-7.4h1.463a12.5,12.5,0,0,0,12.5-12.456v-.837a12.6,12.6,0,0,0-12.5-12.577" transform="translate(-187.036 -317.51)" fill="#dbe1ef" fill-rule="evenodd"/>
        <path id="Path_1026524" data-name="Path 1026524" d="M364.668,455.707a2.461,2.461,0,1,0,2.46-2.462,2.46,2.46,0,0,0-2.46,2.462" transform="translate(-290.866 -361.517)" fill="#fff" fill-rule="evenodd"/>
        <path id="Path_1026525" data-name="Path 1026525" d="M319.028,455.707a2.461,2.461,0,1,0,2.462-2.462,2.461,2.461,0,0,0-2.462,2.462" transform="translate(-254.463 -361.517)" fill="#fff" fill-rule="evenodd"/>
        <path id="Path_1026526" data-name="Path 1026526" d="M273.4,455.707a2.461,2.461,0,1,0,2.46-2.462,2.46,2.46,0,0,0-2.46,2.462" transform="translate(-218.072 -361.517)" fill="#fff" fill-rule="evenodd"/>
        <path id="Path_1026527" data-name="Path 1026527" d="M234.9,465.54a12.667,12.667,0,0,0,12.607,12.216h4.464l-2.8,7.406,10.663-7.406H261.3a12.638,12.638,0,0,0,12.576-12.216Z" transform="translate(-187.361 -371.324)" fill="#dbe1ef" fill-rule="evenodd"/>
        <path id="Path_1026528" data-name="Path 1026528" d="M364.668,465.54a2.46,2.46,0,1,0,4.92,0Z" transform="translate(-290.866 -371.324)" fill="#f5f7fa" fill-rule="evenodd"/>
        <path id="Path_1026529" data-name="Path 1026529" d="M319.035,465.54a2.46,2.46,0,1,0,4.921,0Z" transform="translate(-254.468 -371.324)" fill="#f5f7fa" fill-rule="evenodd"/>
        <path id="Path_1026530" data-name="Path 1026530" d="M273.4,465.54a2.461,2.461,0,1,0,4.922,0Z" transform="translate(-218.072 -371.324)" fill="#f5f7fa" fill-rule="evenodd"/>
        <path id="Path_1026531" data-name="Path 1026531" d="M567.75,340.126h13.79A12.764,12.764,0,0,1,594.232,352.7v.836A12.663,12.663,0,0,1,581.541,366h-4.463l2.8,7.4L569.212,366H567.75a12.5,12.5,0,0,1-12.5-12.457V352.7a12.6,12.6,0,0,1,12.5-12.575" transform="translate(-442.876 -271.292)" fill="#cbd4e8" fill-rule="evenodd"/>
        <path id="Path_1026532" data-name="Path 1026532" d="M598.305,397.759a2.461,2.461,0,1,1-2.461-2.46,2.461,2.461,0,0,1,2.461,2.46" transform="translate(-473.294 -315.299)" fill="#fff" fill-rule="evenodd"/>
        <path id="Path_1026533" data-name="Path 1026533" d="M643.943,397.759a2.461,2.461,0,1,1-2.462-2.46,2.462,2.462,0,0,1,2.462,2.46" transform="translate(-509.695 -315.299)" fill="#fff" fill-rule="evenodd"/>
        <path id="Path_1026534" data-name="Path 1026534" d="M689.569,397.759a2.461,2.461,0,1,1-2.462-2.46,2.461,2.461,0,0,1,2.462,2.46" transform="translate(-546.087 -315.299)" fill="#fff" fill-rule="evenodd"/>
        <path id="Path_1026535" data-name="Path 1026535" d="M593.865,407.594A12.664,12.664,0,0,1,581.26,419.81H576.8l2.8,7.4-10.664-7.4h-1.462a12.636,12.636,0,0,1-12.575-12.216Z" transform="translate(-442.593 -325.105)" fill="#c0cce4" fill-rule="evenodd"/>
        <path id="Path_1026536" data-name="Path 1026536" d="M598.31,407.594a2.46,2.46,0,0,1-4.921,0Z" transform="translate(-473.298 -325.105)" fill="#f5f7fa" fill-rule="evenodd"/>
        <path id="Path_1026537" data-name="Path 1026537" d="M643.94,407.594a2.46,2.46,0,1,1-4.919,0Z" transform="translate(-509.695 -325.105)" fill="#f5f7fa" fill-rule="evenodd"/>
        <path id="Path_1026538" data-name="Path 1026538" d="M689.569,407.594a2.461,2.461,0,0,1-4.922,0Z" transform="translate(-546.087 -325.105)" fill="#f5f7fa" fill-rule="evenodd"/>
      </g>
    </g>
  </g>
</svg>
