<svg xmlns="http://www.w3.org/2000/svg" xmlns:xlink="http://www.w3.org/1999/xlink" width="127.921" height="128" viewBox="0 0 127.921 128">
  <defs>
    <clipPath id="clip-path">
      <rect id="Rectangle_458701" data-name="Rectangle 458701" width="51.213" height="60.993" fill="none"/>
    </clipPath>
  </defs>
  <g id="img15" transform="translate(-705.978 -1710.002)">
    <g id="Group_1180300" data-name="Group 1180300" transform="translate(705.936 1710.002)">
      <g id="Grupo_155253" data-name="Grupo 155253" transform="matrix(0.999, 0.035, -0.035, 0.999, 4.319, 0)">
        <path id="Trazado_196478" data-name="Trazado 196478" d="M17.389,19.468q-.386.412-.764.831A64.6,64.6,0,0,0,.044,66.072L25.8,65.147C25.1,44.584,40.69,27.331,60.618,26.613S97.267,41.982,97.965,62.546l25.755-.925c-.869-25.6-16.481-48.187-39.655-57.372A60.525,60.525,0,0,0,17.389,19.475" transform="translate(0 0)" fill="#f9ce5d"/>
        <path id="Trazado_196479" data-name="Trazado 196479" d="M0,4.454C1.195,39.7,29.849,67.266,64,66.036S124.871,35.241,123.676,0L97.92.925c.7,20.563-14.891,37.815-34.819,38.533S26.453,24.089,25.755,3.526Z" transform="translate(0.042 57.68)" fill="#70f5c8"/>
      </g>
      <ellipse id="Ellipse_13685" data-name="Ellipse 13685" cx="49.806" cy="49.887" rx="49.806" ry="49.887" transform="translate(14.269 14.359)" fill="#fff"/>
    </g>
    <g id="Group_1183510" data-name="Group 1183510" transform="translate(744.329 1743.506)">
      <g id="Group_1183509" data-name="Group 1183509" transform="translate(0 0)" clip-path="url(#clip-path)">
        <path id="Path_1029288" data-name="Path 1029288" d="M19.513,10.373H34.986a1.827,1.827,0,0,0,1.827-1.827v-2.9a1.828,1.828,0,0,0-1.827-1.828H32.114a5.008,5.008,0,0,0-9.729,0H19.513a1.828,1.828,0,0,0-1.828,1.828v2.9a1.828,1.828,0,0,0,1.828,1.827m7.736-7.414a2.067,2.067,0,1,1-2.067,2.067,2.067,2.067,0,0,1,2.067-2.067" transform="translate(-8.175 0)" fill="#203a72"/>
        <path id="Path_1029289" data-name="Path 1029289" d="M38.149,42.187V16.563a4.56,4.56,0,0,0-4.55-4.55H31.325V14.1a4.511,4.511,0,0,1-4.511,4.511H11.336A4.519,4.519,0,0,1,6.825,14.1V12.013H4.55A4.56,4.56,0,0,0,0,16.563V52.424a4.56,4.56,0,0,0,4.55,4.55H26.762a11.7,11.7,0,0,1-.077-1.342A13.635,13.635,0,0,1,38.149,42.187M18.173,26.851H30.43a1.342,1.342,0,0,1,0,2.684H18.173a1.342,1.342,0,0,1,0-2.684m0,9.9H30.43a1.342,1.342,0,0,1,0,2.684H18.173a1.342,1.342,0,0,1,0-2.684M14.71,45.433,10.787,49.8a1.362,1.362,0,0,1-1.994,0l-2.07-2.313a1.344,1.344,0,1,1,1.994-1.8l1.073,1.2,2.927-3.259a1.344,1.344,0,0,1,1.994,1.8m0-9.9L10.787,39.9a1.335,1.335,0,0,1-1.994,0l-2.07-2.313A1.339,1.339,0,1,1,8.716,35.8L9.79,37l2.927-3.259a1.339,1.339,0,1,1,1.994,1.789m0-9.9-3.924,4.371a1.335,1.335,0,0,1-1.994,0l-2.07-2.313a1.339,1.339,0,1,1,1.994-1.789l1.073,1.2,2.927-3.259a1.339,1.339,0,1,1,1.994,1.789m8.077,23.72H18.173a1.342,1.342,0,0,1,0-2.684h4.614a1.342,1.342,0,0,1,0,2.684" transform="translate(0 -5.553)" fill="#203a72"/>
        <path id="Path_1029290" data-name="Path 1029290" d="M65.542,72.806a10.92,10.92,0,1,0,10.919,10.92,10.933,10.933,0,0,0-10.919-10.92m4.475,12.262H65.542A1.341,1.341,0,0,1,64.2,83.726V77.735a1.342,1.342,0,0,1,2.683,0v4.65h3.134a1.342,1.342,0,1,1,0,2.683" transform="translate(-25.247 -33.653)" fill="#14a0de"/>
      </g>
    </g>
  </g>
</svg>
