<svg xmlns="http://www.w3.org/2000/svg" xmlns:xlink="http://www.w3.org/1999/xlink" width="60" height="60" viewBox="0 0 60 60">
  <defs>
    <clipPath id="clip-path">
      <rect id="Rectangle_458734" data-name="Rectangle 458734" width="32.477" height="41.046" fill="none"/>
    </clipPath>
  </defs>
  <g id="img18" transform="translate(-527.686 -2934)">
    <rect id="Rectangle_456596" data-name="Rectangle 456596" width="60" height="60" rx="5" transform="translate(527.686 2934)" fill="#ff9e74"/>
    <g id="Group_1183582" data-name="Group 1183582" transform="translate(541.447 2943.477)">
      <g id="Group_1183581" data-name="Group 1183581" clip-path="url(#clip-path)">
        <path id="Path_1029471" data-name="Path 1029471" d="M20.415,48.782H18.344a4,4,0,0,1-3.719-2.594H4.958v8.836a1.327,1.327,0,0,0,1.326,1.325h5.1a10.062,10.062,0,0,1,15.994,0h5.1a1.333,1.333,0,0,0,1.333-1.325V46.188H24.141a4.006,4.006,0,0,1-3.726,2.594" transform="translate(-3.147 -29.313)" fill="#203a72"/>
        <path id="Path_1029472" data-name="Path 1029472" d="M31.143,4.936H21.667V3.4a3.4,3.4,0,0,0-3.4-3.4h-4.06a3.4,3.4,0,0,0-3.4,3.4V4.936H1.325A1.331,1.331,0,0,0,0,6.27v7.062a1.331,1.331,0,0,0,1.325,1.334h10A3.944,3.944,0,0,1,15.2,11.534h2.068a3.95,3.95,0,0,1,3.884,3.132h9.99a1.336,1.336,0,0,0,1.335-1.334V6.27a1.336,1.336,0,0,0-1.335-1.334m-11.925,0H13.259V3.4a.951.951,0,0,1,.95-.95h4.06a.95.95,0,0,1,.95.95Z" fill="#203a72"/>
        <path id="Path_1029473" data-name="Path 1029473" d="M40.611,41.129a1.767,1.767,0,0,0,0-3.534H38.544a1.767,1.767,0,1,0,0,3.534Z" transform="translate(-23.341 -23.86)" fill="#203a72"/>
        <path id="Path_1029474" data-name="Path 1029474" d="M30.759,69.207a7.881,7.881,0,1,0,7.88,7.881,7.881,7.881,0,0,0-7.88-7.881m-.377,7.07h.745a2.644,2.644,0,0,1,2.63,2.9,2.681,2.681,0,0,1-2.191,2.316v1.059a.212.212,0,0,1-.212.212h-1.19a.218.218,0,0,1-.219-.212V81.507a2.63,2.63,0,0,1-2.184-2.36.218.218,0,0,1,.219-.233H29.17a.206.206,0,0,1,.212.168,1.014,1.014,0,0,0,1,.848h.687a1.051,1.051,0,0,0,1.06-.841,1.015,1.015,0,0,0-1-1.19h-.62a2.715,2.715,0,0,1-2.747-2.374,2.63,2.63,0,0,1,2.184-2.857V71.631a.219.219,0,0,1,.219-.22h1.19a.214.214,0,0,1,.212.22v1.036a2.631,2.631,0,0,1,2.191,2.367.217.217,0,0,1-.218.226h-1.2a.2.2,0,0,1-.2-.161,1.028,1.028,0,0,0-1.008-.855h-.686a1.061,1.061,0,0,0-1.06.847,1.016,1.016,0,0,0,1,1.184" transform="translate(-14.52 -43.922)" fill="#14a0de"/>
      </g>
    </g>
  </g>
</svg>
