<svg xmlns="http://www.w3.org/2000/svg" width="626" height="180" viewBox="0 0 626 180">
  <g id="img13" transform="translate(-446.686 -2520)">
    <rect id="Rectangle_456595" data-name="Rectangle 456595" width="626" height="180" transform="translate(446.686 2520)" fill="#fef5de"/>
    <g id="Group_1180824" data-name="Group 1180824" transform="translate(5610.814 15537.29)">
      <path id="Path_1024478" data-name="Path 1024478" d="M884.34,127.71a19.213,19.213,0,0,1,3.349.427c1.276.458,1,2.626-.294,2.863a16.3,16.3,0,0,1-3.031.213C884.375,130.045,884.347,128.878,884.34,127.71Z" transform="translate(-5673.463 -13145)" fill="#fefefe"/>
      <path id="Path_1024482" data-name="Path 1024482" d="M905.158,385.548c1.056-1.612,1.937-3.64,3.891-4.328.951,1.108,1.832,2.273,2.73,3.423a37.484,37.484,0,0,1,3.108-2.853c.185.171.385.339.594.5,2.363,2.276,4.286,4.947,6.461,7.395,1.248-1.86,2.266-3.86,3.44-5.765-.706,2.489-1.566,4.933-2.353,7.4A222.776,222.776,0,0,0,915.2,421.35c-4.017-1.367-8.013-2.783-12.034-4.126-.007-.717-.007-1.43-.028-2.143-.538-9.961-.531-19.935-.5-29.907l-.014-.78.252-.045c.343,1.087.15,2.675,1.1,3.409A18.421,18.421,0,0,0,905.158,385.548Z" transform="translate(-5685.352 -13309.878)" fill="#fefefe"/>
      <path id="Path_1024483" data-name="Path 1024483" d="M322.887,491.5a12.229,12.229,0,0,1,7.5-6.272c-1.479,7.367-2.514,14.813-3.58,22.25-.486,3.737-.986,7.478-1.262,11.237-.154,3.307.115,7.038,2.51,9.569-1.762-.031-3.521-.059-5.279-.045-.14-9.363-.675-18.712-.951-28.071C321.569,497.253,321.517,494.173,322.887,491.5Z" transform="translate(-5307.522 -13377.523)" fill="#fefefe"/>
      <path id="Path_1024484" data-name="Path 1024484" d="M341.56,600.92c1.283-.385,2.584-.706,3.87-1.084,2.035-.678,4.185-.234,6.279-.315,1.4.059,2.9-.259,4.209.409,1.157.556,2.241,1.266,3.433,1.752-3.559,0-7.115.136-10.67.052,1.535,1.217,3.643.451,5.437.71,8.457-.22,16.939-.049,25.39-.524.01-.1.028-.311.038-.413-5.569-.143-11.16.343-16.736.136,1.119-.514,2.863-.458,3-2.038,3.793-.042,7.6-.119,11.387-.014,2.993.808,5.919,1.867,8.94,2.6,4.4,1.094,8.7,2.538,13.093,3.664a3.508,3.508,0,0,1,2,1.031,14.623,14.623,0,0,0,2.409-.094,5.2,5.2,0,0,0-2.329-.986c-2.968-.776-5.905-1.671-8.838-2.556,10.531-.15,21.068-.01,31.606-.066,14.786.045,29.575-.049,44.364-.084,6.185-.039,12.373-.018,18.558,0,9.664.252,19.331.073,29,.087,18.694-.238,37.4-.007,56.09-.1-.007,3.238-.038,6.479.017,9.719q-134.16.121-268.321.018c-19.026.042-38.049-.052-57.076.039.087-3.248.024-6.5-.014-9.744,1.787-.024,3.57-.014,5.356-.017,9.65.2,19.3-.028,28.956.119,3.972.206,7.957.018,11.936.045,13.988.021,27.977-.238,41.969-.164,1.849.063,3.772-.3,5.569.308,6.541,2.294,13.065,4.646,19.617,6.926a6.169,6.169,0,0,0,2.825.486c13.7-.685,27.428-.857,41.126-1.514-1.273-1.14-3.042-1.444-4.531-2.22.364-.028,1.091-.08,1.454-.1-.262-.206-.521-.406-.78-.6-12.195.531-24.4.839-36.6,1.269a6.246,6.246,0,0,1-2.884-.273c-4.056-1.559-8.262-2.678-12.366-4.1-2.29-.692-4.475-1.7-6.776-2.36m20.61,2.342c-2.657.073-5.325.01-7.971.255l-.287.559c3.454-.021,6.905-.189,10.363-.213,6.566-.311,13.149-.185,19.715-.472l-.28-.622c-7.174.143-14.362.276-21.54.493m21.649.975c-8.349.2-16.7.311-25.043.629.3.668,1.038.559,1.629.552,9.041-.238,18.093-.357,27.131-.755.024-.1.077-.3.1-.406A16.429,16.429,0,0,0,383.819,604.238Z" transform="translate(-5258.749 -13451.811)" fill="#fefefe"/>
      <g id="_e0e9f3ff" data-name="#e0e9f3ff" transform="translate(-4753.485 -12994.827)">
        <path id="Path_1024493" data-name="Path 1024493" d="M990.577,194.962c5.181-4.65,14.275-3.814,18.355,1.9,4.059,5.132,3.154,13.516-2.161,17.429a12.775,12.775,0,0,1-10.118,2.647c-3.842-.514-7.073-3.206-9.083-6.405-.633-.857-.451-2.143-1.29-2.842,0-.028-.007-.084-.01-.112.255-2.294-.252-4.66.514-6.905A11.778,11.778,0,0,1,990.577,194.962Z" transform="translate(-986.27 -191.958)" fill="#e0e9f3"/>
      </g>
      <g id="_e0e9f1ff" data-name="#e0e9f1ff" transform="translate(-4919.276 -12993.764)">
        <path id="Path_1024494" data-name="Path 1024494" d="M593.035,195.162c12.24-.972,24.407,2.58,35.252,8.055,1.982.968,3.818,2.206,5.793,3.189a9.616,9.616,0,0,0-2.073,4.741c.36,1.049,1.37,1.657,2.154,2.37a8.357,8.357,0,0,0,.01,3.472c.448,1.842,1.78,3.258,3.017,4.625.119.657.248,1.318.4,1.972.853,3.346.566,6.835,1.042,10.233a39.335,39.335,0,0,0,3.4,11.219,8.413,8.413,0,0,0,3.93,4.423c-4.989,1.9-9.957,3.877-14.908,5.877a14.257,14.257,0,0,0-6.3,5.531c-1.836,2.926-2.426,6.377-3.409,9.636-2.241,7.751-4.412,15.523-6.835,23.218-4.5-3.72-9.108-7.307-13.492-11.156-.906-.65-2.035-.947-2.8-1.8l-.808.056c-1.584-1.4-3.119-2.842-4.629-4.314a24.961,24.961,0,0,0-8.922-5.548c-3.349-.773-6.783.126-10.041.93-1.482-3.458-2.479-7.108-3.772-10.639-1.891-.025-3.783,0-5.671.042-.108-.213-.322-.64-.43-.853-7.356-.028-14.712.014-22.072-.021.028.185.08.556.108.741q-3.7-.021-7.4-.119c2.489,8.062,5.216,16.058,7.646,24.141a22.273,22.273,0,0,0-4.611,6.985,85.645,85.645,0,0,0-2.717,8.866l-.811.178c-1.926,3.059-3.633,6.248-5.521,9.331-.332-1.419-.685-2.832-.986-4.255-.916-4.727-2.14-9.384-3.248-14.065-1.1-4.363-1.85-8.978-4.458-12.758a27.22,27.22,0,0,0,.315-3.363c-.213-1.972-1.147-3.751-1.745-5.618a36.4,36.4,0,0,1-1.21-5.328,42.22,42.22,0,0,1,.5-10.66c.4-.231.811-.455,1.2-.71.507-.371,1.21-.731,1.276-1.437.031-1.213-1.465-2.084-.982-3.342a36.59,36.59,0,0,0,1.64-12.031,13.236,13.236,0,0,0-4.133-8.88c-1.559-1.231-3.021-2.594-4.674-3.7.22-.038.661-.122.878-.164a88.341,88.341,0,0,0,14.464,1.78,38.946,38.946,0,0,0,17.911-4.72,61.614,61.614,0,0,0,11.429-8.856,81.216,81.216,0,0,1,14-10.5,53.842,53.842,0,0,1,22.288-6.772m-33.976,32.085q-3.32,5.3-6.674,10.583c4.517.2,9.041.08,13.562.112-2.185-3.556-4.44-7.066-6.6-10.639Z" transform="translate(-512.07 -195.002)" fill="#e0e9f1"/>
      </g>
      <g id="_141414ff" data-name="#141414ff" transform="translate(-4799.339 -12993.633)">
        <path id="Path_1024495" data-name="Path 1024495" d="M865.714,200.314c4.524-2.416,9.359-4.573,14.551-4.895a13.7,13.7,0,0,1,9.712,2.671,11.16,11.16,0,0,1,2.58,3.671,10.567,10.567,0,0,1,5.468,2.668,12.06,12.06,0,0,1,2.947,5.374c0,.028.01.084.01.112.661,4.244-.339,8.485-1.36,12.583-.5,1.958-1.133,3.881-1.755,5.8-1.21,3.552-2.72,6.992-4.1,10.478a6.752,6.752,0,0,0,.738,3.395,10.975,10.975,0,0,1,3.038,2.1,14.126,14.126,0,0,1,6.055,3.619c-.039.143-.112.427-.15.566a14.749,14.749,0,0,0-5.416-3.342c.406.906.9,1.78,1.213,2.727a6.177,6.177,0,0,1-.126,3.416c-.077-.43-.154-.857-.22-1.283.024-2.15-1.133-4.031-2.29-5.748a3.993,3.993,0,0,0-2.066-1.343,26.761,26.761,0,0,0,1.339,3.762c.276-.57.538-1.15.818-1.72A12.532,12.532,0,0,1,894.068,251a70.3,70.3,0,0,1-9.817,9.478c.367.3.734.6,1.1.913l-.766.028c-.21-.161-.409-.329-.594-.5a37.5,37.5,0,0,0-3.108,2.853c-.9-1.15-1.78-2.314-2.731-3.423-1.954.689-2.835,2.717-3.891,4.328-.042-.2-.126-.6-.168-.8.993-1.549,1.923-3.8,4.059-3.853a30.246,30.246,0,0,1-3.535-5.674,16.072,16.072,0,0,1-1.066-4.779l.024-.346a22.4,22.4,0,0,0,6.664-2.937c2.542-1.542,5.063-3.409,6.468-6.1.318-.475.475-1.266,1.206-1.192a7.674,7.674,0,0,1-1.685,3.1c-1.185,1.626-3.066,2.594-4.125,4.328a13.186,13.186,0,0,1-7.7,5.583,15.1,15.1,0,0,0,2.287,4.828,62.59,62.59,0,0,0,4.241,6.007c3.021-3.094,6.527-5.664,9.527-8.783a24.16,24.16,0,0,0,4.919-6.384,69.96,69.96,0,0,1-3.189-13.216c-.668.042-1.329.087-1.989.063.1-.888,1.217-.619,1.8-.958a6.4,6.4,0,0,0,2.888-3.772c.65-1.993.7-4.461-.759-6.122a2.761,2.761,0,0,0-4.066.252c-1.444,1.5-1.615,3.657-1.825,5.615a9.125,9.125,0,0,1-2.926.72c-.1-1.661-.147-3.325-.353-4.975-.091-1.489-1.318-2.521-1.843-3.846a68.954,68.954,0,0,1-2.433-6.8c-3.374,1.832-7.041,3.367-10.926,3.507a17.4,17.4,0,0,1-7.887-1.8c-.437,2.021-.42,4.1-.682,6.139l-.409-.056c-.122-.143-.364-.427-.486-.566-1.238-1.367-2.57-2.783-3.017-4.625a8.356,8.356,0,0,1-.01-3.472c-.783-.713-1.794-1.322-2.154-2.37a9.615,9.615,0,0,1,2.073-4.741A18.86,18.86,0,0,1,865.714,200.314Z" transform="translate(-855.12 -195.375)" fill="#141414"/>
      </g>
      <g id="_728da9ff" data-name="#728da9ff" transform="translate(-4983.023 -12978.514)">
        <path id="Path_1024496" data-name="Path 1024496" d="M333.827,238.62c1.622,1.982,2.895,4.223,4.342,6.332-2.807.007-5.618.028-8.429.021C331.013,242.8,332.464,240.735,333.827,238.62Z" transform="translate(-329.74 -238.62)" fill="#728da9"/>
      </g>
      <g id="_060606ff" data-name="#060606ff" transform="translate(-4880.506 -12977.489)">
        <path id="Path_1024497" data-name="Path 1024497" d="M1102.953,241.55c1.678,2.22,2.923,4.73,4.479,7.034.79,1.231,1.566,2.468,2.276,3.748-4.489.024-8.978.052-13.468-.014,2.171-3.629,4.542-7.139,6.713-10.768m.039,1.129c-1.829,3.059-3.793,6.031-5.737,9.017,3.807.052,7.618.066,11.426,0C1106.7,248.745,1104.932,245.658,1102.991,242.679Z" transform="translate(-930.771 -241.55)" fill="#060606"/>
        <path id="Path_1024498" data-name="Path 1024498" d="M622.96,498.773c9.013-.454,18.051-.4,27.061-.923.06.164.185.489.245.654-4.426.339-8.877.189-13.307.493-4.307.15-8.622.147-12.925.388C623.523,499.549,623.24,499.077,622.96,498.773Z" transform="translate(-622.96 -408.242)" fill="#060606"/>
        <path id="Path_1024499" data-name="Path 1024499" d="M1058.472,540.22a3.478,3.478,0,0,1,3.727.846c1.783,1.968.752,5.433-1.615,6.433-1.612.829-3.986.538-4.877-1.192a4.448,4.448,0,0,1,2.766-6.087m-.017.661c-2.269.762-3.552,4.125-1.619,5.86,2.384,1.738,6.076-.678,5.622-3.563A2.74,2.74,0,0,0,1058.454,540.881Z" transform="translate(-904.124 -435.669)" fill="#060606"/>
      </g>
      <g id="_fdfdfdff" data-name="#fdfdfdff" transform="translate(-4714.023 -12976.36)">
        <path id="Path_1024500" data-name="Path 1024500" d="M1104.877,244.78c1.94,2.979,3.706,6.066,5.688,9.017-3.807.066-7.618.052-11.426,0C1101.084,250.811,1103.049,247.839,1104.877,244.78Z" transform="translate(-1099.14 -244.78)" fill="#fdfdfd"/>
      </g>
      <g id="_e0e9f2ff" data-name="#e0e9f2ff" transform="translate(-5002.116 -12974.695)">
        <path id="Path_1024501" data-name="Path 1024501" d="M275.13,261.029c3.818-3.748,7.643-7.5,11.216-11.489,4.178,3.444,7.527,7.758,11.534,11.391-1.042,1.29-2.311,2.36-3.437,3.57-1.713,2.01-3.619,3.842-5.475,5.72a18.7,18.7,0,0,1-2.384,2.322,9.075,9.075,0,0,1-1.832-1.755C281.553,267.525,278.312,264.3,275.13,261.029Z" transform="translate(-275.13 -249.54)" fill="#e0e9f2"/>
        <path id="Path_1024502" data-name="Path 1024502" d="M623.116,462.94a43.684,43.684,0,0,0,5.667.727c1.51,0,3.024,0,4.535-.014,1.545,2.231-1.989,4.381-.615,6.657a9.739,9.739,0,0,0-.5,3.154c.633,1.276,1.926,2.042,2.958,2.972,4.4,4.01,9.017,7.776,13.544,11.639a89.125,89.125,0,0,0,9.566,7.258,9.008,9.008,0,0,0,8.118,1.031c2.933-.989,4.905-3.5,6.678-5.9-.93,7.471-2.4,14.866-3.793,22.264-.07.339-.136.685-.2,1.031q-31.162-.037-62.331.021a19.932,19.932,0,0,1-3.884-.972c-2.668-.836-5.391-1.479-8.048-2.349-1.912-.668-3.954-.185-5.926-.3-2.3-.122-4.608.024-6.905-.112a23.587,23.587,0,0,1-2.269-2.923,208.021,208.021,0,0,0,9.167-19.722c.748-1.909-.241-3.863-.839-5.66a9.858,9.858,0,0,1,2.762-3.136c1.4,5.3,2.374,10.705,3.472,16.076,12.646-.629,25.278-1.454,37.917-2.227-2.944-9.726-5.888-19.456-9.076-29.1Z" transform="translate(-473.222 -388.331)" fill="#e0e9f2"/>
      </g>
      <g id="_fbd6c9ff" data-name="#fbd6c9ff" transform="translate(-4794.157 -12974.37)">
        <path id="Path_1024503" data-name="Path 1024503" d="M879.4,253.977c3.884-.14,7.552-1.675,10.926-3.507a68.939,68.939,0,0,0,2.433,6.8c.524,1.325,1.752,2.356,1.843,3.846.206,1.65.255,3.314.353,4.975a9.127,9.127,0,0,0,2.926-.72c.21-1.958.381-4.112,1.825-5.615a2.761,2.761,0,0,1,4.066-.252c1.461,1.661,1.409,4.129.759,6.122a6.4,6.4,0,0,1-2.888,3.772c-.584.339-1.7.07-1.8.958.661.024,1.322-.021,1.989-.063a69.964,69.964,0,0,0,3.189,13.216,24.156,24.156,0,0,1-4.919,6.384c-3,3.119-6.507,5.688-9.527,8.783a62.59,62.59,0,0,1-4.241-6.006,15.1,15.1,0,0,1-2.287-4.828,13.185,13.185,0,0,0,7.7-5.583c1.059-1.734,2.94-2.7,4.126-4.328a7.675,7.675,0,0,0,1.685-3.1c-.731-.073-.888.717-1.206,1.192-1.405,2.692-3.926,4.559-6.468,6.1a22.4,22.4,0,0,1-6.664,2.937c-1.678.157-3.559.385-5.045-.591-1.7-1.077-2.577-2.975-3.353-4.755a39.33,39.33,0,0,1-2.968-10.891c-.21-3.136-.4-6.272-.762-9.391,1.468-.15,2.818.475,4.227.752a.789.789,0,0,0-.476-1.063,6.239,6.239,0,0,0-4.475-.451c-.007.248-.021.748-.028,1-.15-.654-.28-1.315-.4-1.972.122.14.364.423.486.566l.409.056c.262-2.042.245-4.119.682-6.139a17.4,17.4,0,0,0,7.888,1.8m-.2,5.22c-.042.133-.122.4-.164.524.206.993,1.115.22,1.734.126a8.154,8.154,0,0,1,6.517.706c.51.437.626-.346.864-.661a9.537,9.537,0,0,0-8.95-.7m-3.2,2.531c.643,3.136-.919,6.034-2,8.866-.573,1.783,1.675,2.661,3.077,2.783-.367-1.238-2.724-.871-2.482-2.472.846-2.615,2.44-5.136,2.217-7.989.028-.552-.49-.829-.808-1.189m-2.507,3.909c1.234-.622,1.1-2.961-.455-2.919a1.731,1.731,0,0,0,.455,2.919m8.192-2.612a1.828,1.828,0,0,0,.269,2.559c.951.43,1.608-.8,1.4-1.612.035-.836-.993-1.734-1.671-.947m.566,12.94a8.357,8.357,0,0,1-6.36.434c-.822-.108-.038.923.371.836a8.9,8.9,0,0,0,5.923-.469C882.733,276.755,882.974,275.583,882.25,275.964Z" transform="translate(-869.94 -250.47)" fill="#fbd6c9"/>
      </g>
      <g id="_dfe8f1ff" data-name="#dfe8f1ff" transform="translate(-4975.254 -12968.691)">
        <path id="Path_1024504" data-name="Path 1024504" d="M367.581,271.586a35.363,35.363,0,0,1,19.369-4.86c1.545.1,3.265-.213,4.618.717a18.719,18.719,0,0,0-12.433,6.611,26.9,26.9,0,0,0-5.094,11.625c-.892,4-1.22,8.167-2.759,12.006a23.7,23.7,0,0,1-5.29,7.734,37.28,37.28,0,0,0-14.034-3.828,52.3,52.3,0,0,1,2.5-13.446A32.624,32.624,0,0,1,367.581,271.586Z" transform="translate(-351.96 -266.714)" fill="#dfe8f1"/>
        <path id="Path_1024505" data-name="Path 1024505" d="M965.635,300.018c1.381-3.486,2.891-6.926,4.1-10.478,9.566,3.007,19.289,6.007,27.9,11.289a62.262,62.262,0,0,1,19.047,17.264,63.311,63.311,0,0,1,9.919,21.6,81.394,81.394,0,0,1,2.178,18.939,31.794,31.794,0,0,1,4.542.248c-7.422.056-14.845-.056-22.267.077-1.507-8.835-3.307-17.617-5.035-26.41a32.721,32.721,0,0,0-4.863-12.142c-1.787-2.678-4.877-3.944-7.713-5.185-4.832-1.815-9.765-3.346-14.674-4.937a17.8,17.8,0,0,1-3.3-1.143,14.126,14.126,0,0,0-6.055-3.619,10.973,10.973,0,0,0-3.038-2.1A6.752,6.752,0,0,1,965.635,300.018Z" transform="translate(-751.072 -281.559)" fill="#dfe8f1"/>
      </g>
      <g id="_151514ff" data-name="#151514ff" transform="translate(-4971.368 -12968.097)">
        <path id="Path_1024506" data-name="Path 1024506" d="M386.366,275.16a18.719,18.719,0,0,1,12.433-6.611,27.352,27.352,0,0,1,16.369,3.591c1.654,1.1,3.115,2.468,4.674,3.7a13.236,13.236,0,0,1,4.133,8.88,36.588,36.588,0,0,1-1.64,12.03c-.482,1.259,1.014,2.129.982,3.342-.066.706-.769,1.066-1.276,1.437.063-.21.189-.636.252-.846.115-.161.35-.475.465-.636-.86-1.954-2.2-3.689-2.79-5.755-.486-1.783.052-3.608.161-5.4a15.047,15.047,0,0,0-2.185-8.877,42.329,42.329,0,0,1-18.565,14.747c-.661-1.28-1.133-2.9-2.57-3.531a2.915,2.915,0,0,0-3.772,1.486c-1.524,3.356.6,8.286,4.6,8.426.266,9.066.276,18.264,2.454,27.124a28.292,28.292,0,0,0,1.685,4.835c-.85.584-1.738,1.1-2.622,1.633,1.842.5,3.937,1.175,5.751.206a9.277,9.277,0,0,0,4.405-5.1,35.375,35.375,0,0,0-2.461-9.275c-.059.315-.185.944-.248,1.259-.126-.115-.381-.35-.507-.469a41.3,41.3,0,0,1,1.164-4.639c-2.133-1.968-3.521-4.545-5.122-6.93,1.8.8,3.521,1.783,5.395,2.409,2.531.927,5.185,1.905,7.926,1.7a2.693,2.693,0,0,0,2.437-1.972c.434-1.475.318-3.084,1.024-4.489,1.43,1.224.577,3.3.878,4.916l.542.556a36.4,36.4,0,0,0,1.21,5.328c.6,1.867,1.531,3.647,1.745,5.618a27.22,27.22,0,0,1-.315,3.363c2.608,3.779,3.353,8.394,4.458,12.758,1.108,4.681,2.332,9.338,3.248,14.065l-.489.416c-1.6-6.828-3.14-13.674-4.895-20.467-.762-2.832-1.87-5.751-4.157-7.716-2.835-2.395-6.409-3.6-9.807-4.951q-2.03-.844-4.1-1.566c1.633,3.619,2.311,7.566,3.007,11.447a178.732,178.732,0,0,1,2.056,36.119c-.15-.542-.332-1.077-.482-1.612a178.83,178.83,0,0,0-2.3-34.623c-1.409,2.423-3.6,4.916-6.608,5.031-2.073.14-3.961-1.458-6.017-.79a15.323,15.323,0,0,1-4.129.4c.182.769.381,1.531.6,2.294l-.524.192c-.248-.794-.51-1.58-.776-2.363a20.46,20.46,0,0,1-14.663-7.115c-2.287-2.276-4.077-5.514-7.377-6.4-2.405.255-4.342,2.059-6,3.7-.164-.245-.325-.493-.479-.745-1.035-3.021-.192-6.377,1.252-9.122,2.115-3.758,5.342-6.7,8.436-9.629a23.7,23.7,0,0,0,5.29-7.734c1.538-3.839,1.867-8,2.759-12.006A26.9,26.9,0,0,1,386.366,275.16Z" transform="translate(-363.077 -268.414)" fill="#151514"/>
      </g>
      <g id="_100200ff" data-name="#100200ff" transform="translate(-4785.06 -12966.449)">
        <path id="Path_1024507" data-name="Path 1024507" d="M896.124,273.931a9.537,9.537,0,0,1,8.95.7c-.238.315-.353,1.1-.864.661a8.154,8.154,0,0,0-6.517-.706c-.619.094-1.528.867-1.734-.126C896,274.326,896.082,274.064,896.124,273.931Z" transform="translate(-895.96 -273.126)" fill="#100200"/>
      </g>
      <g id="_0c0c0dff" data-name="#0c0c0dff" transform="translate(-4927.398 -12966.39)">
        <path id="Path_1024508" data-name="Path 1024508" d="M622.508,273.51a6.239,6.239,0,0,1,4.475.451.789.789,0,0,1,.475,1.063c-1.409-.276-2.759-.9-4.227-.752.367,3.119.552,6.255.762,9.391a39.328,39.328,0,0,0,2.968,10.891c.776,1.78,1.654,3.678,3.353,4.755,1.486.975,3.367.748,5.045.591l-.025.346a28.816,28.816,0,0,0-1.5,9.3c-.08,2.356.685,4.625.9,6.957q.577-.975,1.143-1.954c.042.2.126.6.168.8a18.408,18.408,0,0,1-1.189,2.21c-.947-.734-.755-2.322-1.1-3.409l-.252.045c0,.2.01.584.014.78l-.584.252c.336-3.388,0-6.814.587-10.177a41.877,41.877,0,0,1,1.017-4.381c-.93.017-1.86.021-2.783.014-2.182,4.091-4.6,8.076-6.444,12.331,1.171,1.084,2.615,1.808,3.853,2.814-1.594,1.045-3.269,1.968-4.853,3.035,1.143,6.765,2.241,13.541,3.552,20.278.311,1.825.923,3.633.738,5.507a26.639,26.639,0,0,1-1.3-5.321c-1.084-6.129-2.269-12.24-3.213-18.39a7.886,7.886,0,0,1-.1-2.479c1.213-1.1,2.937-1.524,4.042-2.752-1.126-.913-2.51-1.507-3.458-2.626.78-1.947,1.951-3.713,2.832-5.615,1.035-2.234,2.4-4.29,3.461-6.51-4.79,1.947-9.611,3.807-14.408,5.734a13.6,13.6,0,0,0-6.667,6c-1.343,2.367-1.856,5.066-2.612,7.65-2.007,7.094-4.1,14.163-6.2,21.233-.332,1.15-.731,2.28-1.157,3.4a10.957,10.957,0,0,0,3.37,2.119,15.157,15.157,0,0,1,5.052,3.248c.444.353.483.947.689,1.44-1.713-1.528-3.342-3.283-5.608-3.982,2.192,2.916,4.626,5.832,5.482,9.475a1.884,1.884,0,0,1-1.042-1.217,22.925,22.925,0,0,0-6.328-9.069q-8.223-6.6-16.341-13.328c-.126.4-.241.8-.367,1.192l-.538.4c.458-1.2-.255-2.133-1.15-2.835a38.564,38.564,0,0,1-5.58,11.205c.052-.385.112-.769.185-1.147a49.317,49.317,0,0,0,4.79-9.884,51.509,51.509,0,0,1-5.622-5.069,25.686,25.686,0,0,0-6.713-4.412,5.5,5.5,0,0,0-2.863-.794c-3.3.923-6.678,1.759-9.671,3.486-.556.227-.318.892-.4,1.357a10.541,10.541,0,0,0,4.93-.252,6.455,6.455,0,0,1,4.045-.129,9.519,9.519,0,0,0,4.07,4.937,11.494,11.494,0,0,0,3.538,1.087c.007.108.021.325.028.43-1.5.353-2.951-.469-4.2-1.213a13.981,13.981,0,0,1-4.15-4.7c-1.9-.594-3.709.72-5.622.633.559.021,1.119.025,1.689.031,1.2,1.741,3.734.93,5.091,2.458.787.608.535,1.622.4,2.465.657.4,1.563.675,1.8,1.5.234.57-.266,1.08-.458,1.584.6,1.741-1.461,2.482-2.807,2.622-.482,0-.954-.014-1.426-.017.063.164.189.486.248.647-.14.035-.423.1-.563.136.056.157.171.475.231.636,3.189,9.646,6.132,19.376,9.076,29.1-12.639.773-25.271,1.6-37.917,2.227-1.1-5.37-2.073-10.772-3.472-16.076a9.859,9.859,0,0,0-2.762,3.136c.6,1.8,1.587,3.751.839,5.66a208.025,208.025,0,0,1-9.167,19.722,23.587,23.587,0,0,0,2.269,2.923c2.3.136,4.6-.01,6.905.112,1.972.112,4.014-.371,5.926.3,2.657.871,5.381,1.514,8.048,2.349a19.928,19.928,0,0,0,3.884.972q31.162-.037,62.331-.021c.063-.346.129-.692.2-1.031l.6-.231c-.059.311-.185.93-.248,1.238,4.975.07,9.95-.021,14.925.017.15.185.311.374.479.563-14.789.035-29.578.129-44.364.084-10.538.056-21.075-.084-31.606.066,2.933.885,5.87,1.78,8.838,2.556a5.2,5.2,0,0,1,2.328.986,14.613,14.613,0,0,1-2.409.094,3.508,3.508,0,0,0-2-1.031c-4.391-1.126-8.7-2.57-13.093-3.664-3.021-.734-5.947-1.794-8.94-2.6-3.79-.1-7.594-.028-11.387.014-.136,1.58-1.881,1.524-3,2.038,5.576.206,11.167-.28,16.736-.136-.01.1-.028.308-.038.413-8.45.475-16.932.3-25.39.524-1.794-.259-3.9.507-5.437-.71,3.556.084,7.111-.049,10.67-.052-1.192-.486-2.276-1.2-3.433-1.752-1.308-.668-2.807-.35-4.209-.409-2.094.08-4.244-.364-6.279.315-1.287.378-2.587.7-3.87,1.084-.3.108-.591.227-.881.353-.563.07-1.126.182-1.682.269a6.15,6.15,0,0,1-1.8-.427c3.975-.535,7.765-1.881,11.653-2.8a11.331,11.331,0,0,1,8.492,1.748c1.161.6,2.545,1.531,3.856.783a22.265,22.265,0,0,0-2.44-2.185,12.734,12.734,0,0,0-6.045-3.073c-1.07-.353-2.426-.266-3.143-1.283a15.981,15.981,0,0,1,2.426.437,17.213,17.213,0,0,1,5.318,2.052,42.9,42.9,0,0,1,4.713,3.94c-.455.308-.909.612-1.353.927.276.024.832.07,1.112.091.486-.79,1.43-.92,2.248-1.157-1.612-1.661-3.052-3.493-4.814-5-2.122-1.671-4.818-2.269-7.332-3.094,0-.168.01-.51.014-.682a42.81,42.81,0,0,1,6.063,2.227c2.926,1.531,4.521,4.65,7.146,6.545-.073-1.28-.989-2.217-1.7-3.192-1.217-1.584-2.461-3.307-4.37-4.094-1.769-.944-3.706-1.535-5.461-2.493.007-.035.017-.1.024-.14.378-.322.874.035,1.29.126,1.454.521,2.818,1.255,4.244,1.85a17.1,17.1,0,0,0-5.454-3.122,6.945,6.945,0,0,0-3.461-.08c-5.863,1.014-11.719,2.339-17.7,2.318l-.587.112c.056-.353.1-.706.143-1.056-.126-.073-.378-.22-.5-.29l-.224-.6a1.708,1.708,0,0,1,1.71,1.157q1.211.021,2.426.031c.231-3.37.454-6.741.626-10.115.15.535.332,1.07.482,1.612-.07,2.821-.343,5.636-.51,8.454,2.507-.336,5.118-.35,7.5-1.266l.416-.038c3.168,0,6.248-1.594,9.419-.958,2.636.975,5.391,2.108,7.29,4.276.71.762,1.346,1.594,1.979,2.423,3.412-6.349,6.311-12.964,9.08-19.614a10.222,10.222,0,0,1-4.143-2.328,23.194,23.194,0,0,1-6.146-8.3c-3.129,5.825-6.849,11.3-10.017,17.1-.8,1.273-.871,2.937-1.958,4.024.364-2.9,2.2-5.283,3.36-7.891-1.877.671-3.056,2.321-4.531,3.556a6.919,6.919,0,0,1,2.8-3.251c.8-.615,1.874-.836,2.6-1.545A10.014,10.014,0,0,0,512.894,362a40.8,40.8,0,0,0-.909-4.374l.49-.416c.3,1.423.654,2.835.986,4.255,1.888-3.084,3.594-6.272,5.521-9.331l.811-.178a85.659,85.659,0,0,1,2.717-8.866,22.274,22.274,0,0,1,4.612-6.985c-2.43-8.083-5.157-16.079-7.646-24.141q3.7.1,7.4.119c-.028-.185-.08-.556-.108-.741,7.359.035,14.716-.007,22.072.021.108.213.322.64.43.853,1.888-.038,3.779-.066,5.671-.042,1.294,3.531,2.29,7.181,3.772,10.639,3.258-.8,6.692-1.7,10.041-.93a24.961,24.961,0,0,1,8.922,5.548c1.51,1.472,3.045,2.916,4.629,4.314l.808-.056c.766.857,1.895,1.154,2.8,1.8,4.384,3.849,9,7.436,13.492,11.156,2.423-7.7,4.594-15.467,6.835-23.218.982-3.258,1.573-6.709,3.409-9.636a14.256,14.256,0,0,1,6.3-5.531c4.951-2,9.919-3.975,14.908-5.877a8.413,8.413,0,0,1-3.93-4.423,39.331,39.331,0,0,1-3.4-11.219c-.476-3.4-.189-6.888-1.042-10.233.007-.248.021-.748.028-1M527.54,311.944c.364.968.671,1.961.944,2.965q10.116-.194,20.233-.22c.43.084.776-.2,1.14-.378l-.112.919c-3.035.171-6.08.052-9.118.119-4.2-.017-8.391.161-12.579.112a24.326,24.326,0,0,0-.871-2.86c-2.321.087-4.646-.007-6.971,0,2.961,8.608,5.618,17.313,8.324,26a6.083,6.083,0,0,1,4.671-1.367c-.2-.958-.409-1.905-.6-2.863,3.577-.031,7.157-.133,10.73-.168a5.142,5.142,0,0,1,.542,1.535c.787,3.168,1.629,6.325,2.346,9.51-3.633.056-7.262.2-10.887.378a37.47,37.47,0,0,1-1.182-4.584c-.7.066-1.549-.1-2.042.517a18.751,18.751,0,0,0-2.122,2.661c-.262.766.273,1.559.378,2.325a2.658,2.658,0,0,0-.881,1.661,29.01,29.01,0,0,1-1.238,3.15c-.378.647-.724,1.507-1.6,1.542a13.852,13.852,0,0,1,.989-1.762,11.623,11.623,0,0,0,1.542-5.6c.063-.745-.1-1.612.521-2.171a18.944,18.944,0,0,1,2.545-2.741c1.2-.332,2.528-.227,3.629-.9.633-.367,1.381-.951,1.21-1.783-1.3-.454-2.759-.028-4.115-.035-3.2-.094-5.776,2.213-7.807,4.423-.15.021-.458.066-.612.087.552-1.675,2.266-2.486,3.563-3.514-.283-.689-.549-1.381-.811-2.077-3.507,3.545-5.1,8.384-6.328,13.1-.252,1.255-.937,2.4-1.157,3.643a22.57,22.57,0,0,0,6.727,8.178c1.4-2.542,2.381-5.622,5.094-7.09-.591-2.325-.916-4.723-1.689-7,.182-.22.364-.444.545-.668,1.738,7.9,3.692,15.754,5.146,23.715,12.251-.587,24.488-1.409,36.728-2.154q-4.589-14.862-9.262-29.7a5.613,5.613,0,0,1-2.724-.815c-.654-.573-.577-1.514-.741-2.287-.406-.427-.916-.734-1.287-1.189-.538-.741-.126-1.661-.014-2.461-.79-.538-1.87-1.171-1.657-2.3a20.119,20.119,0,0,1,1.175-2.021c-1.528-.346-2.5,1.206-3.951,1.15-1.5.059-3,.115-4.507.094-6.426-.084-12.852.115-19.275.154-.479.073-.734-.15-.762-.664,6.657,0,13.314-.273,19.967-.136a1.729,1.729,0,0,1,.021-2.231c-6.933-.084-13.87.182-20.8.035-.01-.122-.031-.367-.042-.493a21.987,21.987,0,0,1,3.395-.108c5.944-.028,11.887-.147,17.831-.094a8.924,8.924,0,0,0,3.335-.787c1.633-.65,3.363-1.017,4.986-1.7-1.231-3.377-2.391-6.779-3.437-10.216-1.724.014-3.447.014-5.171-.045a2.265,2.265,0,0,1-.371,1.717c-.178-.829-.329-1.64-.5-2.461-7.006-.136-14.02,0-21.03-.052m23.9,13.971c-.671.276-1.626.367-1.892,1.168-.276.524.364,1.1.871,1.133,2.238.136,4.4-.563,6.6-.839-.2-.6-.871-1.406-.15-1.9a35.122,35.122,0,0,1,7.922-3.21c-4.615.479-8.971,2.231-13.352,3.65m6.814,2.71c-.888.573-1.381,2.171-.129,2.64a15.717,15.717,0,0,0,7.692,1.437.917.917,0,0,0,.7-1.447c-.892-1.2-2.545-1.038-3.818-1.514-.916-.283-1.419-1.374-2.454-1.346-.654.007-1.44-.238-1.993.231m.514,3.783c.035.885-.084,2.112.947,2.5a13.108,13.108,0,0,0,7.129.885c.573-.2,1.668-.542,1.322-1.343-.752-1.108-2.217-1.084-3.405-1.059a22.972,22.972,0,0,1-5.992-.982m-25.372,2.6c.136.706.28,1.416.419,2.126,1.262.157,2.923-.545,3.905.479.514,1.829-1.636,2.748-3.024,3.224.322,1.384.657,2.766.937,4.157,3.279-.175,6.562-.311,9.845-.308-.892-3.269-1.65-6.566-2.454-9.856-3.213.042-6.419.178-9.629.178m26.847.881c-.014.9.378,1.961,1.409,2.084a12.178,12.178,0,0,0,5.22-.28c.612-.094,1.164-.947.406-1.283a17.634,17.634,0,0,1-7.034-.521m-53.611,50.73c1.22.262,2.664.713,3.769-.108A14.327,14.327,0,0,0,506.629,386.623Z" transform="translate(-488.84 -273.295)" fill="#0c0c0d"/>
      </g>
      <g id="_120000ff" data-name="#120000ff" transform="translate(-4790.193 -12963.112)">
        <path id="Path_1024509" data-name="Path 1024509" d="M883.373,282.67c.318.36.836.636.808,1.189.224,2.853-1.37,5.374-2.217,7.989-.241,1.6,2.115,1.234,2.482,2.472-1.4-.122-3.65-1-3.077-2.783C882.453,288.7,884.016,285.806,883.373,282.67Z" transform="translate(-881.278 -282.67)" fill="#120000"/>
      </g>
      <g id="_090200ff" data-name="#090200ff" transform="translate(-4791.682 -12962.124)">
        <path id="Path_1024510" data-name="Path 1024510" d="M878.1,288.418a1.731,1.731,0,0,1-.454-2.919C879.2,285.457,879.33,287.8,878.1,288.418Z" transform="translate(-877.019 -285.498)" fill="#090200"/>
      </g>
      <g id="_160f0cff" data-name="#160f0cff" transform="translate(-4782.812 -12962.118)">
        <path id="Path_1024511" data-name="Path 1024511" d="M902.789,285.816c.678-.787,1.706.112,1.671.948.206.808-.451,2.042-1.4,1.612A1.828,1.828,0,0,1,902.789,285.816Z" transform="translate(-902.39 -285.513)" fill="#160f0c"/>
      </g>
      <g id="_0b0a0eff" data-name="#0b0a0eff" transform="translate(-4878.961 -12961.519)">
        <path id="Path_1024512" data-name="Path 1024512" d="M634.054,287.23l.29.056c2.157,3.573,4.412,7.083,6.6,10.639-4.521-.031-9.045.087-13.562-.112q3.356-5.276,6.674-10.583m-5.688,10c3.828-.017,7.657.084,11.485.094-1.937-3.007-3.765-6.083-5.685-9.1C632.2,291.205,630.422,294.31,628.366,297.233Z" transform="translate(-627.38 -287.23)" fill="#0b0a0e"/>
        <path id="Path_1024513" data-name="Path 1024513" d="M890.813,351.55c.066.427.143.853.22,1.283-.741,2.814-1.773,5.548-2.766,8.283-4.514,13.317-8.915,26.743-11.38,40.616-.21.668.85.636,1.21.975.182-.171.538-.517.717-.689,2.154.462,4.293-.556,6.461.049-.93.937-2.377.273-3.538.339-.273,5.979-.657,11.954-1,17.932-.154-.552-.336-1.094-.482-1.643.255-5.293.612-10.583.86-15.876-.685-.077-1.36-.143-2.038-.206-.339,5.842-.818,11.674-1.185,17.516l-.224.514c-.8-2.035-.031-4.258-.08-6.37q-1.012,0-2.014.01a173.7,173.7,0,0,0,.8,24.274l-.626.073a185.187,185.187,0,0,1-.8-24.239c-3.461.986-7.052.126-10.293-1.185.458,1.4.031,2.814.052,4.23-.024,2.458-.133,4.916-.339,7.363-.136-.1-.406-.3-.542-.409.217-2.793.262-5.594.4-8.391-2.255.577-4.895.563-6.776-.982-1.122-.794-1.531-2.171-2.451-3.14-.454-.549-1.084-1.052-1.122-1.818a22.984,22.984,0,0,0-.9-3.444,7.879,7.879,0,0,1,.552-1.815c-.388-.549-.769-1.094-1.15-1.64-2.542.545-5,1.486-7.6,1.752-.164.01-.493.038-.657.049a2.753,2.753,0,0,1-1.405-1.479c-.231-.913.811-1.276,1.343-1.769.038-1.021-.371-2.311.185-3.147l.164,0a15.2,15.2,0,0,1,.287,3.038,61.757,61.757,0,0,1,8.387-3.171c2.252-.465,4.545-.717,6.8-1.21a6.428,6.428,0,0,1,3.751.535c-.045-.668-.08-1.332-.115-2l.636.024c.021.713.021,1.426.028,2.143,4.021,1.343,8.017,2.759,12.034,4.126a222.766,222.766,0,0,1,7.835-30.033c.787-2.465,1.647-4.909,2.353-7.4-1.175,1.905-2.192,3.905-3.44,5.765-2.175-2.447-4.1-5.118-6.461-7.395l.766-.028A61.141,61.141,0,0,1,882.9,369.6c.818-1.549,1.682-3.07,2.559-4.584a55.685,55.685,0,0,0,5.353-13.464m-32.27,46.594c-1.633.339-3.3.5-4.93.818a29.708,29.708,0,0,0-5.961,2.063,36.438,36.438,0,0,0-4.444,2.035c.325.643.846,1.357,1.685,1.2,2.993-.276,5.776-1.622,8.762-1.965a9.807,9.807,0,0,0,2.444-.259c.815-.629,1.374-1.528,2.189-2.164l.448.587c-1.857,1.818-3.884,3.542-5.213,5.8-.213.7.367,1.245.685,1.8a60.826,60.826,0,0,1,3.762-4.846l.535-.126.1.378c-.65.885-1.461,1.64-2.066,2.563l-.039,0a10.451,10.451,0,0,0-2.115,3.335c-.154,1.059.769,1.773,1.381,2.486a39.177,39.177,0,0,1,3.038-5.37l.416.08c-.238,1.367-1.427,2.311-1.863,3.612l-.049.336-.066-.059a7.583,7.583,0,0,0-.989,2.147,5.407,5.407,0,0,0,3.626,2.975,7.511,7.511,0,0,0,3.954-.143c.71-.189.364-.947-.052-1.238a2.743,2.743,0,0,0-3.276-.353,2.21,2.21,0,0,0-1.2-1.161,2.924,2.924,0,0,1,3.07-.881c2.57.787,5.045,1.958,7.737,2.315,2.58.434,5.094-.78,7.685-.381.1-3.556.528-7.094.6-10.649-5.65-1.1-10.852-3.734-16.411-5.164a7.258,7.258,0,0,0-3.447.22m-5.5,5.028c.3.406.608.811.919,1.213.5-.517,1.014-1.024,1.5-1.559a7.46,7.46,0,0,0-2.423.346m7.15,9.517c.727.049,1.454.08,2.189.077.661.28,1.311.584,1.975.867-.091-.122-.276-.367-.367-.489C862.766,412.72,861.424,411.776,860.2,412.688Z" transform="translate(-767.41 -329.062)" fill="#0b0a0e"/>
      </g>
      <g id="_dee7f1ff" data-name="#dee7f1ff" transform="translate(-4877.975 -12960.525)">
        <path id="Path_1024514" data-name="Path 1024514" d="M630.2,299.08c2.056-2.923,3.835-6.027,5.8-9.01,1.919,3.021,3.748,6.1,5.685,9.1C637.857,299.164,634.028,299.062,630.2,299.08Z" transform="translate(-630.2 -290.07)" fill="#dee7f1"/>
      </g>
      <g id="_fbd4c7ff" data-name="#fbd4c7ff" transform="translate(-4941.902 -12956.494)">
        <path id="Path_1024515" data-name="Path 1024515" d="M454.191,316.347A42.329,42.329,0,0,0,472.756,301.6a15.048,15.048,0,0,1,2.185,8.877c-.108,1.79-.647,3.615-.161,5.4.591,2.066,1.93,3.8,2.79,5.755-.115.161-.35.475-.465.636a22.171,22.171,0,0,0-2.157,1.266c-.346,1.168-.28,2.423-.584,3.608A10.658,10.658,0,0,1,469.536,326c.063.822.787,1.136,1.447,1.423.052.175.161.524.213.7.283.038.57.073.86.112-.6.612-1.224,1.21-1.836,1.815a3.863,3.863,0,0,1-1.2,2.745,16.849,16.849,0,0,1-2.514.238c-.315.213-.619.43-.927.65a5.224,5.224,0,0,0-3.238.094c-1.874-.626-3.594-1.608-5.395-2.409,1.6,2.384,2.989,4.961,5.122,6.93a41.3,41.3,0,0,0-1.164,4.639c-.262,1.8-.975,3.664-.461,5.482.1.482.231.961.29,1.454a14.977,14.977,0,0,1-2.51,1.461c-.318.451-.64.9-.954,1.353a5.074,5.074,0,0,0-2.367-2.835c-2.178-8.859-2.189-18.058-2.454-27.124-4-.14-6.122-5.07-4.6-8.426a2.915,2.915,0,0,1,3.772-1.486c1.437.629,1.909,2.252,2.57,3.531m14.188-6.66c-.822.336-2.563.531-2.157,1.759,1.339-.465,2.615-1.269,4.1-1.14,1.185-.084,2.21.647,3.356.766-.014-.175-.045-.517-.063-.689a6.837,6.837,0,0,0-5.234-.7m2.954,7.034c1.36-.479,1.472-2.979,0-3.21A2.043,2.043,0,0,0,471.333,316.721Z" transform="translate(-447.354 -301.6)" fill="#fbd4c7"/>
      </g>
      <g id="_140200ff" data-name="#140200ff" transform="translate(-4923.095 -12948.952)">
        <path id="Path_1024516" data-name="Path 1024516" d="M892.649,323.248c.724-.381.483.79-.066.8a8.9,8.9,0,0,1-5.923.468c-.409.087-1.192-.944-.37-.836A8.357,8.357,0,0,0,892.649,323.248Z" transform="translate(-751.401 -323.172)" fill="#140200"/>
        <path id="Path_1024517" data-name="Path 1024517" d="M503.365,324.323a6.837,6.837,0,0,1,5.234.7c.018.171.049.514.063.689-1.147-.119-2.171-.85-3.356-.766-1.482-.129-2.758.675-4.1,1.14C500.8,324.854,502.543,324.658,503.365,324.323Z" transform="translate(-501.147 -323.778)" fill="#140200"/>
      </g>
      <g id="_fefefdff" data-name="#fefefdff" transform="translate(-4882.846 -12946.121)">
        <path id="Path_1024518" data-name="Path 1024518" d="M948.733,331.27a3.993,3.993,0,0,1,2.066,1.342c1.157,1.717,2.314,3.6,2.29,5.748a55.685,55.685,0,0,1-5.353,13.464c-.878,1.514-1.741,3.035-2.559,4.584a61.148,61.148,0,0,0-5.632-6.632c-.371-.311-.738-.608-1.1-.913a70.3,70.3,0,0,0,9.817-9.478,12.533,12.533,0,0,0,2.633-6.073c-.28.57-.542,1.15-.818,1.72A26.761,26.761,0,0,1,948.733,331.27Z" transform="translate(-825.802 -331.27)" fill="#fefefd"/>
        <path id="Path_1024519" data-name="Path 1024519" d="M616.27,449.488c3.21,0,6.416-.136,9.629-.178.8,3.29,1.563,6.587,2.454,9.856-3.283,0-6.566.133-9.845.308-.28-1.392-.615-2.772-.937-4.157,1.388-.475,3.538-1.395,3.024-3.223-.982-1.024-2.643-.322-3.905-.479C616.55,450.9,616.406,450.195,616.27,449.488Z" transform="translate(-616.27 -408.041)" fill="#fefefd"/>
      </g>
      <g id="_1c120dff" data-name="#1c120dff" transform="translate(-4918.701 -12944.583)">
        <path id="Path_1024520" data-name="Path 1024520" d="M514.495,338.88a2.043,2.043,0,0,1,0-3.21C515.966,335.9,515.855,338.4,514.495,338.88Z" transform="translate(-513.717 -335.67)" fill="#1c120d"/>
      </g>
      <g id="_809dbaff" data-name="#809dbaff" transform="translate(-4841.685 -12943.89)">
        <path id="Path_1024521" data-name="Path 1024521" d="M953.518,337.65a14.749,14.749,0,0,1,5.416,3.342c1.21,4.807,1.475,9.779,1.821,14.7-1.926.713-3.891,1.311-5.832,1.972,1.458,1.339,3.241,2.322,4.556,3.818-3.311,7.968-7,15.792-10.621,23.631a19.681,19.681,0,0,0-1.706,4.241,7.092,7.092,0,0,0,1.346-2.091c3.975-8.667,8.034-17.3,11.81-26.054-1.336-1.15-2.766-2.189-4.1-3.342,1.671-.57,3.342-1.133,5.014-1.713a64.313,64.313,0,0,0-1.584-14.827c5.2,1.713,10.4,3.388,15.583,5.167,3.328,1.241,6.912,2.668,9.055,5.66,2.846,4.021,4.2,8.852,5.118,13.632,1.6,8.146,3.245,16.285,4.636,24.474-7.5-.185-15-.045-22.5-.08-.4-2.685-.909-5.353-1.238-8.045-.157-.934-.122-2.017-.919-2.678.294,3.608,1.077,7.16,1.559,10.747-3.657-.035-7.325-.08-10.975.129-1.762.224-2.689,1.916-3.217,3.426-2.566-.2-5.125-.6-7.7-.608,0,.15.014.455.021.6,2.556.073,5.09.437,7.643.622q-2.9,10.892-5.881,21.757c-2.266-.339-4.517-.731-6.783-1.066.119-1.259.238-2.514.269-3.772.343-5.979.727-11.954,1-17.932,1.161-.066,2.608.6,3.538-.339-2.168-.6-4.307.413-6.461-.049-.178.171-.535.517-.717.689-.36-.339-1.419-.308-1.21-.975,2.465-13.873,6.867-27.3,11.38-40.616.993-2.734,2.024-5.468,2.766-8.283a6.177,6.177,0,0,0,.126-3.416c-.318-.948-.808-1.822-1.213-2.727m26.355,13.695a28.825,28.825,0,0,0-7.688,11.251,47.607,47.607,0,0,0-2.846,10.16l.322.147c.528-.573.423-1.514.664-2.241a39.876,39.876,0,0,1,6.052-14.632,12.6,12.6,0,0,1,4.283-4.2C980.4,351.659,980.117,351.516,979.872,351.345Z" transform="translate(-868.259 -337.65)" fill="#809dba"/>
        <path id="Path_1024522" data-name="Path 1024522" d="M784.762,363.955c1.839-4.255,4.262-8.241,6.444-12.331.923.007,1.853,0,2.783-.014a41.859,41.859,0,0,0-1.017,4.381c-.587,3.363-.252,6.79-.587,10.177-.273,9.873-.042,19.764.448,29.63.035.664.07,1.329.115,2a6.429,6.429,0,0,0-3.751-.535c-2.252.493-4.545.745-6.8,1.21a61.757,61.757,0,0,0-8.387,3.171,15.191,15.191,0,0,0-.287-3.038l-.164,0c-.556.836-.147,2.126-.185,3.147-.531.493-1.573.857-1.343,1.769A2.753,2.753,0,0,0,773.437,405c.224,3.213.2,6.437.164,9.653a5.361,5.361,0,0,1-.524,2.759c-1.794,2.78-4.181,5.528-7.555,6.283-3.377.857-6.569-1.119-9.192-3.017-6.919-5.283-13.422-11.076-20.058-16.7-.773-.7-1.514-1.426-2.273-2.133a24.167,24.167,0,0,0,5.937-6.744,32.576,32.576,0,0,0,4.241-9.3c.126-.4.241-.8.367-1.192q8.1,6.749,16.341,13.328A22.926,22.926,0,0,1,767.214,407a1.884,1.884,0,0,0,1.042,1.217c-.857-3.643-3.29-6.559-5.482-9.475,2.266.7,3.895,2.454,5.608,3.982-.206-.493-.245-1.087-.689-1.44a15.157,15.157,0,0,0-5.052-3.248,10.957,10.957,0,0,1-3.37-2.119c.427-1.119.825-2.248,1.157-3.4,2.094-7.069,4.192-14.139,6.2-21.233.755-2.584,1.269-5.283,2.612-7.65a13.6,13.6,0,0,1,6.667-6c4.8-1.926,9.618-3.786,14.408-5.734-1.059,2.22-2.426,4.276-3.461,6.51-.881,1.9-2.052,3.668-2.832,5.615.947,1.119,2.332,1.713,3.458,2.626-1.1,1.227-2.828,1.647-4.042,2.752a7.884,7.884,0,0,0,.1,2.479c.944,6.15,2.129,12.261,3.213,18.39a26.646,26.646,0,0,0,1.3,5.321c.185-1.874-.427-3.682-.738-5.507-1.311-6.737-2.409-13.513-3.552-20.278,1.584-1.066,3.258-1.989,4.853-3.035-1.238-1.007-2.682-1.731-3.853-2.814m-12.9,10.408c-.014,1.3.094,2.6.175,3.905.493,6.618.685,13.268,1.224,19.873l.482-.017c-.259-7.531-.878-15.051-1.266-22.575C772.462,375.052,772.382,374.542,771.857,374.363Z" transform="translate(-734 -346.729)" fill="#809dba"/>
      </g>
      <g id="_04101bff" data-name="#04101bff" transform="translate(-5012.514 -12941.114)">
        <path id="Path_1024523" data-name="Path 1024523" d="M506.893,346.156c.039-.14.112-.423.15-.566a17.8,17.8,0,0,0,3.3,1.143c4.909,1.591,9.842,3.122,14.674,4.937,2.835,1.241,5.926,2.507,7.713,5.185A32.719,32.719,0,0,1,537.594,369c1.727,8.793,3.528,17.575,5.035,26.41,7.422-.133,14.845-.021,22.267-.077a2.455,2.455,0,0,1,2.017,2.856q-4.7,16.992-9.517,33.955c-.559,1.836-.787,3.937-2.308,5.286,5.58-.084,11.16-.042,16.74,0,.091,3.633,0,7.269.025,10.9q-61.568.063-123.133.042c-31.931-.028-63.858.084-95.786-.035q-29.547.026-59.1.049c-16.149.024-32.3-.07-48.447.038.119-.168.353-.5.468-.668,19.026-.091,38.049,0,57.076-.038q134.16-.047,268.321-.018c-.056-3.241-.024-6.482-.017-9.719-18.694.094-37.4-.136-56.09.1-9.667-.014-19.334.164-29-.087-6.185-.021-12.373-.042-18.558,0-.168-.189-.329-.378-.479-.563-.427-.58-1.154-1.308-.71-2.077.189-.489.766-.409,1.189-.475,2.063-.1,4.129,0,6.192-.038.65-4.762,1.192-9.538,1.577-14.328.136.1.406.308.542.409-.294,4.66-.878,9.3-1.573,13.911,4.314-.052,8.636.1,12.95-.08l.626-.073.042.108c2.412.049,4.825,0,7.237-.007,1.094-4.318,2.248-8.618,3.5-12.891-2.412-.346-4.811-.759-7.213-1.161.017-1.206.066-2.409.115-3.612-.8-.108-1.6-.21-2.388-.353l.224-.514c.734.129,1.468.269,2.213.4.038-.615.108-1.22.15-1.832.147.549.329,1.091.483,1.643-.031,1.259-.15,2.514-.269,3.772,2.266.336,4.517.727,6.783,1.066q2.963-10.872,5.881-21.757c-2.552-.185-5.087-.549-7.643-.622-.007-.15-.017-.454-.021-.6,2.577.007,5.136.406,7.7.608.528-1.51,1.454-3.2,3.217-3.426,3.65-.21,7.318-.164,10.975-.129-.482-3.587-1.266-7.139-1.559-10.747.8.661.762,1.745.919,2.678.329,2.692.836,5.36,1.238,8.045,7.5.035,15-.1,22.5.08-1.391-8.188-3.038-16.327-4.636-24.474-.923-4.779-2.273-9.611-5.118-13.632-2.143-2.993-5.727-4.419-9.055-5.66-5.178-1.78-10.384-3.454-15.583-5.167a64.315,64.315,0,0,1,1.584,14.827c-1.671.58-3.342,1.143-5.014,1.713,1.332,1.154,2.762,2.192,4.1,3.342-3.776,8.755-7.835,17.387-11.81,26.054a7.093,7.093,0,0,1-1.346,2.091,19.678,19.678,0,0,1,1.706-4.241c3.622-7.839,7.311-15.663,10.622-23.631-1.315-1.5-3.1-2.479-4.556-3.818,1.94-.661,3.905-1.259,5.832-1.972-.346-4.923-.612-9.894-1.822-14.7m.406,50.136a3.81,3.81,0,0,0-1.933,2.926c-3.164,11.9-6.433,23.778-9.657,35.661-.4,1.077.364,2.661,1.615,2.566q14.511-.047,29.029-.07c8.975-.175,17.953-.031,26.931-.091a2.823,2.823,0,0,0,2.675-2.245q5.213-18.423,10.338-36.878A1.719,1.719,0,0,0,564.815,396c-18.757-.028-37.522,0-56.282-.01a2.825,2.825,0,0,0-1.234.308m-40.556,39.595a2.609,2.609,0,0,0,2.633,1.384c8.817.084,17.642-.059,26.452.28a4.1,4.1,0,0,1-.937-2.112c-9.213.042-18.432.031-27.641.084Z" transform="translate(-245.39 -345.59)" fill="#04101b"/>
      </g>
      <g id="_fefdfeff" data-name="#fefdfeff" transform="translate(-4782.405 -12939.439)">
        <path id="Path_1024524" data-name="Path 1024524" d="M903.559,359.683a28.818,28.818,0,0,1,1.5-9.3,16.074,16.074,0,0,0,1.066,4.779,30.244,30.244,0,0,0,3.535,5.674c-2.136.056-3.066,2.3-4.059,3.853q-.566.981-1.143,1.954C904.244,364.309,903.479,362.04,903.559,359.683Z" transform="translate(-903.553 -350.38)" fill="#fefdfe"/>
      </g>
      <g id="_080806ff" data-name="#080806ff" transform="translate(-4919.72 -12935.828)">
        <path id="Path_1024525" data-name="Path 1024525" d="M516.212,361.976a22.155,22.155,0,0,1,2.157-1.266c-.063.21-.189.636-.252.846-.392.255-.8.479-1.2.71a42.22,42.22,0,0,0-.5,10.66l-.542-.556c-.3-1.615.552-3.692-.878-4.916.14-.385.269-.776.4-1.161-1.052-.115-2.1-.234-3.147-.423-.661-.287-1.385-.6-1.447-1.423a10.659,10.659,0,0,0,4.828,1.136C515.932,364.4,515.866,363.143,516.212,361.976Z" transform="translate(-510.8 -360.71)" fill="#080806"/>
      </g>
      <g id="_829ebcff" data-name="#829ebcff" transform="translate(-5016.225 -12933.867)">
        <path id="Path_1024526" data-name="Path 1024526" d="M256.53,370.337a38.79,38.79,0,0,1,19.215-3.965A37.28,37.28,0,0,1,289.78,370.2c-3.094,2.933-6.321,5.87-8.436,9.629-1.444,2.745-2.287,6.1-1.252,9.122-.423,1.353-1.531,2.325-2.126,3.594-2.238,4.37-2.968,9.293-3.811,14.072-3.321.189-6.811.339-9.775,2.021a13.656,13.656,0,0,0-6.758,9.636,25.757,25.757,0,0,0-.063,5.269c.3,5.706.189,11.426.517,17.131a35.035,35.035,0,0,1-12.247-8.185A37.791,37.791,0,0,1,235.7,413.763a38.327,38.327,0,0,1,2.779-24.809A40.474,40.474,0,0,1,256.53,370.337Z" transform="translate(-234.775 -366.319)" fill="#829ebc"/>
      </g>
      <g id="_fcdcd0ff" data-name="#fcdcd0ff" transform="translate(-4926.916 -12930.668)">
        <path id="Path_1024527" data-name="Path 1024527" d="M498.863,375.47c1.042.189,2.094.308,3.147.423-.133.385-.262.776-.4,1.161-.706,1.405-.591,3.014-1.024,4.489a2.693,2.693,0,0,1-2.437,1.972c-2.741.21-5.395-.769-7.926-1.7a5.225,5.225,0,0,1,3.237-.094c.308-.22.612-.437.927-.65a16.852,16.852,0,0,0,2.514-.238,3.863,3.863,0,0,0,1.2-2.745c.612-.6,1.231-1.2,1.836-1.815-.29-.038-.577-.073-.86-.112C499.023,375.994,498.915,375.645,498.863,375.47Z" transform="translate(-490.22 -375.47)" fill="#fcdcd0"/>
      </g>
      <g id="_011121ff" data-name="#011121ff" transform="translate(-4915.196 -12930.195)">
        <path id="Path_1024528" data-name="Path 1024528" d="M1033.644,376.82c.245.171.528.315.787.489a12.6,12.6,0,0,0-4.283,4.2,39.876,39.876,0,0,0-6.052,14.632c-.241.727-.136,1.668-.664,2.241l-.322-.147a47.6,47.6,0,0,1,2.846-10.16A28.825,28.825,0,0,1,1033.644,376.82Z" transform="translate(-848.52 -376.82)" fill="#011121"/>
        <path id="Path_1024529" data-name="Path 1024529" d="M525.045,466.651a9.8,9.8,0,0,1,.133-1.811,4.319,4.319,0,0,1,.521,1.773c.318,7.234.818,14.506.094,21.736-.559,4.618-1.37,9.213-1.6,13.866l-.416.038c-.217-4.031.755-7.985,1.206-11.971C525.9,482.44,525.552,474.511,525.045,466.651Z" transform="translate(-523.741 -434.066)" fill="#011121"/>
      </g>
      <g id="_fffffeff" data-name="#fffffeff" transform="translate(-4992.921 -12927.753)">
        <path id="Path_1024530" data-name="Path 1024530" d="M585.885,383.819c7.01.049,14.023-.084,21.03.052.175.822.325,1.633.5,2.461a2.264,2.264,0,0,0,.371-1.717c1.724.059,3.447.059,5.171.045,1.045,3.437,2.206,6.839,3.437,10.216-1.622.682-3.353,1.049-4.986,1.7a8.924,8.924,0,0,1-3.335.787c-5.944-.052-11.887.066-17.831.094a21.987,21.987,0,0,0-3.395.108c.01.126.031.371.042.493,6.93.147,13.866-.119,20.8-.035a1.729,1.729,0,0,0-.021,2.231c-6.653-.136-13.31.133-19.967.136.028.514.283.738.762.664,6.423-.038,12.849-.238,19.275-.154,1.5.021,3-.035,4.507-.094,1.451.056,2.423-1.5,3.951-1.15a20.089,20.089,0,0,0-1.175,2.021c-.213,1.126.867,1.759,1.657,2.3-.112.8-.524,1.72.014,2.461.371.455.881.762,1.287,1.189.164.773.087,1.713.741,2.287a5.613,5.613,0,0,0,2.724.815q4.657,14.841,9.261,29.7c-12.24.745-24.477,1.566-36.728,2.154-1.454-7.961-3.409-15.817-5.146-23.715-.182.224-.364.448-.545.668-.115.14-.346.413-.461.552a2.658,2.658,0,0,1,.881-1.661c-.1-.766-.64-1.559-.378-2.325a18.742,18.742,0,0,1,2.122-2.661c.493-.619,1.346-.451,2.042-.517a37.459,37.459,0,0,0,1.182,4.584c3.626-.178,7.255-.322,10.887-.378-.717-3.185-1.559-6.342-2.346-9.51a5.142,5.142,0,0,0-.542-1.535c-3.573.035-7.153.136-10.73.168.192.958.4,1.905.6,2.863a6.083,6.083,0,0,0-4.671,1.367c-2.706-8.688-5.363-17.394-8.324-26,2.325-.007,4.65.087,6.971,0a24.324,24.324,0,0,1,.871,2.86c4.188.049,8.384-.129,12.579-.112,3.038-.066,6.083.052,9.118-.119l.112-.92c-.364.175-.71.462-1.14.378q-10.116.01-20.233.22c-.273-1-.58-2-.944-2.965m.136,10.765q.052.687.7.619c6.185-.087,12.373-.066,18.561-.115,2.279-.224,4.566.192,6.846-.045l.238-.573c-8.782-.045-17.565.035-26.347.115M605.135,406.7a.671.671,0,0,0,.808.552c3.007-.017,6.02-.056,9.027-.157.1-.154.308-.461.409-.612-3.416-.1-6.835.066-10.244.217m.619,2.863c.126.224.259.448.392.675,2.626-.073,5.244-.262,7.873-.262.738-.038,1.587.094,2.164-.482a4.711,4.711,0,0,0-1.815-.227c-2.874.066-5.744.189-8.615.3m1.045,2.79c-.094.154-.28.461-.374.615,3.475.052,6.947-.22,10.426-.28-.091-.154-.269-.458-.357-.612-3.234-.045-6.461.266-9.7.276m.727,2.846c-.108.15-.329.454-.437.608,3.451.031,6.895-.241,10.345-.3-.031-.161-.091-.479-.119-.636-3.265.084-6.527.217-9.789.329m-12.754,6.349a1.9,1.9,0,0,0-1.426.437c1.374.472,2.853.112,4.276.171,7.65-.276,15.306-.455,22.956-.769l.014-.6c-8.608.189-17.208.612-25.82.759m-.7,3.052c.28.3.563.776,1.073.612,4.3-.241,8.618-.238,12.925-.388,4.43-.3,8.88-.154,13.307-.493-.059-.164-.185-.49-.245-.654-9.01.524-18.047.469-27.061.923m.731,2.933.276.6c4.923-.007,9.838-.325,14.758-.434,2.339-.136,4.727.077,7.034-.4-.9-.825-2.157-.367-3.238-.385C607.362,427.123,601.087,427.393,594.807,427.536Z" transform="translate(-481.663 -383.808)" fill="#fffffe"/>
        <path id="Path_1024531" data-name="Path 1024531" d="M306.712,486.656c2.769-2.087,6.36-2.668,9.747-2.538a12.52,12.52,0,0,0-8.58,11.485c.434,10.635.794,21.278,1.168,31.921-2.245-.028-4.489-.039-6.734-.007-.22-10.055-.482-20.11-.881-30.158A12.927,12.927,0,0,1,306.712,486.656Z" transform="translate(-301.429 -449.036)" fill="#fffffe"/>
      </g>
      <g id="_16222eff" data-name="#16222eff" transform="translate(-4783.417 -12924.703)">
        <path id="Path_1024532" data-name="Path 1024532" d="M900.774,392.782l.584-.252c-.031,9.971-.038,19.946.5,29.907l-.636-.024C900.732,412.546,900.5,402.655,900.774,392.782Z" transform="translate(-900.658 -392.53)" fill="#16222e"/>
      </g>
      <g id="_f5d5cdff" data-name="#f5d5cdff" transform="translate(-4866.76 -12917.42)">
        <path id="Path_1024533" data-name="Path 1024533" d="M664.238,417.01c4.381-1.419,8.737-3.171,13.352-3.65a35.125,35.125,0,0,0-7.922,3.21c-.72.5-.052,1.3.15,1.9-2.2.276-4.363.975-6.6.839-.507-.031-1.147-.608-.871-1.133C662.612,417.377,663.566,417.286,664.238,417.01Z" transform="translate(-662.279 -413.36)" fill="#f5d5cd"/>
      </g>
      <g id="_010101ff" data-name="#010101ff" transform="translate(-4888.562 -12917.104)">
        <path id="Path_1024534" data-name="Path 1024534" d="M599.92,414.391c8.783-.08,17.565-.161,26.348-.115l-.238.573c-2.28.238-4.566-.178-6.846.045-6.188.049-12.377.028-18.562.115Q599.972,415.078,599.92,414.391Z" transform="translate(-599.92 -414.262)" fill="#010101"/>
        <path id="Path_1024535" data-name="Path 1024535" d="M654.59,448.827c3.409-.15,6.828-.322,10.244-.217-.1.15-.308.458-.409.612-3.007.1-6.021.14-9.027.157A.671.671,0,0,1,654.59,448.827Z" transform="translate(-635.476 -436.58)" fill="#010101"/>
        <path id="Path_1024536" data-name="Path 1024536" d="M658.654,464.938c3.234-.01,6.461-.322,9.7-.276.087.154.266.458.357.612-3.479.059-6.95.332-10.426.28C658.374,465.4,658.56,465.092,658.654,464.938Z" transform="translate(-637.876 -447.038)" fill="#010101"/>
        <path id="Path_1024537" data-name="Path 1024537" d="M660.617,472.989c3.262-.112,6.524-.245,9.789-.329.028.157.087.475.119.636-3.451.059-6.895.332-10.345.3C660.288,473.443,660.509,473.139,660.617,472.989Z" transform="translate(-639.112 -452.243)" fill="#010101"/>
      </g>
      <g id="_fbd2c6ff" data-name="#fbd2c6ff" transform="translate(-4859.071 -12917.384)">
        <path id="Path_1024538" data-name="Path 1024538" d="M684.672,416.97c2.993-1.727,6.37-2.563,9.671-3.486a5.5,5.5,0,0,1,2.863.794,25.687,25.687,0,0,1,6.713,4.412,51.507,51.507,0,0,0,5.622,5.07,49.318,49.318,0,0,1-4.79,9.884c-.1.143-.3.43-.4.573a14.445,14.445,0,0,1-2.374-2.58c-.164-.042-.489-.122-.654-.161-.087-.213-.266-.64-.357-.853-1.741-.224-3.5.119-5.244-.021-1.063-.1-2.262-.038-3.094-.825,1.346-.14,3.412-.881,2.807-2.622.192-.5.692-1.014.458-1.584-.241-.825-1.147-1.1-1.8-1.5.14-.843.392-1.856-.4-2.465-1.357-1.528-3.891-.717-5.091-2.458-.57-.007-1.129-.01-1.689-.031,1.912.087,3.723-1.227,5.622-.633a13.981,13.981,0,0,0,4.15,4.7c1.245.745,2.7,1.566,4.2,1.213-.007-.1-.021-.322-.028-.43a11.493,11.493,0,0,1-3.538-1.087,9.518,9.518,0,0,1-4.07-4.937,6.455,6.455,0,0,0-4.045.129,10.541,10.541,0,0,1-4.93.252C684.354,417.861,684.116,417.2,684.672,416.97Z" transform="translate(-684.27 -413.464)" fill="#fbd2c6"/>
      </g>
      <g id="_7f9cb9ff" data-name="#7f9cb9ff" transform="translate(-4927.216 -12916.764)">
        <path id="Path_1024539" data-name="Path 1024539" d="M489.36,415.24q2.077.719,4.1,1.566c3.4,1.353,6.971,2.556,9.807,4.951,2.286,1.965,3.395,4.884,4.157,7.716,1.755,6.793,3.29,13.639,4.895,20.467a40.8,40.8,0,0,1,.909,4.374,10.014,10.014,0,0,1-1.668,3.129c-.731.71-1.8.93-2.6,1.545a6.918,6.918,0,0,0-2.8,3.251c1.475-1.234,2.654-2.884,4.531-3.556-1.164,2.608-3,4.989-3.36,7.891,1.087-1.087,1.157-2.752,1.958-4.024,3.168-5.8,6.888-11.272,10.017-17.1a23.194,23.194,0,0,0,6.146,8.3,10.222,10.222,0,0,0,4.143,2.328c-2.769,6.65-5.667,13.265-9.08,19.614-.633-.829-1.269-1.661-1.979-2.423-1.9-2.168-4.654-3.3-7.29-4.276-3.171-.636-6.251.954-9.419.958.234-4.653,1.045-9.247,1.6-13.866.724-7.23.224-14.5-.094-21.736a4.319,4.319,0,0,0-.521-1.773,9.805,9.805,0,0,0-.133,1.811c.507,7.859.853,15.789-.066,23.631-.451,3.986-1.423,7.94-1.206,11.971-2.381.916-4.993.93-7.5,1.266.168-2.818.44-5.632.51-8.454a178.733,178.733,0,0,0-2.056-36.119C491.671,422.806,490.993,418.859,489.36,415.24Z" transform="translate(-489.36 -415.24)" fill="#7f9cb9"/>
      </g>
      <g id="_001225ff" data-name="#001225ff" transform="translate(-4803.829 -12916.256)">
        <path id="Path_1024540" data-name="Path 1024540" d="M842.278,416.69c.524.178.6.689.615,1.185.388,7.524,1.007,15.044,1.266,22.575l-.482.017c-.538-6.6-.731-13.254-1.224-19.872C842.372,419.295,842.264,417.994,842.278,416.69Z" transform="translate(-842.276 -416.69)" fill="#001225"/>
      </g>
      <g id="_fcd9ccff" data-name="#fcd9ccff" transform="translate(-4935.292 -12915.949)">
        <path id="Path_1024541" data-name="Path 1024541" d="M473.955,417.57a35.375,35.375,0,0,1,2.461,9.275,9.277,9.277,0,0,1-4.405,5.1c-1.815.968-3.909.294-5.751-.206.885-.528,1.773-1.049,2.622-1.633a28.294,28.294,0,0,1-1.685-4.835,5.074,5.074,0,0,1,2.367,2.835c.315-.454.636-.9.954-1.353a14.981,14.981,0,0,0,2.51-1.461c-.059-.493-.189-.972-.29-1.454a28.552,28.552,0,0,0,.968-5.014C473.77,418.514,473.9,417.885,473.955,417.57Z" transform="translate(-466.26 -417.57)" fill="#fcd9cc"/>
      </g>
      <g id="_140000ff" data-name="#140000ff" transform="translate(-4928.996 -12915.158)">
        <path id="Path_1024542" data-name="Path 1024542" d="M484.914,419.83c.126.119.381.353.507.469a28.549,28.549,0,0,1-.968,5.014C483.938,423.494,484.651,421.634,484.914,419.83Z" transform="translate(-484.271 -419.83)" fill="#140000"/>
      </g>
      <g id="_819ebbff" data-name="#819ebbff" transform="translate(-4981.362 -12914.187)">
        <path id="Path_1024543" data-name="Path 1024543" d="M345.422,426.306c1.661-1.636,3.6-3.44,6-3.7,3.3.888,5.091,4.126,7.377,6.4a20.46,20.46,0,0,0,14.663,7.115c.266.783.528,1.57.776,2.363,3.339,11.433,5.465,23.362,4.734,35.312-7.5-.8-14.985-1.759-22.467-2.706,1.815-9.765,3.58-19.54,5-29.375-.147-.021-.444-.059-.594-.08-1.325,9.828-3.136,19.589-4.912,29.347a11.84,11.84,0,0,0-8.727-1.329,3.662,3.662,0,0,0-1.367.724c1.856-.175,3.709-.724,5.583-.406a10.09,10.09,0,0,1,3.657,1.217,16.942,16.942,0,0,0-7.594,3.961,4.343,4.343,0,0,0-.776,1.241c1.4-.9,2.559-2.122,4.014-2.937,2.1-1.2,4.552-2.129,7-1.654,8.38,1.161,16.792,2.035,25.183,3.108,1.9.22,3.793.465,5.7.6.126.07.378.217.5.29-.038.35-.087.7-.143,1.056-.892,3.2-1.566,6.447-2.542,9.618-.189.318-.276.958-.78.878-14.908.084-29.819.315-44.727.28-1.133-.01-2.259-.035-3.388-.115a6.151,6.151,0,0,1-2.8-4.3c-.787-4.405.091-8.863.566-13.251,1.091-9.262,2.65-18.46,4.346-27.631C340.79,436.784,341.6,430.763,345.422,426.306Z" transform="translate(-334.489 -422.61)" fill="#819ebb"/>
      </g>
      <g id="_0c0e12ff" data-name="#0c0e12ff" transform="translate(-5012.715 -12911.235)">
        <path id="Path_1024544" data-name="Path 1024544" d="M286.62,431.05c.154.252.315.5.479.745-3.821,4.458-4.633,10.478-5.706,16.037-1.7,9.171-3.255,18.369-4.346,27.631-.475,4.388-1.353,8.845-.566,13.251a6.151,6.151,0,0,0,2.8,4.3l.5.689c-9.653-.147-19.306.077-28.956-.119-1.787,0-3.57-.007-5.356.017.038,3.245.1,6.5.014,9.744-.115.168-.35.5-.468.668-.322-3.657-.164-7.342-.154-11.01,6.681.021,13.359-.073,20.037.01-.08-3.412-.22-6.825-.294-10.237-.329-5.706-.217-11.426-.517-17.131a25.757,25.757,0,0,1,.063-5.269,13.656,13.656,0,0,1,6.758-9.636c2.965-1.682,6.454-1.832,9.775-2.021.843-4.779,1.573-9.7,3.811-14.072.594-1.269,1.7-2.241,2.126-3.594m-16.729,21.1a12.927,12.927,0,0,0-5.279,10.7c.4,10.048.661,20.1.881,30.158,2.245-.031,4.489-.021,6.734.007-.374-10.643-.734-21.285-1.168-31.92a12.52,12.52,0,0,1,8.58-11.485c-3.388-.129-6.978.451-9.747,2.538m3,4.112c-1.371,2.671-1.318,5.751-1.063,8.667.276,9.359.811,18.708.951,28.071,1.759-.014,3.517.014,5.279.045-2.395-2.531-2.664-6.262-2.51-9.569.276-3.758.776-7.5,1.262-11.237,1.066-7.436,2.1-14.883,3.58-22.25A12.229,12.229,0,0,0,272.894,456.265Z" transform="translate(-244.814 -431.05)" fill="#0c0e12"/>
      </g>
      <g id="_f8d4c6ff" data-name="#f8d4c6ff" transform="translate(-4858.871 -12911.35)">
        <path id="Path_1024545" data-name="Path 1024545" d="M685.726,431.013c.552-.469,1.339-.224,1.993-.231,1.035-.028,1.538,1.063,2.454,1.346,1.273.475,2.926.318,3.818,1.514a.917.917,0,0,1-.7,1.447,15.716,15.716,0,0,1-7.692-1.437C684.345,433.185,684.838,431.587,685.726,431.013Z" transform="translate(-684.843 -430.725)" fill="#f8d4c6"/>
      </g>
      <g id="_fbd8cdff" data-name="#fbd8cdff" transform="translate(-4857.474 -12907.277)">
        <path id="Path_1024546" data-name="Path 1024546" d="M688.84,442.37a22.968,22.968,0,0,0,5.992.982c1.189-.024,2.654-.049,3.405,1.059.346.8-.748,1.143-1.322,1.343a13.108,13.108,0,0,1-7.129-.885C688.756,444.482,688.875,443.255,688.84,442.37Z" transform="translate(-688.84 -442.37)" fill="#fbd8cd"/>
      </g>
      <g id="_fefdfdff" data-name="#fefdfdff" transform="translate(-4841.723 -12907.264)">
        <path id="Path_1024547" data-name="Path 1024547" d="M742.417,442.41c.9.7,1.608,1.633,1.15,2.835a58.169,58.169,0,0,1-3.542,7.636c-1.164,1.9-2.566,3.636-3.863,5.447a27.135,27.135,0,0,1-2.273-1.636,14.148,14.148,0,0,0,2.947-3.077A38.567,38.567,0,0,0,742.417,442.41Z" transform="translate(-733.89 -442.41)" fill="#fefdfd"/>
        <path id="Path_1024548" data-name="Path 1024548" d="M872.32,498.556a7.46,7.46,0,0,1,2.423-.346c-.489.535-1,1.042-1.5,1.559Q872.773,499.166,872.32,498.556Z" transform="translate(-823.922 -478.701)" fill="#fefdfd"/>
        <path id="Path_1024549" data-name="Path 1024549" d="M892.77,525.705c1.227-.913,2.57.031,3.8.455.091.122.276.367.367.489-.664-.283-1.315-.587-1.975-.867C894.224,525.786,893.5,525.754,892.77,525.705Z" transform="translate(-837.222 -496.333)" fill="#fefdfd"/>
      </g>
      <g id="_c3d4e4ff" data-name="#c3d4e4ff" transform="translate(-4941.687 -12905.433)">
        <path id="Path_1024550" data-name="Path 1024550" d="M464.724,447.65a178.826,178.826,0,0,1,2.3,34.623c-.171,3.374-.4,6.744-.626,10.115q-1.217-.01-2.426-.031a1.708,1.708,0,0,0-1.71-1.157c-2.982-.35-5.958-.762-8.954-.986.864-12.048-1.3-24.117-4.734-35.63-.22-.762-.42-1.524-.6-2.294a15.324,15.324,0,0,0,4.129-.4c2.056-.668,3.944.93,6.017.79C461.123,452.566,463.315,450.073,464.724,447.65Z" transform="translate(-447.97 -447.65)" fill="#c3d4e4"/>
      </g>
      <g id="_0f1011ff" data-name="#0f1011ff" transform="translate(-4843.161 -12904.827)">
        <path id="Path_1024551" data-name="Path 1024551" d="M740.892,449.779l.538-.4a32.574,32.574,0,0,1-4.241,9.3,24.167,24.167,0,0,1-5.937,6.744c.759.706,1.5,1.433,2.273,2.133l-.766.056c-1.031-.93-2.325-1.7-2.958-2.972a9.739,9.739,0,0,1,.5-3.154c-1.374-2.276,2.161-4.426.615-6.657.164.038.49.119.654.161a14.448,14.448,0,0,0,2.374,2.58c.1-.143.3-.43.4-.573-.073.378-.133.762-.185,1.147a14.144,14.144,0,0,1-2.947,3.077,27.156,27.156,0,0,0,2.273,1.636c1.3-1.811,2.7-3.549,3.863-5.447A58.169,58.169,0,0,0,740.892,449.779Z" transform="translate(-729.777 -449.38)" fill="#0f1011"/>
      </g>
      <g id="_faded2ff" data-name="#faded2ff" transform="translate(-4855.999 -12903.793)">
        <path id="Path_1024552" data-name="Path 1024552" d="M693.059,452.34a17.635,17.635,0,0,0,7.034.521c.759.336.206,1.189-.406,1.283a12.178,12.178,0,0,1-5.22.28C693.437,454.3,693.045,453.242,693.059,452.34Z" transform="translate(-693.059 -452.34)" fill="#faded2"/>
      </g>
      <g id="_fad4c7ff" data-name="#fad4c7ff" transform="translate(-4896.429 -12902.854)">
        <path id="Path_1024553" data-name="Path 1024553" d="M578.577,468.117c1.227-4.713,2.821-9.552,6.328-13.1.262.7.528,1.388.811,2.077-1.3,1.028-3.01,1.839-3.563,3.514.154-.021.462-.066.612-.087,2.031-2.21,4.6-4.517,7.807-4.423,1.357.007,2.811-.42,4.115.035.171.832-.577,1.416-1.21,1.783-1.1.668-2.43.563-3.629.9a18.941,18.941,0,0,0-2.545,2.741c-.622.559-.458,1.426-.521,2.171a11.623,11.623,0,0,1-1.542,5.6,13.846,13.846,0,0,0-.989,1.762c.878-.035,1.224-.9,1.6-1.542a29.008,29.008,0,0,0,1.238-3.15c.115-.14.346-.413.462-.552.773,2.28,1.1,4.678,1.689,7-2.713,1.468-3.7,4.549-5.094,7.09a22.57,22.57,0,0,1-6.727-8.178C577.64,470.515,578.326,469.372,578.577,468.117Z" transform="translate(-577.42 -455.02)" fill="#fad4c7"/>
      </g>
      <g id="_080807ff" data-name="#080807ff" transform="translate(-4881.237 -12902.303)">
        <path id="Path_1024554" data-name="Path 1024554" d="M656.36,456.908c2.87-.108,5.741-.231,8.615-.3a4.71,4.71,0,0,1,1.814.227c-.577.577-1.426.444-2.164.482-2.629,0-5.248.189-7.874.262C656.619,457.355,656.486,457.132,656.36,456.908Z" transform="translate(-643.952 -456.6)" fill="#080807"/>
        <path id="Path_1024555" data-name="Path 1024555" d="M622.3,490.349c8.611-.147,17.212-.57,25.82-.759l-.014.6c-7.65.315-15.306.493-22.956.769-1.423-.059-2.9.3-4.276-.171A1.9,1.9,0,0,1,622.3,490.349Z" transform="translate(-620.87 -478.056)" fill="#080807"/>
      </g>
      <g id="_837471ff" data-name="#837471ff" transform="translate(-4852.457 -12901.09)">
        <path id="Path_1024556" data-name="Path 1024556" d="M703.5,460.07c.472,0,.944.021,1.426.017.832.787,2.031.727,3.094.825,1.748.14,3.5-.2,5.244.021.091.213.269.64.357.853-1.51.014-3.024.014-4.535.014a43.7,43.7,0,0,1-5.667-.727l0,.416c-.059-.161-.175-.479-.231-.636.14-.035.423-.1.563-.136C703.694,460.556,703.568,460.234,703.5,460.07Z" transform="translate(-703.19 -460.07)" fill="#837471"/>
      </g>
      <g id="_000512ff" data-name="#000512ff" transform="translate(-4969.947 -12898.499)">
        <path id="Path_1024557" data-name="Path 1024557" d="M395.477,467.672l.524-.192c3.437,11.513,5.6,23.582,4.734,35.63,3,.224,5.971.636,8.954.986l.224.6c-1.909-.136-3.8-.381-5.7-.6-8.391-1.073-16.8-1.947-25.183-3.108-2.451-.475-4.905.454-7,1.654-1.454.815-2.615,2.042-4.014,2.937a4.344,4.344,0,0,1,.776-1.241,16.942,16.942,0,0,1,7.594-3.961,10.089,10.089,0,0,0-3.657-1.217c-1.874-.318-3.727.231-5.583.406a3.662,3.662,0,0,1,1.367-.724,11.84,11.84,0,0,1,8.727,1.329c1.776-9.758,3.587-19.519,4.912-29.347.15.021.448.059.594.08-1.416,9.835-3.182,19.61-5,29.375,7.482.947,14.967,1.909,22.467,2.706C400.941,491.034,398.816,479.1,395.477,467.672Z" transform="translate(-367.14 -467.48)" fill="#000512"/>
      </g>
      <g id="_fcd5c7ff" data-name="#fcd5c7ff" transform="translate(-4803.164 -12892.802)">
        <path id="Path_1024558" data-name="Path 1024558" d="M859.514,484.141a7.26,7.26,0,0,1,3.447-.22c5.559,1.43,10.761,4.063,16.411,5.164-.077,3.556-.507,7.094-.6,10.65-2.591-.4-5.1.815-7.685.381-2.692-.357-5.167-1.528-7.737-2.314a2.924,2.924,0,0,0-3.07.881c-.444.409-1.073,1.094-1.643.437a16.773,16.773,0,0,1-.35-2.6l.049-.336c.437-1.3,1.626-2.245,1.863-3.612l-.416-.08a39.175,39.175,0,0,0-3.038,5.37c-.612-.713-1.535-1.426-1.381-2.486a10.45,10.45,0,0,1,2.115-3.335l.038,0c.136-.021.412-.059.552-.077a18.461,18.461,0,0,0,3.133-2.842c-.115-1.056-.94-1.811-1.493-2.654l-.448-.587c-.815.636-1.374,1.535-2.189,2.164a9.807,9.807,0,0,1-2.444.259c-2.986.343-5.769,1.689-8.762,1.965-.839.154-1.36-.559-1.685-1.2a36.433,36.433,0,0,1,4.444-2.035,29.711,29.711,0,0,1,5.961-2.063C856.218,484.638,857.882,484.48,859.514,484.141Z" transform="translate(-844.18 -483.776)" fill="#fcd5c7"/>
      </g>
      <g id="_faddd2ff" data-name="#faddd2ff" transform="translate(-4792.896 -12890.118)">
        <path id="Path_1024559" data-name="Path 1024559" d="M878.807,491.45c.552.843,1.378,1.6,1.493,2.654a18.461,18.461,0,0,1-3.133,2.842c-.14.017-.416.056-.552.077.6-.923,1.416-1.678,2.066-2.563l-.1-.378-.535.126a60.8,60.8,0,0,0-3.762,4.846c-.318-.556-.9-1.1-.685-1.8C874.923,494.992,876.951,493.268,878.807,491.45Z" transform="translate(-873.549 -491.45)" fill="#faddd2"/>
      </g>
      <g id="_fdfefeff" data-name="#fdfefeff" transform="translate(-4791.161 -12887.969)">
        <path id="Path_1024560" data-name="Path 1024560" d="M944.565,497.6c.678.063,1.353.129,2.038.206-.248,5.293-.6,10.583-.86,15.876-.042.612-.112,1.217-.15,1.832-.745-.129-1.479-.269-2.213-.4C943.747,509.274,944.226,503.442,944.565,497.6Z" transform="translate(-920.7 -497.6)" fill="#fdfefe"/>
        <path id="Path_1024561" data-name="Path 1024561" d="M878.51,603.028l.507-.364c9.209-.052,18.429-.042,27.641-.084a4.1,4.1,0,0,0,.937,2.112c-8.81-.339-17.635-.2-26.452-.28A2.609,2.609,0,0,1,878.51,603.028Z" transform="translate(-878.51 -565.877)" fill="#fdfefe"/>
      </g>
      <g id="_819dbbff" data-name="#819dbbff" transform="translate(-4805.716 -12887.42)">
        <path id="Path_1024562" data-name="Path 1024562" d="M841.006,500.922c2.6-.266,5.056-1.206,7.6-1.752.381.545.762,1.091,1.15,1.64a7.885,7.885,0,0,0-.552,1.815,22.977,22.977,0,0,1,.9,3.444c.039.766.668,1.269,1.122,1.818.92.968,1.329,2.346,2.451,3.14,1.881,1.545,4.521,1.559,6.776.982-.133,2.8-.178,5.6-.4,8.391-.385,4.79-.926,9.566-1.577,14.328-2.063.038-4.129-.059-6.192.038-.423.066-1-.014-1.189.476-.444.769.283,1.5.71,2.077-4.975-.038-9.95.052-14.925-.017.063-.308.189-.927.248-1.238,1.308-6.2,2.465-12.44,3.356-18.715C841.432,511.921,841.163,506.393,841.006,500.922Z" transform="translate(-836.88 -499.17)" fill="#819dbb"/>
      </g>
      <g id="_0f1923ff" data-name="#0f1923ff" transform="translate(-4840.178 -12886.646)">
        <path id="Path_1024563" data-name="Path 1024563" d="M738.31,501.436l.766-.056c6.636,5.629,13.139,11.422,20.058,16.7,2.622,1.9,5.814,3.874,9.192,3.017,3.374-.755,5.762-3.5,7.555-6.283a5.361,5.361,0,0,0,.524-2.759c.038-3.216.059-6.44-.164-9.653.164-.01.493-.038.657-.049.157,5.472.427,11-.521,16.425-.891,6.276-2.049,12.513-3.356,18.715l-.6.231c1.395-7.4,2.863-14.793,3.793-22.264-1.773,2.395-3.744,4.909-6.678,5.9a9.008,9.008,0,0,1-8.118-1.031,89.137,89.137,0,0,1-9.566-7.258C747.327,509.212,742.708,505.446,738.31,501.436Z" transform="translate(-738.31 -501.38)" fill="#0f1923"/>
      </g>
      <g id="_0d0d0dff" data-name="#0d0d0dff" transform="translate(-4879.776 -12884.751)">
        <path id="Path_1024564" data-name="Path 1024564" d="M625.05,507.529c6.279-.143,12.555-.413,18.831-.615,1.08.018,2.339-.44,3.238.385-2.307.475-4.7.262-7.034.4-4.919.108-9.835.427-14.758.434Z" transform="translate(-625.05 -506.802)" fill="#0d0d0d"/>
      </g>
      <g id="_f5d6cdff" data-name="#f5d6cdff" transform="translate(-4790.115 -12880.123)">
        <path id="Path_1024565" data-name="Path 1024565" d="M882.489,520.04l.066.059a16.772,16.772,0,0,0,.35,2.6c.57.657,1.2-.028,1.643-.437a2.21,2.21,0,0,1,1.2,1.161,2.743,2.743,0,0,1,3.276.353c.416.29.762,1.049.052,1.238a7.512,7.512,0,0,1-3.954.143,5.408,5.408,0,0,1-3.626-2.975A7.583,7.583,0,0,1,882.489,520.04Z" transform="translate(-881.5 -520.04)" fill="#f5d6cd"/>
      </g>
      <g id="_839db9ff" data-name="#839db9ff" transform="translate(-4770.944 -12876.309)">
        <path id="Path_1024566" data-name="Path 1024566" d="M936.48,530.961q1-.01,2.014-.01c.049,2.112-.717,4.335.08,6.37.79.143,1.587.245,2.388.353-.049,1.2-.1,2.405-.115,3.612,2.4.4,4.8.815,7.213,1.161-1.252,4.272-2.405,8.573-3.5,12.891-2.412,0-4.825.056-7.237.007l-.042-.108A173.722,173.722,0,0,1,936.48,530.961Z" transform="translate(-936.334 -530.95)" fill="#839db9"/>
      </g>
      <g id="_fbd6c8ff" data-name="#fbd6c8ff" transform="translate(-4928.412 -12862.546)">
        <path id="Path_1024567" data-name="Path 1024567" d="M505.823,570.494a6.945,6.945,0,0,1,3.461.08l.448.339c-.308.154-.612.318-.909.49-.15.3-.294.615-.427.93-.3.171-.6.346-.9.535,0,.171-.011.514-.014.682.017.748.066,1.493.108,2.241a15.976,15.976,0,0,0-2.426-.437c.717,1.017,2.073.93,3.143,1.283a12.735,12.735,0,0,1,6.045,3.073q-.713.692-1.416,1.4a11.331,11.331,0,0,0-8.492-1.748c-3.888.92-7.678,2.266-11.653,2.8a6.15,6.15,0,0,0,1.8.427c-.22.157-.447.311-.675.458a3.834,3.834,0,0,1-1.217-.815,42.79,42.79,0,0,1-6.769-.839c.724-2.86,1.668-5.671,2.185-8.583C494.1,572.833,499.96,571.508,505.823,570.494Z" transform="translate(-485.94 -570.314)" fill="#fbd6c8"/>
      </g>
      <g id="_edd0c8ff" data-name="#edd0c8ff" transform="translate(-4906.851 -12862.285)">
        <path id="Path_1024568" data-name="Path 1024568" d="M549.393,571.06a17.1,17.1,0,0,1,5.454,3.122c-1.426-.594-2.79-1.329-4.244-1.849-.416-.091-.912-.448-1.29-.126-.007.035-.017.1-.024.14,1.755.958,3.692,1.549,5.461,2.493,1.909.787,3.154,2.51,4.37,4.094.71.975,1.626,1.912,1.7,3.192-2.626-1.895-4.22-5.014-7.146-6.545a42.809,42.809,0,0,0-6.062-2.227c.29-.189.591-.364.9-.535.133-.315.276-.626.427-.93.3-.171.6-.336.909-.49Z" transform="translate(-547.61 -571.06)" fill="#edd0c8"/>
      </g>
      <g id="_111e26ff" data-name="#111e26ff" transform="translate(-4978.25 -12860.047)">
        <path id="Path_1024569" data-name="Path 1024569" d="M392.285,587.19c.975-3.171,1.65-6.423,2.542-9.618l.587-.112c-.517,2.912-1.461,5.723-2.185,8.583a42.79,42.79,0,0,0,6.769.839,3.835,3.835,0,0,0,1.217.815c5.122,1.853,10.279,3.608,15.429,5.391,2.6.8,5.073,2.035,7.727,2.657,3.727.112,7.457-.269,11.184-.353,9.779-.175,19.547-.766,29.326-.78-1.371-.549-2.622-1.51-4.119-1.678-10.744.217-21.484.762-32.232.993-1.822.035-3.713.367-5.472-.276-1.874-.643-3.751-1.287-5.643-1.874-4.65-1.5-9.254-3.133-13.845-4.807.29-.126.584-.245.881-.353,2.3.664,4.486,1.668,6.776,2.36,4.1,1.423,8.311,2.542,12.366,4.1a6.244,6.244,0,0,0,2.884.273c12.2-.43,24.407-.738,36.6-1.269.259.2.517.4.78.6-.364.024-1.091.077-1.454.1,1.489.776,3.258,1.08,4.531,2.22-13.7.657-27.424.829-41.126,1.514a6.171,6.171,0,0,1-2.825-.486c-6.552-2.28-13.076-4.633-19.617-6.926-1.8-.6-3.72-.245-5.569-.308-13.992-.073-27.98.185-41.969.164-3.979-.028-7.964.161-11.936-.045l-.5-.689c1.129.08,2.255.1,3.388.115,14.908.035,29.819-.2,44.727-.28.5.08.591-.559.78-.878m.787-.409c-.185.427-.367.86-.549,1.294a46.354,46.354,0,0,0,7.436-.154,2.86,2.86,0,0,0-1.531-.115C396.753,587.029,394.861,587.078,393.071,586.781Z" transform="translate(-343.39 -577.46)" fill="#111e26"/>
      </g>
      <g id="_f2cfc4ff" data-name="#f2cfc4ff" transform="translate(-4906.865 -12859.31)">
        <path id="Path_1024570" data-name="Path 1024570" d="M547.57,579.57c2.514.825,5.209,1.423,7.332,3.094,1.762,1.507,3.2,3.339,4.814,5-.818.238-1.762.367-2.248,1.157-.28-.021-.836-.066-1.112-.091.444-.315.9-.619,1.353-.927a42.882,42.882,0,0,0-4.713-3.94,17.212,17.212,0,0,0-5.318-2.052C547.636,581.063,547.588,580.318,547.57,579.57Z" transform="translate(-547.57 -579.57)" fill="#f2cfc4"/>
      </g>
      <g id="_3e3a35ff" data-name="#3e3a35ff" transform="translate(-4909.609 -12853.249)">
        <path id="Path_1024571" data-name="Path 1024571" d="M539.72,597.094a14.327,14.327,0,0,1,3.769-.108C542.384,597.807,540.94,597.356,539.72,597.094Z" transform="translate(-539.72 -596.907)" fill="#3e3a35"/>
      </g>
      <g id="_e7c5beff" data-name="#e7c5beff" transform="translate(-4901.411 -12853.149)">
        <path id="Path_1024572" data-name="Path 1024572" d="M563.17,598.592q.7-.708,1.416-1.4a22.262,22.262,0,0,1,2.44,2.185C565.715,600.123,564.331,599.19,563.17,598.592Z" transform="translate(-563.17 -597.19)" fill="#e7c5be"/>
      </g>
      <g id="_b1c3d4ff" data-name="#b1c3d4ff" transform="translate(-4929.118 -12850.727)">
        <path id="Path_1024573" data-name="Path 1024573" d="M484.469,604.12c1.79.3,3.682.248,5.356,1.024a2.861,2.861,0,0,1,1.531.115,46.339,46.339,0,0,1-7.436.154C484.1,604.98,484.284,604.547,484.469,604.12Z" transform="translate(-483.92 -604.12)" fill="#b1c3d4"/>
      </g>
      <g id="_889cb0ff" data-name="#889cb0ff" transform="translate(-4920.426 -12850.537)">
        <path id="Path_1024574" data-name="Path 1024574" d="M509.455,604.929c.556-.087,1.119-.2,1.682-.269,4.591,1.675,9.2,3.307,13.845,4.807-.262.434-.517.874-.773,1.311-5.15-1.783-10.307-3.538-15.429-5.391C509.007,605.24,509.235,605.087,509.455,604.929Z" transform="translate(-508.78 -604.66)" fill="#889cb0"/>
      </g>
      <g id="_1a1819ff" data-name="#1a1819ff" transform="translate(-4904.837 -12849.042)">
        <path id="Path_1024575" data-name="Path 1024575" d="M561.628,609.433c7.178-.217,14.366-.35,21.54-.493l.28.622c-6.566.287-13.149.161-19.715.472-3.458.025-6.909.192-10.363.213l.287-.559C556.3,609.443,558.971,609.506,561.628,609.433Z" transform="translate(-553.37 -608.94)" fill="#1a1819"/>
      </g>
      <g id="_131311ff" data-name="#131311ff" transform="translate(-4899.974 -12847.689)">
        <path id="Path_1024576" data-name="Path 1024576" d="M592.323,612.923a16.432,16.432,0,0,1,3.821.021c-.028.1-.08.3-.1.406-9.038.4-18.089.517-27.131.755-.591.007-1.329.115-1.629-.552C575.622,613.234,583.974,613.119,592.323,612.923Z" transform="translate(-567.28 -612.806)" fill="#131311"/>
      </g>
      <g id="_87a1b8ff" data-name="#87a1b8ff" transform="translate(-4904.998 -12845.73)">
        <path id="Path_1024577" data-name="Path 1024577" d="M552.91,619.721c.255-.437.51-.878.773-1.311,1.891.587,3.769,1.231,5.643,1.874,1.759.643,3.65.311,5.472.276,10.747-.231,21.488-.776,32.232-.993,1.5.168,2.748,1.129,4.119,1.678-9.779.014-19.547.6-29.326.78-3.727.084-7.457.465-11.184.353C557.983,621.756,555.511,620.525,552.91,619.721Z" transform="translate(-552.91 -618.41)" fill="#87a1b8"/>
      </g>
    </g>
  </g>
</svg>
