<svg xmlns="http://www.w3.org/2000/svg" xmlns:xlink="http://www.w3.org/1999/xlink" width="103.935" height="103.992" viewBox="0 0 103.935 103.992">
  <defs>
    <clipPath id="clip-path">
      <rect id="Rectangle_458772" data-name="Rectangle 458772" width="48.804" height="39.836" fill="none"/>
    </clipPath>
  </defs>
  <g id="img22" transform="translate(-706.035 -1710)">
    <g id="Group_1180300" data-name="Group 1180300" transform="translate(706 1710)">
      <g id="Grupo_155253" data-name="Grupo 155253" transform="matrix(0.999, 0.035, -0.035, 0.999, 3.509, 0)">
        <path id="Trazado_196478" data-name="Trazado 196478" d="M14.13,15.33q-.314.324-.621.654A49.942,49.942,0,0,0,.036,52.027L20.962,51.3A29.335,29.335,0,0,1,79.6,49.247l20.926-.729A50.274,50.274,0,0,0,14.13,15.336" transform="translate(0 0)" fill="#f9ce5d"/>
        <path id="Trazado_196479" data-name="Trazado 196479" d="M0,3.512A50.274,50.274,0,0,0,100.486,0L79.56.729A29.335,29.335,0,0,1,20.926,2.78Z" transform="translate(0.035 48.515)" fill="#ff9e74"/>
      </g>
      <ellipse id="Ellipse_13685" data-name="Ellipse 13685" cx="40.877" cy="40.877" rx="40.877" ry="40.877" transform="translate(11.122 11.255)" fill="#fff"/>
    </g>
    <g id="Group_1183651" data-name="Group 1183651" transform="translate(733.598 1742.079)">
      <g id="Group_1183650" data-name="Group 1183650" transform="translate(0 0)" clip-path="url(#clip-path)">
        <path id="Path_1029690" data-name="Path 1029690" d="M70.885,39.814a1.223,1.223,0,0,1-.87-.36L65.2,34.634l-4.819,4.82a1.23,1.23,0,0,1-1.74-1.739l5.33-5.33v-3.2H52.423a1.231,1.231,0,0,1-1.23-1.23V21.141h1.458a3.541,3.541,0,0,0,1-.143v5.725H76.744V2.459H53.652V12.672H51.193V1.23A1.231,1.231,0,0,1,52.423,0H77.973A1.231,1.231,0,0,1,79.2,1.23V27.952a1.231,1.231,0,0,1-1.23,1.23H66.425v3.2l5.33,5.33a1.23,1.23,0,0,1-.87,2.1" transform="translate(-30.399 0)" fill="#203a72"/>
        <path id="Path_1029691" data-name="Path 1029691" d="M23.126,40.057l.911-2.42a.794.794,0,0,0-.743-1.073H11.9L9.466,42.656l-.514-4.281h.342A.374.374,0,0,0,9.668,38V36.851a.374.374,0,0,0-.374-.374H7.419a.374.374,0,0,0-.374.374V38a.374.374,0,0,0,.374.374h.342l-.514,4.282L4.863,36.7A5.331,5.331,0,0,0,.7,41.34L.007,47.85a1.254,1.254,0,0,0,1,1.362c.7.147,1.64.272,2.608.377l.6,10.359A1.644,1.644,0,0,0,5.851,61.5h5.007A1.643,1.643,0,0,0,12.5,59.948l.862-17.782a1.627,1.627,0,0,1,1.628-1.594h7.394a.794.794,0,0,0,.743-.515" transform="translate(0 -21.66)" fill="#203a72"/>
        <path id="Path_1029692" data-name="Path 1029692" d="M12.827,18.488a5.3,5.3,0,1,0-5.3-5.3,5.3,5.3,0,0,0,5.3,5.3" transform="translate(-4.471 -4.686)" fill="#203a72"/>
        <path id="Path_1029693" data-name="Path 1029693" d="M83.257,15.341,80.23,12.315a1.023,1.023,0,0,0-1.447,0l-3.027,3.027A1.023,1.023,0,0,0,77.2,16.789l1.281-1.281v2.446a2.8,2.8,0,0,1-2.127,2.72l-6.293,1.563a4.84,4.84,0,0,0-3.68,4.706v3.126a1.023,1.023,0,0,0,2.046,0V26.942a2.8,2.8,0,0,1,2.127-2.72l6.293-1.563a4.842,4.842,0,0,0,3.68-4.706V15.508l1.281,1.281a1.023,1.023,0,0,0,1.447-1.447" transform="translate(-39.419 -7.135)" fill="#14a0de"/>
        <path id="Path_1029694" data-name="Path 1029694" d="M66.07,18.553a1.023,1.023,0,0,0,1.447,0l1.25-1.25,1.25,1.25a1.023,1.023,0,0,0,1.447-1.447l-1.25-1.249,1.25-1.25a1.023,1.023,0,0,0-1.447-1.447l-1.25,1.25-1.25-1.25a1.023,1.023,0,1,0-1.447,1.447l1.25,1.25-1.25,1.249a1.023,1.023,0,0,0,0,1.447" transform="translate(-39.055 -7.636)" fill="#14a0de"/>
        <path id="Path_1029695" data-name="Path 1029695" d="M85.839,50.766a1.023,1.023,0,0,0,1.447,0l1.25-1.25,1.25,1.25a1.023,1.023,0,0,0,1.447-1.447l-1.25-1.25,1.25-1.25a1.023,1.023,0,0,0-1.447-1.447l-1.25,1.25-1.25-1.25a1.023,1.023,0,0,0-1.447,1.447l1.25,1.25-1.25,1.25a1.023,1.023,0,0,0,0,1.447" transform="translate(-50.794 -26.765)" fill="#14a0de"/>
      </g>
    </g>
  </g>
</svg>
