<svg xmlns="http://www.w3.org/2000/svg" xmlns:xlink="http://www.w3.org/1999/xlink" width="97.936" height="98" viewBox="0 0 97.936 98">
  <defs>
    <clipPath id="clip-path">
      <rect id="Rectangle_458738" data-name="Rectangle 458738" width="41.599" height="41.569" fill="none"/>
    </clipPath>
  </defs>
  <g id="img23" transform="translate(-705.968 -1710.002)">
    <g id="Group_1180300" data-name="Group 1180300" transform="translate(705.936 1710.002)">
      <g id="Grupo_155253" data-name="Grupo 155253" transform="matrix(0.999, 0.035, -0.035, 0.999, 3.307, 0)">
        <path id="Trazado_196478" data-name="Trazado 196478" d="M13.313,14.905q-.3.315-.585.636A49.458,49.458,0,0,0,.034,50.586l19.718-.708c-.535-15.744,11.4-28.953,26.657-29.5S74.466,32.143,75,47.887l19.718-.708c-.665-19.6-12.618-36.893-30.36-43.926A46.336,46.336,0,0,0,13.313,14.911" transform="translate(0 0)" fill="#f9ce5d"/>
        <path id="Trazado_196479" data-name="Trazado 196479" d="M0,3.41C.915,30.392,22.852,51.5,49,50.559S95.6,26.981,94.685,0L74.967.708c.534,15.744-11.4,28.952-26.657,29.5S20.252,18.443,19.718,2.7Z" transform="translate(0.032 44.162)" fill="#70f5c8"/>
      </g>
      <ellipse id="Ellipse_13685" data-name="Ellipse 13685" cx="38.13" cy="38.195" rx="38.13" ry="38.195" transform="translate(10.925 10.994)" fill="#fff"/>
    </g>
    <g id="Group_1183591" data-name="Group 1183591" transform="translate(734.134 1738.218)">
      <g id="Group_1183590" data-name="Group 1183590" transform="translate(0 0)" clip-path="url(#clip-path)">
        <path id="Path_1029494" data-name="Path 1029494" d="M86.6,13.62A2.011,2.011,0,1,0,84.59,11.61,2.01,2.01,0,0,0,86.6,13.62" transform="translate(-51.802 -5.878)" fill="#203a72"/>
        <path id="Path_1029495" data-name="Path 1029495" d="M79.035,13.6a6.8,6.8,0,1,0-6.8-6.8,6.807,6.807,0,0,0,6.8,6.8m0-11.888a5.083,5.083,0,0,1,3.327,8.93V10.5a2.308,2.308,0,0,0-1.553-2.178,3.11,3.11,0,0,1-3.548,0A2.314,2.314,0,0,0,75.7,10.5v.136a5.082,5.082,0,0,1,3.333-8.924" transform="translate(-44.236 0)" fill="#203a72"/>
        <path id="Path_1029496" data-name="Path 1029496" d="M14.366,13.62a2.011,2.011,0,1,0-2.011-2.011,2.01,2.01,0,0,0,2.011,2.011" transform="translate(-7.566 -5.878)" fill="#203a72"/>
        <path id="Path_1029497" data-name="Path 1029497" d="M6.8,13.6A6.8,6.8,0,1,0,0,6.8a6.807,6.807,0,0,0,6.8,6.8m0-11.888a5.083,5.083,0,0,1,3.327,8.93V10.5A2.308,2.308,0,0,0,8.574,8.321a3.11,3.11,0,0,1-3.548,0A2.314,2.314,0,0,0,3.467,10.5v.136A5.082,5.082,0,0,1,6.8,1.711" transform="translate(0 0)" fill="#203a72"/>
        <path id="Path_1029498" data-name="Path 1029498" d="M86.6,81.756a2.011,2.011,0,1,0,2.011,2.011A2.01,2.01,0,0,0,86.6,81.756" transform="translate(-51.802 -50.066)" fill="#203a72"/>
        <path id="Path_1029499" data-name="Path 1029499" d="M79.035,72.157a6.8,6.8,0,1,0,6.8,6.8,6.807,6.807,0,0,0-6.8-6.8M82.361,82.8v-.143a2.308,2.308,0,0,0-1.553-2.178,3.11,3.11,0,0,1-3.548,0A2.314,2.314,0,0,0,75.7,82.656v.136a5.088,5.088,0,1,1,6.66.006" transform="translate(-44.236 -44.188)" fill="#203a72"/>
        <path id="Path_1029500" data-name="Path 1029500" d="M14.366,81.756a2.011,2.011,0,1,0,2.011,2.011,2.01,2.01,0,0,0-2.011-2.011" transform="translate(-7.566 -50.066)" fill="#203a72"/>
        <path id="Path_1029501" data-name="Path 1029501" d="M6.8,72.157a6.8,6.8,0,1,0,6.8,6.8,6.807,6.807,0,0,0-6.8-6.8M10.126,82.8v-.143a2.308,2.308,0,0,0-1.553-2.178,3.11,3.11,0,0,1-3.548,0,2.314,2.314,0,0,0-1.559,2.178v.136a5.088,5.088,0,1,1,6.66.006" transform="translate(0 -44.188)" fill="#203a72"/>
        <path id="Path_1029502" data-name="Path 1029502" d="M41.2,11.389a1.094,1.094,0,1,0-1.095-1.095A1.094,1.094,0,0,0,41.2,11.389" transform="translate(-24.56 -5.634)" fill="#203a72"/>
        <path id="Path_1029503" data-name="Path 1029503" d="M62.682,11.389a1.094,1.094,0,1,0-1.095-1.095,1.095,1.095,0,0,0,1.095,1.095" transform="translate(-37.715 -5.634)" fill="#203a72"/>
        <path id="Path_1029504" data-name="Path 1029504" d="M51.942,11.389a1.094,1.094,0,1,0-1.095-1.095,1.094,1.094,0,0,0,1.095,1.095" transform="translate(-31.138 -5.634)" fill="#203a72"/>
        <path id="Path_1029505" data-name="Path 1029505" d="M41.2,92.395a1.094,1.094,0,1,0,1.094,1.095A1.095,1.095,0,0,0,41.2,92.395" transform="translate(-24.56 -56.581)" fill="#203a72"/>
        <path id="Path_1029506" data-name="Path 1029506" d="M62.682,92.395a1.094,1.094,0,1,0,1.095,1.095,1.095,1.095,0,0,0-1.095-1.095" transform="translate(-37.715 -56.581)" fill="#203a72"/>
        <path id="Path_1029507" data-name="Path 1029507" d="M51.942,92.395a1.094,1.094,0,1,0,1.094,1.095,1.094,1.094,0,0,0-1.094-1.095" transform="translate(-31.138 -56.581)" fill="#203a72"/>
        <path id="Path_1029508" data-name="Path 1029508" d="M93.539,40.057a1.094,1.094,0,1,0,1.095,1.094,1.095,1.095,0,0,0-1.095-1.094" transform="translate(-56.611 -24.53)" fill="#203a72"/>
        <path id="Path_1029509" data-name="Path 1029509" d="M93.539,61.538a1.094,1.094,0,1,0,1.095,1.095,1.095,1.095,0,0,0-1.095-1.095" transform="translate(-56.611 -37.685)" fill="#203a72"/>
        <path id="Path_1029510" data-name="Path 1029510" d="M93.539,50.8a1.094,1.094,0,1,0,1.095,1.095A1.095,1.095,0,0,0,93.539,50.8" transform="translate(-56.611 -31.107)" fill="#203a72"/>
        <path id="Path_1029511" data-name="Path 1029511" d="M10.344,40.057a1.094,1.094,0,1,0,1.094,1.094,1.095,1.095,0,0,0-1.094-1.094" transform="translate(-5.664 -24.53)" fill="#203a72"/>
        <path id="Path_1029512" data-name="Path 1029512" d="M10.344,61.538a1.094,1.094,0,1,0,1.094,1.095,1.095,1.095,0,0,0-1.094-1.095" transform="translate(-5.664 -37.685)" fill="#203a72"/>
        <path id="Path_1029513" data-name="Path 1029513" d="M10.344,50.8a1.094,1.094,0,1,0,1.094,1.095A1.095,1.095,0,0,0,10.344,50.8" transform="translate(-5.664 -31.107)" fill="#203a72"/>
        <path id="Path_1029514" data-name="Path 1029514" d="M30.462,40.826l1.7.247.483,1.166L31.615,43.61a.922.922,0,0,0,.087,1.2L33.093,46.2a.921.921,0,0,0,1.2.087l1.373-1.025,1.166.483.245,1.7a.921.921,0,0,0,.911.787h1.968a.921.921,0,0,0,.911-.787l.246-1.7,1.165-.483,1.373,1.025a.92.92,0,0,0,1.2-.087l1.392-1.391a.92.92,0,0,0,.087-1.2L45.3,42.234c.212-.512.268-.649.481-1.161l1.7-.247a.92.92,0,0,0,.788-.91V37.948a.92.92,0,0,0-.788-.909l-1.7-.247L45.3,35.626l1.025-1.372a.921.921,0,0,0-.087-1.2l-1.392-1.391a.919.919,0,0,0-1.2-.086L42.278,32.6c-.514-.214-.651-.27-1.165-.483l-.246-1.7a.92.92,0,0,0-.911-.787H37.988a.92.92,0,0,0-.911.787l-.245,1.7c-.514.213-.652.269-1.166.483l-1.373-1.024a.919.919,0,0,0-1.2.086L31.7,33.053a.921.921,0,0,0-.087,1.2l1.025,1.373-.483,1.165-1.7.247a.919.919,0,0,0-.787.909v1.968a.919.919,0,0,0,.787.91m8.51-5.358a3.465,3.465,0,1,1-3.465,3.465,3.465,3.465,0,0,1,3.465-3.465" transform="translate(-18.172 -18.148)" fill="#14a0de"/>
      </g>
    </g>
  </g>
</svg>
