<svg xmlns="http://www.w3.org/2000/svg" xmlns:xlink="http://www.w3.org/1999/xlink" width="159.902" height="160" viewBox="0 0 159.902 160">
  <defs>
    <clipPath id="clip-path">
      <rect id="Rectangle_458705" data-name="Rectangle 458705" width="84.876" height="54.537" fill="none"/>
    </clipPath>
  </defs>
  <g id="img21" transform="translate(-705.988 -1710.001)">
    <g id="Group_1180300" data-name="Group 1180300" transform="translate(705.936 1710.002)">
      <g id="Grupo_155253" data-name="Grupo 155253" transform="matrix(0.999, 0.035, -0.035, 0.999, 5.399, 0)">
        <path id="Trazado_196478" data-name="Trazado 196478" d="M21.736,24.335q-.482.515-.955,1.039A80.745,80.745,0,0,0,.055,82.589l32.194-1.156c-.873-25.7,18.614-47.269,43.524-48.167s45.811,19.211,46.683,44.915l32.194-1.156c-1.086-32-20.6-60.234-49.569-71.716S43.3,1.322,21.736,24.344" transform="translate(0 0)" fill="#ff9e74"/>
        <path id="Trazado_196479" data-name="Trazado 196479" d="M0,5.568C1.493,49.619,37.312,84.083,80,82.545S156.089,44.051,154.595,0L122.4,1.156c.872,25.7-18.614,47.269-43.524,48.166S33.066,30.111,32.194,4.408Z" transform="translate(0.052 72.101)" fill="#70f5c8"/>
      </g>
      <ellipse id="Ellipse_13685" data-name="Ellipse 13685" cx="62.257" cy="62.359" rx="62.257" ry="62.359" transform="translate(17.837 17.949)" fill="#fff"/>
    </g>
    <g id="Group_1183518" data-name="Group 1183518" transform="translate(743.499 1762.733)">
      <g id="Group_1183517" data-name="Group 1183517" transform="translate(0 0)" clip-path="url(#clip-path)">
        <path id="Path_1029312" data-name="Path 1029312" d="M27.555,20.727a9.806,9.806,0,1,0-9.806-9.807,9.807,9.807,0,0,0,9.806,9.807" transform="translate(-7.741 -0.486)" fill="#203a72"/>
        <path id="Path_1029313" data-name="Path 1029313" d="M110.9,0H71.724a3.649,3.649,0,0,0-3.65,3.649V31.641c.019.018.037.018.037.037a11.674,11.674,0,0,0,3.613.438V3.649h39.194l-.018,32.3H81.175a6.793,6.793,0,0,1,.42,1.588,6.494,6.494,0,0,1-.055,2.061H110.9a3.652,3.652,0,0,0,3.668-3.649V3.649A3.665,3.665,0,0,0,110.9,0" transform="translate(-29.691 0)" fill="#203a72"/>
        <path id="Path_1029314" data-name="Path 1029314" d="M44.968,52.831c-1.657.226-5.762.376-7.881-.608-1.2-.556-2.5-3.658-3.054-4.983-.282-.671-.526-1.237-.73-1.631A7.343,7.343,0,0,0,26.3,41.59H13.89c-3.207,0-5.693,1.6-7.387,4.761l-.4.73a44.945,44.945,0,0,0-3.93,8.585C1.526,58.159.131,65.229.072,65.529A3.756,3.756,0,1,0,7.441,66.98c.014-.071,1.409-7.144,2-9.416a22.346,22.346,0,0,1,1.549-3.645L10.505,70.23a2.375,2.375,0,0,0,2.373,2.447H26.749a2.376,2.376,0,0,0,2.374-2.447l-.505-16.818a12.233,12.233,0,0,0,5.306,5.622c4.667,2.168,11.317,1.34,12.06,1.24a3.756,3.756,0,0,0-1.015-7.443" transform="translate(0 -18.14)" fill="#203a72"/>
        <path id="Path_1029315" data-name="Path 1029315" d="M85.293,19.881h25.47a1.825,1.825,0,0,0,0-3.649H85.293a1.825,1.825,0,1,0,0,3.649" transform="translate(-36.405 -7.08)" fill="#14a0de"/>
        <path id="Path_1029316" data-name="Path 1029316" d="M85.293,35.531h25.47a1.825,1.825,0,0,0,0-3.649H85.293a1.825,1.825,0,1,0,0,3.649" transform="translate(-36.405 -13.906)" fill="#14a0de"/>
        <path id="Path_1029317" data-name="Path 1029317" d="M85.293,51.18h25.47a1.825,1.825,0,0,0,0-3.649H85.293a1.825,1.825,0,1,0,0,3.649" transform="translate(-36.405 -20.731)" fill="#14a0de"/>
      </g>
    </g>
  </g>
</svg>
