<svg xmlns="http://www.w3.org/2000/svg" xmlns:xlink="http://www.w3.org/1999/xlink" width="149.908" height="150" viewBox="0 0 149.908 150">
  <defs>
    <clipPath id="clip-path">
      <rect id="Rectangle_458707" data-name="Rectangle 458707" width="63.599" height="77.341" fill="none"/>
    </clipPath>
  </defs>
  <g id="img26" transform="translate(-705.985 -1710.001)">
    <g id="Group_1180300" data-name="Group 1180300" transform="translate(705.936 1710.002)">
      <g id="Grupo_155253" data-name="Grupo 155253" transform="matrix(0.999, 0.035, -0.035, 0.999, 5.061, 0)">
        <path id="Trazado_196478" data-name="Trazado 196478" d="M20.378,22.814q-.452.483-.9.974A75.7,75.7,0,0,0,.051,77.428l30.182-1.084c-.818-24.1,17.45-44.315,40.8-45.157S113.984,49.2,114.8,73.3l30.181-1.084c-1.018-30-19.313-56.469-46.471-67.233A70.928,70.928,0,0,0,20.378,22.822" transform="translate(0 0)" fill="#f9ce5d"/>
        <path id="Trazado_196479" data-name="Trazado 196479" d="M0,5.22c1.4,41.3,34.98,73.608,75,72.166S146.333,41.3,144.933,0L114.75,1.084c.818,24.1-17.451,44.314-40.8,45.156S31,28.229,30.182,4.132Z" transform="translate(0.049 67.594)" fill="#70f5c8"/>
      </g>
      <ellipse id="Ellipse_13685" data-name="Ellipse 13685" cx="58.366" cy="58.462" rx="58.366" ry="58.462" transform="translate(16.722 16.827)" fill="#fff"/>
    </g>
    <g id="Group_1183522" data-name="Group 1183522" transform="translate(749.138 1746.331)">
      <g id="Group_1183521" data-name="Group 1183521" transform="translate(0 0)" clip-path="url(#clip-path)">
        <path id="Path_1029321" data-name="Path 1029321" d="M60.156,0H3.442A3.446,3.446,0,0,0,0,3.442V36.6a3.446,3.446,0,0,0,3.442,3.442H60.156A3.446,3.446,0,0,0,63.6,36.6V3.442A3.446,3.446,0,0,0,60.156,0M58.7,28.451a8.434,8.434,0,0,0-6.7,6.7H11.591a8.433,8.433,0,0,0-6.7-6.7V11.592a8.434,8.434,0,0,0,6.7-6.7H52.007a8.435,8.435,0,0,0,6.7,6.7Z" transform="translate(0 0)" fill="#203a72"/>
        <path id="Path_1029322" data-name="Path 1029322" d="M40.1,10.561A12.655,12.655,0,1,0,52.755,23.215,12.669,12.669,0,0,0,40.1,10.561m1.316,19.783V32a.454.454,0,0,1-.453.453H39.236A.453.453,0,0,1,38.784,32V30.369a3.7,3.7,0,0,1-3.366-3.319.424.424,0,0,1,.111-.331.461.461,0,0,1,.343-.152h1.749a.442.442,0,0,1,.435.338,1.1,1.1,0,0,0,1.066.861h1.531a1.688,1.688,0,0,0,1.71-1.447,1.6,1.6,0,0,0-.407-1.251,1.619,1.619,0,0,0-1.2-.535H39.444a4.257,4.257,0,0,1-3.148-1.4,4.211,4.211,0,0,1-1.081-3.277,4.317,4.317,0,0,1,3.568-3.742V14.432a.453.453,0,0,1,.452-.453h1.728a.454.454,0,0,1,.453.453v1.631a3.7,3.7,0,0,1,3.365,3.318.422.422,0,0,1-.111.331.464.464,0,0,1-.343.153H42.578a.442.442,0,0,1-.435-.34,1.1,1.1,0,0,0-1.067-.859h-1.53a1.689,1.689,0,0,0-1.71,1.447,1.6,1.6,0,0,0,.409,1.253,1.621,1.621,0,0,0,1.2.534h1.127a4.389,4.389,0,0,1,4.414,3.825,4.239,4.239,0,0,1-3.569,4.621" transform="translate(-8.3 -3.194)" fill="#203a72"/>
        <path id="Path_1029323" data-name="Path 1029323" d="M15.437,24.606A2.858,2.858,0,1,0,18.3,27.463a2.857,2.857,0,0,0-2.858-2.857" transform="translate(-3.805 -7.442)" fill="#203a72"/>
        <path id="Path_1029324" data-name="Path 1029324" d="M73.257,24.606a2.858,2.858,0,1,0,2.858,2.857,2.857,2.857,0,0,0-2.858-2.857" transform="translate(-21.292 -7.442)" fill="#203a72"/>
        <path id="Path_1029325" data-name="Path 1029325" d="M20.2,71.171H16.6v-7A1.665,1.665,0,0,0,14.937,62.5H10.925a1.665,1.665,0,0,0-1.666,1.665v7h-3.6a1.627,1.627,0,0,0-1.253,2.666l7.268,8.757a1.627,1.627,0,0,0,2.5,0l7.267-8.757A1.627,1.627,0,0,0,20.2,71.171" transform="translate(-1.22 -18.903)" fill="#14a0de"/>
        <path id="Path_1029326" data-name="Path 1029326" d="M49,77.7H45.4V64.167A1.666,1.666,0,0,0,43.735,62.5H39.722a1.665,1.665,0,0,0-1.665,1.665V77.7h-3.6a1.627,1.627,0,0,0-1.252,2.666l7.267,8.757a1.627,1.627,0,0,0,2.5,0l7.268-8.757A1.627,1.627,0,0,0,49,77.7" transform="translate(-9.929 -18.903)" fill="#14a0de"/>
        <path id="Path_1029327" data-name="Path 1029327" d="M77.793,84.232H74.2V64.166A1.667,1.667,0,0,0,72.532,62.5H68.519a1.666,1.666,0,0,0-1.666,1.665V84.232h-3.6A1.627,1.627,0,0,0,62.006,86.9l7.267,8.757a1.627,1.627,0,0,0,2.5,0L79.045,86.9a1.627,1.627,0,0,0-1.252-2.666" transform="translate(-18.639 -18.903)" fill="#14a0de"/>
      </g>
    </g>
  </g>
</svg>
