<svg xmlns="http://www.w3.org/2000/svg" xmlns:xlink="http://www.w3.org/1999/xlink" width="149.908" height="150" viewBox="0 0 149.908 150">
  <defs>
    <clipPath id="clip-path">
      <rect id="Rectangle_458706" data-name="Rectangle 458706" width="67.009" height="79.805" fill="none"/>
    </clipPath>
  </defs>
  <g id="img25" transform="translate(-705.985 -1710.001)">
    <g id="Group_1180300" data-name="Group 1180300" transform="translate(705.936 1710.002)">
      <g id="Grupo_155253" data-name="Grupo 155253" transform="matrix(0.999, 0.035, -0.035, 0.999, 5.061, 0)">
        <path id="Trazado_196478" data-name="Trazado 196478" d="M20.378,22.814q-.452.483-.9.974A75.7,75.7,0,0,0,.051,77.428l30.182-1.084c-.818-24.1,17.45-44.315,40.8-45.157S113.984,49.2,114.8,73.3l30.181-1.084c-1.018-30-19.313-56.469-46.471-67.233A70.928,70.928,0,0,0,20.378,22.822" transform="translate(0 0)" fill="#f9ce5d"/>
        <path id="Trazado_196479" data-name="Trazado 196479" d="M0,5.22c1.4,41.3,34.98,73.608,75,72.166S146.333,41.3,144.933,0L114.75,1.084c.818,24.1-17.451,44.314-40.8,45.156S31,28.229,30.182,4.132Z" transform="translate(0.049 67.594)" fill="#70f5c8"/>
      </g>
      <ellipse id="Ellipse_13685" data-name="Ellipse 13685" cx="58.366" cy="58.462" rx="58.366" ry="58.462" transform="translate(16.722 16.827)" fill="#fff"/>
    </g>
    <g id="Group_1183520" data-name="Group 1183520" transform="translate(747.432 1745.099)">
      <g id="Group_1183519" data-name="Group 1183519" transform="translate(0 0)" clip-path="url(#clip-path)">
        <path id="Path_1029318" data-name="Path 1029318" d="M19.131,13.572H39.375a2.391,2.391,0,0,0,2.392-2.391V7.387A2.391,2.391,0,0,0,39.375,5H35.619a6.553,6.553,0,0,0-12.73,0H19.131a2.391,2.391,0,0,0-2.392,2.391v3.794a2.391,2.391,0,0,0,2.392,2.391m10.122-9.7a2.7,2.7,0,1,1-2.7,2.7,2.7,2.7,0,0,1,2.7-2.7" transform="translate(-4.295 0)" fill="#203a72"/>
        <path id="Path_1029319" data-name="Path 1029319" d="M49.915,50.85V17.323a5.966,5.966,0,0,0-5.953-5.953H40.985V14.1a5.9,5.9,0,0,1-5.9,5.9H14.832a5.912,5.912,0,0,1-5.9-5.9V11.37H5.953A5.966,5.966,0,0,0,0,17.323V64.244A5.966,5.966,0,0,0,5.953,70.2H35.015a15.436,15.436,0,0,1-.1-1.755,17.841,17.841,0,0,1,15-17.592M23.778,30.784H39.815a1.756,1.756,0,0,1,0,3.512H23.778a1.756,1.756,0,1,1,0-3.512m0,12.959H39.815a1.756,1.756,0,0,1,0,3.512H23.778a1.756,1.756,0,1,1,0-3.512M19.246,55.1l-5.133,5.719a1.782,1.782,0,0,1-2.609,0L8.8,57.79A1.758,1.758,0,1,1,11.4,55.432L12.808,57l3.829-4.264A1.758,1.758,0,0,1,19.246,55.1m0-12.959-5.133,5.719a1.746,1.746,0,0,1-2.609,0L8.8,44.831A1.753,1.753,0,0,1,11.4,42.489l1.4,1.572L16.638,39.8a1.753,1.753,0,0,1,2.609,2.341m0-12.959L14.113,34.9a1.746,1.746,0,0,1-2.609,0L8.8,31.871A1.753,1.753,0,0,1,11.4,29.529l1.4,1.572,3.829-4.264a1.753,1.753,0,0,1,2.609,2.341M29.815,60.214H23.778a1.756,1.756,0,1,1,0-3.511h6.037a1.756,1.756,0,0,1,0,3.511" transform="translate(0 -2.917)" fill="#203a72"/>
        <path id="Path_1029320" data-name="Path 1029320" d="M65.987,68.909A14.288,14.288,0,1,0,80.274,83.2,14.3,14.3,0,0,0,65.987,68.909m5.856,16.043H65.987A1.755,1.755,0,0,1,64.231,83.2V75.357a1.755,1.755,0,0,1,3.51,0v6.083h4.1a1.756,1.756,0,0,1,0,3.511" transform="translate(-13.265 -17.681)" fill="#14a0de"/>
      </g>
    </g>
  </g>
</svg>
