<svg xmlns="http://www.w3.org/2000/svg" xmlns:xlink="http://www.w3.org/1999/xlink" width="90" height="90" viewBox="0 0 90 90">
  <defs>
    <clipPath id="clip-path">
      <rect id="Rectangle_458774" data-name="Rectangle 458774" width="53.206" height="48.503" fill="none"/>
    </clipPath>
  </defs>
  <g id="img25" transform="translate(-338.711 -12699)">
    <circle id="Ellipse_13756" data-name="Ellipse 13756" cx="45" cy="45" r="45" transform="translate(338.711 12699)" fill="#fff"/>
    <g id="Group_1183656" data-name="Group 1183656" transform="translate(357.108 12719.749)">
      <g id="Group_1183655" data-name="Group 1183655" clip-path="url(#clip-path)">
        <path id="Path_1029702" data-name="Path 1029702" d="M71.823,30.549C69.6,22.363,65.607,12.7,58.806,8.967L63.388,4.5A2.62,2.62,0,0,0,61.559,0H43.837a2.62,2.62,0,0,0-1.829,4.5l4.574,4.464c-4.822,2.654-8.236,8.283-10.6,14.254,2.632.9,4.5,2.336,4.5,4.283V45.22a12.448,12.448,0,0,0,4.05,1.089c2.414.218,5.139.374,8.16.374s5.747-.156,8.176-.374a12.563,12.563,0,0,0,10.949-15.76M57.648,34.71a4.93,4.93,0,0,1-3.49,1.63l-.113,0v2.141a.293.293,0,0,1-.294.294h-2.1a.294.294,0,0,1-.3-.294V36.345l-.112,0a4.955,4.955,0,0,1-4.745-4.493.3.3,0,0,1,.078-.23.289.289,0,0,1,.217-.1h2.121a.3.3,0,0,1,.289.251,2.255,2.255,0,0,0,2.232,1.9h2.535a2.265,2.265,0,0,0,2.243-2.563,2.307,2.307,0,0,0-2.319-1.965H51.572a5.034,5.034,0,0,1-5.087-4.651,4.949,4.949,0,0,1,4.754-5.243l.112,0V17.1a.294.294,0,0,1,.3-.294h2.1a.293.293,0,0,1,.294.294v2.138l.113,0a4.959,4.959,0,0,1,4.745,4.5.3.3,0,0,1-.076.228.3.3,0,0,1-.219.1h-2.12a.292.292,0,0,1-.287-.251,2.257,2.257,0,0,0-2.234-1.9H51.43a2.267,2.267,0,0,0-2.243,2.565,2.309,2.309,0,0,0,2.32,1.965h2.318A5.036,5.036,0,0,1,58.913,31.1a4.9,4.9,0,0,1-1.265,3.607" transform="translate(-19.058)" fill="#203a72"/>
        <path id="Path_1029703" data-name="Path 1029703" d="M9.621,51.642c-5.874,0-9.621,1.9-9.621,3.2s3.748,3.2,9.621,3.2,9.621-1.9,9.621-3.2-3.748-3.2-9.621-3.2" transform="translate(0 -27.35)" fill="#203a72"/>
        <path id="Path_1029704" data-name="Path 1029704" d="M0,90.509v2.725c0,1.306,3.748,3.2,9.621,3.2s9.621-1.9,9.621-3.2V90.509c-2.28,1.426-6.021,2.175-9.621,2.175S2.28,91.935,0,90.509" transform="translate(0 -47.934)" fill="#203a72"/>
        <path id="Path_1029705" data-name="Path 1029705" d="M0,77.893v2.725c0,1.306,3.748,3.2,9.621,3.2s9.621-1.9,9.621-3.2V77.893c-2.28,1.426-6.021,2.175-9.621,2.175S2.28,79.319,0,77.893" transform="translate(0 -41.252)" fill="#203a72"/>
        <path id="Path_1029706" data-name="Path 1029706" d="M0,65.276V68c0,1.306,3.748,3.2,9.621,3.2s9.621-1.9,9.621-3.2V65.276c-2.28,1.426-6.021,2.175-9.621,2.175S2.28,66.7,0,65.276" transform="translate(0 -34.57)" fill="#203a72"/>
        <path id="Path_1029707" data-name="Path 1029707" d="M7.476,5.123,12.124.475a1.721,1.721,0,0,1,2.374,0l4.668,4.648a1.706,1.706,0,0,1,0,2.393,1.726,1.726,0,0,1-1.186.495,1.693,1.693,0,0,1-1.187-.495l-1.8-1.8V19.365a1.681,1.681,0,1,1-3.363,0V5.717l-1.78,1.8a1.683,1.683,0,0,1-2.374,0,1.707,1.707,0,0,1,0-2.393" transform="translate(-3.7 0)" fill="#14a0de"/>
      </g>
    </g>
  </g>
</svg>
