<svg xmlns="http://www.w3.org/2000/svg" xmlns:xlink="http://www.w3.org/1999/xlink" width="127.921" height="128" viewBox="0 0 127.921 128">
  <defs>
    <clipPath id="clip-path">
      <rect id="Rectangle_458742" data-name="Rectangle 458742" width="62.853" height="52.605" transform="translate(0 0)" fill="none"/>
    </clipPath>
  </defs>
  <g id="img30" transform="translate(-705.978 -1710.001)">
    <g id="Group_1180300" data-name="Group 1180300" transform="translate(705.936 1710.002)">
      <g id="Grupo_155253" data-name="Grupo 155253" transform="matrix(0.999, 0.035, -0.035, 0.999, 4.319, 0)">
        <path id="Trazado_196478" data-name="Trazado 196478" d="M17.389,19.468q-.386.412-.764.831A64.6,64.6,0,0,0,.044,66.072L25.8,65.147C25.1,44.584,40.69,27.331,60.618,26.613S97.267,41.982,97.965,62.546l25.755-.925c-.869-25.6-16.481-48.187-39.655-57.372A60.525,60.525,0,0,0,17.389,19.475" transform="translate(0 0)" fill="#f9ce5d"/>
        <path id="Trazado_196479" data-name="Trazado 196479" d="M0,4.454C1.195,39.7,29.849,67.266,64,66.036S124.871,35.241,123.676,0L97.92.925c.7,20.563-14.891,37.815-34.819,38.533S26.453,24.089,25.755,3.526Z" transform="translate(0.042 57.68)" fill="#70f5c8"/>
      </g>
      <ellipse id="Ellipse_13685" data-name="Ellipse 13685" cx="49.806" cy="49.887" rx="49.806" ry="49.887" transform="translate(14.269 14.359)" fill="#fff"/>
    </g>
    <g id="Group_1183597" data-name="Group 1183597" transform="translate(738.51 1747.699)">
      <g id="Group_1183596" data-name="Group 1183596" transform="translate(0 0)" clip-path="url(#clip-path)">
        <path id="Path_1029517" data-name="Path 1029517" d="M35.232,57.148a5.913,5.913,0,0,1,8.37-.2l1.446,1.373V48.793a108.149,108.149,0,0,1-12.956,1.271,4.9,4.9,0,0,1-4.922,4.762H23.751a4.9,4.9,0,0,1-4.923-4.733,110.272,110.272,0,0,1-12.985-1.3V60.858a4.068,4.068,0,0,0,4.032,4.075H27.826Z" transform="translate(-2.932 -24.483)" fill="#203a72"/>
        <path id="Path_1029518" data-name="Path 1029518" d="M20.815,17.022h3.429a4.942,4.942,0,0,1,4.946,4.915,97.83,97.83,0,0,0,14.9-1.7,1.148,1.148,0,0,0,.94-1.153V12.805a4.033,4.033,0,0,0-4.035-4.037H32.012V5.8a5.8,5.8,0,0,0-5.8-5.8H18.782a5.815,5.815,0,0,0-5.795,5.8V8.769H4.035A4.014,4.014,0,0,0,0,12.805v6.281A1.205,1.205,0,0,0,.941,20.27a102.282,102.282,0,0,0,14.929,1.668,4.941,4.941,0,0,1,4.946-4.915M17.948,5.8a.835.835,0,0,1,.834-.832h7.435a.839.839,0,0,1,.865.832V8.39H17.948Z" transform="translate(0 0)" fill="#203a72"/>
        <path id="Path_1029519" data-name="Path 1029519" d="M40.445,41.494A1.31,1.31,0,0,0,39.136,42.8v3.41a1.309,1.309,0,0,0,1.309,1.311h3.413a1.308,1.308,0,0,0,1.309-1.311V42.8a1.31,1.31,0,0,0-1.309-1.309Z" transform="translate(-19.638 -20.821)" fill="#203a72"/>
        <path id="Path_1029520" data-name="Path 1029520" d="M83.922,49.191a1.481,1.481,0,0,0-1.257-.391l-8.509,1.343a1.5,1.5,0,0,0-1.187,1.025,1.477,1.477,0,0,0,.4,1.518L75.3,54.528,65.558,64.764l-5.669-5.4a2.571,2.571,0,0,0-3.627.091L43.613,72.751a2.565,2.565,0,0,0,3.716,3.536L58.21,64.854l5.671,5.395a2.563,2.563,0,0,0,3.626-.089L79.017,58.065l1.937,1.843a1.486,1.486,0,0,0,2.5-.918l.92-8.566a1.473,1.473,0,0,0-.452-1.233" transform="translate(-21.531 -24.477)" fill="#14a0de"/>
      </g>
    </g>
  </g>
</svg>
