<svg xmlns="http://www.w3.org/2000/svg" xmlns:xlink="http://www.w3.org/1999/xlink" width="103.935" height="103.992" viewBox="0 0 103.935 103.992">
  <defs>
    <clipPath id="clip-path">
      <rect id="Rectangle_458710" data-name="Rectangle 458710" width="55.209" height="35.354" fill="none"/>
    </clipPath>
  </defs>
  <g id="img39" transform="translate(-706.035 -1710)">
    <g id="Group_1180300" data-name="Group 1180300" transform="translate(706 1710)">
      <g id="Grupo_155253" data-name="Grupo 155253" transform="matrix(0.999, 0.035, -0.035, 0.999, 3.509, 0)">
        <path id="Trazado_196478" data-name="Trazado 196478" d="M14.13,15.33q-.314.324-.621.654A49.942,49.942,0,0,0,.036,52.027L20.962,51.3A29.335,29.335,0,0,1,79.6,49.247l20.926-.729A50.274,50.274,0,0,0,14.13,15.336" transform="translate(0 0)" fill="#f9ce5d"/>
        <path id="Trazado_196479" data-name="Trazado 196479" d="M0,3.512A50.274,50.274,0,0,0,100.486,0L79.56.729A29.335,29.335,0,0,1,20.926,2.78Z" transform="translate(0.035 48.515)" fill="#ff9e74"/>
      </g>
      <ellipse id="Ellipse_13685" data-name="Ellipse 13685" cx="40.877" cy="40.877" rx="40.877" ry="40.877" transform="translate(11.122 11.255)" fill="#fff"/>
    </g>
    <g id="Group_1183528" data-name="Group 1183528" transform="translate(730.396 1744.319)">
      <g id="Group_1183527" data-name="Group 1183527" transform="translate(0 0)" clip-path="url(#clip-path)">
        <path id="Path_1029333" data-name="Path 1029333" d="M53.951,20.535a1.251,1.251,0,0,0,.754-2.25L52.4,16.539H39.15V14.164h14.8a1.246,1.246,0,0,0,1.188-.867,1.233,1.233,0,0,0-.433-1.4L41.193,1.657a1.211,1.211,0,0,0-.755-.265H32.68L32.237.627A1.259,1.259,0,0,0,31.149,0H24.058A1.259,1.259,0,0,0,22.97.627l-.442.764H14.769A1.278,1.278,0,0,0,14,1.657L.5,11.9a1.233,1.233,0,0,0-.433,1.4,1.246,1.246,0,0,0,1.188.867h14.8v2.375H2.808L.5,18.285a1.251,1.251,0,0,0,.754,2.25h14.8v2.389H2.78L.5,24.657a1.259,1.259,0,0,0,.754,2.264h14.8V29.3H2.808L.5,31.043a1.259,1.259,0,0,0,.754,2.264h14.8V34.1a1.258,1.258,0,0,0,1.258,1.258H37.893A1.258,1.258,0,0,0,39.15,34.1v-.789h14.8a1.259,1.259,0,0,0,.754-2.264L52.4,29.3H39.15V26.921h14.8a1.259,1.259,0,0,0,.754-2.264l-2.292-1.732H39.15V20.535Zm-17.316,12.3H18.571V13.24L24.782,2.516h5.641L36.635,13.24Z" transform="translate(0 0)" fill="#203a72"/>
        <path id="Path_1029334" data-name="Path 1029334" d="M60.46,26H57.885v2.017a4.012,4.012,0,0,0,.327,8.012h1.921a1.448,1.448,0,0,1,0,2.9H58.212a1.45,1.45,0,0,1-1.448-1.448H54.189a4.015,4.015,0,0,0,3.7,3.99v2.019H60.46V41.472a4.013,4.013,0,0,0-.327-8.013H58.212a1.448,1.448,0,0,1,0-2.9h1.921a1.45,1.45,0,0,1,1.448,1.449h2.575a4.015,4.015,0,0,0-3.7-3.99Z" transform="translate(-31.569 -15.15)" fill="#14a0de"/>
      </g>
    </g>
  </g>
</svg>
