<svg xmlns="http://www.w3.org/2000/svg" xmlns:xlink="http://www.w3.org/1999/xlink" width="149.908" height="150" viewBox="0 0 149.908 150">
  <defs>
    <clipPath id="clip-path">
      <rect id="Rectangle_458749" data-name="Rectangle 458749" width="56.829" height="72.861" fill="none"/>
    </clipPath>
  </defs>
  <g id="img35" transform="translate(-705.985 -1710.001)">
    <g id="Group_1180300" data-name="Group 1180300" transform="translate(705.936 1710.002)">
      <g id="Grupo_155253" data-name="Grupo 155253" transform="matrix(0.999, 0.035, -0.035, 0.999, 5.061, 0)">
        <path id="Trazado_196478" data-name="Trazado 196478" d="M20.378,22.814q-.452.483-.9.974A75.7,75.7,0,0,0,.051,77.428l30.182-1.084c-.818-24.1,17.45-44.315,40.8-45.157S113.984,49.2,114.8,73.3l30.181-1.084c-1.018-30-19.313-56.469-46.471-67.233A70.928,70.928,0,0,0,20.378,22.822" transform="translate(0 0)" fill="#f9ce5d"/>
        <path id="Trazado_196479" data-name="Trazado 196479" d="M0,5.22c1.4,41.3,34.98,73.608,75,72.166S146.333,41.3,144.933,0L114.75,1.084c.818,24.1-17.451,44.314-40.8,45.156S31,28.229,30.182,4.132Z" transform="translate(0.049 67.594)" fill="#70f5c8"/>
      </g>
      <ellipse id="Ellipse_13685" data-name="Ellipse 13685" cx="58.366" cy="58.462" rx="58.366" ry="58.462" transform="translate(16.722 16.827)" fill="#fff"/>
    </g>
    <g id="Group_1183608" data-name="Group 1183608" transform="translate(752.125 1748.193)">
      <g id="Group_1183607" data-name="Group 1183607" transform="translate(0 0)" clip-path="url(#clip-path)">
        <path id="Path_1029546" data-name="Path 1029546" d="M54.217,38.6H43.037a2.611,2.611,0,0,0,0,5.223h4.876L32.84,58.894,20.826,46.882a2.609,2.609,0,0,0-3.692,0L.765,63.25a2.611,2.611,0,1,0,3.693,3.693L18.98,52.421,30.993,64.433a2.61,2.61,0,0,0,3.693,0l16.92-16.921v4.879a2.612,2.612,0,0,0,5.224,0V41.208A2.611,2.611,0,0,0,54.217,38.6" transform="translate(0 -12.854)" fill="#203a72"/>
        <path id="Path_1029547" data-name="Path 1029547" d="M10.545,91.238v10.741a.952.952,0,0,1-.952.952H1.5a.952.952,0,0,1-.952-.952V91.238a.955.955,0,0,1,.953-.952H9.593a.955.955,0,0,1,.952.952" transform="translate(-0.184 -30.069)" fill="#14a0de"/>
        <path id="Path_1029548" data-name="Path 1029548" d="M33.347,79.442V98.05A.952.952,0,0,1,32.4,99H24.337a.952.952,0,0,1-.952-.952V79.472a.985.985,0,0,1,.982-.982H32.4a.952.952,0,0,1,.952.952" transform="translate(-7.788 -26.141)" fill="#14a0de"/>
        <path id="Path_1029549" data-name="Path 1029549" d="M79,71.672v23.78a.952.952,0,0,1-.952.952H69.958a.952.952,0,0,1-.952-.952V71.672a.987.987,0,0,1,.984-.984h8.027a.987.987,0,0,1,.984.984" transform="translate(-22.982 -23.542)" fill="#14a0de"/>
        <path id="Path_1029550" data-name="Path 1029550" d="M56.166,87.323v13.342a.952.952,0,0,1-.952.952H47.124a.952.952,0,0,1-.952-.952V87.323a.987.987,0,0,1,.984-.984h8.059a.982.982,0,0,1,.952.984" transform="translate(-15.377 -28.755)" fill="#14a0de"/>
        <path id="Path_1029551" data-name="Path 1029551" d="M37.475,18.615h1.992a2.435,2.435,0,1,1,0,4.869H36.835a1.761,1.761,0,0,1-1.676-1.225.773.773,0,0,0-.74-.532h-3.51a.812.812,0,0,0-.789.944,6.785,6.785,0,0,0,5.662,5.73v3.008a.8.8,0,0,0,.8.8h3.429a.8.8,0,0,0,.8-.8V28.374a7.458,7.458,0,0,0,6.065-8.232,7.7,7.7,0,0,0-7.756-6.551H37.121a2.434,2.434,0,1,1,0-4.867h2.632a1.758,1.758,0,0,1,1.675,1.223.774.774,0,0,0,.741.532h3.509a.812.812,0,0,0,.789-.944A6.784,6.784,0,0,0,40.8,3.806V.8a.8.8,0,0,0-.8-.8H36.579a.8.8,0,0,0-.8.8V3.836a7.456,7.456,0,0,0-6.065,8.232,7.7,7.7,0,0,0,7.758,6.547" transform="translate(-9.879 0)" fill="#203a72"/>
      </g>
    </g>
  </g>
</svg>
