<svg xmlns="http://www.w3.org/2000/svg" xmlns:xlink="http://www.w3.org/1999/xlink" width="83.947" height="83.994" viewBox="0 0 83.947 83.994">
  <defs>
    <clipPath id="clip-path">
      <rect id="Rectangle_458709" data-name="Rectangle 458709" width="30.783" height="38.341" transform="translate(0 0)" fill="none"/>
    </clipPath>
  </defs>
  <g id="img31" transform="translate(-706.028 -1710)">
    <g id="Group_1180300" data-name="Group 1180300" transform="translate(706 1710)">
      <g id="Grupo_155253" data-name="Grupo 155253" transform="matrix(0.999, 0.035, -0.035, 0.999, 2.834, 0)">
        <path id="Trazado_196478" data-name="Trazado 196478" d="M11.413,12.382q-.253.262-.5.529A40.338,40.338,0,0,0,.029,42.021l16.9-.589a23.694,23.694,0,0,1,47.359-1.656l16.9-.589a40.606,40.606,0,0,0-69.778-26.8" transform="translate(0 0)" fill="#f9ce5d"/>
        <path id="Trazado_196479" data-name="Trazado 196479" d="M0,2.836A40.606,40.606,0,0,0,81.162,0L64.26.589A23.694,23.694,0,0,1,16.9,2.245Z" transform="translate(0.028 39.185)" fill="#70f5c8"/>
      </g>
      <ellipse id="Ellipse_13685" data-name="Ellipse 13685" cx="33.016" cy="33.016" rx="33.016" ry="33.016" transform="translate(8.983 9.09)" fill="#fff"/>
    </g>
    <g id="Group_1183526" data-name="Group 1183526" transform="translate(732.608 1732.826)">
      <g id="Group_1183525" data-name="Group 1183525" transform="translate(0 0)" clip-path="url(#clip-path)">
        <path id="Path_1029331" data-name="Path 1029331" d="M29.608,0H1.177A1.175,1.175,0,0,0,0,1.176V28.622a1.175,1.175,0,0,0,1.946.887L4.73,27.092l2.784,2.417a1.176,1.176,0,0,0,1.541,0l2.783-2.417,2.783,2.417a1.176,1.176,0,0,0,1.541,0l2.783-2.417,2.783,2.417a1.176,1.176,0,0,0,1.541,0l2.783-2.417,2.784,2.417a1.175,1.175,0,0,0,1.946-.887V1.176A1.175,1.175,0,0,0,29.608,0M10.774,19.948v1.405a1.176,1.176,0,0,1-2.351,0v-1.4a3.772,3.772,0,0,1-3.3-2.439,1.176,1.176,0,1,1,2.2-.834,1.444,1.444,0,0,0,1.362.941h1.835a1.447,1.447,0,0,0,1.023-2.464,1.417,1.417,0,0,0-1.023-.427H8.683a3.8,3.8,0,0,1-3.8-3.793A3.764,3.764,0,0,1,8.423,7.172V5.764a1.176,1.176,0,1,1,2.351,0v1.4a3.8,3.8,0,0,1,3.3,2.458,1.176,1.176,0,1,1-2.207.813A1.443,1.443,0,0,0,10.518,9.5H8.683a1.432,1.432,0,0,0-1.022.418,1.414,1.414,0,0,0-.428,1.023,1.448,1.448,0,0,0,1.45,1.441h1.835a3.794,3.794,0,0,1,3.793,3.8,3.786,3.786,0,0,1-3.537,3.767m13.953.6H18.394a1.176,1.176,0,0,1,0-2.352h6.333a1.176,1.176,0,1,1,0,2.352m0-5.819H18.394a1.176,1.176,0,1,1,0-2.351h6.333a1.176,1.176,0,1,1,0,2.351m0-5.818H18.394a1.176,1.176,0,1,1,0-2.351h6.333a1.176,1.176,0,1,1,0,2.351" transform="translate(-0.001 0)" fill="#203a72"/>
        <path id="Path_1029332" data-name="Path 1029332" d="M30.783,82.252v4.792a1.176,1.176,0,0,1-1.176,1.175H1.176A1.176,1.176,0,0,1,0,87.044V82.252a.094.094,0,0,1,.176-.046,1.157,1.157,0,0,0,.512.453,1.143,1.143,0,0,0,1.252-.184l2.8-2.414,2.78,2.414a1.177,1.177,0,0,0,1.543,0l2.78-2.414,2.78,2.414a1.177,1.177,0,0,0,1.543,0l2.78-2.414,2.78,2.414a1.177,1.177,0,0,0,1.543,0l2.78-2.414,2.8,2.414a1.112,1.112,0,0,0,.764.291,1.086,1.086,0,0,0,.489-.107,1.156,1.156,0,0,0,.512-.453.094.094,0,0,1,.176.046" transform="translate(0 -49.879)" fill="#14a0de"/>
      </g>
    </g>
  </g>
</svg>
