<svg xmlns="http://www.w3.org/2000/svg" xmlns:xlink="http://www.w3.org/1999/xlink" width="90" height="90" viewBox="0 0 90 90">
  <defs>
    <clipPath id="clip-path">
      <rect id="Rectangle_458752" data-name="Rectangle 458752" width="61.329" height="61.329" fill="none"/>
    </clipPath>
  </defs>
  <g id="img39" transform="translate(-338.711 -12699)">
    <circle id="Ellipse_13756" data-name="Ellipse 13756" cx="45" cy="45" r="45" transform="translate(338.711 12699)" fill="#fff"/>
    <g id="Group_1183616" data-name="Group 1183616" transform="translate(353.046 12713.336)">
      <g id="Group_1183615" data-name="Group 1183615" clip-path="url(#clip-path)">
        <path id="Path_1029560" data-name="Path 1029560" d="M2.6,36.91l5.59.815c.7,1.694.891,2.147,1.594,3.843L6.4,46.093a3.032,3.032,0,0,0,.289,3.96l4.585,4.591a3.041,3.041,0,0,0,3.961.285l4.525-3.38c1.7.7,2.15.89,3.843,1.59l.812,5.591a3.033,3.033,0,0,0,3,2.6h6.49a3.03,3.03,0,0,0,3-2.6l.812-5.591c1.695-.7,2.149-.886,3.842-1.59l4.529,3.38a3.037,3.037,0,0,0,3.958-.285l4.59-4.591a3.033,3.033,0,0,0,.287-3.958l-3.38-4.529c.7-1.7.89-2.149,1.592-3.843l5.591-.815a3.03,3.03,0,0,0,2.6-3V27.422a3.033,3.033,0,0,0-2.6-3l-5.591-.812c-.7-1.7-.889-2.149-1.592-3.845l3.38-4.526a3.037,3.037,0,0,0-.287-3.96l-4.59-4.586A3.031,3.031,0,0,0,46.093,6.4L41.564,9.779c-1.693-.7-2.148-.888-3.842-1.59L36.91,2.6a3.032,3.032,0,0,0-3-2.6h-6.49a3.035,3.035,0,0,0-3,2.6L23.6,8.189c-1.694.7-2.147.888-3.843,1.59L15.236,6.4a3.035,3.035,0,0,0-3.961.288L6.69,11.275a3.032,3.032,0,0,0-.289,3.96l3.39,4.54c-.7,1.686-.889,2.14-1.588,3.829l-5.6.814a3.033,3.033,0,0,0-2.6,3v6.489a3.029,3.029,0,0,0,2.6,3M30.664,14.177A16.489,16.489,0,1,1,14.173,30.664,16.486,16.486,0,0,1,30.664,14.177" fill="#203a72"/>
        <path id="Path_1029561" data-name="Path 1029561" d="M54.029,49.983A10.464,10.464,0,1,1,42.464,38.419a1.037,1.037,0,0,1,1.17,1.017v8.356a1.021,1.021,0,0,0,1.021,1.021h8.356a1.038,1.038,0,0,1,1.017,1.17" transform="translate(-14.421 -16.698)" fill="#14a0de"/>
        <path id="Path_1029562" data-name="Path 1029562" d="M66.3,43.575H57.939a1.022,1.022,0,0,1-1.022-1.021V34.2a1.038,1.038,0,0,1,1.177-1.015A10.452,10.452,0,0,1,67.311,42.4,1.038,1.038,0,0,1,66.3,43.575" transform="translate(-24.742 -14.421)" fill="#14a0de"/>
      </g>
    </g>
  </g>
</svg>
