<svg xmlns="http://www.w3.org/2000/svg" xmlns:xlink="http://www.w3.org/1999/xlink" width="127.922" height="128" viewBox="0 0 127.922 128">
  <defs>
    <clipPath id="clip-path">
      <rect id="Rectangle_458744" data-name="Rectangle 458744" width="60.824" height="50.821" fill="none"/>
    </clipPath>
  </defs>
  <g id="img31" transform="translate(-706.089 -1709.683)">
    <g id="Group_1180300" data-name="Group 1180300" transform="translate(706.047 1709.683)">
      <g id="Grupo_155253" data-name="Grupo 155253" transform="matrix(0.999, 0.035, -0.035, 0.999, 4.319, 0)">
        <path id="Trazado_196478" data-name="Trazado 196478" d="M17.389,19.468q-.386.412-.764.831A64.6,64.6,0,0,0,.044,66.072L25.8,65.147C25.1,44.584,40.69,27.331,60.618,26.613S97.267,41.982,97.965,62.546l25.755-.925c-.869-25.6-16.481-48.187-39.655-57.372A60.525,60.525,0,0,0,17.389,19.475" transform="translate(0 0)" fill="#f9ce5d"/>
        <path id="Trazado_196479" data-name="Trazado 196479" d="M0,4.454C1.195,39.7,29.849,67.266,64,66.036S124.871,35.241,123.676,0L97.92.925c.7,20.563-14.891,37.815-34.819,38.533S26.453,24.089,25.755,3.526Z" transform="translate(0.042 57.68)" fill="#70f5c8"/>
      </g>
      <ellipse id="Ellipse_13685" data-name="Ellipse 13685" cx="49.806" cy="49.887" rx="49.806" ry="49.887" transform="translate(14.269 14.359)" fill="#fff"/>
    </g>
    <g id="Group_1183601" data-name="Group 1183601" transform="translate(739.047 1748.683)">
      <g id="Group_1183600" data-name="Group 1183600" transform="translate(0 0)" clip-path="url(#clip-path)">
        <path id="Path_1029525" data-name="Path 1029525" d="M71.831,16.547l-2.549,2.528a14.234,14.234,0,0,0-6.492-1.558,14.016,14.016,0,0,0-12.035,6.755,11.229,11.229,0,0,0-2.245-2.892,17.555,17.555,0,0,1,23.321-4.834" transform="translate(-26.116 -7.558)" fill="#14a0de"/>
        <path id="Path_1029526" data-name="Path 1029526" d="M91.278,41.792A17.657,17.657,0,0,1,73.641,59.449a17.46,17.46,0,0,1-4.41-.566l-.1-1.375a11.121,11.121,0,0,0-.465-2.467,13.532,13.532,0,0,0,4.976.951,14.172,14.172,0,0,0,12.6-20.671l2.528-2.528a17.249,17.249,0,0,1,2.508,9" transform="translate(-36.966 -17.653)" fill="#14a0de"/>
        <path id="Path_1029527" data-name="Path 1029527" d="M66.634,31.962a6.276,6.276,0,0,1,1.28.121L70.7,29.3a10.618,10.618,0,0,0-4.065-.8A10.992,10.992,0,1,0,77.617,39.486a10.622,10.622,0,0,0-.8-4.064l-2.784,2.784a6.315,6.315,0,0,1,.121,1.28,7.532,7.532,0,1,1-7.524-7.524" transform="translate(-29.951 -15.345)" fill="#14a0de"/>
        <path id="Path_1029528" data-name="Path 1029528" d="M98.439,5.538a1.3,1.3,0,0,0-1.2-.8H93.8V1.3A1.3,1.3,0,0,0,91.585.38L88.032,3.933a1.3,1.3,0,0,0-.38.917V8.439L75.977,20.113a4.3,4.3,0,0,0-1.584-.309,4.34,4.34,0,1,0,4.339,4.34,4.3,4.3,0,0,0-.309-1.583L90.1,10.886h3.589a1.294,1.294,0,0,0,.917-.38l3.554-3.553a1.3,1.3,0,0,0,.283-1.414" transform="translate(-37.713 0)" fill="#14a0de"/>
        <path id="Path_1029529" data-name="Path 1029529" d="M21.963,67.6a.77.77,0,0,0-.94.492l-4.03,11.528-.924-7.535h.616a.675.675,0,0,0,.673-.675V69.337a.671.671,0,0,0-.672-.672H13.308a.671.671,0,0,0-.672.672v2.072a.674.674,0,0,0,.672.675h.616L13,79.618,8.971,68.09a.771.771,0,0,0-.94-.492A10.732,10.732,0,0,0,.543,76.553l-.534,7a3.359,3.359,0,0,0,3.346,3.614l23.279.024a3.359,3.359,0,0,0,3.352-3.614l-.535-7.027A10.733,10.733,0,0,0,21.963,67.6" transform="translate(0 -36.374)" fill="#203a72"/>
        <path id="Path_1029530" data-name="Path 1029530" d="M23,45.978A8.176,8.176,0,1,0,14.827,37.8,8.176,8.176,0,0,0,23,45.978" transform="translate(-7.982 -15.949)" fill="#203a72"/>
      </g>
    </g>
  </g>
</svg>
