<svg xmlns="http://www.w3.org/2000/svg" xmlns:xlink="http://www.w3.org/1999/xlink" width="83.947" height="83.994" viewBox="0 0 83.947 83.994">
  <defs>
    <clipPath id="clip-path">
      <rect id="Rectangle_458711" data-name="Rectangle 458711" width="40.113" height="40.393" fill="none"/>
    </clipPath>
  </defs>
  <g id="img37" transform="translate(-706.028 -1710)">
    <g id="Group_1180300" data-name="Group 1180300" transform="translate(706 1710)">
      <g id="Grupo_155253" data-name="Grupo 155253" transform="matrix(0.999, 0.035, -0.035, 0.999, 2.834, 0)">
        <path id="Trazado_196478" data-name="Trazado 196478" d="M11.413,12.382q-.253.262-.5.529A40.338,40.338,0,0,0,.029,42.021l16.9-.589a23.694,23.694,0,0,1,47.359-1.656l16.9-.589a40.606,40.606,0,0,0-69.778-26.8" transform="translate(0 0)" fill="#f9ce5d"/>
        <path id="Trazado_196479" data-name="Trazado 196479" d="M0,2.836A40.606,40.606,0,0,0,81.162,0L64.26.589A23.694,23.694,0,0,1,16.9,2.245Z" transform="translate(0.028 39.185)" fill="#70f5c8"/>
      </g>
      <ellipse id="Ellipse_13685" data-name="Ellipse 13685" cx="33.016" cy="33.016" rx="33.016" ry="33.016" transform="translate(8.983 9.09)" fill="#fff"/>
    </g>
    <g id="Group_1183530" data-name="Group 1183530" transform="translate(727.943 1731.8)">
      <g id="Group_1183529" data-name="Group 1183529" clip-path="url(#clip-path)">
        <path id="Path_1029335" data-name="Path 1029335" d="M72.3,90.445l-1.245.41a1.268,1.268,0,0,1-.353.052,1.133,1.133,0,0,1-1.016-.62l-.6-1.168-.491-.038-2.475,5.261a.542.542,0,0,0,.591.763l1.779-.334a.545.545,0,0,1,.577.267l.873,1.589a.545.545,0,0,0,.968-.034l2.466-5.237a.9.9,0,0,1-.086-.062Z" transform="translate(-41.917 -56.512)" fill="#14a0de"/>
        <path id="Path_1029336" data-name="Path 1029336" d="M94.416,89.081l-.506.038-.592,1.169a1.139,1.139,0,0,1-1.016.62,1.271,1.271,0,0,1-.353-.053l-1.24-.405-.987.844a.905.905,0,0,1-.086.062L92.1,96.593a.541.541,0,0,0,.963.034l.877-1.588a.542.542,0,0,1,.577-.267l1.779.334a.543.543,0,0,0,.592-.763Z" transform="translate(-56.865 -56.512)" fill="#14a0de"/>
        <path id="Path_1029337" data-name="Path 1029337" d="M81.8,55.594a.723.723,0,0,0,0-.929l-.548-.636a.719.719,0,0,1-.127-.684l.254-.783a.71.71,0,0,0-.362-.85l-.733-.382a.712.712,0,0,1-.381-.577l-.069-.831a.713.713,0,0,0-.655-.655l-.831-.069a.728.728,0,0,1-.587-.381l-.372-.744a.706.706,0,0,0-.851-.352l-.782.254a.7.7,0,0,1-.685-.136l-.636-.538a.723.723,0,0,0-.929,0l-.626.548a.723.723,0,0,1-.685.127l-.792-.254a.724.724,0,0,0-.861.352l-.371.744a.713.713,0,0,1-.577.381l-.831.069a.721.721,0,0,0-.656.655l-.058.831a.717.717,0,0,1-.391.577l-.743.382a.7.7,0,0,0-.352.85l.254.792a.7.7,0,0,1-.137.685l-.528.626a.7.7,0,0,0,0,.929l.538.626a.714.714,0,0,1,.127.685l-.254.792a.7.7,0,0,0,.352.851l.743.382a.717.717,0,0,1,.391.577l.058.822a.713.713,0,0,0,.656.655l.822.068a.718.718,0,0,1,.587.391l.371.744a.723.723,0,0,0,.861.352l.792-.264a.723.723,0,0,1,.685.137l.626.538a.7.7,0,0,0,.929,0l.626-.538a.719.719,0,0,1,.685-.127l.792.254a.706.706,0,0,0,.851-.352l.381-.744a.7.7,0,0,1,.577-.391l.831-.068a.7.7,0,0,0,.655-.655l.069-.822a.712.712,0,0,1,.381-.577l.733-.382a.71.71,0,0,0,.362-.851l-.264-.792a.755.755,0,0,1,.137-.685Zm-3.863-1.056-1.34,1.447a1.741,1.741,0,0,0-.068.206l.235,1.956a.63.63,0,0,1-.89.655l-1.79-.831h-.215l-1.79.831a.638.638,0,0,1-.9-.655l.245-1.956a1.675,1.675,0,0,1-.068-.206L70,54.538a.629.629,0,0,1,.342-1.046l1.946-.381a1.92,1.92,0,0,0,.166-.127l.958-1.721a.627.627,0,0,1,1.105,0l.968,1.721a1.919,1.919,0,0,0,.166.127l1.937.381a.626.626,0,0,1,.342,1.046" transform="translate(-41.852 -29.9)" fill="#14a0de"/>
        <path id="Path_1029338" data-name="Path 1029338" d="M35,0H3.113A3.094,3.094,0,0,0,0,3.1V25.21a3.1,3.1,0,0,0,3.113,3.082H22.72a2.542,2.542,0,0,1,.128-1.086l.048-.143-.08-.1a2.665,2.665,0,0,1,0-3.48l.08-.1-.048-.128a2.651,2.651,0,0,1,1.31-3.193l.127-.064.016-.143a2.667,2.667,0,0,1,2.443-2.443l.144-.015.048-.1.016-.032.015-.016a2.59,2.59,0,0,1,2.363-1.42,2.37,2.37,0,0,1,.815.127l.127.033.1-.064.048-.049a2.662,2.662,0,0,1,1.708-.607,2.72,2.72,0,0,1,1.724.623l.112.1.128-.033a2.309,2.309,0,0,1,.815-.127,2.622,2.622,0,0,1,2.379,1.469l.064.1.144.015a2.583,2.583,0,0,1,.607.128V3.1A3.091,3.091,0,0,0,35,0M9.085,12.374h-.8A3.482,3.482,0,0,1,4.774,9.34,3.358,3.358,0,0,1,7.568,5.7V4.375a.287.287,0,0,1,.287-.288H9.372a.284.284,0,0,1,.272.288V5.7a3.327,3.327,0,0,1,2.794,3.018A.286.286,0,0,1,12.15,9H10.617a.256.256,0,0,1-.256-.207A1.3,1.3,0,0,0,9.085,7.712H8.206A1.345,1.345,0,0,0,6.849,8.781,1.3,1.3,0,0,0,8.127,10.3h.958A3.376,3.376,0,0,1,12.438,14a3.439,3.439,0,0,1-2.794,2.953v1.357a.267.267,0,0,1-.272.256H7.855a.271.271,0,0,1-.287-.256V16.973a3.392,3.392,0,0,1-2.794-3.018.286.286,0,0,1,.287-.288H6.578a.262.262,0,0,1,.272.208A1.289,1.289,0,0,0,8.127,14.96H9a1.361,1.361,0,0,0,1.357-1.069,1.3,1.3,0,0,0-1.277-1.517M17.69,23.726H6.115a1.134,1.134,0,1,1,0-2.267H17.69a1.134,1.134,0,1,1,0,2.267m1.278-5.637h-2.73a1.134,1.134,0,1,1,0-2.267h2.73a1.134,1.134,0,0,1,0,2.267M32,12.469H16.237a1.133,1.133,0,1,1,0-2.267H32a1.133,1.133,0,0,1,0,2.267m0-5.635H16.237a1.134,1.134,0,1,1,0-2.267H32a1.134,1.134,0,0,1,0,2.267" fill="#203a72"/>
      </g>
    </g>
  </g>
</svg>
