<svg xmlns="http://www.w3.org/2000/svg" xmlns:xlink="http://www.w3.org/1999/xlink" width="84" height="84" viewBox="0 0 84 84">
  <defs>
    <clipPath id="clip-path">
      <rect id="Rectangle_458755" data-name="Rectangle 458755" width="52.117" height="52.137" fill="none"/>
    </clipPath>
  </defs>
  <g id="img46" transform="translate(-216 -10343)">
    <rect id="Rectangle_456558" data-name="Rectangle 456558" width="84" height="84" rx="10" transform="translate(216 10343)" fill="#ff9e74"/>
    <g id="Group_1183624" data-name="Group 1183624" transform="translate(231.941 10359.431)">
      <g id="Group_1183623" data-name="Group 1183623" clip-path="url(#clip-path)">
        <path id="Path_1029577" data-name="Path 1029577" d="M15.007,13.7a8.367,8.367,0,0,0,1.869-5.264,8.439,8.439,0,1,0-8.438,8.439,8.29,8.29,0,0,0,5.243-1.849l2.813,2.813a5.2,5.2,0,0,1,2.089-.563ZM8.438,3.235A2.743,2.743,0,1,1,5.685,5.967,2.752,2.752,0,0,1,8.438,3.235m4.541,9.925a6.552,6.552,0,0,1-9.1-.02v-.663A3.194,3.194,0,0,1,6.007,9.5a4.255,4.255,0,0,0,2.431.764A4.146,4.146,0,0,0,10.848,9.5a3.166,3.166,0,0,1,2.13,2.974Z" transform="translate(0.001)" fill="#203a72"/>
        <path id="Path_1029578" data-name="Path 1029578" d="M86.747,79.475a8.469,8.469,0,0,0-5.264,1.848L78.469,78.31a4.975,4.975,0,0,1-2.109.462h-.081l3.878,3.878a8.435,8.435,0,1,0,6.59-3.174m0,3.235a2.743,2.743,0,1,1-2.753,2.733,2.753,2.753,0,0,1,2.753-2.733m4.541,9.905a6.526,6.526,0,0,1-9.1,0v-.663a3.194,3.194,0,0,1,2.13-2.974,4.254,4.254,0,0,0,2.431.764,4.146,4.146,0,0,0,2.411-.764,3.167,3.167,0,0,1,2.129,2.974Z" transform="translate(-43.068 -44.215)" fill="#203a72"/>
        <path id="Path_1029579" data-name="Path 1029579" d="M46.145,18.917a1.364,1.364,0,1,0-1.365-1.364,1.364,1.364,0,0,0,1.365,1.364" transform="translate(-25.283 -9.14)" fill="#14a0de"/>
        <path id="Path_1029580" data-name="Path 1029580" d="M69.979,18.917a1.364,1.364,0,1,0-1.364-1.364,1.364,1.364,0,0,0,1.364,1.364" transform="translate(-38.741 -9.14)" fill="#14a0de"/>
        <path id="Path_1029581" data-name="Path 1029581" d="M58.061,18.917A1.364,1.364,0,1,0,56.7,17.553a1.364,1.364,0,0,0,1.364,1.364" transform="translate(-32.012 -9.14)" fill="#14a0de"/>
        <path id="Path_1029582" data-name="Path 1029582" d="M46.145,97.165a1.364,1.364,0,1,0,1.364,1.364,1.364,1.364,0,0,0-1.364-1.364" transform="translate(-25.283 -54.86)" fill="#14a0de"/>
        <path id="Path_1029583" data-name="Path 1029583" d="M69.979,97.165a1.364,1.364,0,1,0,1.364,1.364,1.364,1.364,0,0,0-1.364-1.364" transform="translate(-38.741 -54.86)" fill="#14a0de"/>
        <path id="Path_1029584" data-name="Path 1029584" d="M58.061,97.165a1.364,1.364,0,1,0,1.364,1.364,1.364,1.364,0,0,0-1.364-1.364" transform="translate(-32.012 -54.86)" fill="#14a0de"/>
        <path id="Path_1029585" data-name="Path 1029585" d="M98.549,44.76a1.364,1.364,0,1,0,1.364,1.364,1.364,1.364,0,0,0-1.364-1.364" transform="translate(-54.872 -25.272)" fill="#14a0de"/>
        <path id="Path_1029586" data-name="Path 1029586" d="M98.549,68.593a1.364,1.364,0,1,0,1.364,1.364,1.364,1.364,0,0,0-1.364-1.364" transform="translate(-54.872 -38.728)" fill="#14a0de"/>
        <path id="Path_1029587" data-name="Path 1029587" d="M98.549,56.677a1.364,1.364,0,1,0,1.364,1.364,1.364,1.364,0,0,0-1.364-1.364" transform="translate(-54.872 -32)" fill="#14a0de"/>
        <path id="Path_1029588" data-name="Path 1029588" d="M17.573,44.76a1.364,1.364,0,1,0,1.364,1.364,1.364,1.364,0,0,0-1.364-1.364" transform="translate(-9.152 -25.272)" fill="#14a0de"/>
        <path id="Path_1029589" data-name="Path 1029589" d="M17.573,68.593a1.364,1.364,0,1,0,1.364,1.364,1.364,1.364,0,0,0-1.364-1.364" transform="translate(-9.152 -38.728)" fill="#14a0de"/>
        <path id="Path_1029590" data-name="Path 1029590" d="M17.573,56.677a1.364,1.364,0,1,0,1.364,1.364,1.364,1.364,0,0,0-1.364-1.364" transform="translate(-9.152 -32)" fill="#14a0de"/>
        <path id="Path_1029591" data-name="Path 1029591" d="M87.138,0a8.433,8.433,0,0,0-6.59,13.7l-3.576,3.576a5.2,5.2,0,0,1,2.089.563l2.813-2.813A8.437,8.437,0,1,0,87.138,0m0,3.235a2.743,2.743,0,1,1-2.753,2.732,2.752,2.752,0,0,1,2.753-2.732m4.541,9.925a6.552,6.552,0,0,1-9.1-.02v-.663A3.194,3.194,0,0,1,84.707,9.5a4.254,4.254,0,0,0,2.431.764A4.146,4.146,0,0,0,89.549,9.5a3.167,3.167,0,0,1,2.129,2.974Z" transform="translate(-43.459)" fill="#203a72"/>
        <path id="Path_1029592" data-name="Path 1029592" d="M18.885,78.745h-.06a4.7,4.7,0,0,1-2.109-.482L13.681,81.3a8.424,8.424,0,1,0,3.195,6.59,8.367,8.367,0,0,0-1.869-5.264ZM8.438,82.684a2.743,2.743,0,1,1-2.753,2.733,2.752,2.752,0,0,1,2.753-2.733m4.541,9.905a6.526,6.526,0,0,1-9.1,0v-.663a3.194,3.194,0,0,1,2.129-2.974,4.256,4.256,0,0,0,2.431.764,4.146,4.146,0,0,0,2.411-.764,3.166,3.166,0,0,1,2.13,2.974Z" transform="translate(0.001 -44.188)" fill="#203a72"/>
        <path id="Path_1029593" data-name="Path 1029593" d="M54.044,44.76H39.563a2.826,2.826,0,0,0-2.818,2.818V54.8a2.827,2.827,0,0,0,2.818,2.818H43.8L45.9,60.94a1.074,1.074,0,0,0,1.817,0l2.093-3.318h4.239A2.826,2.826,0,0,0,56.862,54.8V47.578a2.826,2.826,0,0,0-2.818-2.818m-12.57,8.171a1.739,1.739,0,1,1,1.74-1.739,1.739,1.739,0,0,1-1.74,1.739m5.33,0a1.739,1.739,0,1,1,1.739-1.739A1.739,1.739,0,0,1,46.8,52.931m5.329,0a1.739,1.739,0,1,1,1.74-1.739,1.739,1.739,0,0,1-1.74,1.739" transform="translate(-20.747 -25.272)" fill="#14a0de"/>
      </g>
    </g>
  </g>
</svg>
