<svg xmlns="http://www.w3.org/2000/svg" xmlns:xlink="http://www.w3.org/1999/xlink" width="292" height="236.948" viewBox="0 0 292 236.948">
  <defs>
    <clipPath id="clip-path">
      <rect id="Rectangle_456762" data-name="Rectangle 456762" width="242.287" height="236.948" fill="none"/>
    </clipPath>
  </defs>
  <g id="img43" transform="translate(-1121.711 -11664.053)">
    <path id="Rectangle_456556" data-name="Rectangle 456556" d="M20,0H272a20,20,0,0,1,20,20V194.282a0,0,0,0,1,0,0H0a0,0,0,0,1,0,0V20A20,20,0,0,1,20,0Z" transform="translate(1121.711 11706.718)" fill="#ff9e74"/>
    <g id="Group_1180761" data-name="Group 1180761" transform="translate(1146.711 11664.053)">
      <g id="Group_1180760" data-name="Group 1180760" transform="translate(0 0)" clip-path="url(#clip-path)">
        <path id="Path_1022069" data-name="Path 1022069" d="M30.913,16.064a1.262,1.262,0,1,0,1.262,1.262,1.26,1.26,0,0,0-1.262-1.262" transform="translate(180.6 97.846)" fill="#050817"/>
        <path id="Path_1022070" data-name="Path 1022070" d="M28.617,16.064a1.262,1.262,0,1,0,1.255,1.262,1.268,1.268,0,0,0-1.255-1.262" transform="translate(166.53 97.846)" fill="#050817"/>
        <path id="Path_1022071" data-name="Path 1022071" d="M26.3,16.064a1.262,1.262,0,1,0,1.262,1.262A1.266,1.266,0,0,0,26.3,16.064" transform="translate(152.472 97.846)" fill="#050817"/>
        <path id="Path_1022072" data-name="Path 1022072" d="M23.993,16.064a1.262,1.262,0,1,0,1.269,1.262,1.266,1.266,0,0,0-1.269-1.262" transform="translate(138.409 97.846)" fill="#050817"/>
        <path id="Path_1022073" data-name="Path 1022073" d="M21.679,16.064a1.262,1.262,0,1,0,1.262,1.262,1.26,1.26,0,0,0-1.262-1.262" transform="translate(124.357 97.846)" fill="#050817"/>
        <path id="Path_1022074" data-name="Path 1022074" d="M29.722,14.808a1.266,1.266,0,1,0,1.269,1.269,1.268,1.268,0,0,0-1.269-1.269" transform="translate(173.303 90.196)" fill="#050817"/>
        <path id="Path_1022075" data-name="Path 1022075" d="M27.415,14.808a1.266,1.266,0,1,0,1.262,1.269,1.262,1.262,0,0,0-1.262-1.269" transform="translate(159.294 90.196)" fill="#050817"/>
        <path id="Path_1022076" data-name="Path 1022076" d="M25.12,14.808a1.266,1.266,0,1,0,1.262,1.269,1.268,1.268,0,0,0-1.262-1.269" transform="translate(145.273 90.196)" fill="#050817"/>
        <path id="Path_1022077" data-name="Path 1022077" d="M22.819,14.808a1.266,1.266,0,1,0,1.262,1.269,1.268,1.268,0,0,0-1.262-1.269" transform="translate(131.258 90.196)" fill="#050817"/>
        <path id="Path_1022078" data-name="Path 1022078" d="M30.913,13.1a1.262,1.262,0,1,0,1.262,1.262A1.26,1.26,0,0,0,30.913,13.1" transform="translate(180.6 79.775)" fill="#050817"/>
        <path id="Path_1022079" data-name="Path 1022079" d="M28.617,13.1a1.262,1.262,0,1,0,1.255,1.262A1.268,1.268,0,0,0,28.617,13.1" transform="translate(166.53 79.775)" fill="#050817"/>
        <path id="Path_1022080" data-name="Path 1022080" d="M26.3,13.1a1.262,1.262,0,1,0,1.262,1.262A1.266,1.266,0,0,0,26.3,13.1" transform="translate(152.472 79.775)" fill="#050817"/>
        <path id="Path_1022081" data-name="Path 1022081" d="M23.993,13.1a1.262,1.262,0,1,0,1.269,1.262A1.266,1.266,0,0,0,23.993,13.1" transform="translate(138.409 79.775)" fill="#050817"/>
        <path id="Path_1022082" data-name="Path 1022082" d="M21.679,13.1a1.262,1.262,0,1,0,1.262,1.262A1.26,1.26,0,0,0,21.679,13.1" transform="translate(124.357 79.775)" fill="#050817"/>
        <path id="Path_1022083" data-name="Path 1022083" d="M29.722,11.842A1.262,1.262,0,1,0,30.992,13.1a1.262,1.262,0,0,0-1.269-1.262" transform="translate(173.303 72.131)" fill="#050817"/>
        <path id="Path_1022084" data-name="Path 1022084" d="M27.415,11.842A1.262,1.262,0,1,0,28.677,13.1a1.256,1.256,0,0,0-1.262-1.262" transform="translate(159.294 72.131)" fill="#050817"/>
        <path id="Path_1022085" data-name="Path 1022085" d="M25.12,11.842A1.262,1.262,0,1,0,26.382,13.1a1.262,1.262,0,0,0-1.262-1.262" transform="translate(145.273 72.131)" fill="#050817"/>
        <path id="Path_1022086" data-name="Path 1022086" d="M22.819,11.842A1.262,1.262,0,1,0,24.081,13.1a1.262,1.262,0,0,0-1.262-1.262" transform="translate(131.258 72.131)" fill="#050817"/>
        <path id="Path_1022087" data-name="Path 1022087" d="M30.913,10.13A1.266,1.266,0,1,0,32.175,11.4a1.262,1.262,0,0,0-1.262-1.269" transform="translate(180.6 61.703)" fill="#050817"/>
        <path id="Path_1022088" data-name="Path 1022088" d="M28.617,10.13A1.266,1.266,0,1,0,29.872,11.4a1.27,1.27,0,0,0-1.255-1.269" transform="translate(166.53 61.703)" fill="#050817"/>
        <path id="Path_1022089" data-name="Path 1022089" d="M26.3,10.13A1.266,1.266,0,1,0,27.564,11.4,1.268,1.268,0,0,0,26.3,10.13" transform="translate(152.472 61.703)" fill="#050817"/>
        <path id="Path_1022090" data-name="Path 1022090" d="M23.993,10.13A1.266,1.266,0,1,0,25.263,11.4a1.268,1.268,0,0,0-1.269-1.269" transform="translate(138.409 61.703)" fill="#050817"/>
        <path id="Path_1022091" data-name="Path 1022091" d="M21.679,10.13A1.266,1.266,0,1,0,22.941,11.4a1.262,1.262,0,0,0-1.262-1.269" transform="translate(124.357 61.703)" fill="#050817"/>
        <path id="Path_1022092" data-name="Path 1022092" d="M29.722,8.876a1.262,1.262,0,1,0,1.269,1.262,1.266,1.266,0,0,0-1.269-1.262" transform="translate(173.303 54.065)" fill="#050817"/>
        <path id="Path_1022093" data-name="Path 1022093" d="M27.415,8.876a1.262,1.262,0,1,0,1.262,1.262,1.26,1.26,0,0,0-1.262-1.262" transform="translate(159.294 54.065)" fill="#050817"/>
        <path id="Path_1022094" data-name="Path 1022094" d="M25.12,8.876a1.262,1.262,0,1,0,1.262,1.262A1.266,1.266,0,0,0,25.12,8.876" transform="translate(145.273 54.065)" fill="#050817"/>
        <path id="Path_1022095" data-name="Path 1022095" d="M22.819,8.876a1.262,1.262,0,1,0,1.262,1.262,1.266,1.266,0,0,0-1.262-1.262" transform="translate(131.258 54.065)" fill="#050817"/>
        <path id="Path_1022096" data-name="Path 1022096" d="M30.913,7.165a1.262,1.262,0,1,0,1.262,1.262,1.26,1.26,0,0,0-1.262-1.262" transform="translate(180.6 43.644)" fill="#050817"/>
        <path id="Path_1022097" data-name="Path 1022097" d="M28.617,7.165a1.262,1.262,0,1,0,1.255,1.262,1.268,1.268,0,0,0-1.255-1.262" transform="translate(166.53 43.644)" fill="#050817"/>
        <path id="Path_1022098" data-name="Path 1022098" d="M26.3,7.165a1.262,1.262,0,1,0,1.262,1.262A1.266,1.266,0,0,0,26.3,7.165" transform="translate(152.472 43.644)" fill="#050817"/>
        <path id="Path_1022099" data-name="Path 1022099" d="M23.993,7.165a1.262,1.262,0,1,0,1.269,1.262,1.266,1.266,0,0,0-1.269-1.262" transform="translate(138.409 43.644)" fill="#050817"/>
        <path id="Path_1022100" data-name="Path 1022100" d="M21.679,7.165a1.262,1.262,0,1,0,1.262,1.262,1.26,1.26,0,0,0-1.262-1.262" transform="translate(124.357 43.644)" fill="#050817"/>
        <path id="Path_1022101" data-name="Path 1022101" d="M29.722,5.909a1.266,1.266,0,1,0,1.269,1.269,1.268,1.268,0,0,0-1.269-1.269" transform="translate(173.303 35.994)" fill="#050817"/>
        <path id="Path_1022102" data-name="Path 1022102" d="M27.415,5.909a1.266,1.266,0,1,0,1.262,1.269,1.262,1.262,0,0,0-1.262-1.269" transform="translate(159.294 35.994)" fill="#050817"/>
        <path id="Path_1022103" data-name="Path 1022103" d="M25.12,5.909a1.266,1.266,0,1,0,1.262,1.269A1.268,1.268,0,0,0,25.12,5.909" transform="translate(145.273 35.994)" fill="#050817"/>
        <path id="Path_1022104" data-name="Path 1022104" d="M22.819,5.909a1.266,1.266,0,1,0,1.262,1.269,1.268,1.268,0,0,0-1.262-1.269" transform="translate(131.258 35.994)" fill="#050817"/>
        <path id="Path_1022105" data-name="Path 1022105" d="M30.913,4.2A1.262,1.262,0,1,0,32.175,5.46,1.26,1.26,0,0,0,30.913,4.2" transform="translate(180.6 25.572)" fill="#050817"/>
        <path id="Path_1022106" data-name="Path 1022106" d="M26.3,4.2A1.262,1.262,0,1,0,27.564,5.46,1.266,1.266,0,0,0,26.3,4.2" transform="translate(152.472 25.572)" fill="#050817"/>
        <path id="Path_1022107" data-name="Path 1022107" d="M23.993,4.2A1.262,1.262,0,1,0,25.263,5.46,1.266,1.266,0,0,0,23.993,4.2" transform="translate(138.409 25.572)" fill="#050817"/>
        <path id="Path_1022108" data-name="Path 1022108" d="M21.679,4.2A1.262,1.262,0,1,0,22.941,5.46,1.26,1.26,0,0,0,21.679,4.2" transform="translate(124.357 25.572)" fill="#050817"/>
        <path id="Path_1022109" data-name="Path 1022109" d="M29.722,2.942A1.266,1.266,0,1,0,30.992,4.2a1.266,1.266,0,0,0-1.269-1.262" transform="translate(173.303 17.922)" fill="#050817"/>
        <path id="Path_1022110" data-name="Path 1022110" d="M28.707,4.2A1.262,1.262,0,1,0,29.969,5.46,1.266,1.266,0,0,0,28.707,4.2" transform="translate(167.121 25.572)" fill="#050817"/>
        <path id="Path_1022111" data-name="Path 1022111" d="M27.415,2.942A1.266,1.266,0,1,0,28.677,4.2a1.26,1.26,0,0,0-1.262-1.262" transform="translate(159.294 17.922)" fill="#050817"/>
        <path id="Path_1022112" data-name="Path 1022112" d="M25.12,2.942A1.266,1.266,0,1,0,26.382,4.2,1.266,1.266,0,0,0,25.12,2.942" transform="translate(145.273 17.922)" fill="#050817"/>
        <path id="Path_1022113" data-name="Path 1022113" d="M22.819,2.942A1.266,1.266,0,1,0,24.081,4.2a1.266,1.266,0,0,0-1.262-1.262" transform="translate(131.258 17.922)" fill="#050817"/>
        <path id="Path_1022114" data-name="Path 1022114" d="M56.666,133.03a16.59,16.59,0,0,1-13.742-25.846,6.731,6.731,0,0,0,.5-.893l.2-.433H4.307V1.09H109.074V40.65a7.109,7.109,0,0,1-1.064-.581,16.119,16.119,0,0,0-9.1-2.787A16.324,16.324,0,0,0,85.285,44.6a16.728,16.728,0,0,0-1.234,16.047c2.347,5.559,8.3,9.3,14.82,9.3a16.276,16.276,0,0,0,9.14-2.787,6.337,6.337,0,0,1,1.064-.589v39.29H69.77l.184.425a6.457,6.457,0,0,0,.5.9,16.413,16.413,0,0,1,2.822,9.254c0,6.758-3.709,12.678-9.459,15.1a18.266,18.266,0,0,1-7.155,1.5" transform="translate(26.233 6.642)" fill="#fff"/>
        <path id="Path_1022115" data-name="Path 1022115" d="M109.025,1.651v38.78a6.575,6.575,0,0,1-.6-.355,16.448,16.448,0,0,0-9.268-2.829,16.615,16.615,0,0,0-13.877,7.445A17.005,17.005,0,0,0,84.03,61.015c2.39,5.673,8.452,9.48,15.089,9.48a16.5,16.5,0,0,0,9.31-2.836c.2-.128.4-.248.6-.355v38.51H69.565l.369.844a6.47,6.47,0,0,0,.532.95,16.18,16.18,0,0,1,2.765,9.083c0,6.637-3.631,12.452-9.268,14.82a17.974,17.974,0,0,1-7.041,1.475,16.3,16.3,0,0,1-13.494-25.378,7.037,7.037,0,0,0,.539-.936l.383-.858H4.868V1.651Zm.61-.6H4.265v105.37H43.414a5.339,5.339,0,0,1-.482.851,16.9,16.9,0,0,0,4.694,23.513,16.693,16.693,0,0,0,9.3,2.808,18.7,18.7,0,0,0,7.275-1.517c5.871-2.475,9.636-8.495,9.636-15.38a16.675,16.675,0,0,0-2.879-9.424,5.858,5.858,0,0,1-.468-.851h39.149V66.383l-.206.078a6.56,6.56,0,0,0-1.34.7,15.878,15.878,0,0,1-8.97,2.73c-6.4,0-12.232-3.659-14.536-9.112a16.465,16.465,0,0,1,1.205-15.756A16.016,16.016,0,0,1,99.162,37.85a15.789,15.789,0,0,1,8.927,2.73,7.817,7.817,0,0,0,1.34.7l.206.078V1.048Z" transform="translate(25.977 6.386)"/>
        <path id="Path_1022116" data-name="Path 1022116" d="M2.381.043v105.37H41.53a5.3,5.3,0,0,1-.475.851,16.882,16.882,0,0,0,4.694,23.513,17.262,17.262,0,0,0,16.571,1.291c5.864-2.468,9.644-8.495,9.644-15.373a16.735,16.735,0,0,0-2.879-9.431,5.3,5.3,0,0,1-.475-.851h39.149V65.385l-.2.078a6.349,6.349,0,0,0-1.34.695A15.907,15.907,0,0,1,97.242,68.9c-6.389,0-12.232-3.673-14.529-9.119a16.411,16.411,0,0,1,1.2-15.749,16.033,16.033,0,0,1,22.308-4.46,6.769,6.769,0,0,0,1.34.709l.2.078V.043Z" transform="translate(14.502 0.265)" fill="#97b9fe"/>
        <path id="Path_1022117" data-name="Path 1022117" d="M55.308,133.145a16.94,16.94,0,0,1-9.466-2.858,17.2,17.2,0,0,1-4.786-23.932,3.793,3.793,0,0,0,.241-.383H2.339V0H108.312V41.056l-.61-.241a7.157,7.157,0,0,1-1.4-.737A15.532,15.532,0,0,0,97.541,37.4a15.717,15.717,0,0,0-13.118,7.041,16.1,16.1,0,0,0-1.177,15.465C85.5,65.257,91.23,68.845,97.5,68.845a15.641,15.641,0,0,0,8.807-2.68,6.329,6.329,0,0,1,1.4-.73l.6-.241v40.78H69.355c.071.128.156.255.234.383a16.982,16.982,0,0,1,2.929,9.594c0,6.992-3.857,13.139-9.821,15.65a19.028,19.028,0,0,1-7.389,1.546M2.942,105.37H42.261l-.191.425a5.725,5.725,0,0,1-.511.9,16.583,16.583,0,0,0,4.616,23.088,16.957,16.957,0,0,0,16.281,1.262c5.751-2.418,9.466-8.346,9.466-15.1a16.386,16.386,0,0,0-2.829-9.254,5.805,5.805,0,0,1-.5-.9l-.184-.425h39.3V66.08a6.827,6.827,0,0,0-1.064.581A16.227,16.227,0,0,1,97.5,69.448c-6.509,0-12.466-3.737-14.813-9.3a16.7,16.7,0,0,1,1.234-16.032,16.342,16.342,0,0,1,22.726-4.538,6.57,6.57,0,0,0,1.064.589V.6H2.942Z" transform="translate(14.247 0.003)" fill="#050817"/>
        <path id="Path_1022118" data-name="Path 1022118" d="M18.646,66.407v-2.29a5.354,5.354,0,0,0-2.191-4.325A31.939,31.939,0,0,1,35.338,2.058h.369A31.936,31.936,0,0,1,54.59,59.792a5.387,5.387,0,0,0-2.184,4.325v2.29Z" transform="translate(20.41 12.538)" fill="#fff"/>
        <path id="Path_1022119" data-name="Path 1022119" d="M35.962,2.619A31.636,31.636,0,0,1,54.668,59.806a5.693,5.693,0,0,0-2.312,4.567v1.993H19.2V64.373a5.653,5.653,0,0,0-2.312-4.567A31.636,31.636,0,0,1,35.594,2.619Zm0-.6h-.369a32.238,32.238,0,0,0-19.06,58.273A5.068,5.068,0,0,1,18.6,64.373v2.6H52.952v-2.6a5.075,5.075,0,0,1,2.071-4.084A32.235,32.235,0,0,0,35.962,2.016" transform="translate(20.155 12.282)"/>
        <path id="Path_1022120" data-name="Path 1022120" d="M12.222,28.791a.51.51,0,0,1-.135-.028.318.318,0,0,1-.191-.149c-.007-.043-1.127-4.673-1.936-9.317a59.607,59.607,0,0,1-.794-6.063l-.014-.227-.22-.05a3.331,3.331,0,0,1-1.113-.511c-3.063-2.085-.234-6.623-.106-6.821L7.8,5.618a.368.368,0,0,1,.191.05.3.3,0,0,1,.156.135c-.83,1.269-2.5,5.027-.078,6.672a2.318,2.318,0,0,0,.681.333l.4.121-.007-.418c-.078-2.652.482-2.737.745-2.78a1.6,1.6,0,0,1,.312-.028,1.225,1.225,0,0,1,1.276,1.574,2.221,2.221,0,0,1-1.1,1.532,2.067,2.067,0,0,1-.546.184l-.262.05.021.262a104.341,104.341,0,0,0,2.73,15.486h-.092ZM10.477,9.844l-.206.014c-.553.149-.766.9-.73,2.531l.014.525.44-.269a2.354,2.354,0,0,0,1.064-1.638,1.241,1.241,0,0,0-.206-1.014L10.8,9.929l-.121-.057a.559.559,0,0,0-.2-.028" transform="translate(38.974 34.221)" fill="#fff"/>
        <path id="Path_1022121" data-name="Path 1022121" d="M8.064,5.576a.4.4,0,0,0-.34.142c-.128.206-3.134,4.971.191,7.233a3.751,3.751,0,0,0,1.22.56,56.221,56.221,0,0,0,.8,6.1c.808,4.645,1.929,9.289,1.936,9.332a.613.613,0,0,0,.39.369.959.959,0,0,0,.206.035l.05.007c.248,0,.411-.142.369-.333a106.562,106.562,0,0,1-2.737-15.472,2.453,2.453,0,0,0,.631-.213c1.184-.624,1.688-2.3.936-3.155A1.649,1.649,0,0,0,10.46,9.66a2.046,2.046,0,0,0-.355.028c-.4.064-1.085.177-1.007,3.085a1.919,1.919,0,0,1-.6-.291c-2.212-1.51-.624-5.063.177-6.3.1-.163-.028-.4-.291-.525a.689.689,0,0,0-.326-.078m2.049,7.07c-.028-1.319.113-2.134.475-2.227a.7.7,0,0,1,.156-.014l.106.014.05.028c.362.411.064,1.688-.787,2.2" transform="translate(38.707 33.965)"/>
        <path id="Path_1022122" data-name="Path 1022122" d="M8.651,28.81a.187.187,0,0,1-.092-.014A102,102,0,0,0,11.211,13.31l.014-.269-.269-.05a2.122,2.122,0,0,1-.532-.17A2.254,2.254,0,0,1,9.3,11.289,1.233,1.233,0,0,1,10.58,9.708a2.18,2.18,0,0,1,.3.021c.269.043.823.128.773,2.787l-.014.411.4-.121a2.443,2.443,0,0,0,.674-.347c2.4-1.659.716-5.41-.135-6.715l.007.007.149-.092a.46.46,0,0,1,.206-.05l.092.014c.113.184,3,4.694-.071,6.814a3.286,3.286,0,0,1-1.106.511l-.22.057-.014.22a56.906,56.906,0,0,1-.752,6.077c-.752,4.538-1.822,9.133-1.865,9.324a.374.374,0,0,1-.2.163l-.135.021ZM10.3,9.849a.5.5,0,0,0-.213.035l-.064.021-.085.071a1.226,1.226,0,0,0-.22,1.042,2.414,2.414,0,0,0,1.071,1.631l.454.262.007-.518c.014-1.631-.191-2.383-.723-2.524a1.893,1.893,0,0,0-.227-.021" transform="translate(52.132 34.166)" fill="#fff"/>
        <path id="Path_1022123" data-name="Path 1022123" d="M13.179,5.566a.737.737,0,0,0-.333.078c-.262.128-.383.362-.284.532.808,1.234,2.425,4.772.227,6.3a2.5,2.5,0,0,1-.6.3c.057-2.914-.631-3.021-1.028-3.085a2.99,2.99,0,0,0-.347-.028,1.677,1.677,0,0,0-1.269.532c-.737.858-.227,2.531.971,3.141a1.941,1.941,0,0,0,.631.206,106.247,106.247,0,0,1-2.624,15.5c-.05.184.113.326.362.326h.057a1.061,1.061,0,0,0,.206-.043.617.617,0,0,0,.383-.369c.014-.043,1.1-4.7,1.872-9.346a57.6,57.6,0,0,0,.759-6.112,3.761,3.761,0,0,0,1.213-.553c3.3-2.3.269-7.041.142-7.24a.4.4,0,0,0-.34-.142m-2,7.084c-.858-.511-1.156-1.773-.8-2.191l.05-.028.106-.014a.665.665,0,0,1,.156.014c.355.092.511.9.489,2.219" transform="translate(51.886 33.905)"/>
        <path id="Path_1022124" data-name="Path 1022124" d="M7.176,10.563l.4-.333a7.426,7.426,0,0,1,9.41-.043l.4.333.071,16.812-10.218.043ZM12.31,8.932a7.016,7.016,0,0,0-4.467,1.61l-.255.213.064,16.21,9.4-.035L16.99,10.712l-.262-.206A7,7,0,0,0,12.31,8.932" transform="translate(43.708 51.946)" fill="#fff"/>
        <path id="Path_1022125" data-name="Path 1022125" d="M12.566,8.485a7.707,7.707,0,0,0-4.921,1.766l-.511.433L7.2,27.942,18.026,27.9l-.071-17.259-.518-.418a7.653,7.653,0,0,0-4.871-1.737M8.2,26.928,8.141,11.151l.156-.121A6.689,6.689,0,0,1,16.8,11l.149.121.064,15.77Z" transform="translate(43.452 51.684)"/>
        <rect id="Rectangle_456759" data-name="Rectangle 456759" width="36.872" height="4.396" rx="0.134" transform="translate(37.499 87.462)" fill="#fff"/>
        <path id="Path_1022126" data-name="Path 1022126" d="M41.46,12.9a.648.648,0,0,1,.645.645v2.5a.648.648,0,0,1-.645.645H6.488a.642.642,0,0,1-.638-.645v-2.5a.642.642,0,0,1,.638-.645Zm0-.6H6.488a1.235,1.235,0,0,0-1.241,1.248v2.5a1.235,1.235,0,0,0,1.241,1.248H41.46a1.241,1.241,0,0,0,1.248-1.248v-2.5a1.241,1.241,0,0,0-1.248-1.248" transform="translate(31.959 74.878)"/>
        <rect id="Rectangle_456760" data-name="Rectangle 456760" width="36.872" height="4.396" rx="0.134" transform="translate(37.499 83.159)" fill="#fff"/>
        <path id="Path_1022127" data-name="Path 1022127" d="M41.46,12.288a.648.648,0,0,1,.645.645v2.5a.643.643,0,0,1-.645.645H6.488a.637.637,0,0,1-.638-.645v-2.5a.642.642,0,0,1,.638-.645Zm0-.6H6.488a1.239,1.239,0,0,0-1.241,1.248v2.5a1.245,1.245,0,0,0,1.241,1.255H41.46a1.251,1.251,0,0,0,1.248-1.255v-2.5a1.245,1.245,0,0,0-1.248-1.248" transform="translate(31.959 71.174)"/>
        <path id="Rectangle_456761" data-name="Rectangle 456761" d="M.134,0h36.6a.134.134,0,0,1,.134.134V4.255a.134.134,0,0,1-.134.134H.133A.133.133,0,0,1,0,4.256V.134A.134.134,0,0,1,.134,0Z" transform="translate(37.499 78.859)" fill="#fff"/>
        <path id="Path_1022128" data-name="Path 1022128" d="M41.46,11.681a.648.648,0,0,1,.645.645v2.5a.649.649,0,0,1-.645.652H6.488a.643.643,0,0,1-.638-.652v-2.5a.642.642,0,0,1,.638-.645Zm0-.6H6.488a1.239,1.239,0,0,0-1.241,1.248v2.5A1.235,1.235,0,0,0,6.488,16.07H41.46a1.241,1.241,0,0,0,1.248-1.248v-2.5a1.245,1.245,0,0,0-1.248-1.248" transform="translate(31.959 67.477)"/>
        <path id="Path_1022129" data-name="Path 1022129" d="M8.36,17.331a2.194,2.194,0,0,1-2.191-2.2V12.942H30.547v2.191a2.2,2.2,0,0,1-2.2,2.2Z" transform="translate(37.574 78.831)" fill="#fff"/>
        <path id="Path_1022130" data-name="Path 1022130" d="M30.505,13.5v1.9A1.9,1.9,0,0,1,28.612,17.3H8.623A1.9,1.9,0,0,1,6.73,15.4V13.5Zm.6-.6H6.127v2.5a2.5,2.5,0,0,0,2.5,2.5H28.612a2.5,2.5,0,0,0,2.5-2.5Z" transform="translate(37.319 78.569)"/>
        <path id="Path_1022131" data-name="Path 1022131" d="M14.449,139.5V101.937a6.774,6.774,0,0,1,1.014.56A15.5,15.5,0,0,0,37.04,98.186a15.844,15.844,0,0,0,1.17-15.224c-2.227-5.283-7.878-8.835-14.068-8.835a15.351,15.351,0,0,0-8.679,2.652,6.146,6.146,0,0,1-1.014.546V40.02H51.768l-.177-.4a5.177,5.177,0,0,0-.475-.851,15.623,15.623,0,0,1-2.68-8.786,15.273,15.273,0,0,1,8.991-14.338,17.3,17.3,0,0,1,6.793-1.425,15.58,15.58,0,0,1,8.665,2.624A15.736,15.736,0,0,1,77.26,38.765a6.776,6.776,0,0,0-.475.851l-.184.4h37.333V139.5Z" transform="translate(88.007 86.59)" fill="#fff"/>
        <path id="Path_1022132" data-name="Path 1022132" d="M64.456,14.75a15.472,15.472,0,0,1,12.82,24.1,6.626,6.626,0,0,0-.511.886l-.362.815h37.489v98.91H14.983V102.641a4.229,4.229,0,0,1,.567.333,15.6,15.6,0,0,0,8.8,2.687,15.8,15.8,0,0,0,13.175-7.07,16.178,16.178,0,0,0,1.2-15.5c-2.276-5.382-8.034-9.005-14.338-9.005a15.706,15.706,0,0,0-8.835,2.695,5.217,5.217,0,0,1-.567.34V40.554H52.459l-.355-.808a5.683,5.683,0,0,0-.5-.893,15.333,15.333,0,0,1-2.631-8.63,15,15,0,0,1,8.814-14.075,17.018,17.018,0,0,1,6.672-1.4m.007-.574a17.7,17.7,0,0,0-6.907,1.447c-5.573,2.34-9.161,8.062-9.161,14.6a15.878,15.878,0,0,0,2.737,8.942,4.815,4.815,0,0,1,.447.815H14.409V77.994l.184-.078a5.6,5.6,0,0,0,1.276-.659,15.1,15.1,0,0,1,8.516-2.6c6.077,0,11.622,3.475,13.806,8.651A15.612,15.612,0,0,1,37.05,98.274a15.234,15.234,0,0,1-12.7,6.821,15.073,15.073,0,0,1-8.481-2.6,6.264,6.264,0,0,0-1.276-.667,1.97,1.97,0,0,0-.184-.071v38.269H114.468V39.98H77.291a6.116,6.116,0,0,1,.454-.815A16.038,16.038,0,0,0,64.463,14.176" transform="translate(87.763 86.347)"/>
        <path id="Path_1022133" data-name="Path 1022133" d="M113.073,141.485V41.426H75.9a6.514,6.514,0,0,1,.454-.808A16.046,16.046,0,0,0,71.9,18.288a16.407,16.407,0,0,0-15.735-1.22c-5.566,2.347-9.154,8.062-9.154,14.607a15.9,15.9,0,0,0,2.723,8.942,5.089,5.089,0,0,1,.454.808H13.014V79.44l.184-.071a5.93,5.93,0,0,0,1.276-.667,15.1,15.1,0,0,1,8.516-2.6c6.077,0,11.629,3.482,13.806,8.658A15.6,15.6,0,0,1,35.655,99.72a15.225,15.225,0,0,1-12.7,6.821,15.067,15.067,0,0,1-8.481-2.588,5.961,5.961,0,0,0-1.276-.674l-.184-.071v38.276Z" transform="translate(79.266 95.175)" fill="#354598"/>
        <path id="Path_1022134" data-name="Path 1022134" d="M49.991,60.165c.071-.511.206-1.269.376-2.227a64.674,64.674,0,0,0,.425-18.968c-.206-1.751-.411-3.609-.56-5.183v-.014a37.647,37.647,0,0,0-1.22-6.807C45.574,14.6,37.206,13.387,32.867,12.614,12.672,8.977,2.078,22.478,3.738,36.276a38.3,38.3,0,0,1,.291,3.879,19.188,19.188,0,0,1-.291,3.978c-.014.284-.014.581-.014.858s-.014.525-.014.773v.014A97.014,97.014,0,0,0,5.326,61.257c.581,4.418-2.808,5.623-2.808,5.623C14.707,77.013,48.013,75.468,52.8,65.8c0,0-3.389-1.213-2.808-5.63" transform="translate(15.337 73.174)"/>
        <path id="Path_1022135" data-name="Path 1022135" d="M18.788,12.76C3.848,14.554,3.046,22.184,3.8,26.935c.773,4.836.979,13.785,2.5,17.833C9.251,52.611,12.974,53.2,17.81,57.66c1.205,1.113,4.425,1.815,6.708,1.624a7.652,7.652,0,0,0,5.864-3.134c3.815-5.361,8.062-8.814,8.438-16.671.206-4.318-1.709-11.622-2.113-16.5-.4-4.793-2.978-12.019-17.919-10.218" transform="translate(21.97 76.006)" fill="#fff"/>
        <path id="Path_1022136" data-name="Path 1022136" d="M37.452,23.281C36.771,15.027,30.4,11.333,19.079,12.7c-6.58.787-11.133,2.8-13.536,5.978a11.024,11.024,0,0,0-1.8,8.658c.269,1.659.468,3.815.674,6.1.39,4.269.837,9.112,1.851,11.806,2.163,5.765,4.793,7.722,7.835,9.991a45.956,45.956,0,0,1,3.779,3.056c1.234,1.149,4.106,1.766,6.169,1.766.291,0,.574-.014.844-.035a8.05,8.05,0,0,0,6.155-3.3c.787-1.113,1.6-2.141,2.4-3.148,2.985-3.8,5.815-7.4,6.112-13.742a51.658,51.658,0,0,0-1.12-9.814c-.425-2.461-.83-4.779-.986-6.736m1.3,16.515c-.284,6.091-2.907,9.424-5.942,13.281-.794,1.007-1.617,2.049-2.418,3.177a7.3,7.3,0,0,1-5.573,2.964,6.813,6.813,0,0,1-.773.035c-2.219,0-4.687-.681-5.63-1.553a44.766,44.766,0,0,0-3.843-3.113C11.514,52.3,9.1,50.5,7.011,44.965c-.971-2.6-1.411-7.382-1.794-11.6-.213-2.3-.411-4.467-.681-6.155a10.268,10.268,0,0,1,1.645-8.048c2.269-3,6.644-4.9,13-5.673a38.126,38.126,0,0,1,4.333-.277c8.162,0,12.586,3.411,13.132,10.14.17,1.993.574,4.325,1,6.793A51.06,51.06,0,0,1,38.757,39.8" transform="translate(21.629 75.668)"/>
        <path id="Path_1022137" data-name="Path 1022137" d="M31.317,15.948S19.2,6.872,9.151,15.083,4.968,39.249,4.968,39.249a19.235,19.235,0,0,1,6.4-4c-.886-7.389,2.063-10.182,2.063-10.182a32.676,32.676,0,0,0,.191,9,51.1,51.1,0,0,0,5.687-.681l1.035-2.517,1.106,2.255,5.105-.617a13.156,13.156,0,0,1,.482-5.063,15.69,15.69,0,0,1,1.659,5.3c7.92-.95,10.913,1.617,10.913,1.617,2.375-17.642-8.289-18.408-8.289-18.408" transform="translate(19.879 70.932)"/>
        <path id="Path_1022138" data-name="Path 1022138" d="M31.793,15.906c-.794-.574-6.226-4.318-12.756-4.318a15.147,15.147,0,0,0-9.821,3.531c-10.161,8.3-4.368,24.456-4.3,24.612a.387.387,0,0,0,.284.248l.092.014a.421.421,0,0,0,.269-.1,19.128,19.128,0,0,1,6.254-3.921.406.406,0,0,0,.277-.433c-.532-4.382.333-7.105,1.071-8.544a35.1,35.1,0,0,0,.39,7.474.367.367,0,0,0,.4.34,48.661,48.661,0,0,0,5.751-.688.44.44,0,0,0,.3-.241l.7-1.695.709,1.461a.385.385,0,0,0,.4.213l5.113-.61a.422.422,0,0,0,.277-.156.446.446,0,0,0,.071-.312,10.748,10.748,0,0,1,.206-3.808,15.7,15.7,0,0,1,1.142,4.155.377.377,0,0,0,.142.269.428.428,0,0,0,.3.085,28.7,28.7,0,0,1,3.311-.206c5.169,0,7.268,1.709,7.289,1.73a.394.394,0,0,0,.4.064.411.411,0,0,0,.255-.319c.922-6.885.021-12.069-2.7-15.408a9.27,9.27,0,0,0-5.836-3.439m7.821,18.1a14.436,14.436,0,0,0-7.233-1.532,28,28,0,0,0-3.014.17,16.667,16.667,0,0,0-1.652-5.056.421.421,0,0,0-.4-.206.406.406,0,0,0-.347.277,14.061,14.061,0,0,0-.546,4.843l-4.418.532-.979-2a.4.4,0,0,0-.73.021l-.957,2.3c-.766.128-3.368.553-5.056.631a31.413,31.413,0,0,1-.142-8.523.39.39,0,0,0-.213-.411.378.378,0,0,0-.461.064c-.128.113-3,2.929-2.219,10.2a20.16,20.16,0,0,0-5.779,3.567C4.571,36,1.061,22.82,9.726,15.743a14.341,14.341,0,0,1,9.31-3.347c6.644,0,12.31,4.177,12.359,4.219a.485.485,0,0,0,.213.078A8.424,8.424,0,0,1,37,19.849c2.489,3.07,3.368,7.821,2.609,14.16" transform="translate(19.552 70.584)"/>
        <path id="Path_1022139" data-name="Path 1022139" d="M5.805,20.935l.113.787c.269-.035,6.672-.971,10.622-3.886l-.482-.645c-3.779,2.794-10.19,3.737-10.253,3.744" transform="translate(35.357 104.711)"/>
        <path id="Path_1022140" data-name="Path 1022140" d="M8.974,15.3A1.878,1.878,0,0,0,7,17.081a1.837,1.837,0,0,0,.234.979,6.6,6.6,0,0,1,3.517-.794A1.873,1.873,0,0,0,8.974,15.3" transform="translate(42.641 93.184)"/>
        <path id="Path_1022141" data-name="Path 1022141" d="M9.337,15.242H9.224A2.275,2.275,0,0,0,6.947,17.4,2.211,2.211,0,0,0,7.231,18.6a.393.393,0,0,0,.347.213.414.414,0,0,0,.184-.043,6.011,6.011,0,0,1,2.787-.752l.333.007.142.007a.474.474,0,0,0,.468-.4,2.291,2.291,0,0,0-2.156-2.383m1.213,1.964a6.582,6.582,0,0,0-2.758.652,1.678,1.678,0,0,1-.043-.418,1.476,1.476,0,0,1,1.546-1.39,1.432,1.432,0,0,1,1.021.475,1.511,1.511,0,0,1,.347.688l-.113-.007" transform="translate(42.299 92.84)"/>
        <path id="Path_1022142" data-name="Path 1022142" d="M8.124,16.535H8.1c-.709.007-1.376.539-1.993,1.581a.409.409,0,0,0,.142.546.384.384,0,0,0,.213.057.4.4,0,0,0,.34-.2c.447-.752.908-1.177,1.3-1.184h.014a1.021,1.021,0,0,1,.745.482.411.411,0,0,0,.56.121.4.4,0,0,0,.121-.553,1.855,1.855,0,0,0-1.425-.851" transform="translate(36.903 100.715)"/>
        <path id="Path_1022143" data-name="Path 1022143" d="M6.511,16.127l.468.652a6.539,6.539,0,0,1,4.453-1.127,22.08,22.08,0,0,1,4.517,1.489l.34-.723A22.509,22.509,0,0,0,11.6,14.865a7.322,7.322,0,0,0-5.084,1.262" transform="translate(39.658 89.962)"/>
        <path id="Path_1022144" data-name="Path 1022144" d="M5.808,16.031A1.872,1.872,0,0,0,5.163,18.6a6.519,6.519,0,0,1,3.475-.95,1.859,1.859,0,0,0-2.829-1.624" transform="translate(29.816 96.022)"/>
        <path id="Path_1022145" data-name="Path 1022145" d="M5.944,16.015a2.222,2.222,0,0,0-1.035,1.4,2.286,2.286,0,0,0,.248,1.723.411.411,0,0,0,.355.206.687.687,0,0,0,.376-.149,5.811,5.811,0,0,1,3.1-.808.4.4,0,0,0,.4-.4A2.371,2.371,0,0,0,9.071,16.8a2.346,2.346,0,0,0-3.127-.78M5.7,18.376a1.472,1.472,0,0,1,2.68-1.163,1.5,1.5,0,0,1,.156.383,6.507,6.507,0,0,0-2.836.78" transform="translate(29.475 95.69)"/>
        <path id="Path_1022146" data-name="Path 1022146" d="M7.763,16.462a22.2,22.2,0,0,0-3.418,3.574l.645.482a21.418,21.418,0,0,1,3.276-3.439,6.554,6.554,0,0,1,4.46-1.1l.106-.8a7.341,7.341,0,0,0-5.07,1.283" transform="translate(26.465 92.201)"/>
        <path id="Path_1022147" data-name="Path 1022147" d="M9.469,11.753a12.066,12.066,0,0,0-1.5.248,3.071,3.071,0,0,0-.135,5.942C15.163,20.12,26.466,26.19,26.586,42.9c0,0,6-28.647-17.117-31.15" transform="translate(34.168 71.589)" fill="#354598"/>
        <path id="Path_1022148" data-name="Path 1022148" d="M22.383,11.652a14.287,14.287,0,0,1,1.645.269,3.373,3.373,0,0,1,.149,6.524c-8.048,2.39-20.471,9.062-20.6,27.42,0,0-6.587-31.469,18.8-34.213" transform="translate(17.113 70.973)" fill="#354598"/>
        <path id="Path_1022149" data-name="Path 1022149" d="M51.306,20.47H28.629C14.412,20.47.9,33.609.9,50.677V75.913H81.548V50.677c0-17.068-15.316-30.207-30.242-30.207" transform="translate(5.506 124.683)" fill="#354598"/>
        <path id="Path_1022150" data-name="Path 1022150" d="M5.168,20.47S7.26,57.754,15.244,57.754,22.81,20.47,22.81,20.47Z" transform="translate(31.478 124.683)" fill="#fff"/>
        <path id="Path_1022151" data-name="Path 1022151" d="M15.464,58.221C7.338,58.221,5.225,22.235,5.133,20.7a.251.251,0,0,1,.071-.184.27.27,0,0,1,.184-.078H23.03a.247.247,0,0,1,.248.248c.014,1.248.284,30.59-5.538,36.482a3.173,3.173,0,0,1-2.276,1.057M5.658,20.937c.206,3.347,2.5,36.773,9.807,36.773a2.683,2.683,0,0,0,1.915-.893c5.4-5.467,5.41-32.958,5.4-35.88Z" transform="translate(31.264 124.463)" fill="#18111f"/>
        <path id="Path_1022152" data-name="Path 1022152" d="M33.536,50.737c-3.6,9.02-34.717-9.835-28.7-27.754,1.837-5.46,11.381,4.474,15.933,8.892,13.373,12.99,13.827,16.2,12.764,18.862" transform="translate(24.78 130.26)" fill="#18111f"/>
        <path id="Path_1022153" data-name="Path 1022153" d="M29.609,53.546A15.029,15.029,0,0,1,24.581,52.5C15.122,49.022.43,36.23,4.833,23.119a2.358,2.358,0,0,1,1.652-1.7c3.205-.773,9.488,5.389,13.636,9.459l1.057,1.035C34.835,45.178,35.1,48.32,34.005,51.043c-.659,1.659-2.191,2.5-4.4,2.5M7.1,21.849a2.2,2.2,0,0,0-.489.057,1.836,1.836,0,0,0-1.291,1.376c-4.3,12.8,10.14,25.321,19.443,28.732,4.545,1.673,7.828,1.241,8.778-1.156.986-2.461.7-5.559-12.707-18.585-.333-.319-.681-.674-1.064-1.035C16.15,27.685,10.208,21.849,7.1,21.849m26.676,29.1h0Z" transform="translate(24.544 130.047)" fill="#18111f"/>
        <path id="Path_1022154" data-name="Path 1022154" d="M37.107,17.47c-1.964.284-21.379,9.112-21.379,9.112a28.57,28.57,0,0,0-4.354-6.3c-2.723-2.907-5.439-.752-4.127,1.021a16.083,16.083,0,0,1,2.907,7.41c.277,2.815-1.475,7.027-1.291,10.778s-5.006,24.9-5.006,24.9L20.621,74.417S18.77,45.954,21.209,43.8s7.665-2.609,10.289-5.417.581-4.893.581-4.893a4.114,4.114,0,0,0,.659-4.588c1.723-4.694-.61-4.481-.61-4.481a23.422,23.422,0,0,0,6.176-4.325c1.468-1.787,0-2.794-1.2-2.624" transform="translate(23.499 106.297)" fill="#fff"/>
        <path id="Path_1022155" data-name="Path 1022155" d="M20.841,74.881a.219.219,0,0,1-.128-.035L3.943,64.812a.249.249,0,0,1-.113-.277c.05-.206,5.183-21.152,5-24.825a24.872,24.872,0,0,1,.716-5.956,17.494,17.494,0,0,0,.574-4.808,15.747,15.747,0,0,0-2.858-7.282,1.691,1.691,0,0,1,.227-2.383c.893-.745,2.624-.745,4.283,1.035a29.217,29.217,0,0,1,4.29,6.155c2.262-1.028,19.337-8.764,21.23-9.034a1.907,1.907,0,0,1,1.929.815c.2.362.4,1.12-.5,2.219a22.909,22.909,0,0,1-5.666,4.084,1.341,1.341,0,0,1,.4.362c.581.745.5,2.156-.227,4.184a4.392,4.392,0,0,1-.6,4.609c.447.6,1.574,2.581-.73,5.056-1.482,1.581-3.709,2.418-5.864,3.226A14.652,14.652,0,0,0,21.6,44.2c-1.922,1.7-1.014,22.535-.511,30.42a.23.23,0,0,1-.121.227.219.219,0,0,1-.128.035M4.362,64.479l16.2,9.693c-.284-4.545-1.652-28.264.7-30.349a14.778,14.778,0,0,1,4.6-2.3c2.106-.794,4.276-1.6,5.673-3.106,2.432-2.6.659-4.46.589-4.538a.248.248,0,0,1,0-.355,3.886,3.886,0,0,0,.61-4.3.294.294,0,0,1-.007-.206c.908-2.5.6-3.453.34-3.8a.873.873,0,0,0-.695-.333h-.021A.264.264,0,0,1,32.1,24.7a.258.258,0,0,1,.135-.291,23.472,23.472,0,0,0,6.1-4.255c.525-.638.688-1.227.447-1.652a1.411,1.411,0,0,0-1.418-.567c-1.525.22-14.607,6.048-21.315,9.1a.249.249,0,0,1-.326-.121,28.282,28.282,0,0,0-4.311-6.247c-1.447-1.539-2.879-1.6-3.6-.993a1.2,1.2,0,0,0-.142,1.7A16.222,16.222,0,0,1,10.623,28.9a18.137,18.137,0,0,1-.581,4.956,24.071,24.071,0,0,0-.7,5.829c.177,3.609-4.432,22.584-4.978,24.8" transform="translate(23.278 106.08)" fill="#18111f"/>
        <path id="Path_1022156" data-name="Path 1022156" d="M17.851,21.611,1.932,68.957h36.8l7.814-19.592c-33.362-12.693-28.7-27.754-28.7-27.754" transform="translate(11.768 131.632)" fill="#354598"/>
        <path id="Path_1022157" data-name="Path 1022157" d="M38.949,69.423H2.148a.252.252,0,0,1-.206-.1.276.276,0,0,1-.035-.234L17.826,21.752a.259.259,0,0,1,.326-.163.24.24,0,0,1,.156.312c-.043.156-4.162,15,28.548,27.442a.264.264,0,0,1,.142.135.242.242,0,0,1,0,.2L39.183,69.267a.249.249,0,0,1-.234.156M2.5,68.92H38.779l7.658-19.195c-17.124-6.559-24-13.763-26.747-18.656a14.971,14.971,0,0,1-2.1-7.027Z" transform="translate(11.545 131.421)" fill="#18111f"/>
        <path id="Path_1022158" data-name="Path 1022158" d="M33.592,46.666l-.05-.007C8.476,41.646,3.527,24.075,3.477,23.9a.255.255,0,0,1,.177-.312.251.251,0,0,1,.3.177C4.009,23.94,8.9,41.22,33.642,46.17a.252.252,0,0,1,.2.3.258.258,0,0,1-.248.2" transform="translate(21.128 143.606)" fill="#18111f"/>
        <path id="Path_1022159" data-name="Path 1022159" d="M7.188,21.776a.241.241,0,0,1-.227-.142.266.266,0,0,1,.121-.34l6.176-2.872a.249.249,0,0,1,.333.121.258.258,0,0,1-.121.333L7.294,21.755l-.106.021" transform="translate(42.264 112.067)" fill="#18111f"/>
        <path id="Path_1022160" data-name="Path 1022160" d="M7.279,22.209a.261.261,0,0,1-.255-.234.253.253,0,0,1,.241-.262,8.655,8.655,0,0,0,6.006-2.581.251.251,0,0,1,.355-.05.256.256,0,0,1,.035.355c-.071.1-1.964,2.468-6.368,2.773Z" transform="translate(42.776 115.91)" fill="#18111f"/>
        <path id="Path_1022161" data-name="Path 1022161" d="M7.42,22.01a.252.252,0,0,1-.014-.5,6.354,6.354,0,0,0,4.3-1.744.249.249,0,0,1,.355-.021.255.255,0,0,1,.028.355A6.769,6.769,0,0,1,7.428,22.01Z" transform="translate(43.683 119.852)" fill="#18111f"/>
        <path id="Path_1022162" data-name="Path 1022162" d="M64.913,41.187c-8.58,0-5.68,8.062-15.274,20.613-.5.652-2.368,2.879-2.822,3.5C42.2,58.9,37.038,51.766,36.258,48.029,34.769,40.8,34.174,35.755,32.841,32.9s-3.333-8.084-5.5-11.289c-.815-1.205-1.9-3.985-3.063-2.631-1.929,2.255.135,6.353.993,8.289a31.611,31.611,0,0,0,3.127,4.886A7.31,7.31,0,0,0,25.168,30.3c-3.042-.865-3.6-.766-4.375.319s-.269,3.134-1.347,3.709c-1.461.794-.943,3.439-.943,3.439a5.577,5.577,0,0,0,.163,4.091c.638,1.347,1.737,2.127,3.787,2.468,1.482.255-1.326,5.3,1.2,6.63,7.729,4.056,8.318,39.886,20.181,39.886,6.836,0,14.855-4.886,22.7-20.329,8.587-16.9,7.772-29.328-1.624-29.328" transform="translate(110.778 113.382)" fill="#fff"/>
        <path id="Path_1022163" data-name="Path 1022163" d="M65.225,41.132c-5.219,0-6.4,2.9-8.36,7.686a51.065,51.065,0,0,1-7.2,13.068c-.227.3-.737.929-1.269,1.574-.468.567-.936,1.149-1.262,1.56-4.446-6.183-9.473-13.168-10.218-16.749-.447-2.191-.823-4.2-1.156-5.978-.773-4.184-1.333-7.2-2.29-9.232-.333-.73-.723-1.617-1.142-2.581a59.112,59.112,0,0,0-4.382-8.764c-.163-.234-.333-.546-.518-.865-.617-1.071-1.312-2.29-2.2-2.29a1.181,1.181,0,0,0-.908.489c-1.964,2.3-.2,6.2.752,8.3l.177.4a22.414,22.414,0,0,0,1.837,3.12,8.455,8.455,0,0,0-1.517-.6,12.006,12.006,0,0,0-2.914-.589,2.036,2.036,0,0,0-1.837,1.042,4.205,4.205,0,0,0-.6,1.971c-.1.752-.191,1.4-.624,1.638-1.51.815-1.241,3.191-1.149,3.737a5.876,5.876,0,0,0,.206,4.283c.709,1.5,1.957,2.326,4.056,2.68.277.05.128,1.042,0,1.851-.248,1.624-.589,3.85,1.1,4.737,3.163,1.666,5.155,9.183,7.261,17.146,2.957,11.2,6.02,22.79,13.076,22.79,8.353,0,16.1-6.914,23.024-20.542,5.807-11.423,7.523-21.28,4.6-26.35a7.1,7.1,0,0,0-6.545-3.524m1.312,29.526C59.744,84.018,52.213,90.8,44.144,90.8c-6.509,0-9.636-11.813-12.388-22.23-2.149-8.133-4.177-15.813-7.63-17.621-1.213-.645-.943-2.4-.7-3.957.2-1.3.39-2.546-.6-2.709-1.865-.312-2.921-.986-3.517-2.269a5.18,5.18,0,0,1-.163-3.772l.043-.106-.021-.106c-.007-.028-.44-2.39.766-3.042.759-.411.879-1.319,1-2.191a3.835,3.835,0,0,1,.461-1.631,1.374,1.374,0,0,1,1.269-.737,11.06,11.06,0,0,1,2.73.567,7.154,7.154,0,0,1,3.063,1.737l.539-.489a31.184,31.184,0,0,1-3.085-4.815l-.184-.4c-.872-1.943-2.51-5.545-.865-7.481a.548.548,0,0,1,.376-.234c.482,0,1.142,1.156,1.581,1.922.191.34.376.667.546.915a57.714,57.714,0,0,1,4.311,8.637c.433.979.815,1.865,1.163,2.6.908,1.943,1.461,4.928,2.234,9.048.326,1.78.695,3.794,1.156,5.992.78,3.758,5.666,10.551,10.4,17.117l.5.7.291-.4c.241-.326.9-1.127,1.539-1.907.532-.659,1.049-1.291,1.276-1.588a52.672,52.672,0,0,0,7.3-13.246c1.907-4.659,2.957-7.226,7.7-7.226a6.352,6.352,0,0,1,5.928,3.155c2.794,4.85,1.071,14.423-4.616,25.619" transform="translate(110.465 113.061)"/>
        <path id="Path_1022164" data-name="Path 1022164" d="M22.206,20.691l.106.752a3,3,0,0,1,3.077,1.489,1.566,1.566,0,0,1,.121,1.631c-.39.532-1.39.617-2.744.234-3.836-1.092-3.645-3.553-3.631-3.666l-.723-.078c-.021.128-.3,3.205,4.162,4.481a6,6,0,0,0,1.659.269,2.117,2.117,0,0,0,1.851-.78,2.3,2.3,0,0,0-.071-2.489,3.692,3.692,0,0,0-3.808-1.844" transform="translate(112.081 125.73)" fill="#18111f"/>
        <path id="Path_1022165" data-name="Path 1022165" d="M25.041,22.259c.156.425.461,1.631-.021,2.191-.362.418-1.177.461-2.354.128a5.267,5.267,0,0,1-3.779-3.29l-.7.213a5.989,5.989,0,0,0,4.3,3.815,5.662,5.662,0,0,0,1.532.248,1.947,1.947,0,0,0,1.553-.61c.879-1.021.191-2.893.156-2.971Z" transform="translate(110.756 129.665)" fill="#18111f"/>
        <path id="Path_1022166" data-name="Path 1022166" d="M21.968,19.626c-1.22-.362-3.68,2.1-2.695,4.8,2.063,5.687-2.851,9.431,2.106,15.579l5.141-8.14s-1.617-5.829-2.127-6.878-1.78-5.169-2.425-5.361" transform="translate(116.006 119.329)" fill="#fff"/>
        <path id="Path_1022167" data-name="Path 1022167" d="M24.386,23.517c-1.035-2.765-1.5-3.772-2.007-3.928A2.406,2.406,0,0,0,20.111,20.6a4.273,4.273,0,0,0-.865,4.276,11.214,11.214,0,0,1,.149,6.2c-.489,2.836-.986,5.772,2.021,9.495l.546-.482C19.175,36.635,19.621,34,20.1,31.21a11.968,11.968,0,0,0-.184-6.6,3.516,3.516,0,0,1,.73-3.5c.574-.659,1.213-.9,1.5-.808a15.586,15.586,0,0,1,1.567,3.5c.269.723.5,1.347.667,1.681.39.808,1.546,4.815,2.106,6.821l.688-.213c-.071-.234-1.631-5.878-2.149-6.942-.156-.3-.376-.915-.638-1.624" transform="translate(115.7 119.005)"/>
        <path id="Path_1022168" data-name="Path 1022168" d="M78.121,21.641c-5.219,0-15.408,9.608-11.282,17.068,0,0,9.438,13.558,7.63,14.749-8.424,5.524-20.478,19.457-23.357,21.8-4.893,3.992-15.735-2.361-19.237,2.8s-6.963,5.772-6.963,10.218c0,3.8,12.083,4.928,13.77,1.929,1.468-2.617,4.4-3.886,12.232-5.105,2.453-.383,2.581.2,6.389-2.184,6.063-3.794,28.711-11.076,32.59-24.279,1.773-6.02-4.453-37-11.771-37" transform="translate(151.729 131.815)" fill="#fff"/>
        <path id="Path_1022169" data-name="Path 1022169" d="M78.431,21.588c-3.446,0-8.622,3.879-11.069,8.3-1.3,2.347-2.446,5.871-.5,9.36,3.3,4.737,8.091,12.4,7.779,14.1a.174.174,0,0,1-.057.113C68.731,57.3,61.123,65.19,56.088,70.416c-2.248,2.319-4.013,4.162-4.886,4.864a7.216,7.216,0,0,1-4.772,1.326,40.437,40.437,0,0,1-4.545-.369,39.4,39.4,0,0,0-4.446-.369c-1.716,0-4.162.241-5.552,2.3a26.852,26.852,0,0,1-3.779,4.354C26.292,84.3,24.86,85.7,24.86,88.6c0,2.773,5.105,4.013,8.736,4.013,1.4,0,4.737-.184,5.708-1.893,1.418-2.539,4.333-3.73,11.976-4.928.532-.078.957-.113,1.333-.149,1.39-.113,2.156-.184,5.183-2.085a67.239,67.239,0,0,1,6.183-3.1c9.353-4.382,23.513-11,26.562-21.386,1.517-5.183-2.475-26.832-7.984-34.6-1.354-1.915-2.744-2.886-4.127-2.886M89.855,58.85C86.9,68.912,72.929,75.45,63.682,79.776a64.277,64.277,0,0,0-6.254,3.141c-2.886,1.808-3.6,1.865-4.871,1.978-.39.035-.83.071-1.39.156-7.9,1.234-10.934,2.517-12.487,5.283-.525.943-2.475,1.532-5.084,1.532-3.872,0-8.02-1.312-8.02-3.269,0-2.574,1.205-3.751,3.021-5.531A27.42,27.42,0,0,0,32.476,78.6c.929-1.369,2.461-1.978,4.964-1.978a36.463,36.463,0,0,1,4.361.362,41.79,41.79,0,0,0,4.63.369,7.923,7.923,0,0,0,5.219-1.475c.9-.737,2.687-2.588,4.942-4.928,5.013-5.2,12.593-13.061,18.372-16.855a.881.881,0,0,0,.376-.61c.475-2.553-7.041-13.444-7.885-14.643-1.737-3.155-.674-6.41.532-8.58,2.581-4.673,7.58-7.928,10.445-7.928,1.142,0,2.34.872,3.56,2.588,5.276,7.452,9.317,28.994,7.864,33.93" transform="translate(151.419 131.492)"/>
        <path id="Path_1022170" data-name="Path 1022170" d="M35.482,30.946S23.7,48.063,23.7,65.131H87.919c0-9.906-4.793-29.342-10.466-36.922Z" transform="translate(144.335 171.82)"/>
        <path id="Path_1022171" data-name="Path 1022171" d="M23.7,65.131s41.623.652,55.706-36.922L35.483,30.946S23.7,48.063,23.7,65.131" transform="translate(144.341 171.82)"/>
        <path id="Path_1022172" data-name="Path 1022172" d="M38.889,18.835s-.312,10.2-8.388,13.912-6.254,13.586-2,13.586c0,0-.085,5.254,3.737,5.254s2.9-18.514,10.034-18.514c2.822,0,.709-13.3.709-13.3Z" transform="translate(151.501 114.724)"/>
        <path id="Path_1022173" data-name="Path 1022173" d="M81.286,25.431c-9.92,0-17.025-4.7-29.037-4.7-10.551,0-18.245,4.7-24.811,4.7-3.971,0-1.468,15.075-1.468,15.075C24,47.512,23.992,54.334,25.481,57.766c4.453,10.26-.652,15.99,3.085,20.868,2.432,3.177,39.106,4.489,46.5.128,2.765-1.624.9-2.716.9-7.162S77.5,51.249,77.5,47.817c0,0,5.488-22.386,3.787-22.386" transform="translate(148.748 126.266)" fill="#97b9fe"/>
        <path id="Path_1022174" data-name="Path 1022174" d="M53.143,82.2c-11.494,0-23.137-1.22-24.549-3.063-1.837-2.4-1.631-5.02-1.39-8.048a24.531,24.531,0,0,0-1.744-12.9c-1.6-3.694-1.418-10.679.461-17.408-.184-1.106-1.879-12,.425-14.721a1.768,1.768,0,0,1,1.39-.674c2.843,0,5.878-.893,9.4-1.922,4.432-1.3,9.473-2.78,15.416-2.78,6.332,0,11.26,1.283,16.032,2.531,4.276,1.113,8.325,2.17,13,2.17A.531.531,0,0,1,82,25.6c1.2,1.532-2.992,18.961-3.872,22.556-.007,1.652-.333,5.971-.688,10.544-.411,5.332-.837,10.849-.837,13.2a16.678,16.678,0,0,0,.4,3.517c.34,1.716.546,2.751-1.461,3.942-3.411,2.007-12.856,2.843-22.4,2.843m-.6-60.832c-5.85,0-10.828,1.461-15.224,2.751-3.567,1.042-6.644,1.943-9.587,1.943a1.132,1.132,0,0,0-.872.44c-2.177,2.567-.284,14.125-.262,14.238l.007.078-.021.071c-1.851,6.616-2.056,13.458-.5,17.032a25.194,25.194,0,0,1,1.787,13.224c-.241,3.007-.418,5.389,1.248,7.573,2.425,3.155,39.021,4.2,46.069.05,1.6-.936,1.468-1.56,1.142-3.219a17.212,17.212,0,0,1-.411-3.652c0-2.375.425-7.906.844-13.253.347-4.6.688-8.934.688-10.53l.007-.078c2.439-9.977,4.595-20.8,4.035-21.975-4.73-.007-8.793-1.071-13.1-2.184-4.723-1.234-9.608-2.51-15.855-2.51" transform="translate(148.457 125.974)" fill="#050817"/>
        <path id="Path_1022175" data-name="Path 1022175" d="M49.056,30.686S50.935,20.5,46.418,16.795,29.507,15.6,28.259,22.73c-.433,2.475-1.227,6.566-1.9,11.14-1.071,7.261,1.078,14.26,8.934,14.26,0,0,.383,5.105-1.035,7.913,0,0-.461,4.652,2.4,6.275.61.34,1.014,11.1,1.014,11.1s2.964-10.636,3.716-10.778c6.531-1.255,10.459-6.722,10.459-6.722s-2.39-2.773-2.39-14.77a8.012,8.012,0,0,0,3.319-5.233,4.041,4.041,0,0,0-3.723-5.233" transform="translate(158.982 91.968)" fill="#fff"/>
        <path id="Path_1022176" data-name="Path 1022176" d="M49.786,30.689c.3-1.943,1.347-10.438-2.829-13.87a9.794,9.794,0,0,0-6.141-1.773c-5.432,0-11.686,2.78-12.593,7.942-.1.574-.227,1.241-.355,1.978-.44,2.39-1.035,5.659-1.553,9.168-.723,4.921.05,9.055,2.191,11.657a8.615,8.615,0,0,0,6.758,3.028c.057,1.177.128,5.1-1.014,7.374l-.035.135c-.028.2-.447,4.857,2.531,6.609.326.695.7,5.992.879,10.821l.085,2.3.617-2.212c1.326-4.765,2.985-9.934,3.51-10.53a18.8,18.8,0,0,0,10.615-6.85l.17-.248L52.43,56c-.021-.028-2.269-2.879-2.3-14.316a8.66,8.66,0,0,0,3.311-5.354,4.72,4.72,0,0,0-.574-3.758,4.6,4.6,0,0,0-3.085-1.879m2.957,5.467A7.745,7.745,0,0,1,49.6,41.141l-.191.1v.227c0,10.2,1.723,13.834,2.3,14.763-.8,1.007-4.488,5.3-10.076,6.368-.22.043-.865.163-3.382,8.892-.4-8.778-.929-9.076-1.106-9.176-2.446-1.383-2.262-5.283-2.227-5.843,1.4-2.886,1.057-7.842,1.035-8.055l-.028-.34H35.6A8.06,8.06,0,0,1,29.045,45.3c-1.993-2.432-2.709-6.353-2.014-11.055.511-3.489,1.1-6.758,1.539-9.14.135-.745.255-1.4.355-1.985.808-4.588,6.68-7.332,11.891-7.332a9.084,9.084,0,0,1,5.694,1.617c4.29,3.517,2.524,13.43,2.51,13.529l-.078.4.383.043a4.02,4.02,0,0,1,2.957,1.617,3.96,3.96,0,0,1,.461,3.163" transform="translate(158.671 91.652)"/>
        <path id="Path_1022177" data-name="Path 1022177" d="M28.132,16.58l-.631.383c.333.61,1.078.7,2.014.823a6.535,6.535,0,0,1,3.439,1.205l.447-.61a7.235,7.235,0,0,0-3.8-1.347c-.709-.092-1.312-.17-1.468-.454" transform="translate(167.505 100.989)" fill="#18111f"/>
        <path id="Path_1022178" data-name="Path 1022178" d="M29.456,17.044a6.55,6.55,0,0,0-3.212,1.361l.447.61a5.744,5.744,0,0,1,2.893-1.22c.695-.121,1.3-.234,1.631-.837l-.631-.383c-.163.284-.482.347-1.127.468" transform="translate(159.848 100.965)" fill="#18111f"/>
        <path id="Path_1022179" data-name="Path 1022179" d="M27.837,17.625a1.6,1.6,0,0,0-1.049.979l.681.277c.007-.007.177-.44.511-.5.3-.064.723.206,1.2.745l.546-.511c-.674-.766-1.3-1.106-1.886-.993" transform="translate(163.162 107.226)" fill="#18111f"/>
        <path id="Path_1022180" data-name="Path 1022180" d="M28.1,17.347a.835.835,0,0,0,.021,1.17.8.8,0,0,0,1.142-.05.841.841,0,0,0-.021-1.17.789.789,0,0,0-1.142.05" transform="translate(169.781 104.016)" fill="#18111f"/>
        <path id="Path_1022181" data-name="Path 1022181" d="M28.156,17.392a1.3,1.3,0,0,0-.333.879,1.2,1.2,0,0,0,.369.837,1.145,1.145,0,0,0,.794.312,1.22,1.22,0,0,0,.865-.369,1.288,1.288,0,0,0,.326-.879,1.163,1.163,0,0,0-2.021-.78m1.163,1.12a.442.442,0,0,1-.631.028.4.4,0,0,1-.128-.291.459.459,0,0,1,.454-.475.39.39,0,0,1,.291.121.425.425,0,0,1,.142.3.476.476,0,0,1-.128.319" transform="translate(169.466 103.701)" fill="#18111f"/>
        <path id="Path_1022182" data-name="Path 1022182" d="M26.778,17.347a.848.848,0,0,0,.021,1.17.81.81,0,0,0,1.149-.05.848.848,0,0,0-.028-1.17.789.789,0,0,0-1.142.05" transform="translate(161.739 104.016)" fill="#18111f"/>
        <path id="Path_1022183" data-name="Path 1022183" d="M26.835,17.392a1.3,1.3,0,0,0-.333.879,1.264,1.264,0,0,0,.369.837,1.132,1.132,0,0,0,.794.312,1.179,1.179,0,0,0,.858-.369,1.236,1.236,0,0,0,.333-.886,1.2,1.2,0,0,0-.369-.83,1.18,1.18,0,0,0-1.652.057m1.17,1.12a.45.45,0,0,1-.638.028.4.4,0,0,1-.128-.291.437.437,0,0,1,.121-.326.472.472,0,0,1,.34-.149.43.43,0,0,1,.3.121.412.412,0,0,1,.128.3.438.438,0,0,1-.121.319" transform="translate(161.42 103.701)" fill="#18111f"/>
        <path id="Path_1022184" data-name="Path 1022184" d="M29.332,17.551l.1.752a1.922,1.922,0,0,1,1.468.454,2.279,2.279,0,0,1,.425,1.872l.723.078a2.922,2.922,0,0,0-.645-2.5,2.583,2.583,0,0,0-2.071-.659" transform="translate(178.657 106.783)" fill="#18111f"/>
        <path id="Path_1022185" data-name="Path 1022185" d="M29.241,19.243l.667.312a1.952,1.952,0,0,1,2.17-.929l.092-.752a2.613,2.613,0,0,0-2.929,1.369" transform="translate(178.103 108.678)" fill="#18111f"/>
        <path id="Path_1022186" data-name="Path 1022186" d="M74.127,60.175C65.257,57.09,64.909,56.2,63.335,48.709,62,42.426,65.952,22.537,53.642,22.537a14.853,14.853,0,0,0-9.714-7.8C31.292,11.652,23.96,21.849,26.81,32.315l.163-.248c1.071-1.553,7.218-9.757,16.55-8.665,0,0-3.531,13.246,3.709,12.934,6.524-.277,5.659,6.346,1.645,10.431,0,12,2.4,14.77,2.4,14.77l-.113.135c6.828,1.376,12.381,3.673,19.308,3.673.3,0,.376.688.3,1.815,2.163.4,4.212,3.432,5.97,7.63.319.184.489.277.489.277s5.97-.489,1.525-6.871c0,0,4.247-4.935-4.63-8.02" transform="translate(159.566 86.353)"/>
        <path id="Path_1022187" data-name="Path 1022187" d="M28.66,21.733h-.007a1.794,1.794,0,0,1-1.376-.936l-.581.454a2.475,2.475,0,0,0,1.957,1.241h.007c1.468,0,2.829-1.716,4.318-3.787l-.589-.461c-1.057,1.475-2.5,3.489-3.73,3.489" transform="translate(162.601 111.124)" fill="#18111f"/>
        <path id="Path_1022188" data-name="Path 1022188" d="M28.494,42.8c3.042,0,.879-19.315.879-19.315S25.452,42.8,28.494,42.8" transform="translate(166.511 143.071)"/>
        <path id="Path_1022189" data-name="Path 1022189" d="M29.73,57.352c3.425-.269-1.383-33.859-1.383-33.859S26.3,57.614,29.73,57.352" transform="translate(168.977 143.095)"/>
        <path id="Path_1022190" data-name="Path 1022190" d="M29.767,34.743a.285.285,0,0,1-.284-.213l-1.042-3.475a.877.877,0,0,0-.844-.617.856.856,0,0,0-.539.184l-2.851,2.219a.316.316,0,0,1-.184.071.329.329,0,0,1-.255-.135.278.278,0,0,1-.035-.269l1.191-3.418a.855.855,0,0,0-.106-.794.89.89,0,0,0-.716-.369l-3.645.121a.292.292,0,0,1-.3-.22.3.3,0,0,1,.113-.333L23.25,25.44a.9.9,0,0,0,.376-.73.875.875,0,0,0-.383-.716l-3-2.035a.3.3,0,0,1-.121-.34.3.3,0,0,1,.291-.206l3.623.078a.871.871,0,0,0,.844-1.17l-1.234-3.411a.278.278,0,0,1,.035-.269.327.327,0,0,1,.248-.135.291.291,0,0,1,.184.064l2.879,2.2a.9.9,0,0,0,.532.17.874.874,0,0,0,.844-.624l1-3.489a.307.307,0,0,1,.291-.213.287.287,0,0,1,.291.213L30.993,18.3a.874.874,0,0,0,.837.624.9.9,0,0,0,.532-.184l2.865-2.227a.246.246,0,0,1,.177-.071.317.317,0,0,1,.255.142.261.261,0,0,1,.035.262l-1.2,3.418a.876.876,0,0,0,.83,1.163l3.652-.121a.308.308,0,0,1,.3.213.3.3,0,0,1-.121.34l-2.978,2.063a.881.881,0,0,0-.376.723.893.893,0,0,0,.383.716l3,2.035a.3.3,0,0,1-.163.546l-3.631-.078a.888.888,0,0,0-.737.376.855.855,0,0,0-.106.794l1.234,3.411a.261.261,0,0,1-.035.269.3.3,0,0,1-.433.071l-2.879-2.191a.865.865,0,0,0-1.369.454l-1.007,3.475a.287.287,0,0,1-.291.22" transform="translate(122.488 89.002)" fill="#fff"/>
        <path id="Path_1022191" data-name="Path 1022191" d="M29.909,14.572l.014.581,1.035,3.467a1.157,1.157,0,0,0,1.12.823,1.129,1.129,0,0,0,.709-.241L35.667,17l-1.191,3.418a1.147,1.147,0,0,0,.149,1.057,1.163,1.163,0,0,0,.943.489h.043l3.631-.1-2.985,2.063a1.209,1.209,0,0,0-.5.964,1.189,1.189,0,0,0,.511.957L39.262,27.9l-3.645-.085a1.162,1.162,0,0,0-1.092,1.56L35.73,32.8,32.852,30.6a1.146,1.146,0,0,0-.7-.234,1.17,1.17,0,0,0-1.12.837L30,34.689l-1.042-3.467a1.164,1.164,0,0,0-1.12-.83,1.136,1.136,0,0,0-.709.248L24.25,32.845l1.2-3.418a1.189,1.189,0,0,0-.149-1.057,1.176,1.176,0,0,0-.95-.489h-.035l-3.631.092,2.971-2.063a1.155,1.155,0,0,0,.5-.957,1.131,1.131,0,0,0-.511-.95l-2.992-2.063,3.652.078A1.156,1.156,0,0,0,25.4,20.465L24.187,17.04l2.886,2.191a1.133,1.133,0,0,0,.695.241,1.172,1.172,0,0,0,1.12-.837l1.007-3.489.014-.007Zm0,0a.582.582,0,0,0-.567.425l-1.007,3.475a.581.581,0,0,1-.567.425.56.56,0,0,1-.347-.121l-2.886-2.191a.565.565,0,0,0-.355-.121.589.589,0,0,0-.553.787l1.234,3.4a.591.591,0,0,1-.553.794h-.014l-3.623-.085h-.007a.586.586,0,0,0-.333,1.071l3,2.035a.593.593,0,0,1,.007.971l-2.978,2.063a.586.586,0,0,0,.333,1.071h.021l3.616-.121h.021a.585.585,0,0,1,.553.78l-1.191,3.425a.584.584,0,0,0,.915.652l2.858-2.219a.534.534,0,0,1,.355-.128.589.589,0,0,1,.567.418l1.042,3.467a.584.584,0,0,0,.567.418.568.568,0,0,0,.56-.425l1.007-3.475a.587.587,0,0,1,.567-.425.6.6,0,0,1,.355.113l2.886,2.2a.56.56,0,0,0,.347.121.583.583,0,0,0,.553-.787l-1.227-3.411a.585.585,0,0,1,.553-.787h.014l3.616.085h.014a.589.589,0,0,0,.326-1.078l-3-2.028a.6.6,0,0,1-.007-.971l2.978-2.063a.586.586,0,0,0-.326-1.071h-.021l-3.623.121h-.021a.585.585,0,0,1-.553-.78l1.2-3.425a.6.6,0,0,0-.56-.787.573.573,0,0,0-.355.128L32.44,18.756a.6.6,0,0,1-.362.121.589.589,0,0,1-.567-.418L30.469,14.99a.582.582,0,0,0-.56-.418" transform="translate(122.24 88.759)"/>
        <path id="Path_1022192" data-name="Path 1022192" d="M74.554,46.213c3.9,0,7.062-1.929,7.062-4.3V35.442c0-2.375-3.163-4.3-7.062-4.3H.5V46.213Z" transform="translate(3.027 189.66)" fill="#fff"/>
        <path id="Path_1022193" data-name="Path 1022193" d="M74.858,46.615H.8c-.2,0-.355-.1-.355-.213V31.32c0-.113.156-.213.355-.213H74.858c4.091,0,7.41,2.035,7.41,4.524v6.46c0,2.5-3.319,4.524-7.41,4.524M1.149,46.182H74.858c3.7,0,6.7-1.837,6.7-4.091v-6.46c0-2.255-3-4.084-6.7-4.084H1.149Z" transform="translate(2.723 189.471)" fill="#18111f"/>
        <path id="Path_1022194" data-name="Path 1022194" d="M77.581,30.986H0v2.156H35.263c2.914,0,5.29,1.447,5.29,3.226v6.46c0,1.78-2.375,3.233-5.29,3.233H0v2.156H77.581c4.871,0,8.821-2.418,8.821-5.389v-6.46c0-2.964-3.95-5.382-8.821-5.382" transform="translate(0 188.734)"/>
        <path id="Path_1022195" data-name="Path 1022195" d="M7.794,28.4C3.9,28.4.746,30.333.746,32.708v8.615c0,2.383,3.155,4.311,7.048,4.311H85.382V28.4Z" transform="translate(4.544 173.007)" fill="#fff"/>
        <path id="Path_1022196" data-name="Path 1022196" d="M85.687,46.037H8.1C4.015,46.037.7,44,.7,41.506V32.9c0-2.489,3.319-4.524,7.4-4.524H85.687c.206,0,.355.1.355.213V45.817c0,.121-.149.22-.355.22M8.1,28.807c-3.694,0-6.7,1.837-6.7,4.091v8.608C1.4,43.768,4.4,45.6,8.1,45.6H85.34V28.807Z" transform="translate(4.239 172.825)" fill="#18111f"/>
        <path id="Path_1022197" data-name="Path 1022197" d="M9.049,47.058C4.355,47.058.54,44.782.54,41.981V33.366c0-2.794,3.815-5.07,8.509-5.07H89.856v1.539H54.9c-3.085,0-5.595,1.581-5.595,3.531v8.615c0,1.957,2.51,3.538,5.595,3.538H89.856v1.539Z" transform="translate(3.289 172.35)" fill="#fff"/>
        <path id="Path_1022198" data-name="Path 1022198" d="M89.813,28.87v.922H55.16c-3.311,0-5.9,1.688-5.9,3.843V42.25c0,2.156,2.588,3.85,5.9,3.85H89.813v.922H9.311c-4.446,0-8.2-2.184-8.2-4.772V33.635c0-2.581,3.751-4.765,8.2-4.765h80.5Zm.617-.617H9.311C4.447,28.253.5,30.671.5,33.635V42.25c0,2.971,3.95,5.382,8.814,5.382H90.43V45.484H55.16c-2.921,0-5.29-1.454-5.29-3.233V33.635c0-1.773,2.368-3.226,5.29-3.226H90.43Z" transform="translate(3.027 172.088)"/>
        <path id="Path_1022199" data-name="Path 1022199" d="M49.149,1.794,47.27,9.1a1.918,1.918,0,0,1-2.858,1.156L37.966,6.333a1.909,1.909,0,0,0-2.34.269l-5.056,4.985a1.912,1.912,0,0,0-.3,2.333l3.836,6.5a1.909,1.909,0,0,1-1.2,2.836l-7.332,1.78A1.938,1.938,0,0,0,24.1,26.882l-.043,7.1a1.912,1.912,0,0,0,1.432,1.872L32.8,37.731a1.916,1.916,0,0,1,1.156,2.858l-3.928,6.438a1.909,1.909,0,0,0,.277,2.347l4.978,5.049a1.9,1.9,0,0,0,2.34.3l6.5-3.836A1.917,1.917,0,0,1,46.958,52.1l1.78,7.332a1.911,1.911,0,0,0,1.851,1.461l7.1.05a1.9,1.9,0,0,0,1.865-1.432L61.437,52.2a1.916,1.916,0,0,1,2.851-1.163l6.446,3.928a1.917,1.917,0,0,0,2.34-.269l5.056-4.978a1.924,1.924,0,0,0,.3-2.34l-3.836-6.5a1.919,1.919,0,0,1,1.2-2.836l7.332-1.78A1.9,1.9,0,0,0,84.6,34.412l.05-7.1a1.921,1.921,0,0,0-1.439-1.872l-7.3-1.879a1.924,1.924,0,0,1-1.163-2.858l3.928-6.438a1.92,1.92,0,0,0-.277-2.347L73.414,6.864a1.909,1.909,0,0,0-2.34-.3l-6.5,3.829A1.913,1.913,0,0,1,61.742,9.2l-1.78-7.332A1.915,1.915,0,0,0,58.119.4l-7.1-.05a1.915,1.915,0,0,0-1.872,1.439" transform="translate(146.552 2.165)" fill="#354598"/>
        <path id="Path_1022200" data-name="Path 1022200" d="M35.714,20.623A8.608,8.608,0,0,1,33.708,3.648a8.885,8.885,0,0,1,2.021-.234,8.6,8.6,0,0,1-.014,17.209" transform="translate(165.184 20.797)" fill="#fff"/>
        <path id="Path_1022201" data-name="Path 1022201" d="M35.985,3.947a8.333,8.333,0,1,1-1.95.234,8.578,8.578,0,0,1,1.95-.234m0-.574a8.9,8.9,0,1,0-.014,17.791,9.257,9.257,0,0,0,2.092-.248A8.9,8.9,0,0,0,35.985,3.373" transform="translate(164.927 20.547)"/>
      </g>
    </g>
  </g>
</svg>
