<svg xmlns="http://www.w3.org/2000/svg" xmlns:xlink="http://www.w3.org/1999/xlink" width="84" height="84" viewBox="0 0 84 84">
  <defs>
    <clipPath id="clip-path">
      <rect id="Rectangle_458778" data-name="Rectangle 458778" width="56.883" height="67.746" fill="none"/>
    </clipPath>
  </defs>
  <g id="img4" transform="translate(-319.955 -949)">
    <rect id="Rectangle_456660" data-name="Rectangle 456660" width="84" height="84" transform="translate(319.955 949)" fill="#ff9e74"/>
    <g id="Group_1183666" data-name="Group 1183666" transform="translate(332.955 957)">
      <g id="Group_1183665" data-name="Group 1183665" clip-path="url(#clip-path)">
        <path id="Path_1029722" data-name="Path 1029722" d="M20.1,11.521H37.283a2.03,2.03,0,0,0,2.03-2.029V6.271a2.03,2.03,0,0,0-2.03-2.03H34.094a5.563,5.563,0,0,0-10.806,0H20.1a2.03,2.03,0,0,0-2.03,2.03V9.491a2.03,2.03,0,0,0,2.03,2.029M28.69,3.287a2.3,2.3,0,1,1-2.3,2.3,2.3,2.3,0,0,1,2.3-2.3" transform="translate(-7.503)" fill="#14a0de"/>
        <path id="Path_1029723" data-name="Path 1029723" d="M67.928,98.634A12.129,12.129,0,1,0,55.8,86.5a12.129,12.129,0,0,0,12.129,12.13m-1.3-18.906V78.082a.385.385,0,0,1,.386-.385h1.821a.385.385,0,0,1,.386.385v1.645a4.051,4.051,0,0,1,3.7,3.577.393.393,0,0,1-.384.444H70.7a.377.377,0,0,1-.372-.3A1.461,1.461,0,0,0,68.9,82.289H67.047a1.519,1.519,0,0,0-1.538,1.306,1.461,1.461,0,0,0,1.451,1.611h1.773a4.163,4.163,0,0,1,4.184,3.551,4.042,4.042,0,0,1-3.694,4.521v1.647a.386.386,0,0,1-.386.386H67.017a.386.386,0,0,1-.386-.386V93.278a4.049,4.049,0,0,1-3.7-3.577.392.392,0,0,1,.384-.443h1.844a.376.376,0,0,1,.372.3,1.461,1.461,0,0,0,1.429,1.164H68.9a1.46,1.46,0,0,0,1.451-1.61A1.518,1.518,0,0,0,68.81,87.8H67.122a4.163,4.163,0,0,1-4.184-3.55,4.043,4.043,0,0,1,3.694-4.523" transform="translate(-23.173 -30.888)" fill="#14a0de"/>
        <path id="Path_1029724" data-name="Path 1029724" d="M37.319,12.271H34.793v2.314A5.01,5.01,0,0,1,29.781,19.6H12.592A5.019,5.019,0,0,1,7.58,14.585V12.271H5.054A5.066,5.066,0,0,0,0,17.325V57.156a5.065,5.065,0,0,0,5.054,5.054h24.67a13.122,13.122,0,0,1-.085-1.49A15.145,15.145,0,0,1,42.373,45.785V17.325a5.066,5.066,0,0,0-5.054-5.054M8.364,27.461a1.487,1.487,0,0,1,2.1-2.1l2.55,2.55,2.551-2.55a1.487,1.487,0,0,1,2.1,2.1l-2.551,2.55,2.551,2.551a1.487,1.487,0,0,1-2.1,2.1l-2.551-2.551-2.55,2.551a1.487,1.487,0,0,1-2.1-2.1l2.55-2.551ZM21.272,55.193a1.487,1.487,0,1,1-2.1,2.1l-2.55-2.55L14.068,57.3a1.487,1.487,0,0,1-2.1-2.1l2.551-2.55-2.551-2.551a1.487,1.487,0,1,1,2.1-2.1l2.551,2.551,2.55-2.551a1.487,1.487,0,0,1,2.1,2.1l-2.55,2.551ZM36.515,31.958a1.488,1.488,0,0,1-2.1,0l-2.529-2.529v5.252a7.748,7.748,0,0,1-7.17,7.7l-18.085,1.3c-.036,0-.071,0-.107,0a1.487,1.487,0,0,1-.1-2.97l18.085-1.3a4.764,4.764,0,0,0,4.409-4.734V29.427l-2.531,2.53a1.487,1.487,0,0,1-2.1-2.1l5.069-5.069a1.489,1.489,0,0,1,2.1,0l5.068,5.069a1.488,1.488,0,0,1,0,2.1" transform="translate(0 -5.096)" fill="#203a72"/>
      </g>
    </g>
  </g>
</svg>
