<svg xmlns="http://www.w3.org/2000/svg" xmlns:xlink="http://www.w3.org/1999/xlink" width="292" height="263" viewBox="0 0 292 263">
  <defs>
    <clipPath id="clip-path">
      <rect id="Rectangle_457747" data-name="Rectangle 457747" width="252.704" height="142.694" fill="none"/>
    </clipPath>
  </defs>
  <g id="img47" transform="translate(-1121.686 -10290)">
    <rect id="Rectangle_456556" data-name="Rectangle 456556" width="292" height="263" rx="10" transform="translate(1121.686 10290)" fill="#ffece3"/>
    <circle id="Ellipse_13750" data-name="Ellipse 13750" cx="82" cy="82" r="82" transform="translate(1145.686 10303)" fill="#ffd8c7"/>
    <circle id="Ellipse_13751" data-name="Ellipse 13751" cx="51" cy="51" r="51" transform="translate(1248.686 10412)" fill="#ffd8c7"/>
    <circle id="Ellipse_13752" data-name="Ellipse 13752" cx="31" cy="31" r="31" transform="translate(1329.686 10354)" fill="#ffd8c7"/>
    <g id="Group_1181073" data-name="Group 1181073" transform="translate(1141.99 10350.598)">
      <g id="Group_1181070" data-name="Group 1181070" clip-path="url(#clip-path)">
        <path id="Path_1025957" data-name="Path 1025957" d="M33.446,719.315c-1.429-.657-9.794-3.536-8.049-13.147,1.015-5.6-4.533-7.288-6.209-7.15a11.158,11.158,0,0,1-5.522-.944c-3.226-1.272-7.049-4.367-6.891-8.036a54.242,54.242,0,0,1,.886-5.519c.272-1.866.509-3.347-.664-4.611C4.751,677.487,1,677.4.582,673.208c-.435-4.347,2.507-7.722,6.359-8.939a6.356,6.356,0,0,1,5.458,1.044c1.484,1.1,1.7,2.83,2.885,4.165,3.786,4.281,7.648-.828,11.714.956a14.6,14.6,0,0,1,7.8,7.923,29.8,29.8,0,0,1,2.048,6.628c.485,2.549.351,4.517,2.787,6.037,2.39,1.492,4.576.316,6.982.906a14.419,14.419,0,0,1,5.349,3.086c3.452,3.038,3.323,10.086,1.106,13.492-1.925,2.959-8.486,8.88-11.071,9.885-3.376,1.312-6.088,2.059-8.552.926" transform="translate(-0.485 -597.017)" fill="#e4887d"/>
        <path id="Path_1025958" data-name="Path 1025958" d="M52.631,708.038c-2,3.079-8.537,8.911-11.1,9.906-3.641,1.415-6.214,2.019-8.595.925-.089-.042-.207-.092-.346-.151a15.29,15.29,0,0,1-5.036-3.226c-2.507-2.541-3.421-5.859-2.7-9.827a5.471,5.471,0,0,0-1.4-5.09,6.948,6.948,0,0,0-4.747-2,11.224,11.224,0,0,1-5.546-.948c-3.445-1.359-7.082-4.469-6.926-8.089.011-.274.033-.552.066-.851.1-.9.28-1.806.456-2.68.132-.656.269-1.337.364-1.992l.012-.085c.058-.393.112-.764.152-1.121a3.873,3.873,0,0,0-.814-3.36,11.045,11.045,0,0,0-2.665-1.936c-1.793-1.044-3.486-2.03-3.764-4.8a8.293,8.293,0,0,1,0-1.74,8.765,8.765,0,0,1,6.391-7.257,6.368,6.368,0,0,1,5.507,1.053,6.229,6.229,0,0,1,1.75,2.356,8.519,8.519,0,0,0,1.144,1.817c2.15,2.431,4.294,1.81,6.562,1.153,1.663-.482,3.383-.98,5.133-.211a14.649,14.649,0,0,1,7.827,7.951,30,30,0,0,1,2.051,6.641c.082.426.145.835.206,1.23.306,1.966.548,3.518,2.556,4.772a6.489,6.489,0,0,0,4.15.753,9.532,9.532,0,0,1,2.816.146,14.4,14.4,0,0,1,5.373,3.1c2.421,2.13,2.945,5.986,2.628,8.884h0a10.933,10.933,0,0,1-1.512,4.675M.152,672.708c.272,2.713,1.942,3.685,3.71,4.715a11.115,11.115,0,0,1,2.69,1.955,3.963,3.963,0,0,1,.841,3.444c-.039.36-.093.732-.151,1.126l-.012.085c-.1.659-.233,1.34-.365,2-.175.872-.357,1.775-.454,2.671-.033.3-.054.572-.066.844-.147,3.408,3.338,6.6,6.857,7.983a11.124,11.124,0,0,0,5.5.94,7.078,7.078,0,0,1,4.835,2.03,5.571,5.571,0,0,1,1.432,5.184c-.065.361-.118.721-.156,1.071-.59,5.4,2.042,9.392,7.826,11.864.14.06.259.11.349.152,2.344,1.079,4.895.477,8.509-.927,2.488-.967,9.1-6.867,11.045-9.864a10.822,10.822,0,0,0,1.5-4.629h0c.314-2.871-.2-6.69-2.592-8.792a14.29,14.29,0,0,0-5.326-3.074,9.508,9.508,0,0,0-2.784-.143,6.663,6.663,0,0,1-4.214-.77c-2.05-1.279-2.3-2.854-2.605-4.846-.061-.394-.125-.8-.206-1.226a29.847,29.847,0,0,0-2.044-6.616,14.544,14.544,0,0,0-7.771-7.9c-1.713-.752-3.413-.26-5.057.216-2.2.639-4.48,1.3-6.675-1.185a8.634,8.634,0,0,1-1.16-1.84,6.059,6.059,0,0,0-1.717-2.318,6.253,6.253,0,0,0-5.409-1.035A8.659,8.659,0,0,0,.157,670.99a8.3,8.3,0,0,0,0,1.718" transform="translate(-0.001 -596.522)"/>
        <path id="Path_1025959" data-name="Path 1025959" d="M110.837,770.6a.184.184,0,0,0-.038-.135C93.13,747.289,66.773,720.2,66.51,719.932a.2.2,0,0,0-.272-.006.189.189,0,0,0,0,.269c.264.27,26.6,27.341,44.26,50.495a.194.194,0,0,0,.269.038.189.189,0,0,0,.076-.131" transform="translate(-59.5 -647.222)"/>
        <path id="Path_1025960" data-name="Path 1025960" d="M153.206,814.16l.746-11.053a.192.192,0,0,0-.178-.2.184.184,0,0,0-.205.177l-.721,10.677-10.15-.612a.188.188,0,0,0-.2.178.19.19,0,0,0,.18.2Z" transform="translate(-128.113 -721.873)"/>
        <path id="Path_1025961" data-name="Path 1025961" d="M331.535,1016.443l.727-12.073a.192.192,0,0,0-.383-.023l-.7,11.675-10.485-1.171a.19.19,0,0,0-.212.167h0a.191.191,0,0,0,.17.209Z" transform="translate(-288.134 -902.824)"/>
        <path id="Path_1025962" data-name="Path 1025962" d="M882.6,8.663,894.059,1.8l6.6-1.351v1.7L894.5,3.5l-11.21,7.48s9.077,2.451,16.745,4.77c1.759.691,2.1,3.347,2.1,3.347a16.487,16.487,0,0,0-2.952-1.549A157.988,157.988,0,0,0,883.292,13.4Z" transform="translate(-793.524 -0.403)" fill="#be7676"/>
        <path id="Path_1025963" data-name="Path 1025963" d="M882.967,12.963a158.312,158.312,0,0,1,15.874,4.143,16.12,16.12,0,0,1,2.89,1.508c-.076-.449-.521-2.63-2.067-3.237-7.576-2.291-16.65-4.744-16.74-4.769l-.079-.021,11.291-7.531,6.132-1.345V.09l-6.553,1.341L882.281,8.279Zm18.861,5.8-.067-.045a16.572,16.572,0,0,0-2.943-1.545,159.036,159.036,0,0,0-15.89-4.146l-.025-.005-.7-4.783,11.493-6.881L900.342,0V1.771l-.029.006-6.155,1.35-11.137,7.431c.908.246,9.463,2.57,16.667,4.749,1.761.692,2.125,3.351,2.129,3.378Z" transform="translate(-793.167)"/>
        <rect id="Rectangle_457738" data-name="Rectangle 457738" width="10.774" height="5.313" transform="translate(81.63 13.377)" fill="#f9ca62"/>
        <path id="Path_1025964" data-name="Path 1025964" d="M819.319,137.573H808.471v-5.387h10.848Zm-10.774-.074h10.7V132.26h-10.7Z" transform="translate(-726.878 -118.846)"/>
        <rect id="Rectangle_457739" data-name="Rectangle 457739" width="5.56" height="6.42" transform="translate(77.673 7.437)" fill="#be7676"/>
        <path id="Path_1025965" data-name="Path 1025965" d="M774.895,79.818h-5.634V73.324h5.634Zm-5.56-.074h5.486V73.4h-5.486Z" transform="translate(-691.625 -65.924)"/>
        <path id="Path_1025966" data-name="Path 1025966" d="M808.156,37.67a7.024,7.024,0,1,1-7.024-7.024,7.024,7.024,0,0,1,7.024,7.024" transform="translate(-713.964 -27.553)" fill="#6d9ca0"/>
        <path id="Path_1025967" data-name="Path 1025967" d="M801.027,44.6A7.036,7.036,0,1,1,806,42.541a6.99,6.99,0,0,1-4.975,2.061m0-14.049a7.013,7.013,0,1,0,7.013,7.013,7.02,7.02,0,0,0-7.013-7.013" transform="translate(-713.86 -27.449)"/>
        <path id="Path_1025968" data-name="Path 1025968" d="M815.585,46.04a6.085,6.085,0,1,1-6.085-6.085,6.085,6.085,0,0,1,6.085,6.085" transform="translate(-722.333 -35.923)" fill="#fff"/>
        <path id="Path_1025969" data-name="Path 1025969" d="M809.4,52.033a6.1,6.1,0,1,1,4.311-1.786,6.057,6.057,0,0,1-4.311,1.786m0-12.17a6.073,6.073,0,1,0,6.073,6.073,6.08,6.08,0,0,0-6.073-6.073" transform="translate(-722.228 -35.819)"/>
        <path id="Path_1025970" data-name="Path 1025970" d="M900.072,75.709l1.66-.293a5.711,5.711,0,0,0-.577-1.7l-1.461.844a4.043,4.043,0,0,1,.378,1.149" transform="translate(-808.894 -66.276)" fill="#d6909b"/>
        <path id="Path_1025971" data-name="Path 1025971" d="M899.926,75.578l0-.012a4.032,4.032,0,0,0-.377-1.146l-.005-.01,1.481-.855.006.011a5.723,5.723,0,0,1,.578,1.7l0,.011-.012,0Zm-.353-1.158a4.052,4.052,0,0,1,.372,1.131l1.637-.289a5.694,5.694,0,0,0-.568-1.674Z" transform="translate(-808.758 -66.133)"/>
        <path id="Path_1025972" data-name="Path 1025972" d="M864.671,43.251v1.686a4.05,4.05,0,0,1,1.218.216l.577-1.584a5.743,5.743,0,0,0-1.794-.317" transform="translate(-777.406 -38.886)" fill="#ffa391"/>
        <path id="Path_1025973" data-name="Path 1025973" d="M865.792,45.062l-.011,0a4.041,4.041,0,0,0-1.214-.215h-.011V43.134h.012a5.747,5.747,0,0,1,1.8.318l.011,0Zm-1.213-.242a4.062,4.062,0,0,1,1.2.213l.569-1.562a5.731,5.731,0,0,0-1.767-.313Z" transform="translate(-777.303 -38.781)"/>
        <path id="Path_1025974" data-name="Path 1025974" d="M879.429,47.178l-.577,1.585a4.068,4.068,0,0,1,1.059.631l1.083-1.291a5.743,5.743,0,0,0-1.565-.925" transform="translate(-790.156 -42.417)" fill="#ed9a94"/>
        <path id="Path_1025975" data-name="Path 1025975" d="M879.78,49.274l-.009-.007a4.058,4.058,0,0,0-1.056-.63l-.01,0,.585-1.607.011,0a5.754,5.754,0,0,1,1.568.927l.009.007Zm-1.045-.654a4.077,4.077,0,0,1,1.042.622l1.068-1.273a5.725,5.725,0,0,0-1.542-.912Z" transform="translate(-790.024 -42.28)"/>
        <path id="Path_1025976" data-name="Path 1025976" d="M814.249,59.395l1.46.843a4.084,4.084,0,0,1,.754-.952l-1.085-1.293a5.771,5.771,0,0,0-1.13,1.4" transform="translate(-732.073 -52.14)" fill="#b2dbd4"/>
        <path id="Path_1025977" data-name="Path 1025977" d="M815.571,60.1l-.01-.006-1.47-.849.006-.01a5.779,5.779,0,0,1,1.132-1.4l.009-.008,1.1,1.31-.008.007a4.068,4.068,0,0,0-.752.949Zm-1.448-.863,1.44.831a4.086,4.086,0,0,1,.742-.937l-1.07-1.275a5.75,5.75,0,0,0-1.112,1.38" transform="translate(-731.931 -51.99)"/>
        <path id="Path_1025978" data-name="Path 1025978" d="M893.267,59.227a5.777,5.777,0,0,0-1.14-1.4l-1.084,1.292a4.078,4.078,0,0,1,.765.955Z" transform="translate(-801.117 -51.987)" fill="#e4887d"/>
        <path id="Path_1025979" data-name="Path 1025979" d="M891.658,59.937l-.006-.01a4.065,4.065,0,0,0-.762-.952l-.008-.008,1.1-1.31.009.008a5.786,5.786,0,0,1,1.142,1.407l.006.01Zm-.744-.972a4.1,4.1,0,0,1,.753.94l1.439-.831a5.751,5.751,0,0,0-1.123-1.383Z" transform="translate(-800.972 -51.838)"/>
        <path id="Path_1025980" data-name="Path 1025980" d="M903.4,93.087a4.1,4.1,0,0,1-.04,1.193l1.66.293a5.806,5.806,0,0,0,.042-1.779Z" transform="translate(-812.192 -83.429)" fill="#b57c84"/>
        <path id="Path_1025981" data-name="Path 1025981" d="M904.908,94.466l-.011,0-1.672-.295,0-.012a4.083,4.083,0,0,0,.04-1.189v-.011l1.685-.3,0,.012a5.815,5.815,0,0,1-.043,1.782Zm-1.656-.316,1.637.289a5.8,5.8,0,0,0,.089-1.013,5.885,5.885,0,0,0-.047-.739l-1.64.289a4.1,4.1,0,0,1-.039,1.174" transform="translate(-812.07 -83.309)"/>
        <path id="Path_1025982" data-name="Path 1025982" d="M808.385,93.6a4.149,4.149,0,0,1,.025-.453l-1.662-.293a5.8,5.8,0,0,0,.042,1.767l1.66-.293a4.106,4.106,0,0,1-.065-.728" transform="translate(-725.286 -83.48)" fill="#6d9ca0"/>
        <path id="Path_1025983" data-name="Path 1025983" d="M806.677,94.511l0-.011a5.823,5.823,0,0,1-.042-1.771l0-.012.012,0,1.673.3v.011a4.084,4.084,0,0,0,.04,1.178l0,.011Zm-.023-1.767a5.79,5.79,0,0,0,.042,1.74l1.637-.289a4.106,4.106,0,0,1-.039-1.162Z" transform="translate(-725.182 -83.359)"/>
        <path id="Path_1025984" data-name="Path 1025984" d="M898.537,110.821l1.46.843a5.712,5.712,0,0,0,.642-1.641l-1.662-.293a4.05,4.05,0,0,1-.439,1.092" transform="translate(-807.855 -98.655)" fill="#935c5f"/>
        <path id="Path_1025985" data-name="Path 1025985" d="M899.858,111.558l-1.48-.855.006-.01a4.021,4.021,0,0,0,.438-1.088l0-.011.011,0,1.674.3,0,.012a5.721,5.721,0,0,1-.643,1.645Zm-1.448-.863,1.44.831a5.7,5.7,0,0,0,.632-1.616l-1.64-.289a4.046,4.046,0,0,1-.432,1.074" transform="translate(-807.711 -98.534)"/>
        <path id="Path_1025986" data-name="Path 1025986" d="M827.147,48.225l1.083,1.291a4.066,4.066,0,0,1,1.049-.636L828.7,47.3a5.748,5.748,0,0,0-1.555.93" transform="translate(-743.669 -42.522)" fill="#b7e2db"/>
        <path id="Path_1025987" data-name="Path 1025987" d="M828.08,49.4l-.007-.009-1.091-1.3.009-.007a5.755,5.755,0,0,1,1.559-.932l.011,0,.585,1.607-.01,0a4.057,4.057,0,0,0-1.046.634Zm-1.065-1.306,1.068,1.273a4.08,4.08,0,0,1,1.033-.626l-.569-1.563a5.733,5.733,0,0,0-1.532.916" transform="translate(-743.521 -42.385)"/>
        <path id="Path_1025988" data-name="Path 1025988" d="M845.251,45.168a4.052,4.052,0,0,1,1.214-.225V43.257a5.734,5.734,0,0,0-1.79.327Z" transform="translate(-759.428 -38.891)" fill="#fcbab1"/>
        <path id="Path_1025989" data-name="Path 1025989" d="M845.11,45.076l-.585-1.606.011,0a5.746,5.746,0,0,1,1.794-.328h.012v1.709h-.011a4.047,4.047,0,0,0-1.21.225Zm-.555-1.592.569,1.562a4.062,4.062,0,0,1,1.2-.222V43.162a5.726,5.726,0,0,0-1.764.322" transform="translate(-759.294 -38.784)"/>
        <path id="Path_1025990" data-name="Path 1025990" d="M809.547,74.706l-1.461-.844a5.708,5.708,0,0,0-.57,1.691l1.66.293a4.037,4.037,0,0,1,.372-1.14" transform="translate(-726.019 -66.408)" fill="#95ccce"/>
        <path id="Path_1025991" data-name="Path 1025991" d="M809.063,75.714l-.012,0-1.672-.295,0-.011a5.723,5.723,0,0,1,.572-1.695l.006-.011,1.482.856,0,.01a4.025,4.025,0,0,0-.371,1.137Zm-1.656-.316,1.637.289a4.045,4.045,0,0,1,.366-1.122l-1.442-.832a5.7,5.7,0,0,0-.562,1.665" transform="translate(-725.897 -66.262)"/>
        <path id="Path_1025992" data-name="Path 1025992" d="M808.042,109.966a5.716,5.716,0,0,0,.635,1.633l1.46-.843a4.044,4.044,0,0,1-.432-1.083Z" transform="translate(-726.493 -98.605)" fill="#5d8287"/>
        <path id="Path_1025993" data-name="Path 1025993" d="M808.546,111.5l-.006-.01a5.725,5.725,0,0,1-.636-1.636l0-.012,1.685-.3,0,.011a4.033,4.033,0,0,0,.431,1.08l.006.01Zm-.616-1.639a5.7,5.7,0,0,0,.625,1.607l1.439-.831a4.06,4.06,0,0,1-.425-1.065Z" transform="translate(-726.367 -98.486)"/>
        <path id="Path_1025994" data-name="Path 1025994" d="M814.106,82.093c.028-.087.1-.142.16-.123l4.757,1.514c.06.019.087.106.059.193s-.1.142-.16.123l-4.757-1.514c-.061-.019-.087-.105-.059-.193" transform="translate(-731.935 -73.694)" fill="#5d8287"/>
        <path id="Path_1025995" data-name="Path 1025995" d="M818.975,83.407a.2.2,0,0,1,.015.168c-.03.093-.108.152-.174.131l-4.757-1.514a.1.1,0,0,1-.052-.04.2.2,0,0,1-.015-.168.22.22,0,0,1,.072-.107.111.111,0,0,1,.1-.024l4.757,1.514a.1.1,0,0,1,.052.04m-4.949-1.269a.075.075,0,0,0,.04.031l4.757,1.514c.054.017.12-.035.145-.116a.174.174,0,0,0-.012-.147.078.078,0,0,0-.04-.031l-4.757-1.514a.089.089,0,0,0-.081.02.2.2,0,0,0-.064.1.175.175,0,0,0,.012.147" transform="translate(-731.831 -73.588)"/>
        <path id="Path_1025996" data-name="Path 1025996" d="M856.02,91.378a.7.7,0,1,1-.18.969.7.7,0,0,1,.18-.969" transform="translate(-769.356 -82.046)" fill="#5d8287"/>
        <path id="Path_1025997" data-name="Path 1025997" d="M856.9,91.45a.709.709,0,1,1-.986-.183.71.71,0,0,1,.986.183m-1.149.79a.686.686,0,1,0,.177-.953.686.686,0,0,0-.177.953" transform="translate(-769.255 -81.945)"/>
        <path id="Path_1025998" data-name="Path 1025998" d="M694.134,185.96c0-8.849-9.515-16.023-21.253-16.023s-21.253,7.174-21.253,16.023,9.515,16.023,21.253,16.023,21.253-7.174,21.253-16.023" transform="translate(-585.864 -152.787)" fill="#e4887d"/>
        <path id="Path_1025999" data-name="Path 1025999" d="M672.553,201.693a25.061,25.061,0,0,1-15.05-4.7c-4.023-3.034-6.24-7.068-6.24-11.36s2.216-8.326,6.24-11.359a26.445,26.445,0,0,1,30.1,0c4.024,3.033,6.24,7.068,6.24,11.359s-2.216,8.326-6.24,11.36a25.06,25.06,0,0,1-15.05,4.7m0-32.046a24.985,24.985,0,0,0-15.006,4.686c-4,3.019-6.21,7.033-6.21,11.3s2.206,8.281,6.21,11.3a26.371,26.371,0,0,0,30.012,0c4-3.019,6.21-7.033,6.21-11.3s-2.206-8.281-6.21-11.3a24.985,24.985,0,0,0-15.006-4.686" transform="translate(-585.536 -152.459)"/>
        <rect id="Rectangle_457740" data-name="Rectangle 457740" width="42.506" height="86.609" transform="translate(65.764 33.174)" fill="#be7676"/>
        <path id="Path_1026000" data-name="Path 1026000" d="M693.844,415.022h-42.58V328.34h42.58Zm-42.506-.074H693.77V328.414H651.338Z" transform="translate(-585.537 -295.203)"/>
        <rect id="Rectangle_457741" data-name="Rectangle 457741" width="9.934" height="81.301" transform="translate(94.203 35.073)" fill="#e4887d"/>
        <path id="Path_1026001" data-name="Path 1026001" d="M648.982,26.99h-.224l-13.916-2.657V40.568l13.916-2.509h.224c.164,0,.3-.391.3-.874V27.864c0-.483-.134-.874-.3-.874" transform="translate(-570.772 -21.877)"/>
        <path id="Path_1026002" data-name="Path 1026002" d="M302.956,383.571c-.045-1.875.747-12.394-10.6-15.016-6.61-1.529-5.844-8.4-4.9-10.173a13.313,13.313,0,0,0,1.572-6.492c.127-4.133-1.458-9.781-5.551-11.338a64.825,64.825,0,0,0-6.462-1.633c-2.172-.583-3.906-1.021-4.737-2.9-1.593-3.6.083-7.748-4.314-10.187-4.555-2.527-9.64-.9-12.79,2.748a7.578,7.578,0,0,0-1.432,6.47c.5,2.144,2.3,3.2,3.2,5.125,2.9,6.166-4.516,7.985-4.48,13.28a17.409,17.409,0,0,0,5,12.277,35.493,35.493,0,0,0,6.293,5.37c2.563,1.734,4.781,2.516,5.3,5.9.506,3.321-1.813,5.161-2.3,8.073a17.187,17.187,0,0,0,.856,7.314c1.7,5.214,9.478,8.4,14.254,7.575,4.15-.712,13.73-5.106,16.049-7.462,3.029-3.077,5.127-5.7,5.047-8.929" transform="translate(-226.983 -291.849)" fill="#7fa5ac"/>
        <path id="Path_1026003" data-name="Path 1026003" d="M275.462,398.889h0c-3.324-1.02-7.3-3.413-8.491-7.069a17.174,17.174,0,0,1-.859-7.346,11.4,11.4,0,0,1,1.169-3.152,7.74,7.74,0,0,0,1.133-4.9c-.426-2.79-2.012-3.787-4.021-5.05-.4-.253-.822-.515-1.25-.806a35.7,35.7,0,0,1-6.3-5.379,17.468,17.468,0,0,1-5.017-12.322c-.015-2.279,1.342-3.927,2.653-5.521,1.79-2.175,3.481-4.229,1.833-7.731a10.163,10.163,0,0,0-1.451-2.11,7.433,7.433,0,0,1-1.754-3.028,7.592,7.592,0,0,1,1.445-6.528c2.925-3.383,7.125-4.754,10.962-3.577a9.887,9.887,0,0,1,1.908.815c2.9,1.609,3.18,3.928,3.477,6.384a13.193,13.193,0,0,0,.863,3.832,4.617,4.617,0,0,0,3.3,2.476c.41.124.842.241,1.3.363l.1.026c.764.206,1.573.376,2.354.542,1.042.219,2.119.447,3.152.764.343.106.658.213.963.33,4.037,1.535,5.729,6.986,5.592,11.4a13.391,13.391,0,0,1-1.579,6.522,8.287,8.287,0,0,0-.052,6.141A6.525,6.525,0,0,0,291.8,367.9c4.687,1.08,7.889,3.646,9.489,7.59a18.227,18.227,0,0,1,1.158,7.037c0,.181,0,.333,0,.45.076,3.124-1.8,5.657-5.067,8.977-2.3,2.335-11.767,6.739-16.083,7.481a13.033,13.033,0,0,1-5.833-.55m-9.99-74.395c-3.788-1.162-7.936.193-10.827,3.539a7.452,7.452,0,0,0-1.417,6.411,7.214,7.214,0,0,0,1.728,2.974,10.3,10.3,0,0,1,1.468,2.138c1.683,3.576-.113,5.759-1.851,7.87-1.3,1.577-2.637,3.206-2.622,5.436a17.342,17.342,0,0,0,4.983,12.235,35.606,35.606,0,0,0,6.281,5.36c.427.289.843.551,1.246.8,2.036,1.28,3.644,2.291,4.079,5.139a7.947,7.947,0,0,1-1.145,4.979,11.292,11.292,0,0,0-1.157,3.116,17.039,17.039,0,0,0,.854,7.283c1.176,3.61,5.114,5.976,8.407,6.986h0a12.9,12.9,0,0,0,5.776.545c4.2-.722,13.78-5.175,16.013-7.444,3.242-3.3,5.1-5.805,5.029-8.881,0-.118,0-.272,0-.454.021-7.5-3.108-12.266-9.3-14.167-.4-.124-.82-.236-1.246-.335a6.643,6.643,0,0,1-5-4.014,8.439,8.439,0,0,1,.058-6.252,13.267,13.267,0,0,0,1.563-6.464c.14-4.508-1.708-9.829-5.509-11.275-.3-.115-.616-.222-.955-.327-1.028-.316-2.1-.542-3.14-.762-.784-.166-1.594-.337-2.361-.542l-.1-.026c-.459-.122-.892-.239-1.3-.366a4.726,4.726,0,0,1-3.376-2.545,13.286,13.286,0,0,1-.873-3.869c-.293-2.423-.57-4.711-3.413-6.288a9.884,9.884,0,0,0-1.883-.8" transform="translate(-226.407 -291.26)"/>
        <path id="Path_1026004" data-name="Path 1026004" d="M370.385,465.054a.222.222,0,0,1-.13-.1c-17.044-30.282-34.277-71.924-34.449-72.341a.233.233,0,0,1,.122-.3.225.225,0,0,1,.3.121c.171.417,17.395,42.034,34.424,72.291a.231.231,0,0,1-.085.312.225.225,0,0,1-.179.022" transform="translate(-301.9 -352.699)"/>
        <path id="Path_1026005" data-name="Path 1026005" d="M351.582,575.039l-12.457-4.4a.229.229,0,0,1-.138-.292.22.22,0,0,1,.29-.142l12.034,4.248,4.117-11.406a.226.226,0,1,1,.426.153Z" transform="translate(-304.765 -506.09)"/>
        <path id="Path_1026006" data-name="Path 1026006" d="M487.627,867.607l-13.566-4.9a.229.229,0,0,1,.156-.431l13.118,4.737L491,854.978a.228.228,0,0,1,.283-.154h0a.227.227,0,0,1,.149.285Z" transform="translate(-426.084 -768.545)"/>
        <path id="Path_1026007" data-name="Path 1026007" d="M1609.269,555.05h-3.817V544.416a1.325,1.325,0,0,0-1.363-1.281h-31.256a1.325,1.325,0,0,0-1.363,1.281v10.292h-3.817V544.416a5.04,5.04,0,0,1,5.18-4.872h31.256a5.039,5.039,0,0,1,5.179,4.872Z" transform="translate(-1409.443 -485.091)" fill="#4b797f"/>
        <path id="Path_1026008" data-name="Path 1026008" d="M1608.978,554.758h-3.89V544.086a1.288,1.288,0,0,0-1.326-1.245h-31.256a1.289,1.289,0,0,0-1.326,1.245v10.329h-3.891V544.086a5.076,5.076,0,0,1,5.217-4.909h31.256a5.075,5.075,0,0,1,5.216,4.909Zm-3.816-.074h3.743v-10.6a5,5,0,0,0-5.142-4.835h-31.256a5,5,0,0,0-5.143,4.835v10.255h3.744V544.086a1.362,1.362,0,0,1,1.4-1.319h31.256a1.363,1.363,0,0,1,1.4,1.319Z" transform="translate(-1409.115 -484.762)"/>
        <path id="Path_1026009" data-name="Path 1026009" d="M1446.08,765.546c0,3.047-2.787,5.515-6.223,5.515h-71.974c-3.436,0-6.222-2.468-6.222-5.515V722.127c0-3.045,2.786-5.515,6.222-5.515h71.974c3.436,0,6.223,2.47,6.223,5.515Z" transform="translate(-1224.239 -644.29)" fill="#fff"/>
        <path id="Path_1026010" data-name="Path 1026010" d="M1439.529,770.771h-71.975c-3.451,0-6.258-2.491-6.258-5.552V721.8c0-3.062,2.808-5.552,6.258-5.552h71.975c3.452,0,6.26,2.49,6.26,5.552v43.419c0,3.061-2.808,5.552-6.26,5.552m-71.975-54.45c-3.41,0-6.184,2.457-6.184,5.478v43.419c0,3.021,2.775,5.478,6.184,5.478h71.975c3.411,0,6.186-2.458,6.186-5.478V721.8c0-3.021-2.775-5.478-6.186-5.478Z" transform="translate(-1223.911 -643.963)"/>
        <path id="Path_1026011" data-name="Path 1026011" d="M1922.307,672.911v.268h-9.81v-.268a4.764,4.764,0,0,1,4.907-4.609,5.018,5.018,0,0,1,3.465,1.352,4.437,4.437,0,0,1,1.438,3.257" transform="translate(-1719.483 -600.855)" fill="#4b797f"/>
        <path id="Path_1026012" data-name="Path 1026012" d="M1922.016,672.887h-9.883v-.3a4.807,4.807,0,0,1,4.944-4.646,5.035,5.035,0,0,1,3.49,1.362,4.456,4.456,0,0,1,1.45,3.284Zm-9.809-.074h9.735v-.231a4.384,4.384,0,0,0-1.426-3.23,4.962,4.962,0,0,0-3.439-1.342,4.733,4.733,0,0,0-4.87,4.572Z" transform="translate(-1719.156 -600.526)"/>
        <path id="Path_1026013" data-name="Path 1026013" d="M1547.783,672.911v.268h-9.808v-.268a4.763,4.763,0,0,1,4.906-4.609,5.013,5.013,0,0,1,3.464,1.352,4.435,4.435,0,0,1,1.438,3.257" transform="translate(-1382.758 -600.855)" fill="#4b797f"/>
        <path id="Path_1026014" data-name="Path 1026014" d="M1547.491,672.887h-9.882v-.3a4.807,4.807,0,0,1,4.943-4.646,5.037,5.037,0,0,1,3.49,1.362,4.455,4.455,0,0,1,1.45,3.284Zm-9.809-.074h9.735v-.231a4.382,4.382,0,0,0-1.426-3.23,4.964,4.964,0,0,0-3.439-1.342,4.733,4.733,0,0,0-4.869,4.572Z" transform="translate(-1382.43 -600.526)"/>
        <path id="Path_1026015" data-name="Path 1026015" d="M1628.263,802.068a20.847,20.847,0,1,1-20.847-20.847,20.847,20.847,0,0,1,20.847,20.847" transform="translate(-1426.449 -702.378)" fill="#e4887d"/>
        <path id="Path_1026016" data-name="Path 1026016" d="M1624.97,820.7a20.885,20.885,0,1,1,14.767-6.117,20.748,20.748,0,0,1-14.767,6.117m0-41.694a20.81,20.81,0,1,0,20.81,20.81A20.834,20.834,0,0,0,1624.97,779" transform="translate(-1442.198 -700.318)"/>
        <path id="Path_1026017" data-name="Path 1026017" d="M1675.883,868.254H1686v-9.517h7.042v9.517h10.117v6.625h-10.117V884.4H1686v-9.517h-10.117Z" transform="translate(-1506.749 -772.071)" fill="#fff"/>
        <path id="Path_1026018" data-name="Path 1026018" d="M1685.684,874.638h-10.117v-6.685h10.117v-9.517h7.107v9.517h10.117v6.685h-10.117v9.518h-7.107Zm7.042-.061h10.117v-6.564h-10.117V858.5h-6.978v9.517h-10.117v6.564h10.117V884.1h6.978Z" transform="translate(-1506.465 -771.801)"/>
        <path id="Path_1026019" data-name="Path 1026019" d="M2382.769,954.671l1.495,1.532,1.441-1.406,1.041,1.067-1.441,1.406,1.495,1.532-1,.979-1.495-1.532-1.441,1.406-1.041-1.066,1.441-1.406-1.495-1.532Z" transform="translate(-2141.392 -858.323)" fill="#f9ca62"/>
        <path id="Path_1026020" data-name="Path 1026020" d="M2383.167,957.1l-1.495-1.532,1.012-.988,1.5,1.532,1.441-1.406,1.05,1.076-1.44,1.406,1.495,1.532-1.013.988-1.5-1.532-1.44,1.406-1.051-1.076Zm1.05,1.057,1.495,1.532.994-.97-1.495-1.532,1.441-1.406-1.031-1.057-1.441,1.406-1.495-1.532-.994.97,1.495,1.532-1.441,1.406,1.031,1.056Z" transform="translate(-2141.308 -858.239)" fill="#f9ca62"/>
        <path id="Path_1026021" data-name="Path 1026021" d="M1027.281,927.063l-3.175-20.991.148-.022,3.175,20.99Z" transform="translate(-920.751 -814.61)"/>
        <path id="Path_1026022" data-name="Path 1026022" d="M2124.863,881.068c.019-.787-.313-5.2,4.447-6.3,2.773-.641,2.451-3.525,2.057-4.268a5.577,5.577,0,0,1-.659-2.724c-.053-1.734.611-4.1,2.329-4.756a27.09,27.09,0,0,1,2.711-.685c.911-.245,1.638-.429,1.987-1.218.668-1.511-.035-3.25,1.809-4.274A4.279,4.279,0,0,1,2144.91,858a3.177,3.177,0,0,1,.6,2.715c-.212.9-.963,1.343-1.343,2.15-1.218,2.586,1.895,3.35,1.879,5.571a7.3,7.3,0,0,1-2.1,5.151,14.884,14.884,0,0,1-2.64,2.253c-1.075.727-2.006,1.055-2.223,2.475-.212,1.393.761,2.165.966,3.387a7.2,7.2,0,0,1-.359,3.068c-.713,2.188-3.976,3.523-5.98,3.178a19.509,19.509,0,0,1-6.733-3.13c-1.271-1.291-2.151-2.39-2.117-3.746" transform="translate(-1910.416 -769.909)" fill="#7fa5ac"/>
        <path id="Path_1026023" data-name="Path 1026023" d="M2133.467,887.725a19.3,19.3,0,0,1-6.747-3.138c-1.37-1.393-2.158-2.456-2.126-3.766,0-.049,0-.113,0-.189a7.651,7.651,0,0,1,.486-2.952,5.279,5.279,0,0,1,3.981-3.184,2.737,2.737,0,0,0,2.06-1.652,3.474,3.474,0,0,0-.022-2.577,5.631,5.631,0,0,1-.663-2.736c-.057-1.852.652-4.139,2.347-4.783.128-.049.26-.094.4-.138.433-.133.885-.229,1.323-.321.327-.069.667-.141.988-.227l.041-.011c.193-.051.374-.1.545-.152a1.935,1.935,0,0,0,1.383-1.039,5.526,5.526,0,0,0,.363-1.607,2.953,2.953,0,0,1,1.459-2.678,4.156,4.156,0,0,1,.8-.342,4.384,4.384,0,0,1,4.6,1.5,3.185,3.185,0,0,1,.606,2.739,3.113,3.113,0,0,1-.736,1.27,4.269,4.269,0,0,0-.609.885c-.691,1.469.018,2.331.769,3.243a3.631,3.631,0,0,1,1.113,2.316,7.326,7.326,0,0,1-2.1,5.169,14.994,14.994,0,0,1-2.645,2.257c-.179.122-.355.232-.524.338a2.833,2.833,0,0,0-1.687,2.119,3.25,3.25,0,0,0,.475,2.056,4.781,4.781,0,0,1,.49,1.323,7.213,7.213,0,0,1-.36,3.082,5.3,5.3,0,0,1-3.562,2.965h0a5.47,5.47,0,0,1-2.448.231m5.848-31.1a2.91,2.91,0,0,0-1.432,2.638,5.586,5.586,0,0,1-.365,1.623,1.984,1.984,0,0,1-1.417,1.068c-.173.053-.354.1-.547.154l-.041.011c-.322.086-.662.158-.99.227-.435.092-.886.187-1.317.32-.143.044-.274.089-.4.137-1.594.607-2.37,2.839-2.311,4.73a5.565,5.565,0,0,0,.656,2.712,3.537,3.537,0,0,1,.025,2.623,2.788,2.788,0,0,1-2.1,1.684c-.179.041-.354.089-.523.14-2.6.8-3.911,2.8-3.9,5.943,0,.076,0,.141,0,.19-.032,1.291.749,2.344,2.11,3.726a19.657,19.657,0,0,0,6.718,3.123,5.417,5.417,0,0,0,2.423-.229h0a5.249,5.249,0,0,0,3.527-2.931,7.145,7.145,0,0,0,.358-3.056,4.765,4.765,0,0,0-.485-1.307,3.335,3.335,0,0,1-.481-2.088,2.876,2.876,0,0,1,1.712-2.156c.169-.107.344-.216.523-.338a14.91,14.91,0,0,0,2.635-2.248,7.275,7.275,0,0,0,2.091-5.133,3.593,3.593,0,0,0-1.1-2.281c-.729-.886-1.483-1.8-.777-3.3a4.342,4.342,0,0,1,.616-.9,3.027,3.027,0,0,0,.725-1.248,3.123,3.123,0,0,0-.594-2.69,4.332,4.332,0,0,0-4.542-1.485,4.158,4.158,0,0,0-.79.338" transform="translate(-1910.174 -769.662)"/>
        <path id="Path_1026024" data-name="Path 1026024" d="M2154.9,915.252a.093.093,0,0,0,.054-.044c7.151-12.7,14.38-30.174,14.453-30.349a.1.1,0,0,0-.051-.126.094.094,0,0,0-.124.051c-.072.175-7.3,17.634-14.442,30.328a.1.1,0,0,0,.036.131.1.1,0,0,0,.075.009" transform="translate(-1937.314 -795.437)"/>
        <path id="Path_1026025" data-name="Path 1026025" d="M2230.052,961.394l5.226-1.844a.1.1,0,0,0,.058-.122.092.092,0,0,0-.122-.059l-5.049,1.782-1.727-4.785a.1.1,0,1,0-.179.065Z" transform="translate(-2003.373 -859.789)"/>
        <path id="Path_1026026" data-name="Path 1026026" d="M2170.6,1084.133l5.69-2.055a.1.1,0,0,0-.065-.181l-5.5,1.987-1.536-5.049a.1.1,0,0,0-.119-.065h0a.1.1,0,0,0-.063.12Z" transform="translate(-1950.101 -969.895)"/>
        <path id="Path_1026027" data-name="Path 1026027" d="M1924.887,1123.952a5.217,5.217,0,0,0,.053-.743,5.355,5.355,0,0,0-5.419-5.288,5.5,5.5,0,0,0-2.6.65,8.4,8.4,0,0,0-10.677-4.087,8.832,8.832,0,0,0-16.23-.086,8.57,8.57,0,0,0-11.383,9.555Z" transform="translate(-1688.913 -997.161)" fill="#fff"/>
        <path id="Path_1026028" data-name="Path 1026028" d="M1924.707,1123.774h-46.3l0-.018a8.705,8.705,0,0,1-.134-1.518,8.591,8.591,0,0,1,11.527-8.068,8.854,8.854,0,0,1,16.254.085,8.414,8.414,0,0,1,10.674,4.086,5.558,5.558,0,0,1,2.595-.641,5.383,5.383,0,0,1,5.441,5.31,5.286,5.286,0,0,1-.054.746Zm-46.26-.044h46.22a5.136,5.136,0,0,0,.051-.721,5.339,5.339,0,0,0-5.4-5.266,5.51,5.51,0,0,0-2.594.647l-.02.01-.01-.021a8.377,8.377,0,0,0-10.649-4.076l-.02.008-.008-.02a8.809,8.809,0,0,0-16.188-.086l-.008.019-.021-.007a8.546,8.546,0,0,0-11.485,8.019,8.665,8.665,0,0,0,.13,1.493" transform="translate(-1688.713 -996.961)"/>
        <path id="Path_1026029" data-name="Path 1026029" d="M2199.253,1130.788a34.042,34.042,0,0,1,16.82-10.876,28.451,28.451,0,0,1,8.546-1.145l0-.033a28.484,28.484,0,0,0-8.557,1.147,33.436,33.436,0,0,0-8.21,3.528,34.826,34.826,0,0,0-8.625,7.358Z" transform="translate(-1977.277 -1005.816)"/>
        <path id="Path_1026030" data-name="Path 1026030" d="M2336.922,1070.736c-.947,1.955.184,4.447.184,4.447s2.667-.677,3.614-2.632-.183-4.447-.183-4.447-2.667.677-3.615,2.632" transform="translate(-2100.735 -960.309)" fill="#f9ca62"/>
        <path id="Path_1026031" data-name="Path 1026031" d="M2336.968,1075.016c-.012-.025-1.123-2.522-.184-4.462s3.6-2.635,3.626-2.641l.013,0,.006.012c.011.025,1.124,2.522.184,4.462s-3.6,2.634-3.625,2.641l-.014,0Zm-.154-4.448c-.9,1.854.094,4.226.179,4.421.206-.056,2.691-.765,3.59-2.62s-.094-4.226-.178-4.421c-.206.056-2.692.766-3.591,2.62" transform="translate(-2100.611 -960.133)"/>
        <path id="Path_1026032" data-name="Path 1026032" d="M2279.912,1165.5c-1.933-.931-4.435.228-4.435.228s.631,2.67,2.564,3.6,4.435-.228,4.435-.228-.631-2.67-2.563-3.6" transform="translate(-2045.831 -1047.545)" fill="#f9ca62"/>
        <path id="Path_1026033" data-name="Path 1026033" d="M2275.287,1165.605l0-.013.013-.006c.025-.012,2.531-1.152,4.449-.228a3.483,3.483,0,0,1,.6.373,6.511,6.511,0,0,1,1.969,3.239l0,.013-.013.006c-.025.012-2.531,1.152-4.449.228a3.477,3.477,0,0,1-.6-.373,6.517,6.517,0,0,1-1.969-3.239m5.041.153a3.41,3.41,0,0,0-.6-.37c-1.833-.884-4.212.135-4.408.222a6.453,6.453,0,0,0,1.954,3.208,3.431,3.431,0,0,0,.6.37c1.833.884,4.213-.135,4.409-.222a6.452,6.452,0,0,0-1.954-3.207" transform="translate(-2045.656 -1047.423)"/>
        <path id="Path_1026034" data-name="Path 1026034" d="M2430.318,1095.736c-2.15.172-3.753,2.427-3.753,2.427s1.884,1.976,4.034,1.8,3.753-2.427,3.753-2.427-1.884-1.975-4.034-1.8" transform="translate(-2181.67 -985.142)" fill="#f9ca62"/>
        <path id="Path_1026035" data-name="Path 1026035" d="M2426.363,1098.022l-.009-.01.008-.012c.016-.022,1.632-2.262,3.766-2.433a5.108,5.108,0,0,1,3.36,1.209,6.611,6.611,0,0,1,.687.6l.009.01-.008.011c-.016.023-1.632,2.263-3.766,2.434a5.1,5.1,0,0,1-3.359-1.208,6.687,6.687,0,0,1-.688-.6m7.1-1.219a5.077,5.077,0,0,0-3.338-1.2c-2.039.163-3.605,2.236-3.733,2.408a6.881,6.881,0,0,0,.675.587,5.075,5.075,0,0,0,3.337,1.2c2.04-.163,3.605-2.235,3.733-2.408a6.723,6.723,0,0,0-.674-.586" transform="translate(-2181.481 -984.99)"/>
        <path id="Path_1026036" data-name="Path 1026036" d="M528.046,332.529a2.7,2.7,0,1,0,1.338-3.579,2.7,2.7,0,0,0-1.338,3.579" transform="translate(-474.535 -295.532)" fill="#f9ca62"/>
        <path id="Path_1026037" data-name="Path 1026037" d="M557.3,332.515l-.024-.058a1.927,1.927,0,0,0,.612-.4l.043.045a1.973,1.973,0,0,1-.56.382l-.071.031m-1.48.008.023-.058a1.92,1.92,0,0,0,.718.135v.062a1.973,1.973,0,0,1-.741-.14m2.484-1.065a1.917,1.917,0,0,0,.163-.712l.062,0a1.978,1.978,0,0,1-.169.735Zm-3.557.045a2.048,2.048,0,0,1-.106-.292l.06-.017a1.957,1.957,0,0,0,.1.282,1.908,1.908,0,0,0,.423.6l-.043.045a1.977,1.977,0,0,1-.437-.614m3.606-1.478c-.017-.047-.036-.094-.057-.139a1.923,1.923,0,0,0-.318-.487l.046-.042a1.988,1.988,0,0,1,.329.5c.021.047.041.1.059.143Zm-3.772.435a1.983,1.983,0,0,1,.226-.72l.055.029a1.921,1.921,0,0,0-.219.7Zm2.109-1.692,0-.062a1.979,1.979,0,0,1,.728.2l-.028.056a1.912,1.912,0,0,0-.7-.191m-1.405.389a2,2,0,0,1,.661-.362l.019.059a1.947,1.947,0,0,0-.641.351Z" transform="translate(-498.612 -295.532)"/>
        <rect id="Rectangle_457742" data-name="Rectangle 457742" width="16.219" height="0.134" transform="translate(72.961 137.137)"/>
        <rect id="Rectangle_457743" data-name="Rectangle 457743" width="16.219" height="0.134" transform="translate(90.738 139.8)"/>
        <rect id="Rectangle_457744" data-name="Rectangle 457744" width="33.179" height="0.134" transform="translate(167.538 132.915)"/>
        <rect id="Rectangle_457745" data-name="Rectangle 457745" width="33.179" height="0.134" transform="translate(147.115 139.733)"/>
        <path id="Path_1026038" data-name="Path 1026038" d="M297.7,870.414c-19.835,0-35.915,16.885-35.915,37.713h71.829c0-20.828-16.079-37.713-35.914-37.713" transform="translate(-235.365 -782.57)" fill="#f9ca62"/>
        <path id="Path_1026039" data-name="Path 1026039" d="M333.348,907.835h-71.9V907.8a39.143,39.143,0,0,1,2.825-14.694,37.782,37.782,0,0,1,7.7-12,35.791,35.791,0,0,1,11.427-8.09,34.486,34.486,0,0,1,27.984,0,35.79,35.79,0,0,1,11.427,8.09,37.786,37.786,0,0,1,7.7,12,39.146,39.146,0,0,1,2.825,14.694Zm-71.829-.074H333.28c-.02-20.757-16.108-37.639-35.881-37.639S261.538,887,261.519,907.761" transform="translate(-235.065 -782.241)"/>
        <path id="Path_1026040" data-name="Path 1026040" d="M260.551,867.072s-5.194-2.025-3.121-6.219a35.629,35.629,0,0,1,19.712-16.41c11.162-3.574,17.2-2.947,25.669-.953,14.193,3.341,21.041,19.07,21.041,19.07s-7.577-7.89-15.605-11.142a41.343,41.343,0,0,0-37.932,4.892c-4.235,2.873-9.764,10.761-9.764,10.761" transform="translate(-231.01 -756.913)" fill="#eabb5e"/>
        <path id="Path_1026041" data-name="Path 1026041" d="M260.264,866.788l-.023-.009c-.027-.011-2.69-1.07-3.436-3.194a3.873,3.873,0,0,1,.3-3.077,35.593,35.593,0,0,1,19.732-16.428,45.634,45.634,0,0,1,14.2-2.568,48.8,48.8,0,0,1,11.482,1.614,25.492,25.492,0,0,1,9.287,4.394,35.49,35.49,0,0,1,6.574,6.405,41.408,41.408,0,0,1,5.2,8.29l.079.181-.132-.138c-.076-.079-7.664-7.921-15.594-11.134a38.646,38.646,0,0,0-14.132-2.545,41.692,41.692,0,0,0-23.771,7.433c-4.181,2.837-9.7,10.674-9.755,10.753Zm30.774-25.2a45.573,45.573,0,0,0-14.185,2.565,35.516,35.516,0,0,0-19.692,16.392,3.8,3.8,0,0,0-.293,3.016c.7,1.988,3.111,3.033,3.373,3.142.326-.461,5.674-7.979,9.757-10.749a43.323,43.323,0,0,1,12.436-5.861,41.455,41.455,0,0,1,11.371-1.584,38.7,38.7,0,0,1,14.155,2.55c7.358,2.98,14.419,9.938,15.48,11.01a42.216,42.216,0,0,0-5.112-8.094c-3.177-3.964-8.5-9.051-15.823-10.774a48.753,48.753,0,0,0-11.467-1.612" transform="translate(-230.712 -756.585)"/>
        <path id="Path_1026042" data-name="Path 1026042" d="M415.244,991.568a21.535,21.535,0,0,1,12.267-9.869c7.179-2.271,10.9-1.309,15.6.178,5.43,1.717,11.774,7.549,11.418,8.732-.239.793-5.969-2.92-8-3.741-3.949-1.6-13.958-6.637-23.877,3.079-7.1,6.95-8.722,4.26-7.416,1.621" transform="translate(-372.967 -881.409)" fill="#eabb5e"/>
        <path id="Path_1026043" data-name="Path 1026043" d="M415.678,994.074a1.09,1.09,0,0,1-1.029-.543,2.654,2.654,0,0,1,.248-2.308,18.9,18.9,0,0,1,4.071-5.125,22.3,22.3,0,0,1,8.217-4.762,25.526,25.526,0,0,1,7.675-1.353,25.045,25.045,0,0,1,7.948,1.531c4.932,1.56,10.447,6.389,11.327,8.211a.838.838,0,0,1,.114.567c-.027.09-.109.135-.242.136h0c-.658,0-2.638-1.1-4.553-2.163-1.289-.716-2.507-1.392-3.245-1.691-.228-.092-.477-.2-.745-.309a25.758,25.758,0,0,0-9.99-2.423c-4.767,0-9.177,1.953-13.109,5.8-3.735,3.659-5.7,4.427-6.688,4.427m19.182-14.017a25.461,25.461,0,0,0-7.656,1.35,22.227,22.227,0,0,0-8.192,4.747,18.821,18.821,0,0,0-4.055,5.1,2.618,2.618,0,0,0-.25,2.235,1.027,1.027,0,0,0,.971.507c.8,0,2.727-.573,6.642-4.408,3.944-3.864,8.37-5.823,13.154-5.823a25.808,25.808,0,0,1,10.014,2.428c.268.112.516.216.744.308.741.3,1.96.977,3.252,1.694,1.908,1.059,3.881,2.155,4.522,2.155.153,0,.172-.064.178-.085a.769.769,0,0,0-.109-.51c-.876-1.813-6.37-6.62-11.286-8.175a24.992,24.992,0,0,0-7.929-1.528" transform="translate(-372.65 -881.081)"/>
        <path id="Path_1026044" data-name="Path 1026044" d="M183.842,1248.539s5.486-4.924,7.866-4.941c17.436-.126,71.829,0,71.829,0l2.862,4.959h-21.25s-1.491-3.763-13.085-3.578c-7.56.12-11.461,3.546-11.461,3.546Z" transform="translate(-165.288 -1118.041)" fill="#eabb5e"/>
        <path id="Path_1026045" data-name="Path 1026045" d="M265.621,1248.266H244.287l-.009-.022a4.305,4.305,0,0,0-2.061-1.78c-1.558-.813-4.589-1.783-10.176-1.783-.267,0-.542,0-.816.007-7.46.119-11.4,3.5-11.44,3.538l-.009.008h-.012l-36.856.014.073-.065c.055-.049,5.523-4.932,7.887-4.949,5.142-.037,14.015-.056,26.372-.056,21.04,0,45.216.056,45.457.056h.018Zm-21.29-.074H265.5l-2.819-4.885c-.8,0-24.648-.056-45.438-.056-12.357,0-21.23.019-26.372.056-2.192.016-7.109,4.283-7.771,4.867l36.654-.014a13.021,13.021,0,0,1,2.894-1.725,21.6,21.6,0,0,1,8.578-1.821c.274,0,.55-.007.817-.007,5.61,0,8.652.977,10.217,1.8a4.426,4.426,0,0,1,2.073,1.789" transform="translate(-164.449 -1117.713)"/>
        <path id="Path_1026046" data-name="Path 1026046" d="M939.141,425.965c-26.078,8.343-41.2-6.766-41.2-6.766s-15.12,15.109-41.2,6.766c-2.517,17.628-3.608,67.7,41.2,89.974,44.954-24.109,43.715-72.347,41.2-89.974" transform="translate(-769.395 -376.892)" fill="#f9ca62"/>
        <path id="Path_1026047" data-name="Path 1026047" d="M897.537,515.409l-.022-.01a72.311,72.311,0,0,1-25.71-20.99,77.612,77.612,0,0,1-12.659-25.769,102.614,102.614,0,0,1-3.78-24.893,108.414,108.414,0,0,1,.926-18.371l.008-.054.052.017a50.39,50.39,0,0,0,15.331,2.51,40.958,40.958,0,0,0,19.117-4.634,30.386,30.386,0,0,0,6.7-4.631l.033-.033.033.033a30.4,30.4,0,0,0,6.705,4.633,40.95,40.95,0,0,0,19.111,4.632h0a50.4,50.4,0,0,0,15.331-2.51l.052-.017.008.054a106.221,106.221,0,0,1,.947,18.113,99.42,99.42,0,0,1-3.745,24.463,78.852,78.852,0,0,1-12.652,25.682A78.021,78.021,0,0,1,897.558,515.4Zm-41.16-89.966c-1.556,10.957-6.745,66.033,41.158,89.862,46.48-24.94,43.271-75.012,41.16-89.862a50.468,50.468,0,0,1-15.307,2.5h0a41.035,41.035,0,0,1-19.158-4.644,30.961,30.961,0,0,1-6.691-4.616,30.979,30.979,0,0,1-6.692,4.615,41.054,41.054,0,0,1-19.16,4.645,50.455,50.455,0,0,1-15.307-2.5" transform="translate(-768.988 -376.31)"/>
        <path id="Path_1026048" data-name="Path 1026048" d="M870.353,487.8a2.746,2.746,0,0,1-1.227-.292,75.388,75.388,0,0,1-26.795-21.9,81.272,81.272,0,0,1-13.26-26.982A112.407,112.407,0,0,1,826.1,393.7a3.625,3.625,0,0,1,1.387-2.422,2.752,2.752,0,0,1,2.493-.429,47.723,47.723,0,0,0,14.517,2.382c15.235,0,23.74-8.323,23.825-8.407a2.8,2.8,0,0,1,4.056,0,28.171,28.171,0,0,0,6.209,4.215,38.28,38.28,0,0,0,17.612,4.192h0a47.734,47.734,0,0,0,14.517-2.382,2.753,2.753,0,0,1,2.493.429A3.627,3.627,0,0,1,914.6,393.7a110.334,110.334,0,0,1,.986,18.811,103.429,103.429,0,0,1-3.9,25.446,82.511,82.511,0,0,1-13.241,26.874,81.126,81.126,0,0,1-26.787,22.645,2.758,2.758,0,0,1-1.306.333m-38.6-89.119c-1.513,15.762-1.909,60.609,38.551,81.648,39.935-22.276,40.4-64.262,38.656-81.651a51.658,51.658,0,0,1-12.757,1.66,42.416,42.416,0,0,1-25.853-8.419,42.429,42.429,0,0,1-25.852,8.419,51.642,51.642,0,0,1-12.746-1.657" transform="translate(-741.805 -345.199)" fill="#4b797f"/>
        <path id="Path_1026049" data-name="Path 1026049" d="M869.665,487.1a2.8,2.8,0,0,1-1.257-.3,75.464,75.464,0,0,1-26.822-21.923,81.36,81.36,0,0,1-13.276-27.013,112.515,112.515,0,0,1-2.97-44.977,3.722,3.722,0,0,1,1.422-2.482,2.87,2.87,0,0,1,1.706-.573,2.791,2.791,0,0,1,.849.133,47.651,47.651,0,0,0,14.5,2.379c15.211,0,23.69-8.3,23.774-8.385a2.864,2.864,0,0,1,4.157,0,28.445,28.445,0,0,0,6.189,4.2,38.212,38.212,0,0,0,17.581,4.184,47.665,47.665,0,0,0,14.5-2.379,2.787,2.787,0,0,1,.849-.133,2.869,2.869,0,0,1,1.707.573,3.724,3.724,0,0,1,1.422,2.482,110.416,110.416,0,0,1,.986,18.828,103.54,103.54,0,0,1-3.9,25.471,82.6,82.6,0,0,1-13.257,26.9A81.2,81.2,0,0,1,871,486.758a2.8,2.8,0,0,1-1.339.342m-41.2-97.09a2.73,2.73,0,0,0-1.623.545,3.541,3.541,0,0,0-1.352,2.361,112.3,112.3,0,0,0,2.964,44.893A81.169,81.169,0,0,0,841.7,464.76a75.3,75.3,0,0,0,26.767,21.877,2.66,2.66,0,0,0,2.47-.04A81.044,81.044,0,0,0,897.7,463.974a82.42,82.42,0,0,0,13.227-26.844,103.329,103.329,0,0,0,3.9-25.421,110.219,110.219,0,0,0-.985-18.793,3.54,3.54,0,0,0-1.352-2.361,2.733,2.733,0,0,0-1.623-.545,2.658,2.658,0,0,0-.807.127,47.8,47.8,0,0,1-14.537,2.386,38.352,38.352,0,0,1-17.647-4.2,28.043,28.043,0,0,1-6.227-4.228,2.724,2.724,0,0,0-3.955,0c-.084.085-8.607,8.429-23.875,8.429a47.79,47.79,0,0,1-14.537-2.386,2.658,2.658,0,0,0-.808-.127m41.151,89.628-.033-.017c-17.416-9.056-29.211-23.474-35.057-42.854-4.8-15.913-4.278-31.193-3.539-38.884l.01-.1.084.022a51.65,51.65,0,0,0,12.729,1.655,42.146,42.146,0,0,0,25.808-8.4l.043-.033.043.033a42.133,42.133,0,0,0,25.807,8.4,51.678,51.678,0,0,0,12.743-1.658l.084-.021.01.1c1.715,17.129,1.379,59.385-38.7,81.741ZM831.134,398c-1.681,17.678-1.242,60.759,38.483,81.441,39.884-22.268,40.29-64.294,38.59-81.444a51.782,51.782,0,0,1-12.69,1.641,42.291,42.291,0,0,1-25.853-8.4,42.3,42.3,0,0,1-25.851,8.4A51.753,51.753,0,0,1,831.134,398" transform="translate(-741.117 -344.405)"/>
        <path id="Path_1026050" data-name="Path 1026050" d="M1076.206,678.125a3.664,3.664,0,0,1-3.08-1.819l-17.447-27.986a4.8,4.8,0,0,1,.871-6.086,3.483,3.483,0,0,1,5.289,1l14.287,22.916,19.893-33.61a3.494,3.494,0,0,1,5.267-1.15,4.784,4.784,0,0,1,1,6.059l-22.945,38.768a3.687,3.687,0,0,1-3.086,1.906h-.046" transform="translate(-948.498 -566.99)" fill="#4b797f"/>
        <path id="Path_1026051" data-name="Path 1026051" d="M1075.532,677.421a3.748,3.748,0,0,1-3.143-1.856l-17.447-27.987a4.9,4.9,0,0,1,.889-6.209,3.512,3.512,0,0,1,2.251-.835,3.749,3.749,0,0,1,3.146,1.857L1075.45,665.2l19.831-33.505a3.755,3.755,0,0,1,3.2-1.945,3.506,3.506,0,0,1,2.174.772,4.888,4.888,0,0,1,1.02,6.183l-22.945,38.768a3.766,3.766,0,0,1-3.15,1.945Zm-17.45-36.709a3.373,3.373,0,0,0-2.161.8,4.706,4.706,0,0,0-.853,5.961l17.447,27.987a3.6,3.6,0,0,0,3.017,1.782h.046a3.616,3.616,0,0,0,3.023-1.867l22.945-38.768a4.693,4.693,0,0,0-.979-5.935,3.365,3.365,0,0,0-2.087-.741,3.6,3.6,0,0,0-3.072,1.868l-19.956,33.716-.064-.1L1061.1,642.495a3.6,3.6,0,0,0-3.02-1.783" transform="translate(-947.825 -566.197)"/>
        <path id="Path_1026052" data-name="Path 1026052" d="M945.416,394.812a3.724,3.724,0,0,0-1.305-2.546,2.87,2.87,0,0,0-1.678-.652,2.784,2.784,0,0,0-.854.094,47.668,47.668,0,0,1-14.593,1.7,38.212,38.212,0,0,1-17.368-4.994,28.423,28.423,0,0,1-5.988-4.483,2.864,2.864,0,0,0-4.153-.193c-.088.08-8.942,7.979-24.136,7.274a47.66,47.66,0,0,1-14.37-3.048,2.776,2.776,0,0,0-.842-.172,2.869,2.869,0,0,0-1.731.494,3.72,3.72,0,0,0-1.535,2.414,112.516,112.516,0,0,0,.883,45.066,81.353,81.353,0,0,0,12.01,27.6,75.469,75.469,0,0,0,25.777,23.143,2.794,2.794,0,0,0,2.6.077,81.192,81.192,0,0,0,27.834-21.4,82.6,82.6,0,0,0,14.488-26.261,103.5,103.5,0,0,0,5.079-25.263A110.462,110.462,0,0,0,945.416,394.812Z" transform="translate(-768.707 -344.296)" fill="none" stroke="#000" stroke-miterlimit="10" stroke-width="1" stroke-dasharray="11.986 11.986"/>
        <rect id="Rectangle_457746" data-name="Rectangle 457746" width="0.141" height="24.221" transform="matrix(0.416, -0.91, 0.91, 0.416, 9.151, 106.137)"/>
        <path id="Path_1026053" data-name="Path 1026053" d="M139.833,1122.653l-.8-.364.058-.128.8.363Zm-2.919-1.334-2.124-.97.058-.128,2.124.97Zm-4.247-1.941-2.123-.97.058-.128,2.123.97Zm-4.247-1.941-2.123-.97.058-.128,2.123.97Zm-4.247-1.94-2.123-.971.058-.127,2.124.97Zm-4.247-1.941-2.123-.97.058-.128,2.124.97Z" transform="translate(-105.915 -1000.186)"/>
      </g>
    </g>
  </g>
</svg>
