<svg xmlns="http://www.w3.org/2000/svg" xmlns:xlink="http://www.w3.org/1999/xlink" width="90" height="90" viewBox="0 0 90 90">
  <defs>
    <clipPath id="clip-path">
      <rect id="Rectangle_458715" data-name="Rectangle 458715" width="59.384" height="54.55" fill="none"/>
    </clipPath>
  </defs>
  <g id="img46" transform="translate(-338.711 -12699)">
    <circle id="Ellipse_13756" data-name="Ellipse 13756" cx="45" cy="45" r="45" transform="translate(338.711 12699)" fill="#fff"/>
    <g id="Group_1183539" data-name="Group 1183539" transform="translate(354.019 12716.725)">
      <g id="Group_1183538" data-name="Group 1183538" transform="translate(0 0)" clip-path="url(#clip-path)">
        <path id="Path_1029344" data-name="Path 1029344" d="M25.281,33.959a4,4,0,0,1,3.984-3.985h6.376a6.261,6.261,0,0,1,1.062-2.3V6.4a2.173,2.173,0,0,0-2.169-2.169H30.351V2.169A2.173,2.173,0,0,0,28.181,0H8.523a2.173,2.173,0,0,0-2.17,2.169V4.228H2.169A2.173,2.173,0,0,0,0,6.4V49.323a2.173,2.173,0,0,0,2.169,2.169H26.7V41.131a3.822,3.822,0,0,1-1.416-2.966Zm.6-23.245a1.512,1.512,0,0,1,1.527-1.505h3.122a1.512,1.512,0,0,1,1.527,1.505v3.122a1.53,1.53,0,0,1-1.527,1.527H27.406a1.53,1.53,0,0,1-1.527-1.527Zm0,10.272a1.512,1.512,0,0,1,1.527-1.505h3.122a1.512,1.512,0,0,1,1.527,1.505v3.121a1.53,1.53,0,0,1-1.527,1.528H27.406a1.53,1.53,0,0,1-1.527-1.528ZM10.825,44.673A1.525,1.525,0,0,1,9.3,46.179H6.176a1.525,1.525,0,0,1-1.527-1.505V41.53a1.526,1.526,0,0,1,1.527-1.506H9.3a1.526,1.526,0,0,1,1.527,1.506Zm0-10.293A1.531,1.531,0,0,1,9.3,35.907H6.176A1.531,1.531,0,0,1,4.649,34.38V31.258a1.511,1.511,0,0,1,1.527-1.5H9.3a1.511,1.511,0,0,1,1.527,1.5Zm0-10.273A1.53,1.53,0,0,1,9.3,25.635H6.176a1.53,1.53,0,0,1-1.527-1.528V20.986a1.512,1.512,0,0,1,1.527-1.505H9.3a1.512,1.512,0,0,1,1.527,1.505Zm0-10.272A1.53,1.53,0,0,1,9.3,15.363H6.176a1.53,1.53,0,0,1-1.527-1.527V10.714A1.512,1.512,0,0,1,6.176,9.209H9.3a1.512,1.512,0,0,1,1.527,1.505Zm10.6,30.837A1.525,1.525,0,0,1,19.9,46.179H16.781a1.506,1.506,0,0,1-1.505-1.505V41.53a1.507,1.507,0,0,1,1.505-1.506H19.9a1.526,1.526,0,0,1,1.527,1.506Zm0-10.293A1.531,1.531,0,0,1,19.9,35.907H16.781a1.512,1.512,0,0,1-1.505-1.527V31.258a1.492,1.492,0,0,1,1.505-1.5H19.9a1.511,1.511,0,0,1,1.527,1.5Zm0-10.273A1.53,1.53,0,0,1,19.9,25.635H16.781a1.512,1.512,0,0,1-1.505-1.528V20.986a1.493,1.493,0,0,1,1.505-1.505H19.9a1.512,1.512,0,0,1,1.527,1.505Zm0-10.272A1.53,1.53,0,0,1,19.9,15.363H16.781a1.511,1.511,0,0,1-1.505-1.527V10.714a1.493,1.493,0,0,1,1.505-1.505H19.9a1.512,1.512,0,0,1,1.527,1.505Z" transform="translate(0 0)" fill="#203a72"/>
        <path id="Path_1029345" data-name="Path 1029345" d="M78.374,86.063a3.5,3.5,0,0,1-3.492,3.49h-5a3.493,3.493,0,0,1-3.492-3.49v-.008a33.343,33.343,0,0,1-8.214-2.435V93.681a2.025,2.025,0,0,0,2.052,1.989H84.539a2.021,2.021,0,0,0,2.045-1.989V83.619a33.4,33.4,0,0,1-8.211,2.435Z" transform="translate(-28.611 -41.12)" fill="#14a0de"/>
        <path id="Rectangle_458714" data-name="Rectangle 458714" d="M1.594,0h3.43A1.593,1.593,0,0,1,6.617,1.593v.946a1.6,1.6,0,0,1-1.6,1.6H1.594A1.594,1.594,0,0,1,0,2.54V1.594A1.594,1.594,0,0,1,1.594,0Z" transform="translate(40.465 41.618)" fill="#14a0de"/>
        <path id="Path_1029346" data-name="Path 1029346" d="M85.539,59.822H76.427V58.327A3.511,3.511,0,0,0,72.92,54.82H69.137a3.511,3.511,0,0,0-3.507,3.507v1.495H56.511a1.1,1.1,0,0,0-1.091,1.1v4.211a.968.968,0,0,0,.476.839,28.646,28.646,0,0,0,9.15,3.2A3.492,3.492,0,0,1,68.529,65.9h5a3.493,3.493,0,0,1,3.483,3.277,28.711,28.711,0,0,0,9.154-3.2.97.97,0,0,0,.476-.839V60.919a1.1,1.1,0,0,0-1.1-1.1m-11.754,0H68.271V58.327a.867.867,0,0,1,.866-.866H72.92a.867.867,0,0,1,.865.866Z" transform="translate(-27.253 -26.958)" fill="#14a0de"/>
      </g>
    </g>
  </g>
</svg>
