<svg xmlns="http://www.w3.org/2000/svg" xmlns:xlink="http://www.w3.org/1999/xlink" width="90" height="90" viewBox="0 0 90 90">
  <defs>
    <clipPath id="clip-path">
      <rect id="Rectangle_458713" data-name="Rectangle 458713" width="66.23" height="61.645" fill="none"/>
    </clipPath>
  </defs>
  <g id="img45" transform="translate(-338.711 -12699)">
    <circle id="Ellipse_13756" data-name="Ellipse 13756" cx="45" cy="45" r="45" transform="translate(338.711 12699)" fill="#fff"/>
    <g id="Group_1183535" data-name="Group 1183535" transform="translate(351.096 12713.178)">
      <g id="Group_1183534" data-name="Group 1183534" transform="translate(0 0)" clip-path="url(#clip-path)">
        <path id="Path_1029342" data-name="Path 1029342" d="M64.428,43.358h-6.01V35.8c2.245-.866,3.928-3.742,3.928-7.18,0-4.116-2.385-7.46-5.332-7.46s-5.356,3.344-5.356,7.46c0,3.438,1.684,6.314,3.929,7.18v7.554H47.427V1.8a1.8,1.8,0,0,0-1.8-1.8H20.58A1.782,1.782,0,0,0,18.8,1.8V43.358H10.617V35.8c2.245-.866,3.929-3.742,3.929-7.18,0-4.116-2.385-7.46-5.332-7.46s-5.332,3.344-5.332,7.46c0,3.438,1.66,6.314,3.929,7.18v7.554H1.8a1.786,1.786,0,0,0-1.8,1.8v.515a1.8,1.8,0,0,0,1.8,1.8H22.17a11.993,11.993,0,0,1,21.866,0H64.428a1.817,1.817,0,0,0,1.8-1.8v-.515a1.8,1.8,0,0,0-1.8-1.8M30.168,35.243a.594.594,0,0,1-.585.585H25.257a.594.594,0,0,1-.584-.585v-4.3a.594.594,0,0,1,.584-.585h4.327a.594.594,0,0,1,.585.585Zm0-11.787a.594.594,0,0,1-.585.585H25.257a.593.593,0,0,1-.584-.585v-4.3a.593.593,0,0,1,.584-.585h4.327a.594.594,0,0,1,.585.585Zm0-11.763a.611.611,0,0,1-.585.585H25.257a.61.61,0,0,1-.584-.585V7.366a.61.61,0,0,1,.584-.585h4.327a.611.611,0,0,1,.585.585Zm11.366,23.55a.579.579,0,0,1-.585.585h-4.3a.579.579,0,0,1-.585-.585v-4.3a.579.579,0,0,1,.585-.585h4.3a.579.579,0,0,1,.585.585Zm0-11.787a.579.579,0,0,1-.585.585h-4.3a.579.579,0,0,1-.585-.585v-4.3a.579.579,0,0,1,.585-.585h4.3a.579.579,0,0,1,.585.585Zm0-11.763a.594.594,0,0,1-.585.585h-4.3a.594.594,0,0,1-.585-.585V7.366a.594.594,0,0,1,.585-.585h4.3a.594.594,0,0,1,.585.585Z" transform="translate(0 0)" fill="#203a72"/>
        <path id="Path_1029343" data-name="Path 1029343" d="M50.895,75.394a9.214,9.214,0,1,0,9.214,9.214,9.214,9.214,0,0,0-9.214-9.214m1.019,14.243V90.7a.42.42,0,0,1-.42.42H50.3a.421.421,0,0,1-.42-.42V89.661a2.67,2.67,0,0,1-2.332-2.385.409.409,0,0,1,.1-.312.427.427,0,0,1,.316-.141h1.213a.411.411,0,0,1,.4.319.654.654,0,0,0,.636.514h1.061a1.066,1.066,0,0,0,1.081-.909,1.007,1.007,0,0,0-.257-.786,1.017,1.017,0,0,0-.753-.336H50.44a3.056,3.056,0,0,1-2.26-1A3.025,3.025,0,0,1,47.4,82.27a3.092,3.092,0,0,1,2.472-2.67V78.519a.42.42,0,0,1,.42-.42h1.2a.42.42,0,0,1,.42.42v1.035a2.67,2.67,0,0,1,2.332,2.385.4.4,0,0,1-.1.311.427.427,0,0,1-.316.14H52.612a.413.413,0,0,1-.4-.318.655.655,0,0,0-.635-.513H50.511a1.063,1.063,0,0,0-1.079.907,1.014,1.014,0,0,0,1.008,1.122h.781a3.148,3.148,0,0,1,3.165,2.747,3.042,3.042,0,0,1-2.472,3.3" transform="translate(-17.789 -32.177)" fill="#14a0de"/>
      </g>
    </g>
  </g>
</svg>
