<svg xmlns="http://www.w3.org/2000/svg" xmlns:xlink="http://www.w3.org/1999/xlink" width="90" height="90" viewBox="0 0 90 90">
  <defs>
    <clipPath id="clip-path">
      <rect id="Rectangle_458754" data-name="Rectangle 458754" width="64.592" height="41.503" transform="translate(0 0)" fill="none"/>
    </clipPath>
  </defs>
  <g id="img41" transform="translate(-338.711 -12699)">
    <circle id="Ellipse_13756" data-name="Ellipse 13756" cx="45" cy="45" r="45" transform="translate(338.711 12699)" fill="#fff"/>
    <g id="Group_1183622" data-name="Group 1183622" transform="translate(351.415 12723.248)">
      <g id="Group_1183621" data-name="Group 1183621" transform="translate(0 0)" clip-path="url(#clip-path)">
        <path id="Path_1029571" data-name="Path 1029571" d="M26.061,16.094A7.462,7.462,0,1,0,18.6,8.631a7.463,7.463,0,0,0,7.462,7.463" transform="translate(-10.983 -0.69)" fill="#203a72"/>
        <path id="Path_1029572" data-name="Path 1029572" d="M103.925,0H74.111a2.777,2.777,0,0,0-2.777,2.777v21.3c.014.014.028.014.028.028a8.89,8.89,0,0,0,2.749.333V2.777h29.828l-.014,24.579H81.3a5.192,5.192,0,0,1,.319,1.208,4.94,4.94,0,0,1-.042,1.569h22.343a2.779,2.779,0,0,0,2.791-2.778V2.777A2.788,2.788,0,0,0,103.925,0" transform="translate(-42.124 0)" fill="#203a72"/>
        <path id="Path_1029573" data-name="Path 1029573" d="M34.221,52.136c-1.261.172-4.385.286-6-.463-.911-.423-1.9-2.783-2.324-3.792-.214-.511-.4-.941-.555-1.241a5.59,5.59,0,0,0-5.331-3.059H10.571A6.128,6.128,0,0,0,4.948,47.2l-.3.555a34.211,34.211,0,0,0-2.991,6.533C1.161,56.19.1,61.571.054,61.8A2.858,2.858,0,1,0,5.662,62.9c.011-.054,1.073-5.437,1.525-7.166a16.918,16.918,0,0,1,1.179-2.774L7.994,65.377A1.807,1.807,0,0,0,9.8,67.238H20.356a1.808,1.808,0,0,0,1.807-1.862l-.385-12.8a9.307,9.307,0,0,0,4.038,4.278c3.552,1.65,8.613,1.02,9.178.944a2.858,2.858,0,0,0-.773-5.664" transform="translate(0 -25.735)" fill="#203a72"/>
        <path id="Path_1029574" data-name="Path 1029574" d="M88.854,19.786h19.383a1.389,1.389,0,1,0,0-2.777H88.854a1.389,1.389,0,0,0,0,2.777" transform="translate(-51.65 -10.044)" fill="#14a0de"/>
        <path id="Path_1029575" data-name="Path 1029575" d="M88.854,36.185h19.383a1.389,1.389,0,1,0,0-2.777H88.854a1.389,1.389,0,0,0,0,2.777" transform="translate(-51.65 -19.728)" fill="#14a0de"/>
        <path id="Path_1029576" data-name="Path 1029576" d="M88.854,52.584h19.383a1.389,1.389,0,1,0,0-2.777H88.854a1.389,1.389,0,0,0,0,2.777" transform="translate(-51.65 -29.412)" fill="#14a0de"/>
      </g>
    </g>
  </g>
</svg>
