<svg xmlns="http://www.w3.org/2000/svg" xmlns:xlink="http://www.w3.org/1999/xlink" width="127.921" height="128" viewBox="0 0 127.921 128">
  <defs>
    <clipPath id="clip-path">
      <rect id="Rectangle_458760" data-name="Rectangle 458760" width="62" height="62" transform="translate(0.067 0.067)" fill="none"/>
    </clipPath>
  </defs>
  <g id="img54" transform="translate(-705.978 -1710.002)">
    <g id="Group_1180300" data-name="Group 1180300" transform="translate(705.936 1710.002)">
      <g id="Grupo_155253" data-name="Grupo 155253" transform="matrix(0.999, 0.035, -0.035, 0.999, 4.319, 0)">
        <path id="Trazado_196478" data-name="Trazado 196478" d="M17.389,19.468q-.386.412-.764.831A64.6,64.6,0,0,0,.044,66.072L25.8,65.147C25.1,44.584,40.69,27.331,60.618,26.613S97.267,41.982,97.965,62.546l25.755-.925c-.869-25.6-16.481-48.187-39.655-57.372A60.525,60.525,0,0,0,17.389,19.475" transform="translate(0 0)" fill="#f9ce5d"/>
        <path id="Trazado_196479" data-name="Trazado 196479" d="M0,4.454C1.195,39.7,29.849,67.266,64,66.036S124.871,35.241,123.676,0L97.92.925c.7,20.563-14.891,37.815-34.819,38.533S26.453,24.089,25.755,3.526Z" transform="translate(0.042 57.68)" fill="#70f5c8"/>
      </g>
      <ellipse id="Ellipse_13685" data-name="Ellipse 13685" cx="49.806" cy="49.887" rx="49.806" ry="49.887" transform="translate(14.269 14.359)" fill="#fff"/>
    </g>
    <g id="Group_1183633" data-name="Group 1183633" transform="translate(738.979 1742.653)">
      <g id="Group_1183632" data-name="Group 1183632" clip-path="url(#clip-path)">
        <path id="Path_1029622" data-name="Path 1029622" d="M19.866,26.4a1.243,1.243,0,0,0,1.243-1.243V15.883A4.8,4.8,0,0,1,25.9,11.088h4.518a.193.193,0,0,1,.137.33l-.792.792a1.243,1.243,0,1,0,1.756,1.758L34.4,11.088l.2-.2a1.48,1.48,0,0,0,0-2.088l-.2-.2L31.522,5.721A1.243,1.243,0,0,0,29.766,7.48l.792.792a.193.193,0,0,1-.137.33H25.9a7.28,7.28,0,0,0-7.28,7.28v9.279A1.243,1.243,0,0,0,19.866,26.4" transform="translate(-14.766 -4.248)" fill="#174579"/>
        <path id="Path_1029623" data-name="Path 1029623" d="M25.161,216.071H15.883a4.8,4.8,0,0,1-4.795-4.795v-4.518a.193.193,0,0,1,.33-.137l.792.792a1.243,1.243,0,1,0,1.758-1.756l-2.881-2.881-.2-.2a1.48,1.48,0,0,0-2.088,0l-.2.2-2.881,2.881a1.243,1.243,0,0,0,1.758,1.756l.792-.792a.193.193,0,0,1,.33.137v4.518a7.28,7.28,0,0,0,7.28,7.28h9.279a1.243,1.243,0,1,0,0-2.485" transform="translate(-4.248 -160.279)" fill="#174579"/>
        <path id="Path_1029624" data-name="Path 1029624" d="M217.313,193.027a1.243,1.243,0,0,0-1.243,1.243v9.279a4.8,4.8,0,0,1-4.795,4.795h-4.518a.193.193,0,0,1-.137-.33l.792-.792a1.243,1.243,0,1,0-1.756-1.758l-2.881,2.881-.2.2a1.48,1.48,0,0,0,0,2.088l.2.2,2.881,2.881a1.243,1.243,0,1,0,1.756-1.758l-.792-.792a.193.193,0,0,1,.137-.33h4.518a7.28,7.28,0,0,0,7.28-7.28V194.27a1.243,1.243,0,0,0-1.243-1.243" transform="translate(-160.278 -153.048)" fill="#174579"/>
        <path id="Path_1029625" data-name="Path 1029625" d="M194.27,21.108h9.279a4.8,4.8,0,0,1,4.795,4.795v4.518a.193.193,0,0,1-.33.137l-.792-.792a1.243,1.243,0,1,0-1.758,1.756l2.881,2.881.2.2a1.48,1.48,0,0,0,2.088,0l.2-.2,2.881-2.881a1.243,1.243,0,1,0-1.758-1.756l-.792.792a.193.193,0,0,1-.33-.137V25.9a7.28,7.28,0,0,0-7.28-7.28H194.27a1.243,1.243,0,0,0,0,2.485" transform="translate(-153.048 -14.766)" fill="#174579"/>
        <path id="Path_1029626" data-name="Path 1029626" d="M120.242,13.1H129.6a1.874,1.874,0,0,0,1.874-1.874V1.874A1.874,1.874,0,0,0,129.6,0h-9.355a1.874,1.874,0,0,0-1.874,1.874v9.355a1.874,1.874,0,0,0,1.874,1.874" transform="translate(-93.852)" fill="#174579"/>
        <path id="Path_1029627" data-name="Path 1029627" d="M129.6,236.738h-9.355a1.874,1.874,0,0,0-1.874,1.874v9.355a1.874,1.874,0,0,0,1.874,1.874H129.6a1.874,1.874,0,0,0,1.874-1.874v-9.355a1.874,1.874,0,0,0-1.874-1.874" transform="translate(-93.853 -187.706)" fill="#174579"/>
        <path id="Path_1029628" data-name="Path 1029628" d="M247.967,118.369h-9.355a1.874,1.874,0,0,0-1.874,1.874V129.6a1.874,1.874,0,0,0,1.874,1.874h9.355a1.874,1.874,0,0,0,1.874-1.874v-9.355a1.874,1.874,0,0,0-1.874-1.874" transform="translate(-187.706 -93.853)" fill="#174579"/>
        <path id="Rectangle_458759" data-name="Rectangle 458759" d="M6.551,0h0A6.551,6.551,0,0,1,13.1,6.551v0A6.551,6.551,0,0,1,6.551,13.1h0A6.551,6.551,0,0,1,0,6.552v0A6.551,6.551,0,0,1,6.551,0Z" transform="translate(0 24.516)" fill="#174579"/>
        <path id="Path_1029629" data-name="Path 1029629" d="M104.44,100.579l-1.266-1.686a.793.793,0,0,1-.069-.848,12.086,12.086,0,0,0,.884-2.124.792.792,0,0,1,.647-.548l2.083-.3a.8.8,0,0,0,.687-.791v-3.88a.8.8,0,0,0-.687-.791l-2.083-.3a.792.792,0,0,1-.647-.548,12.084,12.084,0,0,0-.884-2.124.793.793,0,0,1,.069-.848l1.266-1.686a.8.8,0,0,0-.074-1.045l-2.744-2.743a.8.8,0,0,0-1.045-.074l-1.686,1.266a.793.793,0,0,1-.848.069A12.08,12.08,0,0,0,95.92,80.7a.792.792,0,0,1-.548-.647l-.3-2.083a.8.8,0,0,0-.791-.687h-3.88a.8.8,0,0,0-.791.687l-.3,2.083a.792.792,0,0,1-.548.647,12.086,12.086,0,0,0-2.124.884.792.792,0,0,1-.848-.069l-1.686-1.266a.8.8,0,0,0-1.045.074l-2.743,2.743a.8.8,0,0,0-.074,1.045L81.517,85.8a.793.793,0,0,1,.069.848,12.116,12.116,0,0,0-.884,2.124.792.792,0,0,1-.647.548l-2.083.3a.8.8,0,0,0-.687.791v3.88a.8.8,0,0,0,.687.791l2.083.3a.792.792,0,0,1,.647.548,12.118,12.118,0,0,0,.884,2.124.792.792,0,0,1-.069.848l-1.266,1.686a.8.8,0,0,0,.074,1.045l2.743,2.743a.8.8,0,0,0,1.045.074l1.686-1.266a.792.792,0,0,1,.848-.069,12.118,12.118,0,0,0,2.124.884.792.792,0,0,1,.548.647l.3,2.083a.8.8,0,0,0,.791.687h3.88a.8.8,0,0,0,.791-.687l.3-2.083a.792.792,0,0,1,.548-.647,12.112,12.112,0,0,0,2.124-.884.793.793,0,0,1,.848.069l1.686,1.266a.8.8,0,0,0,1.045-.074l2.744-2.743a.8.8,0,0,0,.074-1.045m-12.095,1.462a9.695,9.695,0,1,1,9.695-9.695,9.7,9.7,0,0,1-9.695,9.695" transform="translate(-61.278 -61.279)" fill="#1ea5db"/>
        <path id="Path_1029630" data-name="Path 1029630" d="M131.146,129.769l-5.5,5.5-2.05-2.051a1.243,1.243,0,0,0-1.757,1.757l2.855,2.855a1.349,1.349,0,0,0,1.905,0l6.3-6.3a1.243,1.243,0,1,0-1.757-1.757" transform="translate(-96.317 -102.603)" fill="#1ea5db"/>
      </g>
    </g>
  </g>
</svg>
