<svg xmlns="http://www.w3.org/2000/svg" xmlns:xlink="http://www.w3.org/1999/xlink" width="127.921" height="128" viewBox="0 0 127.921 128">
  <defs>
    <clipPath id="clip-path">
      <rect id="Rectangle_458757" data-name="Rectangle 458757" width="57.701" height="60.222" fill="none"/>
    </clipPath>
  </defs>
  <g id="img51" transform="translate(-705.978 -1710.002)">
    <g id="Group_1180300" data-name="Group 1180300" transform="translate(705.936 1710.002)">
      <g id="Grupo_155253" data-name="Grupo 155253" transform="matrix(0.999, 0.035, -0.035, 0.999, 4.319, 0)">
        <path id="Trazado_196478" data-name="Trazado 196478" d="M17.389,19.468q-.386.412-.764.831A64.6,64.6,0,0,0,.044,66.072L25.8,65.147C25.1,44.584,40.69,27.331,60.618,26.613S97.267,41.982,97.965,62.546l25.755-.925c-.869-25.6-16.481-48.187-39.655-57.372A60.525,60.525,0,0,0,17.389,19.475" transform="translate(0 0)" fill="#f9ce5d"/>
        <path id="Trazado_196479" data-name="Trazado 196479" d="M0,4.454C1.195,39.7,29.849,67.266,64,66.036S124.871,35.241,123.676,0L97.92.925c.7,20.563-14.891,37.815-34.819,38.533S26.453,24.089,25.755,3.526Z" transform="translate(0.042 57.68)" fill="#70f5c8"/>
      </g>
      <ellipse id="Ellipse_13685" data-name="Ellipse 13685" cx="49.806" cy="49.887" rx="49.806" ry="49.887" transform="translate(14.269 14.359)" fill="#fff"/>
    </g>
    <g id="Group_1183629" data-name="Group 1183629" transform="translate(741.085 1743.891)">
      <g id="Group_1183628" data-name="Group 1183628" clip-path="url(#clip-path)">
        <path id="Path_1029602" data-name="Path 1029602" d="M41.541,27.487H34.52v2.19h7.021a.866.866,0,0,1,.864.866V51.162a4.13,4.13,0,0,1,2.19-.66V30.543a3.058,3.058,0,0,0-3.054-3.056M2.19,78.469V30.543a.867.867,0,0,1,.867-.866h7.019v-2.19H3.056A3.059,3.059,0,0,0,0,30.543V78.469a3.061,3.061,0,0,0,3.056,3.059H33.6l.265-2.19H3.056a.867.867,0,0,1-.867-.869" transform="translate(0 -21.306)" fill="#174579"/>
        <path id="Path_1029603" data-name="Path 1029603" d="M73.5,3.88H68.62a.184.184,0,0,1-.184-.184,3.7,3.7,0,0,0-3.7-3.7H64.41a3.7,3.7,0,0,0-3.7,3.7.184.184,0,0,1-.184.184H55.653a1.111,1.111,0,0,0-1.111,1.111V9.56a1.111,1.111,0,0,0,1.111,1.111H73.5A1.111,1.111,0,0,0,74.607,9.56V4.992A1.111,1.111,0,0,0,73.5,3.88M64.575,5.93A2.049,2.049,0,1,1,66.624,3.88,2.049,2.049,0,0,1,64.575,5.93" transform="translate(-42.277)" fill="#174579"/>
        <path id="Path_1029604" data-name="Path 1029604" d="M103.93,81.556H89.089a1,1,0,0,1,0-1.99H103.93a1,1,0,1,1,0,1.99" transform="translate(-68.284 -61.673)" fill="#174579"/>
        <path id="Path_1029605" data-name="Path 1029605" d="M99.893,101.279h-10.8a1,1,0,1,1,0-1.99h10.8a1,1,0,0,1,0,1.99" transform="translate(-68.284 -76.961)" fill="#174579"/>
        <path id="Path_1029606" data-name="Path 1029606" d="M103.93,138.786H89.089a1,1,0,1,1,0-1.99H103.93a1,1,0,1,1,0,1.99" transform="translate(-68.284 -106.034)" fill="#174579"/>
        <path id="Path_1029607" data-name="Path 1029607" d="M99.893,158.509h-10.8a1,1,0,1,1,0-1.99h10.8a1,1,0,1,1,0,1.99" transform="translate(-68.284 -121.322)" fill="#174579"/>
        <path id="Path_1029608" data-name="Path 1029608" d="M99.959,196.015H89.09a.995.995,0,0,1,0-1.99h8.795a4.111,4.111,0,0,0,1.19,1.348Z" transform="translate(-68.284 -150.393)" fill="#174579"/>
        <path id="Path_1029609" data-name="Path 1029609" d="M99.893,215.739h-10.8a1,1,0,1,1,0-1.99h10.8a1,1,0,0,1,0,1.99" transform="translate(-68.284 -165.682)" fill="#174579"/>
        <path id="Path_1029610" data-name="Path 1029610" d="M38.874,75.364l.756,2.328a.418.418,0,0,0,.4.289h2.447a.418.418,0,0,1,.246.756l-1.98,1.439a.418.418,0,0,0-.152.468l.756,2.328a.418.418,0,0,1-.644.468L38.722,82a.418.418,0,0,0-.492,0l-1.98,1.439a.418.418,0,0,1-.643-.468l.756-2.328a.418.418,0,0,0-.152-.468l-1.98-1.439a.418.418,0,0,1,.246-.756h2.448a.418.418,0,0,0,.4-.289l.756-2.328a.418.418,0,0,1,.8,0" transform="translate(-26.399 -58.193)" fill="#174579"/>
        <path id="Path_1029611" data-name="Path 1029611" d="M38.874,132.6l.756,2.328a.418.418,0,0,0,.4.289h2.447a.418.418,0,0,1,.246.756l-1.98,1.439a.418.418,0,0,0-.152.468l.756,2.328a.418.418,0,0,1-.644.468l-1.98-1.439a.418.418,0,0,0-.492,0l-1.98,1.439a.418.418,0,0,1-.643-.468l.756-2.328a.418.418,0,0,0-.152-.468l-1.98-1.439a.418.418,0,0,1,.246-.756h2.448a.418.418,0,0,0,.4-.289l.756-2.328a.418.418,0,0,1,.8,0" transform="translate(-26.399 -102.554)" fill="#174579"/>
        <path id="Path_1029612" data-name="Path 1029612" d="M38.874,189.825l.756,2.328a.418.418,0,0,0,.4.289h2.447a.418.418,0,0,1,.246.757l-1.98,1.439a.418.418,0,0,0-.152.467l.756,2.328a.418.418,0,0,1-.644.468l-1.98-1.439a.419.419,0,0,0-.492,0L36.25,197.9a.418.418,0,0,1-.643-.468l.756-2.328a.418.418,0,0,0-.152-.467l-1.98-1.439a.418.418,0,0,1,.246-.757h2.448a.418.418,0,0,0,.4-.289l.756-2.328a.418.418,0,0,1,.8,0" transform="translate(-26.399 -146.914)" fill="#174579"/>
        <path id="Path_1029613" data-name="Path 1029613" d="M155.134,142.155l1.975,6.078a1.612,1.612,0,0,0,1.533,1.114h6.391a1.612,1.612,0,0,1,.948,2.916l-5.17,3.756a1.612,1.612,0,0,0-.586,1.8L162.2,163.9a1.612,1.612,0,0,1-2.481,1.8l-5.17-3.756a1.612,1.612,0,0,0-1.9,0l-5.17,3.756A1.612,1.612,0,0,1,145,163.9l1.975-6.078a1.612,1.612,0,0,0-.586-1.8l-5.17-3.756a1.612,1.612,0,0,1,.948-2.916h6.391a1.612,1.612,0,0,0,1.533-1.114l1.975-6.078a1.612,1.612,0,0,1,3.066,0" transform="translate(-108.947 -109.324)" fill="#1ea5db"/>
      </g>
    </g>
  </g>
</svg>
