<svg xmlns="http://www.w3.org/2000/svg" xmlns:xlink="http://www.w3.org/1999/xlink" width="83.947" height="83.994" viewBox="0 0 83.947 83.994">
  <defs>
    <clipPath id="clip-path">
      <rect id="Rectangle_458697" data-name="Rectangle 458697" width="39.289" height="35.636" fill="none"/>
    </clipPath>
  </defs>
  <g id="img5" transform="translate(-706.028 -1710)">
    <g id="Group_1180300" data-name="Group 1180300" transform="translate(706 1710)">
      <g id="Grupo_155253" data-name="Grupo 155253" transform="matrix(0.999, 0.035, -0.035, 0.999, 2.834, 0)">
        <path id="Trazado_196478" data-name="Trazado 196478" d="M11.413,12.382q-.253.262-.5.529A40.338,40.338,0,0,0,.029,42.021l16.9-.589a23.694,23.694,0,0,1,47.359-1.656l16.9-.589a40.606,40.606,0,0,0-69.778-26.8" transform="translate(0 0)" fill="#f9ce5d"/>
        <path id="Trazado_196479" data-name="Trazado 196479" d="M0,2.836A40.606,40.606,0,0,0,81.162,0L64.26.589A23.694,23.694,0,0,1,16.9,2.245Z" transform="translate(0.028 39.185)" fill="#70f5c8"/>
      </g>
      <ellipse id="Ellipse_13685" data-name="Ellipse 13685" cx="33.016" cy="33.016" rx="33.016" ry="33.016" transform="translate(8.983 9.09)" fill="#fff"/>
    </g>
    <g id="Group_1183501" data-name="Group 1183501" transform="translate(728.355 1734.18)">
      <g id="Group_1183500" data-name="Group 1183500" clip-path="url(#clip-path)">
        <path id="Path_1029265" data-name="Path 1029265" d="M20.408,7.96H31.484A1.33,1.33,0,0,0,32.8,6.646V4.055a1.33,1.33,0,0,0-1.314-1.314H29.419a3.595,3.595,0,0,0-6.984,0H20.37a1.33,1.33,0,0,0-1.314,1.314V6.646A1.364,1.364,0,0,0,20.408,7.96M25.927,2.1a1.464,1.464,0,0,1,0,2.929,1.491,1.491,0,0,1-1.464-1.465A1.466,1.466,0,0,1,25.927,2.1" transform="translate(-12.868)" fill="#203a72"/>
        <path id="Path_1029266" data-name="Path 1029266" d="M22.487,33.651a9.276,9.276,0,0,1,3.677-7.4V16.3a1.281,1.281,0,0,0-1.316-1.287H21.625v1.768a3.027,3.027,0,0,1-3.041,3.041H7.538A3.027,3.027,0,0,1,4.5,16.778V15.01H1.273A1.262,1.262,0,0,0,0,16.3V44.5a1.259,1.259,0,0,0,1.273,1.273H24.892A1.268,1.268,0,0,0,26.165,44.5V41.048a9.235,9.235,0,0,1-3.677-7.4M5.968,25.377a.85.85,0,0,1,1.2-1.2l1.089,1.089,1.089-1.089a.837.837,0,0,1,1.2,0,.863.863,0,0,1,0,1.2L9.49,26.466l1.089,1.089a.837.837,0,0,1,0,1.2.738.738,0,0,1-.594.269.787.787,0,0,1-.609-.269L8.288,27.668,7.2,28.757a.737.737,0,0,1-.594.269A.785.785,0,0,1,6,28.757a.837.837,0,0,1,0-1.2l1.061-1.089ZM19.22,40.029a.871.871,0,0,1,0,1.231.955.955,0,0,1-.608.269.739.739,0,0,1-.594-.269l-1.089-1.089L15.84,41.26a.956.956,0,0,1-.608.269.759.759,0,0,1-.594-.269.871.871,0,0,1,0-1.231l1.089-1.089-1.089-1.089a.88.88,0,0,1,1.245-1.244L16.972,37.7l1.089-1.089a.871.871,0,0,1,1.23,0,.888.888,0,0,1,0,1.244L18.2,38.94Zm1.2-12.022a.785.785,0,0,1-.609.269.737.737,0,0,1-.594-.269l-1.131-1.131V29.8a4.134,4.134,0,0,1-4.13,4.13h-3.9a2.421,2.421,0,0,0-2.4,2.4v4.328a.848.848,0,0,1-.863.863.857.857,0,0,1-.863-.863V36.31a4.135,4.135,0,0,1,4.13-4.13h3.9a2.42,2.42,0,0,0,2.4-2.4V26.848l-1.131,1.117a.871.871,0,0,1-1.23,0,.836.836,0,0,1,0-1.2l2.63-2.588a.881.881,0,0,1,.594-.255.947.947,0,0,1,.608.255l2.588,2.588a.888.888,0,0,1,0,1.244" transform="translate(0 -10.135)" fill="#203a72"/>
        <path id="Path_1029267" data-name="Path 1029267" d="M82.389,49.393a7.482,7.482,0,1,0,7.481,7.481,7.482,7.482,0,0,0-7.481-7.481m-.36,6.706h.713a2.529,2.529,0,0,1,2.515,2.773,2.565,2.565,0,0,1-2.1,2.215V62.1a.2.2,0,0,1-.2.2H81.82a.209.209,0,0,1-.21-.2v-1a2.515,2.515,0,0,1-2.088-2.257.209.209,0,0,1,.209-.223h1.139a.2.2,0,0,1,.2.16.969.969,0,0,0,.957.811h.657a1,1,0,0,0,1.013-.8.97.97,0,0,0-.957-1.139h-.594a2.6,2.6,0,0,1-2.627-2.27,2.516,2.516,0,0,1,2.088-2.732v-.991a.21.21,0,0,1,.21-.21h1.138a.2.2,0,0,1,.2.21v.991a2.516,2.516,0,0,1,2.1,2.264.207.207,0,0,1-.209.216H83.9a.2.2,0,0,1-.2-.154.983.983,0,0,0-.964-.818h-.657a1.014,1.014,0,0,0-1.013.811.972.972,0,0,0,.957,1.132" transform="translate(-50.581 -33.353)" fill="#14a0de"/>
      </g>
    </g>
  </g>
</svg>
