<svg xmlns="http://www.w3.org/2000/svg" xmlns:xlink="http://www.w3.org/1999/xlink" width="127.921" height="128" viewBox="0 0 127.921 128">
  <defs>
    <clipPath id="clip-path">
      <rect id="Rectangle_458761" data-name="Rectangle 458761" width="61.625" height="54.244" fill="none"/>
    </clipPath>
  </defs>
  <g id="img53" transform="translate(-705.978 -1710.002)">
    <g id="Group_1180300" data-name="Group 1180300" transform="translate(705.936 1710.002)">
      <g id="Grupo_155253" data-name="Grupo 155253" transform="matrix(0.999, 0.035, -0.035, 0.999, 4.319, 0)">
        <path id="Trazado_196478" data-name="Trazado 196478" d="M17.389,19.468q-.386.412-.764.831A64.6,64.6,0,0,0,.044,66.072L25.8,65.147C25.1,44.584,40.69,27.331,60.618,26.613S97.267,41.982,97.965,62.546l25.755-.925c-.869-25.6-16.481-48.187-39.655-57.372A60.525,60.525,0,0,0,17.389,19.475" transform="translate(0 0)" fill="#f9ce5d"/>
        <path id="Trazado_196479" data-name="Trazado 196479" d="M0,4.454C1.195,39.7,29.849,67.266,64,66.036S124.871,35.241,123.676,0L97.92.925c.7,20.563-14.891,37.815-34.819,38.533S26.453,24.089,25.755,3.526Z" transform="translate(0.042 57.68)" fill="#70f5c8"/>
      </g>
      <ellipse id="Ellipse_13685" data-name="Ellipse 13685" cx="49.806" cy="49.887" rx="49.806" ry="49.887" transform="translate(14.269 14.359)" fill="#fff"/>
    </g>
    <g id="Group_1183635" data-name="Group 1183635" transform="translate(739.123 1746.879)">
      <g id="Group_1183634" data-name="Group 1183634" transform="translate(0 0)" clip-path="url(#clip-path)">
        <path id="Path_1029631" data-name="Path 1029631" d="M80.217,37.152c-2.506-9.235-7.014-20.409-14.7-24.635L70.7,7.464a2.959,2.959,0,0,0-2.069-5.075H48.611a2.959,2.959,0,0,0-2.069,5.075L51.7,12.5c-5.271,2.919-9.061,9.236-11.7,15.77,2.4.871,4.2,2.091,5.075,3.681a3.959,3.959,0,0,1,.414,1.5,16.808,16.808,0,0,1,.13,2.048v16.01a4.247,4.247,0,0,1-.675,2.287,14.828,14.828,0,0,0,4.443,1.176c2.723.239,5.816.414,9.214.414,3.42,0,6.491-.175,9.236-.414A14.2,14.2,0,0,0,80.217,37.152m-22.7-6.084h1.742a6.173,6.173,0,0,1,6.143,6.8,6.262,6.262,0,0,1-5.119,5.423v2.462a.493.493,0,0,1-.5.5H57a.507.507,0,0,1-.5-.5V43.31A6.151,6.151,0,0,1,51.378,37.8a.521.521,0,0,1,.523-.545h2.787a.456.456,0,0,1,.479.393,2.407,2.407,0,0,0,2.353,1.982h1.612a2.468,2.468,0,0,0,2.483-1.982,2.373,2.373,0,0,0-2.353-2.767H57.8a6.363,6.363,0,0,1-6.426-5.554A6.142,6.142,0,0,1,56.5,22.638V20.2a.506.506,0,0,1,.5-.5h2.788a.492.492,0,0,1,.5.5v2.44a6.135,6.135,0,0,1,5.119,5.533.5.5,0,0,1-.5.523h-2.81a.492.492,0,0,1-.479-.37,2.388,2.388,0,0,0-2.353-2H57.651A2.5,2.5,0,0,0,55.167,28.3a2.375,2.375,0,0,0,2.353,2.767" transform="translate(-19.092 -1.14)" fill="#203a72"/>
        <path id="Path_1029632" data-name="Path 1029632" d="M13.754,24.631a1.377,1.377,0,0,0,2.177,0l6.732-8.7a1.378,1.378,0,0,0-1.089-2.22H18.316V1.02A1.02,1.02,0,0,0,17.3,0h-4.9a1.02,1.02,0,0,0-1.02,1.02V13.71H8.114a1.377,1.377,0,0,0-1.089,2.22Z" transform="translate(-3.214 0)" fill="#14a0de"/>
        <path id="Path_1029633" data-name="Path 1029633" d="M.008,88.429v4.138c0,1.59,4.53,3.876,11.631,3.876s11.631-2.286,11.631-3.876V88.429c-2.875,1.655-7.275,2.5-11.631,2.5s-8.756-.85-11.631-2.5" transform="translate(-0.004 -42.199)" fill="#203a72"/>
        <path id="Path_1029634" data-name="Path 1029634" d="M.008,71.636V75.8c0,1.567,4.53,3.856,11.631,3.856S23.271,77.364,23.271,75.8V71.636c-2.875,1.656-7.275,2.5-11.631,2.5s-8.756-.848-11.631-2.5" transform="translate(-0.004 -34.186)" fill="#203a72"/>
        <path id="Path_1029635" data-name="Path 1029635" d="M11.63,63.119c7.1,0,11.63-2.293,11.63-3.872s-4.53-3.874-11.63-3.874S0,57.669,0,59.247s4.53,3.872,11.63,3.872" transform="translate(0 -26.425)" fill="#203a72"/>
      </g>
    </g>
  </g>
</svg>
