<svg xmlns="http://www.w3.org/2000/svg" xmlns:xlink="http://www.w3.org/1999/xlink" width="90" height="90" viewBox="0 0 90 90">
  <defs>
    <clipPath id="clip-path">
      <rect id="Rectangle_458717" data-name="Rectangle 458717" width="44.751" height="63" fill="none"/>
    </clipPath>
  </defs>
  <g id="img52" transform="translate(-338.711 -12699)">
    <circle id="Ellipse_13756" data-name="Ellipse 13756" cx="45" cy="45" r="45" transform="translate(338.711 12699)" fill="#fff"/>
    <g id="Group_1183547" data-name="Group 1183547" transform="translate(361.335 12712.5)">
      <g id="Group_1183546" data-name="Group 1183546" clip-path="url(#clip-path)">
        <path id="Path_1029350" data-name="Path 1029350" d="M32.639,66.443V63.465a5.1,5.1,0,0,0-5.086-5.1H5.071a1.787,1.787,0,1,1,0-3.574h5.387a7.534,7.534,0,0,1-3.116-3.284H5.071A5.077,5.077,0,0,0,0,56.577V79.869a5.111,5.111,0,0,0,5.1,5.1H27.554a5.1,5.1,0,0,0,5.086-5.1V76.891a4.283,4.283,0,0,0,3.712-4.231V70.674a4.283,4.283,0,0,0-3.712-4.231M15.319,78.067v1.451a.463.463,0,0,1-.458.474H13.318a.463.463,0,0,1-.458-.474V78.112A3.382,3.382,0,0,1,9.836,75.1a.493.493,0,0,1,.474-.5h1.558a.445.445,0,0,1,.443.351.929.929,0,0,0,.9.733h1.375a1.448,1.448,0,0,0,1.466-1.253,1.311,1.311,0,0,0-.352-1.069,1.391,1.391,0,0,0-1.023-.459H13.67a3.971,3.971,0,0,1-4-3.482,3.857,3.857,0,0,1,3.192-4.185v-1.42a.463.463,0,0,1,.458-.474h1.543a.463.463,0,0,1,.458.474v1.4a3.369,3.369,0,0,1,3.009,3.009.394.394,0,0,1-.107.335.458.458,0,0,1-.352.168H16.312a.476.476,0,0,1-.458-.352.9.9,0,0,0-.886-.733H13.593A1.447,1.447,0,0,0,12.127,68.9a1.311,1.311,0,0,0,.352,1.068,1.366,1.366,0,0,0,1.024.459h1.176A3.854,3.854,0,0,1,17.534,71.7a3.812,3.812,0,0,1,.978,2.979,3.916,3.916,0,0,1-3.192,3.391M33.067,72.66a1.027,1.027,0,0,1-1.008,1.008H27.34a1.037,1.037,0,0,1-1.008-1.008V70.674a1.027,1.027,0,0,1,1.008-1.008h4.719a1.017,1.017,0,0,1,1.008,1.008Z" transform="translate(0 -21.971)" fill="#203a72"/>
        <path id="Path_1029351" data-name="Path 1029351" d="M50.16,9.986,46.57,3.156a1.31,1.31,0,0,0-1.618-.617L42.165,3.574a1.838,1.838,0,0,1-1.371-.035L33.657.472a5.806,5.806,0,0,0-4.3-.112L14.368,5.881a2.038,2.038,0,0,0-1.129,2.791,2.06,2.06,0,0,0,1.818,1.153l6.647.045a4.323,4.323,0,0,1,.151-.464A4.035,4.035,0,0,1,26.036,6.86l.264.026a41.948,41.948,0,0,1,7.184,1.35l1.879.524a1.156,1.156,0,0,1,.805,1.428,1.159,1.159,0,0,1-1.43.805l-1.979-.551a38.7,38.7,0,0,0-6.545-1.237L25.8,9.167a1.732,1.732,0,0,0-1.75,2.452,1.761,1.761,0,0,0,.989.9l9.636,3.457a5.077,5.077,0,0,0,3.289.045l11.485-4.2a1.309,1.309,0,0,0,.709-1.839" transform="translate(-5.56 0)" fill="#203a72"/>
        <path id="Path_1029352" data-name="Path 1029352" d="M31.53,51.421a4.355,4.355,0,0,0,1.038,1.558h7.377A5.047,5.047,0,0,0,41.4,49.42a5.137,5.137,0,0,0-5.148-5.132,4.983,4.983,0,0,0-1.375.2c.015.245.03.474.03.719a7.4,7.4,0,0,1-3.375,6.216" transform="translate(-13.45 -18.892)" fill="#14a0de"/>
        <path id="Path_1029353" data-name="Path 1029353" d="M15.522,42.067a5.135,5.135,0,1,0,5.135-5.136,5.135,5.135,0,0,0-5.135,5.136" transform="translate(-6.621 -15.754)" fill="#14a0de"/>
        <path id="Path_1029354" data-name="Path 1029354" d="M25.379,26.593v-3.88a1.145,1.145,0,0,0-2.291,0v3.88a1.145,1.145,0,1,0,2.291,0" transform="translate(-9.849 -9.2)" fill="#14a0de"/>
        <path id="Path_1029355" data-name="Path 1029355" d="M33.2,25.758A1.146,1.146,0,0,0,32.059,26.9v3.879a1.146,1.146,0,0,0,2.291,0V26.9A1.146,1.146,0,0,0,33.2,25.758" transform="translate(-13.676 -10.988)" fill="#14a0de"/>
        <path id="Path_1029356" data-name="Path 1029356" d="M43.322,34.974V31.1a1.145,1.145,0,1,0-2.291,0v3.878a1.145,1.145,0,1,0,2.291,0" transform="translate(-17.503 -12.776)" fill="#14a0de"/>
      </g>
    </g>
  </g>
</svg>
