<svg xmlns="http://www.w3.org/2000/svg" xmlns:xlink="http://www.w3.org/1999/xlink" width="127.921" height="128" viewBox="0 0 127.921 128">
  <defs>
    <clipPath id="clip-path">
      <rect id="Rectangle_458756" data-name="Rectangle 458756" width="45.658" height="61.248" fill="none"/>
    </clipPath>
  </defs>
  <g id="img50" transform="translate(-705.978 -1710.002)">
    <g id="Group_1180300" data-name="Group 1180300" transform="translate(705.936 1710.002)">
      <g id="Grupo_155253" data-name="Grupo 155253" transform="matrix(0.999, 0.035, -0.035, 0.999, 4.319, 0)">
        <path id="Trazado_196478" data-name="Trazado 196478" d="M17.389,19.468q-.386.412-.764.831A64.6,64.6,0,0,0,.044,66.072L25.8,65.147C25.1,44.584,40.69,27.331,60.618,26.613S97.267,41.982,97.965,62.546l25.755-.925c-.869-25.6-16.481-48.187-39.655-57.372A60.525,60.525,0,0,0,17.389,19.475" transform="translate(0 0)" fill="#f9ce5d"/>
        <path id="Trazado_196479" data-name="Trazado 196479" d="M0,4.454C1.195,39.7,29.849,67.266,64,66.036S124.871,35.241,123.676,0L97.92.925c.7,20.563-14.891,37.815-34.819,38.533S26.453,24.089,25.755,3.526Z" transform="translate(0.042 57.68)" fill="#70f5c8"/>
      </g>
      <ellipse id="Ellipse_13685" data-name="Ellipse 13685" cx="49.806" cy="49.887" rx="49.806" ry="49.887" transform="translate(14.269 14.359)" fill="#fff"/>
    </g>
    <g id="Group_1183627" data-name="Group 1183627" transform="translate(747.107 1743.378)">
      <g id="Group_1183626" data-name="Group 1183626" clip-path="url(#clip-path)">
        <path id="Path_1029594" data-name="Path 1029594" d="M45.658,43.129V85.77a5.422,5.422,0,0,1-5.422,5.42H5.42A5.422,5.422,0,0,1,0,85.77V43.129a5.422,5.422,0,0,1,5.42-5.422H8.062V40.8H5.42a2.335,2.335,0,0,0-2.331,2.333V85.77A2.334,2.334,0,0,0,5.42,88.1H40.236a2.335,2.335,0,0,0,2.333-2.331V43.129A2.335,2.335,0,0,0,40.236,40.8H37.6V37.707h2.64a5.422,5.422,0,0,1,5.422,5.422" transform="translate(0 -29.942)" fill="#174579"/>
        <path id="Path_1029595" data-name="Path 1029595" d="M38.644,105.335A1.47,1.47,0,0,1,37.6,104.9l-2.846-2.846A1.236,1.236,0,1,1,36.5,100.31l2.142,2.142,5.3-5.3A1.236,1.236,0,0,1,45.7,98.895L39.687,104.9a1.47,1.47,0,0,1-1.043.431" transform="translate(-27.311 -76.855)" fill="#1ea5db"/>
        <path id="Path_1029596" data-name="Path 1029596" d="M119.385,114.016H104.559a1.236,1.236,0,0,1,0-2.471h14.827a1.236,1.236,0,1,1,0,2.471" transform="translate(-82.046 -88.575)" fill="#1ea5db"/>
        <path id="Path_1029597" data-name="Path 1029597" d="M38.644,159.55a1.47,1.47,0,0,1-1.043-.431l-2.846-2.846a1.236,1.236,0,0,1,1.747-1.747l2.142,2.142,5.3-5.3A1.236,1.236,0,1,1,45.7,153.11l-6.009,6.009a1.47,1.47,0,0,1-1.043.431" transform="translate(-27.311 -119.906)" fill="#1ea5db"/>
        <path id="Path_1029598" data-name="Path 1029598" d="M119.385,168.23H104.559a1.236,1.236,0,1,1,0-2.471h14.827a1.236,1.236,0,1,1,0,2.471" transform="translate(-82.046 -131.625)" fill="#1ea5db"/>
        <path id="Path_1029599" data-name="Path 1029599" d="M38.644,213.764a1.47,1.47,0,0,1-1.043-.431l-2.846-2.846a1.236,1.236,0,1,1,1.747-1.747l2.142,2.142,5.3-5.3a1.236,1.236,0,1,1,1.747,1.747l-6.009,6.009a1.47,1.47,0,0,1-1.043.431" transform="translate(-27.311 -162.956)" fill="#1ea5db"/>
        <path id="Path_1029600" data-name="Path 1029600" d="M114.192,222.445h-9.634a1.236,1.236,0,0,1,0-2.471h9.634a1.236,1.236,0,0,1,0,2.471" transform="translate(-82.045 -174.676)" fill="#1ea5db"/>
        <path id="Path_1029601" data-name="Path 1029601" d="M74.772,5.5H70.644a.482.482,0,0,1-.477-.41,6,6,0,0,0-11.862,0,.482.482,0,0,1-.477.41H53.7a1.555,1.555,0,0,0-1.555,1.555v5.229A1.555,1.555,0,0,0,53.7,13.841H74.772a1.555,1.555,0,0,0,1.555-1.555V7.056A1.555,1.555,0,0,0,74.772,5.5M64.237,8.974A2.368,2.368,0,1,1,66.6,6.606a2.368,2.368,0,0,1-2.368,2.368" transform="translate(-41.408)" fill="#174579"/>
      </g>
    </g>
  </g>
</svg>
