<svg xmlns="http://www.w3.org/2000/svg" xmlns:xlink="http://www.w3.org/1999/xlink" width="127.922" height="128" viewBox="0 0 127.922 128">
  <defs>
    <clipPath id="clip-path">
      <rect id="Rectangle_458758" data-name="Rectangle 458758" width="65.475" height="68.133" fill="none"/>
    </clipPath>
  </defs>
  <g id="img52" transform="translate(-705.978 -1710.002)">
    <g id="Group_1180300" data-name="Group 1180300" transform="translate(705.936 1710.002)">
      <g id="Grupo_155253" data-name="Grupo 155253" transform="matrix(0.999, 0.035, -0.035, 0.999, 4.319, 0)">
        <path id="Trazado_196478" data-name="Trazado 196478" d="M17.389,19.468q-.386.412-.764.831A64.6,64.6,0,0,0,.044,66.072L25.8,65.147C25.1,44.584,40.69,27.331,60.618,26.613S97.267,41.982,97.965,62.546l25.755-.925c-.869-25.6-16.481-48.187-39.655-57.372A60.525,60.525,0,0,0,17.389,19.475" transform="translate(0 0)" fill="#f9ce5d"/>
        <path id="Trazado_196479" data-name="Trazado 196479" d="M0,4.454C1.195,39.7,29.849,67.266,64,66.036S124.871,35.241,123.676,0L97.92.925c.7,20.563-14.891,37.815-34.819,38.533S26.453,24.089,25.755,3.526Z" transform="translate(0.042 57.68)" fill="#70f5c8"/>
      </g>
      <ellipse id="Ellipse_13685" data-name="Ellipse 13685" cx="49.806" cy="49.887" rx="49.806" ry="49.887" transform="translate(14.269 14.359)" fill="#fff"/>
    </g>
    <g id="Group_1183631" data-name="Group 1183631" transform="translate(737.198 1739.936)">
      <g id="Group_1183630" data-name="Group 1183630" clip-path="url(#clip-path)">
        <path id="Path_1029614" data-name="Path 1029614" d="M62.226,98.095a5.1,5.1,0,1,1-5.1-5.1,5.1,5.1,0,0,1,5.1,5.1" transform="translate(-40.338 -72.106)" fill="#174579"/>
        <path id="Path_1029615" data-name="Path 1029615" d="M46.2,149.376l6.809-.741a2.067,2.067,0,0,1,.607,4.085l-8.544,1.615a2.257,2.257,0,0,1-2-.6l-3.224-3.153a.085.085,0,0,0-.143.043l-1.349,6.256,6.956,1.235a4.414,4.414,0,0,1,3.5,3.239l3.266,12.612a2.907,2.907,0,0,1-5.6,1.563L43.246,164.7a.836.836,0,0,0-.652-.583L33.5,162.475a4.113,4.113,0,0,1-3.348-4.576l1.582-12.2a4.437,4.437,0,0,1,7.446-2.656l6.538,6.174a.609.609,0,0,0,.485.163" transform="translate(-23.352 -109.967)" fill="#174579"/>
        <path id="Path_1029616" data-name="Path 1029616" d="M16.665,187h-4.9v-6.953h4.453a1.391,1.391,0,0,0,.148-2.775l-8.275-.885a4.342,4.342,0,0,1-3.873-4.555L4.9,159.343a2.351,2.351,0,0,0-2.347-2.48h-.2A2.351,2.351,0,0,0,0,159.346l.864,15.4a5.617,5.617,0,0,0,5.608,5.3H9V187H4.1a1.382,1.382,0,0,0,0,2.763h12.57a1.382,1.382,0,0,0,0-2.763" transform="translate(0 -121.628)" fill="#174579"/>
        <path id="Path_1029617" data-name="Path 1029617" d="M138.49,199.949H117.661a1.7,1.7,0,0,0,0,3.4h13.785v17.77a1.7,1.7,0,1,0,3.4,0V203.35h3.644a1.7,1.7,0,1,0,0-3.4" transform="translate(-89.914 -155.036)" fill="#174579"/>
        <path id="Path_1029618" data-name="Path 1029618" d="M154.762,154.78H147.07a1.169,1.169,0,1,1,0-2.338h7.563l4.526-8.341a1.169,1.169,0,0,1,2.055,1.115l-4.588,8.454a2.12,2.12,0,0,1-1.865,1.11" transform="translate(-113.129 -111.259)" fill="#174579"/>
        <path id="Path_1029619" data-name="Path 1029619" d="M149.861,0a13.222,13.222,0,1,0,0,26.444,13.089,13.089,0,0,0,2.646-.268,4.924,4.924,0,0,1-.516-2.3,10.863,10.863,0,1,1,8.28-13.76,4.908,4.908,0,0,1,2.213-.833A13.248,13.248,0,0,0,149.861,0" transform="translate(-105.945)" fill="#1ea5db"/>
        <path id="Path_1029620" data-name="Path 1029620" d="M176.988,28.362v-5.43a1.18,1.18,0,0,0-2.359,0v5.43a2.088,2.088,0,0,0-.91,1.681l-3.083,2.012a1.18,1.18,0,1,0,1.289,1.976l3.082-2.011a2.091,2.091,0,0,0,1.981-3.658" transform="translate(-131.893 -16.867)" fill="#1ea5db"/>
        <path id="Path_1029621" data-name="Path 1029621" d="M233.594,64.24l-6.128-9.752a2.205,2.205,0,0,0-3.734,0L217.6,64.24a2.205,2.205,0,0,0,1.867,3.379h12.256a2.205,2.205,0,0,0,1.867-3.379m-8,1.858a1.093,1.093,0,1,1,1.093-1.093A1.093,1.093,0,0,1,225.6,66.1M226.7,58l-.24,3.845a.864.864,0,0,1-1.726,0L224.5,58a1.105,1.105,0,1,1,2.206,0" transform="translate(-168.46 -41.449)" fill="#1ea5db"/>
      </g>
    </g>
  </g>
</svg>
