<svg xmlns="http://www.w3.org/2000/svg" xmlns:xlink="http://www.w3.org/1999/xlink" width="127.921" height="128" viewBox="0 0 127.921 128">
  <defs>
    <clipPath id="clip-path">
      <rect id="Rectangle_458731" data-name="Rectangle 458731" width="77.137" height="51.719" fill="none"/>
    </clipPath>
  </defs>
  <g id="img69" transform="translate(-705.978 -1710.001)">
    <g id="Group_1180300" data-name="Group 1180300" transform="translate(705.936 1710.002)">
      <g id="Grupo_155253" data-name="Grupo 155253" transform="matrix(0.999, 0.035, -0.035, 0.999, 4.319, 0)">
        <path id="Trazado_196478" data-name="Trazado 196478" d="M17.389,19.468q-.386.412-.764.831A64.6,64.6,0,0,0,.044,66.072L25.8,65.147C25.1,44.584,40.69,27.331,60.618,26.613S97.267,41.982,97.965,62.546l25.755-.925c-.869-25.6-16.481-48.187-39.655-57.372A60.525,60.525,0,0,0,17.389,19.475" transform="translate(0 0)" fill="#f9ce5d"/>
        <path id="Trazado_196479" data-name="Trazado 196479" d="M0,4.454C1.195,39.7,29.849,67.266,64,66.036S124.871,35.241,123.676,0L97.92.925c.7,20.563-14.891,37.815-34.819,38.533S26.453,24.089,25.755,3.526Z" transform="translate(0.042 57.68)" fill="#70f5c8"/>
      </g>
      <ellipse id="Ellipse_13685" data-name="Ellipse 13685" cx="49.806" cy="49.887" rx="49.806" ry="49.887" transform="translate(14.269 14.359)" fill="#fff"/>
    </g>
    <g id="Group_1183574" data-name="Group 1183574" transform="translate(731.367 1748.142)">
      <g id="Group_1183573" data-name="Group 1183573" clip-path="url(#clip-path)">
        <path id="Path_1029450" data-name="Path 1029450" d="M72.806,50.181c-1.123,1.553-1.6-.713-2.894-.713-1.275.01-1.944,2.107-2.938.7a1.3,1.3,0,0,0-2.441.484,12,12,0,0,0,1.35,4.125,29.992,29.992,0,0,0,3.932.25,32.289,32.289,0,0,0,3.78-.226,14.826,14.826,0,0,0,1.469-4.115,1.186,1.186,0,0,0-2.258-.508" transform="translate(-31.773 -24.356)" fill="#14a0de"/>
        <path id="Path_1029451" data-name="Path 1029451" d="M68.974,63.559a33.248,33.248,0,0,1-8.144,0c-2.97,2.528-6.275,6.74-6.275,10.584,0,6.028,4.633,8.869,10.347,8.869s10.347-2.841,10.347-8.869c0-3.844-3.294-8.045-6.275-10.584M65.931,78.6v1.087a.311.311,0,0,1-.311.31H64.184a.311.311,0,0,1-.311-.31V78.632a3.143,3.143,0,0,1-2.518-2.747.309.309,0,0,1,.312-.33h1.456a.3.3,0,0,1,.3.229,1.078,1.078,0,0,0,1.053.849h.858a1.077,1.077,0,0,0,0-2.155h-.717a3.231,3.231,0,0,1-3.26-2.823,3.133,3.133,0,0,1,2.519-3.384V67.21a.311.311,0,0,1,.311-.31H65.62a.311.311,0,0,1,.311.31v1.055a3.142,3.142,0,0,1,2.518,2.747.309.309,0,0,1-.312.329H66.68a.3.3,0,0,1-.3-.228,1.077,1.077,0,0,0-1.053-.847h-.858a1.077,1.077,0,1,0,0,2.153h.858a3.138,3.138,0,0,1,3.119,3.449A3.174,3.174,0,0,1,65.931,78.6" transform="translate(-26.86 -31.293)" fill="#14a0de"/>
        <path id="Path_1029452" data-name="Path 1029452" d="M118.591,13.533a5.4,5.4,0,1,0-5.4-5.4,5.4,5.4,0,0,0,5.4,5.4" transform="translate(-55.731 -1.348)" fill="#203a72"/>
        <path id="Path_1029453" data-name="Path 1029453" d="M123.847,33.3c-.178-.266-4.473-6.53-13.867-6.53s-13.69,6.264-13.867,6.53a2.429,2.429,0,0,0,.043,2.761l4.253,5.957a2.425,2.425,0,0,0,3.386.566,2.364,2.364,0,0,0,.353-.31l-.012,1.69-1.5,18.011a2.7,2.7,0,0,0,2.464,2.913c.077.007.152.01.227.01a2.7,2.7,0,0,0,2.686-2.473L109.454,45.1h1.051l1.442,17.322a2.7,2.7,0,0,0,5.376-.45l-1.5-18.011-.011-1.69a2.364,2.364,0,0,0,.353.31,2.424,2.424,0,0,0,3.385-.566l4.254-5.957a2.429,2.429,0,0,0,.042-2.761m-19.676,5.632-2.938-4.118a11.8,11.8,0,0,1,2.981-1.963Zm11.617,0-.043-6.088a11.746,11.746,0,0,1,2.984,1.967Z" transform="translate(-47.12 -13.181)" fill="#203a72"/>
        <path id="Path_1029454" data-name="Path 1029454" d="M20.017,31.68H32.531a2.426,2.426,0,0,0,0-4.852H14.266c-9.387,0-13.68,6.258-13.857,6.525a2.425,2.425,0,0,0,.042,2.759L4.7,42.065a2.427,2.427,0,0,0,3.384.564,2.487,2.487,0,0,0,.352-.309l-.012,1.688-1.5,18a2.7,2.7,0,0,0,5.372.447l1.44-17.307h1.05l1.442,17.307a2.7,2.7,0,0,0,2.683,2.471c.075,0,.15,0,.227-.009A2.7,2.7,0,0,0,21.6,62.008l-1.5-18Zm-11.555,7.3L5.526,34.868A11.842,11.842,0,0,1,8.5,32.9Zm7.274-.264-1.268,1.4a.275.275,0,0,1-.4,0l-1.269-1.4a.272.272,0,0,1-.068-.219l1.045-7.644h-.494a.272.272,0,0,1-.273-.274V29a.272.272,0,0,1,.273-.272h1.977a.273.273,0,0,1,.272.272V30.58a.273.273,0,0,1-.272.274H14.76L15.8,38.5a.272.272,0,0,1-.069.219" transform="translate(0 -13.209)" fill="#203a72"/>
        <path id="Path_1029455" data-name="Path 1029455" d="M22.872,13.6a5.393,5.393,0,1,0-5.393-5.394A5.393,5.393,0,0,0,22.872,13.6" transform="translate(-8.606 -1.385)" fill="#203a72"/>
        <path id="Path_1029456" data-name="Path 1029456" d="M50.272,8.47H70.651L68.418,10.7A1.682,1.682,0,0,0,70.8,13.083l5.1-5.106a1.682,1.682,0,0,0,0-2.378L70.8.494A1.682,1.682,0,0,0,68.416,2.87l2.235,2.236H50.272a1.682,1.682,0,0,0,0,3.364" transform="translate(-23.923 0)" fill="#14a0de"/>
      </g>
    </g>
  </g>
</svg>
