<svg xmlns="http://www.w3.org/2000/svg" xmlns:xlink="http://www.w3.org/1999/xlink" width="149.909" height="150" viewBox="0 0 149.909 150">
  <defs>
    <clipPath id="clip-path">
      <rect id="Rectangle_458723" data-name="Rectangle 458723" width="55.404" height="79.014" fill="none"/>
    </clipPath>
  </defs>
  <g id="img60" transform="translate(-705.985 -1710.002)">
    <g id="Group_1180300" data-name="Group 1180300" transform="translate(705.936 1710.002)">
      <g id="Grupo_155253" data-name="Grupo 155253" transform="matrix(0.999, 0.035, -0.035, 0.999, 5.062, 0)">
        <path id="Trazado_196478" data-name="Trazado 196478" d="M20.377,22.814q-.452.483-.9.974A75.7,75.7,0,0,0,.051,77.428l30.182-1.084c-.818-24.1,17.45-44.315,40.8-45.157S113.985,49.2,114.8,73.3l30.182-1.084c-1.018-30-19.313-56.469-46.471-67.234A70.928,70.928,0,0,0,20.377,22.822" transform="translate(0 0)" fill="#f9ce5d"/>
        <path id="Trazado_196479" data-name="Trazado 196479" d="M0,5.22c1.4,41.3,34.98,73.608,75,72.167S146.334,41.3,144.933,0L114.751,1.084c.818,24.1-17.451,44.315-40.8,45.156S31,28.229,30.182,4.132Z" transform="translate(0.049 67.595)" fill="#ff9e74"/>
      </g>
      <ellipse id="Ellipse_13685" data-name="Ellipse 13685" cx="58.366" cy="58.462" rx="58.366" ry="58.462" transform="translate(16.722 16.827)" fill="#fff"/>
    </g>
    <g id="Group_1183557" data-name="Group 1183557" transform="translate(753.234 1745.495)">
      <g id="Group_1183556" data-name="Group 1183556" clip-path="url(#clip-path)">
        <path id="Rectangle_458722" data-name="Rectangle 458722" d="M1.612,0H7.039A1.612,1.612,0,0,1,8.651,1.612V16.2A1.611,1.611,0,0,1,7.04,17.812H1.611A1.611,1.611,0,0,1,0,16.2V1.612A1.612,1.612,0,0,1,1.612,0Z" transform="translate(0.618 22.647)" fill="#203a72"/>
        <path id="Path_1029397" data-name="Path 1029397" d="M30.716,21.279V36.8a22.6,22.6,0,0,0-8.668,3.1V21.279a1.163,1.163,0,0,1,1.165-1.142H29.55a1.149,1.149,0,0,1,1.166,1.142" transform="translate(-6.268 -5.725)" fill="#203a72"/>
        <path id="Path_1029398" data-name="Path 1029398" d="M51.918,32.793V43.237a22.729,22.729,0,0,0-8.644-3.169V32.793a1.164,1.164,0,0,1,1.142-1.165h6.337a1.168,1.168,0,0,1,1.165,1.165" transform="translate(-12.303 -8.992)" fill="#203a72"/>
        <path id="Path_1029399" data-name="Path 1029399" d="M71.961,20.131H65.617a1.154,1.154,0,0,0-1.153,1.154V45.029a1.153,1.153,0,0,0,1.153,1.153h6.344a1.153,1.153,0,0,0,1.154-1.153V21.285a1.155,1.155,0,0,0-1.154-1.154" transform="translate(-18.328 -5.723)" fill="#203a72"/>
        <path id="Path_1029400" data-name="Path 1029400" d="M4.943,19.635a4.9,4.9,0,0,0,4.8-6.07L17.1,8.837a4.85,4.85,0,0,0,6.025,0l7.358,4.727a4.88,4.88,0,0,0-.142,1.126,4.943,4.943,0,1,0,9.746-1.126l7.358-4.727a4.926,4.926,0,1,0-1.931-3.895A4.922,4.922,0,0,0,45.66,6.07L38.3,10.8a4.848,4.848,0,0,0-6.026,0L24.918,6.07a4.943,4.943,0,1,0-9.6,0L7.956,10.8a4.935,4.935,0,1,0-3.013,8.837" fill="#14a0de"/>
        <path id="Path_1029401" data-name="Path 1029401" d="M54.918,85.184l-8.3-6.906a19.1,19.1,0,1,0-4.62,4.62l6.9,8.3a4.544,4.544,0,0,0,.553.554,4.274,4.274,0,1,0,5.466-6.573M16.253,67.338a14.8,14.8,0,1,1,14.8,14.8,14.817,14.817,0,0,1-14.8-14.8" transform="translate(-3.415 -13.731)" fill="#203a72"/>
        <path id="Path_1029402" data-name="Path 1029402" d="M34.96,81.848a.7.7,0,0,1-.695-.695V79.31a5.488,5.488,0,0,1-4.341-4.89.666.666,0,0,1,.177-.514.71.71,0,0,1,.522-.23H33a.679.679,0,0,1,.679.549A1.743,1.743,0,0,0,35.4,75.689h1.361A1.831,1.831,0,0,0,38.6,74.237a1.732,1.732,0,0,0-.389-1.424,1.75,1.75,0,0,0-1.335-.618H35.636a5.674,5.674,0,0,1-5.705-4.949,5.521,5.521,0,0,1,4.334-5.923V59.484a.7.7,0,0,1,.695-.7h2.36a.7.7,0,0,1,.695.7v1.84a5.49,5.49,0,0,1,4.342,4.891.682.682,0,0,1-.179.516.711.711,0,0,1-.522.23H39.283a.682.682,0,0,1-.679-.549,1.743,1.743,0,0,0-1.726-1.468H35.517A1.832,1.832,0,0,0,33.678,66.4,1.752,1.752,0,0,0,35.4,68.442h1.475a5.509,5.509,0,0,1,4.073,1.808,5.447,5.447,0,0,1,1.4,4.238,5.522,5.522,0,0,1-4.336,4.781v1.884a.7.7,0,0,1-.695.695Z" transform="translate(-8.502 -16.714)" fill="#14a0de"/>
      </g>
    </g>
  </g>
</svg>
