<svg xmlns="http://www.w3.org/2000/svg" xmlns:xlink="http://www.w3.org/1999/xlink" width="127.921" height="128" viewBox="0 0 127.921 128">
  <defs>
    <clipPath id="clip-path">
      <rect id="Rectangle_458729" data-name="Rectangle 458729" width="69.609" height="54.09" fill="none"/>
    </clipPath>
  </defs>
  <g id="img67" transform="translate(-705.978 -1710.001)">
    <g id="Group_1180300" data-name="Group 1180300" transform="translate(705.936 1710.002)">
      <g id="Grupo_155253" data-name="Grupo 155253" transform="matrix(0.999, 0.035, -0.035, 0.999, 4.319, 0)">
        <path id="Trazado_196478" data-name="Trazado 196478" d="M17.389,19.468q-.386.412-.764.831A64.6,64.6,0,0,0,.044,66.072L25.8,65.147C25.1,44.584,40.69,27.331,60.618,26.613S97.267,41.982,97.965,62.546l25.755-.925c-.869-25.6-16.481-48.187-39.655-57.372A60.525,60.525,0,0,0,17.389,19.475" transform="translate(0 0)" fill="#f9ce5d"/>
        <path id="Trazado_196479" data-name="Trazado 196479" d="M0,4.454C1.195,39.7,29.849,67.266,64,66.036S124.871,35.241,123.676,0L97.92.925c.7,20.563-14.891,37.815-34.819,38.533S26.453,24.089,25.755,3.526Z" transform="translate(0.042 57.68)" fill="#70f5c8"/>
      </g>
      <ellipse id="Ellipse_13685" data-name="Ellipse 13685" cx="49.806" cy="49.887" rx="49.806" ry="49.887" transform="translate(14.269 14.359)" fill="#fff"/>
    </g>
    <g id="Group_1183570" data-name="Group 1183570" transform="translate(735.131 1746.956)">
      <g id="Group_1183569" data-name="Group 1183569" clip-path="url(#clip-path)">
        <path id="Path_1029430" data-name="Path 1029430" d="M13.674,51.33A13.674,13.674,0,1,0,27.348,65,13.675,13.675,0,0,0,13.674,51.33m-.691,12.184h1.37a4.861,4.861,0,0,1,4.834,5.331A4.931,4.931,0,0,1,15.158,73.1v1.946a.389.389,0,0,1-.39.39H12.581a.4.4,0,0,1-.4-.39v-1.92a4.836,4.836,0,0,1-4.014-4.337.4.4,0,0,1,.4-.43h2.189a.378.378,0,0,1,.389.309,1.863,1.863,0,0,0,1.84,1.557h1.262a1.929,1.929,0,0,0,1.947-1.544,1.864,1.864,0,0,0-1.84-2.189H13.211a4.99,4.99,0,0,1-5.048-4.363,4.836,4.836,0,0,1,4.014-5.252V54.975a.4.4,0,0,1,.4-.4h2.187a.392.392,0,0,1,.39.4V56.88a4.839,4.839,0,0,1,4.028,4.351.4.4,0,0,1-.4.417h-2.2a.376.376,0,0,1-.375-.295,1.891,1.891,0,0,0-1.854-1.572H13.09a1.951,1.951,0,0,0-1.947,1.558,1.868,1.868,0,0,0,1.84,2.176" transform="translate(0 -24.588)" fill="#14a0de"/>
        <path id="Path_1029431" data-name="Path 1029431" d="M57.789,73.472a15.476,15.476,0,0,1-.311,3.161c7.155-.175,11.673-2.5,11.673-4.13v-3.51c-2.773,1.687-7.116,2.656-11.44,2.794a15.959,15.959,0,0,1,.078,1.686" transform="translate(-27.533 -33.049)" fill="#203a72"/>
        <path id="Path_1029432" data-name="Path 1029432" d="M31.723,39.22v3.509a.335.335,0,0,0,.019.136,16.511,16.511,0,0,1,7.815,3.684,31.782,31.782,0,0,0,4.711.33c7.66,0,12.546-2.463,12.546-4.15V39.22c-3.006,1.842-7.871,2.811-12.546,2.811-4.692,0-9.558-.969-12.545-2.811" transform="translate(-15.196 -18.787)" fill="#203a72"/>
        <path id="Path_1029433" data-name="Path 1029433" d="M52.38,56.879a15.938,15.938,0,0,1,2.307,4.886c7.349-.116,12.022-2.5,12.022-4.149V54.1c-3.006,1.843-7.872,2.813-12.546,2.813-.6,0-1.183-.019-1.783-.039" transform="translate(-25.091 -25.917)" fill="#203a72"/>
        <path id="Path_1029434" data-name="Path 1029434" d="M44.254,31.35c7.657,0,12.544-2.463,12.544-4.157s-4.887-4.158-12.544-4.158S31.708,25.5,31.708,27.192,36.6,31.35,44.254,31.35" transform="translate(-15.189 -11.034)" fill="#203a72"/>
        <path id="Path_1029435" data-name="Path 1029435" d="M85.451,68.987v3.507c0,1.694,4.887,4.158,12.545,4.158s12.545-2.464,12.545-4.158V68.987C107.55,70.836,102.681,71.8,98,71.8s-9.555-.968-12.545-2.817" transform="translate(-40.933 -33.046)" fill="#203a72"/>
        <path id="Path_1029436" data-name="Path 1029436" d="M85.451,56.967c0,1.695,4.887,4.157,12.545,4.157s12.545-2.463,12.545-4.157-4.888-4.16-12.545-4.16-12.545,2.465-12.545,4.16" transform="translate(-40.933 -25.296)" fill="#203a72"/>
        <path id="Path_1029437" data-name="Path 1029437" d="M79.255,17.231l-2.538-2.147A2.039,2.039,0,1,0,74.082,18.2l6.288,5.322a2.039,2.039,0,0,0,2.873-.239l5.323-6.289a2.038,2.038,0,0,0-3.111-2.633l-2.137,2.525c-.939-7.554-3.709-12.667-8.305-15.173C70.678-.657,65.6-.21,61.45.92A35.087,35.087,0,0,0,53.339,4.3a2.038,2.038,0,0,0,2.1,3.5c.105-.064,10.7-6.3,17.635-2.5,3.354,1.833,5.413,5.865,6.186,11.939" transform="translate(-25.077 0)" fill="#14a0de"/>
      </g>
    </g>
  </g>
</svg>
