<svg xmlns="http://www.w3.org/2000/svg" xmlns:xlink="http://www.w3.org/1999/xlink" width="127.921" height="128" viewBox="0 0 127.921 128">
  <defs>
    <clipPath id="clip-path">
      <rect id="Rectangle_458725" data-name="Rectangle 458725" width="62.955" height="66.88" fill="none"/>
    </clipPath>
  </defs>
  <g id="img63" transform="translate(-705.978 -1710.002)">
    <g id="Group_1180300" data-name="Group 1180300" transform="translate(705.936 1710.002)">
      <g id="Grupo_155253" data-name="Grupo 155253" transform="matrix(0.999, 0.035, -0.035, 0.999, 4.319, 0)">
        <path id="Trazado_196478" data-name="Trazado 196478" d="M17.389,19.468q-.386.412-.764.831A64.6,64.6,0,0,0,.044,66.072L25.8,65.147C25.1,44.584,40.69,27.331,60.618,26.613S97.267,41.982,97.965,62.546l25.755-.925c-.869-25.6-16.481-48.187-39.655-57.372A60.525,60.525,0,0,0,17.389,19.475" transform="translate(0 0)" fill="#f9ce5d"/>
        <path id="Trazado_196479" data-name="Trazado 196479" d="M0,4.454C1.195,39.7,29.849,67.266,64,66.036S124.871,35.241,123.676,0L97.92.925c.7,20.563-14.891,37.815-34.819,38.533S26.453,24.089,25.755,3.526Z" transform="translate(0.042 57.68)" fill="#70f5c8"/>
      </g>
      <ellipse id="Ellipse_13685" data-name="Ellipse 13685" cx="49.806" cy="49.887" rx="49.806" ry="49.887" transform="translate(14.269 14.359)" fill="#fff"/>
    </g>
    <g id="Group_1183562" data-name="Group 1183562" transform="translate(739.271 1740.561)">
      <g id="Group_1183561" data-name="Group 1183561" transform="translate(0 0)" clip-path="url(#clip-path)">
        <path id="Path_1029405" data-name="Path 1029405" d="M27.594,62.82a6.066,6.066,0,0,1,.048-.673,5.066,5.066,0,0,1-.6.024A17.885,17.885,0,0,1,9.2,44.936h2.62a1.646,1.646,0,0,0,1.37-2.572L8.1,34.792a1.618,1.618,0,0,0-2.717,0l-5.1,7.573a1.647,1.647,0,0,0,1.37,2.572H4.349A22.725,22.725,0,0,0,27.041,67.027,5.9,5.9,0,0,0,27.69,67a3.7,3.7,0,0,1-.1-.89Z" transform="translate(0 -13.23)" fill="#203a72"/>
        <path id="Path_1029406" data-name="Path 1029406" d="M23.343,17.163A17.682,17.682,0,0,1,34.569,13.2,17.892,17.892,0,0,1,52.429,31.079a3.51,3.51,0,0,1-.024.506,4.4,4.4,0,0,1,.793-.073h3.293a4.669,4.669,0,0,1,.817.073v-.506A22.7,22.7,0,0,0,53.631,18.7l1.755-1.755a1.988,1.988,0,0,0,0-2.764l-3.943-3.918a1.916,1.916,0,0,0-2.74,0l-1.779,1.755A22.709,22.709,0,0,0,37,8.461V4.855h3.148A2.442,2.442,0,0,0,42.6,2.427,2.442,2.442,0,0,0,40.145,0H28.992A2.442,2.442,0,0,0,26.54,2.427a2.442,2.442,0,0,0,2.451,2.428H32.14V8.484a22.674,22.674,0,0,0-11.851,4.9,2.427,2.427,0,0,0,3.053,3.775" transform="translate(-7.528 0)" fill="#203a72"/>
        <path id="Path_1029407" data-name="Path 1029407" d="M42.51,49.411l2.355-2.332a5.509,5.509,0,0,1,3.966-1.658,5.257,5.257,0,0,1,1.851.312,12.634,12.634,0,0,0,.53-3.7A13.866,13.866,0,0,0,37.365,28.185a1.1,1.1,0,0,0-1.1,1.106V41.55l-9.279,7.909a1.063,1.063,0,0,0-.408.745,1.278,1.278,0,0,0,.264.817,13.872,13.872,0,0,0,10.528,4.831,13.545,13.545,0,0,0,3.847-.552,5.65,5.65,0,0,1,1.3-5.89" transform="translate(-10.324 -10.95)" fill="#203a72"/>
        <path id="Path_1029408" data-name="Path 1029408" d="M81.754,70.671,78.9,70.256l-.812-1.96,1.723-2.308a1.546,1.546,0,0,0-.147-2.02l-2.339-2.341a1.55,1.55,0,0,0-2.02-.146L73,63.2c-.865-.36-1.1-.454-1.96-.811l-.415-2.852a1.546,1.546,0,0,0-1.532-1.325H65.783a1.546,1.546,0,0,0-1.531,1.325l-.414,2.852c-.865.357-1.1.452-1.96.811l-2.31-1.724a1.549,1.549,0,0,0-2.019.146l-2.341,2.341a1.547,1.547,0,0,0-.146,2.019l1.724,2.31-.813,1.96-2.852.415A1.546,1.546,0,0,0,51.8,72.2v3.31a1.546,1.546,0,0,0,1.325,1.532l2.852.415c.358.865.453,1.1.813,1.961l-1.724,2.309a1.548,1.548,0,0,0,.146,2.02l2.341,2.34a1.546,1.546,0,0,0,2.019.147l2.31-1.723,1.96.811.414,2.852A1.547,1.547,0,0,0,65.783,89.5h3.309a1.547,1.547,0,0,0,1.532-1.325l.415-2.852L73,84.51l2.309,1.723a1.548,1.548,0,0,0,2.02-.147l2.339-2.34a1.545,1.545,0,0,0,.147-2.02l-1.729-2.316c.356-.86.453-1.091.81-1.953l2.859-.416a1.546,1.546,0,0,0,1.325-1.532V72.2a1.546,1.546,0,0,0-1.325-1.529M67.438,79.483a5.626,5.626,0,1,1,5.627-5.626,5.625,5.625,0,0,1-5.627,5.626" transform="translate(-20.124 -22.618)" fill="#14a0de"/>
      </g>
    </g>
  </g>
</svg>
