<svg xmlns="http://www.w3.org/2000/svg" xmlns:xlink="http://www.w3.org/1999/xlink" width="127.921" height="128" viewBox="0 0 127.921 128">
  <defs>
    <clipPath id="clip-path">
      <rect id="Rectangle_458728" data-name="Rectangle 458728" width="70.477" height="63.693" fill="none"/>
    </clipPath>
  </defs>
  <g id="img66" transform="translate(-705.979 -1710.001)">
    <g id="Group_1180300" data-name="Group 1180300" transform="translate(705.936 1710.002)">
      <g id="Grupo_155253" data-name="Grupo 155253" transform="matrix(0.999, 0.035, -0.035, 0.999, 4.319, 0)">
        <path id="Trazado_196478" data-name="Trazado 196478" d="M17.389,19.468q-.386.412-.764.831A64.6,64.6,0,0,0,.044,66.072L25.8,65.147C25.1,44.584,40.69,27.331,60.618,26.613S97.267,41.982,97.965,62.546l25.755-.925c-.869-25.6-16.481-48.187-39.655-57.372A60.525,60.525,0,0,0,17.389,19.475" transform="translate(0 0)" fill="#f9ce5d"/>
        <path id="Trazado_196479" data-name="Trazado 196479" d="M0,4.454C1.195,39.7,29.849,67.266,64,66.036S124.871,35.241,123.676,0L97.92.925c.7,20.563-14.891,37.815-34.819,38.533S26.453,24.089,25.755,3.526Z" transform="translate(0.042 57.68)" fill="#70f5c8"/>
      </g>
      <ellipse id="Ellipse_13685" data-name="Ellipse 13685" cx="49.806" cy="49.887" rx="49.806" ry="49.887" transform="translate(14.269 14.359)" fill="#fff"/>
    </g>
    <g id="Group_1183568" data-name="Group 1183568" transform="translate(734.698 1742.155)">
      <g id="Group_1183567" data-name="Group 1183567" clip-path="url(#clip-path)">
        <path id="Path_1029421" data-name="Path 1029421" d="M59.582,66.008l-1.33-1.637c-4.461-5.009-10.867-8.673-13-9.819L44.1,56.371a3.711,3.711,0,0,1-4.094,1.6c-.026-.008-.067-.025-.091-.033a3.764,3.764,0,0,1-2.509-4.4,16.5,16.5,0,0,1,1.919-4.793l-1.945-.274a6.343,6.343,0,0,0-3.913.714l-1.087.59a5.188,5.188,0,0,1-4.486.249l-2.342-.972-8.98,14.04,3.314,2.226,1.762-1.761a3.57,3.57,0,0,1,5.051,0,3.486,3.486,0,0,1,1.013,2.193A3.545,3.545,0,0,1,32.16,69.19a3.4,3.4,0,0,1-.116.872,3.553,3.553,0,0,1,2.185,1.014h.008a3.606,3.606,0,0,1,.922,3.406,3.519,3.519,0,0,1,2.185,1.006v.008a3.576,3.576,0,0,1,.258,4.769l1.836,2.251a2.6,2.6,0,0,0,3.58-.033,2.538,2.538,0,0,0,.075-3.522l-.756-.756a.92.92,0,0,1,0-1.3.909.909,0,0,1,1.288,0l.772.773.615.623a2.572,2.572,0,0,0,3.614,0,.5.5,0,0,1,.066-.066,2.549,2.549,0,0,0-.05-3.523L47.088,73.16a.907.907,0,0,1,0-1.288.925.925,0,0,1,1.3-.008l2.243,2.243a2.593,2.593,0,0,0,3.606,0,2.549,2.549,0,0,0,.058-3.547l-2.343-2.334a.942.942,0,0,1-.266-.648.914.914,0,0,1,1.562-.648L56.11,69.8a2.828,2.828,0,0,0,2.052.814,2.427,2.427,0,0,0,1.769-.773,2.539,2.539,0,0,0,.482-2.658c-.266-.4-.539-.789-.83-1.171" transform="translate(-6.684 -19.518)" fill="#203a72"/>
        <path id="Path_1029422" data-name="Path 1029422" d="M64.227,47.808,60.939,46.7a3.8,3.8,0,0,0-4.348,1.47l-.147.229a14.764,14.764,0,0,0-2.006,4.771,1.976,1.976,0,0,0,1.325,2.272,1.833,1.833,0,0,0,2.042-.8L59.4,52.1a.912.912,0,0,1,.774-.427.9.9,0,0,1,.4.094c.487.239,11.635,5.775,16.778,13.89L82.7,62.613,73.544,48.276a17.1,17.1,0,0,1-9.318-.467" transform="translate(-21.934 -18.752)" fill="#203a72"/>
        <path id="Path_1029423" data-name="Path 1029423" d="M45.562,95.617a1.755,1.755,0,0,0-2.471,0l-2.421,2.42a1.751,1.751,0,0,0,0,2.472,1.8,1.8,0,0,0,2.47,0l2.422-2.42a1.754,1.754,0,0,0,0-2.471Z" transform="translate(-16.195 -38.353)" fill="#203a72"/>
        <path id="Path_1029424" data-name="Path 1029424" d="M39.908,88.22a1.755,1.755,0,0,0-2.471,0l-3.073,3.072a1.754,1.754,0,0,0,0,2.471,1.8,1.8,0,0,0,2.471,0l3.073-3.072a1.749,1.749,0,0,0,0-2.471" transform="translate(-13.653 -35.371)" fill="#203a72"/>
        <path id="Path_1029425" data-name="Path 1029425" d="M34.762,82.057a1.747,1.747,0,0,0-2.981-1.236l-3.722,3.722a1.756,1.756,0,0,0,0,2.471,1.8,1.8,0,0,0,2.472,0l3.724-3.722a1.735,1.735,0,0,0,.508-1.235" transform="translate(-11.11 -32.386)" fill="#203a72"/>
        <path id="Path_1029426" data-name="Path 1029426" d="M27.3,75.606h0a1.755,1.755,0,0,0-2.471,0l-3.071,3.072a1.753,1.753,0,0,0,0,2.471,1.75,1.75,0,0,0,2.472,0L27.3,78.078a1.751,1.751,0,0,0,0-2.472" transform="translate(-8.566 -30.284)" fill="#203a72"/>
        <path id="Path_1029427" data-name="Path 1029427" d="M17.417,40.736l-4.229-2.7a1.557,1.557,0,0,0-2.151.473L.246,55.4a1.569,1.569,0,0,0,.474,2.16l4.228,2.7a1.57,1.57,0,0,0,2.16-.473L17.9,42.9a1.569,1.569,0,0,0-.482-2.16M6.539,56.2A1.661,1.661,0,1,1,6.033,53.9,1.661,1.661,0,0,1,6.539,56.2" transform="translate(0 -15.239)" fill="#203a72"/>
        <path id="Path_1029428" data-name="Path 1029428" d="M105.6,55.4,94.811,38.51a1.535,1.535,0,0,0-.98-.681,1.557,1.557,0,0,0-1.18.208l-4.228,2.7a1.567,1.567,0,0,0-.473,2.16L98.741,59.785a1.559,1.559,0,0,0,2.151.474l4.229-2.7a1.569,1.569,0,0,0,.482-2.16m-4,1.3a1.661,1.661,0,1,1,.5-2.294,1.661,1.661,0,0,1-.5,2.294" transform="translate(-35.367 -15.239)" fill="#203a72"/>
        <path id="Path_1029429" data-name="Path 1029429" d="M51.04,0A11.854,11.854,0,1,0,62.895,11.855,11.854,11.854,0,0,0,51.04,0m5.593,10.033-5.939,5.938a1.624,1.624,0,0,1-2.3,0l-2.952-2.951a1.623,1.623,0,0,1,2.3-2.3l1.8,1.8,4.791-4.791a1.624,1.624,0,0,1,2.3,2.3" transform="translate(-15.802 0)" fill="#14a0de"/>
      </g>
    </g>
  </g>
</svg>
