<svg xmlns="http://www.w3.org/2000/svg" xmlns:xlink="http://www.w3.org/1999/xlink" width="149.909" height="150.001" viewBox="0 0 149.909 150.001">
  <defs>
    <clipPath id="clip-path">
      <rect id="Rectangle_458770" data-name="Rectangle 458770" width="63.31" height="74.08" fill="none"/>
    </clipPath>
  </defs>
  <g id="img9" transform="translate(-705.985 -1710.001)">
    <g id="Group_1180300" data-name="Group 1180300" transform="translate(705.936 1710.002)">
      <g id="Grupo_155253" data-name="Grupo 155253" transform="matrix(0.999, 0.035, -0.035, 0.999, 5.062, 0)">
        <path id="Trazado_196478" data-name="Trazado 196478" d="M20.377,22.814q-.452.483-.9.974A75.7,75.7,0,0,0,.051,77.428l30.182-1.084c-.818-24.1,17.45-44.315,40.8-45.157S113.985,49.2,114.8,73.3l30.182-1.084c-1.018-30-19.313-56.469-46.471-67.234A70.928,70.928,0,0,0,20.377,22.822" transform="translate(0 0)" fill="#f9ce5d"/>
        <path id="Trazado_196479" data-name="Trazado 196479" d="M0,5.22c1.4,41.3,34.98,73.608,75,72.167S146.334,41.3,144.933,0L114.751,1.084c.818,24.1-17.451,44.315-40.8,45.156S31,28.229,30.182,4.132Z" transform="translate(0.049 67.595)" fill="#70f5c8"/>
      </g>
      <ellipse id="Ellipse_13685" data-name="Ellipse 13685" cx="58.366" cy="58.462" rx="58.366" ry="58.462" transform="translate(16.722 16.827)" fill="#fff"/>
    </g>
    <g id="Group_1183647" data-name="Group 1183647" transform="translate(749.281 1747.962)">
      <g id="Group_1183646" data-name="Group 1183646" clip-path="url(#clip-path)">
        <path id="Path_1029671" data-name="Path 1029671" d="M7.871,58.751A2.434,2.434,0,0,1,5.45,56.329V25.313H52.681v18.4a18.551,18.551,0,0,1,5.449,2.169V17.139a7.423,7.423,0,0,0-7.4-7.4h-1.6v3.129a6.1,6.1,0,0,1-6.072,6.089H39.325a6.1,6.1,0,0,1-6.073-6.089V9.737H24.877v3.129a6.1,6.1,0,0,1-6.089,6.089H15.07A6.1,6.1,0,0,1,9,12.866V9.737H7.871A7.879,7.879,0,0,0,0,17.594V56.329A7.882,7.882,0,0,0,7.871,64.2H29.249a14.169,14.169,0,0,1-.084-1.7,18.483,18.483,0,0,1,.37-3.75Z" transform="translate(0 -3.297)" fill="#203a72"/>
        <rect id="Rectangle_458767" data-name="Rectangle 458767" width="9.396" height="6.01" rx="1.413" transform="translate(10.34 26.47)" fill="#203a72"/>
        <path id="Path_1029672" data-name="Path 1029672" d="M24.094,68.018H16.568a.936.936,0,0,0-.935.937v4.14a.936.936,0,0,0,.935.935h7.527a.935.935,0,0,0,.935-.935v-4.14a.935.935,0,0,0-.935-.937" transform="translate(-5.293 -23.031)" fill="#203a72"/>
        <path id="Path_1029673" data-name="Path 1029673" d="M58.992,46.032h7.525a.934.934,0,0,0,.936-.935V40.957a.935.935,0,0,0-.936-.935H58.992a.935.935,0,0,0-.935.935V45.1a.934.934,0,0,0,.935.935" transform="translate(-19.659 -13.552)" fill="#203a72"/>
        <rect id="Rectangle_458768" data-name="Rectangle 458768" width="9.396" height="6.01" rx="1.413" transform="translate(24.369 26.47)" fill="#203a72"/>
        <path id="Path_1029674" data-name="Path 1029674" d="M46.236,68.953a.923.923,0,0,0-.927-.925H37.775a.933.933,0,0,0-.925.925v4.154a.933.933,0,0,0,.925.925h5.7a18.342,18.342,0,0,1,2.759-4.256Z" transform="translate(-12.478 -23.035)" fill="#203a72"/>
        <rect id="Rectangle_458769" data-name="Rectangle 458769" width="9.396" height="6.01" rx="1.413" transform="translate(10.34 35.729)" fill="#203a72"/>
        <path id="Path_1029675" data-name="Path 1029675" d="M58.985,60.035h.976a18.977,18.977,0,0,1,7.5-1.782v-3.3a.94.94,0,0,0-.941-.942H58.985a.937.937,0,0,0-.925.942v4.138a.937.937,0,0,0,.925.941" transform="translate(-19.66 -18.29)" fill="#203a72"/>
        <path id="Path_1029676" data-name="Path 1029676" d="M45.3,54.021H37.78a.934.934,0,0,0-.935.935V59.1a.935.935,0,0,0,.935.935H45.3a.936.936,0,0,0,.937-.935V54.956a.935.935,0,0,0-.937-.935" transform="translate(-12.476 -18.292)" fill="#203a72"/>
        <path id="Path_1029677" data-name="Path 1029677" d="M21.788,11.533h3.727A1.963,1.963,0,0,0,27.478,9.57v-7.6A1.964,1.964,0,0,0,25.515,0H21.788a1.965,1.965,0,0,0-1.964,1.965v7.6a1.964,1.964,0,0,0,1.964,1.963" transform="translate(-6.713)" fill="#203a72"/>
        <path id="Path_1029678" data-name="Path 1029678" d="M58.463,11.533H62.19A1.963,1.963,0,0,0,64.153,9.57v-7.6A1.964,1.964,0,0,0,62.19,0H58.463A1.964,1.964,0,0,0,56.5,1.965v7.6a1.963,1.963,0,0,0,1.963,1.963" transform="translate(-19.131)" fill="#203a72"/>
        <path id="Path_1029679" data-name="Path 1029679" d="M65.6,67A14.882,14.882,0,1,0,80.484,81.887,14.882,14.882,0,0,0,65.6,67m6.081,17.068H65.6a2.186,2.186,0,0,1-2.186-2.186V73.626a2.186,2.186,0,1,1,4.372,0V79.7h3.894a2.186,2.186,0,0,1,0,4.372" transform="translate(-17.174 -22.688)" fill="#14a0de"/>
      </g>
    </g>
  </g>
</svg>
